<?xml version="1.0" encoding="UTF-8" standalone="no"?>
<!DOCTYPE svg PUBLIC "-//W3C//DTD SVG 1.1//EN"
 "http://www.w3.org/Graphics/SVG/1.1/DTD/svg11.dtd">
<!-- Generated by graphviz version 2.50.0 (0)
 -->
<!-- Title: ACCom.cpp Pages: 1 -->
<!--zoomable 272 -->
<svg id="main" version="1.1" xmlns="http://www.w3.org/2000/svg" xmlns:xlink="http://www.w3.org/1999/xlink" xml:space="preserve" onload="init(evt)">
<style><![CDATA[
text { fill: #e6e6e6 !important; }
polygon { fill: #2f2f2f !important; stroke: #9aa0a6 !important; }
path, line, polyline { stroke: #4e67d6 !important; }
]]></style>
<style><![CDATA[
text { fill: #e6e6e6 !important; }
polygon { fill: #2f2f2f !important; stroke: #9aa0a6 !important; }
path, line, polyline { stroke: #4e67d6 !important; }
]]></style>
<style><![CDATA[
text { fill: #e6e6e6 !important; }
polygon { fill: #2f2f2f !important; stroke: #9aa0a6 !important; }
path, line, polyline { stroke: #4e67d6 !important; }
]]></style>
<style><![CDATA[
text { fill: #e6e6e6 !important; }
polygon { fill: #2f2f2f !important; stroke: #9aa0a6 !important; }
path, line, polyline { stroke: #4e67d6 !important; }
]]></style>
<style><![CDATA[
text { fill: #e6e6e6 !important; }
polygon { fill: #2f2f2f !important; stroke: #9aa0a6 !important; }
path, line, polyline { stroke: #4e67d6 !important; }
]]></style>
<style><![CDATA[
text { fill: #e6e6e6 !important; }
polygon { fill: #2f2f2f !important; stroke: #9aa0a6 !important; }
path, line, polyline { stroke: #4e67d6 !important; }
]]></style>
<style><![CDATA[
text { fill: #e6e6e6 !important; }
polygon { fill: #2f2f2f !important; stroke: #9aa0a6 !important; }
path, line, polyline { stroke: #4e67d6 !important; }
]]></style>
<style type="text/css"><![CDATA[
.edge:hover path { stroke: red; }
.edge:hover polygon { stroke: red; fill: red; }
]]></style>
<script type="text/javascript"><![CDATA[
var edges = document.getElementsByTagName('g');
if (edges && edges.length) {
  for (var i=0;i<edges.length;i++) {
    if (edges[i].id.substr(0,4)=='edge') {
      edges[i].setAttribute('class','edge');
    }
  }
}
]]></script>
        <defs>
                <circle id="rim" cx="0" cy="0" r="7"/>
                <circle id="rim2" cx="0" cy="0" r="3.5"/>
                <g id="zoomPlus">
                        <use xlink:href="#rim" fill="#404040">
                                <set attributeName="fill" to="#808080" begin="zoomplus.mouseover" end="zoomplus.mouseout"/>
                        </use>
                        <path d="M-4,0h8M0,-4v8" fill="none" stroke="white" stroke-width="1.5" pointer-events="none"/>
                </g>
                <g id="zoomMin">
                        <use xlink:href="#rim" fill="#404040">
                                <set attributeName="fill" to="#808080" begin="zoomminus.mouseover" end="zoomminus.mouseout"/>
                        </use>
                        <path d="M-4,0h8" fill="none" stroke="white" stroke-width="1.5" pointer-events="none"/>
                </g>
                <g id="dirArrow">
                        <path fill="none" stroke="white" stroke-width="1.5" d="M0,-3.0v7 M-2.5,-0.5L0,-3.0L2.5,-0.5"/>
                </g>
               <g id="resetDef">
                       <use xlink:href="#rim2" fill="#404040">
                               <set attributeName="fill" to="#808080" begin="reset.mouseover" end="reset.mouseout"/>
                       </use>
               </g>
        </defs>

<script type="text/javascript">
var viewWidth = 1134;
var viewHeight = 272;
var sectionId = 'dynsection-0';
</script>
<script xlink:href="svgpan.js"/>
<svg id="graph" class="graph">
<g id="viewport">
<title>ACCom.cpp</title>
<!-- Node1 -->
<g id="node1" class="node">
<title>Node1</title>
<g id="a_node1"><a xlink:title="AC communication backend for AC Com.">
<polygon fill="#bfbfbf" stroke="black" points="474.5,-240.5 474.5,-263.5 571.5,-263.5 571.5,-240.5 474.5,-240.5"/>
<text text-anchor="middle" x="523" y="-248.3" font-family="Helvetica,sans-Serif" font-size="14.00">ACCom.cpp</text>
</a>
</g>
</g>
<!-- Node2 -->
<g id="node2" class="node">
<title>Node2</title>
<g id="a_node2"><a xlink:href="ACRSCom_8h.html" target="_top" xlink:title="AC communication backend for ACRS Com.">
<polygon fill="none" stroke="black" points="270.5,-180.5 270.5,-203.5 369.5,-203.5 369.5,-180.5 270.5,-180.5"/>
<text text-anchor="middle" x="320" y="-188.3" font-family="Helvetica,sans-Serif" font-size="14.00">ACRSCom.h</text>
</a>
</g>
</g>
<!-- Node1&#45;&gt;Node2 -->
<g id="edge1" class="edge">
<title>Node1&#45;&gt;Node2</title>
<path fill="none" stroke="midnightblue" d="M486.24,-240.5C452.71,-230.92 403.02,-216.72 366.7,-206.34"/>
<polygon fill="midnightblue" stroke="midnightblue" points="367.41,-202.91 356.83,-203.52 365.48,-209.64 367.41,-202.91"/>
</g>
<!-- Node18 -->
<g id="node18" class="node">
<title>Node18</title>
<g id="a_node18"><a xlink:href="ACEthCom_8h.html" target="_top" xlink:title="AC communication backend for AC Eth Com.">
<polygon fill="none" stroke="black" points="409,-180.5 409,-203.5 513,-203.5 513,-180.5 409,-180.5"/>
<text text-anchor="middle" x="461" y="-188.3" font-family="Helvetica,sans-Serif" font-size="14.00">ACEthCom.h</text>
</a>
</g>
</g>
<!-- Node1&#45;&gt;Node18 -->
<g id="edge18" class="edge">
<title>Node1&#45;&gt;Node18</title>
<path fill="none" stroke="midnightblue" d="M511.63,-240.36C502.71,-232.02 490.12,-220.24 479.72,-210.52"/>
<polygon fill="midnightblue" stroke="midnightblue" points="481.99,-207.85 472.3,-203.57 477.21,-212.96 481.99,-207.85"/>
</g>
<!-- Node20 -->
<g id="node20" class="node">
<title>Node20</title>
<g id="a_node20"><a xlink:href="ACUsbCom_8h.html" target="_top" xlink:title=" ">
<polygon fill="none" stroke="black" points="531.5,-180.5 531.5,-203.5 638.5,-203.5 638.5,-180.5 531.5,-180.5"/>
<text text-anchor="middle" x="585" y="-188.3" font-family="Helvetica,sans-Serif" font-size="14.00">ACUsbCom.h</text>
</a>
</g>
</g>
<!-- Node1&#45;&gt;Node20 -->
<g id="edge21" class="edge">
<title>Node1&#45;&gt;Node20</title>
<path fill="none" stroke="midnightblue" d="M534.37,-240.36C543.29,-232.02 555.88,-220.24 566.28,-210.52"/>
<polygon fill="midnightblue" stroke="midnightblue" points="568.79,-212.96 573.7,-203.57 564.01,-207.85 568.79,-212.96"/>
</g>
<!-- Node22 -->
<g id="node22" class="node">
<title>Node22</title>
<g id="a_node22"><a xlink:href="Utils_8h.html" target="_top" xlink:title="Utility helpers.">
<polygon fill="none" stroke="black" points="839.5,-180.5 839.5,-203.5 900.5,-203.5 900.5,-180.5 839.5,-180.5"/>
<text text-anchor="middle" x="870" y="-188.3" font-family="Helvetica,sans-Serif" font-size="14.00">Utils.h</text>
</a>
</g>
</g>
<!-- Node1&#45;&gt;Node22 -->
<g id="edge24" class="edge">
<title>Node1&#45;&gt;Node22</title>
<path fill="none" stroke="midnightblue" d="M571.61,-242.87C640.35,-231.39 764.7,-210.6 829.01,-199.85"/>
<polygon fill="midnightblue" stroke="midnightblue" points="829.89,-203.25 839.17,-198.15 828.73,-196.35 829.89,-203.25"/>
</g>
<!-- Node3 -->
<g id="node3" class="node">
<title>Node3</title>
<g id="a_node3"><a xlink:title=" ">
<polygon fill="none" stroke="#bfbfbf" points="173.5,-120.5 173.5,-143.5 238.5,-143.5 238.5,-120.5 173.5,-120.5"/>
<text text-anchor="middle" x="206" y="-128.3" font-family="Helvetica,sans-Serif" font-size="14.00">cstring</text>
</a>
</g>
</g>
<!-- Node2&#45;&gt;Node3 -->
<g id="edge2" class="edge">
<title>Node2&#45;&gt;Node3</title>
<path fill="none" stroke="midnightblue" d="M299.36,-180.5C281.63,-171.48 255.86,-158.36 235.88,-148.2"/>
<polygon fill="midnightblue" stroke="midnightblue" points="237.38,-145.04 226.88,-143.62 234.2,-151.28 237.38,-145.04"/>
</g>
<!-- Node4 -->
<g id="node4" class="node">
<title>Node4</title>
<g id="a_node4"><a xlink:title=" ">
<polygon fill="none" stroke="#bfbfbf" points="257,-120.5 257,-143.5 339,-143.5 339,-120.5 257,-120.5"/>
<text text-anchor="middle" x="298" y="-128.3" font-family="Helvetica,sans-Serif" font-size="14.00">termios.h</text>
</a>
</g>
</g>
<!-- Node2&#45;&gt;Node4 -->
<g id="edge3" class="edge">
<title>Node2&#45;&gt;Node4</title>
<path fill="none" stroke="midnightblue" d="M315.96,-180.36C313.08,-172.76 309.11,-162.29 305.64,-153.13"/>
<polygon fill="midnightblue" stroke="midnightblue" points="308.83,-151.68 302.01,-143.57 302.28,-154.16 308.83,-151.68"/>
</g>
<!-- Node5 -->
<g id="node5" class="node">
<title>Node5</title>
<g id="a_node5"><a xlink:href="ACCom_8h.html" target="_top" xlink:title="AC communication backend for AC Com.">
<polygon fill="none" stroke="black" points="357,-120.5 357,-143.5 437,-143.5 437,-120.5 357,-120.5"/>
<text text-anchor="middle" x="397" y="-128.3" font-family="Helvetica,sans-Serif" font-size="14.00">ACCom.h</text>
</a>
</g>
</g>
<!-- Node2&#45;&gt;Node5 -->
<g id="edge4" class="edge">
<title>Node2&#45;&gt;Node5</title>
<path fill="none" stroke="midnightblue" d="M334.12,-180.36C345.52,-171.78 361.76,-159.55 374.88,-149.66"/>
<polygon fill="midnightblue" stroke="midnightblue" points="377.08,-152.38 382.97,-143.57 372.87,-146.79 377.08,-152.38"/>
</g>
<!-- Node6 -->
<g id="node6" class="node">
<title>Node6</title>
<g id="a_node6"><a xlink:title=" ">
<polygon fill="none" stroke="#bfbfbf" points="308.5,-60.5 308.5,-83.5 365.5,-83.5 365.5,-60.5 308.5,-60.5"/>
<text text-anchor="middle" x="337" y="-68.3" font-family="Helvetica,sans-Serif" font-size="14.00">string</text>
</a>
</g>
</g>
<!-- Node5&#45;&gt;Node6 -->
<g id="edge5" class="edge">
<title>Node5&#45;&gt;Node6</title>
<path fill="none" stroke="midnightblue" d="M386,-120.36C377.45,-112.1 365.42,-100.47 355.42,-90.8"/>
<polygon fill="midnightblue" stroke="midnightblue" points="357.56,-88 347.94,-83.57 352.69,-93.04 357.56,-88"/>
</g>
<!-- Node7 -->
<g id="node7" class="node">
<title>Node7</title>
<g id="a_node7"><a xlink:title=" ">
<polygon fill="none" stroke="#bfbfbf" points="534.5,-60.5 534.5,-83.5 611.5,-83.5 611.5,-60.5 534.5,-60.5"/>
<text text-anchor="middle" x="573" y="-68.3" font-family="Helvetica,sans-Serif" font-size="14.00">iostream</text>
</a>
</g>
</g>
<!-- Node5&#45;&gt;Node7 -->
<g id="edge6" class="edge">
<title>Node5&#45;&gt;Node7</title>
<path fill="none" stroke="midnightblue" d="M428.87,-120.5C457.57,-111.04 499.92,-97.08 531.3,-86.74"/>
<polygon fill="midnightblue" stroke="midnightblue" points="532.67,-89.98 541.07,-83.52 530.47,-83.33 532.67,-89.98"/>
</g>
<!-- Node8 -->
<g id="node8" class="node">
<title>Node8</title>
<g id="a_node8"><a xlink:title=" ">
<polygon fill="none" stroke="#bfbfbf" points="630,-60.5 630,-83.5 700,-83.5 700,-60.5 630,-60.5"/>
<text text-anchor="middle" x="665" y="-68.3" font-family="Helvetica,sans-Serif" font-size="14.00">fstream</text>
</a>
</g>
</g>
<!-- Node5&#45;&gt;Node8 -->
<g id="edge7" class="edge">
<title>Node5&#45;&gt;Node8</title>
<path fill="none" stroke="midnightblue" d="M437.1,-121.94C440.11,-121.28 443.1,-120.62 446,-120 520.6,-103.96 541.93,-101.79 620.14,-84.13"/>
<polygon fill="midnightblue" stroke="midnightblue" points="620.99,-87.53 629.97,-81.9 619.44,-80.7 620.99,-87.53"/>
</g>
<!-- Node9 -->
<g id="node9" class="node">
<title>Node9</title>
<g id="a_node9"><a xlink:title=" ">
<polygon fill="none" stroke="#bfbfbf" points="0,-60.5 0,-83.5 60,-83.5 60,-60.5 0,-60.5"/>
<text text-anchor="middle" x="30" y="-68.3" font-family="Helvetica,sans-Serif" font-size="14.00">vector</text>
</a>
</g>
</g>
<!-- Node5&#45;&gt;Node9 -->
<g id="edge8" class="edge">
<title>Node5&#45;&gt;Node9</title>
<path fill="none" stroke="midnightblue" d="M356.95,-121.69C353.93,-121.09 350.92,-120.51 348,-120 228,-98.84 193.25,-108.51 69.95,-83.96"/>
<polygon fill="midnightblue" stroke="midnightblue" points="70.62,-80.52 60.13,-81.97 69.23,-87.38 70.62,-80.52"/>
</g>
<!-- Node10 -->
<g id="node10" class="node">
<title>Node10</title>
<g id="a_node10"><a xlink:title=" ">
<polygon fill="none" stroke="#bfbfbf" points="78,-60.5 78,-83.5 152,-83.5 152,-60.5 78,-60.5"/>
<text text-anchor="middle" x="115" y="-68.3" font-family="Helvetica,sans-Serif" font-size="14.00">stdarg.h</text>
</a>
</g>
</g>
<!-- Node5&#45;&gt;Node10 -->
<g id="edge9" class="edge">
<title>Node5&#45;&gt;Node10</title>
<path fill="none" stroke="midnightblue" d="M356.91,-121.9C353.9,-121.24 350.9,-120.6 348,-120 268.22,-103.37 245.41,-101.93 162.04,-84.16"/>
<polygon fill="midnightblue" stroke="midnightblue" points="162.64,-80.71 152.12,-82.03 161.17,-87.55 162.64,-80.71"/>
</g>
<!-- Node11 -->
<g id="node11" class="node">
<title>Node11</title>
<g id="a_node11"><a xlink:href="PosixCompat_8h.html" target="_top" xlink:title=" ">
<polygon fill="none" stroke="black" points="170,-60.5 170,-83.5 290,-83.5 290,-60.5 170,-60.5"/>
<text text-anchor="middle" x="230" y="-68.3" font-family="Helvetica,sans-Serif" font-size="14.00">PosixCompat.h</text>
</a>
</g>
</g>
<!-- Node5&#45;&gt;Node11 -->
<g id="edge10" class="edge">
<title>Node5&#45;&gt;Node11</title>
<path fill="none" stroke="midnightblue" d="M366.76,-120.5C339.65,-111.08 299.69,-97.2 269.96,-86.88"/>
<polygon fill="midnightblue" stroke="midnightblue" points="270.89,-83.5 260.3,-83.52 268.6,-90.11 270.89,-83.5"/>
</g>
<!-- Node14 -->
<g id="node14" class="node">
<title>Node14</title>
<g id="a_node14"><a xlink:href="QsLog_8h.html" target="_top" xlink:title="Qs Log logging support.">
<polygon fill="none" stroke="black" points="718,-60.5 718,-83.5 792,-83.5 792,-60.5 718,-60.5"/>
<text text-anchor="middle" x="755" y="-68.3" font-family="Helvetica,sans-Serif" font-size="14.00">QsLog.h</text>
</a>
</g>
</g>
<!-- Node5&#45;&gt;Node14 -->
<g id="edge13" class="edge">
<title>Node5&#45;&gt;Node14</title>
<path fill="none" stroke="midnightblue" d="M437.06,-121.72C440.08,-121.11 443.08,-120.53 446,-120 558.93,-99.63 591.29,-105.4 707.87,-84.07"/>
<polygon fill="midnightblue" stroke="midnightblue" points="708.72,-87.47 717.91,-82.2 707.44,-80.59 708.72,-87.47"/>
</g>
<!-- Node16 -->
<g id="node16" class="node">
<title>Node16</title>
<g id="a_node16"><a xlink:title=" ">
<polygon fill="none" stroke="#bfbfbf" points="494,-0.5 494,-23.5 564,-23.5 564,-0.5 494,-0.5"/>
<text text-anchor="middle" x="529" y="-8.3" font-family="Helvetica,sans-Serif" font-size="14.00">QString</text>
</a>
</g>
</g>
<!-- Node5&#45;&gt;Node16 -->
<g id="edge16" class="edge">
<title>Node5&#45;&gt;Node16</title>
<path fill="none" stroke="midnightblue" d="M396.5,-120.27C396.37,-105.09 398.36,-77.24 413,-60 430.92,-38.89 459.74,-27.15 484.18,-20.68"/>
<polygon fill="midnightblue" stroke="midnightblue" points="485.09,-24.06 493.99,-18.3 483.44,-17.26 485.09,-24.06"/>
</g>
<!-- Node17 -->
<g id="node17" class="node">
<title>Node17</title>
<g id="a_node17"><a xlink:title=" ">
<polygon fill="none" stroke="#bfbfbf" points="422,-60.5 422,-83.5 516,-83.5 516,-60.5 422,-60.5"/>
<text text-anchor="middle" x="469" y="-68.3" font-family="Helvetica,sans-Serif" font-size="14.00">QStringList</text>
</a>
</g>
</g>
<!-- Node5&#45;&gt;Node17 -->
<g id="edge17" class="edge">
<title>Node5&#45;&gt;Node17</title>
<path fill="none" stroke="midnightblue" d="M410.21,-120.36C420.76,-111.86 435.76,-99.78 447.96,-89.95"/>
<polygon fill="midnightblue" stroke="midnightblue" points="450.29,-92.57 455.88,-83.57 445.89,-87.12 450.29,-92.57"/>
</g>
<!-- Node12 -->
<g id="node12" class="node">
<title>Node12</title>
<g id="a_node12"><a xlink:title=" ">
<polygon fill="none" stroke="#bfbfbf" points="134.5,-0.5 134.5,-23.5 211.5,-23.5 211.5,-0.5 134.5,-0.5"/>
<text text-anchor="middle" x="173" y="-8.3" font-family="Helvetica,sans-Serif" font-size="14.00">QtGlobal</text>
</a>
</g>
</g>
<!-- Node11&#45;&gt;Node12 -->
<g id="edge11" class="edge">
<title>Node11&#45;&gt;Node12</title>
<path fill="none" stroke="midnightblue" d="M219.55,-60.36C211.43,-52.1 200,-40.47 190.5,-30.8"/>
<polygon fill="midnightblue" stroke="midnightblue" points="192.89,-28.25 183.39,-23.57 187.9,-33.16 192.89,-28.25"/>
</g>
<!-- Node13 -->
<g id="node13" class="node">
<title>Node13</title>
<g id="a_node13"><a xlink:title=" ">
<polygon fill="none" stroke="#bfbfbf" points="230,-0.5 230,-23.5 304,-23.5 304,-0.5 230,-0.5"/>
<text text-anchor="middle" x="267" y="-8.3" font-family="Helvetica,sans-Serif" font-size="14.00">unistd.h</text>
</a>
</g>
</g>
<!-- Node11&#45;&gt;Node13 -->
<g id="edge12" class="edge">
<title>Node11&#45;&gt;Node13</title>
<path fill="none" stroke="midnightblue" d="M236.79,-60.36C241.79,-52.51 248.75,-41.62 254.72,-32.25"/>
<polygon fill="midnightblue" stroke="midnightblue" points="257.83,-33.88 260.26,-23.57 251.93,-30.12 257.83,-33.88"/>
</g>
<!-- Node15 -->
<g id="node15" class="node">
<title>Node15</title>
<g id="a_node15"><a xlink:title=" ">
<polygon fill="none" stroke="#bfbfbf" points="718,-0.5 718,-23.5 792,-23.5 792,-0.5 718,-0.5"/>
<text text-anchor="middle" x="755" y="-8.3" font-family="Helvetica,sans-Serif" font-size="14.00">QDebug</text>
</a>
</g>
</g>
<!-- Node14&#45;&gt;Node15 -->
<g id="edge14" class="edge">
<title>Node14&#45;&gt;Node15</title>
<path fill="none" stroke="midnightblue" d="M755,-60.36C755,-52.92 755,-42.74 755,-33.73"/>
<polygon fill="midnightblue" stroke="midnightblue" points="758.5,-33.57 755,-23.57 751.5,-33.57 758.5,-33.57"/>
</g>
<!-- Node14&#45;&gt;Node16 -->
<g id="edge15" class="edge">
<title>Node14&#45;&gt;Node16</title>
<path fill="none" stroke="midnightblue" d="M717.93,-61.49C678.52,-51.37 616.16,-35.37 573.96,-24.54"/>
<polygon fill="midnightblue" stroke="midnightblue" points="574.78,-21.14 564.23,-22.04 573.04,-27.92 574.78,-21.14"/>
</g>
<!-- Node18&#45;&gt;Node5 -->
<g id="edge20" class="edge">
<title>Node18&#45;&gt;Node5</title>
<path fill="none" stroke="midnightblue" d="M449.26,-180.36C440.06,-172.02 427.06,-160.24 416.33,-150.52"/>
<polygon fill="midnightblue" stroke="midnightblue" points="418.42,-147.69 408.66,-143.57 413.72,-152.88 418.42,-147.69"/>
</g>
<!-- Node19 -->
<g id="node19" class="node">
<title>Node19</title>
<g id="a_node19"><a xlink:title=" ">
<polygon fill="none" stroke="#bfbfbf" points="455,-120.5 455,-143.5 553,-143.5 553,-120.5 455,-120.5"/>
<text text-anchor="middle" x="504" y="-128.3" font-family="Helvetica,sans-Serif" font-size="14.00">sys/select.h</text>
</a>
</g>
</g>
<!-- Node18&#45;&gt;Node19 -->
<g id="edge19" class="edge">
<title>Node18&#45;&gt;Node19</title>
<path fill="none" stroke="midnightblue" d="M468.89,-180.36C474.83,-172.35 483.12,-161.16 490.16,-151.67"/>
<polygon fill="midnightblue" stroke="midnightblue" points="493.02,-153.69 496.16,-143.57 487.4,-149.52 493.02,-153.69"/>
</g>
<!-- Node20&#45;&gt;Node5 -->
<g id="edge23" class="edge">
<title>Node20&#45;&gt;Node5</title>
<path fill="none" stroke="midnightblue" d="M550.95,-180.5C520.04,-170.96 474.28,-156.84 440.68,-146.48"/>
<polygon fill="midnightblue" stroke="midnightblue" points="441.7,-143.13 431.11,-143.52 439.63,-149.82 441.7,-143.13"/>
</g>
<!-- Node21 -->
<g id="node21" class="node">
<title>Node21</title>
<g id="a_node21"><a xlink:title=" ">
<polygon fill="none" stroke="#bfbfbf" points="571,-120.5 571,-143.5 717,-143.5 717,-120.5 571,-120.5"/>
<text text-anchor="middle" x="644" y="-128.3" font-family="Helvetica,sans-Serif" font-size="14.00">libusb&#45;1.0/libusb.h</text>
</a>
</g>
</g>
<!-- Node20&#45;&gt;Node21 -->
<g id="edge22" class="edge">
<title>Node20&#45;&gt;Node21</title>
<path fill="none" stroke="midnightblue" d="M595.82,-180.36C604.22,-172.1 616.05,-160.47 625.89,-150.8"/>
<polygon fill="midnightblue" stroke="midnightblue" points="628.57,-153.08 633.25,-143.57 623.66,-148.09 628.57,-153.08"/>
</g>
<!-- Node22&#45;&gt;Node14 -->
<g id="edge29" class="edge">
<title>Node22&#45;&gt;Node14</title>
<path fill="none" stroke="midnightblue" d="M839.17,-184.32C816.65,-177.82 787.15,-165.66 770,-144 758.73,-129.77 755.4,-109.08 754.63,-93.7"/>
<polygon fill="midnightblue" stroke="midnightblue" points="758.13,-93.54 754.45,-83.61 751.13,-93.67 758.13,-93.54"/>
</g>
<!-- Node23 -->
<g id="node23" class="node">
<title>Node23</title>
<g id="a_node23"><a xlink:title=" ">
<polygon fill="none" stroke="#bfbfbf" points="779,-120.5 779,-143.5 873,-143.5 873,-120.5 779,-120.5"/>
<text text-anchor="middle" x="826" y="-128.3" font-family="Helvetica,sans-Serif" font-size="14.00">QDateTime</text>
</a>
</g>
</g>
<!-- Node22&#45;&gt;Node23 -->
<g id="edge25" class="edge">
<title>Node22&#45;&gt;Node23</title>
<path fill="none" stroke="midnightblue" d="M861.93,-180.36C855.85,-172.35 847.36,-161.16 840.16,-151.67"/>
<polygon fill="midnightblue" stroke="midnightblue" points="842.85,-149.42 834.02,-143.57 837.27,-153.65 842.85,-149.42"/>
</g>
<!-- Node24 -->
<g id="node24" class="node">
<title>Node24</title>
<g id="a_node24"><a xlink:title=" ">
<polygon fill="none" stroke="#bfbfbf" points="891,-120.5 891,-143.5 939,-143.5 939,-120.5 891,-120.5"/>
<text text-anchor="middle" x="915" y="-128.3" font-family="Helvetica,sans-Serif" font-size="14.00">QDir</text>
</a>
</g>
</g>
<!-- Node22&#45;&gt;Node24 -->
<g id="edge26" class="edge">
<title>Node22&#45;&gt;Node24</title>
<path fill="none" stroke="midnightblue" d="M878.25,-180.36C884.47,-172.35 893.15,-161.16 900.51,-151.67"/>
<polygon fill="midnightblue" stroke="midnightblue" points="903.43,-153.62 906.8,-143.57 897.9,-149.33 903.43,-153.62"/>
</g>
<!-- Node25 -->
<g id="node25" class="node">
<title>Node25</title>
<g id="a_node25"><a xlink:title=" ">
<polygon fill="none" stroke="#bfbfbf" points="957.5,-120.5 957.5,-143.5 1052.5,-143.5 1052.5,-120.5 957.5,-120.5"/>
<text text-anchor="middle" x="1005" y="-128.3" font-family="Helvetica,sans-Serif" font-size="14.00">QTableView</text>
</a>
</g>
</g>
<!-- Node22&#45;&gt;Node25 -->
<g id="edge27" class="edge">
<title>Node22&#45;&gt;Node25</title>
<path fill="none" stroke="midnightblue" d="M894.45,-180.5C915.82,-171.32 947.07,-157.89 970.9,-147.65"/>
<polygon fill="midnightblue" stroke="midnightblue" points="972.47,-150.78 980.28,-143.62 969.71,-144.35 972.47,-150.78"/>
</g>
<!-- Node26 -->
<g id="node26" class="node">
<title>Node26</title>
<g id="a_node26"><a xlink:title=" ">
<polygon fill="none" stroke="#bfbfbf" points="1070.5,-120.5 1070.5,-143.5 1125.5,-143.5 1125.5,-120.5 1070.5,-120.5"/>
<text text-anchor="middle" x="1098" y="-128.3" font-family="Helvetica,sans-Serif" font-size="14.00">QtSql</text>
</a>
</g>
</g>
<!-- Node22&#45;&gt;Node26 -->
<g id="edge28" class="edge">
<title>Node22&#45;&gt;Node26</title>
<path fill="none" stroke="midnightblue" d="M900.73,-184.04C936.83,-175.75 998.72,-161.14 1060.27,-144.39"/>
<polygon fill="midnightblue" stroke="midnightblue" points="1061.42,-147.7 1070.14,-141.68 1059.57,-140.95 1061.42,-147.7"/>
</g>
</g>
</svg>
        <g id="navigator" transform="translate(0 0)" fill="#404254">
                <rect fill="#f2f5e9" fill-opacity="0.5" stroke="#606060" stroke-width=".5" x="0" y="0" width="60" height="60"/>
                <use id="zoomplus" xlink:href="#zoomPlus" x="17" y="9" onmousedown="handleZoom(evt,'in')"/>
                <use id="zoomminus" xlink:href="#zoomMin" x="42" y="9" onmousedown="handleZoom(evt,'out')"/>
                <use id="reset" xlink:href="#resetDef" x="30" y="36" onmousedown="handleReset()"/>
                <g id="arrowUp" xlink:href="#dirArrow" transform="translate(30 24)" onmousedown="handlePan(0,-1)">
                  <use xlink:href="#rim" fill="#404040">
                        <set attributeName="fill" to="#808080" begin="arrowUp.mouseover" end="arrowUp.mouseout"/>
                  </use>
                  <path fill="none" stroke="white" stroke-width="1.5" d="M0,-3.0v7 M-2.5,-0.5L0,-3.0L2.5,-0.5"/>
                </g>
                <g id="arrowRight" xlink:href="#dirArrow" transform="rotate(90) translate(36 -43)" onmousedown="handlePan(1,0)">
                  <use xlink:href="#rim" fill="#404040">
                        <set attributeName="fill" to="#808080" begin="arrowRight.mouseover" end="arrowRight.mouseout"/>
                  </use>
                  <path fill="none" stroke="white" stroke-width="1.5" d="M0,-3.0v7 M-2.5,-0.5L0,-3.0L2.5,-0.5"/>
                </g>
                <g id="arrowDown" xlink:href="#dirArrow" transform="rotate(180) translate(-30 -48)" onmousedown="handlePan(0,1)">
                  <use xlink:href="#rim" fill="#404040">
                        <set attributeName="fill" to="#808080" begin="arrowDown.mouseover" end="arrowDown.mouseout"/>
                  </use>
                  <path fill="none" stroke="white" stroke-width="1.5" d="M0,-3.0v7 M-2.5,-0.5L0,-3.0L2.5,-0.5"/>
                </g>
                <g id="arrowLeft" xlink:href="#dirArrow" transform="rotate(270) translate(-36 17)" onmousedown="handlePan(-1,0)">
                  <use xlink:href="#rim" fill="#404040">
                        <set attributeName="fill" to="#808080" begin="arrowLeft.mouseover" end="arrowLeft.mouseout"/>
                  </use>
                  <path fill="none" stroke="white" stroke-width="1.5" d="M0,-3.0v7 M-2.5,-0.5L0,-3.0L2.5,-0.5"/>
                </g>
        </g>
        <svg viewBox="0 0 15 15" width="100%" height="30px" preserveAspectRatio="xMaxYMin meet">
         <g id="arrow_out" transform="scale(0.3 0.3)">
          <a xlink:href="ACCom_8cpp__incl_org.svg" target="_base">
           <rect id="button" ry="5" rx="5" y="6" x="6" height="38" width="38"
                fill="#f2f5e9" fill-opacity="0.5" stroke="#606060" stroke-width="1.0"/>
           <path id="arrow"
             d="M 11.500037,31.436501 C 11.940474,20.09759 22.043105,11.32322 32.158766,21.979434 L 37.068811,17.246167 C 37.068811,17.246167 37.088388,32 37.088388,32 L 22.160133,31.978069 C 22.160133,31.978069 26.997745,27.140456 26.997745,27.140456 C 18.528582,18.264221 13.291696,25.230495 11.500037,31.436501 z"
             style="fill:#404040;"/>
          </a>
         </g>
        </svg>
</svg>
