<?xml version="1.0" encoding="UTF-8" standalone="no"?>
<!DOCTYPE svg PUBLIC "-//W3C//DTD SVG 1.1//EN"
 "http://www.w3.org/Graphics/SVG/1.1/DTD/svg11.dtd">
<!-- Generated by graphviz version 2.50.0 (0)
 -->
<!-- Title: ACEthCom.cpp Pages: 1 -->
<!--zoomable 272 -->
<svg id="main" version="1.1" xmlns="http://www.w3.org/2000/svg" xmlns:xlink="http://www.w3.org/1999/xlink" xml:space="preserve" onload="init(evt)">
<style><![CDATA[
text { fill: #e6e6e6 !important; }
polygon { fill: #2f2f2f !important; stroke: #9aa0a6 !important; }
path, line, polyline { stroke: #4e67d6 !important; }
]]></style>
<style><![CDATA[
text { fill: #e6e6e6 !important; }
polygon { fill: #2f2f2f !important; stroke: #9aa0a6 !important; }
path, line, polyline { stroke: #4e67d6 !important; }
]]></style>
<style><![CDATA[
text { fill: #e6e6e6 !important; }
polygon { fill: #2f2f2f !important; stroke: #9aa0a6 !important; }
path, line, polyline { stroke: #4e67d6 !important; }
]]></style>
<style><![CDATA[
text { fill: #e6e6e6 !important; }
polygon { fill: #2f2f2f !important; stroke: #9aa0a6 !important; }
path, line, polyline { stroke: #4e67d6 !important; }
]]></style>
<style><![CDATA[
text { fill: #e6e6e6 !important; }
polygon { fill: #2f2f2f !important; stroke: #9aa0a6 !important; }
path, line, polyline { stroke: #4e67d6 !important; }
]]></style>
<style><![CDATA[
text { fill: #e6e6e6 !important; }
polygon { fill: #2f2f2f !important; stroke: #9aa0a6 !important; }
path, line, polyline { stroke: #4e67d6 !important; }
]]></style>
<style><![CDATA[
text { fill: #e6e6e6 !important; }
polygon { fill: #2f2f2f !important; stroke: #9aa0a6 !important; }
path, line, polyline { stroke: #4e67d6 !important; }
]]></style>
<style type="text/css"><![CDATA[
.edge:hover path { stroke: red; }
.edge:hover polygon { stroke: red; fill: red; }
]]></style>
<script type="text/javascript"><![CDATA[
var edges = document.getElementsByTagName('g');
if (edges && edges.length) {
  for (var i=0;i<edges.length;i++) {
    if (edges[i].id.substr(0,4)=='edge') {
      edges[i].setAttribute('class','edge');
    }
  }
}
]]></script>
        <defs>
                <circle id="rim" cx="0" cy="0" r="7"/>
                <circle id="rim2" cx="0" cy="0" r="3.5"/>
                <g id="zoomPlus">
                        <use xlink:href="#rim" fill="#404040">
                                <set attributeName="fill" to="#808080" begin="zoomplus.mouseover" end="zoomplus.mouseout"/>
                        </use>
                        <path d="M-4,0h8M0,-4v8" fill="none" stroke="white" stroke-width="1.5" pointer-events="none"/>
                </g>
                <g id="zoomMin">
                        <use xlink:href="#rim" fill="#404040">
                                <set attributeName="fill" to="#808080" begin="zoomminus.mouseover" end="zoomminus.mouseout"/>
                        </use>
                        <path d="M-4,0h8" fill="none" stroke="white" stroke-width="1.5" pointer-events="none"/>
                </g>
                <g id="dirArrow">
                        <path fill="none" stroke="white" stroke-width="1.5" d="M0,-3.0v7 M-2.5,-0.5L0,-3.0L2.5,-0.5"/>
                </g>
               <g id="resetDef">
                       <use xlink:href="#rim2" fill="#404040">
                               <set attributeName="fill" to="#808080" begin="reset.mouseover" end="reset.mouseout"/>
                       </use>
               </g>
        </defs>

<script type="text/javascript">
var viewWidth = 2252;
var viewHeight = 272;
var sectionId = 'dynsection-0';
</script>
<script xlink:href="svgpan.js"/>
<svg id="graph" class="graph">
<g id="viewport">
<title>ACEthCom.cpp</title>
<!-- Node1 -->
<g id="node1" class="node">
<title>Node1</title>
<g id="a_node1"><a xlink:title="AC communication backend for AC Eth Com.">
<polygon fill="#bfbfbf" stroke="black" points="718,-240.5 718,-263.5 838,-263.5 838,-240.5 718,-240.5"/>
<text text-anchor="middle" x="778" y="-248.3" font-family="Helvetica,sans-Serif" font-size="14.00">ACEthCom.cpp</text>
</a>
</g>
</g>
<!-- Node2 -->
<g id="node2" class="node">
<title>Node2</title>
<g id="a_node2"><a xlink:title=" ">
<polygon fill="none" stroke="#bfbfbf" points="0,-180.5 0,-203.5 64,-203.5 64,-180.5 0,-180.5"/>
<text text-anchor="middle" x="32" y="-188.3" font-family="Helvetica,sans-Serif" font-size="14.00">stdio.h</text>
</a>
</g>
</g>
<!-- Node1&#45;&gt;Node2 -->
<g id="edge1" class="edge">
<title>Node1&#45;&gt;Node2</title>
<path fill="none" stroke="midnightblue" d="M717.66,-250.94C596.92,-249.95 317.07,-243.37 74.18,-203.91"/>
<polygon fill="midnightblue" stroke="midnightblue" points="74.53,-200.42 64.1,-202.25 73.4,-207.33 74.53,-200.42"/>
</g>
<!-- Node3 -->
<g id="node3" class="node">
<title>Node3</title>
<g id="a_node3"><a xlink:title=" ">
<polygon fill="none" stroke="#bfbfbf" points="82.5,-180.5 82.5,-203.5 153.5,-203.5 153.5,-180.5 82.5,-180.5"/>
<text text-anchor="middle" x="118" y="-188.3" font-family="Helvetica,sans-Serif" font-size="14.00">string.h</text>
</a>
</g>
</g>
<!-- Node1&#45;&gt;Node3 -->
<g id="edge2" class="edge">
<title>Node1&#45;&gt;Node3</title>
<path fill="none" stroke="midnightblue" d="M717.71,-249.77C608.74,-246.82 371.75,-237.03 164.09,-204.14"/>
<polygon fill="midnightblue" stroke="midnightblue" points="164.34,-200.63 153.92,-202.5 163.23,-207.55 164.34,-200.63"/>
</g>
<!-- Node4 -->
<g id="node4" class="node">
<title>Node4</title>
<g id="a_node4"><a xlink:title=" ">
<polygon fill="none" stroke="#bfbfbf" points="171.5,-180.5 171.5,-203.5 236.5,-203.5 236.5,-180.5 171.5,-180.5"/>
<text text-anchor="middle" x="204" y="-188.3" font-family="Helvetica,sans-Serif" font-size="14.00">cstring</text>
</a>
</g>
</g>
<!-- Node1&#45;&gt;Node4 -->
<g id="edge3" class="edge">
<title>Node1&#45;&gt;Node4</title>
<path fill="none" stroke="midnightblue" d="M717.74,-248.97C620.5,-244.98 422.96,-233.88 246.86,-203.9"/>
<polygon fill="midnightblue" stroke="midnightblue" points="247.35,-200.43 236.9,-202.18 246.16,-207.33 247.35,-200.43"/>
</g>
<!-- Node5 -->
<g id="node5" class="node">
<title>Node5</title>
<g id="a_node5"><a xlink:title=" ">
<polygon fill="none" stroke="#bfbfbf" points="255,-180.5 255,-203.5 323,-203.5 323,-180.5 255,-180.5"/>
<text text-anchor="middle" x="289" y="-188.3" font-family="Helvetica,sans-Serif" font-size="14.00">ctype.h</text>
</a>
</g>
</g>
<!-- Node1&#45;&gt;Node5 -->
<g id="edge4" class="edge">
<title>Node1&#45;&gt;Node5</title>
<path fill="none" stroke="midnightblue" d="M717.73,-247.44C633.68,-241.86 476.38,-229.18 333.44,-204.05"/>
<polygon fill="midnightblue" stroke="midnightblue" points="333.63,-200.53 323.17,-202.22 332.4,-207.42 333.63,-200.53"/>
</g>
<!-- Node6 -->
<g id="node6" class="node">
<title>Node6</title>
<g id="a_node6"><a xlink:title=" ">
<polygon fill="none" stroke="#bfbfbf" points="341,-180.5 341,-203.5 409,-203.5 409,-180.5 341,-180.5"/>
<text text-anchor="middle" x="375" y="-188.3" font-family="Helvetica,sans-Serif" font-size="14.00">stdlib.h</text>
</a>
</g>
</g>
<!-- Node1&#45;&gt;Node6 -->
<g id="edge5" class="edge">
<title>Node1&#45;&gt;Node6</title>
<path fill="none" stroke="midnightblue" d="M717.77,-245.38C648.09,-238.38 529.79,-224.95 419.18,-204.05"/>
<polygon fill="midnightblue" stroke="midnightblue" points="419.66,-200.58 409.18,-202.14 418.35,-207.46 419.66,-200.58"/>
</g>
<!-- Node7 -->
<g id="node7" class="node">
<title>Node7</title>
<g id="a_node7"><a xlink:title=" ">
<polygon fill="none" stroke="#bfbfbf" points="427,-180.5 427,-203.5 493,-203.5 493,-180.5 427,-180.5"/>
<text text-anchor="middle" x="460" y="-188.3" font-family="Helvetica,sans-Serif" font-size="14.00">errno.h</text>
</a>
</g>
</g>
<!-- Node1&#45;&gt;Node7 -->
<g id="edge6" class="edge">
<title>Node1&#45;&gt;Node7</title>
<path fill="none" stroke="midnightblue" d="M717.95,-242.32C664.15,-234.2 582.89,-221.07 503.57,-204.21"/>
<polygon fill="midnightblue" stroke="midnightblue" points="503.92,-200.71 493.41,-202.03 502.45,-207.55 503.92,-200.71"/>
</g>
<!-- Node8 -->
<g id="node8" class="node">
<title>Node8</title>
<g id="a_node8"><a xlink:title=" ">
<polygon fill="none" stroke="#bfbfbf" points="511,-180.5 511,-203.5 579,-203.5 579,-180.5 511,-180.5"/>
<text text-anchor="middle" x="545" y="-188.3" font-family="Helvetica,sans-Serif" font-size="14.00">limits.h</text>
</a>
</g>
</g>
<!-- Node1&#45;&gt;Node8 -->
<g id="edge7" class="edge">
<title>Node1&#45;&gt;Node8</title>
<path fill="none" stroke="midnightblue" d="M734.96,-240.46C698.62,-231.53 644.93,-218.29 589.3,-204.32"/>
<polygon fill="midnightblue" stroke="midnightblue" points="589.81,-200.84 579.26,-201.79 588.11,-207.62 589.81,-200.84"/>
</g>
<!-- Node9 -->
<g id="node9" class="node">
<title>Node9</title>
<g id="a_node9"><a xlink:title=" ">
<polygon fill="none" stroke="#bfbfbf" points="597.5,-180.5 597.5,-203.5 680.5,-203.5 680.5,-180.5 597.5,-180.5"/>
<text text-anchor="middle" x="639" y="-188.3" font-family="Helvetica,sans-Serif" font-size="14.00">algorithm</text>
</a>
</g>
</g>
<!-- Node1&#45;&gt;Node9 -->
<g id="edge8" class="edge">
<title>Node1&#45;&gt;Node9</title>
<path fill="none" stroke="midnightblue" d="M752.83,-240.5C730.73,-231.27 698.36,-217.77 673.79,-207.52"/>
<polygon fill="midnightblue" stroke="midnightblue" points="675.03,-204.24 664.45,-203.62 672.34,-210.7 675.03,-204.24"/>
</g>
<!-- Node10 -->
<g id="node10" class="node">
<title>Node10</title>
<g id="a_node10"><a xlink:title=" ">
<polygon fill="none" stroke="#bfbfbf" points="698.5,-180.5 698.5,-203.5 769.5,-203.5 769.5,-180.5 698.5,-180.5"/>
<text text-anchor="middle" x="734" y="-188.3" font-family="Helvetica,sans-Serif" font-size="14.00">signal.h</text>
</a>
</g>
</g>
<!-- Node1&#45;&gt;Node10 -->
<g id="edge9" class="edge">
<title>Node1&#45;&gt;Node10</title>
<path fill="none" stroke="midnightblue" d="M769.93,-240.36C763.85,-232.35 755.36,-221.16 748.16,-211.67"/>
<polygon fill="midnightblue" stroke="midnightblue" points="750.85,-209.42 742.02,-203.57 745.27,-213.65 750.85,-209.42"/>
</g>
<!-- Node11 -->
<g id="node11" class="node">
<title>Node11</title>
<g id="a_node11"><a xlink:title=" ">
<polygon fill="none" stroke="#bfbfbf" points="787.5,-180.5 787.5,-203.5 858.5,-203.5 858.5,-180.5 787.5,-180.5"/>
<text text-anchor="middle" x="823" y="-188.3" font-family="Helvetica,sans-Serif" font-size="14.00">netdb.h</text>
</a>
</g>
</g>
<!-- Node1&#45;&gt;Node11 -->
<g id="edge10" class="edge">
<title>Node1&#45;&gt;Node11</title>
<path fill="none" stroke="midnightblue" d="M786.25,-240.36C792.47,-232.35 801.15,-221.16 808.51,-211.67"/>
<polygon fill="midnightblue" stroke="midnightblue" points="811.43,-213.62 814.8,-203.57 805.9,-209.33 811.43,-213.62"/>
</g>
<!-- Node12 -->
<g id="node12" class="node">
<title>Node12</title>
<g id="a_node12"><a xlink:title=" ">
<polygon fill="none" stroke="#bfbfbf" points="877,-180.5 877,-203.5 969,-203.5 969,-180.5 877,-180.5"/>
<text text-anchor="middle" x="923" y="-188.3" font-family="Helvetica,sans-Serif" font-size="14.00">arpa/inet.h</text>
</a>
</g>
</g>
<!-- Node1&#45;&gt;Node12 -->
<g id="edge11" class="edge">
<title>Node1&#45;&gt;Node12</title>
<path fill="none" stroke="midnightblue" d="M804.26,-240.5C827.42,-231.23 861.38,-217.65 887.05,-207.38"/>
<polygon fill="midnightblue" stroke="midnightblue" points="888.46,-210.58 896.45,-203.62 885.86,-204.09 888.46,-210.58"/>
</g>
<!-- Node13 -->
<g id="node13" class="node">
<title>Node13</title>
<g id="a_node13"><a xlink:title=" ">
<polygon fill="none" stroke="#bfbfbf" points="987.5,-180.5 987.5,-203.5 1048.5,-203.5 1048.5,-180.5 987.5,-180.5"/>
<text text-anchor="middle" x="1018" y="-188.3" font-family="Helvetica,sans-Serif" font-size="14.00">fcntl.h</text>
</a>
</g>
</g>
<!-- Node1&#45;&gt;Node13 -->
<g id="edge12" class="edge">
<title>Node1&#45;&gt;Node13</title>
<path fill="none" stroke="midnightblue" d="M825,-240.48C863.46,-231.75 919.51,-218.76 977.72,-204.01"/>
<polygon fill="midnightblue" stroke="midnightblue" points="978.63,-207.39 987.46,-201.53 976.9,-200.6 978.63,-207.39"/>
</g>
<!-- Node14 -->
<g id="node14" class="node">
<title>Node14</title>
<g id="a_node14"><a xlink:title=" ">
<polygon fill="none" stroke="#bfbfbf" points="1067,-180.5 1067,-203.5 1163,-203.5 1163,-180.5 1067,-180.5"/>
<text text-anchor="middle" x="1115" y="-188.3" font-family="Helvetica,sans-Serif" font-size="14.00">sys/types.h</text>
</a>
</g>
</g>
<!-- Node1&#45;&gt;Node14 -->
<g id="edge13" class="edge">
<title>Node1&#45;&gt;Node14</title>
<path fill="none" stroke="midnightblue" d="M838.2,-241.23C894.75,-231.96 981.69,-217.48 1057,-204 1057.1,-203.98 1057.2,-203.96 1057.3,-203.95"/>
<polygon fill="midnightblue" stroke="midnightblue" points="1057.69,-207.43 1066.91,-202.2 1056.44,-200.54 1057.69,-207.43"/>
</g>
<!-- Node15 -->
<g id="node15" class="node">
<title>Node15</title>
<g id="a_node15"><a xlink:title=" ">
<polygon fill="none" stroke="#bfbfbf" points="1181,-180.5 1181,-203.5 1283,-203.5 1283,-180.5 1181,-180.5"/>
<text text-anchor="middle" x="1232" y="-188.3" font-family="Helvetica,sans-Serif" font-size="14.00">sys/socket.h</text>
</a>
</g>
</g>
<!-- Node1&#45;&gt;Node15 -->
<g id="edge14" class="edge">
<title>Node1&#45;&gt;Node15</title>
<path fill="none" stroke="midnightblue" d="M838.23,-245C913.62,-237.22 1046.9,-222.61 1170.92,-204.09"/>
<polygon fill="midnightblue" stroke="midnightblue" points="1171.61,-207.53 1180.97,-202.58 1170.56,-200.61 1171.61,-207.53"/>
</g>
<!-- Node16 -->
<g id="node16" class="node">
<title>Node16</title>
<g id="a_node16"><a xlink:title=" ">
<polygon fill="none" stroke="#bfbfbf" points="1301,-180.5 1301,-203.5 1397,-203.5 1397,-180.5 1301,-180.5"/>
<text text-anchor="middle" x="1349" y="-188.3" font-family="Helvetica,sans-Serif" font-size="14.00">netinet/in.h</text>
</a>
</g>
</g>
<!-- Node1&#45;&gt;Node16 -->
<g id="edge15" class="edge">
<title>Node1&#45;&gt;Node16</title>
<path fill="none" stroke="midnightblue" d="M838.37,-247.43C932.76,-241.43 1121.21,-227.71 1290.75,-204.06"/>
<polygon fill="midnightblue" stroke="midnightblue" points="1291.44,-207.5 1300.85,-202.64 1290.46,-200.57 1291.44,-207.5"/>
</g>
<!-- Node17 -->
<g id="node17" class="node">
<title>Node17</title>
<g id="a_node17"><a xlink:title=" ">
<polygon fill="none" stroke="#bfbfbf" points="1388,-0.5 1388,-23.5 1462,-23.5 1462,-0.5 1388,-0.5"/>
<text text-anchor="middle" x="1425" y="-8.3" font-family="Helvetica,sans-Serif" font-size="14.00">unistd.h</text>
</a>
</g>
</g>
<!-- Node1&#45;&gt;Node17 -->
<g id="edge16" class="edge">
<title>Node1&#45;&gt;Node17</title>
<path fill="none" stroke="midnightblue" d="M838.07,-250.81C987.32,-249.73 1365.9,-243.13 1406,-204 1452.22,-158.9 1439.35,-72.64 1430.37,-33.37"/>
<polygon fill="midnightblue" stroke="midnightblue" points="1433.76,-32.5 1427.99,-23.61 1426.96,-34.16 1433.76,-32.5"/>
</g>
<!-- Node18 -->
<g id="node18" class="node">
<title>Node18</title>
<g id="a_node18"><a xlink:href="PosixCompat_8h.html" target="_top" xlink:title=" ">
<polygon fill="none" stroke="black" points="1453,-60.5 1453,-83.5 1573,-83.5 1573,-60.5 1453,-60.5"/>
<text text-anchor="middle" x="1513" y="-68.3" font-family="Helvetica,sans-Serif" font-size="14.00">PosixCompat.h</text>
</a>
</g>
</g>
<!-- Node1&#45;&gt;Node18 -->
<g id="edge17" class="edge">
<title>Node1&#45;&gt;Node18</title>
<path fill="none" stroke="midnightblue" d="M838.06,-249.95C991.43,-246.8 1388.92,-235.66 1439,-204 1478.92,-178.76 1499.36,-123.83 1507.93,-93.74"/>
<polygon fill="midnightblue" stroke="midnightblue" points="1511.36,-94.44 1510.56,-83.88 1504.6,-92.64 1511.36,-94.44"/>
</g>
<!-- Node20 -->
<g id="node20" class="node">
<title>Node20</title>
<g id="a_node20"><a xlink:href="ACEthCom_8h.html" target="_top" xlink:title="AC communication backend for AC Eth Com.">
<polygon fill="none" stroke="black" points="1577,-180.5 1577,-203.5 1681,-203.5 1681,-180.5 1577,-180.5"/>
<text text-anchor="middle" x="1629" y="-188.3" font-family="Helvetica,sans-Serif" font-size="14.00">ACEthCom.h</text>
</a>
</g>
</g>
<!-- Node1&#45;&gt;Node20 -->
<g id="edge20" class="edge">
<title>Node1&#45;&gt;Node20</title>
<path fill="none" stroke="midnightblue" d="M838.1,-247.54C962.21,-240.29 1255.83,-222.65 1502,-204 1523.05,-202.41 1546.04,-200.47 1566.61,-198.67"/>
<polygon fill="midnightblue" stroke="midnightblue" points="1567.15,-202.14 1576.81,-197.78 1566.54,-195.17 1567.15,-202.14"/>
</g>
<!-- Node18&#45;&gt;Node17 -->
<g id="edge19" class="edge">
<title>Node18&#45;&gt;Node17</title>
<path fill="none" stroke="midnightblue" d="M1496.86,-60.36C1483.59,-51.61 1464.57,-39.08 1449.43,-29.1"/>
<polygon fill="midnightblue" stroke="midnightblue" points="1451.31,-26.15 1441.04,-23.57 1447.46,-32 1451.31,-26.15"/>
</g>
<!-- Node19 -->
<g id="node19" class="node">
<title>Node19</title>
<g id="a_node19"><a xlink:title=" ">
<polygon fill="none" stroke="#bfbfbf" points="1480.5,-0.5 1480.5,-23.5 1557.5,-23.5 1557.5,-0.5 1480.5,-0.5"/>
<text text-anchor="middle" x="1519" y="-8.3" font-family="Helvetica,sans-Serif" font-size="14.00">QtGlobal</text>
</a>
</g>
</g>
<!-- Node18&#45;&gt;Node19 -->
<g id="edge18" class="edge">
<title>Node18&#45;&gt;Node19</title>
<path fill="none" stroke="midnightblue" d="M1514.1,-60.36C1514.87,-52.92 1515.92,-42.74 1516.86,-33.73"/>
<polygon fill="midnightblue" stroke="midnightblue" points="1520.36,-33.88 1517.91,-23.57 1513.4,-33.16 1520.36,-33.88"/>
</g>
<!-- Node21 -->
<g id="node21" class="node">
<title>Node21</title>
<g id="a_node21"><a xlink:title=" ">
<polygon fill="none" stroke="#bfbfbf" points="1580,-120.5 1580,-143.5 1678,-143.5 1678,-120.5 1580,-120.5"/>
<text text-anchor="middle" x="1629" y="-128.3" font-family="Helvetica,sans-Serif" font-size="14.00">sys/select.h</text>
</a>
</g>
</g>
<!-- Node20&#45;&gt;Node21 -->
<g id="edge21" class="edge">
<title>Node20&#45;&gt;Node21</title>
<path fill="none" stroke="midnightblue" d="M1629,-180.36C1629,-172.92 1629,-162.74 1629,-153.73"/>
<polygon fill="midnightblue" stroke="midnightblue" points="1632.5,-153.57 1629,-143.57 1625.5,-153.57 1632.5,-153.57"/>
</g>
<!-- Node22 -->
<g id="node22" class="node">
<title>Node22</title>
<g id="a_node22"><a xlink:href="ACCom_8h.html" target="_top" xlink:title="AC communication backend for AC Com.">
<polygon fill="none" stroke="black" points="1798,-120.5 1798,-143.5 1878,-143.5 1878,-120.5 1798,-120.5"/>
<text text-anchor="middle" x="1838" y="-128.3" font-family="Helvetica,sans-Serif" font-size="14.00">ACCom.h</text>
</a>
</g>
</g>
<!-- Node20&#45;&gt;Node22 -->
<g id="edge22" class="edge">
<title>Node20&#45;&gt;Node22</title>
<path fill="none" stroke="midnightblue" d="M1666.85,-180.5C1701.51,-170.88 1752.97,-156.6 1790.4,-146.21"/>
<polygon fill="midnightblue" stroke="midnightblue" points="1791.38,-149.57 1800.08,-143.52 1789.51,-142.82 1791.38,-149.57"/>
</g>
<!-- Node22&#45;&gt;Node18 -->
<g id="edge28" class="edge">
<title>Node22&#45;&gt;Node18</title>
<path fill="none" stroke="midnightblue" d="M1797.82,-123.83C1743.95,-114.22 1647.5,-97 1581.91,-85.3"/>
<polygon fill="midnightblue" stroke="midnightblue" points="1582.52,-81.85 1572.07,-83.54 1581.29,-88.74 1582.52,-81.85"/>
</g>
<!-- Node23 -->
<g id="node23" class="node">
<title>Node23</title>
<g id="a_node23"><a xlink:title=" ">
<polygon fill="none" stroke="#bfbfbf" points="1591.5,-60.5 1591.5,-83.5 1648.5,-83.5 1648.5,-60.5 1591.5,-60.5"/>
<text text-anchor="middle" x="1620" y="-68.3" font-family="Helvetica,sans-Serif" font-size="14.00">string</text>
</a>
</g>
</g>
<!-- Node22&#45;&gt;Node23 -->
<g id="edge23" class="edge">
<title>Node22&#45;&gt;Node23</title>
<path fill="none" stroke="midnightblue" d="M1797.88,-120.85C1763.42,-112.05 1712.17,-98.81 1658.33,-84.04"/>
<polygon fill="midnightblue" stroke="midnightblue" points="1659.18,-80.65 1648.61,-81.37 1657.32,-87.4 1659.18,-80.65"/>
</g>
<!-- Node24 -->
<g id="node24" class="node">
<title>Node24</title>
<g id="a_node24"><a xlink:title=" ">
<polygon fill="none" stroke="#bfbfbf" points="1666.5,-60.5 1666.5,-83.5 1743.5,-83.5 1743.5,-60.5 1666.5,-60.5"/>
<text text-anchor="middle" x="1705" y="-68.3" font-family="Helvetica,sans-Serif" font-size="14.00">iostream</text>
</a>
</g>
</g>
<!-- Node22&#45;&gt;Node24 -->
<g id="edge24" class="edge">
<title>Node22&#45;&gt;Node24</title>
<path fill="none" stroke="midnightblue" d="M1813.91,-120.5C1792.86,-111.32 1762.07,-97.89 1738.6,-87.65"/>
<polygon fill="midnightblue" stroke="midnightblue" points="1739.92,-84.41 1729.36,-83.62 1737.12,-90.83 1739.92,-84.41"/>
</g>
<!-- Node25 -->
<g id="node25" class="node">
<title>Node25</title>
<g id="a_node25"><a xlink:title=" ">
<polygon fill="none" stroke="#bfbfbf" points="1762,-60.5 1762,-83.5 1832,-83.5 1832,-60.5 1762,-60.5"/>
<text text-anchor="middle" x="1797" y="-68.3" font-family="Helvetica,sans-Serif" font-size="14.00">fstream</text>
</a>
</g>
</g>
<!-- Node22&#45;&gt;Node25 -->
<g id="edge25" class="edge">
<title>Node22&#45;&gt;Node25</title>
<path fill="none" stroke="midnightblue" d="M1830.48,-120.36C1824.87,-112.43 1817.07,-101.39 1810.4,-91.96"/>
<polygon fill="midnightblue" stroke="midnightblue" points="1813.1,-89.72 1804.47,-83.57 1807.39,-93.76 1813.1,-89.72"/>
</g>
<!-- Node26 -->
<g id="node26" class="node">
<title>Node26</title>
<g id="a_node26"><a xlink:title=" ">
<polygon fill="none" stroke="#bfbfbf" points="1850,-60.5 1850,-83.5 1910,-83.5 1910,-60.5 1850,-60.5"/>
<text text-anchor="middle" x="1880" y="-68.3" font-family="Helvetica,sans-Serif" font-size="14.00">vector</text>
</a>
</g>
</g>
<!-- Node22&#45;&gt;Node26 -->
<g id="edge26" class="edge">
<title>Node22&#45;&gt;Node26</title>
<path fill="none" stroke="midnightblue" d="M1845.7,-120.36C1851.45,-112.43 1859.44,-101.39 1866.27,-91.96"/>
<polygon fill="midnightblue" stroke="midnightblue" points="1869.32,-93.72 1872.35,-83.57 1863.65,-89.62 1869.32,-93.72"/>
</g>
<!-- Node27 -->
<g id="node27" class="node">
<title>Node27</title>
<g id="a_node27"><a xlink:title=" ">
<polygon fill="none" stroke="#bfbfbf" points="1928,-60.5 1928,-83.5 2002,-83.5 2002,-60.5 1928,-60.5"/>
<text text-anchor="middle" x="1965" y="-68.3" font-family="Helvetica,sans-Serif" font-size="14.00">stdarg.h</text>
</a>
</g>
</g>
<!-- Node22&#45;&gt;Node27 -->
<g id="edge27" class="edge">
<title>Node22&#45;&gt;Node27</title>
<path fill="none" stroke="midnightblue" d="M1861,-120.5C1881.01,-111.36 1910.24,-98.01 1932.62,-87.79"/>
<polygon fill="midnightblue" stroke="midnightblue" points="1934.1,-90.96 1941.74,-83.62 1931.19,-84.59 1934.1,-90.96"/>
</g>
<!-- Node28 -->
<g id="node28" class="node">
<title>Node28</title>
<g id="a_node28"><a xlink:href="QsLog_8h.html" target="_top" xlink:title="Qs Log logging support.">
<polygon fill="none" stroke="black" points="2020,-60.5 2020,-83.5 2094,-83.5 2094,-60.5 2020,-60.5"/>
<text text-anchor="middle" x="2057" y="-68.3" font-family="Helvetica,sans-Serif" font-size="14.00">QsLog.h</text>
</a>
</g>
</g>
<!-- Node22&#45;&gt;Node28 -->
<g id="edge29" class="edge">
<title>Node22&#45;&gt;Node28</title>
<path fill="none" stroke="midnightblue" d="M1877.66,-120.5C1914.85,-110.65 1970.49,-95.91 2009.92,-85.47"/>
<polygon fill="midnightblue" stroke="midnightblue" points="2011.06,-88.79 2019.83,-82.85 2009.26,-82.02 2011.06,-88.79"/>
</g>
<!-- Node30 -->
<g id="node30" class="node">
<title>Node30</title>
<g id="a_node30"><a xlink:title=" ">
<polygon fill="none" stroke="#bfbfbf" points="2087,-0.5 2087,-23.5 2157,-23.5 2157,-0.5 2087,-0.5"/>
<text text-anchor="middle" x="2122" y="-8.3" font-family="Helvetica,sans-Serif" font-size="14.00">QString</text>
</a>
</g>
</g>
<!-- Node22&#45;&gt;Node30 -->
<g id="edge32" class="edge">
<title>Node22&#45;&gt;Node30</title>
<path fill="none" stroke="midnightblue" d="M1878.1,-129.05C1943.91,-125.03 2070.77,-113.58 2103,-84 2116.83,-71.31 2121.04,-49.77 2122.12,-33.74"/>
<polygon fill="midnightblue" stroke="midnightblue" points="2125.62,-33.8 2122.45,-23.69 2118.62,-33.57 2125.62,-33.8"/>
</g>
<!-- Node31 -->
<g id="node31" class="node">
<title>Node31</title>
<g id="a_node31"><a xlink:title=" ">
<polygon fill="none" stroke="#bfbfbf" points="2150,-60.5 2150,-83.5 2244,-83.5 2244,-60.5 2150,-60.5"/>
<text text-anchor="middle" x="2197" y="-68.3" font-family="Helvetica,sans-Serif" font-size="14.00">QStringList</text>
</a>
</g>
</g>
<!-- Node22&#45;&gt;Node31 -->
<g id="edge33" class="edge">
<title>Node22&#45;&gt;Node31</title>
<path fill="none" stroke="midnightblue" d="M1878.05,-124.97C1935.3,-116.28 2043.82,-99.58 2136,-84 2137.25,-83.79 2138.52,-83.57 2139.8,-83.35"/>
<polygon fill="midnightblue" stroke="midnightblue" points="2140.48,-86.79 2149.73,-81.63 2139.28,-79.89 2140.48,-86.79"/>
</g>
<!-- Node29 -->
<g id="node29" class="node">
<title>Node29</title>
<g id="a_node29"><a xlink:title=" ">
<polygon fill="none" stroke="#bfbfbf" points="1995,-0.5 1995,-23.5 2069,-23.5 2069,-0.5 1995,-0.5"/>
<text text-anchor="middle" x="2032" y="-8.3" font-family="Helvetica,sans-Serif" font-size="14.00">QDebug</text>
</a>
</g>
</g>
<!-- Node28&#45;&gt;Node29 -->
<g id="edge30" class="edge">
<title>Node28&#45;&gt;Node29</title>
<path fill="none" stroke="midnightblue" d="M2052.41,-60.36C2049.1,-52.68 2044.53,-42.07 2040.55,-32.84"/>
<polygon fill="midnightblue" stroke="midnightblue" points="2043.73,-31.37 2036.56,-23.57 2037.3,-34.14 2043.73,-31.37"/>
</g>
<!-- Node28&#45;&gt;Node30 -->
<g id="edge31" class="edge">
<title>Node28&#45;&gt;Node30</title>
<path fill="none" stroke="midnightblue" d="M2068.92,-60.36C2078.36,-51.94 2091.73,-40.01 2102.69,-30.23"/>
<polygon fill="midnightblue" stroke="midnightblue" points="2105.02,-32.84 2110.15,-23.57 2100.36,-27.62 2105.02,-32.84"/>
</g>
</g>
</svg>
        <g id="navigator" transform="translate(0 0)" fill="#404254">
                <rect fill="#f2f5e9" fill-opacity="0.5" stroke="#606060" stroke-width=".5" x="0" y="0" width="60" height="60"/>
                <use id="zoomplus" xlink:href="#zoomPlus" x="17" y="9" onmousedown="handleZoom(evt,'in')"/>
                <use id="zoomminus" xlink:href="#zoomMin" x="42" y="9" onmousedown="handleZoom(evt,'out')"/>
                <use id="reset" xlink:href="#resetDef" x="30" y="36" onmousedown="handleReset()"/>
                <g id="arrowUp" xlink:href="#dirArrow" transform="translate(30 24)" onmousedown="handlePan(0,-1)">
                  <use xlink:href="#rim" fill="#404040">
                        <set attributeName="fill" to="#808080" begin="arrowUp.mouseover" end="arrowUp.mouseout"/>
                  </use>
                  <path fill="none" stroke="white" stroke-width="1.5" d="M0,-3.0v7 M-2.5,-0.5L0,-3.0L2.5,-0.5"/>
                </g>
                <g id="arrowRight" xlink:href="#dirArrow" transform="rotate(90) translate(36 -43)" onmousedown="handlePan(1,0)">
                  <use xlink:href="#rim" fill="#404040">
                        <set attributeName="fill" to="#808080" begin="arrowRight.mouseover" end="arrowRight.mouseout"/>
                  </use>
                  <path fill="none" stroke="white" stroke-width="1.5" d="M0,-3.0v7 M-2.5,-0.5L0,-3.0L2.5,-0.5"/>
                </g>
                <g id="arrowDown" xlink:href="#dirArrow" transform="rotate(180) translate(-30 -48)" onmousedown="handlePan(0,1)">
                  <use xlink:href="#rim" fill="#404040">
                        <set attributeName="fill" to="#808080" begin="arrowDown.mouseover" end="arrowDown.mouseout"/>
                  </use>
                  <path fill="none" stroke="white" stroke-width="1.5" d="M0,-3.0v7 M-2.5,-0.5L0,-3.0L2.5,-0.5"/>
                </g>
                <g id="arrowLeft" xlink:href="#dirArrow" transform="rotate(270) translate(-36 17)" onmousedown="handlePan(-1,0)">
                  <use xlink:href="#rim" fill="#404040">
                        <set attributeName="fill" to="#808080" begin="arrowLeft.mouseover" end="arrowLeft.mouseout"/>
                  </use>
                  <path fill="none" stroke="white" stroke-width="1.5" d="M0,-3.0v7 M-2.5,-0.5L0,-3.0L2.5,-0.5"/>
                </g>
        </g>
        <svg viewBox="0 0 15 15" width="100%" height="30px" preserveAspectRatio="xMaxYMin meet">
         <g id="arrow_out" transform="scale(0.3 0.3)">
          <a xlink:href="ACEthCom_8cpp__incl_org.svg" target="_base">
           <rect id="button" ry="5" rx="5" y="6" x="6" height="38" width="38"
                fill="#f2f5e9" fill-opacity="0.5" stroke="#606060" stroke-width="1.0"/>
           <path id="arrow"
             d="M 11.500037,31.436501 C 11.940474,20.09759 22.043105,11.32322 32.158766,21.979434 L 37.068811,17.246167 C 37.068811,17.246167 37.088388,32 37.088388,32 L 22.160133,31.978069 C 22.160133,31.978069 26.997745,27.140456 26.997745,27.140456 C 18.528582,18.264221 13.291696,25.230495 11.500037,31.436501 z"
             style="fill:#404040;"/>
          </a>
         </g>
        </svg>
</svg>
