<?xml version="1.0" encoding="UTF-8" standalone="no"?>
<!DOCTYPE svg PUBLIC "-//W3C//DTD SVG 1.1//EN"
 "http://www.w3.org/Graphics/SVG/1.1/DTD/svg11.dtd">
<!-- Generated by graphviz version 2.50.0 (0)
 -->
<!-- Title: AcquisitionSequence.cpp Pages: 1 -->
<!--zoomable 272 -->
<svg id="main" version="1.1" xmlns="http://www.w3.org/2000/svg" xmlns:xlink="http://www.w3.org/1999/xlink" xml:space="preserve" onload="init(evt)">
<style><![CDATA[
text { fill: #e6e6e6 !important; }
polygon { fill: #2f2f2f !important; stroke: #9aa0a6 !important; }
path, line, polyline { stroke: #4e67d6 !important; }
]]></style>
<style><![CDATA[
text { fill: #e6e6e6 !important; }
polygon { fill: #2f2f2f !important; stroke: #9aa0a6 !important; }
path, line, polyline { stroke: #4e67d6 !important; }
]]></style>
<style><![CDATA[
text { fill: #e6e6e6 !important; }
polygon { fill: #2f2f2f !important; stroke: #9aa0a6 !important; }
path, line, polyline { stroke: #4e67d6 !important; }
]]></style>
<style><![CDATA[
text { fill: #e6e6e6 !important; }
polygon { fill: #2f2f2f !important; stroke: #9aa0a6 !important; }
path, line, polyline { stroke: #4e67d6 !important; }
]]></style>
<style><![CDATA[
text { fill: #e6e6e6 !important; }
polygon { fill: #2f2f2f !important; stroke: #9aa0a6 !important; }
path, line, polyline { stroke: #4e67d6 !important; }
]]></style>
<style><![CDATA[
text { fill: #e6e6e6 !important; }
polygon { fill: #2f2f2f !important; stroke: #9aa0a6 !important; }
path, line, polyline { stroke: #4e67d6 !important; }
]]></style>
<style><![CDATA[
text { fill: #e6e6e6 !important; }
polygon { fill: #2f2f2f !important; stroke: #9aa0a6 !important; }
path, line, polyline { stroke: #4e67d6 !important; }
]]></style>
<style type="text/css"><![CDATA[
.edge:hover path { stroke: red; }
.edge:hover polygon { stroke: red; fill: red; }
]]></style>
<script type="text/javascript"><![CDATA[
var edges = document.getElementsByTagName('g');
if (edges && edges.length) {
  for (var i=0;i<edges.length;i++) {
    if (edges[i].id.substr(0,4)=='edge') {
      edges[i].setAttribute('class','edge');
    }
  }
}
]]></script>
        <defs>
                <circle id="rim" cx="0" cy="0" r="7"/>
                <circle id="rim2" cx="0" cy="0" r="3.5"/>
                <g id="zoomPlus">
                        <use xlink:href="#rim" fill="#404040">
                                <set attributeName="fill" to="#808080" begin="zoomplus.mouseover" end="zoomplus.mouseout"/>
                        </use>
                        <path d="M-4,0h8M0,-4v8" fill="none" stroke="white" stroke-width="1.5" pointer-events="none"/>
                </g>
                <g id="zoomMin">
                        <use xlink:href="#rim" fill="#404040">
                                <set attributeName="fill" to="#808080" begin="zoomminus.mouseover" end="zoomminus.mouseout"/>
                        </use>
                        <path d="M-4,0h8" fill="none" stroke="white" stroke-width="1.5" pointer-events="none"/>
                </g>
                <g id="dirArrow">
                        <path fill="none" stroke="white" stroke-width="1.5" d="M0,-3.0v7 M-2.5,-0.5L0,-3.0L2.5,-0.5"/>
                </g>
               <g id="resetDef">
                       <use xlink:href="#rim2" fill="#404040">
                               <set attributeName="fill" to="#808080" begin="reset.mouseover" end="reset.mouseout"/>
                       </use>
               </g>
        </defs>

<script type="text/javascript">
var viewWidth = 659;
var viewHeight = 272;
var sectionId = 'dynsection-0';
</script>
<script xlink:href="svgpan.js"/>
<svg id="graph" class="graph">
<g id="viewport">
<title>AcquisitionSequence.cpp</title>
<!-- Node1 -->
<g id="node1" class="node">
<title>Node1</title>
<g id="a_node1"><a xlink:title="Acquisition sequence model.">
<polygon fill="#bfbfbf" stroke="black" points="142,-240.5 142,-263.5 333,-263.5 333,-240.5 142,-240.5"/>
<text text-anchor="middle" x="237.5" y="-248.3" font-family="Helvetica,sans-Serif" font-size="14.00">AcquisitionSequence.cpp</text>
</a>
</g>
</g>
<!-- Node2 -->
<g id="node2" class="node">
<title>Node2</title>
<g id="a_node2"><a xlink:href="AcquisitionSequence_8h.html" target="_top" xlink:title="Acquisition sequence model.">
<polygon fill="none" stroke="black" points="150.5,-180.5 150.5,-203.5 324.5,-203.5 324.5,-180.5 150.5,-180.5"/>
<text text-anchor="middle" x="237.5" y="-188.3" font-family="Helvetica,sans-Serif" font-size="14.00">AcquisitionSequence.h</text>
</a>
</g>
</g>
<!-- Node1&#45;&gt;Node2 -->
<g id="edge1" class="edge">
<title>Node1&#45;&gt;Node2</title>
<path fill="none" stroke="midnightblue" d="M237.5,-240.36C237.5,-232.92 237.5,-222.74 237.5,-213.73"/>
<polygon fill="midnightblue" stroke="midnightblue" points="241,-213.57 237.5,-203.57 234,-213.57 241,-213.57"/>
</g>
<!-- Node3 -->
<g id="node3" class="node">
<title>Node3</title>
<g id="a_node3"><a xlink:title=" ">
<polygon fill="none" stroke="#bfbfbf" points="9,-120.5 9,-143.5 98,-143.5 98,-120.5 9,-120.5"/>
<text text-anchor="middle" x="53.5" y="-128.3" font-family="Helvetica,sans-Serif" font-size="14.00">QtWidgets</text>
</a>
</g>
</g>
<!-- Node2&#45;&gt;Node3 -->
<g id="edge2" class="edge">
<title>Node2&#45;&gt;Node3</title>
<path fill="none" stroke="midnightblue" d="M204.18,-180.5C174.05,-171 129.52,-156.96 96.67,-146.61"/>
<polygon fill="midnightblue" stroke="midnightblue" points="97.47,-143.19 86.88,-143.52 95.37,-149.87 97.47,-143.19"/>
</g>
<!-- Node4 -->
<g id="node4" class="node">
<title>Node4</title>
<g id="a_node4"><a xlink:title=" ">
<polygon fill="none" stroke="#bfbfbf" points="116.5,-120.5 116.5,-143.5 178.5,-143.5 178.5,-120.5 116.5,-120.5"/>
<text text-anchor="middle" x="147.5" y="-128.3" font-family="Helvetica,sans-Serif" font-size="14.00">hdf5.h</text>
</a>
</g>
</g>
<!-- Node2&#45;&gt;Node4 -->
<g id="edge3" class="edge">
<title>Node2&#45;&gt;Node4</title>
<path fill="none" stroke="midnightblue" d="M220.99,-180.36C207.42,-171.61 187.97,-159.08 172.49,-149.1"/>
<polygon fill="midnightblue" stroke="midnightblue" points="174.2,-146.05 163.9,-143.57 170.41,-151.93 174.2,-146.05"/>
</g>
<!-- Node5 -->
<g id="node5" class="node">
<title>Node5</title>
<g id="a_node5"><a xlink:title=" ">
<polygon fill="none" stroke="#bfbfbf" points="196.5,-120.5 196.5,-143.5 278.5,-143.5 278.5,-120.5 196.5,-120.5"/>
<text text-anchor="middle" x="237.5" y="-128.3" font-family="Helvetica,sans-Serif" font-size="14.00">hdf5_hl.h</text>
</a>
</g>
</g>
<!-- Node2&#45;&gt;Node5 -->
<g id="edge4" class="edge">
<title>Node2&#45;&gt;Node5</title>
<path fill="none" stroke="midnightblue" d="M237.5,-180.36C237.5,-172.92 237.5,-162.74 237.5,-153.73"/>
<polygon fill="midnightblue" stroke="midnightblue" points="241,-153.57 237.5,-143.57 234,-153.57 241,-153.57"/>
</g>
<!-- Node6 -->
<g id="node6" class="node">
<title>Node6</title>
<g id="a_node6"><a xlink:href="FileParser_8h.html" target="_top" xlink:title="Acquisition file parser.">
<polygon fill="none" stroke="black" points="297,-120.5 297,-143.5 392,-143.5 392,-120.5 297,-120.5"/>
<text text-anchor="middle" x="344.5" y="-128.3" font-family="Helvetica,sans-Serif" font-size="14.00">FileParser.h</text>
</a>
</g>
</g>
<!-- Node2&#45;&gt;Node6 -->
<g id="edge5" class="edge">
<title>Node2&#45;&gt;Node6</title>
<path fill="none" stroke="midnightblue" d="M257.13,-180.36C273.64,-171.41 297.47,-158.49 316.08,-148.41"/>
<polygon fill="midnightblue" stroke="midnightblue" points="317.88,-151.41 325,-143.57 314.54,-145.26 317.88,-151.41"/>
</g>
<!-- Node14 -->
<g id="node14" class="node">
<title>Node14</title>
<g id="a_node14"><a xlink:href="QsLog_8h.html" target="_top" xlink:title="Qs Log logging support.">
<polygon fill="none" stroke="black" points="533.5,-60.5 533.5,-83.5 607.5,-83.5 607.5,-60.5 533.5,-60.5"/>
<text text-anchor="middle" x="570.5" y="-68.3" font-family="Helvetica,sans-Serif" font-size="14.00">QsLog.h</text>
</a>
</g>
</g>
<!-- Node2&#45;&gt;Node14 -->
<g id="edge16" class="edge">
<title>Node2&#45;&gt;Node14</title>
<path fill="none" stroke="midnightblue" d="M279.38,-180.47C312.78,-171.72 360.57,-158.41 401.5,-144 450.13,-126.88 504.9,-103 538.55,-87.76"/>
<polygon fill="midnightblue" stroke="midnightblue" points="540.22,-90.85 547.88,-83.52 537.32,-84.48 540.22,-90.85"/>
</g>
<!-- Node7 -->
<g id="node7" class="node">
<title>Node7</title>
<g id="a_node7"><a xlink:href="PosixCompat_8h.html" target="_top" xlink:title=" ">
<polygon fill="none" stroke="black" points="25.5,-60.5 25.5,-83.5 145.5,-83.5 145.5,-60.5 25.5,-60.5"/>
<text text-anchor="middle" x="85.5" y="-68.3" font-family="Helvetica,sans-Serif" font-size="14.00">PosixCompat.h</text>
</a>
</g>
</g>
<!-- Node6&#45;&gt;Node7 -->
<g id="edge6" class="edge">
<title>Node6&#45;&gt;Node7</title>
<path fill="none" stroke="midnightblue" d="M297.6,-120.5C254,-110.73 188.97,-96.17 142.42,-85.75"/>
<polygon fill="midnightblue" stroke="midnightblue" points="143.01,-82.29 132.49,-83.52 141.48,-89.12 143.01,-82.29"/>
</g>
<!-- Node10 -->
<g id="node10" class="node">
<title>Node10</title>
<g id="a_node10"><a xlink:title=" ">
<polygon fill="none" stroke="#bfbfbf" points="163.5,-60.5 163.5,-83.5 211.5,-83.5 211.5,-60.5 163.5,-60.5"/>
<text text-anchor="middle" x="187.5" y="-68.3" font-family="Helvetica,sans-Serif" font-size="14.00">QDir</text>
</a>
</g>
</g>
<!-- Node6&#45;&gt;Node10 -->
<g id="edge9" class="edge">
<title>Node6&#45;&gt;Node10</title>
<path fill="none" stroke="midnightblue" d="M316.07,-120.5C289.35,-110.63 249.35,-95.85 221.08,-85.4"/>
<polygon fill="midnightblue" stroke="midnightblue" points="222.2,-82.09 211.61,-81.91 219.77,-88.65 222.2,-82.09"/>
</g>
<!-- Node11 -->
<g id="node11" class="node">
<title>Node11</title>
<g id="a_node11"><a xlink:title=" ">
<polygon fill="none" stroke="#bfbfbf" points="229.5,-60.5 229.5,-83.5 279.5,-83.5 279.5,-60.5 229.5,-60.5"/>
<text text-anchor="middle" x="254.5" y="-68.3" font-family="Helvetica,sans-Serif" font-size="14.00">QFile</text>
</a>
</g>
</g>
<!-- Node6&#45;&gt;Node11 -->
<g id="edge10" class="edge">
<title>Node6&#45;&gt;Node11</title>
<path fill="none" stroke="midnightblue" d="M327.99,-120.36C314.42,-111.61 294.97,-99.08 279.49,-89.1"/>
<polygon fill="midnightblue" stroke="midnightblue" points="281.2,-86.05 270.9,-83.57 277.41,-91.93 281.2,-86.05"/>
</g>
<!-- Node12 -->
<g id="node12" class="node">
<title>Node12</title>
<g id="a_node12"><a xlink:title=" ">
<polygon fill="none" stroke="#bfbfbf" points="297.5,-60.5 297.5,-83.5 391.5,-83.5 391.5,-60.5 297.5,-60.5"/>
<text text-anchor="middle" x="344.5" y="-68.3" font-family="Helvetica,sans-Serif" font-size="14.00">QDateTime</text>
</a>
</g>
</g>
<!-- Node6&#45;&gt;Node12 -->
<g id="edge11" class="edge">
<title>Node6&#45;&gt;Node12</title>
<path fill="none" stroke="midnightblue" d="M344.5,-120.36C344.5,-112.92 344.5,-102.74 344.5,-93.73"/>
<polygon fill="midnightblue" stroke="midnightblue" points="348,-93.57 344.5,-83.57 341,-93.57 348,-93.57"/>
</g>
<!-- Node13 -->
<g id="node13" class="node">
<title>Node13</title>
<g id="a_node13"><a xlink:title=" ">
<polygon fill="none" stroke="#bfbfbf" points="410,-60.5 410,-83.5 515,-83.5 515,-60.5 410,-60.5"/>
<text text-anchor="middle" x="462.5" y="-68.3" font-family="Helvetica,sans-Serif" font-size="14.00">QTextStream</text>
</a>
</g>
</g>
<!-- Node6&#45;&gt;Node13 -->
<g id="edge12" class="edge">
<title>Node6&#45;&gt;Node13</title>
<path fill="none" stroke="midnightblue" d="M365.87,-120.5C384.3,-111.44 411.14,-98.25 431.86,-88.06"/>
<polygon fill="midnightblue" stroke="midnightblue" points="433.46,-91.17 440.89,-83.62 430.37,-84.89 433.46,-91.17"/>
</g>
<!-- Node6&#45;&gt;Node14 -->
<g id="edge13" class="edge">
<title>Node6&#45;&gt;Node14</title>
<path fill="none" stroke="midnightblue" d="M385.43,-120.5C424.32,-110.51 482.77,-95.51 523.55,-85.05"/>
<polygon fill="midnightblue" stroke="midnightblue" points="524.43,-88.44 533.25,-82.56 522.69,-81.66 524.43,-88.44"/>
</g>
<!-- Node8 -->
<g id="node8" class="node">
<title>Node8</title>
<g id="a_node8"><a xlink:title=" ">
<polygon fill="none" stroke="#bfbfbf" points="0,-0.5 0,-23.5 77,-23.5 77,-0.5 0,-0.5"/>
<text text-anchor="middle" x="38.5" y="-8.3" font-family="Helvetica,sans-Serif" font-size="14.00">QtGlobal</text>
</a>
</g>
</g>
<!-- Node7&#45;&gt;Node8 -->
<g id="edge7" class="edge">
<title>Node7&#45;&gt;Node8</title>
<path fill="none" stroke="midnightblue" d="M76.88,-60.36C70.32,-52.27 61.13,-40.93 53.39,-31.38"/>
<polygon fill="midnightblue" stroke="midnightblue" points="56.08,-29.14 47.07,-23.57 50.64,-33.54 56.08,-29.14"/>
</g>
<!-- Node9 -->
<g id="node9" class="node">
<title>Node9</title>
<g id="a_node9"><a xlink:title=" ">
<polygon fill="none" stroke="#bfbfbf" points="95.5,-0.5 95.5,-23.5 169.5,-23.5 169.5,-0.5 95.5,-0.5"/>
<text text-anchor="middle" x="132.5" y="-8.3" font-family="Helvetica,sans-Serif" font-size="14.00">unistd.h</text>
</a>
</g>
</g>
<!-- Node7&#45;&gt;Node9 -->
<g id="edge8" class="edge">
<title>Node7&#45;&gt;Node9</title>
<path fill="none" stroke="midnightblue" d="M94.12,-60.36C100.68,-52.27 109.87,-40.93 117.61,-31.38"/>
<polygon fill="midnightblue" stroke="midnightblue" points="120.36,-33.54 123.93,-23.57 114.92,-29.14 120.36,-33.54"/>
</g>
<!-- Node15 -->
<g id="node15" class="node">
<title>Node15</title>
<g id="a_node15"><a xlink:title=" ">
<polygon fill="none" stroke="#bfbfbf" points="488.5,-0.5 488.5,-23.5 562.5,-23.5 562.5,-0.5 488.5,-0.5"/>
<text text-anchor="middle" x="525.5" y="-8.3" font-family="Helvetica,sans-Serif" font-size="14.00">QDebug</text>
</a>
</g>
</g>
<!-- Node14&#45;&gt;Node15 -->
<g id="edge14" class="edge">
<title>Node14&#45;&gt;Node15</title>
<path fill="none" stroke="midnightblue" d="M562.25,-60.36C556.03,-52.35 547.35,-41.16 539.99,-31.67"/>
<polygon fill="midnightblue" stroke="midnightblue" points="542.6,-29.33 533.7,-23.57 537.07,-33.62 542.6,-29.33"/>
</g>
<!-- Node16 -->
<g id="node16" class="node">
<title>Node16</title>
<g id="a_node16"><a xlink:title=" ">
<polygon fill="none" stroke="#bfbfbf" points="580.5,-0.5 580.5,-23.5 650.5,-23.5 650.5,-0.5 580.5,-0.5"/>
<text text-anchor="middle" x="615.5" y="-8.3" font-family="Helvetica,sans-Serif" font-size="14.00">QString</text>
</a>
</g>
</g>
<!-- Node14&#45;&gt;Node16 -->
<g id="edge15" class="edge">
<title>Node14&#45;&gt;Node16</title>
<path fill="none" stroke="midnightblue" d="M578.75,-60.36C584.97,-52.35 593.65,-41.16 601.01,-31.67"/>
<polygon fill="midnightblue" stroke="midnightblue" points="603.93,-33.62 607.3,-23.57 598.4,-29.33 603.93,-33.62"/>
</g>
</g>
</svg>
        <g id="navigator" transform="translate(0 0)" fill="#404254">
                <rect fill="#f2f5e9" fill-opacity="0.5" stroke="#606060" stroke-width=".5" x="0" y="0" width="60" height="60"/>
                <use id="zoomplus" xlink:href="#zoomPlus" x="17" y="9" onmousedown="handleZoom(evt,'in')"/>
                <use id="zoomminus" xlink:href="#zoomMin" x="42" y="9" onmousedown="handleZoom(evt,'out')"/>
                <use id="reset" xlink:href="#resetDef" x="30" y="36" onmousedown="handleReset()"/>
                <g id="arrowUp" xlink:href="#dirArrow" transform="translate(30 24)" onmousedown="handlePan(0,-1)">
                  <use xlink:href="#rim" fill="#404040">
                        <set attributeName="fill" to="#808080" begin="arrowUp.mouseover" end="arrowUp.mouseout"/>
                  </use>
                  <path fill="none" stroke="white" stroke-width="1.5" d="M0,-3.0v7 M-2.5,-0.5L0,-3.0L2.5,-0.5"/>
                </g>
                <g id="arrowRight" xlink:href="#dirArrow" transform="rotate(90) translate(36 -43)" onmousedown="handlePan(1,0)">
                  <use xlink:href="#rim" fill="#404040">
                        <set attributeName="fill" to="#808080" begin="arrowRight.mouseover" end="arrowRight.mouseout"/>
                  </use>
                  <path fill="none" stroke="white" stroke-width="1.5" d="M0,-3.0v7 M-2.5,-0.5L0,-3.0L2.5,-0.5"/>
                </g>
                <g id="arrowDown" xlink:href="#dirArrow" transform="rotate(180) translate(-30 -48)" onmousedown="handlePan(0,1)">
                  <use xlink:href="#rim" fill="#404040">
                        <set attributeName="fill" to="#808080" begin="arrowDown.mouseover" end="arrowDown.mouseout"/>
                  </use>
                  <path fill="none" stroke="white" stroke-width="1.5" d="M0,-3.0v7 M-2.5,-0.5L0,-3.0L2.5,-0.5"/>
                </g>
                <g id="arrowLeft" xlink:href="#dirArrow" transform="rotate(270) translate(-36 17)" onmousedown="handlePan(-1,0)">
                  <use xlink:href="#rim" fill="#404040">
                        <set attributeName="fill" to="#808080" begin="arrowLeft.mouseover" end="arrowLeft.mouseout"/>
                  </use>
                  <path fill="none" stroke="white" stroke-width="1.5" d="M0,-3.0v7 M-2.5,-0.5L0,-3.0L2.5,-0.5"/>
                </g>
        </g>
        <svg viewBox="0 0 15 15" width="100%" height="30px" preserveAspectRatio="xMaxYMin meet">
         <g id="arrow_out" transform="scale(0.3 0.3)">
          <a xlink:href="AcquisitionSequence_8cpp__incl_org.svg" target="_base">
           <rect id="button" ry="5" rx="5" y="6" x="6" height="38" width="38"
                fill="#f2f5e9" fill-opacity="0.5" stroke="#606060" stroke-width="1.0"/>
           <path id="arrow"
             d="M 11.500037,31.436501 C 11.940474,20.09759 22.043105,11.32322 32.158766,21.979434 L 37.068811,17.246167 C 37.068811,17.246167 37.088388,32 37.088388,32 L 22.160133,31.978069 C 22.160133,31.978069 26.997745,27.140456 26.997745,27.140456 C 18.528582,18.264221 13.291696,25.230495 11.500037,31.436501 z"
             style="fill:#404040;"/>
          </a>
         </g>
        </svg>
</svg>
