<?xml version="1.0" encoding="UTF-8" standalone="no"?>
<!DOCTYPE svg PUBLIC "-//W3C//DTD SVG 1.1//EN"
 "http://www.w3.org/Graphics/SVG/1.1/DTD/svg11.dtd">
<!-- Generated by graphviz version 2.50.0 (0)
 -->
<!-- Title: AcquisitionThread.cpp Pages: 1 -->
<svg width="2519pt" height="392pt"
 viewBox="0.00 0.00 2518.60 392.00" xmlns="http://www.w3.org/2000/svg" xmlns:xlink="http://www.w3.org/1999/xlink">
<style><![CDATA[
text { fill: #e6e6e6 !important; }
polygon { fill: #2f2f2f !important; stroke: #9aa0a6 !important; }
path, line, polyline { stroke: #4e67d6 !important; }
]]></style>
<style><![CDATA[
text { fill: #e6e6e6 !important; }
polygon { fill: #2f2f2f !important; stroke: #9aa0a6 !important; }
path, line, polyline { stroke: #4e67d6 !important; }
]]></style>
<style><![CDATA[
text { fill: #e6e6e6 !important; }
polygon { fill: #2f2f2f !important; stroke: #9aa0a6 !important; }
path, line, polyline { stroke: #4e67d6 !important; }
]]></style>
<style><![CDATA[
text { fill: #e6e6e6 !important; }
polygon { fill: #2f2f2f !important; stroke: #9aa0a6 !important; }
path, line, polyline { stroke: #4e67d6 !important; }
]]></style>
<style><![CDATA[
text { fill: #e6e6e6 !important; }
polygon { fill: #2f2f2f !important; stroke: #9aa0a6 !important; }
path, line, polyline { stroke: #4e67d6 !important; }
]]></style>
<style><![CDATA[
text { fill: #e6e6e6 !important; }
polygon { fill: #2f2f2f !important; stroke: #9aa0a6 !important; }
path, line, polyline { stroke: #4e67d6 !important; }
]]></style>
<style><![CDATA[
text { fill: #e6e6e6 !important; }
polygon { fill: #2f2f2f !important; stroke: #9aa0a6 !important; }
path, line, polyline { stroke: #4e67d6 !important; }
]]></style>
<g id="graph0" class="graph" transform="scale(1 1) rotate(0) translate(4 388)">
<title>AcquisitionThread.cpp</title>
<!-- Node1 -->
<g id="node1" class="node">
<title>Node1</title>
<g id="a_node1"><a xlink:title="Acquisition worker thread.">
<polygon fill="#bfbfbf" stroke="black" points="1625.6,-360.5 1625.6,-383.5 1795.6,-383.5 1795.6,-360.5 1625.6,-360.5"/>
<text text-anchor="middle" x="1710.6" y="-368.3" font-family="Helvetica,sans-Serif" font-size="14.00">AcquisitionThread.cpp</text>
</a>
</g>
</g>
<!-- Node2 -->
<g id="node2" class="node">
<title>Node2</title>
<g id="a_node2"><a xlink:href="AcquisitionThread_8h.html" target="_top" xlink:title="Acquisition worker thread.">
<polygon fill="none" stroke="black" points="1633.6,-300.5 1633.6,-323.5 1787.6,-323.5 1787.6,-300.5 1633.6,-300.5"/>
<text text-anchor="middle" x="1710.6" y="-308.3" font-family="Helvetica,sans-Serif" font-size="14.00">AcquisitionThread.h</text>
</a>
</g>
</g>
<!-- Node1&#45;&gt;Node2 -->
<g id="edge1" class="edge">
<title>Node1&#45;&gt;Node2</title>
<path fill="none" stroke="midnightblue" d="M1710.6,-360.36C1710.6,-352.92 1710.6,-342.74 1710.6,-333.73"/>
<polygon fill="midnightblue" stroke="midnightblue" points="1714.1,-333.57 1710.6,-323.57 1707.1,-333.57 1714.1,-333.57"/>
</g>
<!-- Node8 -->
<g id="node8" class="node">
<title>Node8</title>
<g id="a_node8"><a xlink:href="PosixCompat_8h.html" target="_top" xlink:title=" ">
<polygon fill="none" stroke="black" points="897.6,-60.5 897.6,-83.5 1017.6,-83.5 1017.6,-60.5 897.6,-60.5"/>
<text text-anchor="middle" x="957.6" y="-68.3" font-family="Helvetica,sans-Serif" font-size="14.00">PosixCompat.h</text>
</a>
</g>
</g>
<!-- Node1&#45;&gt;Node8 -->
<g id="edge83" class="edge">
<title>Node1&#45;&gt;Node8</title>
<path fill="none" stroke="midnightblue" d="M1625.56,-369.63C1280.29,-363.52 1.6,-335.32 1.6,-253 1.6,-253 1.6,-253 1.6,-191 1.6,-158.33 -4.8,-140.53 20.6,-120 54.2,-92.85 675.61,-78.42 887.5,-74.27"/>
<polygon fill="midnightblue" stroke="midnightblue" points="887.65,-77.77 897.58,-74.08 887.51,-70.77 887.65,-77.77"/>
</g>
<!-- Node40 -->
<g id="node40" class="node">
<title>Node40</title>
<g id="a_node40"><a xlink:href="Utils_8h.html" target="_top" xlink:title="Utility helpers.">
<polygon fill="none" stroke="black" points="1996.1,-180.5 1996.1,-203.5 2057.1,-203.5 2057.1,-180.5 1996.1,-180.5"/>
<text text-anchor="middle" x="2026.6" y="-188.3" font-family="Helvetica,sans-Serif" font-size="14.00">Utils.h</text>
</a>
</g>
</g>
<!-- Node1&#45;&gt;Node40 -->
<g id="edge82" class="edge">
<title>Node1&#45;&gt;Node40</title>
<path fill="none" stroke="midnightblue" d="M1745.74,-360.45C1795.5,-344.5 1888.05,-311.04 1956.6,-264 1978.16,-249.21 1998.64,-227.16 2011.82,-211.56"/>
<polygon fill="midnightblue" stroke="midnightblue" points="2014.68,-213.59 2018.35,-203.65 2009.28,-209.13 2014.68,-213.59"/>
</g>
<!-- Node3 -->
<g id="node3" class="node">
<title>Node3</title>
<g id="a_node3"><a xlink:href="AcquisitionSequence_8h.html" target="_top" xlink:title="Acquisition sequence model.">
<polygon fill="none" stroke="black" points="2138.6,-180.5 2138.6,-203.5 2312.6,-203.5 2312.6,-180.5 2138.6,-180.5"/>
<text text-anchor="middle" x="2225.6" y="-188.3" font-family="Helvetica,sans-Serif" font-size="14.00">AcquisitionSequence.h</text>
</a>
</g>
</g>
<!-- Node2&#45;&gt;Node3 -->
<g id="edge2" class="edge">
<title>Node2&#45;&gt;Node3</title>
<path fill="none" stroke="midnightblue" d="M1772.01,-300.49C1821.92,-291.65 1894.06,-278.21 1956.6,-264 2035.14,-246.15 2125.5,-221.43 2178.95,-206.36"/>
<polygon fill="midnightblue" stroke="midnightblue" points="2180.15,-209.66 2188.82,-203.58 2178.24,-202.93 2180.15,-209.66"/>
</g>
<!-- Node15 -->
<g id="node15" class="node">
<title>Node15</title>
<g id="a_node15"><a xlink:href="QsLog_8h.html" target="_top" xlink:title="Qs Log logging support.">
<polygon fill="none" stroke="black" points="1723.6,-60.5 1723.6,-83.5 1797.6,-83.5 1797.6,-60.5 1723.6,-60.5"/>
<text text-anchor="middle" x="1760.6" y="-68.3" font-family="Helvetica,sans-Serif" font-size="14.00">QsLog.h</text>
</a>
</g>
</g>
<!-- Node2&#45;&gt;Node15 -->
<g id="edge81" class="edge">
<title>Node2&#45;&gt;Node15</title>
<path fill="none" stroke="midnightblue" d="M1669.12,-300.39C1607.65,-282.4 1502.97,-241.74 1535.6,-180 1557.72,-138.15 1581.28,-141.2 1623.6,-120 1652.43,-105.55 1686.76,-93.79 1713.84,-85.64"/>
<polygon fill="midnightblue" stroke="midnightblue" points="1714.86,-88.99 1723.47,-82.8 1712.89,-82.27 1714.86,-88.99"/>
</g>
<!-- Node18 -->
<g id="node18" class="node">
<title>Node18</title>
<g id="a_node18"><a xlink:href="Camera_8h.html" target="_top" xlink:title="Camera backend for .">
<polygon fill="none" stroke="black" points="565.6,-180.5 565.6,-203.5 649.6,-203.5 649.6,-180.5 565.6,-180.5"/>
<text text-anchor="middle" x="607.6" y="-188.3" font-family="Helvetica,sans-Serif" font-size="14.00">Camera.h</text>
</a>
</g>
</g>
<!-- Node2&#45;&gt;Node18 -->
<g id="edge18" class="edge">
<title>Node2&#45;&gt;Node18</title>
<path fill="none" stroke="midnightblue" d="M1633.48,-302.75C1422.2,-280.15 838.01,-217.65 659.86,-198.59"/>
<polygon fill="midnightblue" stroke="midnightblue" points="660.01,-195.09 649.7,-197.5 659.27,-202.05 660.01,-195.09"/>
</g>
<!-- Node28 -->
<g id="node28" class="node">
<title>Node28</title>
<g id="a_node28"><a xlink:href="Motor_8h.html" target="_top" xlink:title="Motor device interface.">
<polygon fill="none" stroke="black" points="1707.6,-240.5 1707.6,-263.5 1775.6,-263.5 1775.6,-240.5 1707.6,-240.5"/>
<text text-anchor="middle" x="1741.6" y="-248.3" font-family="Helvetica,sans-Serif" font-size="14.00">Motor.h</text>
</a>
</g>
</g>
<!-- Node2&#45;&gt;Node28 -->
<g id="edge30" class="edge">
<title>Node2&#45;&gt;Node28</title>
<path fill="none" stroke="midnightblue" d="M1716.29,-300.36C1720.44,-292.59 1726.19,-281.84 1731.15,-272.55"/>
<polygon fill="midnightblue" stroke="midnightblue" points="1734.32,-274.04 1735.95,-263.57 1728.15,-270.74 1734.32,-274.04"/>
</g>
<!-- Node42 -->
<g id="node42" class="node">
<title>Node42</title>
<g id="a_node42"><a xlink:href="SuperK_8h.html" target="_top" xlink:title="Super K device interface.">
<polygon fill="none" stroke="black" points="1867.6,-240.5 1867.6,-263.5 1947.6,-263.5 1947.6,-240.5 1867.6,-240.5"/>
<text text-anchor="middle" x="1907.6" y="-248.3" font-family="Helvetica,sans-Serif" font-size="14.00">SuperK.h</text>
</a>
</g>
</g>
<!-- Node2&#45;&gt;Node42 -->
<g id="edge62" class="edge">
<title>Node2&#45;&gt;Node42</title>
<path fill="none" stroke="midnightblue" d="M1746.28,-300.5C1778.67,-290.96 1826.62,-276.84 1861.83,-266.48"/>
<polygon fill="midnightblue" stroke="midnightblue" points="1863.26,-269.7 1871.86,-263.52 1861.28,-262.99 1863.26,-269.7"/>
</g>
<!-- Node44 -->
<g id="node44" class="node">
<title>Node44</title>
<g id="a_node44"><a xlink:href="Dac_8h.html" target="_top" xlink:title="Dac device interface.">
<polygon fill="none" stroke="black" points="1845.6,-180.5 1845.6,-203.5 1901.6,-203.5 1901.6,-180.5 1845.6,-180.5"/>
<text text-anchor="middle" x="1873.6" y="-188.3" font-family="Helvetica,sans-Serif" font-size="14.00">Dac.h</text>
</a>
</g>
</g>
<!-- Node2&#45;&gt;Node44 -->
<g id="edge69" class="edge">
<title>Node2&#45;&gt;Node44</title>
<path fill="none" stroke="midnightblue" d="M1728.6,-300.32C1743.8,-291.11 1766.02,-277.26 1784.6,-264 1808.94,-246.64 1835.59,-225.01 1853.32,-210.21"/>
<polygon fill="midnightblue" stroke="midnightblue" points="1855.85,-212.66 1861.26,-203.55 1851.35,-207.3 1855.85,-212.66"/>
</g>
<!-- Node45 -->
<g id="node45" class="node">
<title>Node45</title>
<g id="a_node45"><a xlink:href="Comedi_8h.html" target="_top" xlink:title="Comedi device interface.">
<polygon fill="none" stroke="black" points="1544.1,-180.5 1544.1,-203.5 1627.1,-203.5 1627.1,-180.5 1544.1,-180.5"/>
<text text-anchor="middle" x="1585.6" y="-188.3" font-family="Helvetica,sans-Serif" font-size="14.00">Comedi.h</text>
</a>
</g>
</g>
<!-- Node2&#45;&gt;Node45 -->
<g id="edge73" class="edge">
<title>Node2&#45;&gt;Node45</title>
<path fill="none" stroke="midnightblue" d="M1699.07,-300.11C1677.38,-279.63 1630.35,-235.24 1604.16,-210.52"/>
<polygon fill="midnightblue" stroke="midnightblue" points="1606.42,-207.84 1596.75,-203.52 1601.62,-212.93 1606.42,-207.84"/>
</g>
<!-- Node46 -->
<g id="node46" class="node">
<title>Node46</title>
<g id="a_node46"><a xlink:href="Raspi_8h.html" target="_top" xlink:title="Raspi device interface.">
<polygon fill="none" stroke="black" points="1645.6,-180.5 1645.6,-203.5 1713.6,-203.5 1713.6,-180.5 1645.6,-180.5"/>
<text text-anchor="middle" x="1679.6" y="-188.3" font-family="Helvetica,sans-Serif" font-size="14.00">Raspi.h</text>
</a>
</g>
</g>
<!-- Node2&#45;&gt;Node46 -->
<g id="edge77" class="edge">
<title>Node2&#45;&gt;Node46</title>
<path fill="none" stroke="midnightblue" d="M1707.74,-300.11C1702.57,-280.43 1691.59,-238.65 1684.98,-213.48"/>
<polygon fill="midnightblue" stroke="midnightblue" points="1688.29,-212.31 1682.37,-203.52 1681.52,-214.08 1688.29,-212.31"/>
</g>
<!-- Node4 -->
<g id="node4" class="node">
<title>Node4</title>
<g id="a_node4"><a xlink:title=" ">
<polygon fill="none" stroke="#bfbfbf" points="1747.1,-120.5 1747.1,-143.5 1836.1,-143.5 1836.1,-120.5 1747.1,-120.5"/>
<text text-anchor="middle" x="1791.6" y="-128.3" font-family="Helvetica,sans-Serif" font-size="14.00">QtWidgets</text>
</a>
</g>
</g>
<!-- Node3&#45;&gt;Node4 -->
<g id="edge3" class="edge">
<title>Node3&#45;&gt;Node4</title>
<path fill="none" stroke="midnightblue" d="M2147.01,-180.5C2060.1,-168.88 1922.37,-150.48 1846.41,-140.32"/>
<polygon fill="midnightblue" stroke="midnightblue" points="1846.49,-136.8 1836.11,-138.95 1845.56,-143.74 1846.49,-136.8"/>
</g>
<!-- Node5 -->
<g id="node5" class="node">
<title>Node5</title>
<g id="a_node5"><a xlink:title=" ">
<polygon fill="none" stroke="#bfbfbf" points="2448.6,-120.5 2448.6,-143.5 2510.6,-143.5 2510.6,-120.5 2448.6,-120.5"/>
<text text-anchor="middle" x="2479.6" y="-128.3" font-family="Helvetica,sans-Serif" font-size="14.00">hdf5.h</text>
</a>
</g>
</g>
<!-- Node3&#45;&gt;Node5 -->
<g id="edge4" class="edge">
<title>Node3&#45;&gt;Node5</title>
<path fill="none" stroke="midnightblue" d="M2277.23,-180.45C2318.48,-171.84 2377.98,-159.03 2438.48,-144.2"/>
<polygon fill="midnightblue" stroke="midnightblue" points="2439.33,-147.6 2448.2,-141.8 2437.65,-140.8 2439.33,-147.6"/>
</g>
<!-- Node6 -->
<g id="node6" class="node">
<title>Node6</title>
<g id="a_node6"><a xlink:title=" ">
<polygon fill="none" stroke="#bfbfbf" points="2348.6,-120.5 2348.6,-143.5 2430.6,-143.5 2430.6,-120.5 2348.6,-120.5"/>
<text text-anchor="middle" x="2389.6" y="-128.3" font-family="Helvetica,sans-Serif" font-size="14.00">hdf5_hl.h</text>
</a>
</g>
</g>
<!-- Node3&#45;&gt;Node6 -->
<g id="edge5" class="edge">
<title>Node3&#45;&gt;Node6</title>
<path fill="none" stroke="midnightblue" d="M2255.3,-180.5C2281.92,-171.08 2321.16,-157.2 2350.36,-146.88"/>
<polygon fill="midnightblue" stroke="midnightblue" points="2351.59,-150.16 2359.85,-143.52 2349.25,-143.56 2351.59,-150.16"/>
</g>
<!-- Node7 -->
<g id="node7" class="node">
<title>Node7</title>
<g id="a_node7"><a xlink:href="FileParser_8h.html" target="_top" xlink:title="Acquisition file parser.">
<polygon fill="none" stroke="black" points="2197.1,-120.5 2197.1,-143.5 2292.1,-143.5 2292.1,-120.5 2197.1,-120.5"/>
<text text-anchor="middle" x="2244.6" y="-128.3" font-family="Helvetica,sans-Serif" font-size="14.00">FileParser.h</text>
</a>
</g>
</g>
<!-- Node3&#45;&gt;Node7 -->
<g id="edge6" class="edge">
<title>Node3&#45;&gt;Node7</title>
<path fill="none" stroke="midnightblue" d="M2229.09,-180.36C2231.58,-172.76 2235.01,-162.29 2238.01,-153.13"/>
<polygon fill="midnightblue" stroke="midnightblue" points="2241.35,-154.16 2241.14,-143.57 2234.7,-151.98 2241.35,-154.16"/>
</g>
<!-- Node3&#45;&gt;Node15 -->
<g id="edge17" class="edge">
<title>Node3&#45;&gt;Node15</title>
<path fill="none" stroke="midnightblue" d="M2211.88,-180.26C2190.64,-164.24 2147.93,-134.46 2106.6,-120 2004.35,-84.24 1876.27,-75.5 1808.23,-73.49"/>
<polygon fill="midnightblue" stroke="midnightblue" points="1807.93,-69.98 1797.84,-73.22 1807.75,-76.97 1807.93,-69.98"/>
</g>
<!-- Node7&#45;&gt;Node8 -->
<g id="edge7" class="edge">
<title>Node7&#45;&gt;Node8</title>
<path fill="none" stroke="midnightblue" d="M2196.88,-128.27C2154.53,-125.9 2090.96,-122.47 2035.6,-120 1600.19,-100.55 1490.25,-116.33 1055.6,-84 1046.57,-83.33 1037.09,-82.47 1027.74,-81.52"/>
<polygon fill="midnightblue" stroke="midnightblue" points="1027.96,-78.02 1017.65,-80.46 1027.24,-84.98 1027.96,-78.02"/>
</g>
<!-- Node11 -->
<g id="node11" class="node">
<title>Node11</title>
<g id="a_node11"><a xlink:title=" ">
<polygon fill="none" stroke="#bfbfbf" points="2100.6,-60.5 2100.6,-83.5 2148.6,-83.5 2148.6,-60.5 2100.6,-60.5"/>
<text text-anchor="middle" x="2124.6" y="-68.3" font-family="Helvetica,sans-Serif" font-size="14.00">QDir</text>
</a>
</g>
</g>
<!-- Node7&#45;&gt;Node11 -->
<g id="edge10" class="edge">
<title>Node7&#45;&gt;Node11</title>
<path fill="none" stroke="midnightblue" d="M2222.87,-120.5C2204.13,-111.44 2176.83,-98.25 2155.77,-88.06"/>
<polygon fill="midnightblue" stroke="midnightblue" points="2157.1,-84.82 2146.58,-83.62 2154.06,-91.12 2157.1,-84.82"/>
</g>
<!-- Node12 -->
<g id="node12" class="node">
<title>Node12</title>
<g id="a_node12"><a xlink:title=" ">
<polygon fill="none" stroke="#bfbfbf" points="2166.6,-60.5 2166.6,-83.5 2216.6,-83.5 2216.6,-60.5 2166.6,-60.5"/>
<text text-anchor="middle" x="2191.6" y="-68.3" font-family="Helvetica,sans-Serif" font-size="14.00">QFile</text>
</a>
</g>
</g>
<!-- Node7&#45;&gt;Node12 -->
<g id="edge11" class="edge">
<title>Node7&#45;&gt;Node12</title>
<path fill="none" stroke="midnightblue" d="M2234.88,-120.36C2227.41,-112.19 2216.92,-100.7 2208.13,-91.09"/>
<polygon fill="midnightblue" stroke="midnightblue" points="2210.59,-88.59 2201.26,-83.57 2205.42,-93.31 2210.59,-88.59"/>
</g>
<!-- Node13 -->
<g id="node13" class="node">
<title>Node13</title>
<g id="a_node13"><a xlink:title=" ">
<polygon fill="none" stroke="#bfbfbf" points="2358.6,-60.5 2358.6,-83.5 2452.6,-83.5 2452.6,-60.5 2358.6,-60.5"/>
<text text-anchor="middle" x="2405.6" y="-68.3" font-family="Helvetica,sans-Serif" font-size="14.00">QDateTime</text>
</a>
</g>
</g>
<!-- Node7&#45;&gt;Node13 -->
<g id="edge12" class="edge">
<title>Node7&#45;&gt;Node13</title>
<path fill="none" stroke="midnightblue" d="M2273.76,-120.5C2299.78,-111.12 2338.08,-97.32 2366.71,-87.01"/>
<polygon fill="midnightblue" stroke="midnightblue" points="2368.17,-90.21 2376.39,-83.52 2365.8,-83.62 2368.17,-90.21"/>
</g>
<!-- Node14 -->
<g id="node14" class="node">
<title>Node14</title>
<g id="a_node14"><a xlink:title=" ">
<polygon fill="none" stroke="#bfbfbf" points="2235.1,-60.5 2235.1,-83.5 2340.1,-83.5 2340.1,-60.5 2235.1,-60.5"/>
<text text-anchor="middle" x="2287.6" y="-68.3" font-family="Helvetica,sans-Serif" font-size="14.00">QTextStream</text>
</a>
</g>
</g>
<!-- Node7&#45;&gt;Node14 -->
<g id="edge13" class="edge">
<title>Node7&#45;&gt;Node14</title>
<path fill="none" stroke="midnightblue" d="M2252.49,-120.36C2258.43,-112.35 2266.72,-101.16 2273.76,-91.67"/>
<polygon fill="midnightblue" stroke="midnightblue" points="2276.62,-93.69 2279.76,-83.57 2271,-89.52 2276.62,-93.69"/>
</g>
<!-- Node7&#45;&gt;Node15 -->
<g id="edge14" class="edge">
<title>Node7&#45;&gt;Node15</title>
<path fill="none" stroke="midnightblue" d="M2196.87,-125.28C2104.1,-114.16 1900.45,-89.76 1807.97,-78.68"/>
<polygon fill="midnightblue" stroke="midnightblue" points="1808.13,-75.17 1797.79,-77.46 1807.3,-82.12 1808.13,-75.17"/>
</g>
<!-- Node9 -->
<g id="node9" class="node">
<title>Node9</title>
<g id="a_node9"><a xlink:title=" ">
<polygon fill="none" stroke="#bfbfbf" points="872.1,-0.5 872.1,-23.5 949.1,-23.5 949.1,-0.5 872.1,-0.5"/>
<text text-anchor="middle" x="910.6" y="-8.3" font-family="Helvetica,sans-Serif" font-size="14.00">QtGlobal</text>
</a>
</g>
</g>
<!-- Node8&#45;&gt;Node9 -->
<g id="edge8" class="edge">
<title>Node8&#45;&gt;Node9</title>
<path fill="none" stroke="midnightblue" d="M948.98,-60.36C942.42,-52.27 933.24,-40.93 925.5,-31.38"/>
<polygon fill="midnightblue" stroke="midnightblue" points="928.18,-29.14 919.17,-23.57 922.74,-33.54 928.18,-29.14"/>
</g>
<!-- Node10 -->
<g id="node10" class="node">
<title>Node10</title>
<g id="a_node10"><a xlink:title=" ">
<polygon fill="none" stroke="#bfbfbf" points="967.6,-0.5 967.6,-23.5 1041.6,-23.5 1041.6,-0.5 967.6,-0.5"/>
<text text-anchor="middle" x="1004.6" y="-8.3" font-family="Helvetica,sans-Serif" font-size="14.00">unistd.h</text>
</a>
</g>
</g>
<!-- Node8&#45;&gt;Node10 -->
<g id="edge9" class="edge">
<title>Node8&#45;&gt;Node10</title>
<path fill="none" stroke="midnightblue" d="M966.22,-60.36C972.78,-52.27 981.97,-40.93 989.71,-31.38"/>
<polygon fill="midnightblue" stroke="midnightblue" points="992.46,-33.54 996.04,-23.57 987.02,-29.14 992.46,-33.54"/>
</g>
<!-- Node16 -->
<g id="node16" class="node">
<title>Node16</title>
<g id="a_node16"><a xlink:title=" ">
<polygon fill="none" stroke="#bfbfbf" points="1723.6,-0.5 1723.6,-23.5 1797.6,-23.5 1797.6,-0.5 1723.6,-0.5"/>
<text text-anchor="middle" x="1760.6" y="-8.3" font-family="Helvetica,sans-Serif" font-size="14.00">QDebug</text>
</a>
</g>
</g>
<!-- Node15&#45;&gt;Node16 -->
<g id="edge15" class="edge">
<title>Node15&#45;&gt;Node16</title>
<path fill="none" stroke="midnightblue" d="M1760.6,-60.36C1760.6,-52.92 1760.6,-42.74 1760.6,-33.73"/>
<polygon fill="midnightblue" stroke="midnightblue" points="1764.1,-33.57 1760.6,-23.57 1757.1,-33.57 1764.1,-33.57"/>
</g>
<!-- Node17 -->
<g id="node17" class="node">
<title>Node17</title>
<g id="a_node17"><a xlink:title=" ">
<polygon fill="none" stroke="#bfbfbf" points="1480.6,-0.5 1480.6,-23.5 1550.6,-23.5 1550.6,-0.5 1480.6,-0.5"/>
<text text-anchor="middle" x="1515.6" y="-8.3" font-family="Helvetica,sans-Serif" font-size="14.00">QString</text>
</a>
</g>
</g>
<!-- Node15&#45;&gt;Node17 -->
<g id="edge16" class="edge">
<title>Node15&#45;&gt;Node17</title>
<path fill="none" stroke="midnightblue" d="M1723.45,-62.11C1720.45,-61.39 1717.48,-60.68 1714.6,-60 1661.75,-47.44 1600.97,-33.1 1560.63,-23.6"/>
<polygon fill="midnightblue" stroke="midnightblue" points="1561.37,-20.18 1550.84,-21.29 1559.77,-26.99 1561.37,-20.18"/>
</g>
<!-- Node18&#45;&gt;Node8 -->
<g id="edge28" class="edge">
<title>Node18&#45;&gt;Node8</title>
<path fill="none" stroke="midnightblue" d="M649.73,-185.84C692.87,-179.58 761.27,-166.89 816.6,-144 835.06,-136.36 837.03,-129.5 854.6,-120 876.59,-108.11 902.16,-96.43 922.31,-87.69"/>
<polygon fill="midnightblue" stroke="midnightblue" points="923.93,-90.81 931.74,-83.65 921.17,-84.38 923.93,-90.81"/>
</g>
<!-- Node18&#45;&gt;Node15 -->
<g id="edge29" class="edge">
<title>Node18&#45;&gt;Node15</title>
<path fill="none" stroke="midnightblue" d="M649.86,-190.11C812.99,-186.5 1396.52,-171.75 1474.6,-144 1491.69,-137.93 1490.9,-127.07 1507.6,-120 1590.65,-84.84 1621.06,-101.62 1713.44,-84.08"/>
<polygon fill="midnightblue" stroke="midnightblue" points="1714.36,-87.47 1723.49,-82.09 1713,-80.6 1714.36,-87.47"/>
</g>
<!-- Node19 -->
<g id="node19" class="node">
<title>Node19</title>
<g id="a_node19"><a xlink:title=" ">
<polygon fill="none" stroke="#bfbfbf" points="863.6,-120.5 863.6,-143.5 929.6,-143.5 929.6,-120.5 863.6,-120.5"/>
<text text-anchor="middle" x="896.6" y="-128.3" font-family="Helvetica,sans-Serif" font-size="14.00">math.h</text>
</a>
</g>
</g>
<!-- Node18&#45;&gt;Node19 -->
<g id="edge19" class="edge">
<title>Node18&#45;&gt;Node19</title>
<path fill="none" stroke="midnightblue" d="M649.67,-183.33C698.02,-174.4 779.71,-158.96 849.6,-144 850.87,-143.73 852.16,-143.45 853.45,-143.17"/>
<polygon fill="midnightblue" stroke="midnightblue" points="854.52,-146.51 863.51,-140.91 852.99,-139.68 854.52,-146.51"/>
</g>
<!-- Node20 -->
<g id="node20" class="node">
<title>Node20</title>
<g id="a_node20"><a xlink:title=" ">
<polygon fill="none" stroke="#bfbfbf" points="29.6,-120.5 29.6,-143.5 105.6,-143.5 105.6,-120.5 29.6,-120.5"/>
<text text-anchor="middle" x="67.6" y="-128.3" font-family="Helvetica,sans-Serif" font-size="14.00">QThread</text>
</a>
</g>
</g>
<!-- Node18&#45;&gt;Node20 -->
<g id="edge20" class="edge">
<title>Node18&#45;&gt;Node20</title>
<path fill="none" stroke="midnightblue" d="M565.48,-188.9C481.63,-184.32 287.83,-171.65 115.73,-144.01"/>
<polygon fill="midnightblue" stroke="midnightblue" points="116.17,-140.53 105.73,-142.38 115.04,-147.44 116.17,-140.53"/>
</g>
<!-- Node21 -->
<g id="node21" class="node">
<title>Node21</title>
<g id="a_node21"><a xlink:title=" ">
<polygon fill="none" stroke="#bfbfbf" points="124.1,-120.5 124.1,-143.5 203.1,-143.5 203.1,-120.5 124.1,-120.5"/>
<text text-anchor="middle" x="163.6" y="-128.3" font-family="Helvetica,sans-Serif" font-size="14.00">QPixmap</text>
</a>
</g>
</g>
<!-- Node18&#45;&gt;Node21 -->
<g id="edge21" class="edge">
<title>Node18&#45;&gt;Node21</title>
<path fill="none" stroke="midnightblue" d="M565.48,-187.5C494.66,-181.28 347.11,-166.93 213.36,-144.18"/>
<polygon fill="midnightblue" stroke="midnightblue" points="213.8,-140.7 203.35,-142.45 212.61,-147.6 213.8,-140.7"/>
</g>
<!-- Node22 -->
<g id="node22" class="node">
<title>Node22</title>
<g id="a_node22"><a xlink:title=" ">
<polygon fill="none" stroke="#bfbfbf" points="221.1,-120.5 221.1,-143.5 292.1,-143.5 292.1,-120.5 221.1,-120.5"/>
<text text-anchor="middle" x="256.6" y="-128.3" font-family="Helvetica,sans-Serif" font-size="14.00">QImage</text>
</a>
</g>
</g>
<!-- Node18&#45;&gt;Node22 -->
<g id="edge22" class="edge">
<title>Node18&#45;&gt;Node22</title>
<path fill="none" stroke="midnightblue" d="M565.42,-185.81C507.96,-178.45 401.69,-163.87 302.45,-144.26"/>
<polygon fill="midnightblue" stroke="midnightblue" points="303.05,-140.81 292.56,-142.28 301.68,-147.67 303.05,-140.81"/>
</g>
<!-- Node23 -->
<g id="node23" class="node">
<title>Node23</title>
<g id="a_node23"><a xlink:title=" ">
<polygon fill="none" stroke="#bfbfbf" points="310.1,-120.5 310.1,-143.5 407.1,-143.5 407.1,-120.5 310.1,-120.5"/>
<text text-anchor="middle" x="358.6" y="-128.3" font-family="Helvetica,sans-Serif" font-size="14.00">QByteArray</text>
</a>
</g>
</g>
<!-- Node18&#45;&gt;Node23 -->
<g id="edge23" class="edge">
<title>Node18&#45;&gt;Node23</title>
<path fill="none" stroke="midnightblue" d="M565.36,-181.16C523.61,-171.44 459.51,-156.51 413.76,-145.85"/>
<polygon fill="midnightblue" stroke="midnightblue" points="414.54,-142.44 404,-143.58 412.95,-149.25 414.54,-142.44"/>
</g>
<!-- Node24 -->
<g id="node24" class="node">
<title>Node24</title>
<g id="a_node24"><a xlink:title=" ">
<polygon fill="none" stroke="#bfbfbf" points="425.1,-120.5 425.1,-143.5 496.1,-143.5 496.1,-120.5 425.1,-120.5"/>
<text text-anchor="middle" x="460.6" y="-128.3" font-family="Helvetica,sans-Serif" font-size="14.00">QBuffer</text>
</a>
</g>
</g>
<!-- Node18&#45;&gt;Node24 -->
<g id="edge24" class="edge">
<title>Node18&#45;&gt;Node24</title>
<path fill="none" stroke="midnightblue" d="M580.98,-180.5C557.5,-171.23 523.08,-157.65 497.05,-147.38"/>
<polygon fill="midnightblue" stroke="midnightblue" points="498.11,-144.04 487.52,-143.62 495.54,-150.55 498.11,-144.04"/>
</g>
<!-- Node25 -->
<g id="node25" class="node">
<title>Node25</title>
<g id="a_node25"><a xlink:title=" ">
<polygon fill="none" stroke="#bfbfbf" points="514.1,-120.5 514.1,-143.5 585.1,-143.5 585.1,-120.5 514.1,-120.5"/>
<text text-anchor="middle" x="549.6" y="-128.3" font-family="Helvetica,sans-Serif" font-size="14.00">QMutex</text>
</a>
</g>
</g>
<!-- Node18&#45;&gt;Node25 -->
<g id="edge25" class="edge">
<title>Node18&#45;&gt;Node25</title>
<path fill="none" stroke="midnightblue" d="M596.96,-180.36C588.71,-172.1 577.07,-160.47 567.4,-150.8"/>
<polygon fill="midnightblue" stroke="midnightblue" points="569.72,-148.17 560.17,-143.57 564.77,-153.12 569.72,-148.17"/>
</g>
<!-- Node26 -->
<g id="node26" class="node">
<title>Node26</title>
<g id="a_node26"><a xlink:title=" ">
<polygon fill="none" stroke="#bfbfbf" points="603.6,-120.5 603.6,-143.5 727.6,-143.5 727.6,-120.5 603.6,-120.5"/>
<text text-anchor="middle" x="665.6" y="-128.3" font-family="Helvetica,sans-Serif" font-size="14.00">QWaitCondition</text>
</a>
</g>
</g>
<!-- Node18&#45;&gt;Node26 -->
<g id="edge26" class="edge">
<title>Node18&#45;&gt;Node26</title>
<path fill="none" stroke="midnightblue" d="M618.24,-180.36C626.5,-172.1 638.13,-160.47 647.8,-150.8"/>
<polygon fill="midnightblue" stroke="midnightblue" points="650.43,-153.12 655.03,-143.57 645.48,-148.17 650.43,-153.12"/>
</g>
<!-- Node27 -->
<g id="node27" class="node">
<title>Node27</title>
<g id="a_node27"><a xlink:title=" ">
<polygon fill="none" stroke="#bfbfbf" points="745.6,-120.5 745.6,-143.5 807.6,-143.5 807.6,-120.5 745.6,-120.5"/>
<text text-anchor="middle" x="776.6" y="-128.3" font-family="Helvetica,sans-Serif" font-size="14.00">QTime</text>
</a>
</g>
</g>
<!-- Node18&#45;&gt;Node27 -->
<g id="edge27" class="edge">
<title>Node18&#45;&gt;Node27</title>
<path fill="none" stroke="midnightblue" d="M638.21,-180.5C665.64,-171.08 706.08,-157.2 736.17,-146.88"/>
<polygon fill="midnightblue" stroke="midnightblue" points="737.62,-150.08 745.94,-143.52 735.34,-143.46 737.62,-150.08"/>
</g>
<!-- Node28&#45;&gt;Node4 -->
<g id="edge54" class="edge">
<title>Node28&#45;&gt;Node4</title>
<path fill="none" stroke="midnightblue" d="M1746.22,-240.11C1754.63,-220.25 1772.58,-177.9 1783.21,-152.81"/>
<polygon fill="midnightblue" stroke="midnightblue" points="1786.46,-154.1 1787.14,-143.52 1780.02,-151.37 1786.46,-154.1"/>
</g>
<!-- Node28&#45;&gt;Node15 -->
<g id="edge55" class="edge">
<title>Node28&#45;&gt;Node15</title>
<path fill="none" stroke="midnightblue" d="M1775.67,-246.41C1820.17,-239.63 1894.34,-225.4 1910.6,-204 1948.57,-154.03 1857.3,-109.07 1800.96,-87.13"/>
<polygon fill="midnightblue" stroke="midnightblue" points="1802.16,-83.84 1791.57,-83.56 1799.67,-90.38 1802.16,-83.84"/>
</g>
<!-- Node29 -->
<g id="node29" class="node">
<title>Node29</title>
<g id="a_node29"><a xlink:href="ACCom_8h.html" target="_top" xlink:title="AC communication backend for AC Com.">
<polygon fill="none" stroke="black" points="1385.6,-120.5 1385.6,-143.5 1465.6,-143.5 1465.6,-120.5 1385.6,-120.5"/>
<text text-anchor="middle" x="1425.6" y="-128.3" font-family="Helvetica,sans-Serif" font-size="14.00">ACCom.h</text>
</a>
</g>
</g>
<!-- Node28&#45;&gt;Node29 -->
<g id="edge31" class="edge">
<title>Node28&#45;&gt;Node29</title>
<path fill="none" stroke="midnightblue" d="M1707.46,-249.38C1617.42,-244.78 1378.79,-230.19 1355.6,-204 1337.94,-184.06 1366.8,-162.44 1392.63,-148.37"/>
<polygon fill="midnightblue" stroke="midnightblue" points="1394.31,-151.44 1401.56,-143.72 1391.08,-145.23 1394.31,-151.44"/>
</g>
<!-- Node36 -->
<g id="node36" class="node">
<title>Node36</title>
<g id="a_node36"><a xlink:href="Driver_8h.html" target="_top" xlink:title="Driver implementation for .">
<polygon fill="none" stroke="black" points="1194.1,-180.5 1194.1,-203.5 1265.1,-203.5 1265.1,-180.5 1194.1,-180.5"/>
<text text-anchor="middle" x="1229.6" y="-188.3" font-family="Helvetica,sans-Serif" font-size="14.00">Driver.h</text>
</a>
</g>
</g>
<!-- Node28&#45;&gt;Node36 -->
<g id="edge41" class="edge">
<title>Node28&#45;&gt;Node36</title>
<path fill="none" stroke="midnightblue" d="M1707.57,-247.28C1636.06,-239.44 1465,-220.6 1321.6,-204 1306.69,-202.27 1290.42,-200.34 1275.76,-198.59"/>
<polygon fill="midnightblue" stroke="midnightblue" points="1275.77,-195.06 1265.42,-197.35 1274.93,-202.01 1275.77,-195.06"/>
</g>
<!-- Node39 -->
<g id="node39" class="node">
<title>Node39</title>
<g id="a_node39"><a xlink:title=" ">
<polygon fill="none" stroke="#bfbfbf" points="1674.1,-120.5 1674.1,-143.5 1729.1,-143.5 1729.1,-120.5 1674.1,-120.5"/>
<text text-anchor="middle" x="1701.6" y="-128.3" font-family="Helvetica,sans-Serif" font-size="14.00">QtSql</text>
</a>
</g>
</g>
<!-- Node28&#45;&gt;Node39 -->
<g id="edge53" class="edge">
<title>Node28&#45;&gt;Node39</title>
<path fill="none" stroke="midnightblue" d="M1739.29,-240.25C1736.13,-226.21 1730.02,-200.93 1722.6,-180 1719.37,-170.9 1715.13,-161.11 1711.3,-152.83"/>
<polygon fill="midnightblue" stroke="midnightblue" points="1714.38,-151.16 1706.93,-143.63 1708.06,-154.16 1714.38,-151.16"/>
</g>
<!-- Node28&#45;&gt;Node40 -->
<g id="edge56" class="edge">
<title>Node28&#45;&gt;Node40</title>
<path fill="none" stroke="midnightblue" d="M1775.7,-244.06C1828.41,-233.33 1929.5,-212.76 1985.94,-201.27"/>
<polygon fill="midnightblue" stroke="midnightblue" points="1986.84,-204.66 1995.94,-199.24 1985.44,-197.8 1986.84,-204.66"/>
</g>
<!-- Node29&#45;&gt;Node8 -->
<g id="edge37" class="edge">
<title>Node29&#45;&gt;Node8</title>
<path fill="none" stroke="midnightblue" d="M1385.32,-125.88C1370.62,-124.02 1353.86,-121.91 1338.6,-120 1230.06,-106.44 1104.08,-90.95 1027.65,-81.58"/>
<polygon fill="midnightblue" stroke="midnightblue" points="1028.01,-78.09 1017.66,-80.35 1027.16,-85.04 1028.01,-78.09"/>
</g>
<!-- Node29&#45;&gt;Node15 -->
<g id="edge38" class="edge">
<title>Node29&#45;&gt;Node15</title>
<path fill="none" stroke="midnightblue" d="M1465.66,-122.61C1470.36,-121.7 1475.08,-120.81 1479.6,-120 1580.47,-102.01 1609.19,-104.15 1713.51,-84.09"/>
<polygon fill="midnightblue" stroke="midnightblue" points="1714.35,-87.5 1723.5,-82.15 1713.02,-80.62 1714.35,-87.5"/>
</g>
<!-- Node29&#45;&gt;Node17 -->
<g id="edge39" class="edge">
<title>Node29&#45;&gt;Node17</title>
<path fill="none" stroke="midnightblue" d="M1450.04,-120.46C1465.55,-112.56 1484.86,-100.32 1496.6,-84 1507.17,-69.31 1511.86,-49.1 1513.94,-34"/>
<polygon fill="midnightblue" stroke="midnightblue" points="1517.47,-33.94 1515.08,-23.62 1510.51,-33.18 1517.47,-33.94"/>
</g>
<!-- Node30 -->
<g id="node30" class="node">
<title>Node30</title>
<g id="a_node30"><a xlink:title=" ">
<polygon fill="none" stroke="#bfbfbf" points="1065.1,-60.5 1065.1,-83.5 1122.1,-83.5 1122.1,-60.5 1065.1,-60.5"/>
<text text-anchor="middle" x="1093.6" y="-68.3" font-family="Helvetica,sans-Serif" font-size="14.00">string</text>
</a>
</g>
</g>
<!-- Node29&#45;&gt;Node30 -->
<g id="edge32" class="edge">
<title>Node29&#45;&gt;Node30</title>
<path fill="none" stroke="midnightblue" d="M1385.55,-124C1321.19,-112.76 1195.53,-90.81 1132.13,-79.73"/>
<polygon fill="midnightblue" stroke="midnightblue" points="1132.6,-76.26 1122.15,-77.99 1131.4,-83.16 1132.6,-76.26"/>
</g>
<!-- Node31 -->
<g id="node31" class="node">
<title>Node31</title>
<g id="a_node31"><a xlink:title=" ">
<polygon fill="none" stroke="#bfbfbf" points="1220.1,-60.5 1220.1,-83.5 1297.1,-83.5 1297.1,-60.5 1220.1,-60.5"/>
<text text-anchor="middle" x="1258.6" y="-68.3" font-family="Helvetica,sans-Serif" font-size="14.00">iostream</text>
</a>
</g>
</g>
<!-- Node29&#45;&gt;Node31 -->
<g id="edge33" class="edge">
<title>Node29&#45;&gt;Node31</title>
<path fill="none" stroke="midnightblue" d="M1395.36,-120.5C1368.25,-111.08 1328.29,-97.2 1298.56,-86.88"/>
<polygon fill="midnightblue" stroke="midnightblue" points="1299.5,-83.5 1288.9,-83.52 1297.2,-90.11 1299.5,-83.5"/>
</g>
<!-- Node32 -->
<g id="node32" class="node">
<title>Node32</title>
<g id="a_node32"><a xlink:title=" ">
<polygon fill="none" stroke="#bfbfbf" points="1543.6,-60.5 1543.6,-83.5 1613.6,-83.5 1613.6,-60.5 1543.6,-60.5"/>
<text text-anchor="middle" x="1578.6" y="-68.3" font-family="Helvetica,sans-Serif" font-size="14.00">fstream</text>
</a>
</g>
</g>
<!-- Node29&#45;&gt;Node32 -->
<g id="edge34" class="edge">
<title>Node29&#45;&gt;Node32</title>
<path fill="none" stroke="midnightblue" d="M1453.31,-120.5C1477.93,-111.16 1514.12,-97.44 1541.28,-87.15"/>
<polygon fill="midnightblue" stroke="midnightblue" points="1542.73,-90.34 1550.84,-83.52 1540.25,-83.8 1542.73,-90.34"/>
</g>
<!-- Node33 -->
<g id="node33" class="node">
<title>Node33</title>
<g id="a_node33"><a xlink:title=" ">
<polygon fill="none" stroke="#bfbfbf" points="1315.6,-60.5 1315.6,-83.5 1375.6,-83.5 1375.6,-60.5 1315.6,-60.5"/>
<text text-anchor="middle" x="1345.6" y="-68.3" font-family="Helvetica,sans-Serif" font-size="14.00">vector</text>
</a>
</g>
</g>
<!-- Node29&#45;&gt;Node33 -->
<g id="edge35" class="edge">
<title>Node29&#45;&gt;Node33</title>
<path fill="none" stroke="midnightblue" d="M1410.93,-120.36C1399.09,-111.78 1382.22,-99.55 1368.59,-89.66"/>
<polygon fill="midnightblue" stroke="midnightblue" points="1370.33,-86.61 1360.18,-83.57 1366.22,-92.27 1370.33,-86.61"/>
</g>
<!-- Node34 -->
<g id="node34" class="node">
<title>Node34</title>
<g id="a_node34"><a xlink:title=" ">
<polygon fill="none" stroke="#bfbfbf" points="1631.6,-60.5 1631.6,-83.5 1705.6,-83.5 1705.6,-60.5 1631.6,-60.5"/>
<text text-anchor="middle" x="1668.6" y="-68.3" font-family="Helvetica,sans-Serif" font-size="14.00">stdarg.h</text>
</a>
</g>
</g>
<!-- Node29&#45;&gt;Node34 -->
<g id="edge36" class="edge">
<title>Node29&#45;&gt;Node34</title>
<path fill="none" stroke="midnightblue" d="M1465.97,-121.37C1503.69,-112.38 1561.86,-98.51 1621.48,-84.27"/>
<polygon fill="midnightblue" stroke="midnightblue" points="1622.53,-87.61 1631.44,-81.89 1620.91,-80.81 1622.53,-87.61"/>
</g>
<!-- Node35 -->
<g id="node35" class="node">
<title>Node35</title>
<g id="a_node35"><a xlink:title=" ">
<polygon fill="none" stroke="#bfbfbf" points="1393.6,-60.5 1393.6,-83.5 1487.6,-83.5 1487.6,-60.5 1393.6,-60.5"/>
<text text-anchor="middle" x="1440.6" y="-68.3" font-family="Helvetica,sans-Serif" font-size="14.00">QStringList</text>
</a>
</g>
</g>
<!-- Node29&#45;&gt;Node35 -->
<g id="edge40" class="edge">
<title>Node29&#45;&gt;Node35</title>
<path fill="none" stroke="midnightblue" d="M1428.35,-120.36C1430.3,-112.84 1432.97,-102.52 1435.32,-93.43"/>
<polygon fill="midnightblue" stroke="midnightblue" points="1438.75,-94.13 1437.87,-83.57 1431.98,-92.38 1438.75,-94.13"/>
</g>
<!-- Node36&#45;&gt;Node8 -->
<g id="edge47" class="edge">
<title>Node36&#45;&gt;Node8</title>
<path fill="none" stroke="midnightblue" d="M1193.85,-191.51C1146.8,-190.5 1063.32,-182.78 1005.6,-144 986.99,-131.49 973.65,-109.1 965.83,-92.8"/>
<polygon fill="midnightblue" stroke="midnightblue" points="968.98,-91.26 961.68,-83.58 962.6,-94.14 968.98,-91.26"/>
</g>
<!-- Node36&#45;&gt;Node15 -->
<g id="edge51" class="edge">
<title>Node36&#45;&gt;Node15</title>
<path fill="none" stroke="midnightblue" d="M1265.52,-188.34C1319.28,-183.61 1423.38,-171.5 1507.6,-144 1530.28,-136.6 1533.14,-128.03 1555.6,-120 1620.9,-96.67 1642.21,-100.07 1713.54,-84.18"/>
<polygon fill="midnightblue" stroke="midnightblue" points="1714.48,-87.56 1723.45,-81.92 1712.93,-80.73 1714.48,-87.56"/>
</g>
<!-- Node36&#45;&gt;Node17 -->
<g id="edge52" class="edge">
<title>Node36&#45;&gt;Node17</title>
<path fill="none" stroke="midnightblue" d="M1223.31,-180.31C1209.79,-155.81 1181.57,-95.03 1211.6,-60 1244.34,-21.81 1393.52,-14.37 1470.04,-13.11"/>
<polygon fill="midnightblue" stroke="midnightblue" points="1470.38,-16.61 1480.33,-12.97 1470.29,-9.61 1470.38,-16.61"/>
</g>
<!-- Node36&#45;&gt;Node19 -->
<g id="edge45" class="edge">
<title>Node36&#45;&gt;Node19</title>
<path fill="none" stroke="midnightblue" d="M1193.79,-185.9C1139.5,-178 1033.17,-161.82 943.6,-144 942.33,-143.75 941.04,-143.48 939.74,-143.21"/>
<polygon fill="midnightblue" stroke="midnightblue" points="940.18,-139.73 929.67,-141.03 938.7,-146.57 940.18,-139.73"/>
</g>
<!-- Node36&#45;&gt;Node29 -->
<g id="edge48" class="edge">
<title>Node36&#45;&gt;Node29</title>
<path fill="none" stroke="midnightblue" d="M1265.1,-180.5C1297.33,-170.96 1345.04,-156.84 1380.07,-146.48"/>
<polygon fill="midnightblue" stroke="midnightblue" points="1381.44,-149.72 1390.04,-143.52 1379.46,-143 1381.44,-149.72"/>
</g>
<!-- Node36&#45;&gt;Node30 -->
<g id="edge42" class="edge">
<title>Node36&#45;&gt;Node30</title>
<path fill="none" stroke="midnightblue" d="M1193.83,-188.47C1138.62,-183.75 1036.7,-171.46 1014.6,-144 996.99,-122.13 1028.29,-101.15 1056.54,-87.75"/>
<polygon fill="midnightblue" stroke="midnightblue" points="1058.26,-90.81 1065.93,-83.5 1055.37,-84.43 1058.26,-90.81"/>
</g>
<!-- Node36&#45;&gt;Node31 -->
<g id="edge44" class="edge">
<title>Node36&#45;&gt;Node31</title>
<path fill="none" stroke="midnightblue" d="M1232.28,-180.11C1237.11,-160.43 1247.38,-118.65 1253.57,-93.48"/>
<polygon fill="midnightblue" stroke="midnightblue" points="1257.03,-94.07 1256.02,-83.52 1250.23,-92.4 1257.03,-94.07"/>
</g>
<!-- Node36&#45;&gt;Node33 -->
<g id="edge43" class="edge">
<title>Node36&#45;&gt;Node33</title>
<path fill="none" stroke="midnightblue" d="M1265.19,-185.33C1289.91,-179.42 1321.4,-167.55 1338.6,-144 1349.13,-129.59 1350.02,-108.92 1348.8,-93.6"/>
<polygon fill="midnightblue" stroke="midnightblue" points="1352.26,-93.08 1347.63,-83.55 1345.31,-93.88 1352.26,-93.08"/>
</g>
<!-- Node37 -->
<g id="node37" class="node">
<title>Node37</title>
<g id="a_node37"><a xlink:title=" ">
<polygon fill="none" stroke="#bfbfbf" points="1257.6,-120.5 1257.6,-143.5 1329.6,-143.5 1329.6,-120.5 1257.6,-120.5"/>
<text text-anchor="middle" x="1293.6" y="-128.3" font-family="Helvetica,sans-Serif" font-size="14.00">sstream</text>
</a>
</g>
</g>
<!-- Node36&#45;&gt;Node37 -->
<g id="edge46" class="edge">
<title>Node36&#45;&gt;Node37</title>
<path fill="none" stroke="midnightblue" d="M1241.34,-180.36C1250.54,-172.02 1263.54,-160.24 1274.27,-150.52"/>
<polygon fill="midnightblue" stroke="midnightblue" points="1276.88,-152.88 1281.94,-143.57 1272.18,-147.69 1276.88,-152.88"/>
</g>
<!-- Node38 -->
<g id="node38" class="node">
<title>Node38</title>
<g id="a_node38"><a xlink:href="DriverDefinition_8h.html" target="_top" xlink:title="Driver implementation for Definition.">
<polygon fill="none" stroke="black" points="1023.6,-120.5 1023.6,-143.5 1163.6,-143.5 1163.6,-120.5 1023.6,-120.5"/>
<text text-anchor="middle" x="1093.6" y="-128.3" font-family="Helvetica,sans-Serif" font-size="14.00">DriverDefinition.h</text>
</a>
</g>
</g>
<!-- Node36&#45;&gt;Node38 -->
<g id="edge49" class="edge">
<title>Node36&#45;&gt;Node38</title>
<path fill="none" stroke="midnightblue" d="M1204.97,-180.5C1183.44,-171.32 1151.96,-157.89 1127.96,-147.65"/>
<polygon fill="midnightblue" stroke="midnightblue" points="1129.08,-144.32 1118.51,-143.62 1126.33,-150.76 1129.08,-144.32"/>
</g>
<!-- Node38&#45;&gt;Node30 -->
<g id="edge50" class="edge">
<title>Node38&#45;&gt;Node30</title>
<path fill="none" stroke="midnightblue" d="M1093.6,-120.36C1093.6,-112.92 1093.6,-102.74 1093.6,-93.73"/>
<polygon fill="midnightblue" stroke="midnightblue" points="1097.1,-93.57 1093.6,-83.57 1090.1,-93.57 1097.1,-93.57"/>
</g>
<!-- Node40&#45;&gt;Node11 -->
<g id="edge58" class="edge">
<title>Node40&#45;&gt;Node11</title>
<path fill="none" stroke="midnightblue" d="M2036.47,-180.34C2045.1,-170.92 2057.9,-156.74 2068.6,-144 2083.15,-126.68 2099.06,-106.36 2110.19,-91.91"/>
<polygon fill="midnightblue" stroke="midnightblue" points="2113.14,-93.81 2116.45,-83.75 2107.59,-89.55 2113.14,-93.81"/>
</g>
<!-- Node40&#45;&gt;Node13 -->
<g id="edge57" class="edge">
<title>Node40&#45;&gt;Node13</title>
<path fill="none" stroke="midnightblue" d="M2057.11,-187.45C2119.07,-179.98 2257.48,-161.83 2301.6,-144 2310.33,-140.47 2354.45,-109.51 2382.34,-89.66"/>
<polygon fill="midnightblue" stroke="midnightblue" points="2384.66,-92.31 2390.76,-83.65 2380.59,-86.61 2384.66,-92.31"/>
</g>
<!-- Node40&#45;&gt;Node15 -->
<g id="edge61" class="edge">
<title>Node40&#45;&gt;Node15</title>
<path fill="none" stroke="midnightblue" d="M2032.32,-180.46C2039.71,-165.25 2050.02,-137.09 2035.6,-120 2006.99,-86.08 1878.44,-76.64 1807.69,-74.01"/>
<polygon fill="midnightblue" stroke="midnightblue" points="1807.8,-70.51 1797.68,-73.67 1807.56,-77.51 1807.8,-70.51"/>
</g>
<!-- Node40&#45;&gt;Node39 -->
<g id="edge60" class="edge">
<title>Node40&#45;&gt;Node39</title>
<path fill="none" stroke="midnightblue" d="M1996.09,-187.32C1944.94,-180.87 1838.58,-166.27 1739.28,-143.93"/>
<polygon fill="midnightblue" stroke="midnightblue" points="1739.91,-140.48 1729.38,-141.67 1738.35,-147.31 1739.91,-140.48"/>
</g>
<!-- Node41 -->
<g id="node41" class="node">
<title>Node41</title>
<g id="a_node41"><a xlink:title=" ">
<polygon fill="none" stroke="#bfbfbf" points="1931.1,-120.5 1931.1,-143.5 2026.1,-143.5 2026.1,-120.5 1931.1,-120.5"/>
<text text-anchor="middle" x="1978.6" y="-128.3" font-family="Helvetica,sans-Serif" font-size="14.00">QTableView</text>
</a>
</g>
</g>
<!-- Node40&#45;&gt;Node41 -->
<g id="edge59" class="edge">
<title>Node40&#45;&gt;Node41</title>
<path fill="none" stroke="midnightblue" d="M2017.8,-180.36C2011.1,-172.27 2001.72,-160.93 1993.81,-151.38"/>
<polygon fill="midnightblue" stroke="midnightblue" points="1996.42,-149.04 1987.35,-143.57 1991.03,-153.51 1996.42,-149.04"/>
</g>
<!-- Node42&#45;&gt;Node4 -->
<g id="edge66" class="edge">
<title>Node42&#45;&gt;Node4</title>
<path fill="none" stroke="midnightblue" d="M1911.71,-240.3C1916.68,-225.39 1922.95,-198.16 1910.6,-180 1896,-158.53 1869.92,-146.87 1845.89,-140.53"/>
<polygon fill="midnightblue" stroke="midnightblue" points="1846.65,-137.12 1836.11,-138.21 1845.03,-143.93 1846.65,-137.12"/>
</g>
<!-- Node42&#45;&gt;Node15 -->
<g id="edge67" class="edge">
<title>Node42&#45;&gt;Node15</title>
<path fill="none" stroke="midnightblue" d="M1947.73,-240.42C1993.62,-228.13 2062.93,-208.91 2066.6,-204 2080.62,-185.24 2067.5,-133.89 2052.6,-120 2017.98,-87.7 1881.69,-77.55 1808.19,-74.39"/>
<polygon fill="midnightblue" stroke="midnightblue" points="1807.95,-70.88 1797.82,-73.98 1807.67,-77.88 1807.95,-70.88"/>
</g>
<!-- Node42&#45;&gt;Node39 -->
<g id="edge65" class="edge">
<title>Node42&#45;&gt;Node39</title>
<path fill="none" stroke="midnightblue" d="M1888.96,-240.32C1852.42,-219.39 1771.26,-172.9 1728.75,-148.55"/>
<polygon fill="midnightblue" stroke="midnightblue" points="1730.47,-145.5 1720.06,-143.57 1726.99,-151.58 1730.47,-145.5"/>
</g>
<!-- Node42&#45;&gt;Node40 -->
<g id="edge68" class="edge">
<title>Node42&#45;&gt;Node40</title>
<path fill="none" stroke="midnightblue" d="M1929.15,-240.5C1947.74,-231.44 1974.8,-218.25 1995.7,-208.06"/>
<polygon fill="midnightblue" stroke="midnightblue" points="1997.35,-211.15 2004.81,-203.62 1994.29,-204.86 1997.35,-211.15"/>
</g>
<!-- Node43 -->
<g id="node43" class="node">
<title>Node43</title>
<g id="a_node43"><a xlink:href="DriverSuperK_8h.html" target="_top" xlink:title="Driver implementation for Super K.">
<polygon fill="none" stroke="black" points="1364.1,-180.5 1364.1,-203.5 1487.1,-203.5 1487.1,-180.5 1364.1,-180.5"/>
<text text-anchor="middle" x="1425.6" y="-188.3" font-family="Helvetica,sans-Serif" font-size="14.00">DriverSuperK.h</text>
</a>
</g>
</g>
<!-- Node42&#45;&gt;Node43 -->
<g id="edge63" class="edge">
<title>Node42&#45;&gt;Node43</title>
<path fill="none" stroke="midnightblue" d="M1867.34,-246.15C1785.77,-236.34 1600.08,-213.99 1497.32,-201.63"/>
<polygon fill="midnightblue" stroke="midnightblue" points="1497.69,-198.15 1487.34,-200.43 1496.85,-205.1 1497.69,-198.15"/>
</g>
<!-- Node43&#45;&gt;Node29 -->
<g id="edge64" class="edge">
<title>Node43&#45;&gt;Node29</title>
<path fill="none" stroke="midnightblue" d="M1425.6,-180.36C1425.6,-172.92 1425.6,-162.74 1425.6,-153.73"/>
<polygon fill="midnightblue" stroke="midnightblue" points="1429.1,-153.57 1425.6,-143.57 1422.1,-153.57 1429.1,-153.57"/>
</g>
<!-- Node44&#45;&gt;Node4 -->
<g id="edge71" class="edge">
<title>Node44&#45;&gt;Node4</title>
<path fill="none" stroke="midnightblue" d="M1858.56,-180.36C1846.31,-171.7 1828.8,-159.31 1814.76,-149.38"/>
<polygon fill="midnightblue" stroke="midnightblue" points="1816.73,-146.49 1806.55,-143.57 1812.69,-152.2 1816.73,-146.49"/>
</g>
<!-- Node44&#45;&gt;Node15 -->
<g id="edge72" class="edge">
<title>Node44&#45;&gt;Node15</title>
<path fill="none" stroke="midnightblue" d="M1871.77,-180.43C1868.71,-165.43 1861.25,-137.82 1845.6,-120 1833.32,-106.02 1815.84,-95.36 1799.91,-87.75"/>
<polygon fill="midnightblue" stroke="midnightblue" points="1801.33,-84.55 1790.77,-83.63 1798.45,-90.93 1801.33,-84.55"/>
</g>
<!-- Node44&#45;&gt;Node39 -->
<g id="edge70" class="edge">
<title>Node44&#45;&gt;Node39</title>
<path fill="none" stroke="midnightblue" d="M1845.58,-181.55C1816.51,-171.75 1770.89,-156.37 1738.81,-145.55"/>
<polygon fill="midnightblue" stroke="midnightblue" points="1739.92,-142.23 1729.32,-142.35 1737.68,-148.86 1739.92,-142.23"/>
</g>
<!-- Node45&#45;&gt;Node4 -->
<g id="edge75" class="edge">
<title>Node45&#45;&gt;Node4</title>
<path fill="none" stroke="midnightblue" d="M1622.91,-180.5C1656.93,-170.92 1707.36,-156.72 1744.22,-146.34"/>
<polygon fill="midnightblue" stroke="midnightblue" points="1745.55,-149.6 1754.23,-143.52 1743.65,-142.86 1745.55,-149.6"/>
</g>
<!-- Node45&#45;&gt;Node15 -->
<g id="edge76" class="edge">
<title>Node45&#45;&gt;Node15</title>
<path fill="none" stroke="midnightblue" d="M1593.88,-180.39C1606.07,-165.34 1630.15,-137.67 1655.6,-120 1675.2,-106.4 1699.37,-95.26 1719.58,-87.24"/>
<polygon fill="midnightblue" stroke="midnightblue" points="1721.07,-90.42 1729.14,-83.56 1718.55,-83.89 1721.07,-90.42"/>
</g>
<!-- Node45&#45;&gt;Node39 -->
<g id="edge74" class="edge">
<title>Node45&#45;&gt;Node39</title>
<path fill="none" stroke="midnightblue" d="M1606.61,-180.5C1624.64,-171.48 1650.87,-158.36 1671.2,-148.2"/>
<polygon fill="midnightblue" stroke="midnightblue" points="1672.98,-151.22 1680.36,-143.62 1669.85,-144.96 1672.98,-151.22"/>
</g>
<!-- Node46&#45;&gt;Node4 -->
<g id="edge79" class="edge">
<title>Node46&#45;&gt;Node4</title>
<path fill="none" stroke="midnightblue" d="M1699.88,-180.5C1717.22,-171.52 1742.39,-158.48 1761.98,-148.34"/>
<polygon fill="midnightblue" stroke="midnightblue" points="1763.82,-151.33 1771.09,-143.62 1760.6,-145.11 1763.82,-151.33"/>
</g>
<!-- Node46&#45;&gt;Node15 -->
<g id="edge80" class="edge">
<title>Node46&#45;&gt;Node15</title>
<path fill="none" stroke="midnightblue" d="M1672.94,-180.04C1664.93,-165.3 1653.94,-138.79 1665.6,-120 1676.35,-102.69 1695.56,-91.57 1713.92,-84.51"/>
<polygon fill="midnightblue" stroke="midnightblue" points="1715.11,-87.8 1723.39,-81.18 1712.79,-81.2 1715.11,-87.8"/>
</g>
<!-- Node46&#45;&gt;Node39 -->
<g id="edge78" class="edge">
<title>Node46&#45;&gt;Node39</title>
<path fill="none" stroke="midnightblue" d="M1683.64,-180.36C1686.52,-172.76 1690.49,-162.29 1693.96,-153.13"/>
<polygon fill="midnightblue" stroke="midnightblue" points="1697.32,-154.16 1697.59,-143.57 1690.77,-151.68 1697.32,-154.16"/>
</g>
</g>
</svg>
