<?xml version="1.0" encoding="UTF-8" standalone="no"?>
<!DOCTYPE svg PUBLIC "-//W3C//DTD SVG 1.1//EN"
 "http://www.w3.org/Graphics/SVG/1.1/DTD/svg11.dtd">
<!-- Generated by graphviz version 2.50.0 (0)
 -->
<!-- Title: ACRSCom.h Pages: 1 -->
<!--zoomable 212 -->
<svg id="main" version="1.1" xmlns="http://www.w3.org/2000/svg" xmlns:xlink="http://www.w3.org/1999/xlink" xml:space="preserve" onload="init(evt)">
<style><![CDATA[
text { fill: #e6e6e6 !important; }
polygon { fill: #2f2f2f !important; stroke: #9aa0a6 !important; }
path, line, polyline { stroke: #4e67d6 !important; }
]]></style>
<style><![CDATA[
text { fill: #e6e6e6 !important; }
polygon { fill: #2f2f2f !important; stroke: #9aa0a6 !important; }
path, line, polyline { stroke: #4e67d6 !important; }
]]></style>
<style><![CDATA[
text { fill: #e6e6e6 !important; }
polygon { fill: #2f2f2f !important; stroke: #9aa0a6 !important; }
path, line, polyline { stroke: #4e67d6 !important; }
]]></style>
<style><![CDATA[
text { fill: #e6e6e6 !important; }
polygon { fill: #2f2f2f !important; stroke: #9aa0a6 !important; }
path, line, polyline { stroke: #4e67d6 !important; }
]]></style>
<style><![CDATA[
text { fill: #e6e6e6 !important; }
polygon { fill: #2f2f2f !important; stroke: #9aa0a6 !important; }
path, line, polyline { stroke: #4e67d6 !important; }
]]></style>
<style><![CDATA[
text { fill: #e6e6e6 !important; }
polygon { fill: #2f2f2f !important; stroke: #9aa0a6 !important; }
path, line, polyline { stroke: #4e67d6 !important; }
]]></style>
<style><![CDATA[
text { fill: #e6e6e6 !important; }
polygon { fill: #2f2f2f !important; stroke: #9aa0a6 !important; }
path, line, polyline { stroke: #4e67d6 !important; }
]]></style>
<style type="text/css"><![CDATA[
.edge:hover path { stroke: red; }
.edge:hover polygon { stroke: red; fill: red; }
]]></style>
<script type="text/javascript"><![CDATA[
var edges = document.getElementsByTagName('g');
if (edges && edges.length) {
  for (var i=0;i<edges.length;i++) {
    if (edges[i].id.substr(0,4)=='edge') {
      edges[i].setAttribute('class','edge');
    }
  }
}
]]></script>
        <defs>
                <circle id="rim" cx="0" cy="0" r="7"/>
                <circle id="rim2" cx="0" cy="0" r="3.5"/>
                <g id="zoomPlus">
                        <use xlink:href="#rim" fill="#404040">
                                <set attributeName="fill" to="#808080" begin="zoomplus.mouseover" end="zoomplus.mouseout"/>
                        </use>
                        <path d="M-4,0h8M0,-4v8" fill="none" stroke="white" stroke-width="1.5" pointer-events="none"/>
                </g>
                <g id="zoomMin">
                        <use xlink:href="#rim" fill="#404040">
                                <set attributeName="fill" to="#808080" begin="zoomminus.mouseover" end="zoomminus.mouseout"/>
                        </use>
                        <path d="M-4,0h8" fill="none" stroke="white" stroke-width="1.5" pointer-events="none"/>
                </g>
                <g id="dirArrow">
                        <path fill="none" stroke="white" stroke-width="1.5" d="M0,-3.0v7 M-2.5,-0.5L0,-3.0L2.5,-0.5"/>
                </g>
               <g id="resetDef">
                       <use xlink:href="#rim2" fill="#404040">
                               <set attributeName="fill" to="#808080" begin="reset.mouseover" end="reset.mouseout"/>
                       </use>
               </g>
        </defs>

<script type="text/javascript">
var viewWidth = 799;
var viewHeight = 212;
var sectionId = 'dynsection-0';
</script>
<script xlink:href="svgpan.js"/>
<svg id="graph" class="graph">
<g id="viewport">
<title>ACRSCom.h</title>
<!-- Node1 -->
<g id="node1" class="node">
<title>Node1</title>
<g id="a_node1"><a xlink:title="AC communication backend for ACRS Com.">
<polygon fill="#bfbfbf" stroke="black" points="225,-180.5 225,-203.5 324,-203.5 324,-180.5 225,-180.5"/>
<text text-anchor="middle" x="274.5" y="-188.3" font-family="Helvetica,sans-Serif" font-size="14.00">ACRSCom.h</text>
</a>
</g>
</g>
<!-- Node2 -->
<g id="node2" class="node">
<title>Node2</title>
<g id="a_node2"><a xlink:title=" ">
<polygon fill="none" stroke="#bfbfbf" points="150,-120.5 150,-143.5 215,-143.5 215,-120.5 150,-120.5"/>
<text text-anchor="middle" x="182.5" y="-128.3" font-family="Helvetica,sans-Serif" font-size="14.00">cstring</text>
</a>
</g>
</g>
<!-- Node1&#45;&gt;Node2 -->
<g id="edge1" class="edge">
<title>Node1&#45;&gt;Node2</title>
<path fill="none" stroke="midnightblue" d="M257.63,-180.36C243.75,-171.61 223.87,-159.08 208.04,-149.1"/>
<polygon fill="midnightblue" stroke="midnightblue" points="209.59,-145.94 199.27,-143.57 205.86,-151.86 209.59,-145.94"/>
</g>
<!-- Node3 -->
<g id="node3" class="node">
<title>Node3</title>
<g id="a_node3"><a xlink:title=" ">
<polygon fill="none" stroke="#bfbfbf" points="233.5,-120.5 233.5,-143.5 315.5,-143.5 315.5,-120.5 233.5,-120.5"/>
<text text-anchor="middle" x="274.5" y="-128.3" font-family="Helvetica,sans-Serif" font-size="14.00">termios.h</text>
</a>
</g>
</g>
<!-- Node1&#45;&gt;Node3 -->
<g id="edge2" class="edge">
<title>Node1&#45;&gt;Node3</title>
<path fill="none" stroke="midnightblue" d="M274.5,-180.36C274.5,-172.92 274.5,-162.74 274.5,-153.73"/>
<polygon fill="midnightblue" stroke="midnightblue" points="278,-153.57 274.5,-143.57 271,-153.57 278,-153.57"/>
</g>
<!-- Node4 -->
<g id="node4" class="node">
<title>Node4</title>
<g id="a_node4"><a xlink:href="ACCom_8h.html" target="_top" xlink:title="AC communication backend for AC Com.">
<polygon fill="none" stroke="black" points="333.5,-120.5 333.5,-143.5 413.5,-143.5 413.5,-120.5 333.5,-120.5"/>
<text text-anchor="middle" x="373.5" y="-128.3" font-family="Helvetica,sans-Serif" font-size="14.00">ACCom.h</text>
</a>
</g>
</g>
<!-- Node1&#45;&gt;Node4 -->
<g id="edge3" class="edge">
<title>Node1&#45;&gt;Node4</title>
<path fill="none" stroke="midnightblue" d="M292.66,-180.36C307.73,-171.53 329.39,-158.84 346.49,-148.82"/>
<polygon fill="midnightblue" stroke="midnightblue" points="348.6,-151.65 355.46,-143.57 345.06,-145.61 348.6,-151.65"/>
</g>
<!-- Node5 -->
<g id="node5" class="node">
<title>Node5</title>
<g id="a_node5"><a xlink:title=" ">
<polygon fill="none" stroke="#bfbfbf" points="0,-60.5 0,-83.5 57,-83.5 57,-60.5 0,-60.5"/>
<text text-anchor="middle" x="28.5" y="-68.3" font-family="Helvetica,sans-Serif" font-size="14.00">string</text>
</a>
</g>
</g>
<!-- Node4&#45;&gt;Node5 -->
<g id="edge4" class="edge">
<title>Node4&#45;&gt;Node5</title>
<path fill="none" stroke="midnightblue" d="M333.44,-121.72C330.42,-121.11 327.42,-120.53 324.5,-120 213.28,-99.82 180.84,-108.14 66.88,-84.07"/>
<polygon fill="midnightblue" stroke="midnightblue" points="67.58,-80.64 57.07,-81.96 66.11,-87.48 67.58,-80.64"/>
</g>
<!-- Node6 -->
<g id="node6" class="node">
<title>Node6</title>
<g id="a_node6"><a xlink:title=" ">
<polygon fill="none" stroke="#bfbfbf" points="75,-60.5 75,-83.5 152,-83.5 152,-60.5 75,-60.5"/>
<text text-anchor="middle" x="113.5" y="-68.3" font-family="Helvetica,sans-Serif" font-size="14.00">iostream</text>
</a>
</g>
</g>
<!-- Node4&#45;&gt;Node6 -->
<g id="edge5" class="edge">
<title>Node4&#45;&gt;Node6</title>
<path fill="none" stroke="midnightblue" d="M333.39,-121.98C330.38,-121.31 327.39,-120.64 324.5,-120 255.05,-104.54 235.47,-100.6 161.77,-84.05"/>
<polygon fill="midnightblue" stroke="midnightblue" points="162.53,-80.63 152.01,-81.85 160.99,-87.46 162.53,-80.63"/>
</g>
<!-- Node7 -->
<g id="node7" class="node">
<title>Node7</title>
<g id="a_node7"><a xlink:title=" ">
<polygon fill="none" stroke="#bfbfbf" points="170.5,-60.5 170.5,-83.5 240.5,-83.5 240.5,-60.5 170.5,-60.5"/>
<text text-anchor="middle" x="205.5" y="-68.3" font-family="Helvetica,sans-Serif" font-size="14.00">fstream</text>
</a>
</g>
</g>
<!-- Node4&#45;&gt;Node7 -->
<g id="edge6" class="edge">
<title>Node4&#45;&gt;Node7</title>
<path fill="none" stroke="midnightblue" d="M343.08,-120.5C315.81,-111.08 275.61,-97.2 245.7,-86.88"/>
<polygon fill="midnightblue" stroke="midnightblue" points="246.58,-83.48 235.98,-83.52 244.29,-90.09 246.58,-83.48"/>
</g>
<!-- Node8 -->
<g id="node8" class="node">
<title>Node8</title>
<g id="a_node8"><a xlink:title=" ">
<polygon fill="none" stroke="#bfbfbf" points="258.5,-60.5 258.5,-83.5 318.5,-83.5 318.5,-60.5 258.5,-60.5"/>
<text text-anchor="middle" x="288.5" y="-68.3" font-family="Helvetica,sans-Serif" font-size="14.00">vector</text>
</a>
</g>
</g>
<!-- Node4&#45;&gt;Node8 -->
<g id="edge7" class="edge">
<title>Node4&#45;&gt;Node8</title>
<path fill="none" stroke="midnightblue" d="M357.91,-120.36C345.21,-111.7 327.06,-99.31 312.51,-89.38"/>
<polygon fill="midnightblue" stroke="midnightblue" points="314.22,-86.32 303.99,-83.57 310.28,-92.1 314.22,-86.32"/>
</g>
<!-- Node9 -->
<g id="node9" class="node">
<title>Node9</title>
<g id="a_node9"><a xlink:title=" ">
<polygon fill="none" stroke="#bfbfbf" points="336.5,-60.5 336.5,-83.5 410.5,-83.5 410.5,-60.5 336.5,-60.5"/>
<text text-anchor="middle" x="373.5" y="-68.3" font-family="Helvetica,sans-Serif" font-size="14.00">stdarg.h</text>
</a>
</g>
</g>
<!-- Node4&#45;&gt;Node9 -->
<g id="edge8" class="edge">
<title>Node4&#45;&gt;Node9</title>
<path fill="none" stroke="midnightblue" d="M373.5,-120.36C373.5,-112.92 373.5,-102.74 373.5,-93.73"/>
<polygon fill="midnightblue" stroke="midnightblue" points="377,-93.57 373.5,-83.57 370,-93.57 377,-93.57"/>
</g>
<!-- Node10 -->
<g id="node10" class="node">
<title>Node10</title>
<g id="a_node10"><a xlink:href="PosixCompat_8h.html" target="_top" xlink:title=" ">
<polygon fill="none" stroke="black" points="428.5,-60.5 428.5,-83.5 548.5,-83.5 548.5,-60.5 428.5,-60.5"/>
<text text-anchor="middle" x="488.5" y="-68.3" font-family="Helvetica,sans-Serif" font-size="14.00">PosixCompat.h</text>
</a>
</g>
</g>
<!-- Node4&#45;&gt;Node10 -->
<g id="edge9" class="edge">
<title>Node4&#45;&gt;Node10</title>
<path fill="none" stroke="midnightblue" d="M394.33,-120.5C412.21,-111.48 438.21,-98.36 458.36,-88.2"/>
<polygon fill="midnightblue" stroke="midnightblue" points="460.09,-91.25 467.44,-83.62 456.94,-85 460.09,-91.25"/>
</g>
<!-- Node13 -->
<g id="node13" class="node">
<title>Node13</title>
<g id="a_node13"><a xlink:href="QsLog_8h.html" target="_top" xlink:title="Qs Log logging support.">
<polygon fill="none" stroke="black" points="566.5,-60.5 566.5,-83.5 640.5,-83.5 640.5,-60.5 566.5,-60.5"/>
<text text-anchor="middle" x="603.5" y="-68.3" font-family="Helvetica,sans-Serif" font-size="14.00">QsLog.h</text>
</a>
</g>
</g>
<!-- Node4&#45;&gt;Node13 -->
<g id="edge12" class="edge">
<title>Node4&#45;&gt;Node13</title>
<path fill="none" stroke="midnightblue" d="M413.56,-120.9C453.36,-110.86 514.36,-95.48 556.44,-84.87"/>
<polygon fill="midnightblue" stroke="midnightblue" points="557.34,-88.25 566.18,-82.41 555.63,-81.46 557.34,-88.25"/>
</g>
<!-- Node15 -->
<g id="node15" class="node">
<title>Node15</title>
<g id="a_node15"><a xlink:title=" ">
<polygon fill="none" stroke="#bfbfbf" points="635.5,-0.5 635.5,-23.5 705.5,-23.5 705.5,-0.5 635.5,-0.5"/>
<text text-anchor="middle" x="670.5" y="-8.3" font-family="Helvetica,sans-Serif" font-size="14.00">QString</text>
</a>
</g>
</g>
<!-- Node4&#45;&gt;Node15 -->
<g id="edge15" class="edge">
<title>Node4&#45;&gt;Node15</title>
<path fill="none" stroke="midnightblue" d="M413.53,-129.28C481.44,-125.55 615.19,-114.45 649.5,-84 663.64,-71.45 668.46,-49.89 670.01,-33.81"/>
<polygon fill="midnightblue" stroke="midnightblue" points="673.51,-33.93 670.63,-23.73 666.52,-33.5 673.51,-33.93"/>
</g>
<!-- Node16 -->
<g id="node16" class="node">
<title>Node16</title>
<g id="a_node16"><a xlink:title=" ">
<polygon fill="none" stroke="#bfbfbf" points="696.5,-60.5 696.5,-83.5 790.5,-83.5 790.5,-60.5 696.5,-60.5"/>
<text text-anchor="middle" x="743.5" y="-68.3" font-family="Helvetica,sans-Serif" font-size="14.00">QStringList</text>
</a>
</g>
</g>
<!-- Node4&#45;&gt;Node16 -->
<g id="edge16" class="edge">
<title>Node4&#45;&gt;Node16</title>
<path fill="none" stroke="midnightblue" d="M413.56,-125.27C472.53,-116.74 586.15,-100.01 682.5,-84 683.75,-83.79 685.02,-83.58 686.3,-83.36"/>
<polygon fill="midnightblue" stroke="midnightblue" points="686.97,-86.8 696.23,-81.66 685.79,-79.9 686.97,-86.8"/>
</g>
<!-- Node11 -->
<g id="node11" class="node">
<title>Node11</title>
<g id="a_node11"><a xlink:title=" ">
<polygon fill="none" stroke="#bfbfbf" points="356,-0.5 356,-23.5 433,-23.5 433,-0.5 356,-0.5"/>
<text text-anchor="middle" x="394.5" y="-8.3" font-family="Helvetica,sans-Serif" font-size="14.00">QtGlobal</text>
</a>
</g>
</g>
<!-- Node10&#45;&gt;Node11 -->
<g id="edge10" class="edge">
<title>Node10&#45;&gt;Node11</title>
<path fill="none" stroke="midnightblue" d="M471.26,-60.36C456.95,-51.53 436.39,-38.84 420.14,-28.82"/>
<polygon fill="midnightblue" stroke="midnightblue" points="421.98,-25.84 411.63,-23.57 418.3,-31.8 421.98,-25.84"/>
</g>
<!-- Node12 -->
<g id="node12" class="node">
<title>Node12</title>
<g id="a_node12"><a xlink:title=" ">
<polygon fill="none" stroke="#bfbfbf" points="451.5,-0.5 451.5,-23.5 525.5,-23.5 525.5,-0.5 451.5,-0.5"/>
<text text-anchor="middle" x="488.5" y="-8.3" font-family="Helvetica,sans-Serif" font-size="14.00">unistd.h</text>
</a>
</g>
</g>
<!-- Node10&#45;&gt;Node12 -->
<g id="edge11" class="edge">
<title>Node10&#45;&gt;Node12</title>
<path fill="none" stroke="midnightblue" d="M488.5,-60.36C488.5,-52.92 488.5,-42.74 488.5,-33.73"/>
<polygon fill="midnightblue" stroke="midnightblue" points="492,-33.57 488.5,-23.57 485,-33.57 492,-33.57"/>
</g>
<!-- Node14 -->
<g id="node14" class="node">
<title>Node14</title>
<g id="a_node14"><a xlink:title=" ">
<polygon fill="none" stroke="#bfbfbf" points="543.5,-0.5 543.5,-23.5 617.5,-23.5 617.5,-0.5 543.5,-0.5"/>
<text text-anchor="middle" x="580.5" y="-8.3" font-family="Helvetica,sans-Serif" font-size="14.00">QDebug</text>
</a>
</g>
</g>
<!-- Node13&#45;&gt;Node14 -->
<g id="edge13" class="edge">
<title>Node13&#45;&gt;Node14</title>
<path fill="none" stroke="midnightblue" d="M599.28,-60.36C596.27,-52.76 592.12,-42.29 588.48,-33.13"/>
<polygon fill="midnightblue" stroke="midnightblue" points="591.63,-31.58 584.69,-23.57 585.12,-34.16 591.63,-31.58"/>
</g>
<!-- Node13&#45;&gt;Node15 -->
<g id="edge14" class="edge">
<title>Node13&#45;&gt;Node15</title>
<path fill="none" stroke="midnightblue" d="M615.79,-60.36C625.52,-51.94 639.3,-40.01 650.6,-30.23"/>
<polygon fill="midnightblue" stroke="midnightblue" points="653.02,-32.76 658.29,-23.57 648.44,-27.47 653.02,-32.76"/>
</g>
</g>
</svg>
        <g id="navigator" transform="translate(0 0)" fill="#404254">
                <rect fill="#f2f5e9" fill-opacity="0.5" stroke="#606060" stroke-width=".5" x="0" y="0" width="60" height="60"/>
                <use id="zoomplus" xlink:href="#zoomPlus" x="17" y="9" onmousedown="handleZoom(evt,'in')"/>
                <use id="zoomminus" xlink:href="#zoomMin" x="42" y="9" onmousedown="handleZoom(evt,'out')"/>
                <use id="reset" xlink:href="#resetDef" x="30" y="36" onmousedown="handleReset()"/>
                <g id="arrowUp" xlink:href="#dirArrow" transform="translate(30 24)" onmousedown="handlePan(0,-1)">
                  <use xlink:href="#rim" fill="#404040">
                        <set attributeName="fill" to="#808080" begin="arrowUp.mouseover" end="arrowUp.mouseout"/>
                  </use>
                  <path fill="none" stroke="white" stroke-width="1.5" d="M0,-3.0v7 M-2.5,-0.5L0,-3.0L2.5,-0.5"/>
                </g>
                <g id="arrowRight" xlink:href="#dirArrow" transform="rotate(90) translate(36 -43)" onmousedown="handlePan(1,0)">
                  <use xlink:href="#rim" fill="#404040">
                        <set attributeName="fill" to="#808080" begin="arrowRight.mouseover" end="arrowRight.mouseout"/>
                  </use>
                  <path fill="none" stroke="white" stroke-width="1.5" d="M0,-3.0v7 M-2.5,-0.5L0,-3.0L2.5,-0.5"/>
                </g>
                <g id="arrowDown" xlink:href="#dirArrow" transform="rotate(180) translate(-30 -48)" onmousedown="handlePan(0,1)">
                  <use xlink:href="#rim" fill="#404040">
                        <set attributeName="fill" to="#808080" begin="arrowDown.mouseover" end="arrowDown.mouseout"/>
                  </use>
                  <path fill="none" stroke="white" stroke-width="1.5" d="M0,-3.0v7 M-2.5,-0.5L0,-3.0L2.5,-0.5"/>
                </g>
                <g id="arrowLeft" xlink:href="#dirArrow" transform="rotate(270) translate(-36 17)" onmousedown="handlePan(-1,0)">
                  <use xlink:href="#rim" fill="#404040">
                        <set attributeName="fill" to="#808080" begin="arrowLeft.mouseover" end="arrowLeft.mouseout"/>
                  </use>
                  <path fill="none" stroke="white" stroke-width="1.5" d="M0,-3.0v7 M-2.5,-0.5L0,-3.0L2.5,-0.5"/>
                </g>
        </g>
        <svg viewBox="0 0 15 15" width="100%" height="30px" preserveAspectRatio="xMaxYMin meet">
         <g id="arrow_out" transform="scale(0.3 0.3)">
          <a xlink:href="ACRSCom_8h__incl_org.svg" target="_base">
           <rect id="button" ry="5" rx="5" y="6" x="6" height="38" width="38"
                fill="#f2f5e9" fill-opacity="0.5" stroke="#606060" stroke-width="1.0"/>
           <path id="arrow"
             d="M 11.500037,31.436501 C 11.940474,20.09759 22.043105,11.32322 32.158766,21.979434 L 37.068811,17.246167 C 37.068811,17.246167 37.088388,32 37.088388,32 L 22.160133,31.978069 C 22.160133,31.978069 26.997745,27.140456 26.997745,27.140456 C 18.528582,18.264221 13.291696,25.230495 11.500037,31.436501 z"
             style="fill:#404040;"/>
          </a>
         </g>
        </svg>
</svg>
