<?xml version="1.0" encoding="UTF-8" standalone="no"?>
<!DOCTYPE svg PUBLIC "-//W3C//DTD SVG 1.1//EN"
 "http://www.w3.org/Graphics/SVG/1.1/DTD/svg11.dtd">
<!-- Generated by graphviz version 2.50.0 (0)
 -->
<!-- Title: ACRSCom.cpp Pages: 1 -->
<!--zoomable 272 -->
<svg id="main" version="1.1" xmlns="http://www.w3.org/2000/svg" xmlns:xlink="http://www.w3.org/1999/xlink" xml:space="preserve" onload="init(evt)">
<style><![CDATA[
text { fill: #e6e6e6 !important; }
polygon { fill: #2f2f2f !important; stroke: #9aa0a6 !important; }
path, line, polyline { stroke: #4e67d6 !important; }
]]></style>
<style><![CDATA[
text { fill: #e6e6e6 !important; }
polygon { fill: #2f2f2f !important; stroke: #9aa0a6 !important; }
path, line, polyline { stroke: #4e67d6 !important; }
]]></style>
<style><![CDATA[
text { fill: #e6e6e6 !important; }
polygon { fill: #2f2f2f !important; stroke: #9aa0a6 !important; }
path, line, polyline { stroke: #4e67d6 !important; }
]]></style>
<style><![CDATA[
text { fill: #e6e6e6 !important; }
polygon { fill: #2f2f2f !important; stroke: #9aa0a6 !important; }
path, line, polyline { stroke: #4e67d6 !important; }
]]></style>
<style><![CDATA[
text { fill: #e6e6e6 !important; }
polygon { fill: #2f2f2f !important; stroke: #9aa0a6 !important; }
path, line, polyline { stroke: #4e67d6 !important; }
]]></style>
<style><![CDATA[
text { fill: #e6e6e6 !important; }
polygon { fill: #2f2f2f !important; stroke: #9aa0a6 !important; }
path, line, polyline { stroke: #4e67d6 !important; }
]]></style>
<style><![CDATA[
text { fill: #e6e6e6 !important; }
polygon { fill: #2f2f2f !important; stroke: #9aa0a6 !important; }
path, line, polyline { stroke: #4e67d6 !important; }
]]></style>
<style type="text/css"><![CDATA[
.edge:hover path { stroke: red; }
.edge:hover polygon { stroke: red; fill: red; }
]]></style>
<script type="text/javascript"><![CDATA[
var edges = document.getElementsByTagName('g');
if (edges && edges.length) {
  for (var i=0;i<edges.length;i++) {
    if (edges[i].id.substr(0,4)=='edge') {
      edges[i].setAttribute('class','edge');
    }
  }
}
]]></script>
        <defs>
                <circle id="rim" cx="0" cy="0" r="7"/>
                <circle id="rim2" cx="0" cy="0" r="3.5"/>
                <g id="zoomPlus">
                        <use xlink:href="#rim" fill="#404040">
                                <set attributeName="fill" to="#808080" begin="zoomplus.mouseover" end="zoomplus.mouseout"/>
                        </use>
                        <path d="M-4,0h8M0,-4v8" fill="none" stroke="white" stroke-width="1.5" pointer-events="none"/>
                </g>
                <g id="zoomMin">
                        <use xlink:href="#rim" fill="#404040">
                                <set attributeName="fill" to="#808080" begin="zoomminus.mouseover" end="zoomminus.mouseout"/>
                        </use>
                        <path d="M-4,0h8" fill="none" stroke="white" stroke-width="1.5" pointer-events="none"/>
                </g>
                <g id="dirArrow">
                        <path fill="none" stroke="white" stroke-width="1.5" d="M0,-3.0v7 M-2.5,-0.5L0,-3.0L2.5,-0.5"/>
                </g>
               <g id="resetDef">
                       <use xlink:href="#rim2" fill="#404040">
                               <set attributeName="fill" to="#808080" begin="reset.mouseover" end="reset.mouseout"/>
                       </use>
               </g>
        </defs>

<script type="text/javascript">
var viewWidth = 1135;
var viewHeight = 272;
var sectionId = 'dynsection-0';
</script>
<script xlink:href="svgpan.js"/>
<svg id="graph" class="graph">
<g id="viewport">
<title>ACRSCom.cpp</title>
<!-- Node1 -->
<g id="node1" class="node">
<title>Node1</title>
<g id="a_node1"><a xlink:title=" ">
<polygon fill="#bfbfbf" stroke="black" points="350,-240.5 350,-263.5 466,-263.5 466,-240.5 350,-240.5"/>
<text text-anchor="middle" x="408" y="-248.3" font-family="Helvetica,sans-Serif" font-size="14.00">ACRSCom.cpp</text>
</a>
</g>
</g>
<!-- Node2 -->
<g id="node2" class="node">
<title>Node2</title>
<g id="a_node2"><a xlink:title=" ">
<polygon fill="none" stroke="#bfbfbf" points="0,-180.5 0,-203.5 72,-203.5 72,-180.5 0,-180.5"/>
<text text-anchor="middle" x="36" y="-188.3" font-family="Helvetica,sans-Serif" font-size="14.00">sstream</text>
</a>
</g>
</g>
<!-- Node1&#45;&gt;Node2 -->
<g id="edge1" class="edge">
<title>Node1&#45;&gt;Node2</title>
<path fill="none" stroke="midnightblue" d="M349.92,-243.8C285.28,-235.48 177.84,-220.78 86,-204 84.75,-203.77 83.48,-203.53 82.19,-203.29"/>
<polygon fill="midnightblue" stroke="midnightblue" points="82.75,-199.83 72.26,-201.3 81.38,-206.69 82.75,-199.83"/>
</g>
<!-- Node3 -->
<g id="node3" class="node">
<title>Node3</title>
<g id="a_node3"><a xlink:title=" ">
<polygon fill="none" stroke="#bfbfbf" points="290.5,-120.5 290.5,-143.5 355.5,-143.5 355.5,-120.5 290.5,-120.5"/>
<text text-anchor="middle" x="323" y="-128.3" font-family="Helvetica,sans-Serif" font-size="14.00">cstring</text>
</a>
</g>
</g>
<!-- Node1&#45;&gt;Node3 -->
<g id="edge2" class="edge">
<title>Node1&#45;&gt;Node3</title>
<path fill="none" stroke="midnightblue" d="M349.78,-250.09C274.07,-247.54 148.02,-238.12 119,-204 72.8,-149.68 207.78,-136.88 280.28,-133.89"/>
<polygon fill="midnightblue" stroke="midnightblue" points="280.63,-137.38 290.49,-133.52 280.37,-130.39 280.63,-137.38"/>
</g>
<!-- Node4 -->
<g id="node4" class="node">
<title>Node4</title>
<g id="a_node4"><a xlink:title=" ">
<polygon fill="none" stroke="#bfbfbf" points="128,-180.5 128,-203.5 186,-203.5 186,-180.5 128,-180.5"/>
<text text-anchor="middle" x="157" y="-188.3" font-family="Helvetica,sans-Serif" font-size="14.00">cstdio</text>
</a>
</g>
</g>
<!-- Node1&#45;&gt;Node4 -->
<g id="edge3" class="edge">
<title>Node1&#45;&gt;Node4</title>
<path fill="none" stroke="midnightblue" d="M355.69,-240.44C314.72,-231.95 256.08,-219.3 196.38,-204.25"/>
<polygon fill="midnightblue" stroke="midnightblue" points="196.96,-200.79 186.41,-201.72 195.24,-207.57 196.96,-200.79"/>
</g>
<!-- Node5 -->
<g id="node5" class="node">
<title>Node5</title>
<g id="a_node5"><a xlink:title=" ">
<polygon fill="none" stroke="#bfbfbf" points="204.5,-180.5 204.5,-203.5 287.5,-203.5 287.5,-180.5 204.5,-180.5"/>
<text text-anchor="middle" x="246" y="-188.3" font-family="Helvetica,sans-Serif" font-size="14.00">algorithm</text>
</a>
</g>
</g>
<!-- Node1&#45;&gt;Node5 -->
<g id="edge4" class="edge">
<title>Node1&#45;&gt;Node5</title>
<path fill="none" stroke="midnightblue" d="M378.66,-240.5C352.48,-231.12 313.94,-217.32 285.14,-207.01"/>
<polygon fill="midnightblue" stroke="midnightblue" points="285.99,-203.6 275.39,-203.52 283.63,-210.19 285.99,-203.6"/>
</g>
<!-- Node6 -->
<g id="node6" class="node">
<title>Node6</title>
<g id="a_node6"><a xlink:title=" ">
<polygon fill="none" stroke="#bfbfbf" points="306,-180.5 306,-203.5 402,-203.5 402,-180.5 306,-180.5"/>
<text text-anchor="middle" x="354" y="-188.3" font-family="Helvetica,sans-Serif" font-size="14.00">sys/types.h</text>
</a>
</g>
</g>
<!-- Node1&#45;&gt;Node6 -->
<g id="edge5" class="edge">
<title>Node1&#45;&gt;Node6</title>
<path fill="none" stroke="midnightblue" d="M398.1,-240.36C390.48,-232.19 379.79,-220.7 370.84,-211.09"/>
<polygon fill="midnightblue" stroke="midnightblue" points="373.22,-208.5 363.84,-203.57 368.09,-213.27 373.22,-208.5"/>
</g>
<!-- Node7 -->
<g id="node7" class="node">
<title>Node7</title>
<g id="a_node7"><a xlink:title=" ">
<polygon fill="none" stroke="#bfbfbf" points="420,-180.5 420,-203.5 504,-203.5 504,-180.5 420,-180.5"/>
<text text-anchor="middle" x="462" y="-188.3" font-family="Helvetica,sans-Serif" font-size="14.00">sys/stat.h</text>
</a>
</g>
</g>
<!-- Node1&#45;&gt;Node7 -->
<g id="edge6" class="edge">
<title>Node1&#45;&gt;Node7</title>
<path fill="none" stroke="midnightblue" d="M417.9,-240.36C425.52,-232.19 436.21,-220.7 445.16,-211.09"/>
<polygon fill="midnightblue" stroke="midnightblue" points="447.91,-213.27 452.16,-203.57 442.78,-208.5 447.91,-213.27"/>
</g>
<!-- Node8 -->
<g id="node8" class="node">
<title>Node8</title>
<g id="a_node8"><a xlink:title=" ">
<polygon fill="none" stroke="#bfbfbf" points="522.5,-180.5 522.5,-203.5 583.5,-203.5 583.5,-180.5 522.5,-180.5"/>
<text text-anchor="middle" x="553" y="-188.3" font-family="Helvetica,sans-Serif" font-size="14.00">fcntl.h</text>
</a>
</g>
</g>
<!-- Node1&#45;&gt;Node8 -->
<g id="edge7" class="edge">
<title>Node1&#45;&gt;Node8</title>
<path fill="none" stroke="midnightblue" d="M434.26,-240.5C457.42,-231.23 491.38,-217.65 517.05,-207.38"/>
<polygon fill="midnightblue" stroke="midnightblue" points="518.46,-210.58 526.45,-203.62 515.86,-204.09 518.46,-210.58"/>
</g>
<!-- Node9 -->
<g id="node9" class="node">
<title>Node9</title>
<g id="a_node9"><a xlink:title=" ">
<polygon fill="none" stroke="#bfbfbf" points="602,-180.5 602,-203.5 668,-203.5 668,-180.5 602,-180.5"/>
<text text-anchor="middle" x="635" y="-188.3" font-family="Helvetica,sans-Serif" font-size="14.00">errno.h</text>
</a>
</g>
</g>
<!-- Node1&#45;&gt;Node9 -->
<g id="edge8" class="edge">
<title>Node1&#45;&gt;Node9</title>
<path fill="none" stroke="midnightblue" d="M449.29,-240.46C484.47,-231.47 536.64,-218.15 591.72,-204.07"/>
<polygon fill="midnightblue" stroke="midnightblue" points="592.84,-207.4 601.67,-201.53 591.11,-200.61 592.84,-207.4"/>
</g>
<!-- Node10 -->
<g id="node10" class="node">
<title>Node10</title>
<g id="a_node10"><a xlink:href="ACRSCom_8h.html" target="_top" xlink:title="AC communication backend for ACRS Com.">
<polygon fill="none" stroke="black" points="686.5,-180.5 686.5,-203.5 785.5,-203.5 785.5,-180.5 686.5,-180.5"/>
<text text-anchor="middle" x="736" y="-188.3" font-family="Helvetica,sans-Serif" font-size="14.00">ACRSCom.h</text>
</a>
</g>
</g>
<!-- Node1&#45;&gt;Node10 -->
<g id="edge9" class="edge">
<title>Node1&#45;&gt;Node10</title>
<path fill="none" stroke="midnightblue" d="M466.02,-241.06C518.28,-232.06 597.51,-218.31 676.32,-204.11"/>
<polygon fill="midnightblue" stroke="midnightblue" points="677.21,-207.5 686.43,-202.28 675.97,-200.61 677.21,-207.5"/>
</g>
<!-- Node18 -->
<g id="node18" class="node">
<title>Node18</title>
<g id="a_node18"><a xlink:href="PosixCompat_8h.html" target="_top" xlink:title=" ">
<polygon fill="none" stroke="black" points="983,-60.5 983,-83.5 1103,-83.5 1103,-60.5 983,-60.5"/>
<text text-anchor="middle" x="1043" y="-68.3" font-family="Helvetica,sans-Serif" font-size="14.00">PosixCompat.h</text>
</a>
</g>
</g>
<!-- Node1&#45;&gt;Node18 -->
<g id="edge26" class="edge">
<title>Node1&#45;&gt;Node18</title>
<path fill="none" stroke="midnightblue" d="M466.1,-250.48C543.02,-248.33 682.13,-239.34 795,-204 883.1,-176.42 976.73,-117.84 1019.38,-89.31"/>
<polygon fill="midnightblue" stroke="midnightblue" points="1021.59,-92.03 1027.92,-83.53 1017.67,-86.23 1021.59,-92.03"/>
</g>
<!-- Node10&#45;&gt;Node3 -->
<g id="edge10" class="edge">
<title>Node10&#45;&gt;Node3</title>
<path fill="none" stroke="midnightblue" d="M686.46,-181.57C683.26,-181.02 680.09,-180.49 677,-180 565.13,-162.16 432.61,-145.84 365.91,-137.96"/>
<polygon fill="midnightblue" stroke="midnightblue" points="366.12,-134.46 355.78,-136.77 365.31,-141.42 366.12,-134.46"/>
</g>
<!-- Node11 -->
<g id="node11" class="node">
<title>Node11</title>
<g id="a_node11"><a xlink:title=" ">
<polygon fill="none" stroke="#bfbfbf" points="596,-120.5 596,-143.5 678,-143.5 678,-120.5 596,-120.5"/>
<text text-anchor="middle" x="637" y="-128.3" font-family="Helvetica,sans-Serif" font-size="14.00">termios.h</text>
</a>
</g>
</g>
<!-- Node10&#45;&gt;Node11 -->
<g id="edge11" class="edge">
<title>Node10&#45;&gt;Node11</title>
<path fill="none" stroke="midnightblue" d="M717.84,-180.36C702.77,-171.53 681.11,-158.84 664.01,-148.82"/>
<polygon fill="midnightblue" stroke="midnightblue" points="665.44,-145.61 655.04,-143.57 661.9,-151.65 665.44,-145.61"/>
</g>
<!-- Node12 -->
<g id="node12" class="node">
<title>Node12</title>
<g id="a_node12"><a xlink:href="ACCom_8h.html" target="_top" xlink:title="AC communication backend for AC Com.">
<polygon fill="none" stroke="black" points="696,-120.5 696,-143.5 776,-143.5 776,-120.5 696,-120.5"/>
<text text-anchor="middle" x="736" y="-128.3" font-family="Helvetica,sans-Serif" font-size="14.00">ACCom.h</text>
</a>
</g>
</g>
<!-- Node10&#45;&gt;Node12 -->
<g id="edge12" class="edge">
<title>Node10&#45;&gt;Node12</title>
<path fill="none" stroke="midnightblue" d="M736,-180.36C736,-172.92 736,-162.74 736,-153.73"/>
<polygon fill="midnightblue" stroke="midnightblue" points="739.5,-153.57 736,-143.57 732.5,-153.57 739.5,-153.57"/>
</g>
<!-- Node13 -->
<g id="node13" class="node">
<title>Node13</title>
<g id="a_node13"><a xlink:title=" ">
<polygon fill="none" stroke="#bfbfbf" points="665.5,-60.5 665.5,-83.5 722.5,-83.5 722.5,-60.5 665.5,-60.5"/>
<text text-anchor="middle" x="694" y="-68.3" font-family="Helvetica,sans-Serif" font-size="14.00">string</text>
</a>
</g>
</g>
<!-- Node12&#45;&gt;Node13 -->
<g id="edge13" class="edge">
<title>Node12&#45;&gt;Node13</title>
<path fill="none" stroke="midnightblue" d="M728.3,-120.36C722.55,-112.43 714.56,-101.39 707.73,-91.96"/>
<polygon fill="midnightblue" stroke="midnightblue" points="710.35,-89.62 701.65,-83.57 704.68,-93.72 710.35,-89.62"/>
</g>
<!-- Node14 -->
<g id="node14" class="node">
<title>Node14</title>
<g id="a_node14"><a xlink:title=" ">
<polygon fill="none" stroke="#bfbfbf" points="311.5,-60.5 311.5,-83.5 388.5,-83.5 388.5,-60.5 311.5,-60.5"/>
<text text-anchor="middle" x="350" y="-68.3" font-family="Helvetica,sans-Serif" font-size="14.00">iostream</text>
</a>
</g>
</g>
<!-- Node12&#45;&gt;Node14 -->
<g id="edge14" class="edge">
<title>Node12&#45;&gt;Node14</title>
<path fill="none" stroke="midnightblue" d="M695.95,-121.68C692.93,-121.08 689.92,-120.51 687,-120 562.72,-98.36 527.26,-106.06 398.93,-84.01"/>
<polygon fill="midnightblue" stroke="midnightblue" points="399.16,-80.5 388.7,-82.22 397.95,-87.39 399.16,-80.5"/>
</g>
<!-- Node15 -->
<g id="node15" class="node">
<title>Node15</title>
<g id="a_node15"><a xlink:title=" ">
<polygon fill="none" stroke="#bfbfbf" points="407,-60.5 407,-83.5 477,-83.5 477,-60.5 407,-60.5"/>
<text text-anchor="middle" x="442" y="-68.3" font-family="Helvetica,sans-Serif" font-size="14.00">fstream</text>
</a>
</g>
</g>
<!-- Node12&#45;&gt;Node15 -->
<g id="edge15" class="edge">
<title>Node12&#45;&gt;Node15</title>
<path fill="none" stroke="midnightblue" d="M695.92,-121.85C692.9,-121.21 689.91,-120.59 687,-120 601.16,-102.69 576.46,-102.97 487.05,-84.12"/>
<polygon fill="midnightblue" stroke="midnightblue" points="487.52,-80.64 477.01,-81.98 486.07,-87.49 487.52,-80.64"/>
</g>
<!-- Node16 -->
<g id="node16" class="node">
<title>Node16</title>
<g id="a_node16"><a xlink:title=" ">
<polygon fill="none" stroke="#bfbfbf" points="495,-60.5 495,-83.5 555,-83.5 555,-60.5 495,-60.5"/>
<text text-anchor="middle" x="525" y="-68.3" font-family="Helvetica,sans-Serif" font-size="14.00">vector</text>
</a>
</g>
</g>
<!-- Node12&#45;&gt;Node16 -->
<g id="edge16" class="edge">
<title>Node12&#45;&gt;Node16</title>
<path fill="none" stroke="midnightblue" d="M697.04,-120.45C664.27,-111.56 615.93,-98.39 565.09,-84.29"/>
<polygon fill="midnightblue" stroke="midnightblue" points="565.8,-80.85 555.23,-81.55 563.93,-87.6 565.8,-80.85"/>
</g>
<!-- Node17 -->
<g id="node17" class="node">
<title>Node17</title>
<g id="a_node17"><a xlink:title=" ">
<polygon fill="none" stroke="#bfbfbf" points="573,-60.5 573,-83.5 647,-83.5 647,-60.5 573,-60.5"/>
<text text-anchor="middle" x="610" y="-68.3" font-family="Helvetica,sans-Serif" font-size="14.00">stdarg.h</text>
</a>
</g>
</g>
<!-- Node12&#45;&gt;Node17 -->
<g id="edge17" class="edge">
<title>Node12&#45;&gt;Node17</title>
<path fill="none" stroke="midnightblue" d="M713.18,-120.5C693.41,-111.4 664.59,-98.13 642.42,-87.93"/>
<polygon fill="midnightblue" stroke="midnightblue" points="643.62,-84.62 633.07,-83.62 640.69,-90.98 643.62,-84.62"/>
</g>
<!-- Node12&#45;&gt;Node18 -->
<g id="edge18" class="edge">
<title>Node12&#45;&gt;Node18</title>
<path fill="none" stroke="midnightblue" d="M776.13,-123.42C827.25,-113.76 916.26,-96.94 977.32,-85.41"/>
<polygon fill="midnightblue" stroke="midnightblue" points="978.07,-88.83 987.25,-83.53 976.77,-81.95 978.07,-88.83"/>
</g>
<!-- Node21 -->
<g id="node21" class="node">
<title>Node21</title>
<g id="a_node21"><a xlink:href="QsLog_8h.html" target="_top" xlink:title="Qs Log logging support.">
<polygon fill="none" stroke="black" points="741,-60.5 741,-83.5 815,-83.5 815,-60.5 741,-60.5"/>
<text text-anchor="middle" x="778" y="-68.3" font-family="Helvetica,sans-Serif" font-size="14.00">QsLog.h</text>
</a>
</g>
</g>
<!-- Node12&#45;&gt;Node21 -->
<g id="edge21" class="edge">
<title>Node12&#45;&gt;Node21</title>
<path fill="none" stroke="midnightblue" d="M743.7,-120.36C749.45,-112.43 757.44,-101.39 764.27,-91.96"/>
<polygon fill="midnightblue" stroke="midnightblue" points="767.32,-93.72 770.35,-83.57 761.65,-89.62 767.32,-93.72"/>
</g>
<!-- Node23 -->
<g id="node23" class="node">
<title>Node23</title>
<g id="a_node23"><a xlink:title=" ">
<polygon fill="none" stroke="#bfbfbf" points="808,-0.5 808,-23.5 878,-23.5 878,-0.5 808,-0.5"/>
<text text-anchor="middle" x="843" y="-8.3" font-family="Helvetica,sans-Serif" font-size="14.00">QString</text>
</a>
</g>
</g>
<!-- Node12&#45;&gt;Node23 -->
<g id="edge24" class="edge">
<title>Node12&#45;&gt;Node23</title>
<path fill="none" stroke="midnightblue" d="M770.1,-120.35C788.56,-112.93 810.33,-101.23 824,-84 835.43,-69.6 840.01,-48.93 841.83,-33.6"/>
<polygon fill="midnightblue" stroke="midnightblue" points="845.33,-33.82 842.73,-23.55 838.35,-33.2 845.33,-33.82"/>
</g>
<!-- Node24 -->
<g id="node24" class="node">
<title>Node24</title>
<g id="a_node24"><a xlink:title=" ">
<polygon fill="none" stroke="#bfbfbf" points="871,-60.5 871,-83.5 965,-83.5 965,-60.5 871,-60.5"/>
<text text-anchor="middle" x="918" y="-68.3" font-family="Helvetica,sans-Serif" font-size="14.00">QStringList</text>
</a>
</g>
</g>
<!-- Node12&#45;&gt;Node24 -->
<g id="edge25" class="edge">
<title>Node12&#45;&gt;Node24</title>
<path fill="none" stroke="midnightblue" d="M768.96,-120.5C798.76,-111 842.81,-96.96 875.3,-86.61"/>
<polygon fill="midnightblue" stroke="midnightblue" points="876.51,-89.89 884.98,-83.52 874.39,-83.22 876.51,-89.89"/>
</g>
<!-- Node19 -->
<g id="node19" class="node">
<title>Node19</title>
<g id="a_node19"><a xlink:title=" ">
<polygon fill="none" stroke="#bfbfbf" points="957.5,-0.5 957.5,-23.5 1034.5,-23.5 1034.5,-0.5 957.5,-0.5"/>
<text text-anchor="middle" x="996" y="-8.3" font-family="Helvetica,sans-Serif" font-size="14.00">QtGlobal</text>
</a>
</g>
</g>
<!-- Node18&#45;&gt;Node19 -->
<g id="edge19" class="edge">
<title>Node18&#45;&gt;Node19</title>
<path fill="none" stroke="midnightblue" d="M1034.38,-60.36C1027.82,-52.27 1018.63,-40.93 1010.89,-31.38"/>
<polygon fill="midnightblue" stroke="midnightblue" points="1013.58,-29.14 1004.57,-23.57 1008.14,-33.54 1013.58,-29.14"/>
</g>
<!-- Node20 -->
<g id="node20" class="node">
<title>Node20</title>
<g id="a_node20"><a xlink:title=" ">
<polygon fill="none" stroke="#bfbfbf" points="1053,-0.5 1053,-23.5 1127,-23.5 1127,-0.5 1053,-0.5"/>
<text text-anchor="middle" x="1090" y="-8.3" font-family="Helvetica,sans-Serif" font-size="14.00">unistd.h</text>
</a>
</g>
</g>
<!-- Node18&#45;&gt;Node20 -->
<g id="edge20" class="edge">
<title>Node18&#45;&gt;Node20</title>
<path fill="none" stroke="midnightblue" d="M1051.62,-60.36C1058.18,-52.27 1067.37,-40.93 1075.11,-31.38"/>
<polygon fill="midnightblue" stroke="midnightblue" points="1077.86,-33.54 1081.43,-23.57 1072.42,-29.14 1077.86,-33.54"/>
</g>
<!-- Node22 -->
<g id="node22" class="node">
<title>Node22</title>
<g id="a_node22"><a xlink:title=" ">
<polygon fill="none" stroke="#bfbfbf" points="716,-0.5 716,-23.5 790,-23.5 790,-0.5 716,-0.5"/>
<text text-anchor="middle" x="753" y="-8.3" font-family="Helvetica,sans-Serif" font-size="14.00">QDebug</text>
</a>
</g>
</g>
<!-- Node21&#45;&gt;Node22 -->
<g id="edge22" class="edge">
<title>Node21&#45;&gt;Node22</title>
<path fill="none" stroke="midnightblue" d="M773.41,-60.36C770.1,-52.68 765.53,-42.07 761.55,-32.84"/>
<polygon fill="midnightblue" stroke="midnightblue" points="764.73,-31.37 757.56,-23.57 758.3,-34.14 764.73,-31.37"/>
</g>
<!-- Node21&#45;&gt;Node23 -->
<g id="edge23" class="edge">
<title>Node21&#45;&gt;Node23</title>
<path fill="none" stroke="midnightblue" d="M789.92,-60.36C799.36,-51.94 812.73,-40.01 823.69,-30.23"/>
<polygon fill="midnightblue" stroke="midnightblue" points="826.02,-32.84 831.15,-23.57 821.36,-27.62 826.02,-32.84"/>
</g>
</g>
</svg>
        <g id="navigator" transform="translate(0 0)" fill="#404254">
                <rect fill="#f2f5e9" fill-opacity="0.5" stroke="#606060" stroke-width=".5" x="0" y="0" width="60" height="60"/>
                <use id="zoomplus" xlink:href="#zoomPlus" x="17" y="9" onmousedown="handleZoom(evt,'in')"/>
                <use id="zoomminus" xlink:href="#zoomMin" x="42" y="9" onmousedown="handleZoom(evt,'out')"/>
                <use id="reset" xlink:href="#resetDef" x="30" y="36" onmousedown="handleReset()"/>
                <g id="arrowUp" xlink:href="#dirArrow" transform="translate(30 24)" onmousedown="handlePan(0,-1)">
                  <use xlink:href="#rim" fill="#404040">
                        <set attributeName="fill" to="#808080" begin="arrowUp.mouseover" end="arrowUp.mouseout"/>
                  </use>
                  <path fill="none" stroke="white" stroke-width="1.5" d="M0,-3.0v7 M-2.5,-0.5L0,-3.0L2.5,-0.5"/>
                </g>
                <g id="arrowRight" xlink:href="#dirArrow" transform="rotate(90) translate(36 -43)" onmousedown="handlePan(1,0)">
                  <use xlink:href="#rim" fill="#404040">
                        <set attributeName="fill" to="#808080" begin="arrowRight.mouseover" end="arrowRight.mouseout"/>
                  </use>
                  <path fill="none" stroke="white" stroke-width="1.5" d="M0,-3.0v7 M-2.5,-0.5L0,-3.0L2.5,-0.5"/>
                </g>
                <g id="arrowDown" xlink:href="#dirArrow" transform="rotate(180) translate(-30 -48)" onmousedown="handlePan(0,1)">
                  <use xlink:href="#rim" fill="#404040">
                        <set attributeName="fill" to="#808080" begin="arrowDown.mouseover" end="arrowDown.mouseout"/>
                  </use>
                  <path fill="none" stroke="white" stroke-width="1.5" d="M0,-3.0v7 M-2.5,-0.5L0,-3.0L2.5,-0.5"/>
                </g>
                <g id="arrowLeft" xlink:href="#dirArrow" transform="rotate(270) translate(-36 17)" onmousedown="handlePan(-1,0)">
                  <use xlink:href="#rim" fill="#404040">
                        <set attributeName="fill" to="#808080" begin="arrowLeft.mouseover" end="arrowLeft.mouseout"/>
                  </use>
                  <path fill="none" stroke="white" stroke-width="1.5" d="M0,-3.0v7 M-2.5,-0.5L0,-3.0L2.5,-0.5"/>
                </g>
        </g>
        <svg viewBox="0 0 15 15" width="100%" height="30px" preserveAspectRatio="xMaxYMin meet">
         <g id="arrow_out" transform="scale(0.3 0.3)">
          <a xlink:href="ACRSCom_8cpp__incl_org.svg" target="_base">
           <rect id="button" ry="5" rx="5" y="6" x="6" height="38" width="38"
                fill="#f2f5e9" fill-opacity="0.5" stroke="#606060" stroke-width="1.0"/>
           <path id="arrow"
             d="M 11.500037,31.436501 C 11.940474,20.09759 22.043105,11.32322 32.158766,21.979434 L 37.068811,17.246167 C 37.068811,17.246167 37.088388,32 37.088388,32 L 22.160133,31.978069 C 22.160133,31.978069 26.997745,27.140456 26.997745,27.140456 C 18.528582,18.264221 13.291696,25.230495 11.500037,31.436501 z"
             style="fill:#404040;"/>
          </a>
         </g>
        </svg>
</svg>
