<?xml version="1.0" encoding="UTF-8" standalone="no"?>
<!DOCTYPE svg PUBLIC "-//W3C//DTD SVG 1.1//EN"
 "http://www.w3.org/Graphics/SVG/1.1/DTD/svg11.dtd">
<!-- Generated by graphviz version 2.50.0 (0)
 -->
<!-- Title: AnalysisThread.cpp Pages: 1 -->
<!--zoomable 212 -->
<svg id="main" version="1.1" xmlns="http://www.w3.org/2000/svg" xmlns:xlink="http://www.w3.org/1999/xlink" xml:space="preserve" onload="init(evt)">
<style><![CDATA[
text { fill: #e6e6e6 !important; }
polygon { fill: #2f2f2f !important; stroke: #9aa0a6 !important; }
path, line, polyline { stroke: #4e67d6 !important; }
]]></style>
<style type="text/css"><![CDATA[
.edge:hover path { stroke: red; }
.edge:hover polygon { stroke: red; fill: red; }
]]></style>
<script type="text/javascript"><![CDATA[
var edges = document.getElementsByTagName('g');
if (edges && edges.length) {
  for (var i=0;i<edges.length;i++) {
    if (edges[i].id.substr(0,4)=='edge') {
      edges[i].setAttribute('class','edge');
    }
  }
}
]]></script>
        <defs>
                <circle id="rim" cx="0" cy="0" r="7"/>
                <circle id="rim2" cx="0" cy="0" r="3.5"/>
                <g id="zoomPlus">
                        <use xlink:href="#rim" fill="#404040">
                                <set attributeName="fill" to="#808080" begin="zoomplus.mouseover" end="zoomplus.mouseout"/>
                        </use>
                        <path d="M-4,0h8M0,-4v8" fill="none" stroke="white" stroke-width="1.5" pointer-events="none"/>
                </g>
                <g id="zoomMin">
                        <use xlink:href="#rim" fill="#404040">
                                <set attributeName="fill" to="#808080" begin="zoomminus.mouseover" end="zoomminus.mouseout"/>
                        </use>
                        <path d="M-4,0h8" fill="none" stroke="white" stroke-width="1.5" pointer-events="none"/>
                </g>
                <g id="dirArrow">
                        <path fill="none" stroke="white" stroke-width="1.5" d="M0,-3.0v7 M-2.5,-0.5L0,-3.0L2.5,-0.5"/>
                </g>
               <g id="resetDef">
                       <use xlink:href="#rim2" fill="#404040">
                               <set attributeName="fill" to="#808080" begin="reset.mouseover" end="reset.mouseout"/>
                       </use>
               </g>
        </defs>

<script type="text/javascript">
var viewWidth = 1082;
var viewHeight = 212;
var sectionId = 'dynsection-0';
</script>
<script xlink:href="svgpan.js"/>
<svg id="graph" class="graph">
<g id="viewport">
<title>AnalysisThread.cpp</title>
<!-- Node1 -->
<g id="node1" class="node">
<title>Node1</title>
<g id="a_node1"><a xlink:title="Analysis worker thread.">
<polygon fill="#bfbfbf" stroke="black" points="378.5,-180.5 378.5,-203.5 530.5,-203.5 530.5,-180.5 378.5,-180.5"/>
<text text-anchor="middle" x="454.5" y="-188.3" font-family="Helvetica,sans-Serif" font-size="14.00">AnalysisThread.cpp</text>
</a>
</g>
</g>
<!-- Node2 -->
<g id="node2" class="node">
<title>Node2</title>
<g id="a_node2"><a xlink:href="AnalysisThread_8h.html" target="_top" xlink:title="Analysis worker thread.">
<polygon fill="none" stroke="black" points="39.5,-120.5 39.5,-143.5 175.5,-143.5 175.5,-120.5 39.5,-120.5"/>
<text text-anchor="middle" x="107.5" y="-128.3" font-family="Helvetica,sans-Serif" font-size="14.00">AnalysisThread.h</text>
</a>
</g>
</g>
<!-- Node1&#45;&gt;Node2 -->
<g id="edge1" class="edge">
<title>Node1&#45;&gt;Node2</title>
<path fill="none" stroke="midnightblue" d="M391.66,-180.5C332.27,-170.57 243.2,-155.68 180.65,-145.23"/>
<polygon fill="midnightblue" stroke="midnightblue" points="180.9,-141.72 170.46,-143.52 179.74,-148.62 180.9,-141.72"/>
</g>
<!-- Node7 -->
<g id="node7" class="node">
<title>Node7</title>
<g id="a_node7"><a xlink:href="PosixCompat_8h.html" target="_top" xlink:title=" ">
<polygon fill="none" stroke="black" points="193.5,-120.5 193.5,-143.5 313.5,-143.5 313.5,-120.5 193.5,-120.5"/>
<text text-anchor="middle" x="253.5" y="-128.3" font-family="Helvetica,sans-Serif" font-size="14.00">PosixCompat.h</text>
</a>
</g>
</g>
<!-- Node1&#45;&gt;Node7 -->
<g id="edge6" class="edge">
<title>Node1&#45;&gt;Node7</title>
<path fill="none" stroke="midnightblue" d="M418.1,-180.5C384.91,-170.92 335.7,-156.72 299.74,-146.34"/>
<polygon fill="midnightblue" stroke="midnightblue" points="300.55,-142.93 289.97,-143.52 298.61,-149.66 300.55,-142.93"/>
</g>
<!-- Node10 -->
<g id="node10" class="node">
<title>Node10</title>
<g id="a_node10"><a xlink:title=" ">
<polygon fill="none" stroke="#bfbfbf" points="332,-120.5 332,-143.5 403,-143.5 403,-120.5 332,-120.5"/>
<text text-anchor="middle" x="367.5" y="-128.3" font-family="Helvetica,sans-Serif" font-size="14.00">signal.h</text>
</a>
</g>
</g>
<!-- Node1&#45;&gt;Node10 -->
<g id="edge9" class="edge">
<title>Node1&#45;&gt;Node10</title>
<path fill="none" stroke="midnightblue" d="M438.54,-180.36C425.54,-171.7 406.97,-159.31 392.07,-149.38"/>
<polygon fill="midnightblue" stroke="midnightblue" points="393.62,-146.21 383.36,-143.57 389.74,-152.03 393.62,-146.21"/>
</g>
<!-- Node11 -->
<g id="node11" class="node">
<title>Node11</title>
<g id="a_node11"><a xlink:title=" ">
<polygon fill="none" stroke="#bfbfbf" points="421.5,-120.5 421.5,-143.5 487.5,-143.5 487.5,-120.5 421.5,-120.5"/>
<text text-anchor="middle" x="454.5" y="-128.3" font-family="Helvetica,sans-Serif" font-size="14.00">errno.h</text>
</a>
</g>
</g>
<!-- Node1&#45;&gt;Node11 -->
<g id="edge10" class="edge">
<title>Node1&#45;&gt;Node11</title>
<path fill="none" stroke="midnightblue" d="M454.5,-180.36C454.5,-172.92 454.5,-162.74 454.5,-153.73"/>
<polygon fill="midnightblue" stroke="midnightblue" points="458,-153.57 454.5,-143.57 451,-153.57 458,-153.57"/>
</g>
<!-- Node12 -->
<g id="node12" class="node">
<title>Node12</title>
<g id="a_node12"><a xlink:title=" ">
<polygon fill="none" stroke="#bfbfbf" points="505.5,-120.5 505.5,-143.5 635.5,-143.5 635.5,-120.5 505.5,-120.5"/>
<text text-anchor="middle" x="570.5" y="-128.3" font-family="Helvetica,sans-Serif" font-size="14.00">QtCore/QFileInfo</text>
</a>
</g>
</g>
<!-- Node1&#45;&gt;Node12 -->
<g id="edge11" class="edge">
<title>Node1&#45;&gt;Node12</title>
<path fill="none" stroke="midnightblue" d="M475.51,-180.5C493.54,-171.48 519.77,-158.36 540.1,-148.2"/>
<polygon fill="midnightblue" stroke="midnightblue" points="541.88,-151.22 549.26,-143.62 538.75,-144.96 541.88,-151.22"/>
</g>
<!-- Node13 -->
<g id="node13" class="node">
<title>Node13</title>
<g id="a_node13"><a xlink:title=" ">
<polygon fill="none" stroke="#bfbfbf" points="654,-120.5 654,-143.5 875,-143.5 875,-120.5 654,-120.5"/>
<text text-anchor="middle" x="764.5" y="-128.3" font-family="Helvetica,sans-Serif" font-size="14.00">QtCore/QProcessEnvironment</text>
</a>
</g>
</g>
<!-- Node1&#45;&gt;Node13 -->
<g id="edge12" class="edge">
<title>Node1&#45;&gt;Node13</title>
<path fill="none" stroke="midnightblue" d="M510.64,-180.5C563.36,-170.63 642.29,-155.87 698.11,-145.42"/>
<polygon fill="midnightblue" stroke="midnightblue" points="699.07,-148.8 708.26,-143.52 697.78,-141.92 699.07,-148.8"/>
</g>
<!-- Node14 -->
<g id="node14" class="node">
<title>Node14</title>
<g id="a_node14"><a xlink:title=" ">
<polygon fill="none" stroke="#bfbfbf" points="893,-120.5 893,-143.5 1074,-143.5 1074,-120.5 893,-120.5"/>
<text text-anchor="middle" x="983.5" y="-128.3" font-family="Helvetica,sans-Serif" font-size="14.00">QtCore/QStandardPaths</text>
</a>
</g>
</g>
<!-- Node1&#45;&gt;Node14 -->
<g id="edge13" class="edge">
<title>Node1&#45;&gt;Node14</title>
<path fill="none" stroke="midnightblue" d="M530.63,-182.72C614.39,-173.6 753.31,-158.45 882.77,-144.19"/>
<polygon fill="midnightblue" stroke="midnightblue" points="883.31,-147.65 892.86,-143.08 882.54,-140.69 883.31,-147.65"/>
</g>
<!-- Node3 -->
<g id="node3" class="node">
<title>Node3</title>
<g id="a_node3"><a xlink:title=" ">
<polygon fill="none" stroke="#bfbfbf" points="0,-60.5 0,-83.5 65,-83.5 65,-60.5 0,-60.5"/>
<text text-anchor="middle" x="32.5" y="-68.3" font-family="Helvetica,sans-Serif" font-size="14.00">QtCore</text>
</a>
</g>
</g>
<!-- Node2&#45;&gt;Node3 -->
<g id="edge2" class="edge">
<title>Node2&#45;&gt;Node3</title>
<path fill="none" stroke="midnightblue" d="M93.74,-120.36C82.75,-111.86 67.13,-99.78 54.41,-89.95"/>
<polygon fill="midnightblue" stroke="midnightblue" points="56.22,-86.92 46.17,-83.57 51.94,-92.46 56.22,-86.92"/>
</g>
<!-- Node4 -->
<g id="node4" class="node">
<title>Node4</title>
<g id="a_node4"><a xlink:href="QsLog_8h.html" target="_top" xlink:title="Qs Log logging support.">
<polygon fill="none" stroke="black" points="83.5,-60.5 83.5,-83.5 157.5,-83.5 157.5,-60.5 83.5,-60.5"/>
<text text-anchor="middle" x="120.5" y="-68.3" font-family="Helvetica,sans-Serif" font-size="14.00">QsLog.h</text>
</a>
</g>
</g>
<!-- Node2&#45;&gt;Node4 -->
<g id="edge3" class="edge">
<title>Node2&#45;&gt;Node4</title>
<path fill="none" stroke="midnightblue" d="M109.88,-120.36C111.57,-112.84 113.88,-102.52 115.92,-93.43"/>
<polygon fill="midnightblue" stroke="midnightblue" points="119.36,-94.09 118.13,-83.57 112.53,-92.56 119.36,-94.09"/>
</g>
<!-- Node5 -->
<g id="node5" class="node">
<title>Node5</title>
<g id="a_node5"><a xlink:title=" ">
<polygon fill="none" stroke="#bfbfbf" points="38.5,-0.5 38.5,-23.5 112.5,-23.5 112.5,-0.5 38.5,-0.5"/>
<text text-anchor="middle" x="75.5" y="-8.3" font-family="Helvetica,sans-Serif" font-size="14.00">QDebug</text>
</a>
</g>
</g>
<!-- Node4&#45;&gt;Node5 -->
<g id="edge4" class="edge">
<title>Node4&#45;&gt;Node5</title>
<path fill="none" stroke="midnightblue" d="M112.25,-60.36C106.03,-52.35 97.35,-41.16 89.99,-31.67"/>
<polygon fill="midnightblue" stroke="midnightblue" points="92.6,-29.33 83.7,-23.57 87.07,-33.62 92.6,-29.33"/>
</g>
<!-- Node6 -->
<g id="node6" class="node">
<title>Node6</title>
<g id="a_node6"><a xlink:title=" ">
<polygon fill="none" stroke="#bfbfbf" points="130.5,-0.5 130.5,-23.5 200.5,-23.5 200.5,-0.5 130.5,-0.5"/>
<text text-anchor="middle" x="165.5" y="-8.3" font-family="Helvetica,sans-Serif" font-size="14.00">QString</text>
</a>
</g>
</g>
<!-- Node4&#45;&gt;Node6 -->
<g id="edge5" class="edge">
<title>Node4&#45;&gt;Node6</title>
<path fill="none" stroke="midnightblue" d="M128.75,-60.36C134.97,-52.35 143.65,-41.16 151.01,-31.67"/>
<polygon fill="midnightblue" stroke="midnightblue" points="153.93,-33.62 157.3,-23.57 148.4,-29.33 153.93,-33.62"/>
</g>
<!-- Node8 -->
<g id="node8" class="node">
<title>Node8</title>
<g id="a_node8"><a xlink:title=" ">
<polygon fill="none" stroke="#bfbfbf" points="202,-60.5 202,-83.5 279,-83.5 279,-60.5 202,-60.5"/>
<text text-anchor="middle" x="240.5" y="-68.3" font-family="Helvetica,sans-Serif" font-size="14.00">QtGlobal</text>
</a>
</g>
</g>
<!-- Node7&#45;&gt;Node8 -->
<g id="edge7" class="edge">
<title>Node7&#45;&gt;Node8</title>
<path fill="none" stroke="midnightblue" d="M251.12,-120.36C249.43,-112.84 247.12,-102.52 245.08,-93.43"/>
<polygon fill="midnightblue" stroke="midnightblue" points="248.47,-92.56 242.87,-83.57 241.64,-94.09 248.47,-92.56"/>
</g>
<!-- Node9 -->
<g id="node9" class="node">
<title>Node9</title>
<g id="a_node9"><a xlink:title=" ">
<polygon fill="none" stroke="#bfbfbf" points="297.5,-60.5 297.5,-83.5 371.5,-83.5 371.5,-60.5 297.5,-60.5"/>
<text text-anchor="middle" x="334.5" y="-68.3" font-family="Helvetica,sans-Serif" font-size="14.00">unistd.h</text>
</a>
</g>
</g>
<!-- Node7&#45;&gt;Node9 -->
<g id="edge8" class="edge">
<title>Node7&#45;&gt;Node9</title>
<path fill="none" stroke="midnightblue" d="M268.36,-120.36C280.35,-111.78 297.43,-99.55 311.23,-89.66"/>
<polygon fill="midnightblue" stroke="midnightblue" points="313.64,-92.24 319.74,-83.57 309.57,-86.55 313.64,-92.24"/>
</g>
</g>
</svg>
        <g id="navigator" transform="translate(0 0)" fill="#404254">
                <rect fill="#f2f5e9" fill-opacity="0.5" stroke="#606060" stroke-width=".5" x="0" y="0" width="60" height="60"/>
                <use id="zoomplus" xlink:href="#zoomPlus" x="17" y="9" onmousedown="handleZoom(evt,'in')"/>
                <use id="zoomminus" xlink:href="#zoomMin" x="42" y="9" onmousedown="handleZoom(evt,'out')"/>
                <use id="reset" xlink:href="#resetDef" x="30" y="36" onmousedown="handleReset()"/>
                <g id="arrowUp" xlink:href="#dirArrow" transform="translate(30 24)" onmousedown="handlePan(0,-1)">
                  <use xlink:href="#rim" fill="#404040">
                        <set attributeName="fill" to="#808080" begin="arrowUp.mouseover" end="arrowUp.mouseout"/>
                  </use>
                  <path fill="none" stroke="white" stroke-width="1.5" d="M0,-3.0v7 M-2.5,-0.5L0,-3.0L2.5,-0.5"/>
                </g>
                <g id="arrowRight" xlink:href="#dirArrow" transform="rotate(90) translate(36 -43)" onmousedown="handlePan(1,0)">
                  <use xlink:href="#rim" fill="#404040">
                        <set attributeName="fill" to="#808080" begin="arrowRight.mouseover" end="arrowRight.mouseout"/>
                  </use>
                  <path fill="none" stroke="white" stroke-width="1.5" d="M0,-3.0v7 M-2.5,-0.5L0,-3.0L2.5,-0.5"/>
                </g>
                <g id="arrowDown" xlink:href="#dirArrow" transform="rotate(180) translate(-30 -48)" onmousedown="handlePan(0,1)">
                  <use xlink:href="#rim" fill="#404040">
                        <set attributeName="fill" to="#808080" begin="arrowDown.mouseover" end="arrowDown.mouseout"/>
                  </use>
                  <path fill="none" stroke="white" stroke-width="1.5" d="M0,-3.0v7 M-2.5,-0.5L0,-3.0L2.5,-0.5"/>
                </g>
                <g id="arrowLeft" xlink:href="#dirArrow" transform="rotate(270) translate(-36 17)" onmousedown="handlePan(-1,0)">
                  <use xlink:href="#rim" fill="#404040">
                        <set attributeName="fill" to="#808080" begin="arrowLeft.mouseover" end="arrowLeft.mouseout"/>
                  </use>
                  <path fill="none" stroke="white" stroke-width="1.5" d="M0,-3.0v7 M-2.5,-0.5L0,-3.0L2.5,-0.5"/>
                </g>
        </g>
        <svg viewBox="0 0 15 15" width="100%" height="30px" preserveAspectRatio="xMaxYMin meet">
         <g id="arrow_out" transform="scale(0.3 0.3)">
          <a xlink:href="AnalysisThread_8cpp__incl_org.svg" target="_base">
           <rect id="button" ry="5" rx="5" y="6" x="6" height="38" width="38"
                fill="#f2f5e9" fill-opacity="0.5" stroke="#606060" stroke-width="1.0"/>
           <path id="arrow"
             d="M 11.500037,31.436501 C 11.940474,20.09759 22.043105,11.32322 32.158766,21.979434 L 37.068811,17.246167 C 37.068811,17.246167 37.088388,32 37.088388,32 L 22.160133,31.978069 C 22.160133,31.978069 26.997745,27.140456 26.997745,27.140456 C 18.528582,18.264221 13.291696,25.230495 11.500037,31.436501 z"
             style="fill:#404040;"/>
          </a>
         </g>
        </svg>
</svg>
