<?xml version="1.0" encoding="UTF-8" standalone="no"?>
<!DOCTYPE svg PUBLIC "-//W3C//DTD SVG 1.1//EN"
 "http://www.w3.org/Graphics/SVG/1.1/DTD/svg11.dtd">
<!-- Generated by graphviz version 2.50.0 (0)
 -->
<!-- Title: CameraPropWidget.h Pages: 1 -->
<!--zoomable 212 -->
<svg id="main" version="1.1" xmlns="http://www.w3.org/2000/svg" xmlns:xlink="http://www.w3.org/1999/xlink" xml:space="preserve" onload="init(evt)">
<style><![CDATA[
text { fill: #e6e6e6 !important; }
polygon { fill: #2f2f2f !important; stroke: #9aa0a6 !important; }
path, line, polyline { stroke: #4e67d6 !important; }
]]></style>
<style><![CDATA[
text { fill: #e6e6e6 !important; }
polygon { fill: #2f2f2f !important; stroke: #9aa0a6 !important; }
path, line, polyline { stroke: #4e67d6 !important; }
]]></style>
<style><![CDATA[
text { fill: #e6e6e6 !important; }
polygon { fill: #2f2f2f !important; stroke: #9aa0a6 !important; }
path, line, polyline { stroke: #4e67d6 !important; }
]]></style>
<style><![CDATA[
text { fill: #e6e6e6 !important; }
polygon { fill: #2f2f2f !important; stroke: #9aa0a6 !important; }
path, line, polyline { stroke: #4e67d6 !important; }
]]></style>
<style><![CDATA[
text { fill: #e6e6e6 !important; }
polygon { fill: #2f2f2f !important; stroke: #9aa0a6 !important; }
path, line, polyline { stroke: #4e67d6 !important; }
]]></style>
<style><![CDATA[
text { fill: #e6e6e6 !important; }
polygon { fill: #2f2f2f !important; stroke: #9aa0a6 !important; }
path, line, polyline { stroke: #4e67d6 !important; }
]]></style>
<style><![CDATA[
text { fill: #e6e6e6 !important; }
polygon { fill: #2f2f2f !important; stroke: #9aa0a6 !important; }
path, line, polyline { stroke: #4e67d6 !important; }
]]></style>
<style type="text/css"><![CDATA[
.edge:hover path { stroke: red; }
.edge:hover polygon { stroke: red; fill: red; }
]]></style>
<script type="text/javascript"><![CDATA[
var edges = document.getElementsByTagName('g');
if (edges && edges.length) {
  for (var i=0;i<edges.length;i++) {
    if (edges[i].id.substr(0,4)=='edge') {
      edges[i].setAttribute('class','edge');
    }
  }
}
]]></script>
        <defs>
                <circle id="rim" cx="0" cy="0" r="7"/>
                <circle id="rim2" cx="0" cy="0" r="3.5"/>
                <g id="zoomPlus">
                        <use xlink:href="#rim" fill="#404040">
                                <set attributeName="fill" to="#808080" begin="zoomplus.mouseover" end="zoomplus.mouseout"/>
                        </use>
                        <path d="M-4,0h8M0,-4v8" fill="none" stroke="white" stroke-width="1.5" pointer-events="none"/>
                </g>
                <g id="zoomMin">
                        <use xlink:href="#rim" fill="#404040">
                                <set attributeName="fill" to="#808080" begin="zoomminus.mouseover" end="zoomminus.mouseout"/>
                        </use>
                        <path d="M-4,0h8" fill="none" stroke="white" stroke-width="1.5" pointer-events="none"/>
                </g>
                <g id="dirArrow">
                        <path fill="none" stroke="white" stroke-width="1.5" d="M0,-3.0v7 M-2.5,-0.5L0,-3.0L2.5,-0.5"/>
                </g>
               <g id="resetDef">
                       <use xlink:href="#rim2" fill="#404040">
                               <set attributeName="fill" to="#808080" begin="reset.mouseover" end="reset.mouseout"/>
                       </use>
               </g>
        </defs>

<script type="text/javascript">
var viewWidth = 1863;
var viewHeight = 212;
var sectionId = 'dynsection-0';
</script>
<script xlink:href="svgpan.js"/>
<svg id="graph" class="graph">
<g id="viewport">
<title>CameraPropWidget.h</title>
<!-- Node1 -->
<g id="node1" class="node">
<title>Node1</title>
<g id="a_node1"><a xlink:title="Camera backend for Prop Widget.">
<polygon fill="#bfbfbf" stroke="black" points="1141,-180.5 1141,-203.5 1305,-203.5 1305,-180.5 1141,-180.5"/>
<text text-anchor="middle" x="1223" y="-188.3" font-family="Helvetica,sans-Serif" font-size="14.00">CameraPropWidget.h</text>
</a>
</g>
</g>
<!-- Node2 -->
<g id="node2" class="node">
<title>Node2</title>
<g id="a_node2"><a xlink:href="Camera_8h.html" target="_top" xlink:title="Camera backend for .">
<polygon fill="none" stroke="black" points="517,-120.5 517,-143.5 601,-143.5 601,-120.5 517,-120.5"/>
<text text-anchor="middle" x="559" y="-128.3" font-family="Helvetica,sans-Serif" font-size="14.00">Camera.h</text>
</a>
</g>
</g>
<!-- Node1&#45;&gt;Node2 -->
<g id="edge1" class="edge">
<title>Node1&#45;&gt;Node2</title>
<path fill="none" stroke="midnightblue" d="M1140.91,-183.83C1002.48,-171.74 726.46,-147.63 611.33,-137.57"/>
<polygon fill="midnightblue" stroke="midnightblue" points="611.62,-134.08 601.35,-136.7 611.01,-141.06 611.62,-134.08"/>
</g>
<!-- Node15 -->
<g id="node15" class="node">
<title>Node15</title>
<g id="a_node15"><a xlink:href="QsLog_8h.html" target="_top" xlink:title="Qs Log logging support.">
<polygon fill="none" stroke="black" points="1018,-60.5 1018,-83.5 1092,-83.5 1092,-60.5 1018,-60.5"/>
<text text-anchor="middle" x="1055" y="-68.3" font-family="Helvetica,sans-Serif" font-size="14.00">QsLog.h</text>
</a>
</g>
</g>
<!-- Node1&#45;&gt;Node15 -->
<g id="edge26" class="edge">
<title>Node1&#45;&gt;Node15</title>
<path fill="none" stroke="midnightblue" d="M1140.97,-186C1039.89,-178.98 879.2,-164.71 861,-144 853.96,-135.99 854.41,-128.38 861,-120 861.29,-119.63 950.38,-98.15 1007.71,-84.36"/>
<polygon fill="midnightblue" stroke="midnightblue" points="1008.76,-87.71 1017.67,-81.97 1007.13,-80.9 1008.76,-87.71"/>
</g>
<!-- Node18 -->
<g id="node18" class="node">
<title>Node18</title>
<g id="a_node18"><a xlink:title=" ">
<polygon fill="none" stroke="#bfbfbf" points="870,-120.5 870,-143.5 938,-143.5 938,-120.5 870,-120.5"/>
<text text-anchor="middle" x="904" y="-128.3" font-family="Helvetica,sans-Serif" font-size="14.00">QSlider</text>
</a>
</g>
</g>
<!-- Node1&#45;&gt;Node18 -->
<g id="edge17" class="edge">
<title>Node1&#45;&gt;Node18</title>
<path fill="none" stroke="midnightblue" d="M1151.5,-180.47C1098,-172.21 1022.85,-159.81 948.25,-144.15"/>
<polygon fill="midnightblue" stroke="midnightblue" points="948.72,-140.67 938.21,-142.02 947.26,-147.52 948.72,-140.67"/>
</g>
<!-- Node19 -->
<g id="node19" class="node">
<title>Node19</title>
<g id="a_node19"><a xlink:title=" ">
<polygon fill="none" stroke="#bfbfbf" points="956,-120.5 956,-143.5 1060,-143.5 1060,-120.5 956,-120.5"/>
<text text-anchor="middle" x="1008" y="-128.3" font-family="Helvetica,sans-Serif" font-size="14.00">QGridLayout</text>
</a>
</g>
</g>
<!-- Node1&#45;&gt;Node19 -->
<g id="edge18" class="edge">
<title>Node1&#45;&gt;Node19</title>
<path fill="none" stroke="midnightblue" d="M1184.07,-180.5C1148.41,-170.88 1095.48,-156.6 1056.96,-146.21"/>
<polygon fill="midnightblue" stroke="midnightblue" points="1057.57,-142.75 1047.01,-143.52 1055.75,-149.51 1057.57,-142.75"/>
</g>
<!-- Node20 -->
<g id="node20" class="node">
<title>Node20</title>
<g id="a_node20"><a xlink:title=" ">
<polygon fill="none" stroke="#bfbfbf" points="1078.5,-120.5 1078.5,-143.5 1143.5,-143.5 1143.5,-120.5 1078.5,-120.5"/>
<text text-anchor="middle" x="1111" y="-128.3" font-family="Helvetica,sans-Serif" font-size="14.00">QLabel</text>
</a>
</g>
</g>
<!-- Node1&#45;&gt;Node20 -->
<g id="edge19" class="edge">
<title>Node1&#45;&gt;Node20</title>
<path fill="none" stroke="midnightblue" d="M1202.72,-180.5C1185.38,-171.52 1160.21,-158.48 1140.62,-148.34"/>
<polygon fill="midnightblue" stroke="midnightblue" points="1142,-145.11 1131.51,-143.62 1138.78,-151.33 1142,-145.11"/>
</g>
<!-- Node21 -->
<g id="node21" class="node">
<title>Node21</title>
<g id="a_node21"><a xlink:title=" ">
<polygon fill="none" stroke="#bfbfbf" points="1161.5,-120.5 1161.5,-143.5 1284.5,-143.5 1284.5,-120.5 1161.5,-120.5"/>
<text text-anchor="middle" x="1223" y="-128.3" font-family="Helvetica,sans-Serif" font-size="14.00">QSignalMapper</text>
</a>
</g>
</g>
<!-- Node1&#45;&gt;Node21 -->
<g id="edge20" class="edge">
<title>Node1&#45;&gt;Node21</title>
<path fill="none" stroke="midnightblue" d="M1223,-180.36C1223,-172.92 1223,-162.74 1223,-153.73"/>
<polygon fill="midnightblue" stroke="midnightblue" points="1226.5,-153.57 1223,-143.57 1219.5,-153.57 1226.5,-153.57"/>
</g>
<!-- Node22 -->
<g id="node22" class="node">
<title>Node22</title>
<g id="a_node22"><a xlink:title=" ">
<polygon fill="none" stroke="#bfbfbf" points="1303,-120.5 1303,-143.5 1397,-143.5 1397,-120.5 1303,-120.5"/>
<text text-anchor="middle" x="1350" y="-128.3" font-family="Helvetica,sans-Serif" font-size="14.00">QFileDialog</text>
</a>
</g>
</g>
<!-- Node1&#45;&gt;Node22 -->
<g id="edge21" class="edge">
<title>Node1&#45;&gt;Node22</title>
<path fill="none" stroke="midnightblue" d="M1246,-180.5C1266.01,-171.36 1295.24,-158.01 1317.62,-147.79"/>
<polygon fill="midnightblue" stroke="midnightblue" points="1319.1,-150.96 1326.74,-143.62 1316.19,-144.59 1319.1,-150.96"/>
</g>
<!-- Node23 -->
<g id="node23" class="node">
<title>Node23</title>
<g id="a_node23"><a xlink:title=" ">
<polygon fill="none" stroke="#bfbfbf" points="1415,-120.5 1415,-143.5 1523,-143.5 1523,-120.5 1415,-120.5"/>
<text text-anchor="middle" x="1469" y="-128.3" font-family="Helvetica,sans-Serif" font-size="14.00">QPushButton</text>
</a>
</g>
</g>
<!-- Node1&#45;&gt;Node23 -->
<g id="edge22" class="edge">
<title>Node1&#45;&gt;Node23</title>
<path fill="none" stroke="midnightblue" d="M1267.55,-180.5C1308.78,-170.78 1370.2,-156.29 1414.38,-145.88"/>
<polygon fill="midnightblue" stroke="midnightblue" points="1415.44,-149.22 1424.37,-143.52 1413.83,-142.41 1415.44,-149.22"/>
</g>
<!-- Node24 -->
<g id="node24" class="node">
<title>Node24</title>
<g id="a_node24"><a xlink:title=" ">
<polygon fill="none" stroke="#bfbfbf" points="1541.5,-120.5 1541.5,-143.5 1638.5,-143.5 1638.5,-120.5 1541.5,-120.5"/>
<text text-anchor="middle" x="1590" y="-128.3" font-family="Helvetica,sans-Serif" font-size="14.00">QCheckBox</text>
</a>
</g>
</g>
<!-- Node1&#45;&gt;Node24 -->
<g id="edge23" class="edge">
<title>Node1&#45;&gt;Node24</title>
<path fill="none" stroke="midnightblue" d="M1297.42,-180.46C1357.76,-171.73 1445.25,-158.67 1531.34,-144.07"/>
<polygon fill="midnightblue" stroke="midnightblue" points="1532.02,-147.5 1541.29,-142.37 1530.84,-140.6 1532.02,-147.5"/>
</g>
<!-- Node25 -->
<g id="node25" class="node">
<title>Node25</title>
<g id="a_node25"><a xlink:title=" ">
<polygon fill="none" stroke="#bfbfbf" points="1657,-120.5 1657,-143.5 1769,-143.5 1769,-120.5 1657,-120.5"/>
<text text-anchor="middle" x="1713" y="-128.3" font-family="Helvetica,sans-Serif" font-size="14.00">QLCDNumber</text>
</a>
</g>
</g>
<!-- Node1&#45;&gt;Node25 -->
<g id="edge24" class="edge">
<title>Node1&#45;&gt;Node25</title>
<path fill="none" stroke="midnightblue" d="M1305.24,-183.23C1388.53,-175.05 1521.3,-161.18 1646.69,-143.98"/>
<polygon fill="midnightblue" stroke="midnightblue" points="1647.44,-147.41 1656.86,-142.57 1646.48,-140.47 1647.44,-147.41"/>
</g>
<!-- Node26 -->
<g id="node26" class="node">
<title>Node26</title>
<g id="a_node26"><a xlink:title=" ">
<polygon fill="none" stroke="#bfbfbf" points="1787,-120.5 1787,-143.5 1855,-143.5 1855,-120.5 1787,-120.5"/>
<text text-anchor="middle" x="1821" y="-128.3" font-family="Helvetica,sans-Serif" font-size="14.00">QTimer</text>
</a>
</g>
</g>
<!-- Node1&#45;&gt;Node26 -->
<g id="edge25" class="edge">
<title>Node1&#45;&gt;Node26</title>
<path fill="none" stroke="midnightblue" d="M1305.35,-188.29C1412.12,-183.83 1604.13,-172.57 1776.81,-143.97"/>
<polygon fill="midnightblue" stroke="midnightblue" points="1777.56,-147.39 1786.84,-142.28 1776.4,-140.49 1777.56,-147.39"/>
</g>
<!-- Node3 -->
<g id="node3" class="node">
<title>Node3</title>
<g id="a_node3"><a xlink:title=" ">
<polygon fill="none" stroke="#bfbfbf" points="0,-60.5 0,-83.5 66,-83.5 66,-60.5 0,-60.5"/>
<text text-anchor="middle" x="33" y="-68.3" font-family="Helvetica,sans-Serif" font-size="14.00">math.h</text>
</a>
</g>
</g>
<!-- Node2&#45;&gt;Node3 -->
<g id="edge2" class="edge">
<title>Node2&#45;&gt;Node3</title>
<path fill="none" stroke="midnightblue" d="M516.94,-129.17C434.21,-125.09 244.46,-113.34 76.38,-84.02"/>
<polygon fill="midnightblue" stroke="midnightblue" points="76.82,-80.55 66.36,-82.25 75.6,-87.44 76.82,-80.55"/>
</g>
<!-- Node4 -->
<g id="node4" class="node">
<title>Node4</title>
<g id="a_node4"><a xlink:title=" ">
<polygon fill="none" stroke="#bfbfbf" points="84,-60.5 84,-83.5 160,-83.5 160,-60.5 84,-60.5"/>
<text text-anchor="middle" x="122" y="-68.3" font-family="Helvetica,sans-Serif" font-size="14.00">QThread</text>
</a>
</g>
</g>
<!-- Node2&#45;&gt;Node4 -->
<g id="edge3" class="edge">
<title>Node2&#45;&gt;Node4</title>
<path fill="none" stroke="midnightblue" d="M516.93,-127.46C446.95,-121.24 302.05,-106.94 170.03,-84.03"/>
<polygon fill="midnightblue" stroke="midnightblue" points="170.6,-80.58 160.15,-82.3 169.39,-87.48 170.6,-80.58"/>
</g>
<!-- Node5 -->
<g id="node5" class="node">
<title>Node5</title>
<g id="a_node5"><a xlink:title=" ">
<polygon fill="none" stroke="#bfbfbf" points="178.5,-60.5 178.5,-83.5 257.5,-83.5 257.5,-60.5 178.5,-60.5"/>
<text text-anchor="middle" x="218" y="-68.3" font-family="Helvetica,sans-Serif" font-size="14.00">QPixmap</text>
</a>
</g>
</g>
<!-- Node2&#45;&gt;Node5 -->
<g id="edge4" class="edge">
<title>Node2&#45;&gt;Node5</title>
<path fill="none" stroke="midnightblue" d="M516.63,-125.1C461.47,-117.23 361.86,-102.33 267.5,-84.21"/>
<polygon fill="midnightblue" stroke="midnightblue" points="267.99,-80.74 257.51,-82.27 266.66,-87.61 267.99,-80.74"/>
</g>
<!-- Node6 -->
<g id="node6" class="node">
<title>Node6</title>
<g id="a_node6"><a xlink:title=" ">
<polygon fill="none" stroke="#bfbfbf" points="275.5,-60.5 275.5,-83.5 346.5,-83.5 346.5,-60.5 275.5,-60.5"/>
<text text-anchor="middle" x="311" y="-68.3" font-family="Helvetica,sans-Serif" font-size="14.00">QImage</text>
</a>
</g>
</g>
<!-- Node2&#45;&gt;Node6 -->
<g id="edge5" class="edge">
<title>Node2&#45;&gt;Node6</title>
<path fill="none" stroke="midnightblue" d="M516.75,-121.51C477.55,-112.64 417.34,-98.9 356.32,-84.29"/>
<polygon fill="midnightblue" stroke="midnightblue" points="357.07,-80.87 346.53,-81.94 355.44,-87.68 357.07,-80.87"/>
</g>
<!-- Node7 -->
<g id="node7" class="node">
<title>Node7</title>
<g id="a_node7"><a xlink:title=" ">
<polygon fill="none" stroke="#bfbfbf" points="364.5,-60.5 364.5,-83.5 461.5,-83.5 461.5,-60.5 364.5,-60.5"/>
<text text-anchor="middle" x="413" y="-68.3" font-family="Helvetica,sans-Serif" font-size="14.00">QByteArray</text>
</a>
</g>
</g>
<!-- Node2&#45;&gt;Node7 -->
<g id="edge6" class="edge">
<title>Node2&#45;&gt;Node7</title>
<path fill="none" stroke="midnightblue" d="M532.56,-120.5C509.24,-111.23 475.05,-97.65 449.2,-87.38"/>
<polygon fill="midnightblue" stroke="midnightblue" points="450.32,-84.06 439.74,-83.62 447.74,-90.57 450.32,-84.06"/>
</g>
<!-- Node8 -->
<g id="node8" class="node">
<title>Node8</title>
<g id="a_node8"><a xlink:title=" ">
<polygon fill="none" stroke="#bfbfbf" points="479.5,-60.5 479.5,-83.5 550.5,-83.5 550.5,-60.5 479.5,-60.5"/>
<text text-anchor="middle" x="515" y="-68.3" font-family="Helvetica,sans-Serif" font-size="14.00">QBuffer</text>
</a>
</g>
</g>
<!-- Node2&#45;&gt;Node8 -->
<g id="edge7" class="edge">
<title>Node2&#45;&gt;Node8</title>
<path fill="none" stroke="midnightblue" d="M550.93,-120.36C544.85,-112.35 536.36,-101.16 529.16,-91.67"/>
<polygon fill="midnightblue" stroke="midnightblue" points="531.85,-89.42 523.02,-83.57 526.27,-93.65 531.85,-89.42"/>
</g>
<!-- Node9 -->
<g id="node9" class="node">
<title>Node9</title>
<g id="a_node9"><a xlink:title=" ">
<polygon fill="none" stroke="#bfbfbf" points="568.5,-60.5 568.5,-83.5 639.5,-83.5 639.5,-60.5 568.5,-60.5"/>
<text text-anchor="middle" x="604" y="-68.3" font-family="Helvetica,sans-Serif" font-size="14.00">QMutex</text>
</a>
</g>
</g>
<!-- Node2&#45;&gt;Node9 -->
<g id="edge8" class="edge">
<title>Node2&#45;&gt;Node9</title>
<path fill="none" stroke="midnightblue" d="M567.25,-120.36C573.47,-112.35 582.15,-101.16 589.51,-91.67"/>
<polygon fill="midnightblue" stroke="midnightblue" points="592.43,-93.62 595.8,-83.57 586.9,-89.33 592.43,-93.62"/>
</g>
<!-- Node10 -->
<g id="node10" class="node">
<title>Node10</title>
<g id="a_node10"><a xlink:title=" ">
<polygon fill="none" stroke="#bfbfbf" points="658,-60.5 658,-83.5 782,-83.5 782,-60.5 658,-60.5"/>
<text text-anchor="middle" x="720" y="-68.3" font-family="Helvetica,sans-Serif" font-size="14.00">QWaitCondition</text>
</a>
</g>
</g>
<!-- Node2&#45;&gt;Node10 -->
<g id="edge9" class="edge">
<title>Node2&#45;&gt;Node10</title>
<path fill="none" stroke="midnightblue" d="M588.16,-120.5C614.18,-111.12 652.48,-97.32 681.1,-87.01"/>
<polygon fill="midnightblue" stroke="midnightblue" points="682.57,-90.21 690.79,-83.52 680.2,-83.62 682.57,-90.21"/>
</g>
<!-- Node11 -->
<g id="node11" class="node">
<title>Node11</title>
<g id="a_node11"><a xlink:title=" ">
<polygon fill="none" stroke="#bfbfbf" points="800,-60.5 800,-83.5 862,-83.5 862,-60.5 800,-60.5"/>
<text text-anchor="middle" x="831" y="-68.3" font-family="Helvetica,sans-Serif" font-size="14.00">QTime</text>
</a>
</g>
</g>
<!-- Node2&#45;&gt;Node11 -->
<g id="edge10" class="edge">
<title>Node2&#45;&gt;Node11</title>
<path fill="none" stroke="midnightblue" d="M601.1,-123.37C645.64,-115.1 718.16,-101.06 789.55,-84.24"/>
<polygon fill="midnightblue" stroke="midnightblue" points="790.69,-87.57 799.61,-81.85 789.07,-80.76 790.69,-87.57"/>
</g>
<!-- Node12 -->
<g id="node12" class="node">
<title>Node12</title>
<g id="a_node12"><a xlink:href="PosixCompat_8h.html" target="_top" xlink:title=" ">
<polygon fill="none" stroke="black" points="880,-60.5 880,-83.5 1000,-83.5 1000,-60.5 880,-60.5"/>
<text text-anchor="middle" x="940" y="-68.3" font-family="Helvetica,sans-Serif" font-size="14.00">PosixCompat.h</text>
</a>
</g>
</g>
<!-- Node2&#45;&gt;Node12 -->
<g id="edge11" class="edge">
<title>Node2&#45;&gt;Node12</title>
<path fill="none" stroke="midnightblue" d="M601.16,-124.77C659.25,-116.15 767.48,-100.01 869.9,-84.16"/>
<polygon fill="midnightblue" stroke="midnightblue" points="870.45,-87.62 879.79,-82.63 869.38,-80.7 870.45,-87.62"/>
</g>
<!-- Node2&#45;&gt;Node15 -->
<g id="edge14" class="edge">
<title>Node2&#45;&gt;Node15</title>
<path fill="none" stroke="midnightblue" d="M601.13,-128.44C679.36,-123.3 852.5,-110.04 1007.73,-84.04"/>
<polygon fill="midnightblue" stroke="midnightblue" points="1008.66,-87.43 1017.93,-82.3 1007.48,-80.53 1008.66,-87.43"/>
</g>
<!-- Node13 -->
<g id="node13" class="node">
<title>Node13</title>
<g id="a_node13"><a xlink:title=" ">
<polygon fill="none" stroke="#bfbfbf" points="813.5,-0.5 813.5,-23.5 890.5,-23.5 890.5,-0.5 813.5,-0.5"/>
<text text-anchor="middle" x="852" y="-8.3" font-family="Helvetica,sans-Serif" font-size="14.00">QtGlobal</text>
</a>
</g>
</g>
<!-- Node12&#45;&gt;Node13 -->
<g id="edge12" class="edge">
<title>Node12&#45;&gt;Node13</title>
<path fill="none" stroke="midnightblue" d="M923.86,-60.36C910.59,-51.61 891.57,-39.08 876.43,-29.1"/>
<polygon fill="midnightblue" stroke="midnightblue" points="878.31,-26.15 868.04,-23.57 874.46,-32 878.31,-26.15"/>
</g>
<!-- Node14 -->
<g id="node14" class="node">
<title>Node14</title>
<g id="a_node14"><a xlink:title=" ">
<polygon fill="none" stroke="#bfbfbf" points="909,-0.5 909,-23.5 983,-23.5 983,-0.5 909,-0.5"/>
<text text-anchor="middle" x="946" y="-8.3" font-family="Helvetica,sans-Serif" font-size="14.00">unistd.h</text>
</a>
</g>
</g>
<!-- Node12&#45;&gt;Node14 -->
<g id="edge13" class="edge">
<title>Node12&#45;&gt;Node14</title>
<path fill="none" stroke="midnightblue" d="M941.1,-60.36C941.87,-52.92 942.92,-42.74 943.86,-33.73"/>
<polygon fill="midnightblue" stroke="midnightblue" points="947.36,-33.88 944.91,-23.57 940.4,-33.16 947.36,-33.88"/>
</g>
<!-- Node16 -->
<g id="node16" class="node">
<title>Node16</title>
<g id="a_node16"><a xlink:title=" ">
<polygon fill="none" stroke="#bfbfbf" points="1012,-0.5 1012,-23.5 1086,-23.5 1086,-0.5 1012,-0.5"/>
<text text-anchor="middle" x="1049" y="-8.3" font-family="Helvetica,sans-Serif" font-size="14.00">QDebug</text>
</a>
</g>
</g>
<!-- Node15&#45;&gt;Node16 -->
<g id="edge15" class="edge">
<title>Node15&#45;&gt;Node16</title>
<path fill="none" stroke="midnightblue" d="M1053.9,-60.36C1053.13,-52.92 1052.08,-42.74 1051.14,-33.73"/>
<polygon fill="midnightblue" stroke="midnightblue" points="1054.6,-33.16 1050.09,-23.57 1047.64,-33.88 1054.6,-33.16"/>
</g>
<!-- Node17 -->
<g id="node17" class="node">
<title>Node17</title>
<g id="a_node17"><a xlink:title=" ">
<polygon fill="none" stroke="#bfbfbf" points="1104,-0.5 1104,-23.5 1174,-23.5 1174,-0.5 1104,-0.5"/>
<text text-anchor="middle" x="1139" y="-8.3" font-family="Helvetica,sans-Serif" font-size="14.00">QString</text>
</a>
</g>
</g>
<!-- Node15&#45;&gt;Node17 -->
<g id="edge16" class="edge">
<title>Node15&#45;&gt;Node17</title>
<path fill="none" stroke="midnightblue" d="M1070.41,-60.36C1082.96,-51.7 1100.89,-39.31 1115.27,-29.38"/>
<polygon fill="midnightblue" stroke="midnightblue" points="1117.45,-32.13 1123.69,-23.57 1113.47,-26.37 1117.45,-32.13"/>
</g>
</g>
</svg>
        <g id="navigator" transform="translate(0 0)" fill="#404254">
                <rect fill="#f2f5e9" fill-opacity="0.5" stroke="#606060" stroke-width=".5" x="0" y="0" width="60" height="60"/>
                <use id="zoomplus" xlink:href="#zoomPlus" x="17" y="9" onmousedown="handleZoom(evt,'in')"/>
                <use id="zoomminus" xlink:href="#zoomMin" x="42" y="9" onmousedown="handleZoom(evt,'out')"/>
                <use id="reset" xlink:href="#resetDef" x="30" y="36" onmousedown="handleReset()"/>
                <g id="arrowUp" xlink:href="#dirArrow" transform="translate(30 24)" onmousedown="handlePan(0,-1)">
                  <use xlink:href="#rim" fill="#404040">
                        <set attributeName="fill" to="#808080" begin="arrowUp.mouseover" end="arrowUp.mouseout"/>
                  </use>
                  <path fill="none" stroke="white" stroke-width="1.5" d="M0,-3.0v7 M-2.5,-0.5L0,-3.0L2.5,-0.5"/>
                </g>
                <g id="arrowRight" xlink:href="#dirArrow" transform="rotate(90) translate(36 -43)" onmousedown="handlePan(1,0)">
                  <use xlink:href="#rim" fill="#404040">
                        <set attributeName="fill" to="#808080" begin="arrowRight.mouseover" end="arrowRight.mouseout"/>
                  </use>
                  <path fill="none" stroke="white" stroke-width="1.5" d="M0,-3.0v7 M-2.5,-0.5L0,-3.0L2.5,-0.5"/>
                </g>
                <g id="arrowDown" xlink:href="#dirArrow" transform="rotate(180) translate(-30 -48)" onmousedown="handlePan(0,1)">
                  <use xlink:href="#rim" fill="#404040">
                        <set attributeName="fill" to="#808080" begin="arrowDown.mouseover" end="arrowDown.mouseout"/>
                  </use>
                  <path fill="none" stroke="white" stroke-width="1.5" d="M0,-3.0v7 M-2.5,-0.5L0,-3.0L2.5,-0.5"/>
                </g>
                <g id="arrowLeft" xlink:href="#dirArrow" transform="rotate(270) translate(-36 17)" onmousedown="handlePan(-1,0)">
                  <use xlink:href="#rim" fill="#404040">
                        <set attributeName="fill" to="#808080" begin="arrowLeft.mouseover" end="arrowLeft.mouseout"/>
                  </use>
                  <path fill="none" stroke="white" stroke-width="1.5" d="M0,-3.0v7 M-2.5,-0.5L0,-3.0L2.5,-0.5"/>
                </g>
        </g>
        <svg viewBox="0 0 15 15" width="100%" height="30px" preserveAspectRatio="xMaxYMin meet">
         <g id="arrow_out" transform="scale(0.3 0.3)">
          <a xlink:href="CameraPropWidget_8h__incl_org.svg" target="_base">
           <rect id="button" ry="5" rx="5" y="6" x="6" height="38" width="38"
                fill="#f2f5e9" fill-opacity="0.5" stroke="#606060" stroke-width="1.0"/>
           <path id="arrow"
             d="M 11.500037,31.436501 C 11.940474,20.09759 22.043105,11.32322 32.158766,21.979434 L 37.068811,17.246167 C 37.068811,17.246167 37.088388,32 37.088388,32 L 22.160133,31.978069 C 22.160133,31.978069 26.997745,27.140456 26.997745,27.140456 C 18.528582,18.264221 13.291696,25.230495 11.500037,31.436501 z"
             style="fill:#404040;"/>
          </a>
         </g>
        </svg>
</svg>
