<?xml version="1.0" encoding="UTF-8" standalone="no"?>
<!DOCTYPE svg PUBLIC "-//W3C//DTD SVG 1.1//EN"
 "http://www.w3.org/Graphics/SVG/1.1/DTD/svg11.dtd">
<!-- Generated by graphviz version 2.50.0 (0)
 -->
<!-- Title: CameraUSB.cpp Pages: 1 -->
<!--zoomable 272 -->
<svg id="main" version="1.1" xmlns="http://www.w3.org/2000/svg" xmlns:xlink="http://www.w3.org/1999/xlink" xml:space="preserve" onload="init(evt)">
<style><![CDATA[
text { fill: #e6e6e6 !important; }
polygon { fill: #2f2f2f !important; stroke: #9aa0a6 !important; }
path, line, polyline { stroke: #4e67d6 !important; }
]]></style>
<style><![CDATA[
text { fill: #e6e6e6 !important; }
polygon { fill: #2f2f2f !important; stroke: #9aa0a6 !important; }
path, line, polyline { stroke: #4e67d6 !important; }
]]></style>
<style><![CDATA[
text { fill: #e6e6e6 !important; }
polygon { fill: #2f2f2f !important; stroke: #9aa0a6 !important; }
path, line, polyline { stroke: #4e67d6 !important; }
]]></style>
<style><![CDATA[
text { fill: #e6e6e6 !important; }
polygon { fill: #2f2f2f !important; stroke: #9aa0a6 !important; }
path, line, polyline { stroke: #4e67d6 !important; }
]]></style>
<style><![CDATA[
text { fill: #e6e6e6 !important; }
polygon { fill: #2f2f2f !important; stroke: #9aa0a6 !important; }
path, line, polyline { stroke: #4e67d6 !important; }
]]></style>
<style><![CDATA[
text { fill: #e6e6e6 !important; }
polygon { fill: #2f2f2f !important; stroke: #9aa0a6 !important; }
path, line, polyline { stroke: #4e67d6 !important; }
]]></style>
<style><![CDATA[
text { fill: #e6e6e6 !important; }
polygon { fill: #2f2f2f !important; stroke: #9aa0a6 !important; }
path, line, polyline { stroke: #4e67d6 !important; }
]]></style>
<style type="text/css"><![CDATA[
.edge:hover path { stroke: red; }
.edge:hover polygon { stroke: red; fill: red; }
]]></style>
<script type="text/javascript"><![CDATA[
var edges = document.getElementsByTagName('g');
if (edges && edges.length) {
  for (var i=0;i<edges.length;i++) {
    if (edges[i].id.substr(0,4)=='edge') {
      edges[i].setAttribute('class','edge');
    }
  }
}
]]></script>
        <defs>
                <circle id="rim" cx="0" cy="0" r="7"/>
                <circle id="rim2" cx="0" cy="0" r="3.5"/>
                <g id="zoomPlus">
                        <use xlink:href="#rim" fill="#404040">
                                <set attributeName="fill" to="#808080" begin="zoomplus.mouseover" end="zoomplus.mouseout"/>
                        </use>
                        <path d="M-4,0h8M0,-4v8" fill="none" stroke="white" stroke-width="1.5" pointer-events="none"/>
                </g>
                <g id="zoomMin">
                        <use xlink:href="#rim" fill="#404040">
                                <set attributeName="fill" to="#808080" begin="zoomminus.mouseover" end="zoomminus.mouseout"/>
                        </use>
                        <path d="M-4,0h8" fill="none" stroke="white" stroke-width="1.5" pointer-events="none"/>
                </g>
                <g id="dirArrow">
                        <path fill="none" stroke="white" stroke-width="1.5" d="M0,-3.0v7 M-2.5,-0.5L0,-3.0L2.5,-0.5"/>
                </g>
               <g id="resetDef">
                       <use xlink:href="#rim2" fill="#404040">
                               <set attributeName="fill" to="#808080" begin="reset.mouseover" end="reset.mouseout"/>
                       </use>
               </g>
        </defs>

<script type="text/javascript">
var viewWidth = 1623;
var viewHeight = 272;
var sectionId = 'dynsection-0';
</script>
<script xlink:href="svgpan.js"/>
<svg id="graph" class="graph">
<g id="viewport">
<title>CameraUSB.cpp</title>
<!-- Node1 -->
<g id="node1" class="node">
<title>Node1</title>
<g id="a_node1"><a xlink:title="Camera backend for USB.">
<polygon fill="#bfbfbf" stroke="black" points="363.5,-240.5 363.5,-263.5 493.5,-263.5 493.5,-240.5 363.5,-240.5"/>
<text text-anchor="middle" x="428.5" y="-248.3" font-family="Helvetica,sans-Serif" font-size="14.00">CameraUSB.cpp</text>
</a>
</g>
</g>
<!-- Node2 -->
<g id="node2" class="node">
<title>Node2</title>
<g id="a_node2"><a xlink:title=" ">
<polygon fill="none" stroke="#bfbfbf" points="0,-180.5 0,-203.5 137,-203.5 137,-180.5 0,-180.5"/>
<text text-anchor="middle" x="68.5" y="-188.3" font-family="Helvetica,sans-Serif" font-size="14.00">QCoreApplication</text>
</a>
</g>
</g>
<!-- Node1&#45;&gt;Node2 -->
<g id="edge1" class="edge">
<title>Node1&#45;&gt;Node2</title>
<path fill="none" stroke="midnightblue" d="M363.31,-240.5C301.57,-230.55 208.9,-215.62 143.99,-205.16"/>
<polygon fill="midnightblue" stroke="midnightblue" points="144.24,-201.66 133.82,-203.52 143.13,-208.57 144.24,-201.66"/>
</g>
<!-- Node3 -->
<g id="node3" class="node">
<title>Node3</title>
<g id="a_node3"><a xlink:title=" ">
<polygon fill="none" stroke="#bfbfbf" points="634.5,-120.5 634.5,-143.5 716.5,-143.5 716.5,-120.5 634.5,-120.5"/>
<text text-anchor="middle" x="675.5" y="-128.3" font-family="Helvetica,sans-Serif" font-size="14.00">QCamera</text>
</a>
</g>
</g>
<!-- Node1&#45;&gt;Node3 -->
<g id="edge2" class="edge">
<title>Node1&#45;&gt;Node3</title>
<path fill="none" stroke="midnightblue" d="M450.86,-240.32C495.03,-219.21 593.61,-172.12 644.22,-147.95"/>
<polygon fill="midnightblue" stroke="midnightblue" points="645.86,-151.04 653.37,-143.57 642.84,-144.72 645.86,-151.04"/>
</g>
<!-- Node4 -->
<g id="node4" class="node">
<title>Node4</title>
<g id="a_node4"><a xlink:title=" ">
<polygon fill="none" stroke="#bfbfbf" points="226,-60.5 226,-83.5 297,-83.5 297,-60.5 226,-60.5"/>
<text text-anchor="middle" x="261.5" y="-68.3" font-family="Helvetica,sans-Serif" font-size="14.00">QImage</text>
</a>
</g>
</g>
<!-- Node1&#45;&gt;Node4 -->
<g id="edge3" class="edge">
<title>Node1&#45;&gt;Node4</title>
<path fill="none" stroke="midnightblue" d="M377.44,-240.39C328.08,-227.13 255.98,-199.11 222.5,-144 211.62,-126.09 226.62,-104.97 241.06,-90.45"/>
<polygon fill="midnightblue" stroke="midnightblue" points="243.55,-92.92 248.42,-83.51 238.74,-87.82 243.55,-92.92"/>
</g>
<!-- Node5 -->
<g id="node5" class="node">
<title>Node5</title>
<g id="a_node5"><a xlink:title=" ">
<polygon fill="none" stroke="#bfbfbf" points="193.5,-0.5 193.5,-23.5 267.5,-23.5 267.5,-0.5 193.5,-0.5"/>
<text text-anchor="middle" x="230.5" y="-8.3" font-family="Helvetica,sans-Serif" font-size="14.00">QDebug</text>
</a>
</g>
</g>
<!-- Node1&#45;&gt;Node5 -->
<g id="edge4" class="edge">
<title>Node1&#45;&gt;Node5</title>
<path fill="none" stroke="midnightblue" d="M363.49,-246.01C327.21,-240.43 282.93,-228.68 250.5,-204 198.17,-164.18 206.47,-124.99 216.5,-60 217.89,-51.01 220.56,-41.33 223.2,-33.11"/>
<polygon fill="midnightblue" stroke="midnightblue" points="226.51,-34.23 226.42,-23.64 219.89,-31.97 226.51,-34.23"/>
</g>
<!-- Node6 -->
<g id="node6" class="node">
<title>Node6</title>
<g id="a_node6"><a xlink:title=" ">
<polygon fill="none" stroke="#bfbfbf" points="1048,-180.5 1048,-203.5 1131,-203.5 1131,-180.5 1048,-180.5"/>
<text text-anchor="middle" x="1089.5" y="-188.3" font-family="Helvetica,sans-Serif" font-size="14.00">algorithm</text>
</a>
</g>
</g>
<!-- Node1&#45;&gt;Node6 -->
<g id="edge5" class="edge">
<title>Node1&#45;&gt;Node6</title>
<path fill="none" stroke="midnightblue" d="M493.94,-248.97C604.32,-244.88 834.59,-233.53 1037.87,-204.08"/>
<polygon fill="midnightblue" stroke="midnightblue" points="1038.45,-207.54 1047.84,-202.62 1037.44,-200.61 1038.45,-207.54"/>
</g>
<!-- Node7 -->
<g id="node7" class="node">
<title>Node7</title>
<g id="a_node7"><a xlink:href="CameraUSB_8h.html" target="_top" xlink:title="Camera backend for USB.">
<polygon fill="none" stroke="black" points="917,-180.5 917,-203.5 1030,-203.5 1030,-180.5 917,-180.5"/>
<text text-anchor="middle" x="973.5" y="-188.3" font-family="Helvetica,sans-Serif" font-size="14.00">CameraUSB.h</text>
</a>
</g>
</g>
<!-- Node1&#45;&gt;Node7 -->
<g id="edge6" class="edge">
<title>Node1&#45;&gt;Node7</title>
<path fill="none" stroke="midnightblue" d="M493.7,-244.06C598.01,-232.96 801.38,-211.32 906.7,-200.11"/>
<polygon fill="midnightblue" stroke="midnightblue" points="907.31,-203.56 916.89,-199.02 906.57,-196.6 907.31,-203.56"/>
</g>
<!-- Node27 -->
<g id="node27" class="node">
<title>Node27</title>
<g id="a_node27"><a xlink:href="Utils_8h.html" target="_top" xlink:title="Utility helpers.">
<polygon fill="none" stroke="black" points="398,-180.5 398,-203.5 459,-203.5 459,-180.5 398,-180.5"/>
<text text-anchor="middle" x="428.5" y="-188.3" font-family="Helvetica,sans-Serif" font-size="14.00">Utils.h</text>
</a>
</g>
</g>
<!-- Node1&#45;&gt;Node27 -->
<g id="edge30" class="edge">
<title>Node1&#45;&gt;Node27</title>
<path fill="none" stroke="midnightblue" d="M428.5,-240.36C428.5,-232.92 428.5,-222.74 428.5,-213.73"/>
<polygon fill="midnightblue" stroke="midnightblue" points="432,-213.57 428.5,-203.57 425,-213.57 432,-213.57"/>
</g>
<!-- Node7&#45;&gt;Node3 -->
<g id="edge8" class="edge">
<title>Node7&#45;&gt;Node3</title>
<path fill="none" stroke="midnightblue" d="M916.77,-180.74C868.71,-171.93 797.7,-158.66 726.7,-144.21"/>
<polygon fill="midnightblue" stroke="midnightblue" points="727.18,-140.73 716.68,-142.16 725.78,-147.59 727.18,-140.73"/>
</g>
<!-- Node8 -->
<g id="node8" class="node">
<title>Node8</title>
<g id="a_node8"><a xlink:title=" ">
<polygon fill="none" stroke="#bfbfbf" points="1375,-0.5 1375,-23.5 1452,-23.5 1452,-0.5 1375,-0.5"/>
<text text-anchor="middle" x="1413.5" y="-8.3" font-family="Helvetica,sans-Serif" font-size="14.00">QtGlobal</text>
</a>
</g>
</g>
<!-- Node7&#45;&gt;Node8 -->
<g id="edge7" class="edge">
<title>Node7&#45;&gt;Node8</title>
<path fill="none" stroke="midnightblue" d="M1030.33,-181.15C1033.43,-180.73 1036.5,-180.35 1039.5,-180 1101.77,-172.84 1559.61,-189.72 1602.5,-144 1652.78,-90.4 1533.01,-46.15 1461.76,-25.51"/>
<polygon fill="midnightblue" stroke="midnightblue" points="1462.63,-22.12 1452.05,-22.76 1460.72,-28.86 1462.63,-22.12"/>
</g>
<!-- Node9 -->
<g id="node9" class="node">
<title>Node9</title>
<g id="a_node9"><a xlink:title=" ">
<polygon fill="none" stroke="#bfbfbf" points="836.5,-120.5 836.5,-143.5 964.5,-143.5 964.5,-120.5 836.5,-120.5"/>
<text text-anchor="middle" x="900.5" y="-128.3" font-family="Helvetica,sans-Serif" font-size="14.00">QCameraDevice</text>
</a>
</g>
</g>
<!-- Node7&#45;&gt;Node9 -->
<g id="edge9" class="edge">
<title>Node7&#45;&gt;Node9</title>
<path fill="none" stroke="midnightblue" d="M960.11,-180.36C949.41,-171.86 934.2,-159.78 921.83,-149.95"/>
<polygon fill="midnightblue" stroke="midnightblue" points="923.81,-147.05 913.8,-143.57 919.46,-152.53 923.81,-147.05"/>
</g>
<!-- Node10 -->
<g id="node10" class="node">
<title>Node10</title>
<g id="a_node10"><a xlink:title=" ">
<polygon fill="none" stroke="#bfbfbf" points="982.5,-120.5 982.5,-143.5 1112.5,-143.5 1112.5,-120.5 982.5,-120.5"/>
<text text-anchor="middle" x="1047.5" y="-128.3" font-family="Helvetica,sans-Serif" font-size="14.00">QCameraFormat</text>
</a>
</g>
</g>
<!-- Node7&#45;&gt;Node10 -->
<g id="edge10" class="edge">
<title>Node7&#45;&gt;Node10</title>
<path fill="none" stroke="midnightblue" d="M987.07,-180.36C997.92,-171.86 1013.33,-159.78 1025.88,-149.95"/>
<polygon fill="midnightblue" stroke="midnightblue" points="1028.3,-152.49 1034.01,-143.57 1023.98,-146.98 1028.3,-152.49"/>
</g>
<!-- Node11 -->
<g id="node11" class="node">
<title>Node11</title>
<g id="a_node11"><a xlink:title=" ">
<polygon fill="none" stroke="#bfbfbf" points="1130.5,-120.5 1130.5,-143.5 1256.5,-143.5 1256.5,-120.5 1130.5,-120.5"/>
<text text-anchor="middle" x="1193.5" y="-128.3" font-family="Helvetica,sans-Serif" font-size="14.00">QImageCapture</text>
</a>
</g>
</g>
<!-- Node7&#45;&gt;Node11 -->
<g id="edge11" class="edge">
<title>Node7&#45;&gt;Node11</title>
<path fill="none" stroke="midnightblue" d="M1013.34,-180.5C1049.98,-170.84 1104.45,-156.48 1143.9,-146.08"/>
<polygon fill="midnightblue" stroke="midnightblue" points="1144.81,-149.46 1153.58,-143.52 1143.02,-142.69 1144.81,-149.46"/>
</g>
<!-- Node12 -->
<g id="node12" class="node">
<title>Node12</title>
<g id="a_node12"><a xlink:title=" ">
<polygon fill="none" stroke="#bfbfbf" points="1275,-120.5 1275,-143.5 1452,-143.5 1452,-120.5 1275,-120.5"/>
<text text-anchor="middle" x="1363.5" y="-128.3" font-family="Helvetica,sans-Serif" font-size="14.00">QMediaCaptureSession</text>
</a>
</g>
</g>
<!-- Node7&#45;&gt;Node12 -->
<g id="edge12" class="edge">
<title>Node7&#45;&gt;Node12</title>
<path fill="none" stroke="midnightblue" d="M1030.01,-181.5C1033.22,-180.99 1036.4,-180.48 1039.5,-180 1120.13,-167.43 1212.23,-154.18 1277.57,-144.96"/>
<polygon fill="midnightblue" stroke="midnightblue" points="1278.4,-148.38 1287.82,-143.52 1277.43,-141.45 1278.4,-148.38"/>
</g>
<!-- Node13 -->
<g id="node13" class="node">
<title>Node13</title>
<g id="a_node13"><a xlink:title=" ">
<polygon fill="none" stroke="#bfbfbf" points="1470,-120.5 1470,-143.5 1593,-143.5 1593,-120.5 1470,-120.5"/>
<text text-anchor="middle" x="1531.5" y="-128.3" font-family="Helvetica,sans-Serif" font-size="14.00">QMediaDevices</text>
</a>
</g>
</g>
<!-- Node7&#45;&gt;Node13 -->
<g id="edge13" class="edge">
<title>Node7&#45;&gt;Node13</title>
<path fill="none" stroke="midnightblue" d="M1030.34,-181.23C1033.43,-180.79 1036.5,-180.38 1039.5,-180 1222.98,-156.92 1272.88,-166.28 1459.54,-144.17"/>
<polygon fill="midnightblue" stroke="midnightblue" points="1460.18,-147.62 1469.7,-142.95 1459.35,-140.67 1460.18,-147.62"/>
</g>
<!-- Node14 -->
<g id="node14" class="node">
<title>Node14</title>
<g id="a_node14"><a xlink:href="Camera_8h.html" target="_top" xlink:title="Camera backend for .">
<polygon fill="none" stroke="black" points="734.5,-120.5 734.5,-143.5 818.5,-143.5 818.5,-120.5 734.5,-120.5"/>
<text text-anchor="middle" x="776.5" y="-128.3" font-family="Helvetica,sans-Serif" font-size="14.00">Camera.h</text>
</a>
</g>
</g>
<!-- Node7&#45;&gt;Node14 -->
<g id="edge14" class="edge">
<title>Node7&#45;&gt;Node14</title>
<path fill="none" stroke="midnightblue" d="M937.82,-180.5C905.43,-170.96 857.48,-156.84 822.27,-146.48"/>
<polygon fill="midnightblue" stroke="midnightblue" points="822.82,-142.99 812.24,-143.52 820.85,-149.7 822.82,-142.99"/>
</g>
<!-- Node14&#45;&gt;Node4 -->
<g id="edge18" class="edge">
<title>Node14&#45;&gt;Node4</title>
<path fill="none" stroke="midnightblue" d="M734.27,-121.48C731.31,-120.94 728.36,-120.44 725.5,-120 554.76,-93.74 510.05,-104.22 338.5,-84 328.34,-82.8 317.45,-81.35 307.16,-79.9"/>
<polygon fill="midnightblue" stroke="midnightblue" points="307.5,-76.41 297.1,-78.46 306.51,-83.34 307.5,-76.41"/>
</g>
<!-- Node15 -->
<g id="node15" class="node">
<title>Node15</title>
<g id="a_node15"><a xlink:title=" ">
<polygon fill="none" stroke="#bfbfbf" points="1190.5,-60.5 1190.5,-83.5 1256.5,-83.5 1256.5,-60.5 1190.5,-60.5"/>
<text text-anchor="middle" x="1223.5" y="-68.3" font-family="Helvetica,sans-Serif" font-size="14.00">math.h</text>
</a>
</g>
</g>
<!-- Node14&#45;&gt;Node15 -->
<g id="edge15" class="edge">
<title>Node14&#45;&gt;Node15</title>
<path fill="none" stroke="midnightblue" d="M818.73,-121.51C821.69,-120.96 824.64,-120.45 827.5,-120 980.5,-95.8 1024.1,-111.45 1180.18,-84.02"/>
<polygon fill="midnightblue" stroke="midnightblue" points="1180.91,-87.44 1190.13,-82.24 1179.67,-80.55 1180.91,-87.44"/>
</g>
<!-- Node16 -->
<g id="node16" class="node">
<title>Node16</title>
<g id="a_node16"><a xlink:title=" ">
<polygon fill="none" stroke="#bfbfbf" points="1274.5,-60.5 1274.5,-83.5 1350.5,-83.5 1350.5,-60.5 1274.5,-60.5"/>
<text text-anchor="middle" x="1312.5" y="-68.3" font-family="Helvetica,sans-Serif" font-size="14.00">QThread</text>
</a>
</g>
</g>
<!-- Node14&#45;&gt;Node16 -->
<g id="edge16" class="edge">
<title>Node14&#45;&gt;Node16</title>
<path fill="none" stroke="midnightblue" d="M818.72,-121.45C821.69,-120.92 824.63,-120.43 827.5,-120 1017.5,-91.82 1070.79,-113.59 1264.44,-83.97"/>
<polygon fill="midnightblue" stroke="midnightblue" points="1265.03,-87.42 1274.37,-82.42 1263.95,-80.5 1265.03,-87.42"/>
</g>
<!-- Node17 -->
<g id="node17" class="node">
<title>Node17</title>
<g id="a_node17"><a xlink:title=" ">
<polygon fill="none" stroke="#bfbfbf" points="440,-60.5 440,-83.5 519,-83.5 519,-60.5 440,-60.5"/>
<text text-anchor="middle" x="479.5" y="-68.3" font-family="Helvetica,sans-Serif" font-size="14.00">QPixmap</text>
</a>
</g>
</g>
<!-- Node14&#45;&gt;Node17 -->
<g id="edge17" class="edge">
<title>Node14&#45;&gt;Node17</title>
<path fill="none" stroke="midnightblue" d="M734.5,-121.83C731.45,-121.2 728.43,-120.58 725.5,-120 641.28,-103.23 617.38,-101.83 528.98,-84.03"/>
<polygon fill="midnightblue" stroke="midnightblue" points="529.55,-80.58 519.05,-82.02 528.16,-87.44 529.55,-80.58"/>
</g>
<!-- Node18 -->
<g id="node18" class="node">
<title>Node18</title>
<g id="a_node18"><a xlink:title=" ">
<polygon fill="none" stroke="#bfbfbf" points="537,-60.5 537,-83.5 634,-83.5 634,-60.5 537,-60.5"/>
<text text-anchor="middle" x="585.5" y="-68.3" font-family="Helvetica,sans-Serif" font-size="14.00">QByteArray</text>
</a>
</g>
</g>
<!-- Node14&#45;&gt;Node18 -->
<g id="edge19" class="edge">
<title>Node14&#45;&gt;Node18</title>
<path fill="none" stroke="midnightblue" d="M741.91,-120.5C710.5,-110.96 664.01,-96.84 629.87,-86.48"/>
<polygon fill="midnightblue" stroke="midnightblue" points="630.74,-83.08 620.15,-83.52 628.71,-89.78 630.74,-83.08"/>
</g>
<!-- Node19 -->
<g id="node19" class="node">
<title>Node19</title>
<g id="a_node19"><a xlink:title=" ">
<polygon fill="none" stroke="#bfbfbf" points="652,-60.5 652,-83.5 723,-83.5 723,-60.5 652,-60.5"/>
<text text-anchor="middle" x="687.5" y="-68.3" font-family="Helvetica,sans-Serif" font-size="14.00">QBuffer</text>
</a>
</g>
</g>
<!-- Node14&#45;&gt;Node19 -->
<g id="edge20" class="edge">
<title>Node14&#45;&gt;Node19</title>
<path fill="none" stroke="midnightblue" d="M760.18,-120.36C746.75,-111.61 727.52,-99.08 712.21,-89.1"/>
<polygon fill="midnightblue" stroke="midnightblue" points="714.01,-86.1 703.72,-83.57 710.19,-91.96 714.01,-86.1"/>
</g>
<!-- Node20 -->
<g id="node20" class="node">
<title>Node20</title>
<g id="a_node20"><a xlink:title=" ">
<polygon fill="none" stroke="#bfbfbf" points="741,-60.5 741,-83.5 812,-83.5 812,-60.5 741,-60.5"/>
<text text-anchor="middle" x="776.5" y="-68.3" font-family="Helvetica,sans-Serif" font-size="14.00">QMutex</text>
</a>
</g>
</g>
<!-- Node14&#45;&gt;Node20 -->
<g id="edge21" class="edge">
<title>Node14&#45;&gt;Node20</title>
<path fill="none" stroke="midnightblue" d="M776.5,-120.36C776.5,-112.92 776.5,-102.74 776.5,-93.73"/>
<polygon fill="midnightblue" stroke="midnightblue" points="780,-93.57 776.5,-83.57 773,-93.57 780,-93.57"/>
</g>
<!-- Node21 -->
<g id="node21" class="node">
<title>Node21</title>
<g id="a_node21"><a xlink:title=" ">
<polygon fill="none" stroke="#bfbfbf" points="830.5,-60.5 830.5,-83.5 954.5,-83.5 954.5,-60.5 830.5,-60.5"/>
<text text-anchor="middle" x="892.5" y="-68.3" font-family="Helvetica,sans-Serif" font-size="14.00">QWaitCondition</text>
</a>
</g>
</g>
<!-- Node14&#45;&gt;Node21 -->
<g id="edge22" class="edge">
<title>Node14&#45;&gt;Node21</title>
<path fill="none" stroke="midnightblue" d="M797.51,-120.5C815.54,-111.48 841.77,-98.36 862.1,-88.2"/>
<polygon fill="midnightblue" stroke="midnightblue" points="863.88,-91.22 871.26,-83.62 860.75,-84.96 863.88,-91.22"/>
</g>
<!-- Node22 -->
<g id="node22" class="node">
<title>Node22</title>
<g id="a_node22"><a xlink:title=" ">
<polygon fill="none" stroke="#bfbfbf" points="972.5,-60.5 972.5,-83.5 1034.5,-83.5 1034.5,-60.5 972.5,-60.5"/>
<text text-anchor="middle" x="1003.5" y="-68.3" font-family="Helvetica,sans-Serif" font-size="14.00">QTime</text>
</a>
</g>
</g>
<!-- Node14&#45;&gt;Node22 -->
<g id="edge23" class="edge">
<title>Node14&#45;&gt;Node22</title>
<path fill="none" stroke="midnightblue" d="M818.53,-120.72C854.33,-111.9 907.37,-98.68 962.19,-84.31"/>
<polygon fill="midnightblue" stroke="midnightblue" points="963.29,-87.64 972.07,-81.71 961.51,-80.87 963.29,-87.64"/>
</g>
<!-- Node23 -->
<g id="node23" class="node">
<title>Node23</title>
<g id="a_node23"><a xlink:href="PosixCompat_8h.html" target="_top" xlink:title=" ">
<polygon fill="none" stroke="black" points="1052.5,-60.5 1052.5,-83.5 1172.5,-83.5 1172.5,-60.5 1052.5,-60.5"/>
<text text-anchor="middle" x="1112.5" y="-68.3" font-family="Helvetica,sans-Serif" font-size="14.00">PosixCompat.h</text>
</a>
</g>
</g>
<!-- Node14&#45;&gt;Node23 -->
<g id="edge24" class="edge">
<title>Node14&#45;&gt;Node23</title>
<path fill="none" stroke="midnightblue" d="M818.77,-121.72C821.72,-121.12 824.65,-120.54 827.5,-120 848.22,-116.06 964.74,-97.01 1042.23,-84.4"/>
<polygon fill="midnightblue" stroke="midnightblue" points="1043.11,-87.81 1052.42,-82.75 1041.99,-80.9 1043.11,-87.81"/>
</g>
<!-- Node25 -->
<g id="node25" class="node">
<title>Node25</title>
<g id="a_node25"><a xlink:href="QsLog_8h.html" target="_top" xlink:title="Qs Log logging support.">
<polygon fill="none" stroke="black" points="347.5,-60.5 347.5,-83.5 421.5,-83.5 421.5,-60.5 347.5,-60.5"/>
<text text-anchor="middle" x="384.5" y="-68.3" font-family="Helvetica,sans-Serif" font-size="14.00">QsLog.h</text>
</a>
</g>
</g>
<!-- Node14&#45;&gt;Node25 -->
<g id="edge27" class="edge">
<title>Node14&#45;&gt;Node25</title>
<path fill="none" stroke="midnightblue" d="M734.26,-121.58C731.3,-121.02 728.36,-120.48 725.5,-120 595.69,-98.1 561.11,-107.03 431.5,-84 431.4,-83.98 431.3,-83.96 431.2,-83.95"/>
<polygon fill="midnightblue" stroke="midnightblue" points="432.11,-80.56 421.62,-82.08 430.77,-87.43 432.11,-80.56"/>
</g>
<!-- Node23&#45;&gt;Node8 -->
<g id="edge25" class="edge">
<title>Node23&#45;&gt;Node8</title>
<path fill="none" stroke="midnightblue" d="M1167.01,-60.5C1223.35,-49.64 1310.5,-32.85 1364.66,-22.41"/>
<polygon fill="midnightblue" stroke="midnightblue" points="1365.54,-25.81 1374.7,-20.48 1364.22,-18.93 1365.54,-25.81"/>
</g>
<!-- Node24 -->
<g id="node24" class="node">
<title>Node24</title>
<g id="a_node24"><a xlink:title=" ">
<polygon fill="none" stroke="#bfbfbf" points="1075.5,-0.5 1075.5,-23.5 1149.5,-23.5 1149.5,-0.5 1075.5,-0.5"/>
<text text-anchor="middle" x="1112.5" y="-8.3" font-family="Helvetica,sans-Serif" font-size="14.00">unistd.h</text>
</a>
</g>
</g>
<!-- Node23&#45;&gt;Node24 -->
<g id="edge26" class="edge">
<title>Node23&#45;&gt;Node24</title>
<path fill="none" stroke="midnightblue" d="M1112.5,-60.36C1112.5,-52.92 1112.5,-42.74 1112.5,-33.73"/>
<polygon fill="midnightblue" stroke="midnightblue" points="1116,-33.57 1112.5,-23.57 1109,-33.57 1116,-33.57"/>
</g>
<!-- Node25&#45;&gt;Node5 -->
<g id="edge28" class="edge">
<title>Node25&#45;&gt;Node5</title>
<path fill="none" stroke="midnightblue" d="M356.61,-60.5C331.83,-51.16 295.4,-37.44 268.06,-27.15"/>
<polygon fill="midnightblue" stroke="midnightblue" points="269.03,-23.77 258.44,-23.52 266.57,-30.32 269.03,-23.77"/>
</g>
<!-- Node26 -->
<g id="node26" class="node">
<title>Node26</title>
<g id="a_node26"><a xlink:title=" ">
<polygon fill="none" stroke="#bfbfbf" points="349.5,-0.5 349.5,-23.5 419.5,-23.5 419.5,-0.5 349.5,-0.5"/>
<text text-anchor="middle" x="384.5" y="-8.3" font-family="Helvetica,sans-Serif" font-size="14.00">QString</text>
</a>
</g>
</g>
<!-- Node25&#45;&gt;Node26 -->
<g id="edge29" class="edge">
<title>Node25&#45;&gt;Node26</title>
<path fill="none" stroke="midnightblue" d="M384.5,-60.36C384.5,-52.92 384.5,-42.74 384.5,-33.73"/>
<polygon fill="midnightblue" stroke="midnightblue" points="388,-33.57 384.5,-23.57 381,-33.57 388,-33.57"/>
</g>
<!-- Node27&#45;&gt;Node25 -->
<g id="edge35" class="edge">
<title>Node27&#45;&gt;Node25</title>
<path fill="none" stroke="midnightblue" d="M426.4,-180.17C423.49,-166.03 417.64,-140.66 409.5,-120 405.85,-110.73 400.84,-100.93 396.26,-92.69"/>
<polygon fill="midnightblue" stroke="midnightblue" points="399.21,-90.8 391.2,-83.87 393.14,-94.28 399.21,-90.8"/>
</g>
<!-- Node28 -->
<g id="node28" class="node">
<title>Node28</title>
<g id="a_node28"><a xlink:title=" ">
<polygon fill="none" stroke="#bfbfbf" points="456.5,-120.5 456.5,-143.5 550.5,-143.5 550.5,-120.5 456.5,-120.5"/>
<text text-anchor="middle" x="503.5" y="-128.3" font-family="Helvetica,sans-Serif" font-size="14.00">QDateTime</text>
</a>
</g>
</g>
<!-- Node27&#45;&gt;Node28 -->
<g id="edge31" class="edge">
<title>Node27&#45;&gt;Node28</title>
<path fill="none" stroke="midnightblue" d="M442.26,-180.36C453.25,-171.86 468.87,-159.78 481.59,-149.95"/>
<polygon fill="midnightblue" stroke="midnightblue" points="484.06,-152.46 489.83,-143.57 479.78,-146.92 484.06,-152.46"/>
</g>
<!-- Node29 -->
<g id="node29" class="node">
<title>Node29</title>
<g id="a_node29"><a xlink:title=" ">
<polygon fill="none" stroke="#bfbfbf" points="568.5,-120.5 568.5,-143.5 616.5,-143.5 616.5,-120.5 568.5,-120.5"/>
<text text-anchor="middle" x="592.5" y="-128.3" font-family="Helvetica,sans-Serif" font-size="14.00">QDir</text>
</a>
</g>
</g>
<!-- Node27&#45;&gt;Node29 -->
<g id="edge32" class="edge">
<title>Node27&#45;&gt;Node29</title>
<path fill="none" stroke="midnightblue" d="M458.2,-180.5C486.56,-170.47 529.25,-155.37 558.86,-144.9"/>
<polygon fill="midnightblue" stroke="midnightblue" points="560.09,-148.17 568.35,-141.54 557.76,-141.57 560.09,-148.17"/>
</g>
<!-- Node30 -->
<g id="node30" class="node">
<title>Node30</title>
<g id="a_node30"><a xlink:title=" ">
<polygon fill="none" stroke="#bfbfbf" points="232,-120.5 232,-143.5 327,-143.5 327,-120.5 232,-120.5"/>
<text text-anchor="middle" x="279.5" y="-128.3" font-family="Helvetica,sans-Serif" font-size="14.00">QTableView</text>
</a>
</g>
</g>
<!-- Node27&#45;&gt;Node30 -->
<g id="edge33" class="edge">
<title>Node27&#45;&gt;Node30</title>
<path fill="none" stroke="midnightblue" d="M401.52,-180.5C377.65,-171.2 342.61,-157.56 316.19,-147.28"/>
<polygon fill="midnightblue" stroke="midnightblue" points="317.12,-143.89 306.53,-143.52 314.58,-150.41 317.12,-143.89"/>
</g>
<!-- Node31 -->
<g id="node31" class="node">
<title>Node31</title>
<g id="a_node31"><a xlink:title=" ">
<polygon fill="none" stroke="#bfbfbf" points="345,-120.5 345,-143.5 400,-143.5 400,-120.5 345,-120.5"/>
<text text-anchor="middle" x="372.5" y="-128.3" font-family="Helvetica,sans-Serif" font-size="14.00">QtSql</text>
</a>
</g>
</g>
<!-- Node27&#45;&gt;Node31 -->
<g id="edge34" class="edge">
<title>Node27&#45;&gt;Node31</title>
<path fill="none" stroke="midnightblue" d="M418.23,-180.36C410.26,-172.1 399.03,-160.47 389.69,-150.8"/>
<polygon fill="midnightblue" stroke="midnightblue" points="392.17,-148.33 382.71,-143.57 387.13,-153.2 392.17,-148.33"/>
</g>
</g>
</svg>
        <g id="navigator" transform="translate(0 0)" fill="#404254">
                <rect fill="#f2f5e9" fill-opacity="0.5" stroke="#606060" stroke-width=".5" x="0" y="0" width="60" height="60"/>
                <use id="zoomplus" xlink:href="#zoomPlus" x="17" y="9" onmousedown="handleZoom(evt,'in')"/>
                <use id="zoomminus" xlink:href="#zoomMin" x="42" y="9" onmousedown="handleZoom(evt,'out')"/>
                <use id="reset" xlink:href="#resetDef" x="30" y="36" onmousedown="handleReset()"/>
                <g id="arrowUp" xlink:href="#dirArrow" transform="translate(30 24)" onmousedown="handlePan(0,-1)">
                  <use xlink:href="#rim" fill="#404040">
                        <set attributeName="fill" to="#808080" begin="arrowUp.mouseover" end="arrowUp.mouseout"/>
                  </use>
                  <path fill="none" stroke="white" stroke-width="1.5" d="M0,-3.0v7 M-2.5,-0.5L0,-3.0L2.5,-0.5"/>
                </g>
                <g id="arrowRight" xlink:href="#dirArrow" transform="rotate(90) translate(36 -43)" onmousedown="handlePan(1,0)">
                  <use xlink:href="#rim" fill="#404040">
                        <set attributeName="fill" to="#808080" begin="arrowRight.mouseover" end="arrowRight.mouseout"/>
                  </use>
                  <path fill="none" stroke="white" stroke-width="1.5" d="M0,-3.0v7 M-2.5,-0.5L0,-3.0L2.5,-0.5"/>
                </g>
                <g id="arrowDown" xlink:href="#dirArrow" transform="rotate(180) translate(-30 -48)" onmousedown="handlePan(0,1)">
                  <use xlink:href="#rim" fill="#404040">
                        <set attributeName="fill" to="#808080" begin="arrowDown.mouseover" end="arrowDown.mouseout"/>
                  </use>
                  <path fill="none" stroke="white" stroke-width="1.5" d="M0,-3.0v7 M-2.5,-0.5L0,-3.0L2.5,-0.5"/>
                </g>
                <g id="arrowLeft" xlink:href="#dirArrow" transform="rotate(270) translate(-36 17)" onmousedown="handlePan(-1,0)">
                  <use xlink:href="#rim" fill="#404040">
                        <set attributeName="fill" to="#808080" begin="arrowLeft.mouseover" end="arrowLeft.mouseout"/>
                  </use>
                  <path fill="none" stroke="white" stroke-width="1.5" d="M0,-3.0v7 M-2.5,-0.5L0,-3.0L2.5,-0.5"/>
                </g>
        </g>
        <svg viewBox="0 0 15 15" width="100%" height="30px" preserveAspectRatio="xMaxYMin meet">
         <g id="arrow_out" transform="scale(0.3 0.3)">
          <a xlink:href="CameraUSB_8cpp__incl_org.svg" target="_base">
           <rect id="button" ry="5" rx="5" y="6" x="6" height="38" width="38"
                fill="#f2f5e9" fill-opacity="0.5" stroke="#606060" stroke-width="1.0"/>
           <path id="arrow"
             d="M 11.500037,31.436501 C 11.940474,20.09759 22.043105,11.32322 32.158766,21.979434 L 37.068811,17.246167 C 37.068811,17.246167 37.088388,32 37.088388,32 L 22.160133,31.978069 C 22.160133,31.978069 26.997745,27.140456 26.997745,27.140456 C 18.528582,18.264221 13.291696,25.230495 11.500037,31.436501 z"
             style="fill:#404040;"/>
          </a>
         </g>
        </svg>
</svg>
