<?xml version="1.0" encoding="UTF-8" standalone="no"?>
<!DOCTYPE svg PUBLIC "-//W3C//DTD SVG 1.1//EN"
 "http://www.w3.org/Graphics/SVG/1.1/DTD/svg11.dtd">
<!-- Generated by graphviz version 2.50.0 (0)
 -->
<!-- Title: CameraAlliedVision.h Pages: 1 -->
<svg width="1182pt" height="212pt"
 viewBox="0.00 0.00 1182.00 212.00" xmlns="http://www.w3.org/2000/svg" xmlns:xlink="http://www.w3.org/1999/xlink">
<style><![CDATA[
text { fill: #e6e6e6 !important; }
polygon { fill: #2f2f2f !important; stroke: #9aa0a6 !important; }
path, line, polyline { stroke: #4e67d6 !important; }
]]></style>
<style><![CDATA[
text { fill: #e6e6e6 !important; }
polygon { fill: #2f2f2f !important; stroke: #9aa0a6 !important; }
path, line, polyline { stroke: #4e67d6 !important; }
]]></style>
<style><![CDATA[
text { fill: #e6e6e6 !important; }
polygon { fill: #2f2f2f !important; stroke: #9aa0a6 !important; }
path, line, polyline { stroke: #4e67d6 !important; }
]]></style>
<style><![CDATA[
text { fill: #e6e6e6 !important; }
polygon { fill: #2f2f2f !important; stroke: #9aa0a6 !important; }
path, line, polyline { stroke: #4e67d6 !important; }
]]></style>
<style><![CDATA[
text { fill: #e6e6e6 !important; }
polygon { fill: #2f2f2f !important; stroke: #9aa0a6 !important; }
path, line, polyline { stroke: #4e67d6 !important; }
]]></style>
<style><![CDATA[
text { fill: #e6e6e6 !important; }
polygon { fill: #2f2f2f !important; stroke: #9aa0a6 !important; }
path, line, polyline { stroke: #4e67d6 !important; }
]]></style>
<style><![CDATA[
text { fill: #e6e6e6 !important; }
polygon { fill: #2f2f2f !important; stroke: #9aa0a6 !important; }
path, line, polyline { stroke: #4e67d6 !important; }
]]></style>
<g id="graph0" class="graph" transform="scale(1 1) rotate(0) translate(4 208)">
<title>CameraAlliedVision.h</title>
<!-- Node1 -->
<g id="node1" class="node">
<title>Node1</title>
<g id="a_node1"><a xlink:title="Camera backend for Allied Vision.">
<polygon fill="#bfbfbf" stroke="black" points="433,-180.5 433,-203.5 597,-203.5 597,-180.5 433,-180.5"/>
<text text-anchor="middle" x="515" y="-188.3" font-family="Helvetica,sans-Serif" font-size="14.00">CameraAlliedVision.h</text>
</a>
</g>
</g>
<!-- Node2 -->
<g id="node2" class="node">
<title>Node2</title>
<g id="a_node2"><a xlink:title=" ">
<polygon fill="none" stroke="#bfbfbf" points="305.5,-120.5 305.5,-143.5 454.5,-143.5 454.5,-120.5 305.5,-120.5"/>
<text text-anchor="middle" x="380" y="-128.3" font-family="Helvetica,sans-Serif" font-size="14.00">VmbCPP/VmbCPP.h</text>
</a>
</g>
</g>
<!-- Node1&#45;&gt;Node2 -->
<g id="edge1" class="edge">
<title>Node1&#45;&gt;Node2</title>
<path fill="none" stroke="midnightblue" d="M490.55,-180.5C469.18,-171.32 437.93,-157.89 414.1,-147.65"/>
<polygon fill="midnightblue" stroke="midnightblue" points="415.29,-144.35 404.72,-143.62 412.53,-150.78 415.29,-144.35"/>
</g>
<!-- Node3 -->
<g id="node3" class="node">
<title>Node3</title>
<g id="a_node3"><a xlink:href="Camera_8h.html" target="_top" xlink:title="Camera backend for .">
<polygon fill="none" stroke="black" points="473,-120.5 473,-143.5 557,-143.5 557,-120.5 473,-120.5"/>
<text text-anchor="middle" x="515" y="-128.3" font-family="Helvetica,sans-Serif" font-size="14.00">Camera.h</text>
</a>
</g>
</g>
<!-- Node1&#45;&gt;Node3 -->
<g id="edge2" class="edge">
<title>Node1&#45;&gt;Node3</title>
<path fill="none" stroke="midnightblue" d="M515,-180.36C515,-172.92 515,-162.74 515,-153.73"/>
<polygon fill="midnightblue" stroke="midnightblue" points="518.5,-153.57 515,-143.57 511.5,-153.57 518.5,-153.57"/>
</g>
<!-- Node19 -->
<g id="node19" class="node">
<title>Node19</title>
<g id="a_node19"><a xlink:title=" ">
<polygon fill="none" stroke="#bfbfbf" points="575,-120.5 575,-143.5 647,-143.5 647,-120.5 575,-120.5"/>
<text text-anchor="middle" x="611" y="-128.3" font-family="Helvetica,sans-Serif" font-size="14.00">sstream</text>
</a>
</g>
</g>
<!-- Node1&#45;&gt;Node19 -->
<g id="edge18" class="edge">
<title>Node1&#45;&gt;Node19</title>
<path fill="none" stroke="midnightblue" d="M532.61,-180.36C547.22,-171.53 568.22,-158.84 584.81,-148.82"/>
<polygon fill="midnightblue" stroke="midnightblue" points="586.75,-151.74 593.5,-143.57 583.13,-145.75 586.75,-151.74"/>
</g>
<!-- Node4 -->
<g id="node4" class="node">
<title>Node4</title>
<g id="a_node4"><a xlink:title=" ">
<polygon fill="none" stroke="#bfbfbf" points="0,-60.5 0,-83.5 66,-83.5 66,-60.5 0,-60.5"/>
<text text-anchor="middle" x="33" y="-68.3" font-family="Helvetica,sans-Serif" font-size="14.00">math.h</text>
</a>
</g>
</g>
<!-- Node3&#45;&gt;Node4 -->
<g id="edge3" class="edge">
<title>Node3&#45;&gt;Node4</title>
<path fill="none" stroke="midnightblue" d="M472.79,-121.64C469.49,-121.04 466.19,-120.48 463,-120 295.03,-94.53 247.37,-113.29 76.46,-84.02"/>
<polygon fill="midnightblue" stroke="midnightblue" points="76.81,-80.53 66.36,-82.26 75.61,-87.43 76.81,-80.53"/>
</g>
<!-- Node5 -->
<g id="node5" class="node">
<title>Node5</title>
<g id="a_node5"><a xlink:title=" ">
<polygon fill="none" stroke="#bfbfbf" points="84,-60.5 84,-83.5 160,-83.5 160,-60.5 84,-60.5"/>
<text text-anchor="middle" x="122" y="-68.3" font-family="Helvetica,sans-Serif" font-size="14.00">QThread</text>
</a>
</g>
</g>
<!-- Node3&#45;&gt;Node5 -->
<g id="edge4" class="edge">
<title>Node3&#45;&gt;Node5</title>
<path fill="none" stroke="midnightblue" d="M472.77,-121.75C469.47,-121.12 466.19,-120.53 463,-120 336.32,-98.89 300.36,-106.63 170.11,-84.05"/>
<polygon fill="midnightblue" stroke="midnightblue" points="170.6,-80.58 160.15,-82.29 169.39,-87.47 170.6,-80.58"/>
</g>
<!-- Node6 -->
<g id="node6" class="node">
<title>Node6</title>
<g id="a_node6"><a xlink:title=" ">
<polygon fill="none" stroke="#bfbfbf" points="178.5,-60.5 178.5,-83.5 257.5,-83.5 257.5,-60.5 178.5,-60.5"/>
<text text-anchor="middle" x="218" y="-68.3" font-family="Helvetica,sans-Serif" font-size="14.00">QPixmap</text>
</a>
</g>
</g>
<!-- Node3&#45;&gt;Node6 -->
<g id="edge5" class="edge">
<title>Node3&#45;&gt;Node6</title>
<path fill="none" stroke="midnightblue" d="M472.73,-121.96C469.44,-121.28 466.17,-120.62 463,-120 378.74,-103.39 354.84,-102.02 267.35,-84.22"/>
<polygon fill="midnightblue" stroke="midnightblue" points="268.02,-80.78 257.52,-82.2 266.62,-87.64 268.02,-80.78"/>
</g>
<!-- Node7 -->
<g id="node7" class="node">
<title>Node7</title>
<g id="a_node7"><a xlink:title=" ">
<polygon fill="none" stroke="#bfbfbf" points="275.5,-60.5 275.5,-83.5 346.5,-83.5 346.5,-60.5 275.5,-60.5"/>
<text text-anchor="middle" x="311" y="-68.3" font-family="Helvetica,sans-Serif" font-size="14.00">QImage</text>
</a>
</g>
</g>
<!-- Node3&#45;&gt;Node7 -->
<g id="edge6" class="edge">
<title>Node3&#45;&gt;Node7</title>
<path fill="none" stroke="midnightblue" d="M478.06,-120.5C443.95,-110.8 393.18,-96.36 356.57,-85.96"/>
<polygon fill="midnightblue" stroke="midnightblue" points="357.22,-82.5 346.64,-83.13 355.3,-89.24 357.22,-82.5"/>
</g>
<!-- Node8 -->
<g id="node8" class="node">
<title>Node8</title>
<g id="a_node8"><a xlink:title=" ">
<polygon fill="none" stroke="#bfbfbf" points="364.5,-60.5 364.5,-83.5 461.5,-83.5 461.5,-60.5 364.5,-60.5"/>
<text text-anchor="middle" x="413" y="-68.3" font-family="Helvetica,sans-Serif" font-size="14.00">QByteArray</text>
</a>
</g>
</g>
<!-- Node3&#45;&gt;Node8 -->
<g id="edge7" class="edge">
<title>Node3&#45;&gt;Node8</title>
<path fill="none" stroke="midnightblue" d="M496.29,-120.36C480.62,-111.45 458.04,-98.61 440.34,-88.54"/>
<polygon fill="midnightblue" stroke="midnightblue" points="442.01,-85.47 431.59,-83.57 438.55,-91.56 442.01,-85.47"/>
</g>
<!-- Node9 -->
<g id="node9" class="node">
<title>Node9</title>
<g id="a_node9"><a xlink:title=" ">
<polygon fill="none" stroke="#bfbfbf" points="479.5,-60.5 479.5,-83.5 550.5,-83.5 550.5,-60.5 479.5,-60.5"/>
<text text-anchor="middle" x="515" y="-68.3" font-family="Helvetica,sans-Serif" font-size="14.00">QBuffer</text>
</a>
</g>
</g>
<!-- Node3&#45;&gt;Node9 -->
<g id="edge8" class="edge">
<title>Node3&#45;&gt;Node9</title>
<path fill="none" stroke="midnightblue" d="M515,-120.36C515,-112.92 515,-102.74 515,-93.73"/>
<polygon fill="midnightblue" stroke="midnightblue" points="518.5,-93.57 515,-83.57 511.5,-93.57 518.5,-93.57"/>
</g>
<!-- Node10 -->
<g id="node10" class="node">
<title>Node10</title>
<g id="a_node10"><a xlink:title=" ">
<polygon fill="none" stroke="#bfbfbf" points="568.5,-60.5 568.5,-83.5 639.5,-83.5 639.5,-60.5 568.5,-60.5"/>
<text text-anchor="middle" x="604" y="-68.3" font-family="Helvetica,sans-Serif" font-size="14.00">QMutex</text>
</a>
</g>
</g>
<!-- Node3&#45;&gt;Node10 -->
<g id="edge9" class="edge">
<title>Node3&#45;&gt;Node10</title>
<path fill="none" stroke="midnightblue" d="M531.32,-120.36C544.75,-111.61 563.98,-99.08 579.29,-89.1"/>
<polygon fill="midnightblue" stroke="midnightblue" points="581.31,-91.96 587.78,-83.57 577.49,-86.1 581.31,-91.96"/>
</g>
<!-- Node11 -->
<g id="node11" class="node">
<title>Node11</title>
<g id="a_node11"><a xlink:title=" ">
<polygon fill="none" stroke="#bfbfbf" points="658,-60.5 658,-83.5 782,-83.5 782,-60.5 658,-60.5"/>
<text text-anchor="middle" x="720" y="-68.3" font-family="Helvetica,sans-Serif" font-size="14.00">QWaitCondition</text>
</a>
</g>
</g>
<!-- Node3&#45;&gt;Node11 -->
<g id="edge10" class="edge">
<title>Node3&#45;&gt;Node11</title>
<path fill="none" stroke="midnightblue" d="M552.12,-120.5C585.98,-110.92 636.16,-96.72 672.84,-86.34"/>
<polygon fill="midnightblue" stroke="midnightblue" points="674.14,-89.61 682.81,-83.52 672.23,-82.88 674.14,-89.61"/>
</g>
<!-- Node12 -->
<g id="node12" class="node">
<title>Node12</title>
<g id="a_node12"><a xlink:title=" ">
<polygon fill="none" stroke="#bfbfbf" points="800,-60.5 800,-83.5 862,-83.5 862,-60.5 800,-60.5"/>
<text text-anchor="middle" x="831" y="-68.3" font-family="Helvetica,sans-Serif" font-size="14.00">QTime</text>
</a>
</g>
</g>
<!-- Node3&#45;&gt;Node12 -->
<g id="edge11" class="edge">
<title>Node3&#45;&gt;Node12</title>
<path fill="none" stroke="midnightblue" d="M557.27,-121.7C560.22,-121.11 563.15,-120.53 566,-120 662.42,-101.9 690.3,-105.22 789.78,-84.1"/>
<polygon fill="midnightblue" stroke="midnightblue" points="790.6,-87.5 799.64,-81.97 789.12,-80.66 790.6,-87.5"/>
</g>
<!-- Node13 -->
<g id="node13" class="node">
<title>Node13</title>
<g id="a_node13"><a xlink:href="PosixCompat_8h.html" target="_top" xlink:title=" ">
<polygon fill="none" stroke="black" points="880,-60.5 880,-83.5 1000,-83.5 1000,-60.5 880,-60.5"/>
<text text-anchor="middle" x="940" y="-68.3" font-family="Helvetica,sans-Serif" font-size="14.00">PosixCompat.h</text>
</a>
</g>
</g>
<!-- Node3&#45;&gt;Node13 -->
<g id="edge12" class="edge">
<title>Node3&#45;&gt;Node13</title>
<path fill="none" stroke="midnightblue" d="M557.24,-121.57C560.2,-121 563.14,-120.48 566,-120 697.49,-98.11 734.09,-102.52 869.86,-84.11"/>
<polygon fill="midnightblue" stroke="midnightblue" points="870.38,-87.57 879.81,-82.74 869.43,-80.64 870.38,-87.57"/>
</g>
<!-- Node16 -->
<g id="node16" class="node">
<title>Node16</title>
<g id="a_node16"><a xlink:href="QsLog_8h.html" target="_top" xlink:title="Qs Log logging support.">
<polygon fill="none" stroke="black" points="1018,-60.5 1018,-83.5 1092,-83.5 1092,-60.5 1018,-60.5"/>
<text text-anchor="middle" x="1055" y="-68.3" font-family="Helvetica,sans-Serif" font-size="14.00">QsLog.h</text>
</a>
</g>
</g>
<!-- Node3&#45;&gt;Node16 -->
<g id="edge15" class="edge">
<title>Node3&#45;&gt;Node16</title>
<path fill="none" stroke="midnightblue" d="M557.22,-121.45C560.19,-120.91 563.13,-120.42 566,-120 758.17,-91.59 812.14,-114.28 1007.9,-83.96"/>
<polygon fill="midnightblue" stroke="midnightblue" points="1008.61,-87.39 1017.94,-82.38 1007.52,-80.48 1008.61,-87.39"/>
</g>
<!-- Node14 -->
<g id="node14" class="node">
<title>Node14</title>
<g id="a_node14"><a xlink:title=" ">
<polygon fill="none" stroke="#bfbfbf" points="813.5,-0.5 813.5,-23.5 890.5,-23.5 890.5,-0.5 813.5,-0.5"/>
<text text-anchor="middle" x="852" y="-8.3" font-family="Helvetica,sans-Serif" font-size="14.00">QtGlobal</text>
</a>
</g>
</g>
<!-- Node13&#45;&gt;Node14 -->
<g id="edge13" class="edge">
<title>Node13&#45;&gt;Node14</title>
<path fill="none" stroke="midnightblue" d="M923.86,-60.36C910.59,-51.61 891.57,-39.08 876.43,-29.1"/>
<polygon fill="midnightblue" stroke="midnightblue" points="878.31,-26.15 868.04,-23.57 874.46,-32 878.31,-26.15"/>
</g>
<!-- Node15 -->
<g id="node15" class="node">
<title>Node15</title>
<g id="a_node15"><a xlink:title=" ">
<polygon fill="none" stroke="#bfbfbf" points="909,-0.5 909,-23.5 983,-23.5 983,-0.5 909,-0.5"/>
<text text-anchor="middle" x="946" y="-8.3" font-family="Helvetica,sans-Serif" font-size="14.00">unistd.h</text>
</a>
</g>
</g>
<!-- Node13&#45;&gt;Node15 -->
<g id="edge14" class="edge">
<title>Node13&#45;&gt;Node15</title>
<path fill="none" stroke="midnightblue" d="M941.1,-60.36C941.87,-52.92 942.92,-42.74 943.86,-33.73"/>
<polygon fill="midnightblue" stroke="midnightblue" points="947.36,-33.88 944.91,-23.57 940.4,-33.16 947.36,-33.88"/>
</g>
<!-- Node17 -->
<g id="node17" class="node">
<title>Node17</title>
<g id="a_node17"><a xlink:title=" ">
<polygon fill="none" stroke="#bfbfbf" points="1012,-0.5 1012,-23.5 1086,-23.5 1086,-0.5 1012,-0.5"/>
<text text-anchor="middle" x="1049" y="-8.3" font-family="Helvetica,sans-Serif" font-size="14.00">QDebug</text>
</a>
</g>
</g>
<!-- Node16&#45;&gt;Node17 -->
<g id="edge16" class="edge">
<title>Node16&#45;&gt;Node17</title>
<path fill="none" stroke="midnightblue" d="M1053.9,-60.36C1053.13,-52.92 1052.08,-42.74 1051.14,-33.73"/>
<polygon fill="midnightblue" stroke="midnightblue" points="1054.6,-33.16 1050.09,-23.57 1047.64,-33.88 1054.6,-33.16"/>
</g>
<!-- Node18 -->
<g id="node18" class="node">
<title>Node18</title>
<g id="a_node18"><a xlink:title=" ">
<polygon fill="none" stroke="#bfbfbf" points="1104,-0.5 1104,-23.5 1174,-23.5 1174,-0.5 1104,-0.5"/>
<text text-anchor="middle" x="1139" y="-8.3" font-family="Helvetica,sans-Serif" font-size="14.00">QString</text>
</a>
</g>
</g>
<!-- Node16&#45;&gt;Node18 -->
<g id="edge17" class="edge">
<title>Node16&#45;&gt;Node18</title>
<path fill="none" stroke="midnightblue" d="M1070.41,-60.36C1082.96,-51.7 1100.89,-39.31 1115.27,-29.38"/>
<polygon fill="midnightblue" stroke="midnightblue" points="1117.45,-32.13 1123.69,-23.57 1113.47,-26.37 1117.45,-32.13"/>
</g>
</g>
</svg>
