<?xml version="1.0" encoding="UTF-8" standalone="no"?>
<!DOCTYPE svg PUBLIC "-//W3C//DTD SVG 1.1//EN"
 "http://www.w3.org/Graphics/SVG/1.1/DTD/svg11.dtd">
<!-- Generated by graphviz version 2.50.0 (0)
 -->
<!-- Title: Camera.h Pages: 1 -->
<!--zoomable 272 -->
<svg id="main" version="1.1" xmlns="http://www.w3.org/2000/svg" xmlns:xlink="http://www.w3.org/1999/xlink" xml:space="preserve" onload="init(evt)">
<style><![CDATA[
text { fill: #e6e6e6 !important; }
polygon { fill: #2f2f2f !important; stroke: #9aa0a6 !important; }
path, line, polyline { stroke: #4e67d6 !important; }
]]></style>
<style><![CDATA[
text { fill: #e6e6e6 !important; }
polygon { fill: #2f2f2f !important; stroke: #9aa0a6 !important; }
path, line, polyline { stroke: #4e67d6 !important; }
]]></style>
<style><![CDATA[
text { fill: #e6e6e6 !important; }
polygon { fill: #2f2f2f !important; stroke: #9aa0a6 !important; }
path, line, polyline { stroke: #4e67d6 !important; }
]]></style>
<style><![CDATA[
text { fill: #e6e6e6 !important; }
polygon { fill: #2f2f2f !important; stroke: #9aa0a6 !important; }
path, line, polyline { stroke: #4e67d6 !important; }
]]></style>
<style><![CDATA[
text { fill: #e6e6e6 !important; }
polygon { fill: #2f2f2f !important; stroke: #9aa0a6 !important; }
path, line, polyline { stroke: #4e67d6 !important; }
]]></style>
<style><![CDATA[
text { fill: #e6e6e6 !important; }
polygon { fill: #2f2f2f !important; stroke: #9aa0a6 !important; }
path, line, polyline { stroke: #4e67d6 !important; }
]]></style>
<style><![CDATA[
text { fill: #e6e6e6 !important; }
polygon { fill: #2f2f2f !important; stroke: #9aa0a6 !important; }
path, line, polyline { stroke: #4e67d6 !important; }
]]></style>
<style><![CDATA[
text { fill: #e6e6e6 !important; }
polygon { fill: #2f2f2f !important; stroke: #9aa0a6 !important; }
path, line, polyline { stroke: #4e67d6 !important; }
]]></style>
<style><![CDATA[
text { fill: #e6e6e6 !important; }
polygon { fill: #2f2f2f !important; stroke: #9aa0a6 !important; }
path, line, polyline { stroke: #4e67d6 !important; }
]]></style>
<style><![CDATA[
text { fill: #e6e6e6 !important; }
polygon { fill: #2f2f2f !important; stroke: #9aa0a6 !important; }
path, line, polyline { stroke: #4e67d6 !important; }
]]></style>
<style><![CDATA[
text { fill: #e6e6e6 !important; }
polygon { fill: #2f2f2f !important; stroke: #9aa0a6 !important; }
path, line, polyline { stroke: #4e67d6 !important; }
]]></style>
<style><![CDATA[
text { fill: #e6e6e6 !important; }
polygon { fill: #2f2f2f !important; stroke: #9aa0a6 !important; }
path, line, polyline { stroke: #4e67d6 !important; }
]]></style>
<style><![CDATA[
text { fill: #e6e6e6 !important; }
polygon { fill: #2f2f2f !important; stroke: #9aa0a6 !important; }
path, line, polyline { stroke: #4e67d6 !important; }
]]></style>
<style><![CDATA[
text { fill: #e6e6e6 !important; }
polygon { fill: #2f2f2f !important; stroke: #9aa0a6 !important; }
path, line, polyline { stroke: #4e67d6 !important; }
]]></style>
<style><![CDATA[
text { fill: #e6e6e6 !important; }
polygon { fill: #2f2f2f !important; stroke: #9aa0a6 !important; }
path, line, polyline { stroke: #4e67d6 !important; }
]]></style>
<style><![CDATA[
text { fill: #e6e6e6 !important; }
polygon { fill: #2f2f2f !important; stroke: #9aa0a6 !important; }
path, line, polyline { stroke: #4e67d6 !important; }
]]></style>
<style><![CDATA[
text { fill: #e6e6e6 !important; }
polygon { fill: #2f2f2f !important; stroke: #9aa0a6 !important; }
path, line, polyline { stroke: #4e67d6 !important; }
]]></style>
<style><![CDATA[
text { fill: #e6e6e6 !important; }
polygon { fill: #2f2f2f !important; stroke: #9aa0a6 !important; }
path, line, polyline { stroke: #4e67d6 !important; }
]]></style>
<style><![CDATA[
text { fill: #e6e6e6 !important; }
polygon { fill: #2f2f2f !important; stroke: #9aa0a6 !important; }
path, line, polyline { stroke: #4e67d6 !important; }
]]></style>
<style><![CDATA[
text { fill: #e6e6e6 !important; }
polygon { fill: #2f2f2f !important; stroke: #9aa0a6 !important; }
path, line, polyline { stroke: #4e67d6 !important; }
]]></style>
<style><![CDATA[
text { fill: #e6e6e6 !important; }
polygon { fill: #2f2f2f !important; stroke: #9aa0a6 !important; }
path, line, polyline { stroke: #4e67d6 !important; }
]]></style>
<style><![CDATA[
text { fill: #e6e6e6 !important; }
polygon { fill: #2f2f2f !important; stroke: #9aa0a6 !important; }
path, line, polyline { stroke: #4e67d6 !important; }
]]></style>
<style><![CDATA[
text { fill: #e6e6e6 !important; }
polygon { fill: #2f2f2f !important; stroke: #9aa0a6 !important; }
path, line, polyline { stroke: #4e67d6 !important; }
]]></style>
<style><![CDATA[
text { fill: #e6e6e6 !important; }
polygon { fill: #2f2f2f !important; stroke: #9aa0a6 !important; }
path, line, polyline { stroke: #4e67d6 !important; }
]]></style>
<style><![CDATA[
text { fill: #e6e6e6 !important; }
polygon { fill: #2f2f2f !important; stroke: #9aa0a6 !important; }
path, line, polyline { stroke: #4e67d6 !important; }
]]></style>
<style><![CDATA[
text { fill: #e6e6e6 !important; }
polygon { fill: #2f2f2f !important; stroke: #9aa0a6 !important; }
path, line, polyline { stroke: #4e67d6 !important; }
]]></style>
<style><![CDATA[
text { fill: #e6e6e6 !important; }
polygon { fill: #2f2f2f !important; stroke: #9aa0a6 !important; }
path, line, polyline { stroke: #4e67d6 !important; }
]]></style>
<style><![CDATA[
text { fill: #e6e6e6 !important; }
polygon { fill: #2f2f2f !important; stroke: #9aa0a6 !important; }
path, line, polyline { stroke: #4e67d6 !important; }
]]></style>
<style><![CDATA[
text { fill: #e6e6e6 !important; }
polygon { fill: #2f2f2f !important; stroke: #9aa0a6 !important; }
path, line, polyline { stroke: #4e67d6 !important; }
]]></style>
<style><![CDATA[
text { fill: #e6e6e6 !important; }
polygon { fill: #2f2f2f !important; stroke: #9aa0a6 !important; }
path, line, polyline { stroke: #4e67d6 !important; }
]]></style>
<style><![CDATA[
text { fill: #e6e6e6 !important; }
polygon { fill: #2f2f2f !important; stroke: #9aa0a6 !important; }
path, line, polyline { stroke: #4e67d6 !important; }
]]></style>
<style><![CDATA[
text { fill: #e6e6e6 !important; }
polygon { fill: #2f2f2f !important; stroke: #9aa0a6 !important; }
path, line, polyline { stroke: #4e67d6 !important; }
]]></style>
<style><![CDATA[
text { fill: #e6e6e6 !important; }
polygon { fill: #2f2f2f !important; stroke: #9aa0a6 !important; }
path, line, polyline { stroke: #4e67d6 !important; }
]]></style>
<style><![CDATA[
text { fill: #e6e6e6 !important; }
polygon { fill: #2f2f2f !important; stroke: #9aa0a6 !important; }
path, line, polyline { stroke: #4e67d6 !important; }
]]></style>
<style><![CDATA[
text { fill: #e6e6e6 !important; }
polygon { fill: #2f2f2f !important; stroke: #9aa0a6 !important; }
path, line, polyline { stroke: #4e67d6 !important; }
]]></style>
<style><![CDATA[
text { fill: #e6e6e6 !important; }
polygon { fill: #2f2f2f !important; stroke: #9aa0a6 !important; }
path, line, polyline { stroke: #4e67d6 !important; }
]]></style>
<style><![CDATA[
text { fill: #e6e6e6 !important; }
polygon { fill: #2f2f2f !important; stroke: #9aa0a6 !important; }
path, line, polyline { stroke: #4e67d6 !important; }
]]></style>
<style><![CDATA[
text { fill: #e6e6e6 !important; }
polygon { fill: #2f2f2f !important; stroke: #9aa0a6 !important; }
path, line, polyline { stroke: #4e67d6 !important; }
]]></style>
<style><![CDATA[
text { fill: #e6e6e6 !important; }
polygon { fill: #2f2f2f !important; stroke: #9aa0a6 !important; }
path, line, polyline { stroke: #4e67d6 !important; }
]]></style>
<style><![CDATA[
text { fill: #e6e6e6 !important; }
polygon { fill: #2f2f2f !important; stroke: #9aa0a6 !important; }
path, line, polyline { stroke: #4e67d6 !important; }
]]></style>
<style><![CDATA[
text { fill: #e6e6e6 !important; }
polygon { fill: #2f2f2f !important; stroke: #9aa0a6 !important; }
path, line, polyline { stroke: #4e67d6 !important; }
]]></style>
<style><![CDATA[
text { fill: #e6e6e6 !important; }
polygon { fill: #2f2f2f !important; stroke: #9aa0a6 !important; }
path, line, polyline { stroke: #4e67d6 !important; }
]]></style>
<style><![CDATA[
text { fill: #e6e6e6 !important; }
polygon { fill: #2f2f2f !important; stroke: #9aa0a6 !important; }
path, line, polyline { stroke: #4e67d6 !important; }
]]></style>
<style><![CDATA[
text { fill: #e6e6e6 !important; }
polygon { fill: #2f2f2f !important; stroke: #9aa0a6 !important; }
path, line, polyline { stroke: #4e67d6 !important; }
]]></style>
<style><![CDATA[
text { fill: #e6e6e6 !important; }
polygon { fill: #2f2f2f !important; stroke: #9aa0a6 !important; }
path, line, polyline { stroke: #4e67d6 !important; }
]]></style>
<style><![CDATA[
text { fill: #e6e6e6 !important; }
polygon { fill: #2f2f2f !important; stroke: #9aa0a6 !important; }
path, line, polyline { stroke: #4e67d6 !important; }
]]></style>
<style><![CDATA[
text { fill: #e6e6e6 !important; }
polygon { fill: #2f2f2f !important; stroke: #9aa0a6 !important; }
path, line, polyline { stroke: #4e67d6 !important; }
]]></style>
<style><![CDATA[
text { fill: #e6e6e6 !important; }
polygon { fill: #2f2f2f !important; stroke: #9aa0a6 !important; }
path, line, polyline { stroke: #4e67d6 !important; }
]]></style>
<style><![CDATA[
text { fill: #e6e6e6 !important; }
polygon { fill: #2f2f2f !important; stroke: #9aa0a6 !important; }
path, line, polyline { stroke: #4e67d6 !important; }
]]></style>
<style><![CDATA[
text { fill: #e6e6e6 !important; }
polygon { fill: #2f2f2f !important; stroke: #9aa0a6 !important; }
path, line, polyline { stroke: #4e67d6 !important; }
]]></style>
<style><![CDATA[
text { fill: #e6e6e6 !important; }
polygon { fill: #2f2f2f !important; stroke: #9aa0a6 !important; }
path, line, polyline { stroke: #4e67d6 !important; }
]]></style>
<style><![CDATA[
text { fill: #e6e6e6 !important; }
polygon { fill: #2f2f2f !important; stroke: #9aa0a6 !important; }
path, line, polyline { stroke: #4e67d6 !important; }
]]></style>
<style><![CDATA[
text { fill: #e6e6e6 !important; }
polygon { fill: #2f2f2f !important; stroke: #9aa0a6 !important; }
path, line, polyline { stroke: #4e67d6 !important; }
]]></style>
<style><![CDATA[
text { fill: #e6e6e6 !important; }
polygon { fill: #2f2f2f !important; stroke: #9aa0a6 !important; }
path, line, polyline { stroke: #4e67d6 !important; }
]]></style>
<style><![CDATA[
text { fill: #e6e6e6 !important; }
polygon { fill: #2f2f2f !important; stroke: #9aa0a6 !important; }
path, line, polyline { stroke: #4e67d6 !important; }
]]></style>
<style><![CDATA[
text { fill: #e6e6e6 !important; }
polygon { fill: #2f2f2f !important; stroke: #9aa0a6 !important; }
path, line, polyline { stroke: #4e67d6 !important; }
]]></style>
<style><![CDATA[
text { fill: #e6e6e6 !important; }
polygon { fill: #2f2f2f !important; stroke: #9aa0a6 !important; }
path, line, polyline { stroke: #4e67d6 !important; }
]]></style>
<style><![CDATA[
text { fill: #e6e6e6 !important; }
polygon { fill: #2f2f2f !important; stroke: #9aa0a6 !important; }
path, line, polyline { stroke: #4e67d6 !important; }
]]></style>
<style type="text/css"><![CDATA[
.edge:hover path { stroke: red; }
.edge:hover polygon { stroke: red; fill: red; }
]]></style>
<script type="text/javascript"><![CDATA[
var edges = document.getElementsByTagName('g');
if (edges && edges.length) {
  for (var i=0;i<edges.length;i++) {
    if (edges[i].id.substr(0,4)=='edge') {
      edges[i].setAttribute('class','edge');
    }
  }
}
]]></script>
        <defs>
                <circle id="rim" cx="0" cy="0" r="7"/>
                <circle id="rim2" cx="0" cy="0" r="3.5"/>
                <g id="zoomPlus">
                        <use xlink:href="#rim" fill="#404040">
                                <set attributeName="fill" to="#808080" begin="zoomplus.mouseover" end="zoomplus.mouseout"/>
                        </use>
                        <path d="M-4,0h8M0,-4v8" fill="none" stroke="white" stroke-width="1.5" pointer-events="none"/>
                </g>
                <g id="zoomMin">
                        <use xlink:href="#rim" fill="#404040">
                                <set attributeName="fill" to="#808080" begin="zoomminus.mouseover" end="zoomminus.mouseout"/>
                        </use>
                        <path d="M-4,0h8" fill="none" stroke="white" stroke-width="1.5" pointer-events="none"/>
                </g>
                <g id="dirArrow">
                        <path fill="none" stroke="white" stroke-width="1.5" d="M0,-3.0v7 M-2.5,-0.5L0,-3.0L2.5,-0.5"/>
                </g>
               <g id="resetDef">
                       <use xlink:href="#rim2" fill="#404040">
                               <set attributeName="fill" to="#808080" begin="reset.mouseover" end="reset.mouseout"/>
                       </use>
               </g>
        </defs>

<script type="text/javascript">
var viewWidth = 2816;
var viewHeight = 272;
var sectionId = 'dynsection-1';
</script>
<script xlink:href="svgpan.js"/>
<svg id="graph" class="graph">
<g id="viewport">
<title>Camera.h</title>
<!-- Node1 -->
<g id="node1" class="node">
<title>Node1</title>
<g id="a_node1"><a xlink:title="Camera backend for .">
<polygon fill="#bfbfbf" stroke="black" points="1546.5,-240.5 1546.5,-263.5 1630.5,-263.5 1630.5,-240.5 1546.5,-240.5"/>
<text text-anchor="middle" x="1588.5" y="-248.3" font-family="Helvetica,sans-Serif" font-size="14.00">Camera.h</text>
</a>
</g>
</g>
<!-- Node2 -->
<g id="node2" class="node">
<title>Node2</title>
<g id="a_node2"><a xlink:href="AcquisitionThread_8h.html" target="_top" xlink:title="Acquisition worker thread.">
<polygon fill="none" stroke="black" points="189.5,-180.5 189.5,-203.5 343.5,-203.5 343.5,-180.5 189.5,-180.5"/>
<text text-anchor="middle" x="266.5" y="-188.3" font-family="Helvetica,sans-Serif" font-size="14.00">AcquisitionThread.h</text>
</a>
</g>
</g>
<!-- Node1&#45;&gt;Node2 -->
<g id="edge1" class="edge">
<title>Node1&#45;&gt;Node2</title>
<path fill="none" stroke="midnightblue" d="M1536.37,-250.06C1368.48,-246.79 826.74,-234.44 379.5,-204 367.9,-203.21 355.64,-202.2 343.65,-201.11"/>
<polygon fill="midnightblue" stroke="midnightblue" points="1536.36,-253.56 1546.42,-250.25 1536.49,-246.56 1536.36,-253.56"/>
</g>
<!-- Node9 -->
<g id="node9" class="node">
<title>Node9</title>
<g id="a_node9"><a xlink:href="CameraAlliedVision_8h.html" target="_top" xlink:title="Camera backend for Allied Vision.">
<polygon fill="none" stroke="black" points="1239.5,-180.5 1239.5,-203.5 1403.5,-203.5 1403.5,-180.5 1239.5,-180.5"/>
<text text-anchor="middle" x="1321.5" y="-188.3" font-family="Helvetica,sans-Serif" font-size="14.00">CameraAlliedVision.h</text>
</a>
</g>
</g>
<!-- Node1&#45;&gt;Node9 -->
<g id="edge8" class="edge">
<title>Node1&#45;&gt;Node9</title>
<path fill="none" stroke="midnightblue" d="M1536.57,-239.72C1488.36,-229.25 1417.14,-213.78 1370.05,-203.55"/>
<polygon fill="midnightblue" stroke="midnightblue" points="1535.97,-243.17 1546.49,-241.87 1537.46,-236.33 1535.97,-243.17"/>
</g>
<!-- Node11 -->
<g id="node11" class="node">
<title>Node11</title>
<g id="a_node11"><a xlink:href="CameraControlWidget_8cpp.html" target="_top" xlink:title="Camera backend for Control Widget.">
<polygon fill="none" stroke="black" points="603,-180.5 603,-203.5 802,-203.5 802,-180.5 603,-180.5"/>
<text text-anchor="middle" x="702.5" y="-188.3" font-family="Helvetica,sans-Serif" font-size="14.00">CameraControlWidget.cpp</text>
</a>
</g>
</g>
<!-- Node1&#45;&gt;Node11 -->
<g id="edge11" class="edge">
<title>Node1&#45;&gt;Node11</title>
<path fill="none" stroke="midnightblue" d="M1536.27,-248.57C1411.08,-242.57 1084.02,-225.98 811.5,-204 808.47,-203.76 805.39,-203.5 802.28,-203.23"/>
<polygon fill="midnightblue" stroke="midnightblue" points="1536.19,-252.07 1546.35,-249.05 1536.52,-245.07 1536.19,-252.07"/>
</g>
<!-- Node12 -->
<g id="node12" class="node">
<title>Node12</title>
<g id="a_node12"><a xlink:href="CameraGiGE_8h.html" target="_top" xlink:title="Camera backend for Gi GE.">
<polygon fill="none" stroke="black" points="820.5,-180.5 820.5,-203.5 938.5,-203.5 938.5,-180.5 820.5,-180.5"/>
<text text-anchor="middle" x="879.5" y="-188.3" font-family="Helvetica,sans-Serif" font-size="14.00">CameraGiGE.h</text>
</a>
</g>
</g>
<!-- Node1&#45;&gt;Node12 -->
<g id="edge12" class="edge">
<title>Node1&#45;&gt;Node12</title>
<path fill="none" stroke="midnightblue" d="M1536.27,-248.72C1426.81,-243.59 1165.44,-229.57 947.5,-204 944.65,-203.67 941.74,-203.3 938.8,-202.9"/>
<polygon fill="midnightblue" stroke="midnightblue" points="1536.23,-252.22 1546.38,-249.18 1536.55,-245.23 1536.23,-252.22"/>
</g>
<!-- Node14 -->
<g id="node14" class="node">
<title>Node14</title>
<g id="a_node14"><a xlink:href="CameraIEEE1394_8h.html" target="_top" xlink:title="Camera backend for IEEE 1394.">
<polygon fill="none" stroke="black" points="1435.5,-180.5 1435.5,-203.5 1587.5,-203.5 1587.5,-180.5 1435.5,-180.5"/>
<text text-anchor="middle" x="1511.5" y="-188.3" font-family="Helvetica,sans-Serif" font-size="14.00">CameraIEEE1394.h</text>
</a>
</g>
</g>
<!-- Node1&#45;&gt;Node14 -->
<g id="edge15" class="edge">
<title>Node1&#45;&gt;Node14</title>
<path fill="none" stroke="midnightblue" d="M1566.27,-234.26C1553.14,-224.36 1536.9,-212.14 1525.53,-203.57"/>
<polygon fill="midnightblue" stroke="midnightblue" points="1564.28,-237.14 1574.38,-240.36 1568.5,-231.55 1564.28,-237.14"/>
</g>
<!-- Node16 -->
<g id="node16" class="node">
<title>Node16</title>
<g id="a_node16"><a xlink:href="CameraNeo_8h.html" target="_top" xlink:title="Camera backend for Neo.">
<polygon fill="none" stroke="black" points="1778,-180.5 1778,-203.5 1889,-203.5 1889,-180.5 1778,-180.5"/>
<text text-anchor="middle" x="1833.5" y="-188.3" font-family="Helvetica,sans-Serif" font-size="14.00">CameraNeo.h</text>
</a>
</g>
</g>
<!-- Node1&#45;&gt;Node16 -->
<g id="edge18" class="edge">
<title>Node1&#45;&gt;Node16</title>
<path fill="none" stroke="midnightblue" d="M1640.57,-238.67C1684.68,-228.23 1747.24,-213.42 1789.04,-203.53"/>
<polygon fill="midnightblue" stroke="midnightblue" points="1639.54,-235.32 1630.62,-241.03 1641.15,-242.13 1639.54,-235.32"/>
</g>
<!-- Node18 -->
<g id="node18" class="node">
<title>Node18</title>
<g id="a_node18"><a xlink:href="CameraPropWidget_8h.html" target="_top" xlink:title="Camera backend for Prop Widget.">
<polygon fill="none" stroke="black" points="2327.5,-180.5 2327.5,-203.5 2491.5,-203.5 2491.5,-180.5 2327.5,-180.5"/>
<text text-anchor="middle" x="2409.5" y="-188.3" font-family="Helvetica,sans-Serif" font-size="14.00">CameraPropWidget.h</text>
</a>
</g>
</g>
<!-- Node1&#45;&gt;Node18 -->
<g id="edge21" class="edge">
<title>Node1&#45;&gt;Node18</title>
<path fill="none" stroke="midnightblue" d="M1641.01,-247.29C1780.15,-237.46 2159.21,-210.68 2327.32,-198.81"/>
<polygon fill="midnightblue" stroke="midnightblue" points="1640.36,-243.83 1630.63,-248.02 1640.85,-250.81 1640.36,-243.83"/>
</g>
<!-- Node20 -->
<g id="node20" class="node">
<title>Node20</title>
<g id="a_node20"><a xlink:href="CameraWindow_8h.html" target="_top" xlink:title="Camera backend for Window.">
<polygon fill="none" stroke="black" points="2525.5,-120.5 2525.5,-143.5 2663.5,-143.5 2663.5,-120.5 2525.5,-120.5"/>
<text text-anchor="middle" x="2594.5" y="-128.3" font-family="Helvetica,sans-Serif" font-size="14.00">CameraWindow.h</text>
</a>
</g>
</g>
<!-- Node1&#45;&gt;Node20 -->
<g id="edge38" class="edge">
<title>Node1&#45;&gt;Node20</title>
<path fill="none" stroke="midnightblue" d="M1640.75,-250.09C1822.41,-246.7 2419.8,-233.38 2500.5,-204 2518.66,-197.39 2561.24,-161.84 2582.29,-143.69"/>
<polygon fill="midnightblue" stroke="midnightblue" points="1640.58,-246.6 1630.65,-250.28 1640.71,-253.59 1640.58,-246.6"/>
</g>
<!-- Node21 -->
<g id="node21" class="node">
<title>Node21</title>
<g id="a_node21"><a xlink:href="CameraRAPTORFALCON_8h.html" target="_top" xlink:title="Camera backend for RAPTORFALCON.">
<polygon fill="none" stroke="black" points="388.5,-180.5 388.5,-203.5 584.5,-203.5 584.5,-180.5 388.5,-180.5"/>
<text text-anchor="middle" x="486.5" y="-188.3" font-family="Helvetica,sans-Serif" font-size="14.00">CameraRAPTORFALCON.h</text>
</a>
</g>
</g>
<!-- Node1&#45;&gt;Node21 -->
<g id="edge26" class="edge">
<title>Node1&#45;&gt;Node21</title>
<path fill="none" stroke="midnightblue" d="M1536.09,-249.55C1387.95,-245.21 953.48,-230.98 593.5,-204 590.61,-203.78 587.68,-203.55 584.73,-203.31"/>
<polygon fill="midnightblue" stroke="midnightblue" points="1536.16,-253.05 1546.26,-249.84 1536.37,-246.05 1536.16,-253.05"/>
</g>
<!-- Node23 -->
<g id="node23" class="node">
<title>Node23</title>
<g id="a_node23"><a xlink:href="CameraRAPTORNINOX640_8h.html" target="_top" xlink:title="Camera backend for RAPTORNINOX 640.">
<polygon fill="none" stroke="black" points="956.5,-180.5 956.5,-203.5 1168.5,-203.5 1168.5,-180.5 956.5,-180.5"/>
<text text-anchor="middle" x="1062.5" y="-188.3" font-family="Helvetica,sans-Serif" font-size="14.00">CameraRAPTORNINOX640.h</text>
</a>
</g>
</g>
<!-- Node1&#45;&gt;Node23 -->
<g id="edge29" class="edge">
<title>Node1&#45;&gt;Node23</title>
<path fill="none" stroke="midnightblue" d="M1536.32,-245.25C1448.23,-235.53 1268.77,-215.75 1157.76,-203.5"/>
<polygon fill="midnightblue" stroke="midnightblue" points="1536.02,-248.73 1546.34,-246.35 1536.79,-241.78 1536.02,-248.73"/>
</g>
<!-- Node25 -->
<g id="node25" class="node">
<title>Node25</title>
<g id="a_node25"><a xlink:href="CameraRaspi_8h.html" target="_top" xlink:title="Camera backend for Raspi.">
<polygon fill="none" stroke="black" points="1605.5,-180.5 1605.5,-203.5 1727.5,-203.5 1727.5,-180.5 1605.5,-180.5"/>
<text text-anchor="middle" x="1666.5" y="-188.3" font-family="Helvetica,sans-Serif" font-size="14.00">CameraRaspi.h</text>
</a>
</g>
</g>
<!-- Node1&#45;&gt;Node25 -->
<g id="edge32" class="edge">
<title>Node1&#45;&gt;Node25</title>
<path fill="none" stroke="midnightblue" d="M1611.01,-234.26C1624.32,-224.36 1640.77,-212.14 1652.28,-203.57"/>
<polygon fill="midnightblue" stroke="midnightblue" points="1608.74,-231.59 1602.81,-240.36 1612.92,-237.2 1608.74,-231.59"/>
</g>
<!-- Node27 -->
<g id="node27" class="node">
<title>Node27</title>
<g id="a_node27"><a xlink:href="CameraUSB_8h.html" target="_top" xlink:title="Camera backend for USB.">
<polygon fill="none" stroke="black" points="1907,-180.5 1907,-203.5 2020,-203.5 2020,-180.5 1907,-180.5"/>
<text text-anchor="middle" x="1963.5" y="-188.3" font-family="Helvetica,sans-Serif" font-size="14.00">CameraUSB.h</text>
</a>
</g>
</g>
<!-- Node1&#45;&gt;Node27 -->
<g id="edge35" class="edge">
<title>Node1&#45;&gt;Node27</title>
<path fill="none" stroke="midnightblue" d="M1640.73,-243.29C1702.2,-234.16 1807.33,-218.37 1897.5,-204 1900.6,-203.51 1903.78,-202.99 1906.98,-202.47"/>
<polygon fill="midnightblue" stroke="midnightblue" points="1639.89,-239.87 1630.51,-244.8 1640.92,-246.8 1639.89,-239.87"/>
</g>
<!-- Node29 -->
<g id="node29" class="node">
<title>Node29</title>
<g id="a_node29"><a xlink:href="CameraZyla_8h.html" target="_top" xlink:title="Camera backend for Zyla.">
<polygon fill="none" stroke="black" points="2092.5,-180.5 2092.5,-203.5 2206.5,-203.5 2206.5,-180.5 2092.5,-180.5"/>
<text text-anchor="middle" x="2149.5" y="-188.3" font-family="Helvetica,sans-Serif" font-size="14.00">CameraZyla.h</text>
</a>
</g>
</g>
<!-- Node1&#45;&gt;Node29 -->
<g id="edge39" class="edge">
<title>Node1&#45;&gt;Node29</title>
<path fill="none" stroke="midnightblue" d="M1640.73,-245.6C1745.95,-234.72 1982.7,-210.24 2092.09,-198.94"/>
<polygon fill="midnightblue" stroke="midnightblue" points="1640.25,-242.13 1630.67,-246.64 1640.97,-249.09 1640.25,-242.13"/>
</g>
<!-- Node31 -->
<g id="node31" class="node">
<title>Node31</title>
<g id="a_node31"><a xlink:href="VideoPlayer_8h.html" target="_top" xlink:title="Video Player component.">
<polygon fill="none" stroke="black" points="2547.5,-180.5 2547.5,-203.5 2657.5,-203.5 2657.5,-180.5 2547.5,-180.5"/>
<text text-anchor="middle" x="2602.5" y="-188.3" font-family="Helvetica,sans-Serif" font-size="14.00">VideoPlayer.h</text>
</a>
</g>
</g>
<!-- Node1&#45;&gt;Node31 -->
<g id="edge42" class="edge">
<title>Node1&#45;&gt;Node31</title>
<path fill="none" stroke="midnightblue" d="M1640.78,-250.39C1783.97,-248.28 2194.4,-239.36 2533.5,-204 2537.96,-203.53 2542.58,-202.97 2547.21,-202.36"/>
<polygon fill="midnightblue" stroke="midnightblue" points="1640.49,-246.89 1630.54,-250.53 1640.59,-253.89 1640.49,-246.89"/>
</g>
<!-- Node3 -->
<g id="node3" class="node">
<title>Node3</title>
<g id="a_node3"><a xlink:href="AcquisitionThread_8cpp.html" target="_top" xlink:title="Acquisition worker thread.">
<polygon fill="none" stroke="black" points="181.5,-120.5 181.5,-143.5 351.5,-143.5 351.5,-120.5 181.5,-120.5"/>
<text text-anchor="middle" x="266.5" y="-128.3" font-family="Helvetica,sans-Serif" font-size="14.00">AcquisitionThread.cpp</text>
</a>
</g>
</g>
<!-- Node2&#45;&gt;Node3 -->
<g id="edge2" class="edge">
<title>Node2&#45;&gt;Node3</title>
<path fill="none" stroke="midnightblue" d="M266.5,-170.19C266.5,-161.17 266.5,-150.99 266.5,-143.57"/>
<polygon fill="midnightblue" stroke="midnightblue" points="263,-170.36 266.5,-180.36 270,-170.36 263,-170.36"/>
</g>
<!-- Node4 -->
<g id="node4" class="node">
<title>Node4</title>
<g id="a_node4"><a xlink:href="AcquisitionWidget_8h.html" target="_top" xlink:title="Acquisition widget.">
<polygon fill="none" stroke="black" points="8,-120.5 8,-143.5 163,-143.5 163,-120.5 8,-120.5"/>
<text text-anchor="middle" x="85.5" y="-128.3" font-family="Helvetica,sans-Serif" font-size="14.00">AcquisitionWidget.h</text>
</a>
</g>
</g>
<!-- Node2&#45;&gt;Node4 -->
<g id="edge3" class="edge">
<title>Node2&#45;&gt;Node4</title>
<path fill="none" stroke="midnightblue" d="M224.1,-177.41C191.81,-167.06 147.99,-153.03 118.34,-143.52"/>
<polygon fill="midnightblue" stroke="midnightblue" points="223.13,-180.78 233.72,-180.5 225.27,-174.11 223.13,-180.78"/>
</g>
<!-- Node5 -->
<g id="node5" class="node">
<title>Node5</title>
<g id="a_node5"><a xlink:href="AcquisitionWidget_8cpp.html" target="_top" xlink:title="Acquisition widget.">
<polygon fill="none" stroke="black" points="0,-60.5 0,-83.5 171,-83.5 171,-60.5 0,-60.5"/>
<text text-anchor="middle" x="85.5" y="-68.3" font-family="Helvetica,sans-Serif" font-size="14.00">AcquisitionWidget.cpp</text>
</a>
</g>
</g>
<!-- Node4&#45;&gt;Node5 -->
<g id="edge4" class="edge">
<title>Node4&#45;&gt;Node5</title>
<path fill="none" stroke="midnightblue" d="M85.5,-110.19C85.5,-101.17 85.5,-90.99 85.5,-83.57"/>
<polygon fill="midnightblue" stroke="midnightblue" points="82,-110.36 85.5,-120.36 89,-110.36 82,-110.36"/>
</g>
<!-- Node6 -->
<g id="node6" class="node">
<title>Node6</title>
<g id="a_node6"><a xlink:href="OpticsBenchUIMain_8h.html" target="_top" xlink:title="Main application window.">
<polygon fill="none" stroke="black" points="1481.5,-60.5 1481.5,-83.5 1647.5,-83.5 1647.5,-60.5 1481.5,-60.5"/>
<text text-anchor="middle" x="1564.5" y="-68.3" font-family="Helvetica,sans-Serif" font-size="14.00">OpticsBenchUIMain.h</text>
</a>
</g>
</g>
<!-- Node4&#45;&gt;Node6 -->
<g id="edge5" class="edge">
<title>Node4&#45;&gt;Node6</title>
<path fill="none" stroke="midnightblue" d="M173.24,-120.01C675.68,-80.33 1266.33,-74.09 1481.19,-73.14"/>
<polygon fill="midnightblue" stroke="midnightblue" points="172.94,-116.53 163.25,-120.81 173.5,-123.51 172.94,-116.53"/>
</g>
<!-- Node7 -->
<g id="node7" class="node">
<title>Node7</title>
<g id="a_node7"><a xlink:href="CameraWindow_8cpp.html" target="_top" xlink:title="Camera backend for Window.">
<polygon fill="none" stroke="black" points="2105,-0.5 2105,-23.5 2260,-23.5 2260,-0.5 2105,-0.5"/>
<text text-anchor="middle" x="2182.5" y="-8.3" font-family="Helvetica,sans-Serif" font-size="14.00">CameraWindow.cpp</text>
</a>
</g>
</g>
<!-- Node6&#45;&gt;Node7 -->
<g id="edge6" class="edge">
<title>Node6&#45;&gt;Node7</title>
<path fill="none" stroke="midnightblue" d="M1657.59,-62.26C1779.48,-50.82 1990.99,-30.97 2104.76,-20.3"/>
<polygon fill="midnightblue" stroke="midnightblue" points="1657.15,-58.79 1647.53,-63.21 1657.81,-65.76 1657.15,-58.79"/>
</g>
<!-- Node8 -->
<g id="node8" class="node">
<title>Node8</title>
<g id="a_node8"><a xlink:href="OpticsBenchUIMain_8cpp.html" target="_top" xlink:title="Main application window.">
<polygon fill="none" stroke="black" points="1473.5,-0.5 1473.5,-23.5 1655.5,-23.5 1655.5,-0.5 1473.5,-0.5"/>
<text text-anchor="middle" x="1564.5" y="-8.3" font-family="Helvetica,sans-Serif" font-size="14.00">OpticsBenchUIMain.cpp</text>
</a>
</g>
</g>
<!-- Node6&#45;&gt;Node8 -->
<g id="edge7" class="edge">
<title>Node6&#45;&gt;Node8</title>
<path fill="none" stroke="midnightblue" d="M1564.5,-50.19C1564.5,-41.17 1564.5,-30.99 1564.5,-23.57"/>
<polygon fill="midnightblue" stroke="midnightblue" points="1561,-50.36 1564.5,-60.36 1568,-50.36 1561,-50.36"/>
</g>
<!-- Node9&#45;&gt;Node6 -->
<g id="edge10" class="edge">
<title>Node9&#45;&gt;Node6</title>
<path fill="none" stroke="midnightblue" d="M1321.49,-170.38C1322.63,-154.41 1326.87,-132.9 1340.5,-120 1360.77,-100.81 1426.26,-88.53 1481.23,-81.35"/>
<polygon fill="midnightblue" stroke="midnightblue" points="1317.99,-170.25 1321.12,-180.38 1324.99,-170.51 1317.99,-170.25"/>
</g>
<!-- Node10 -->
<g id="node10" class="node">
<title>Node10</title>
<g id="a_node10"><a xlink:href="CameraAlliedVision_8cpp.html" target="_top" xlink:title="Camera backend for Allied Vision.">
<polygon fill="none" stroke="black" points="1113.5,-120.5 1113.5,-143.5 1293.5,-143.5 1293.5,-120.5 1113.5,-120.5"/>
<text text-anchor="middle" x="1203.5" y="-128.3" font-family="Helvetica,sans-Serif" font-size="14.00">CameraAlliedVision.cpp</text>
</a>
</g>
</g>
<!-- Node9&#45;&gt;Node10 -->
<g id="edge9" class="edge">
<title>Node9&#45;&gt;Node10</title>
<path fill="none" stroke="midnightblue" d="M1291.12,-176.07C1270.46,-165.91 1243.61,-152.72 1225.11,-143.62"/>
<polygon fill="midnightblue" stroke="midnightblue" points="1289.61,-179.23 1300.13,-180.5 1292.7,-172.94 1289.61,-179.23"/>
</g>
<!-- Node12&#45;&gt;Node6 -->
<g id="edge14" class="edge">
<title>Node12&#45;&gt;Node6</title>
<path fill="none" stroke="midnightblue" d="M861.11,-172.93C847.45,-157.34 833.41,-135.04 847.5,-120 890.03,-74.59 1301.71,-71.41 1481.36,-72.22"/>
<polygon fill="midnightblue" stroke="midnightblue" points="858.69,-175.46 868.07,-180.39 863.81,-170.69 858.69,-175.46"/>
</g>
<!-- Node13 -->
<g id="node13" class="node">
<title>Node13</title>
<g id="a_node13"><a xlink:href="CameraGiGE_8cpp.html" target="_top" xlink:title="Camera backend for Gi GE.">
<polygon fill="none" stroke="black" points="637.5,-120.5 637.5,-143.5 771.5,-143.5 771.5,-120.5 637.5,-120.5"/>
<text text-anchor="middle" x="704.5" y="-128.3" font-family="Helvetica,sans-Serif" font-size="14.00">CameraGiGE.cpp</text>
</a>
</g>
</g>
<!-- Node12&#45;&gt;Node13 -->
<g id="edge13" class="edge">
<title>Node12&#45;&gt;Node13</title>
<path fill="none" stroke="midnightblue" d="M838.1,-177.28C806.92,-166.94 764.8,-152.98 736.25,-143.52"/>
<polygon fill="midnightblue" stroke="midnightblue" points="837.22,-180.67 847.81,-180.5 839.42,-174.03 837.22,-180.67"/>
</g>
<!-- Node14&#45;&gt;Node6 -->
<g id="edge17" class="edge">
<title>Node14&#45;&gt;Node6</title>
<path fill="none" stroke="midnightblue" d="M1520.61,-170.73C1531.97,-145.42 1550.98,-103.1 1559.77,-83.52"/>
<polygon fill="midnightblue" stroke="midnightblue" points="1517.3,-169.55 1516.39,-180.11 1523.68,-172.42 1517.3,-169.55"/>
</g>
<!-- Node15 -->
<g id="node15" class="node">
<title>Node15</title>
<g id="a_node15"><a xlink:href="CameraIEEE1394_8cpp.html" target="_top" xlink:title="Camera backend for IEEE 1394.">
<polygon fill="none" stroke="black" points="1349.5,-120.5 1349.5,-143.5 1517.5,-143.5 1517.5,-120.5 1349.5,-120.5"/>
<text text-anchor="middle" x="1433.5" y="-128.3" font-family="Helvetica,sans-Serif" font-size="14.00">CameraIEEE1394.cpp</text>
</a>
</g>
</g>
<!-- Node14&#45;&gt;Node15 -->
<g id="edge16" class="edge">
<title>Node14&#45;&gt;Node15</title>
<path fill="none" stroke="midnightblue" d="M1488.99,-174.26C1475.68,-164.36 1459.23,-152.14 1447.72,-143.57"/>
<polygon fill="midnightblue" stroke="midnightblue" points="1487.08,-177.2 1497.19,-180.36 1491.26,-171.59 1487.08,-177.2"/>
</g>
<!-- Node16&#45;&gt;Node6 -->
<g id="edge20" class="edge">
<title>Node16&#45;&gt;Node6</title>
<path fill="none" stroke="midnightblue" d="M1867.63,-175.9C1894.4,-162.01 1924.38,-140.5 1906.5,-120 1873.61,-82.28 1738.09,-73.77 1647.84,-72.42"/>
<polygon fill="midnightblue" stroke="midnightblue" points="1865.78,-172.91 1858.38,-180.49 1868.89,-179.18 1865.78,-172.91"/>
</g>
<!-- Node17 -->
<g id="node17" class="node">
<title>Node17</title>
<g id="a_node17"><a xlink:href="CameraNeo_8cpp.html" target="_top" xlink:title="Camera backend for Neo.">
<polygon fill="none" stroke="black" points="1769.5,-120.5 1769.5,-143.5 1897.5,-143.5 1897.5,-120.5 1769.5,-120.5"/>
<text text-anchor="middle" x="1833.5" y="-128.3" font-family="Helvetica,sans-Serif" font-size="14.00">CameraNeo.cpp</text>
</a>
</g>
</g>
<!-- Node16&#45;&gt;Node17 -->
<g id="edge19" class="edge">
<title>Node16&#45;&gt;Node17</title>
<path fill="none" stroke="midnightblue" d="M1833.5,-170.19C1833.5,-161.17 1833.5,-150.99 1833.5,-143.57"/>
<polygon fill="midnightblue" stroke="midnightblue" points="1830,-170.36 1833.5,-180.36 1837,-170.36 1830,-170.36"/>
</g>
<!-- Node19 -->
<g id="node19" class="node">
<title>Node19</title>
<g id="a_node19"><a xlink:href="CameraPropWidget_8cpp.html" target="_top" xlink:title="Camera backend for Prop Widget.">
<polygon fill="none" stroke="black" points="2327.5,-120.5 2327.5,-143.5 2507.5,-143.5 2507.5,-120.5 2327.5,-120.5"/>
<text text-anchor="middle" x="2417.5" y="-128.3" font-family="Helvetica,sans-Serif" font-size="14.00">CameraPropWidget.cpp</text>
</a>
</g>
</g>
<!-- Node18&#45;&gt;Node19 -->
<g id="edge22" class="edge">
<title>Node18&#45;&gt;Node19</title>
<path fill="none" stroke="midnightblue" d="M2412.37,-170.19C2413.61,-161.17 2415.02,-150.99 2416.04,-143.57"/>
<polygon fill="midnightblue" stroke="midnightblue" points="2408.87,-169.98 2410.97,-180.36 2415.8,-170.93 2408.87,-169.98"/>
</g>
<!-- Node18&#45;&gt;Node20 -->
<g id="edge23" class="edge">
<title>Node18&#45;&gt;Node20</title>
<path fill="none" stroke="midnightblue" d="M2452.84,-177.41C2485.85,-167.06 2530.62,-153.03 2560.94,-143.52"/>
<polygon fill="midnightblue" stroke="midnightblue" points="2451.5,-174.17 2443,-180.5 2453.59,-180.84 2451.5,-174.17"/>
</g>
<!-- Node20&#45;&gt;Node6 -->
<g id="edge25" class="edge">
<title>Node20&#45;&gt;Node6</title>
<path fill="none" stroke="midnightblue" d="M2515.08,-119.94C2188.46,-89.35 1811.81,-78.22 1647.77,-74.57"/>
<polygon fill="midnightblue" stroke="midnightblue" points="2514.93,-123.44 2525.22,-120.9 2515.59,-116.47 2514.93,-123.44"/>
</g>
<!-- Node20&#45;&gt;Node7 -->
<g id="edge24" class="edge">
<title>Node20&#45;&gt;Node7</title>
<path fill="none" stroke="midnightblue" d="M2547.94,-117.66C2465.2,-93.97 2294.25,-45.01 2219.19,-23.51"/>
<polygon fill="midnightblue" stroke="midnightblue" points="2547,-121.04 2557.58,-120.42 2548.93,-114.31 2547,-121.04"/>
</g>
<!-- Node21&#45;&gt;Node6 -->
<g id="edge28" class="edge">
<title>Node21&#45;&gt;Node6</title>
<path fill="none" stroke="midnightblue" d="M446.2,-176.74C414,-163.27 377.46,-141.91 398.5,-120 435.93,-81.03 1221,-74.37 1481.4,-73.23"/>
<polygon fill="midnightblue" stroke="midnightblue" points="444.97,-180.02 455.55,-180.49 447.58,-173.52 444.97,-180.02"/>
</g>
<!-- Node22 -->
<g id="node22" class="node">
<title>Node22</title>
<g id="a_node22"><a xlink:href="CameraRAPTORFALCON_8cpp.html" target="_top" xlink:title="Camera backend for RAPTORFALCON.">
<polygon fill="none" stroke="black" points="407.5,-120.5 407.5,-143.5 619.5,-143.5 619.5,-120.5 407.5,-120.5"/>
<text text-anchor="middle" x="513.5" y="-128.3" font-family="Helvetica,sans-Serif" font-size="14.00">CameraRAPTORFALCON.cpp</text>
</a>
</g>
</g>
<!-- Node21&#45;&gt;Node22 -->
<g id="edge27" class="edge">
<title>Node21&#45;&gt;Node22</title>
<path fill="none" stroke="midnightblue" d="M495.77,-171.08C500.07,-161.84 505.01,-151.24 508.58,-143.57"/>
<polygon fill="midnightblue" stroke="midnightblue" points="492.5,-169.82 491.45,-180.36 498.85,-172.77 492.5,-169.82"/>
</g>
<!-- Node23&#45;&gt;Node6 -->
<g id="edge31" class="edge">
<title>Node23&#45;&gt;Node6</title>
<path fill="none" stroke="midnightblue" d="M955.35,-178.86C912.24,-171.57 869.6,-160.43 856.5,-144 849.85,-135.66 849.21,-127.79 856.5,-120 898.4,-75.22 1303.47,-71.67 1481.39,-72.3"/>
<polygon fill="midnightblue" stroke="midnightblue" points="954.99,-182.35 965.42,-180.49 956.11,-175.44 954.99,-182.35"/>
</g>
<!-- Node24 -->
<g id="node24" class="node">
<title>Node24</title>
<g id="a_node24"><a xlink:href="CameraRAPTORNINOX640_8cpp.html" target="_top" xlink:title="Camera backend for RAPTORNINOX 640.">
<polygon fill="none" stroke="black" points="866,-120.5 866,-143.5 1095,-143.5 1095,-120.5 866,-120.5"/>
<text text-anchor="middle" x="980.5" y="-128.3" font-family="Helvetica,sans-Serif" font-size="14.00">CameraRAPTORNINOX640.cpp</text>
</a>
</g>
</g>
<!-- Node23&#45;&gt;Node24 -->
<g id="edge30" class="edge">
<title>Node23&#45;&gt;Node24</title>
<path fill="none" stroke="midnightblue" d="M1039.23,-174.54C1025.17,-164.6 1007.67,-152.22 995.44,-143.57"/>
<polygon fill="midnightblue" stroke="midnightblue" points="1037.27,-177.44 1047.46,-180.36 1041.32,-171.73 1037.27,-177.44"/>
</g>
<!-- Node25&#45;&gt;Node6 -->
<g id="edge34" class="edge">
<title>Node25&#45;&gt;Node6</title>
<path fill="none" stroke="midnightblue" d="M1639.37,-175.02C1627.07,-166.84 1612.97,-156.07 1602.5,-144 1586.2,-125.2 1574.19,-98.22 1568.39,-83.52"/>
<polygon fill="midnightblue" stroke="midnightblue" points="1637.63,-178.06 1647.94,-180.49 1641.4,-172.16 1637.63,-178.06"/>
</g>
<!-- Node26 -->
<g id="node26" class="node">
<title>Node26</title>
<g id="a_node26"><a xlink:href="CameraRaspi_8cpp.html" target="_top" xlink:title="Camera backend for Raspi.">
<polygon fill="none" stroke="black" points="1612,-120.5 1612,-143.5 1751,-143.5 1751,-120.5 1612,-120.5"/>
<text text-anchor="middle" x="1681.5" y="-128.3" font-family="Helvetica,sans-Serif" font-size="14.00">CameraRaspi.cpp</text>
</a>
</g>
</g>
<!-- Node25&#45;&gt;Node26 -->
<g id="edge33" class="edge">
<title>Node25&#45;&gt;Node26</title>
<path fill="none" stroke="midnightblue" d="M1671.8,-170.49C1674.16,-161.39 1676.83,-151.08 1678.77,-143.57"/>
<polygon fill="midnightblue" stroke="midnightblue" points="1668.37,-169.8 1669.25,-180.36 1675.14,-171.56 1668.37,-169.8"/>
</g>
<!-- Node27&#45;&gt;Node6 -->
<g id="edge37" class="edge">
<title>Node27&#45;&gt;Node6</title>
<path fill="none" stroke="midnightblue" d="M1957.57,-170.44C1951.7,-154 1941,-131.82 1923.5,-120 1879.87,-90.54 1739.65,-79.51 1647.91,-75.4"/>
<polygon fill="midnightblue" stroke="midnightblue" points="1954.34,-171.82 1960.75,-180.24 1960.99,-169.65 1954.34,-171.82"/>
</g>
<!-- Node28 -->
<g id="node28" class="node">
<title>Node28</title>
<g id="a_node28"><a xlink:href="CameraUSB_8cpp.html" target="_top" xlink:title="Camera backend for USB.">
<polygon fill="none" stroke="black" points="1991.5,-120.5 1991.5,-143.5 2121.5,-143.5 2121.5,-120.5 1991.5,-120.5"/>
<text text-anchor="middle" x="2056.5" y="-128.3" font-family="Helvetica,sans-Serif" font-size="14.00">CameraUSB.cpp</text>
</a>
</g>
</g>
<!-- Node27&#45;&gt;Node28 -->
<g id="edge36" class="edge">
<title>Node27&#45;&gt;Node28</title>
<path fill="none" stroke="midnightblue" d="M1989.44,-174.82C2005.46,-164.83 2025.55,-152.3 2039.55,-143.57"/>
<polygon fill="midnightblue" stroke="midnightblue" points="1987.19,-172.1 1980.56,-180.36 1990.89,-178.04 1987.19,-172.1"/>
</g>
<!-- Node29&#45;&gt;Node6 -->
<g id="edge41" class="edge">
<title>Node29&#45;&gt;Node6</title>
<path fill="none" stroke="midnightblue" d="M2149.94,-170.18C2149.07,-153.91 2144.98,-132.1 2130.5,-120 2094.3,-89.75 1795.92,-78.46 1647.58,-74.69"/>
<polygon fill="midnightblue" stroke="midnightblue" points="2146.45,-170.43 2150.12,-180.36 2153.45,-170.31 2146.45,-170.43"/>
</g>
<!-- Node30 -->
<g id="node30" class="node">
<title>Node30</title>
<g id="a_node30"><a xlink:href="CameraZyla_8cpp.html" target="_top" xlink:title="Camera backend for Zyla.">
<polygon fill="none" stroke="black" points="2178,-120.5 2178,-143.5 2309,-143.5 2309,-120.5 2178,-120.5"/>
<text text-anchor="middle" x="2243.5" y="-128.3" font-family="Helvetica,sans-Serif" font-size="14.00">CameraZyla.cpp</text>
</a>
</g>
</g>
<!-- Node29&#45;&gt;Node30 -->
<g id="edge40" class="edge">
<title>Node29&#45;&gt;Node30</title>
<path fill="none" stroke="midnightblue" d="M2175.27,-175.1C2191.53,-165.07 2212.09,-152.38 2226.37,-143.57"/>
<polygon fill="midnightblue" stroke="midnightblue" points="2173.41,-172.13 2166.74,-180.36 2177.09,-178.09 2173.41,-172.13"/>
</g>
<!-- Node31&#45;&gt;Node20 -->
<g id="edge43" class="edge">
<title>Node31&#45;&gt;Node20</title>
<path fill="none" stroke="midnightblue" d="M2599.63,-170.19C2598.39,-161.17 2596.98,-150.99 2595.96,-143.57"/>
<polygon fill="midnightblue" stroke="midnightblue" points="2596.2,-170.93 2601.03,-180.36 2603.13,-169.98 2596.2,-170.93"/>
</g>
<!-- Node32 -->
<g id="node32" class="node">
<title>Node32</title>
<g id="a_node32"><a xlink:href="VideoPlayer_8cpp.html" target="_top" xlink:title="Video Player component.">
<polygon fill="none" stroke="black" points="2681.5,-120.5 2681.5,-143.5 2807.5,-143.5 2807.5,-120.5 2681.5,-120.5"/>
<text text-anchor="middle" x="2744.5" y="-128.3" font-family="Helvetica,sans-Serif" font-size="14.00">VideoPlayer.cpp</text>
</a>
</g>
</g>
<!-- Node31&#45;&gt;Node32 -->
<g id="edge44" class="edge">
<title>Node31&#45;&gt;Node32</title>
<path fill="none" stroke="midnightblue" d="M2637.72,-176.62C2662.75,-166.39 2695.83,-152.88 2718.5,-143.62"/>
<polygon fill="midnightblue" stroke="midnightblue" points="2636.15,-173.48 2628.22,-180.5 2638.8,-179.96 2636.15,-173.48"/>
</g>
</g>
</svg>
        <g id="navigator" transform="translate(0 0)" fill="#404254">
                <rect fill="#f2f5e9" fill-opacity="0.5" stroke="#606060" stroke-width=".5" x="0" y="0" width="60" height="60"/>
                <use id="zoomplus" xlink:href="#zoomPlus" x="17" y="9" onmousedown="handleZoom(evt,'in')"/>
                <use id="zoomminus" xlink:href="#zoomMin" x="42" y="9" onmousedown="handleZoom(evt,'out')"/>
                <use id="reset" xlink:href="#resetDef" x="30" y="36" onmousedown="handleReset()"/>
                <g id="arrowUp" xlink:href="#dirArrow" transform="translate(30 24)" onmousedown="handlePan(0,-1)">
                  <use xlink:href="#rim" fill="#404040">
                        <set attributeName="fill" to="#808080" begin="arrowUp.mouseover" end="arrowUp.mouseout"/>
                  </use>
                  <path fill="none" stroke="white" stroke-width="1.5" d="M0,-3.0v7 M-2.5,-0.5L0,-3.0L2.5,-0.5"/>
                </g>
                <g id="arrowRight" xlink:href="#dirArrow" transform="rotate(90) translate(36 -43)" onmousedown="handlePan(1,0)">
                  <use xlink:href="#rim" fill="#404040">
                        <set attributeName="fill" to="#808080" begin="arrowRight.mouseover" end="arrowRight.mouseout"/>
                  </use>
                  <path fill="none" stroke="white" stroke-width="1.5" d="M0,-3.0v7 M-2.5,-0.5L0,-3.0L2.5,-0.5"/>
                </g>
                <g id="arrowDown" xlink:href="#dirArrow" transform="rotate(180) translate(-30 -48)" onmousedown="handlePan(0,1)">
                  <use xlink:href="#rim" fill="#404040">
                        <set attributeName="fill" to="#808080" begin="arrowDown.mouseover" end="arrowDown.mouseout"/>
                  </use>
                  <path fill="none" stroke="white" stroke-width="1.5" d="M0,-3.0v7 M-2.5,-0.5L0,-3.0L2.5,-0.5"/>
                </g>
                <g id="arrowLeft" xlink:href="#dirArrow" transform="rotate(270) translate(-36 17)" onmousedown="handlePan(-1,0)">
                  <use xlink:href="#rim" fill="#404040">
                        <set attributeName="fill" to="#808080" begin="arrowLeft.mouseover" end="arrowLeft.mouseout"/>
                  </use>
                  <path fill="none" stroke="white" stroke-width="1.5" d="M0,-3.0v7 M-2.5,-0.5L0,-3.0L2.5,-0.5"/>
                </g>
        </g>
        <svg viewBox="0 0 15 15" width="100%" height="30px" preserveAspectRatio="xMaxYMin meet">
         <g id="arrow_out" transform="scale(0.3 0.3)">
          <a xlink:href="Camera_8h__dep__incl_org.svg" target="_base">
           <rect id="button" ry="5" rx="5" y="6" x="6" height="38" width="38"
                fill="#f2f5e9" fill-opacity="0.5" stroke="#606060" stroke-width="1.0"/>
           <path id="arrow"
             d="M 11.500037,31.436501 C 11.940474,20.09759 22.043105,11.32322 32.158766,21.979434 L 37.068811,17.246167 C 37.068811,17.246167 37.088388,32 37.088388,32 L 22.160133,31.978069 C 22.160133,31.978069 26.997745,27.140456 26.997745,27.140456 C 18.528582,18.264221 13.291696,25.230495 11.500037,31.436501 z"
             style="fill:#404040;"/>
          </a>
         </g>
        </svg>
</svg>
