<?xml version="1.0" encoding="UTF-8" standalone="no"?>
<!DOCTYPE svg PUBLIC "-//W3C//DTD SVG 1.1//EN"
 "http://www.w3.org/Graphics/SVG/1.1/DTD/svg11.dtd">
<!-- Generated by graphviz version 2.50.0 (0)
 -->
<!-- Title: CameraControlWidget.cpp Pages: 1 -->
<svg width="2272pt" height="212pt"
 viewBox="0.00 0.00 2271.50 212.00" xmlns="http://www.w3.org/2000/svg" xmlns:xlink="http://www.w3.org/1999/xlink">
<style><![CDATA[
text { fill: #e6e6e6 !important; }
polygon { fill: #2f2f2f !important; stroke: #9aa0a6 !important; }
path, line, polyline { stroke: #4e67d6 !important; }
]]></style>
<style><![CDATA[
text { fill: #e6e6e6 !important; }
polygon { fill: #2f2f2f !important; stroke: #9aa0a6 !important; }
path, line, polyline { stroke: #4e67d6 !important; }
]]></style>
<style><![CDATA[
text { fill: #e6e6e6 !important; }
polygon { fill: #2f2f2f !important; stroke: #9aa0a6 !important; }
path, line, polyline { stroke: #4e67d6 !important; }
]]></style>
<style><![CDATA[
text { fill: #e6e6e6 !important; }
polygon { fill: #2f2f2f !important; stroke: #9aa0a6 !important; }
path, line, polyline { stroke: #4e67d6 !important; }
]]></style>
<style><![CDATA[
text { fill: #e6e6e6 !important; }
polygon { fill: #2f2f2f !important; stroke: #9aa0a6 !important; }
path, line, polyline { stroke: #4e67d6 !important; }
]]></style>
<style><![CDATA[
text { fill: #e6e6e6 !important; }
polygon { fill: #2f2f2f !important; stroke: #9aa0a6 !important; }
path, line, polyline { stroke: #4e67d6 !important; }
]]></style>
<style><![CDATA[
text { fill: #e6e6e6 !important; }
polygon { fill: #2f2f2f !important; stroke: #9aa0a6 !important; }
path, line, polyline { stroke: #4e67d6 !important; }
]]></style>
<g id="graph0" class="graph" transform="scale(1 1) rotate(0) translate(4 208)">
<title>CameraControlWidget.cpp</title>
<!-- Node1 -->
<g id="node1" class="node">
<title>Node1</title>
<g id="a_node1"><a xlink:title="Camera backend for Control Widget.">
<polygon fill="#bfbfbf" stroke="black" points="954.5,-180.5 954.5,-203.5 1153.5,-203.5 1153.5,-180.5 954.5,-180.5"/>
<text text-anchor="middle" x="1054" y="-188.3" font-family="Helvetica,sans-Serif" font-size="14.00">CameraControlWidget.cpp</text>
</a>
</g>
</g>
<!-- Node2 -->
<g id="node2" class="node">
<title>Node2</title>
<g id="a_node2"><a xlink:href="CameraControlWidget_8h.html" target="_top" xlink:title="Camera backend for Control Widget.">
<polygon fill="none" stroke="black" points="0,-120.5 0,-143.5 182,-143.5 182,-120.5 0,-120.5"/>
<text text-anchor="middle" x="91" y="-128.3" font-family="Helvetica,sans-Serif" font-size="14.00">CameraControlWidget.h</text>
</a>
</g>
</g>
<!-- Node1&#45;&gt;Node2 -->
<g id="edge1" class="edge">
<title>Node1&#45;&gt;Node2</title>
<path fill="none" stroke="midnightblue" d="M954.21,-187.35C795.26,-181.15 474.54,-167.01 192.29,-144.07"/>
<polygon fill="midnightblue" stroke="midnightblue" points="192.52,-140.58 182.27,-143.25 191.95,-147.55 192.52,-140.58"/>
</g>
<!-- Node5 -->
<g id="node5" class="node">
<title>Node5</title>
<g id="a_node5"><a xlink:title=" ">
<polygon fill="none" stroke="#bfbfbf" points="200,-120.5 200,-143.5 316,-143.5 316,-120.5 200,-120.5"/>
<text text-anchor="middle" x="258" y="-128.3" font-family="Helvetica,sans-Serif" font-size="14.00">QButtonGroup</text>
</a>
</g>
</g>
<!-- Node1&#45;&gt;Node5 -->
<g id="edge4" class="edge">
<title>Node1&#45;&gt;Node5</title>
<path fill="none" stroke="midnightblue" d="M954.38,-187.68C815.81,-182.37 556.86,-169.93 326.32,-144.05"/>
<polygon fill="midnightblue" stroke="midnightblue" points="326.39,-140.54 316.06,-142.89 325.6,-147.49 326.39,-140.54"/>
</g>
<!-- Node6 -->
<g id="node6" class="node">
<title>Node6</title>
<g id="a_node6"><a xlink:title=" ">
<polygon fill="none" stroke="#bfbfbf" points="334.5,-120.5 334.5,-143.5 431.5,-143.5 431.5,-120.5 334.5,-120.5"/>
<text text-anchor="middle" x="383" y="-128.3" font-family="Helvetica,sans-Serif" font-size="14.00">QCheckBox</text>
</a>
</g>
</g>
<!-- Node1&#45;&gt;Node6 -->
<g id="edge5" class="edge">
<title>Node1&#45;&gt;Node6</title>
<path fill="none" stroke="midnightblue" d="M954.38,-186.76C834.93,-180.91 628.55,-168.36 441.68,-143.96"/>
<polygon fill="midnightblue" stroke="midnightblue" points="442.04,-140.48 431.67,-142.64 441.13,-147.41 442.04,-140.48"/>
</g>
<!-- Node7 -->
<g id="node7" class="node">
<title>Node7</title>
<g id="a_node7"><a xlink:title=" ">
<polygon fill="none" stroke="#bfbfbf" points="450,-120.5 450,-143.5 544,-143.5 544,-120.5 450,-120.5"/>
<text text-anchor="middle" x="497" y="-128.3" font-family="Helvetica,sans-Serif" font-size="14.00">QFileDialog</text>
</a>
</g>
</g>
<!-- Node1&#45;&gt;Node7 -->
<g id="edge6" class="edge">
<title>Node1&#45;&gt;Node7</title>
<path fill="none" stroke="midnightblue" d="M954.32,-184.61C855.24,-177.58 698.77,-164.65 554.24,-144.07"/>
<polygon fill="midnightblue" stroke="midnightblue" points="554.7,-140.6 544.3,-142.64 553.7,-147.53 554.7,-140.6"/>
</g>
<!-- Node8 -->
<g id="node8" class="node">
<title>Node8</title>
<g id="a_node8"><a xlink:title=" ">
<polygon fill="none" stroke="#bfbfbf" points="562,-120.5 562,-143.5 666,-143.5 666,-120.5 562,-120.5"/>
<text text-anchor="middle" x="614" y="-128.3" font-family="Helvetica,sans-Serif" font-size="14.00">QGridLayout</text>
</a>
</g>
</g>
<!-- Node1&#45;&gt;Node8 -->
<g id="edge7" class="edge">
<title>Node1&#45;&gt;Node8</title>
<path fill="none" stroke="midnightblue" d="M957.22,-180.48C882.99,-172.07 777.75,-159.4 676.33,-144.14"/>
<polygon fill="midnightblue" stroke="midnightblue" points="676.62,-140.65 666.21,-142.61 675.57,-147.57 676.62,-140.65"/>
</g>
<!-- Node9 -->
<g id="node9" class="node">
<title>Node9</title>
<g id="a_node9"><a xlink:title=" ">
<polygon fill="none" stroke="#bfbfbf" points="684.5,-120.5 684.5,-143.5 749.5,-143.5 749.5,-120.5 684.5,-120.5"/>
<text text-anchor="middle" x="717" y="-128.3" font-family="Helvetica,sans-Serif" font-size="14.00">QLabel</text>
</a>
</g>
</g>
<!-- Node1&#45;&gt;Node9 -->
<g id="edge8" class="edge">
<title>Node1&#45;&gt;Node9</title>
<path fill="none" stroke="midnightblue" d="M974.42,-180.48C917.27,-172.43 838.25,-160.27 759.98,-144.06"/>
<polygon fill="midnightblue" stroke="midnightblue" points="760.45,-140.58 749.94,-141.95 759.01,-147.43 760.45,-140.58"/>
</g>
<!-- Node10 -->
<g id="node10" class="node">
<title>Node10</title>
<g id="a_node10"><a xlink:title=" ">
<polygon fill="none" stroke="#bfbfbf" points="768,-120.5 768,-143.5 880,-143.5 880,-120.5 768,-120.5"/>
<text text-anchor="middle" x="824" y="-128.3" font-family="Helvetica,sans-Serif" font-size="14.00">QLCDNumber</text>
</a>
</g>
</g>
<!-- Node1&#45;&gt;Node10 -->
<g id="edge9" class="edge">
<title>Node1&#45;&gt;Node10</title>
<path fill="none" stroke="midnightblue" d="M1012.35,-180.5C973.96,-170.82 916.86,-156.42 875.59,-146.01"/>
<polygon fill="midnightblue" stroke="midnightblue" points="876.28,-142.57 865.73,-143.52 874.57,-149.36 876.28,-142.57"/>
</g>
<!-- Node11 -->
<g id="node11" class="node">
<title>Node11</title>
<g id="a_node11"><a xlink:title=" ">
<polygon fill="none" stroke="#bfbfbf" points="898.5,-120.5 898.5,-143.5 981.5,-143.5 981.5,-120.5 898.5,-120.5"/>
<text text-anchor="middle" x="940" y="-128.3" font-family="Helvetica,sans-Serif" font-size="14.00">QLineEdit</text>
</a>
</g>
</g>
<!-- Node1&#45;&gt;Node11 -->
<g id="edge10" class="edge">
<title>Node1&#45;&gt;Node11</title>
<path fill="none" stroke="midnightblue" d="M1033.36,-180.5C1015.63,-171.48 989.86,-158.36 969.88,-148.2"/>
<polygon fill="midnightblue" stroke="midnightblue" points="971.38,-145.04 960.88,-143.62 968.2,-151.28 971.38,-145.04"/>
</g>
<!-- Node12 -->
<g id="node12" class="node">
<title>Node12</title>
<g id="a_node12"><a xlink:title=" ">
<polygon fill="none" stroke="#bfbfbf" points="1000,-120.5 1000,-143.5 1108,-143.5 1108,-120.5 1000,-120.5"/>
<text text-anchor="middle" x="1054" y="-128.3" font-family="Helvetica,sans-Serif" font-size="14.00">QPushButton</text>
</a>
</g>
</g>
<!-- Node1&#45;&gt;Node12 -->
<g id="edge11" class="edge">
<title>Node1&#45;&gt;Node12</title>
<path fill="none" stroke="midnightblue" d="M1054,-180.36C1054,-172.92 1054,-162.74 1054,-153.73"/>
<polygon fill="midnightblue" stroke="midnightblue" points="1057.5,-153.57 1054,-143.57 1050.5,-153.57 1057.5,-153.57"/>
</g>
<!-- Node13 -->
<g id="node13" class="node">
<title>Node13</title>
<g id="a_node13"><a xlink:title=" ">
<polygon fill="none" stroke="#bfbfbf" points="1126.5,-120.5 1126.5,-143.5 1239.5,-143.5 1239.5,-120.5 1126.5,-120.5"/>
<text text-anchor="middle" x="1183" y="-128.3" font-family="Helvetica,sans-Serif" font-size="14.00">QRadioButton</text>
</a>
</g>
</g>
<!-- Node1&#45;&gt;Node13 -->
<g id="edge12" class="edge">
<title>Node1&#45;&gt;Node13</title>
<path fill="none" stroke="midnightblue" d="M1077.36,-180.5C1097.69,-171.36 1127.38,-158.01 1150.11,-147.79"/>
<polygon fill="midnightblue" stroke="midnightblue" points="1151.69,-150.91 1159.38,-143.62 1148.82,-144.53 1151.69,-150.91"/>
</g>
<!-- Node14 -->
<g id="node14" class="node">
<title>Node14</title>
<g id="a_node14"><a xlink:title=" ">
<polygon fill="none" stroke="#bfbfbf" points="1257.5,-120.5 1257.5,-143.5 1380.5,-143.5 1380.5,-120.5 1257.5,-120.5"/>
<text text-anchor="middle" x="1319" y="-128.3" font-family="Helvetica,sans-Serif" font-size="14.00">QSignalMapper</text>
</a>
</g>
</g>
<!-- Node1&#45;&gt;Node14 -->
<g id="edge13" class="edge">
<title>Node1&#45;&gt;Node14</title>
<path fill="none" stroke="midnightblue" d="M1101.99,-180.5C1146.69,-170.71 1213.41,-156.11 1261.06,-145.68"/>
<polygon fill="midnightblue" stroke="midnightblue" points="1261.9,-149.08 1270.92,-143.52 1260.4,-142.24 1261.9,-149.08"/>
</g>
<!-- Node15 -->
<g id="node15" class="node">
<title>Node15</title>
<g id="a_node15"><a xlink:title=" ">
<polygon fill="none" stroke="#bfbfbf" points="1399,-120.5 1399,-143.5 1467,-143.5 1467,-120.5 1399,-120.5"/>
<text text-anchor="middle" x="1433" y="-128.3" font-family="Helvetica,sans-Serif" font-size="14.00">QSlider</text>
</a>
</g>
</g>
<!-- Node1&#45;&gt;Node15 -->
<g id="edge14" class="edge">
<title>Node1&#45;&gt;Node15</title>
<path fill="none" stroke="midnightblue" d="M1148.3,-180.47C1215.67,-172.29 1308.29,-159.7 1389,-144 1389.1,-143.98 1389.2,-143.96 1389.3,-143.94"/>
<polygon fill="midnightblue" stroke="midnightblue" points="1389.92,-147.39 1398.97,-141.88 1388.46,-140.54 1389.92,-147.39"/>
</g>
<!-- Node16 -->
<g id="node16" class="node">
<title>Node16</title>
<g id="a_node16"><a xlink:href="Camera_8h.html" target="_top" xlink:title="Camera backend for .">
<polygon fill="none" stroke="black" points="1485,-120.5 1485,-143.5 1569,-143.5 1569,-120.5 1485,-120.5"/>
<text text-anchor="middle" x="1527" y="-128.3" font-family="Helvetica,sans-Serif" font-size="14.00">Camera.h</text>
</a>
</g>
</g>
<!-- Node1&#45;&gt;Node16 -->
<g id="edge15" class="edge">
<title>Node1&#45;&gt;Node16</title>
<path fill="none" stroke="midnightblue" d="M1153.72,-182.77C1237.05,-175.23 1359.17,-162.63 1474.68,-144.09"/>
<polygon fill="midnightblue" stroke="midnightblue" points="1475.45,-147.51 1484.76,-142.46 1474.33,-140.6 1475.45,-147.51"/>
</g>
<!-- Node29 -->
<g id="node29" class="node">
<title>Node29</title>
<g id="a_node29"><a xlink:href="QsLog_8h.html" target="_top" xlink:title="Qs Log logging support.">
<polygon fill="none" stroke="black" points="1825,-60.5 1825,-83.5 1899,-83.5 1899,-60.5 1825,-60.5"/>
<text text-anchor="middle" x="1862" y="-68.3" font-family="Helvetica,sans-Serif" font-size="14.00">QsLog.h</text>
</a>
</g>
</g>
<!-- Node1&#45;&gt;Node29 -->
<g id="edge31" class="edge">
<title>Node1&#45;&gt;Node29</title>
<path fill="none" stroke="midnightblue" d="M1153.58,-186.68C1259.43,-181.02 1431.42,-168.74 1578,-144 1663.86,-129.51 1762.01,-102.61 1817.53,-86.4"/>
<polygon fill="midnightblue" stroke="midnightblue" points="1818.78,-89.69 1827.39,-83.51 1816.81,-82.97 1818.78,-89.69"/>
</g>
<!-- Node32 -->
<g id="node32" class="node">
<title>Node32</title>
<g id="a_node32"><a xlink:href="Utils_8h.html" target="_top" xlink:title="Utility helpers.">
<polygon fill="none" stroke="black" points="1882.5,-120.5 1882.5,-143.5 1943.5,-143.5 1943.5,-120.5 1882.5,-120.5"/>
<text text-anchor="middle" x="1913" y="-128.3" font-family="Helvetica,sans-Serif" font-size="14.00">Utils.h</text>
</a>
</g>
</g>
<!-- Node1&#45;&gt;Node32 -->
<g id="edge32" class="edge">
<title>Node1&#45;&gt;Node32</title>
<path fill="none" stroke="midnightblue" d="M1153.8,-184.26C1342.14,-171.54 1742.69,-144.5 1871.9,-135.78"/>
<polygon fill="midnightblue" stroke="midnightblue" points="1872.4,-139.25 1882.14,-135.08 1871.93,-132.27 1872.4,-139.25"/>
</g>
<!-- Node37 -->
<g id="node37" class="node">
<title>Node37</title>
<g id="a_node37"><a xlink:title=" ">
<polygon fill="none" stroke="#bfbfbf" points="1962,-120.5 1962,-143.5 2024,-143.5 2024,-120.5 1962,-120.5"/>
<text text-anchor="middle" x="1993" y="-128.3" font-family="Helvetica,sans-Serif" font-size="14.00">hdf5.h</text>
</a>
</g>
</g>
<!-- Node1&#45;&gt;Node37 -->
<g id="edge38" class="edge">
<title>Node1&#45;&gt;Node37</title>
<path fill="none" stroke="midnightblue" d="M1153.7,-188.5C1350.56,-183.14 1783.9,-169.04 1951.75,-143.85"/>
<polygon fill="midnightblue" stroke="midnightblue" points="1952.36,-147.3 1961.7,-142.3 1951.28,-140.38 1952.36,-147.3"/>
</g>
<!-- Node38 -->
<g id="node38" class="node">
<title>Node38</title>
<g id="a_node38"><a xlink:title=" ">
<polygon fill="none" stroke="#bfbfbf" points="2042,-120.5 2042,-143.5 2124,-143.5 2124,-120.5 2042,-120.5"/>
<text text-anchor="middle" x="2083" y="-128.3" font-family="Helvetica,sans-Serif" font-size="14.00">hdf5_hl.h</text>
</a>
</g>
</g>
<!-- Node1&#45;&gt;Node38 -->
<g id="edge39" class="edge">
<title>Node1&#45;&gt;Node38</title>
<path fill="none" stroke="midnightblue" d="M1153.51,-191.74C1329.18,-191.84 1705.75,-186.6 2031.78,-143.96"/>
<polygon fill="midnightblue" stroke="midnightblue" points="2032.44,-147.4 2041.9,-142.62 2031.52,-140.46 2032.44,-147.4"/>
</g>
<!-- Node3 -->
<g id="node3" class="node">
<title>Node3</title>
<g id="a_node3"><a xlink:title=" ">
<polygon fill="none" stroke="#bfbfbf" points="9.5,-60.5 9.5,-83.5 80.5,-83.5 80.5,-60.5 9.5,-60.5"/>
<text text-anchor="middle" x="45" y="-68.3" font-family="Helvetica,sans-Serif" font-size="14.00">QVector</text>
</a>
</g>
</g>
<!-- Node2&#45;&gt;Node3 -->
<g id="edge2" class="edge">
<title>Node2&#45;&gt;Node3</title>
<path fill="none" stroke="midnightblue" d="M82.56,-120.36C76.21,-112.35 67.33,-101.16 59.81,-91.67"/>
<polygon fill="midnightblue" stroke="midnightblue" points="62.34,-89.23 53.38,-83.57 56.86,-93.58 62.34,-89.23"/>
</g>
<!-- Node4 -->
<g id="node4" class="node">
<title>Node4</title>
<g id="a_node4"><a xlink:title=" ">
<polygon fill="none" stroke="#bfbfbf" points="98.5,-60.5 98.5,-83.5 175.5,-83.5 175.5,-60.5 98.5,-60.5"/>
<text text-anchor="middle" x="137" y="-68.3" font-family="Helvetica,sans-Serif" font-size="14.00">QWidget</text>
</a>
</g>
</g>
<!-- Node2&#45;&gt;Node4 -->
<g id="edge3" class="edge">
<title>Node2&#45;&gt;Node4</title>
<path fill="none" stroke="midnightblue" d="M99.44,-120.36C105.79,-112.35 114.67,-101.16 122.19,-91.67"/>
<polygon fill="midnightblue" stroke="midnightblue" points="125.14,-93.58 128.62,-83.57 119.66,-89.23 125.14,-93.58"/>
</g>
<!-- Node17 -->
<g id="node17" class="node">
<title>Node17</title>
<g id="a_node17"><a xlink:title=" ">
<polygon fill="none" stroke="#bfbfbf" points="807,-60.5 807,-83.5 873,-83.5 873,-60.5 807,-60.5"/>
<text text-anchor="middle" x="840" y="-68.3" font-family="Helvetica,sans-Serif" font-size="14.00">math.h</text>
</a>
</g>
</g>
<!-- Node16&#45;&gt;Node17 -->
<g id="edge16" class="edge">
<title>Node16&#45;&gt;Node17</title>
<path fill="none" stroke="midnightblue" d="M1484.79,-121.38C1481.82,-120.86 1478.87,-120.39 1476,-120 1217.3,-84.47 1145,-124.66 883.53,-83.97"/>
<polygon fill="midnightblue" stroke="midnightblue" points="883.77,-80.47 873.35,-82.36 882.68,-87.38 883.77,-80.47"/>
</g>
<!-- Node18 -->
<g id="node18" class="node">
<title>Node18</title>
<g id="a_node18"><a xlink:title=" ">
<polygon fill="none" stroke="#bfbfbf" points="891,-60.5 891,-83.5 967,-83.5 967,-60.5 891,-60.5"/>
<text text-anchor="middle" x="929" y="-68.3" font-family="Helvetica,sans-Serif" font-size="14.00">QThread</text>
</a>
</g>
</g>
<!-- Node16&#45;&gt;Node18 -->
<g id="edge17" class="edge">
<title>Node16&#45;&gt;Node18</title>
<path fill="none" stroke="midnightblue" d="M1484.78,-121.42C1481.82,-120.89 1478.87,-120.41 1476,-120 1258.68,-88.9 1198.03,-116.65 977.08,-83.95"/>
<polygon fill="midnightblue" stroke="midnightblue" points="977.53,-80.48 967.12,-82.45 976.49,-87.4 977.53,-80.48"/>
</g>
<!-- Node19 -->
<g id="node19" class="node">
<title>Node19</title>
<g id="a_node19"><a xlink:title=" ">
<polygon fill="none" stroke="#bfbfbf" points="985.5,-60.5 985.5,-83.5 1064.5,-83.5 1064.5,-60.5 985.5,-60.5"/>
<text text-anchor="middle" x="1025" y="-68.3" font-family="Helvetica,sans-Serif" font-size="14.00">QPixmap</text>
</a>
</g>
</g>
<!-- Node16&#45;&gt;Node19 -->
<g id="edge18" class="edge">
<title>Node16&#45;&gt;Node19</title>
<path fill="none" stroke="midnightblue" d="M1484.77,-121.47C1481.81,-120.93 1478.87,-120.44 1476,-120 1301.43,-93.48 1252.37,-111.47 1074.67,-84.1"/>
<polygon fill="midnightblue" stroke="midnightblue" points="1075.15,-80.63 1064.73,-82.54 1074.07,-87.55 1075.15,-80.63"/>
</g>
<!-- Node20 -->
<g id="node20" class="node">
<title>Node20</title>
<g id="a_node20"><a xlink:title=" ">
<polygon fill="none" stroke="#bfbfbf" points="1082.5,-60.5 1082.5,-83.5 1153.5,-83.5 1153.5,-60.5 1082.5,-60.5"/>
<text text-anchor="middle" x="1118" y="-68.3" font-family="Helvetica,sans-Serif" font-size="14.00">QImage</text>
</a>
</g>
</g>
<!-- Node16&#45;&gt;Node20 -->
<g id="edge19" class="edge">
<title>Node16&#45;&gt;Node20</title>
<path fill="none" stroke="midnightblue" d="M1484.76,-121.55C1481.8,-121 1478.86,-120.47 1476,-120 1340.65,-97.7 1302.01,-108.55 1164.04,-84.21"/>
<polygon fill="midnightblue" stroke="midnightblue" points="1164.4,-80.71 1153.94,-82.39 1163.16,-87.6 1164.4,-80.71"/>
</g>
<!-- Node21 -->
<g id="node21" class="node">
<title>Node21</title>
<g id="a_node21"><a xlink:title=" ">
<polygon fill="none" stroke="#bfbfbf" points="1171.5,-60.5 1171.5,-83.5 1268.5,-83.5 1268.5,-60.5 1171.5,-60.5"/>
<text text-anchor="middle" x="1220" y="-68.3" font-family="Helvetica,sans-Serif" font-size="14.00">QByteArray</text>
</a>
</g>
</g>
<!-- Node16&#45;&gt;Node21 -->
<g id="edge20" class="edge">
<title>Node16&#45;&gt;Node21</title>
<path fill="none" stroke="midnightblue" d="M1485,-121.82C1481.96,-121.2 1478.93,-120.58 1476,-120 1390.94,-103.14 1367.01,-100.68 1278.45,-84.25"/>
<polygon fill="midnightblue" stroke="midnightblue" points="1278.97,-80.79 1268.5,-82.4 1277.69,-87.67 1278.97,-80.79"/>
</g>
<!-- Node22 -->
<g id="node22" class="node">
<title>Node22</title>
<g id="a_node22"><a xlink:title=" ">
<polygon fill="none" stroke="#bfbfbf" points="1286.5,-60.5 1286.5,-83.5 1357.5,-83.5 1357.5,-60.5 1286.5,-60.5"/>
<text text-anchor="middle" x="1322" y="-68.3" font-family="Helvetica,sans-Serif" font-size="14.00">QBuffer</text>
</a>
</g>
</g>
<!-- Node16&#45;&gt;Node22 -->
<g id="edge21" class="edge">
<title>Node16&#45;&gt;Node22</title>
<path fill="none" stroke="midnightblue" d="M1489.88,-120.5C1455.6,-110.8 1404.58,-96.36 1367.79,-85.96"/>
<polygon fill="midnightblue" stroke="midnightblue" points="1368.39,-82.49 1357.82,-83.13 1366.49,-89.22 1368.39,-82.49"/>
</g>
<!-- Node23 -->
<g id="node23" class="node">
<title>Node23</title>
<g id="a_node23"><a xlink:title=" ">
<polygon fill="none" stroke="#bfbfbf" points="1375.5,-60.5 1375.5,-83.5 1446.5,-83.5 1446.5,-60.5 1375.5,-60.5"/>
<text text-anchor="middle" x="1411" y="-68.3" font-family="Helvetica,sans-Serif" font-size="14.00">QMutex</text>
</a>
</g>
</g>
<!-- Node16&#45;&gt;Node23 -->
<g id="edge22" class="edge">
<title>Node16&#45;&gt;Node23</title>
<path fill="none" stroke="midnightblue" d="M1505.99,-120.5C1487.96,-111.48 1461.73,-98.36 1441.4,-88.2"/>
<polygon fill="midnightblue" stroke="midnightblue" points="1442.75,-84.96 1432.24,-83.62 1439.62,-91.22 1442.75,-84.96"/>
</g>
<!-- Node24 -->
<g id="node24" class="node">
<title>Node24</title>
<g id="a_node24"><a xlink:title=" ">
<polygon fill="none" stroke="#bfbfbf" points="1465,-60.5 1465,-83.5 1589,-83.5 1589,-60.5 1465,-60.5"/>
<text text-anchor="middle" x="1527" y="-68.3" font-family="Helvetica,sans-Serif" font-size="14.00">QWaitCondition</text>
</a>
</g>
</g>
<!-- Node16&#45;&gt;Node24 -->
<g id="edge23" class="edge">
<title>Node16&#45;&gt;Node24</title>
<path fill="none" stroke="midnightblue" d="M1527,-120.36C1527,-112.92 1527,-102.74 1527,-93.73"/>
<polygon fill="midnightblue" stroke="midnightblue" points="1530.5,-93.57 1527,-83.57 1523.5,-93.57 1530.5,-93.57"/>
</g>
<!-- Node25 -->
<g id="node25" class="node">
<title>Node25</title>
<g id="a_node25"><a xlink:title=" ">
<polygon fill="none" stroke="#bfbfbf" points="1607,-60.5 1607,-83.5 1669,-83.5 1669,-60.5 1607,-60.5"/>
<text text-anchor="middle" x="1638" y="-68.3" font-family="Helvetica,sans-Serif" font-size="14.00">QTime</text>
</a>
</g>
</g>
<!-- Node16&#45;&gt;Node25 -->
<g id="edge24" class="edge">
<title>Node16&#45;&gt;Node25</title>
<path fill="none" stroke="midnightblue" d="M1547.1,-120.5C1564.28,-111.52 1589.23,-98.48 1608.64,-88.34"/>
<polygon fill="midnightblue" stroke="midnightblue" points="1610.43,-91.35 1617.67,-83.62 1607.19,-85.15 1610.43,-91.35"/>
</g>
<!-- Node26 -->
<g id="node26" class="node">
<title>Node26</title>
<g id="a_node26"><a xlink:href="PosixCompat_8h.html" target="_top" xlink:title=" ">
<polygon fill="none" stroke="black" points="1687,-60.5 1687,-83.5 1807,-83.5 1807,-60.5 1687,-60.5"/>
<text text-anchor="middle" x="1747" y="-68.3" font-family="Helvetica,sans-Serif" font-size="14.00">PosixCompat.h</text>
</a>
</g>
</g>
<!-- Node16&#45;&gt;Node26 -->
<g id="edge25" class="edge">
<title>Node16&#45;&gt;Node26</title>
<path fill="none" stroke="midnightblue" d="M1566.84,-120.5C1603.48,-110.84 1657.95,-96.48 1697.4,-86.08"/>
<polygon fill="midnightblue" stroke="midnightblue" points="1698.31,-89.46 1707.08,-83.52 1696.52,-82.69 1698.31,-89.46"/>
</g>
<!-- Node16&#45;&gt;Node29 -->
<g id="edge28" class="edge">
<title>Node16&#45;&gt;Node29</title>
<path fill="none" stroke="midnightblue" d="M1569.29,-125.12C1623.83,-117.31 1721.79,-102.55 1815.02,-84.09"/>
<polygon fill="midnightblue" stroke="midnightblue" points="1815.77,-87.51 1824.89,-82.12 1814.4,-80.65 1815.77,-87.51"/>
</g>
<!-- Node27 -->
<g id="node27" class="node">
<title>Node27</title>
<g id="a_node27"><a xlink:title=" ">
<polygon fill="none" stroke="#bfbfbf" points="1620.5,-0.5 1620.5,-23.5 1697.5,-23.5 1697.5,-0.5 1620.5,-0.5"/>
<text text-anchor="middle" x="1659" y="-8.3" font-family="Helvetica,sans-Serif" font-size="14.00">QtGlobal</text>
</a>
</g>
</g>
<!-- Node26&#45;&gt;Node27 -->
<g id="edge26" class="edge">
<title>Node26&#45;&gt;Node27</title>
<path fill="none" stroke="midnightblue" d="M1730.86,-60.36C1717.59,-51.61 1698.57,-39.08 1683.43,-29.1"/>
<polygon fill="midnightblue" stroke="midnightblue" points="1685.31,-26.15 1675.04,-23.57 1681.46,-32 1685.31,-26.15"/>
</g>
<!-- Node28 -->
<g id="node28" class="node">
<title>Node28</title>
<g id="a_node28"><a xlink:title=" ">
<polygon fill="none" stroke="#bfbfbf" points="1716,-0.5 1716,-23.5 1790,-23.5 1790,-0.5 1716,-0.5"/>
<text text-anchor="middle" x="1753" y="-8.3" font-family="Helvetica,sans-Serif" font-size="14.00">unistd.h</text>
</a>
</g>
</g>
<!-- Node26&#45;&gt;Node28 -->
<g id="edge27" class="edge">
<title>Node26&#45;&gt;Node28</title>
<path fill="none" stroke="midnightblue" d="M1748.1,-60.36C1748.87,-52.92 1749.92,-42.74 1750.86,-33.73"/>
<polygon fill="midnightblue" stroke="midnightblue" points="1754.36,-33.88 1751.91,-23.57 1747.4,-33.16 1754.36,-33.88"/>
</g>
<!-- Node30 -->
<g id="node30" class="node">
<title>Node30</title>
<g id="a_node30"><a xlink:title=" ">
<polygon fill="none" stroke="#bfbfbf" points="1819,-0.5 1819,-23.5 1893,-23.5 1893,-0.5 1819,-0.5"/>
<text text-anchor="middle" x="1856" y="-8.3" font-family="Helvetica,sans-Serif" font-size="14.00">QDebug</text>
</a>
</g>
</g>
<!-- Node29&#45;&gt;Node30 -->
<g id="edge29" class="edge">
<title>Node29&#45;&gt;Node30</title>
<path fill="none" stroke="midnightblue" d="M1860.9,-60.36C1860.13,-52.92 1859.08,-42.74 1858.14,-33.73"/>
<polygon fill="midnightblue" stroke="midnightblue" points="1861.6,-33.16 1857.09,-23.57 1854.64,-33.88 1861.6,-33.16"/>
</g>
<!-- Node31 -->
<g id="node31" class="node">
<title>Node31</title>
<g id="a_node31"><a xlink:title=" ">
<polygon fill="none" stroke="#bfbfbf" points="1911,-0.5 1911,-23.5 1981,-23.5 1981,-0.5 1911,-0.5"/>
<text text-anchor="middle" x="1946" y="-8.3" font-family="Helvetica,sans-Serif" font-size="14.00">QString</text>
</a>
</g>
</g>
<!-- Node29&#45;&gt;Node31 -->
<g id="edge30" class="edge">
<title>Node29&#45;&gt;Node31</title>
<path fill="none" stroke="midnightblue" d="M1877.41,-60.36C1889.96,-51.7 1907.89,-39.31 1922.27,-29.38"/>
<polygon fill="midnightblue" stroke="midnightblue" points="1924.45,-32.13 1930.69,-23.57 1920.47,-26.37 1924.45,-32.13"/>
</g>
<!-- Node32&#45;&gt;Node29 -->
<g id="edge37" class="edge">
<title>Node32&#45;&gt;Node29</title>
<path fill="none" stroke="midnightblue" d="M1903.65,-120.36C1896.46,-112.19 1886.36,-100.7 1877.91,-91.09"/>
<polygon fill="midnightblue" stroke="midnightblue" points="1880.53,-88.77 1871.29,-83.57 1875.27,-93.39 1880.53,-88.77"/>
</g>
<!-- Node33 -->
<g id="node33" class="node">
<title>Node33</title>
<g id="a_node33"><a xlink:title=" ">
<polygon fill="none" stroke="#bfbfbf" points="1917,-60.5 1917,-83.5 2011,-83.5 2011,-60.5 1917,-60.5"/>
<text text-anchor="middle" x="1964" y="-68.3" font-family="Helvetica,sans-Serif" font-size="14.00">QDateTime</text>
</a>
</g>
</g>
<!-- Node32&#45;&gt;Node33 -->
<g id="edge33" class="edge">
<title>Node32&#45;&gt;Node33</title>
<path fill="none" stroke="midnightblue" d="M1922.35,-120.36C1929.54,-112.19 1939.64,-100.7 1948.09,-91.09"/>
<polygon fill="midnightblue" stroke="midnightblue" points="1950.73,-93.39 1954.71,-83.57 1945.47,-88.77 1950.73,-93.39"/>
</g>
<!-- Node34 -->
<g id="node34" class="node">
<title>Node34</title>
<g id="a_node34"><a xlink:title=" ">
<polygon fill="none" stroke="#bfbfbf" points="2029,-60.5 2029,-83.5 2077,-83.5 2077,-60.5 2029,-60.5"/>
<text text-anchor="middle" x="2053" y="-68.3" font-family="Helvetica,sans-Serif" font-size="14.00">QDir</text>
</a>
</g>
</g>
<!-- Node32&#45;&gt;Node34 -->
<g id="edge34" class="edge">
<title>Node32&#45;&gt;Node34</title>
<path fill="none" stroke="midnightblue" d="M1938.35,-120.5C1961.03,-111.1 1994.44,-97.26 2019.35,-86.94"/>
<polygon fill="midnightblue" stroke="midnightblue" points="2020.87,-90.1 2028.77,-83.04 2018.19,-83.63 2020.87,-90.1"/>
</g>
<!-- Node35 -->
<g id="node35" class="node">
<title>Node35</title>
<g id="a_node35"><a xlink:title=" ">
<polygon fill="none" stroke="#bfbfbf" points="2095.5,-60.5 2095.5,-83.5 2190.5,-83.5 2190.5,-60.5 2095.5,-60.5"/>
<text text-anchor="middle" x="2143" y="-68.3" font-family="Helvetica,sans-Serif" font-size="14.00">QTableView</text>
</a>
</g>
</g>
<!-- Node32&#45;&gt;Node35 -->
<g id="edge35" class="edge">
<title>Node32&#45;&gt;Node35</title>
<path fill="none" stroke="midnightblue" d="M1943.55,-122.51C1946.74,-121.65 1949.93,-120.8 1953,-120 1998.87,-108.02 2051.19,-95.14 2089.29,-85.89"/>
<polygon fill="midnightblue" stroke="midnightblue" points="2090.25,-89.26 2099.15,-83.51 2088.61,-82.46 2090.25,-89.26"/>
</g>
<!-- Node36 -->
<g id="node36" class="node">
<title>Node36</title>
<g id="a_node36"><a xlink:title=" ">
<polygon fill="none" stroke="#bfbfbf" points="2208.5,-60.5 2208.5,-83.5 2263.5,-83.5 2263.5,-60.5 2208.5,-60.5"/>
<text text-anchor="middle" x="2236" y="-68.3" font-family="Helvetica,sans-Serif" font-size="14.00">QtSql</text>
</a>
</g>
</g>
<!-- Node32&#45;&gt;Node36 -->
<g id="edge36" class="edge">
<title>Node32&#45;&gt;Node36</title>
<path fill="none" stroke="midnightblue" d="M1943.92,-122.09C1946.97,-121.33 1950.04,-120.62 1953,-120 2058.4,-97.92 2089.92,-107.66 2198.19,-84.17"/>
<polygon fill="midnightblue" stroke="midnightblue" points="2199.2,-87.53 2208.2,-81.95 2197.68,-80.7 2199.2,-87.53"/>
</g>
</g>
</svg>
