<?xml version="1.0" encoding="UTF-8" standalone="no"?>
<!DOCTYPE svg PUBLIC "-//W3C//DTD SVG 1.1//EN"
 "http://www.w3.org/Graphics/SVG/1.1/DTD/svg11.dtd">
<!-- Generated by graphviz version 2.50.0 (0)
 -->
<!-- Title: CameraUSB.h Pages: 1 -->
<!--zoomable 212 -->
<svg id="main" version="1.1" xmlns="http://www.w3.org/2000/svg" xmlns:xlink="http://www.w3.org/1999/xlink" xml:space="preserve" onload="init(evt)">
<style><![CDATA[
text { fill: #e6e6e6 !important; }
polygon { fill: #2f2f2f !important; stroke: #9aa0a6 !important; }
path, line, polyline { stroke: #4e67d6 !important; }
]]></style>
<style><![CDATA[
text { fill: #e6e6e6 !important; }
polygon { fill: #2f2f2f !important; stroke: #9aa0a6 !important; }
path, line, polyline { stroke: #4e67d6 !important; }
]]></style>
<style><![CDATA[
text { fill: #e6e6e6 !important; }
polygon { fill: #2f2f2f !important; stroke: #9aa0a6 !important; }
path, line, polyline { stroke: #4e67d6 !important; }
]]></style>
<style><![CDATA[
text { fill: #e6e6e6 !important; }
polygon { fill: #2f2f2f !important; stroke: #9aa0a6 !important; }
path, line, polyline { stroke: #4e67d6 !important; }
]]></style>
<style><![CDATA[
text { fill: #e6e6e6 !important; }
polygon { fill: #2f2f2f !important; stroke: #9aa0a6 !important; }
path, line, polyline { stroke: #4e67d6 !important; }
]]></style>
<style><![CDATA[
text { fill: #e6e6e6 !important; }
polygon { fill: #2f2f2f !important; stroke: #9aa0a6 !important; }
path, line, polyline { stroke: #4e67d6 !important; }
]]></style>
<style><![CDATA[
text { fill: #e6e6e6 !important; }
polygon { fill: #2f2f2f !important; stroke: #9aa0a6 !important; }
path, line, polyline { stroke: #4e67d6 !important; }
]]></style>
<style type="text/css"><![CDATA[
.edge:hover path { stroke: red; }
.edge:hover polygon { stroke: red; fill: red; }
]]></style>
<script type="text/javascript"><![CDATA[
var edges = document.getElementsByTagName('g');
if (edges && edges.length) {
  for (var i=0;i<edges.length;i++) {
    if (edges[i].id.substr(0,4)=='edge') {
      edges[i].setAttribute('class','edge');
    }
  }
}
]]></script>
        <defs>
                <circle id="rim" cx="0" cy="0" r="7"/>
                <circle id="rim2" cx="0" cy="0" r="3.5"/>
                <g id="zoomPlus">
                        <use xlink:href="#rim" fill="#404040">
                                <set attributeName="fill" to="#808080" begin="zoomplus.mouseover" end="zoomplus.mouseout"/>
                        </use>
                        <path d="M-4,0h8M0,-4v8" fill="none" stroke="white" stroke-width="1.5" pointer-events="none"/>
                </g>
                <g id="zoomMin">
                        <use xlink:href="#rim" fill="#404040">
                                <set attributeName="fill" to="#808080" begin="zoomminus.mouseover" end="zoomminus.mouseout"/>
                        </use>
                        <path d="M-4,0h8" fill="none" stroke="white" stroke-width="1.5" pointer-events="none"/>
                </g>
                <g id="dirArrow">
                        <path fill="none" stroke="white" stroke-width="1.5" d="M0,-3.0v7 M-2.5,-0.5L0,-3.0L2.5,-0.5"/>
                </g>
               <g id="resetDef">
                       <use xlink:href="#rim2" fill="#404040">
                               <set attributeName="fill" to="#808080" begin="reset.mouseover" end="reset.mouseout"/>
                       </use>
               </g>
        </defs>

<script type="text/javascript">
var viewWidth = 1547;
var viewHeight = 212;
var sectionId = 'dynsection-0';
</script>
<script xlink:href="svgpan.js"/>
<svg id="graph" class="graph">
<g id="viewport">
<title>CameraUSB.h</title>
<!-- Node1 -->
<g id="node1" class="node">
<title>Node1</title>
<g id="a_node1"><a xlink:title="Camera backend for USB.">
<polygon fill="#bfbfbf" stroke="black" points="341.76,-180.5 341.76,-203.5 454.76,-203.5 454.76,-180.5 341.76,-180.5"/>
<text text-anchor="middle" x="398.26" y="-188.3" font-family="Helvetica,sans-Serif" font-size="14.00">CameraUSB.h</text>
</a>
</g>
</g>
<!-- Node2 -->
<g id="node2" class="node">
<title>Node2</title>
<g id="a_node2"><a xlink:title=" ">
<polygon fill="none" stroke="#bfbfbf" points="585.76,-0.5 585.76,-23.5 662.76,-23.5 662.76,-0.5 585.76,-0.5"/>
<text text-anchor="middle" x="624.26" y="-8.3" font-family="Helvetica,sans-Serif" font-size="14.00">QtGlobal</text>
</a>
</g>
</g>
<!-- Node1&#45;&gt;Node2 -->
<g id="edge1" class="edge">
<title>Node1&#45;&gt;Node2</title>
<path fill="none" stroke="midnightblue" d="M341.36,-188.3C237.81,-182.81 27.18,-168.7 5.26,-144 -1.82,-136.02 -1.61,-128.16 5.26,-120 78.35,-33.19 441.69,-16.81 575.06,-13.72"/>
<polygon fill="midnightblue" stroke="midnightblue" points="575.45,-17.21 585.38,-13.5 575.3,-10.21 575.45,-17.21"/>
</g>
<!-- Node3 -->
<g id="node3" class="node">
<title>Node3</title>
<g id="a_node3"><a xlink:title=" ">
<polygon fill="none" stroke="#bfbfbf" points="14.26,-120.5 14.26,-143.5 96.26,-143.5 96.26,-120.5 14.26,-120.5"/>
<text text-anchor="middle" x="55.26" y="-128.3" font-family="Helvetica,sans-Serif" font-size="14.00">QCamera</text>
</a>
</g>
</g>
<!-- Node1&#45;&gt;Node3 -->
<g id="edge2" class="edge">
<title>Node1&#45;&gt;Node3</title>
<path fill="none" stroke="midnightblue" d="M341.65,-182.91C284.65,-174.53 193.97,-160.61 106.27,-144.12"/>
<polygon fill="midnightblue" stroke="midnightblue" points="106.9,-140.67 96.42,-142.25 105.59,-147.55 106.9,-140.67"/>
</g>
<!-- Node4 -->
<g id="node4" class="node">
<title>Node4</title>
<g id="a_node4"><a xlink:title=" ">
<polygon fill="none" stroke="#bfbfbf" points="114.26,-120.5 114.26,-143.5 242.26,-143.5 242.26,-120.5 114.26,-120.5"/>
<text text-anchor="middle" x="178.26" y="-128.3" font-family="Helvetica,sans-Serif" font-size="14.00">QCameraDevice</text>
</a>
</g>
</g>
<!-- Node1&#45;&gt;Node4 -->
<g id="edge3" class="edge">
<title>Node1&#45;&gt;Node4</title>
<path fill="none" stroke="midnightblue" d="M358.42,-180.5C321.78,-170.84 267.31,-156.48 227.86,-146.08"/>
<polygon fill="midnightblue" stroke="midnightblue" points="228.73,-142.69 218.17,-143.52 226.95,-149.46 228.73,-142.69"/>
</g>
<!-- Node5 -->
<g id="node5" class="node">
<title>Node5</title>
<g id="a_node5"><a xlink:title=" ">
<polygon fill="none" stroke="#bfbfbf" points="260.26,-120.5 260.26,-143.5 390.26,-143.5 390.26,-120.5 260.26,-120.5"/>
<text text-anchor="middle" x="325.26" y="-128.3" font-family="Helvetica,sans-Serif" font-size="14.00">QCameraFormat</text>
</a>
</g>
</g>
<!-- Node1&#45;&gt;Node5 -->
<g id="edge4" class="edge">
<title>Node1&#45;&gt;Node5</title>
<path fill="none" stroke="midnightblue" d="M384.87,-180.36C374.17,-171.86 358.96,-159.78 346.59,-149.95"/>
<polygon fill="midnightblue" stroke="midnightblue" points="348.57,-147.05 338.56,-143.57 344.21,-152.53 348.57,-147.05"/>
</g>
<!-- Node6 -->
<g id="node6" class="node">
<title>Node6</title>
<g id="a_node6"><a xlink:title=" ">
<polygon fill="none" stroke="#bfbfbf" points="408.26,-120.5 408.26,-143.5 534.26,-143.5 534.26,-120.5 408.26,-120.5"/>
<text text-anchor="middle" x="471.26" y="-128.3" font-family="Helvetica,sans-Serif" font-size="14.00">QImageCapture</text>
</a>
</g>
</g>
<!-- Node1&#45;&gt;Node6 -->
<g id="edge5" class="edge">
<title>Node1&#45;&gt;Node6</title>
<path fill="none" stroke="midnightblue" d="M411.65,-180.36C422.35,-171.86 437.55,-159.78 449.93,-149.95"/>
<polygon fill="midnightblue" stroke="midnightblue" points="452.3,-152.53 457.95,-143.57 447.95,-147.05 452.3,-152.53"/>
</g>
<!-- Node7 -->
<g id="node7" class="node">
<title>Node7</title>
<g id="a_node7"><a xlink:title=" ">
<polygon fill="none" stroke="#bfbfbf" points="552.76,-120.5 552.76,-143.5 729.76,-143.5 729.76,-120.5 552.76,-120.5"/>
<text text-anchor="middle" x="641.26" y="-128.3" font-family="Helvetica,sans-Serif" font-size="14.00">QMediaCaptureSession</text>
</a>
</g>
</g>
<!-- Node1&#45;&gt;Node7 -->
<g id="edge6" class="edge">
<title>Node1&#45;&gt;Node7</title>
<path fill="none" stroke="midnightblue" d="M442.26,-180.5C482.99,-170.78 543.66,-156.29 587.3,-145.88"/>
<polygon fill="midnightblue" stroke="midnightblue" points="588.26,-149.25 597.17,-143.52 586.63,-142.44 588.26,-149.25"/>
</g>
<!-- Node8 -->
<g id="node8" class="node">
<title>Node8</title>
<g id="a_node8"><a xlink:title=" ">
<polygon fill="none" stroke="#bfbfbf" points="747.76,-120.5 747.76,-143.5 870.76,-143.5 870.76,-120.5 747.76,-120.5"/>
<text text-anchor="middle" x="809.26" y="-128.3" font-family="Helvetica,sans-Serif" font-size="14.00">QMediaDevices</text>
</a>
</g>
</g>
<!-- Node1&#45;&gt;Node8 -->
<g id="edge7" class="edge">
<title>Node1&#45;&gt;Node8</title>
<path fill="none" stroke="midnightblue" d="M454.85,-183.47C520.32,-174.68 631.62,-159.56 737.77,-144.05"/>
<polygon fill="midnightblue" stroke="midnightblue" points="738.31,-147.51 747.69,-142.6 737.29,-140.59 738.31,-147.51"/>
</g>
<!-- Node9 -->
<g id="node9" class="node">
<title>Node9</title>
<g id="a_node9"><a xlink:href="Camera_8h.html" target="_top" xlink:title="Camera backend for .">
<polygon fill="none" stroke="black" points="889.26,-120.5 889.26,-143.5 973.26,-143.5 973.26,-120.5 889.26,-120.5"/>
<text text-anchor="middle" x="931.26" y="-128.3" font-family="Helvetica,sans-Serif" font-size="14.00">Camera.h</text>
</a>
</g>
</g>
<!-- Node1&#45;&gt;Node9 -->
<g id="edge8" class="edge">
<title>Node1&#45;&gt;Node9</title>
<path fill="none" stroke="midnightblue" d="M454.79,-187.52C543.1,-181.63 719.26,-168.09 879.03,-143.87"/>
<polygon fill="midnightblue" stroke="midnightblue" points="879.69,-147.31 889.04,-142.34 878.63,-140.4 879.69,-147.31"/>
</g>
<!-- Node10 -->
<g id="node10" class="node">
<title>Node10</title>
<g id="a_node10"><a xlink:title=" ">
<polygon fill="none" stroke="#bfbfbf" points="371.26,-60.5 371.26,-83.5 437.26,-83.5 437.26,-60.5 371.26,-60.5"/>
<text text-anchor="middle" x="404.26" y="-68.3" font-family="Helvetica,sans-Serif" font-size="14.00">math.h</text>
</a>
</g>
</g>
<!-- Node9&#45;&gt;Node10 -->
<g id="edge9" class="edge">
<title>Node9&#45;&gt;Node10</title>
<path fill="none" stroke="midnightblue" d="M889.05,-121.61C885.75,-121.02 882.45,-120.47 879.26,-120 691.46,-92.44 638.4,-115.76 447.69,-84"/>
<polygon fill="midnightblue" stroke="midnightblue" points="448.06,-80.51 437.61,-82.29 446.89,-87.41 448.06,-80.51"/>
</g>
<!-- Node11 -->
<g id="node11" class="node">
<title>Node11</title>
<g id="a_node11"><a xlink:title=" ">
<polygon fill="none" stroke="#bfbfbf" points="455.26,-60.5 455.26,-83.5 531.26,-83.5 531.26,-60.5 455.26,-60.5"/>
<text text-anchor="middle" x="493.26" y="-68.3" font-family="Helvetica,sans-Serif" font-size="14.00">QThread</text>
</a>
</g>
</g>
<!-- Node9&#45;&gt;Node11 -->
<g id="edge10" class="edge">
<title>Node9&#45;&gt;Node11</title>
<path fill="none" stroke="midnightblue" d="M889.04,-121.69C885.74,-121.08 882.45,-120.51 879.26,-120 732.83,-96.8 691.41,-108.77 541.43,-84.03"/>
<polygon fill="midnightblue" stroke="midnightblue" points="541.84,-80.55 531.4,-82.34 540.68,-87.45 541.84,-80.55"/>
</g>
<!-- Node12 -->
<g id="node12" class="node">
<title>Node12</title>
<g id="a_node12"><a xlink:title=" ">
<polygon fill="none" stroke="#bfbfbf" points="549.76,-60.5 549.76,-83.5 628.76,-83.5 628.76,-60.5 549.76,-60.5"/>
<text text-anchor="middle" x="589.26" y="-68.3" font-family="Helvetica,sans-Serif" font-size="14.00">QPixmap</text>
</a>
</g>
</g>
<!-- Node9&#45;&gt;Node12 -->
<g id="edge11" class="edge">
<title>Node9&#45;&gt;Node12</title>
<path fill="none" stroke="midnightblue" d="M889.01,-121.84C885.72,-121.19 882.44,-120.57 879.26,-120 775.37,-101.3 745.83,-103.98 638.68,-84.16"/>
<polygon fill="midnightblue" stroke="midnightblue" points="639.23,-80.71 628.76,-82.31 637.94,-87.59 639.23,-80.71"/>
</g>
<!-- Node13 -->
<g id="node13" class="node">
<title>Node13</title>
<g id="a_node13"><a xlink:title=" ">
<polygon fill="none" stroke="#bfbfbf" points="646.76,-60.5 646.76,-83.5 717.76,-83.5 717.76,-60.5 646.76,-60.5"/>
<text text-anchor="middle" x="682.26" y="-68.3" font-family="Helvetica,sans-Serif" font-size="14.00">QImage</text>
</a>
</g>
</g>
<!-- Node9&#45;&gt;Node13 -->
<g id="edge12" class="edge">
<title>Node9&#45;&gt;Node13</title>
<path fill="none" stroke="midnightblue" d="M889.19,-121.61C849.82,-112.76 789.1,-98.97 727.65,-84.31"/>
<polygon fill="midnightblue" stroke="midnightblue" points="728.32,-80.87 717.78,-81.95 726.7,-87.68 728.32,-80.87"/>
</g>
<!-- Node14 -->
<g id="node14" class="node">
<title>Node14</title>
<g id="a_node14"><a xlink:title=" ">
<polygon fill="none" stroke="#bfbfbf" points="735.76,-60.5 735.76,-83.5 832.76,-83.5 832.76,-60.5 735.76,-60.5"/>
<text text-anchor="middle" x="784.26" y="-68.3" font-family="Helvetica,sans-Serif" font-size="14.00">QByteArray</text>
</a>
</g>
</g>
<!-- Node9&#45;&gt;Node14 -->
<g id="edge13" class="edge">
<title>Node9&#45;&gt;Node14</title>
<path fill="none" stroke="midnightblue" d="M904.64,-120.5C881.16,-111.23 846.73,-97.65 820.7,-87.38"/>
<polygon fill="midnightblue" stroke="midnightblue" points="821.76,-84.04 811.18,-83.62 819.19,-90.55 821.76,-84.04"/>
</g>
<!-- Node15 -->
<g id="node15" class="node">
<title>Node15</title>
<g id="a_node15"><a xlink:title=" ">
<polygon fill="none" stroke="#bfbfbf" points="850.76,-60.5 850.76,-83.5 921.76,-83.5 921.76,-60.5 850.76,-60.5"/>
<text text-anchor="middle" x="886.26" y="-68.3" font-family="Helvetica,sans-Serif" font-size="14.00">QBuffer</text>
</a>
</g>
</g>
<!-- Node9&#45;&gt;Node15 -->
<g id="edge14" class="edge">
<title>Node9&#45;&gt;Node15</title>
<path fill="none" stroke="midnightblue" d="M923,-120.36C916.79,-112.35 908.11,-101.16 900.74,-91.67"/>
<polygon fill="midnightblue" stroke="midnightblue" points="903.35,-89.33 894.46,-83.57 897.82,-93.62 903.35,-89.33"/>
</g>
<!-- Node16 -->
<g id="node16" class="node">
<title>Node16</title>
<g id="a_node16"><a xlink:title=" ">
<polygon fill="none" stroke="#bfbfbf" points="939.76,-60.5 939.76,-83.5 1010.76,-83.5 1010.76,-60.5 939.76,-60.5"/>
<text text-anchor="middle" x="975.26" y="-68.3" font-family="Helvetica,sans-Serif" font-size="14.00">QMutex</text>
</a>
</g>
</g>
<!-- Node9&#45;&gt;Node16 -->
<g id="edge15" class="edge">
<title>Node9&#45;&gt;Node16</title>
<path fill="none" stroke="midnightblue" d="M939.33,-120.36C945.41,-112.35 953.89,-101.16 961.09,-91.67"/>
<polygon fill="midnightblue" stroke="midnightblue" points="963.98,-93.65 967.24,-83.57 958.41,-89.42 963.98,-93.65"/>
</g>
<!-- Node17 -->
<g id="node17" class="node">
<title>Node17</title>
<g id="a_node17"><a xlink:title=" ">
<polygon fill="none" stroke="#bfbfbf" points="1029.26,-60.5 1029.26,-83.5 1153.26,-83.5 1153.26,-60.5 1029.26,-60.5"/>
<text text-anchor="middle" x="1091.26" y="-68.3" font-family="Helvetica,sans-Serif" font-size="14.00">QWaitCondition</text>
</a>
</g>
</g>
<!-- Node9&#45;&gt;Node17 -->
<g id="edge16" class="edge">
<title>Node9&#45;&gt;Node17</title>
<path fill="none" stroke="midnightblue" d="M960.23,-120.5C986.09,-111.12 1024.16,-97.32 1052.6,-87.01"/>
<polygon fill="midnightblue" stroke="midnightblue" points="1054.02,-90.22 1062.23,-83.52 1051.63,-83.64 1054.02,-90.22"/>
</g>
<!-- Node18 -->
<g id="node18" class="node">
<title>Node18</title>
<g id="a_node18"><a xlink:title=" ">
<polygon fill="none" stroke="#bfbfbf" points="1171.26,-60.5 1171.26,-83.5 1233.26,-83.5 1233.26,-60.5 1171.26,-60.5"/>
<text text-anchor="middle" x="1202.26" y="-68.3" font-family="Helvetica,sans-Serif" font-size="14.00">QTime</text>
</a>
</g>
</g>
<!-- Node9&#45;&gt;Node18 -->
<g id="edge17" class="edge">
<title>Node9&#45;&gt;Node18</title>
<path fill="none" stroke="midnightblue" d="M973.6,-123.28C1017.98,-114.98 1089.95,-100.98 1160.87,-84.23"/>
<polygon fill="midnightblue" stroke="midnightblue" points="1161.95,-87.57 1170.87,-81.85 1160.33,-80.76 1161.95,-87.57"/>
</g>
<!-- Node19 -->
<g id="node19" class="node">
<title>Node19</title>
<g id="a_node19"><a xlink:href="PosixCompat_8h.html" target="_top" xlink:title=" ">
<polygon fill="none" stroke="black" points="1251.26,-60.5 1251.26,-83.5 1371.26,-83.5 1371.26,-60.5 1251.26,-60.5"/>
<text text-anchor="middle" x="1311.26" y="-68.3" font-family="Helvetica,sans-Serif" font-size="14.00">PosixCompat.h</text>
</a>
</g>
</g>
<!-- Node9&#45;&gt;Node19 -->
<g id="edge18" class="edge">
<title>Node9&#45;&gt;Node19</title>
<path fill="none" stroke="midnightblue" d="M973.28,-124.76C1031.13,-116.14 1138.85,-100.02 1240.88,-84.21"/>
<polygon fill="midnightblue" stroke="midnightblue" points="1241.71,-87.62 1251.05,-82.63 1240.63,-80.7 1241.71,-87.62"/>
</g>
<!-- Node21 -->
<g id="node21" class="node">
<title>Node21</title>
<g id="a_node21"><a xlink:href="QsLog_8h.html" target="_top" xlink:title="Qs Log logging support.">
<polygon fill="none" stroke="black" points="1389.26,-60.5 1389.26,-83.5 1463.26,-83.5 1463.26,-60.5 1389.26,-60.5"/>
<text text-anchor="middle" x="1426.26" y="-68.3" font-family="Helvetica,sans-Serif" font-size="14.00">QsLog.h</text>
</a>
</g>
</g>
<!-- Node9&#45;&gt;Node21 -->
<g id="edge21" class="edge">
<title>Node9&#45;&gt;Node21</title>
<path fill="none" stroke="midnightblue" d="M973.29,-128.44C1051.35,-123.28 1224.11,-110.01 1379.01,-84.03"/>
<polygon fill="midnightblue" stroke="midnightblue" points="1379.91,-87.43 1389.19,-82.3 1378.74,-80.53 1379.91,-87.43"/>
</g>
<!-- Node19&#45;&gt;Node2 -->
<g id="edge19" class="edge">
<title>Node19&#45;&gt;Node2</title>
<path fill="none" stroke="midnightblue" d="M1251.09,-61.11C1248.1,-60.71 1245.15,-60.34 1242.26,-60 1031.23,-35.2 778.05,-20.69 673.31,-15.36"/>
<polygon fill="midnightblue" stroke="midnightblue" points="673.21,-11.85 663.05,-14.84 672.86,-18.84 673.21,-11.85"/>
</g>
<!-- Node20 -->
<g id="node20" class="node">
<title>Node20</title>
<g id="a_node20"><a xlink:title=" ">
<polygon fill="none" stroke="#bfbfbf" points="1274.26,-0.5 1274.26,-23.5 1348.26,-23.5 1348.26,-0.5 1274.26,-0.5"/>
<text text-anchor="middle" x="1311.26" y="-8.3" font-family="Helvetica,sans-Serif" font-size="14.00">unistd.h</text>
</a>
</g>
</g>
<!-- Node19&#45;&gt;Node20 -->
<g id="edge20" class="edge">
<title>Node19&#45;&gt;Node20</title>
<path fill="none" stroke="midnightblue" d="M1311.26,-60.36C1311.26,-52.92 1311.26,-42.74 1311.26,-33.73"/>
<polygon fill="midnightblue" stroke="midnightblue" points="1314.76,-33.57 1311.26,-23.57 1307.76,-33.57 1314.76,-33.57"/>
</g>
<!-- Node22 -->
<g id="node22" class="node">
<title>Node22</title>
<g id="a_node22"><a xlink:title=" ">
<polygon fill="none" stroke="#bfbfbf" points="1377.26,-0.5 1377.26,-23.5 1451.26,-23.5 1451.26,-0.5 1377.26,-0.5"/>
<text text-anchor="middle" x="1414.26" y="-8.3" font-family="Helvetica,sans-Serif" font-size="14.00">QDebug</text>
</a>
</g>
</g>
<!-- Node21&#45;&gt;Node22 -->
<g id="edge22" class="edge">
<title>Node21&#45;&gt;Node22</title>
<path fill="none" stroke="midnightblue" d="M1424.06,-60.36C1422.5,-52.84 1420.37,-42.52 1418.48,-33.43"/>
<polygon fill="midnightblue" stroke="midnightblue" points="1421.9,-32.65 1416.44,-23.57 1415.04,-34.07 1421.9,-32.65"/>
</g>
<!-- Node23 -->
<g id="node23" class="node">
<title>Node23</title>
<g id="a_node23"><a xlink:title=" ">
<polygon fill="none" stroke="#bfbfbf" points="1469.26,-0.5 1469.26,-23.5 1539.26,-23.5 1539.26,-0.5 1469.26,-0.5"/>
<text text-anchor="middle" x="1504.26" y="-8.3" font-family="Helvetica,sans-Serif" font-size="14.00">QString</text>
</a>
</g>
</g>
<!-- Node21&#45;&gt;Node23 -->
<g id="edge23" class="edge">
<title>Node21&#45;&gt;Node23</title>
<path fill="none" stroke="midnightblue" d="M1440.56,-60.36C1452.11,-51.78 1468.56,-39.55 1481.85,-29.66"/>
<polygon fill="midnightblue" stroke="midnightblue" points="1484.11,-32.35 1490.04,-23.57 1479.93,-26.73 1484.11,-32.35"/>
</g>
</g>
</svg>
        <g id="navigator" transform="translate(0 0)" fill="#404254">
                <rect fill="#f2f5e9" fill-opacity="0.5" stroke="#606060" stroke-width=".5" x="0" y="0" width="60" height="60"/>
                <use id="zoomplus" xlink:href="#zoomPlus" x="17" y="9" onmousedown="handleZoom(evt,'in')"/>
                <use id="zoomminus" xlink:href="#zoomMin" x="42" y="9" onmousedown="handleZoom(evt,'out')"/>
                <use id="reset" xlink:href="#resetDef" x="30" y="36" onmousedown="handleReset()"/>
                <g id="arrowUp" xlink:href="#dirArrow" transform="translate(30 24)" onmousedown="handlePan(0,-1)">
                  <use xlink:href="#rim" fill="#404040">
                        <set attributeName="fill" to="#808080" begin="arrowUp.mouseover" end="arrowUp.mouseout"/>
                  </use>
                  <path fill="none" stroke="white" stroke-width="1.5" d="M0,-3.0v7 M-2.5,-0.5L0,-3.0L2.5,-0.5"/>
                </g>
                <g id="arrowRight" xlink:href="#dirArrow" transform="rotate(90) translate(36 -43)" onmousedown="handlePan(1,0)">
                  <use xlink:href="#rim" fill="#404040">
                        <set attributeName="fill" to="#808080" begin="arrowRight.mouseover" end="arrowRight.mouseout"/>
                  </use>
                  <path fill="none" stroke="white" stroke-width="1.5" d="M0,-3.0v7 M-2.5,-0.5L0,-3.0L2.5,-0.5"/>
                </g>
                <g id="arrowDown" xlink:href="#dirArrow" transform="rotate(180) translate(-30 -48)" onmousedown="handlePan(0,1)">
                  <use xlink:href="#rim" fill="#404040">
                        <set attributeName="fill" to="#808080" begin="arrowDown.mouseover" end="arrowDown.mouseout"/>
                  </use>
                  <path fill="none" stroke="white" stroke-width="1.5" d="M0,-3.0v7 M-2.5,-0.5L0,-3.0L2.5,-0.5"/>
                </g>
                <g id="arrowLeft" xlink:href="#dirArrow" transform="rotate(270) translate(-36 17)" onmousedown="handlePan(-1,0)">
                  <use xlink:href="#rim" fill="#404040">
                        <set attributeName="fill" to="#808080" begin="arrowLeft.mouseover" end="arrowLeft.mouseout"/>
                  </use>
                  <path fill="none" stroke="white" stroke-width="1.5" d="M0,-3.0v7 M-2.5,-0.5L0,-3.0L2.5,-0.5"/>
                </g>
        </g>
        <svg viewBox="0 0 15 15" width="100%" height="30px" preserveAspectRatio="xMaxYMin meet">
         <g id="arrow_out" transform="scale(0.3 0.3)">
          <a xlink:href="CameraUSB_8h__incl_org.svg" target="_base">
           <rect id="button" ry="5" rx="5" y="6" x="6" height="38" width="38"
                fill="#f2f5e9" fill-opacity="0.5" stroke="#606060" stroke-width="1.0"/>
           <path id="arrow"
             d="M 11.500037,31.436501 C 11.940474,20.09759 22.043105,11.32322 32.158766,21.979434 L 37.068811,17.246167 C 37.068811,17.246167 37.088388,32 37.088388,32 L 22.160133,31.978069 C 22.160133,31.978069 26.997745,27.140456 26.997745,27.140456 C 18.528582,18.264221 13.291696,25.230495 11.500037,31.436501 z"
             style="fill:#404040;"/>
          </a>
         </g>
        </svg>
</svg>
