<?xml version="1.0" encoding="UTF-8" standalone="no"?>
<!DOCTYPE svg PUBLIC "-//W3C//DTD SVG 1.1//EN"
 "http://www.w3.org/Graphics/SVG/1.1/DTD/svg11.dtd">
<!-- Generated by graphviz version 2.50.0 (0)
 -->
<!-- Title: CameraAlliedVision.cpp Pages: 1 -->
<svg width="1392pt" height="272pt"
 viewBox="0.00 0.00 1391.50 272.00" xmlns="http://www.w3.org/2000/svg" xmlns:xlink="http://www.w3.org/1999/xlink">
<style><![CDATA[
text { fill: #e6e6e6 !important; }
polygon { fill: #2f2f2f !important; stroke: #9aa0a6 !important; }
path, line, polyline { stroke: #4e67d6 !important; }
]]></style>
<style><![CDATA[
text { fill: #e6e6e6 !important; }
polygon { fill: #2f2f2f !important; stroke: #9aa0a6 !important; }
path, line, polyline { stroke: #4e67d6 !important; }
]]></style>
<style><![CDATA[
text { fill: #e6e6e6 !important; }
polygon { fill: #2f2f2f !important; stroke: #9aa0a6 !important; }
path, line, polyline { stroke: #4e67d6 !important; }
]]></style>
<style><![CDATA[
text { fill: #e6e6e6 !important; }
polygon { fill: #2f2f2f !important; stroke: #9aa0a6 !important; }
path, line, polyline { stroke: #4e67d6 !important; }
]]></style>
<g id="graph0" class="graph" transform="scale(1 1) rotate(0) translate(4 268)">
<title>CameraAlliedVision.cpp</title>
<!-- Node1 -->
<g id="node1" class="node">
<title>Node1</title>
<g id="a_node1"><a xlink:title="Camera backend for Allied Vision.">
<polygon fill="#bfbfbf" stroke="black" points="994,-240.5 994,-263.5 1174,-263.5 1174,-240.5 994,-240.5"/>
<text text-anchor="middle" x="1084" y="-248.3" font-family="Helvetica,sans-Serif" font-size="14.00">CameraAlliedVision.cpp</text>
</a>
</g>
</g>
<!-- Node2 -->
<g id="node2" class="node">
<title>Node2</title>
<g id="a_node2"><a xlink:href="CameraAlliedVision_8h.html" target="_top" xlink:title="Camera backend for Allied Vision.">
<polygon fill="none" stroke="black" points="704,-180.5 704,-203.5 868,-203.5 868,-180.5 704,-180.5"/>
<text text-anchor="middle" x="786" y="-188.3" font-family="Helvetica,sans-Serif" font-size="14.00">CameraAlliedVision.h</text>
</a>
</g>
</g>
<!-- Node1&#45;&gt;Node2 -->
<g id="edge1" class="edge">
<title>Node1&#45;&gt;Node2</title>
<path fill="none" stroke="midnightblue" d="M1030.03,-240.5C979.45,-230.65 903.8,-215.93 850.15,-205.49"/>
<polygon fill="midnightblue" stroke="midnightblue" points="850.55,-202 840.07,-203.52 849.21,-208.87 850.55,-202"/>
</g>
<!-- Node23 -->
<g id="node23" class="node">
<title>Node23</title>
<g id="a_node23"><a xlink:title=" ">
<polygon fill="none" stroke="#bfbfbf" points="909,-120.5 909,-143.5 981,-143.5 981,-120.5 909,-120.5"/>
<text text-anchor="middle" x="945" y="-128.3" font-family="Helvetica,sans-Serif" font-size="14.00">sstream</text>
</a>
</g>
</g>
<!-- Node1&#45;&gt;Node23 -->
<g id="edge23" class="edge">
<title>Node1&#45;&gt;Node23</title>
<path fill="none" stroke="midnightblue" d="M1071.17,-240.11C1046.95,-219.55 994.31,-174.86 965.26,-150.2"/>
<polygon fill="midnightblue" stroke="midnightblue" points="967.29,-147.33 957.4,-143.52 962.75,-152.66 967.29,-147.33"/>
</g>
<!-- Node24 -->
<g id="node24" class="node">
<title>Node24</title>
<g id="a_node24"><a xlink:href="Utils_8h.html" target="_top" xlink:title="Utility helpers.">
<polygon fill="none" stroke="black" points="1053.5,-180.5 1053.5,-203.5 1114.5,-203.5 1114.5,-180.5 1053.5,-180.5"/>
<text text-anchor="middle" x="1084" y="-188.3" font-family="Helvetica,sans-Serif" font-size="14.00">Utils.h</text>
</a>
</g>
</g>
<!-- Node1&#45;&gt;Node24 -->
<g id="edge24" class="edge">
<title>Node1&#45;&gt;Node24</title>
<path fill="none" stroke="midnightblue" d="M1084,-240.36C1084,-232.92 1084,-222.74 1084,-213.73"/>
<polygon fill="midnightblue" stroke="midnightblue" points="1087.5,-213.57 1084,-203.57 1080.5,-213.57 1087.5,-213.57"/>
</g>
<!-- Node29 -->
<g id="node29" class="node">
<title>Node29</title>
<g id="a_node29"><a xlink:title=" ">
<polygon fill="none" stroke="#bfbfbf" points="1133,-180.5 1133,-203.5 1217,-203.5 1217,-180.5 1133,-180.5"/>
<text text-anchor="middle" x="1175" y="-188.3" font-family="Helvetica,sans-Serif" font-size="14.00">exception</text>
</a>
</g>
</g>
<!-- Node1&#45;&gt;Node29 -->
<g id="edge30" class="edge">
<title>Node1&#45;&gt;Node29</title>
<path fill="none" stroke="midnightblue" d="M1100.69,-240.36C1114.42,-231.61 1134.08,-219.08 1149.74,-209.1"/>
<polygon fill="midnightblue" stroke="midnightblue" points="1151.86,-211.9 1158.42,-203.57 1148.1,-205.99 1151.86,-211.9"/>
</g>
<!-- Node30 -->
<g id="node30" class="node">
<title>Node30</title>
<g id="a_node30"><a xlink:title=" ">
<polygon fill="none" stroke="#bfbfbf" points="1235.5,-180.5 1235.5,-203.5 1312.5,-203.5 1312.5,-180.5 1235.5,-180.5"/>
<text text-anchor="middle" x="1274" y="-188.3" font-family="Helvetica,sans-Serif" font-size="14.00">iostream</text>
</a>
</g>
</g>
<!-- Node1&#45;&gt;Node30 -->
<g id="edge31" class="edge">
<title>Node1&#45;&gt;Node30</title>
<path fill="none" stroke="midnightblue" d="M1118.41,-240.5C1149.65,-230.96 1195.9,-216.84 1229.86,-206.48"/>
<polygon fill="midnightblue" stroke="midnightblue" points="1230.99,-209.79 1239.53,-203.52 1228.94,-203.1 1230.99,-209.79"/>
</g>
<!-- Node3 -->
<g id="node3" class="node">
<title>Node3</title>
<g id="a_node3"><a xlink:title=" ">
<polygon fill="none" stroke="#bfbfbf" points="349.5,-120.5 349.5,-143.5 498.5,-143.5 498.5,-120.5 349.5,-120.5"/>
<text text-anchor="middle" x="424" y="-128.3" font-family="Helvetica,sans-Serif" font-size="14.00">VmbCPP/VmbCPP.h</text>
</a>
</g>
</g>
<!-- Node2&#45;&gt;Node3 -->
<g id="edge2" class="edge">
<title>Node2&#45;&gt;Node3</title>
<path fill="none" stroke="midnightblue" d="M720.44,-180.5C658.36,-170.55 565.18,-155.62 499.91,-145.16"/>
<polygon fill="midnightblue" stroke="midnightblue" points="500.11,-141.65 489.68,-143.52 499,-148.56 500.11,-141.65"/>
</g>
<!-- Node4 -->
<g id="node4" class="node">
<title>Node4</title>
<g id="a_node4"><a xlink:href="Camera_8h.html" target="_top" xlink:title="Camera backend for .">
<polygon fill="none" stroke="black" points="517,-120.5 517,-143.5 601,-143.5 601,-120.5 517,-120.5"/>
<text text-anchor="middle" x="559" y="-128.3" font-family="Helvetica,sans-Serif" font-size="14.00">Camera.h</text>
</a>
</g>
</g>
<!-- Node2&#45;&gt;Node4 -->
<g id="edge3" class="edge">
<title>Node2&#45;&gt;Node4</title>
<path fill="none" stroke="midnightblue" d="M744.89,-180.5C707,-170.82 650.64,-156.42 609.92,-146.01"/>
<polygon fill="midnightblue" stroke="midnightblue" points="610.74,-142.61 600.19,-143.52 609.01,-149.39 610.74,-142.61"/>
</g>
<!-- Node20 -->
<g id="node20" class="node">
<title>Node20</title>
<g id="a_node20"><a xlink:title=" ">
<polygon fill="none" stroke="#bfbfbf" points="619,-120.5 619,-143.5 735,-143.5 735,-120.5 619,-120.5"/>
<text text-anchor="middle" x="677" y="-128.3" font-family="Helvetica,sans-Serif" font-size="14.00">QMutexLocker</text>
</a>
</g>
</g>
<!-- Node2&#45;&gt;Node20 -->
<g id="edge19" class="edge">
<title>Node2&#45;&gt;Node20</title>
<path fill="none" stroke="midnightblue" d="M766.26,-180.5C749.39,-171.52 724.89,-158.48 705.83,-148.34"/>
<polygon fill="midnightblue" stroke="midnightblue" points="707.43,-145.23 696.96,-143.62 704.14,-151.41 707.43,-145.23"/>
</g>
<!-- Node21 -->
<g id="node21" class="node">
<title>Node21</title>
<g id="a_node21"><a xlink:title=" ">
<polygon fill="none" stroke="#bfbfbf" points="753.5,-120.5 753.5,-143.5 818.5,-143.5 818.5,-120.5 753.5,-120.5"/>
<text text-anchor="middle" x="786" y="-128.3" font-family="Helvetica,sans-Serif" font-size="14.00">cstring</text>
</a>
</g>
</g>
<!-- Node2&#45;&gt;Node21 -->
<g id="edge20" class="edge">
<title>Node2&#45;&gt;Node21</title>
<path fill="none" stroke="midnightblue" d="M786,-180.36C786,-172.92 786,-162.74 786,-153.73"/>
<polygon fill="midnightblue" stroke="midnightblue" points="789.5,-153.57 786,-143.57 782.5,-153.57 789.5,-153.57"/>
</g>
<!-- Node22 -->
<g id="node22" class="node">
<title>Node22</title>
<g id="a_node22"><a xlink:title=" ">
<polygon fill="none" stroke="#bfbfbf" points="837,-120.5 837,-143.5 891,-143.5 891,-120.5 837,-120.5"/>
<text text-anchor="middle" x="864" y="-128.3" font-family="Helvetica,sans-Serif" font-size="14.00">limits</text>
</a>
</g>
</g>
<!-- Node2&#45;&gt;Node22 -->
<g id="edge21" class="edge">
<title>Node2&#45;&gt;Node22</title>
<path fill="none" stroke="midnightblue" d="M800.31,-180.36C811.85,-171.78 828.3,-159.55 841.59,-149.66"/>
<polygon fill="midnightblue" stroke="midnightblue" points="843.85,-152.35 849.78,-143.57 839.67,-146.73 843.85,-152.35"/>
</g>
<!-- Node2&#45;&gt;Node23 -->
<g id="edge22" class="edge">
<title>Node2&#45;&gt;Node23</title>
<path fill="none" stroke="midnightblue" d="M814.79,-180.5C840.49,-171.12 878.32,-157.32 906.59,-147.01"/>
<polygon fill="midnightblue" stroke="midnightblue" points="907.96,-150.24 916.15,-143.52 905.56,-143.66 907.96,-150.24"/>
</g>
<!-- Node5 -->
<g id="node5" class="node">
<title>Node5</title>
<g id="a_node5"><a xlink:title=" ">
<polygon fill="none" stroke="#bfbfbf" points="0,-60.5 0,-83.5 66,-83.5 66,-60.5 0,-60.5"/>
<text text-anchor="middle" x="33" y="-68.3" font-family="Helvetica,sans-Serif" font-size="14.00">math.h</text>
</a>
</g>
</g>
<!-- Node4&#45;&gt;Node5 -->
<g id="edge4" class="edge">
<title>Node4&#45;&gt;Node5</title>
<path fill="none" stroke="midnightblue" d="M516.79,-121.61C513.49,-121.02 510.2,-120.47 507,-120 319.64,-92.49 266.7,-115.71 76.41,-84"/>
<polygon fill="midnightblue" stroke="midnightblue" points="76.8,-80.51 66.36,-82.29 75.63,-87.42 76.8,-80.51"/>
</g>
<!-- Node6 -->
<g id="node6" class="node">
<title>Node6</title>
<g id="a_node6"><a xlink:title=" ">
<polygon fill="none" stroke="#bfbfbf" points="84,-60.5 84,-83.5 160,-83.5 160,-60.5 84,-60.5"/>
<text text-anchor="middle" x="122" y="-68.3" font-family="Helvetica,sans-Serif" font-size="14.00">QThread</text>
</a>
</g>
</g>
<!-- Node4&#45;&gt;Node6 -->
<g id="edge5" class="edge">
<title>Node4&#45;&gt;Node6</title>
<path fill="none" stroke="midnightblue" d="M516.78,-121.69C513.48,-121.08 510.19,-120.51 507,-120 361,-96.84 319.71,-108.72 170.15,-84.02"/>
<polygon fill="midnightblue" stroke="midnightblue" points="170.58,-80.55 160.14,-82.34 169.42,-87.45 170.58,-80.55"/>
</g>
<!-- Node7 -->
<g id="node7" class="node">
<title>Node7</title>
<g id="a_node7"><a xlink:title=" ">
<polygon fill="none" stroke="#bfbfbf" points="178.5,-60.5 178.5,-83.5 257.5,-83.5 257.5,-60.5 178.5,-60.5"/>
<text text-anchor="middle" x="218" y="-68.3" font-family="Helvetica,sans-Serif" font-size="14.00">QPixmap</text>
</a>
</g>
</g>
<!-- Node4&#45;&gt;Node7 -->
<g id="edge6" class="edge">
<title>Node4&#45;&gt;Node7</title>
<path fill="none" stroke="midnightblue" d="M516.76,-121.84C513.46,-121.19 510.18,-120.57 507,-120 403.54,-101.35 374.12,-103.94 267.38,-84.16"/>
<polygon fill="midnightblue" stroke="midnightblue" points="267.98,-80.71 257.5,-82.31 266.69,-87.59 267.98,-80.71"/>
</g>
<!-- Node8 -->
<g id="node8" class="node">
<title>Node8</title>
<g id="a_node8"><a xlink:title=" ">
<polygon fill="none" stroke="#bfbfbf" points="275.5,-60.5 275.5,-83.5 346.5,-83.5 346.5,-60.5 275.5,-60.5"/>
<text text-anchor="middle" x="311" y="-68.3" font-family="Helvetica,sans-Serif" font-size="14.00">QImage</text>
</a>
</g>
</g>
<!-- Node4&#45;&gt;Node8 -->
<g id="edge7" class="edge">
<title>Node4&#45;&gt;Node8</title>
<path fill="none" stroke="midnightblue" d="M516.75,-121.51C477.55,-112.64 417.34,-98.9 356.32,-84.29"/>
<polygon fill="midnightblue" stroke="midnightblue" points="357.07,-80.87 346.53,-81.94 355.44,-87.68 357.07,-80.87"/>
</g>
<!-- Node9 -->
<g id="node9" class="node">
<title>Node9</title>
<g id="a_node9"><a xlink:title=" ">
<polygon fill="none" stroke="#bfbfbf" points="364.5,-60.5 364.5,-83.5 461.5,-83.5 461.5,-60.5 364.5,-60.5"/>
<text text-anchor="middle" x="413" y="-68.3" font-family="Helvetica,sans-Serif" font-size="14.00">QByteArray</text>
</a>
</g>
</g>
<!-- Node4&#45;&gt;Node9 -->
<g id="edge8" class="edge">
<title>Node4&#45;&gt;Node9</title>
<path fill="none" stroke="midnightblue" d="M532.56,-120.5C509.24,-111.23 475.05,-97.65 449.2,-87.38"/>
<polygon fill="midnightblue" stroke="midnightblue" points="450.32,-84.06 439.74,-83.62 447.74,-90.57 450.32,-84.06"/>
</g>
<!-- Node10 -->
<g id="node10" class="node">
<title>Node10</title>
<g id="a_node10"><a xlink:title=" ">
<polygon fill="none" stroke="#bfbfbf" points="479.5,-60.5 479.5,-83.5 550.5,-83.5 550.5,-60.5 479.5,-60.5"/>
<text text-anchor="middle" x="515" y="-68.3" font-family="Helvetica,sans-Serif" font-size="14.00">QBuffer</text>
</a>
</g>
</g>
<!-- Node4&#45;&gt;Node10 -->
<g id="edge9" class="edge">
<title>Node4&#45;&gt;Node10</title>
<path fill="none" stroke="midnightblue" d="M550.93,-120.36C544.85,-112.35 536.36,-101.16 529.16,-91.67"/>
<polygon fill="midnightblue" stroke="midnightblue" points="531.85,-89.42 523.02,-83.57 526.27,-93.65 531.85,-89.42"/>
</g>
<!-- Node11 -->
<g id="node11" class="node">
<title>Node11</title>
<g id="a_node11"><a xlink:title=" ">
<polygon fill="none" stroke="#bfbfbf" points="568.5,-60.5 568.5,-83.5 639.5,-83.5 639.5,-60.5 568.5,-60.5"/>
<text text-anchor="middle" x="604" y="-68.3" font-family="Helvetica,sans-Serif" font-size="14.00">QMutex</text>
</a>
</g>
</g>
<!-- Node4&#45;&gt;Node11 -->
<g id="edge10" class="edge">
<title>Node4&#45;&gt;Node11</title>
<path fill="none" stroke="midnightblue" d="M567.25,-120.36C573.47,-112.35 582.15,-101.16 589.51,-91.67"/>
<polygon fill="midnightblue" stroke="midnightblue" points="592.43,-93.62 595.8,-83.57 586.9,-89.33 592.43,-93.62"/>
</g>
<!-- Node12 -->
<g id="node12" class="node">
<title>Node12</title>
<g id="a_node12"><a xlink:title=" ">
<polygon fill="none" stroke="#bfbfbf" points="658,-60.5 658,-83.5 782,-83.5 782,-60.5 658,-60.5"/>
<text text-anchor="middle" x="720" y="-68.3" font-family="Helvetica,sans-Serif" font-size="14.00">QWaitCondition</text>
</a>
</g>
</g>
<!-- Node4&#45;&gt;Node12 -->
<g id="edge11" class="edge">
<title>Node4&#45;&gt;Node12</title>
<path fill="none" stroke="midnightblue" d="M588.16,-120.5C614.18,-111.12 652.48,-97.32 681.1,-87.01"/>
<polygon fill="midnightblue" stroke="midnightblue" points="682.57,-90.21 690.79,-83.52 680.2,-83.62 682.57,-90.21"/>
</g>
<!-- Node13 -->
<g id="node13" class="node">
<title>Node13</title>
<g id="a_node13"><a xlink:title=" ">
<polygon fill="none" stroke="#bfbfbf" points="800,-60.5 800,-83.5 862,-83.5 862,-60.5 800,-60.5"/>
<text text-anchor="middle" x="831" y="-68.3" font-family="Helvetica,sans-Serif" font-size="14.00">QTime</text>
</a>
</g>
</g>
<!-- Node4&#45;&gt;Node13 -->
<g id="edge12" class="edge">
<title>Node4&#45;&gt;Node13</title>
<path fill="none" stroke="midnightblue" d="M601.01,-121.88C604.05,-121.24 607.07,-120.61 610,-120 687.18,-104 709.46,-102.95 789.55,-84.23"/>
<polygon fill="midnightblue" stroke="midnightblue" points="790.68,-87.56 799.61,-81.86 789.08,-80.75 790.68,-87.56"/>
</g>
<!-- Node14 -->
<g id="node14" class="node">
<title>Node14</title>
<g id="a_node14"><a xlink:href="PosixCompat_8h.html" target="_top" xlink:title=" ">
<polygon fill="none" stroke="black" points="880,-60.5 880,-83.5 1000,-83.5 1000,-60.5 880,-60.5"/>
<text text-anchor="middle" x="940" y="-68.3" font-family="Helvetica,sans-Serif" font-size="14.00">PosixCompat.h</text>
</a>
</g>
</g>
<!-- Node4&#45;&gt;Node14 -->
<g id="edge13" class="edge">
<title>Node4&#45;&gt;Node14</title>
<path fill="none" stroke="midnightblue" d="M601.25,-121.63C604.21,-121.05 607.15,-120.5 610,-120 722.16,-100.2 753.48,-101.15 869.79,-84.15"/>
<polygon fill="midnightblue" stroke="midnightblue" points="870.42,-87.6 879.8,-82.67 869.4,-80.67 870.42,-87.6"/>
</g>
<!-- Node17 -->
<g id="node17" class="node">
<title>Node17</title>
<g id="a_node17"><a xlink:href="QsLog_8h.html" target="_top" xlink:title="Qs Log logging support.">
<polygon fill="none" stroke="black" points="1018,-60.5 1018,-83.5 1092,-83.5 1092,-60.5 1018,-60.5"/>
<text text-anchor="middle" x="1055" y="-68.3" font-family="Helvetica,sans-Serif" font-size="14.00">QsLog.h</text>
</a>
</g>
</g>
<!-- Node4&#45;&gt;Node17 -->
<g id="edge16" class="edge">
<title>Node4&#45;&gt;Node17</title>
<path fill="none" stroke="midnightblue" d="M601.23,-121.48C604.19,-120.94 607.13,-120.44 610,-120 782.84,-93.66 831.54,-112.09 1008.06,-83.95"/>
<polygon fill="midnightblue" stroke="midnightblue" points="1008.63,-87.41 1017.94,-82.35 1007.51,-80.5 1008.63,-87.41"/>
</g>
<!-- Node15 -->
<g id="node15" class="node">
<title>Node15</title>
<g id="a_node15"><a xlink:title=" ">
<polygon fill="none" stroke="#bfbfbf" points="813.5,-0.5 813.5,-23.5 890.5,-23.5 890.5,-0.5 813.5,-0.5"/>
<text text-anchor="middle" x="852" y="-8.3" font-family="Helvetica,sans-Serif" font-size="14.00">QtGlobal</text>
</a>
</g>
</g>
<!-- Node14&#45;&gt;Node15 -->
<g id="edge14" class="edge">
<title>Node14&#45;&gt;Node15</title>
<path fill="none" stroke="midnightblue" d="M923.86,-60.36C910.59,-51.61 891.57,-39.08 876.43,-29.1"/>
<polygon fill="midnightblue" stroke="midnightblue" points="878.31,-26.15 868.04,-23.57 874.46,-32 878.31,-26.15"/>
</g>
<!-- Node16 -->
<g id="node16" class="node">
<title>Node16</title>
<g id="a_node16"><a xlink:title=" ">
<polygon fill="none" stroke="#bfbfbf" points="909,-0.5 909,-23.5 983,-23.5 983,-0.5 909,-0.5"/>
<text text-anchor="middle" x="946" y="-8.3" font-family="Helvetica,sans-Serif" font-size="14.00">unistd.h</text>
</a>
</g>
</g>
<!-- Node14&#45;&gt;Node16 -->
<g id="edge15" class="edge">
<title>Node14&#45;&gt;Node16</title>
<path fill="none" stroke="midnightblue" d="M941.1,-60.36C941.87,-52.92 942.92,-42.74 943.86,-33.73"/>
<polygon fill="midnightblue" stroke="midnightblue" points="947.36,-33.88 944.91,-23.57 940.4,-33.16 947.36,-33.88"/>
</g>
<!-- Node18 -->
<g id="node18" class="node">
<title>Node18</title>
<g id="a_node18"><a xlink:title=" ">
<polygon fill="none" stroke="#bfbfbf" points="1012,-0.5 1012,-23.5 1086,-23.5 1086,-0.5 1012,-0.5"/>
<text text-anchor="middle" x="1049" y="-8.3" font-family="Helvetica,sans-Serif" font-size="14.00">QDebug</text>
</a>
</g>
</g>
<!-- Node17&#45;&gt;Node18 -->
<g id="edge17" class="edge">
<title>Node17&#45;&gt;Node18</title>
<path fill="none" stroke="midnightblue" d="M1053.9,-60.36C1053.13,-52.92 1052.08,-42.74 1051.14,-33.73"/>
<polygon fill="midnightblue" stroke="midnightblue" points="1054.6,-33.16 1050.09,-23.57 1047.64,-33.88 1054.6,-33.16"/>
</g>
<!-- Node19 -->
<g id="node19" class="node">
<title>Node19</title>
<g id="a_node19"><a xlink:title=" ">
<polygon fill="none" stroke="#bfbfbf" points="1104,-0.5 1104,-23.5 1174,-23.5 1174,-0.5 1104,-0.5"/>
<text text-anchor="middle" x="1139" y="-8.3" font-family="Helvetica,sans-Serif" font-size="14.00">QString</text>
</a>
</g>
</g>
<!-- Node17&#45;&gt;Node19 -->
<g id="edge18" class="edge">
<title>Node17&#45;&gt;Node19</title>
<path fill="none" stroke="midnightblue" d="M1070.41,-60.36C1082.96,-51.7 1100.89,-39.31 1115.27,-29.38"/>
<polygon fill="midnightblue" stroke="midnightblue" points="1117.45,-32.13 1123.69,-23.57 1113.47,-26.37 1117.45,-32.13"/>
</g>
<!-- Node24&#45;&gt;Node17 -->
<g id="edge29" class="edge">
<title>Node24&#45;&gt;Node17</title>
<path fill="none" stroke="midnightblue" d="M1063.99,-180.37C1051.1,-172.29 1035.4,-159.88 1028,-144 1019.97,-126.78 1029.53,-106.45 1039.43,-91.97"/>
<polygon fill="midnightblue" stroke="midnightblue" points="1042.35,-93.91 1045.48,-83.79 1036.72,-89.75 1042.35,-93.91"/>
</g>
<!-- Node25 -->
<g id="node25" class="node">
<title>Node25</title>
<g id="a_node25"><a xlink:title=" ">
<polygon fill="none" stroke="#bfbfbf" points="1037,-120.5 1037,-143.5 1131,-143.5 1131,-120.5 1037,-120.5"/>
<text text-anchor="middle" x="1084" y="-128.3" font-family="Helvetica,sans-Serif" font-size="14.00">QDateTime</text>
</a>
</g>
</g>
<!-- Node24&#45;&gt;Node25 -->
<g id="edge25" class="edge">
<title>Node24&#45;&gt;Node25</title>
<path fill="none" stroke="midnightblue" d="M1084,-180.36C1084,-172.92 1084,-162.74 1084,-153.73"/>
<polygon fill="midnightblue" stroke="midnightblue" points="1087.5,-153.57 1084,-143.57 1080.5,-153.57 1087.5,-153.57"/>
</g>
<!-- Node26 -->
<g id="node26" class="node">
<title>Node26</title>
<g id="a_node26"><a xlink:title=" ">
<polygon fill="none" stroke="#bfbfbf" points="1149,-120.5 1149,-143.5 1197,-143.5 1197,-120.5 1149,-120.5"/>
<text text-anchor="middle" x="1173" y="-128.3" font-family="Helvetica,sans-Serif" font-size="14.00">QDir</text>
</a>
</g>
</g>
<!-- Node24&#45;&gt;Node26 -->
<g id="edge26" class="edge">
<title>Node24&#45;&gt;Node26</title>
<path fill="none" stroke="midnightblue" d="M1100.32,-180.36C1113.75,-171.61 1132.98,-159.08 1148.29,-149.1"/>
<polygon fill="midnightblue" stroke="midnightblue" points="1150.31,-151.96 1156.78,-143.57 1146.49,-146.1 1150.31,-151.96"/>
</g>
<!-- Node27 -->
<g id="node27" class="node">
<title>Node27</title>
<g id="a_node27"><a xlink:title=" ">
<polygon fill="none" stroke="#bfbfbf" points="1215.5,-120.5 1215.5,-143.5 1310.5,-143.5 1310.5,-120.5 1215.5,-120.5"/>
<text text-anchor="middle" x="1263" y="-128.3" font-family="Helvetica,sans-Serif" font-size="14.00">QTableView</text>
</a>
</g>
</g>
<!-- Node24&#45;&gt;Node27 -->
<g id="edge27" class="edge">
<title>Node24&#45;&gt;Node27</title>
<path fill="none" stroke="midnightblue" d="M1114.77,-181.03C1144.03,-171.55 1188.28,-157.21 1220.82,-146.67"/>
<polygon fill="midnightblue" stroke="midnightblue" points="1222.08,-149.94 1230.52,-143.53 1219.92,-143.28 1222.08,-149.94"/>
</g>
<!-- Node28 -->
<g id="node28" class="node">
<title>Node28</title>
<g id="a_node28"><a xlink:title=" ">
<polygon fill="none" stroke="#bfbfbf" points="1328.5,-120.5 1328.5,-143.5 1383.5,-143.5 1383.5,-120.5 1328.5,-120.5"/>
<text text-anchor="middle" x="1356" y="-128.3" font-family="Helvetica,sans-Serif" font-size="14.00">QtSql</text>
</a>
</g>
</g>
<!-- Node24&#45;&gt;Node28 -->
<g id="edge28" class="edge">
<title>Node24&#45;&gt;Node28</title>
<path fill="none" stroke="midnightblue" d="M1114.51,-182.32C1117.7,-181.5 1120.91,-180.71 1124,-180 1207.22,-160.95 1232.16,-164.66 1318.24,-144.25"/>
<polygon fill="midnightblue" stroke="midnightblue" points="1319.28,-147.6 1328.18,-141.85 1317.64,-140.79 1319.28,-147.6"/>
</g>
</g>
</svg>
