<?xml version="1.0" encoding="UTF-8" standalone="no"?>
<!DOCTYPE svg PUBLIC "-//W3C//DTD SVG 1.1//EN"
 "http://www.w3.org/Graphics/SVG/1.1/DTD/svg11.dtd">
<!-- Generated by graphviz version 2.50.0 (0)
 -->
<!-- Title: CameraAlliedVision.cpp Pages: 1 -->
<!--zoomable 272 -->
<svg id="main" version="1.1" xmlns="http://www.w3.org/2000/svg" xmlns:xlink="http://www.w3.org/1999/xlink" xml:space="preserve" onload="init(evt)">
<style><![CDATA[
text { fill: #e6e6e6 !important; }
polygon { fill: #2f2f2f !important; stroke: #9aa0a6 !important; }
path, line, polyline { stroke: #4e67d6 !important; }
]]></style>
<style><![CDATA[
text { fill: #e6e6e6 !important; }
polygon { fill: #2f2f2f !important; stroke: #9aa0a6 !important; }
path, line, polyline { stroke: #4e67d6 !important; }
]]></style>
<style><![CDATA[
text { fill: #e6e6e6 !important; }
polygon { fill: #2f2f2f !important; stroke: #9aa0a6 !important; }
path, line, polyline { stroke: #4e67d6 !important; }
]]></style>
<style><![CDATA[
text { fill: #e6e6e6 !important; }
polygon { fill: #2f2f2f !important; stroke: #9aa0a6 !important; }
path, line, polyline { stroke: #4e67d6 !important; }
]]></style>
<style><![CDATA[
text { fill: #e6e6e6 !important; }
polygon { fill: #2f2f2f !important; stroke: #9aa0a6 !important; }
path, line, polyline { stroke: #4e67d6 !important; }
]]></style>
<style><![CDATA[
text { fill: #e6e6e6 !important; }
polygon { fill: #2f2f2f !important; stroke: #9aa0a6 !important; }
path, line, polyline { stroke: #4e67d6 !important; }
]]></style>
<style><![CDATA[
text { fill: #e6e6e6 !important; }
polygon { fill: #2f2f2f !important; stroke: #9aa0a6 !important; }
path, line, polyline { stroke: #4e67d6 !important; }
]]></style>
<style type="text/css"><![CDATA[
.edge:hover path { stroke: red; }
.edge:hover polygon { stroke: red; fill: red; }
]]></style>
<script type="text/javascript"><![CDATA[
var edges = document.getElementsByTagName('g');
if (edges && edges.length) {
  for (var i=0;i<edges.length;i++) {
    if (edges[i].id.substr(0,4)=='edge') {
      edges[i].setAttribute('class','edge');
    }
  }
}
]]></script>
        <defs>
                <circle id="rim" cx="0" cy="0" r="7"/>
                <circle id="rim2" cx="0" cy="0" r="3.5"/>
                <g id="zoomPlus">
                        <use xlink:href="#rim" fill="#404040">
                                <set attributeName="fill" to="#808080" begin="zoomplus.mouseover" end="zoomplus.mouseout"/>
                        </use>
                        <path d="M-4,0h8M0,-4v8" fill="none" stroke="white" stroke-width="1.5" pointer-events="none"/>
                </g>
                <g id="zoomMin">
                        <use xlink:href="#rim" fill="#404040">
                                <set attributeName="fill" to="#808080" begin="zoomminus.mouseover" end="zoomminus.mouseout"/>
                        </use>
                        <path d="M-4,0h8" fill="none" stroke="white" stroke-width="1.5" pointer-events="none"/>
                </g>
                <g id="dirArrow">
                        <path fill="none" stroke="white" stroke-width="1.5" d="M0,-3.0v7 M-2.5,-0.5L0,-3.0L2.5,-0.5"/>
                </g>
               <g id="resetDef">
                       <use xlink:href="#rim2" fill="#404040">
                               <set attributeName="fill" to="#808080" begin="reset.mouseover" end="reset.mouseout"/>
                       </use>
               </g>
        </defs>

<script type="text/javascript">
var viewWidth = 1182;
var viewHeight = 272;
var sectionId = 'dynsection-0';
</script>
<script xlink:href="svgpan.js"/>
<svg id="graph" class="graph">
<g id="viewport">
<title>CameraAlliedVision.cpp</title>
<!-- Node1 -->
<g id="node1" class="node">
<title>Node1</title>
<g id="a_node1"><a xlink:title="Camera backend for Allied Vision.">
<polygon fill="#bfbfbf" stroke="black" points="704,-240.5 704,-263.5 884,-263.5 884,-240.5 704,-240.5"/>
<text text-anchor="middle" x="794" y="-248.3" font-family="Helvetica,sans-Serif" font-size="14.00">CameraAlliedVision.cpp</text>
</a>
</g>
</g>
<!-- Node2 -->
<g id="node2" class="node">
<title>Node2</title>
<g id="a_node2"><a xlink:href="CameraAlliedVision_8h.html" target="_top" xlink:title="Camera backend for Allied Vision.">
<polygon fill="none" stroke="black" points="494,-180.5 494,-203.5 658,-203.5 658,-180.5 494,-180.5"/>
<text text-anchor="middle" x="576" y="-188.3" font-family="Helvetica,sans-Serif" font-size="14.00">CameraAlliedVision.h</text>
</a>
</g>
</g>
<!-- Node1&#45;&gt;Node2 -->
<g id="edge1" class="edge">
<title>Node1&#45;&gt;Node2</title>
<path fill="none" stroke="midnightblue" d="M754.52,-240.5C718.37,-230.88 664.7,-216.6 625.65,-206.21"/>
<polygon fill="midnightblue" stroke="midnightblue" points="626.12,-202.71 615.55,-203.52 624.32,-209.48 626.12,-202.71"/>
</g>
<!-- Node20 -->
<g id="node20" class="node">
<title>Node20</title>
<g id="a_node20"><a xlink:title=" ">
<polygon fill="none" stroke="#bfbfbf" points="619,-120.5 619,-143.5 691,-143.5 691,-120.5 619,-120.5"/>
<text text-anchor="middle" x="655" y="-128.3" font-family="Helvetica,sans-Serif" font-size="14.00">sstream</text>
</a>
</g>
</g>
<!-- Node1&#45;&gt;Node20 -->
<g id="edge20" class="edge">
<title>Node1&#45;&gt;Node20</title>
<path fill="none" stroke="midnightblue" d="M781.17,-240.11C756.95,-219.55 704.31,-174.86 675.26,-150.2"/>
<polygon fill="midnightblue" stroke="midnightblue" points="677.29,-147.33 667.4,-143.52 672.75,-152.66 677.29,-147.33"/>
</g>
<!-- Node21 -->
<g id="node21" class="node">
<title>Node21</title>
<g id="a_node21"><a xlink:href="Utils_8h.html" target="_top" xlink:title="Utility helpers.">
<polygon fill="none" stroke="black" points="763.5,-180.5 763.5,-203.5 824.5,-203.5 824.5,-180.5 763.5,-180.5"/>
<text text-anchor="middle" x="794" y="-188.3" font-family="Helvetica,sans-Serif" font-size="14.00">Utils.h</text>
</a>
</g>
</g>
<!-- Node1&#45;&gt;Node21 -->
<g id="edge21" class="edge">
<title>Node1&#45;&gt;Node21</title>
<path fill="none" stroke="midnightblue" d="M794,-240.36C794,-232.92 794,-222.74 794,-213.73"/>
<polygon fill="midnightblue" stroke="midnightblue" points="797.5,-213.57 794,-203.57 790.5,-213.57 797.5,-213.57"/>
</g>
<!-- Node26 -->
<g id="node26" class="node">
<title>Node26</title>
<g id="a_node26"><a xlink:title=" ">
<polygon fill="none" stroke="#bfbfbf" points="843,-180.5 843,-203.5 927,-203.5 927,-180.5 843,-180.5"/>
<text text-anchor="middle" x="885" y="-188.3" font-family="Helvetica,sans-Serif" font-size="14.00">exception</text>
</a>
</g>
</g>
<!-- Node1&#45;&gt;Node26 -->
<g id="edge27" class="edge">
<title>Node1&#45;&gt;Node26</title>
<path fill="none" stroke="midnightblue" d="M810.69,-240.36C824.42,-231.61 844.08,-219.08 859.74,-209.1"/>
<polygon fill="midnightblue" stroke="midnightblue" points="861.86,-211.9 868.42,-203.57 858.1,-205.99 861.86,-211.9"/>
</g>
<!-- Node27 -->
<g id="node27" class="node">
<title>Node27</title>
<g id="a_node27"><a xlink:title=" ">
<polygon fill="none" stroke="#bfbfbf" points="945.5,-180.5 945.5,-203.5 1022.5,-203.5 1022.5,-180.5 945.5,-180.5"/>
<text text-anchor="middle" x="984" y="-188.3" font-family="Helvetica,sans-Serif" font-size="14.00">iostream</text>
</a>
</g>
</g>
<!-- Node1&#45;&gt;Node27 -->
<g id="edge28" class="edge">
<title>Node1&#45;&gt;Node27</title>
<path fill="none" stroke="midnightblue" d="M828.41,-240.5C859.65,-230.96 905.9,-216.84 939.86,-206.48"/>
<polygon fill="midnightblue" stroke="midnightblue" points="940.99,-209.79 949.53,-203.52 938.94,-203.1 940.99,-209.79"/>
</g>
<!-- Node3 -->
<g id="node3" class="node">
<title>Node3</title>
<g id="a_node3"><a xlink:title=" ">
<polygon fill="none" stroke="#bfbfbf" points="349.5,-120.5 349.5,-143.5 498.5,-143.5 498.5,-120.5 349.5,-120.5"/>
<text text-anchor="middle" x="424" y="-128.3" font-family="Helvetica,sans-Serif" font-size="14.00">VmbCPP/VmbCPP.h</text>
</a>
</g>
</g>
<!-- Node2&#45;&gt;Node3 -->
<g id="edge2" class="edge">
<title>Node2&#45;&gt;Node3</title>
<path fill="none" stroke="midnightblue" d="M548.47,-180.5C524.02,-171.16 488.06,-157.44 461.08,-147.15"/>
<polygon fill="midnightblue" stroke="midnightblue" points="462.17,-143.82 451.58,-143.52 459.67,-150.36 462.17,-143.82"/>
</g>
<!-- Node4 -->
<g id="node4" class="node">
<title>Node4</title>
<g id="a_node4"><a xlink:href="Camera_8h.html" target="_top" xlink:title="Camera backend for .">
<polygon fill="none" stroke="black" points="517,-120.5 517,-143.5 601,-143.5 601,-120.5 517,-120.5"/>
<text text-anchor="middle" x="559" y="-128.3" font-family="Helvetica,sans-Serif" font-size="14.00">Camera.h</text>
</a>
</g>
</g>
<!-- Node2&#45;&gt;Node4 -->
<g id="edge3" class="edge">
<title>Node2&#45;&gt;Node4</title>
<path fill="none" stroke="midnightblue" d="M572.88,-180.36C570.68,-172.84 567.65,-162.52 564.99,-153.43"/>
<polygon fill="midnightblue" stroke="midnightblue" points="568.27,-152.18 562.1,-143.57 561.55,-154.15 568.27,-152.18"/>
</g>
<!-- Node2&#45;&gt;Node20 -->
<g id="edge19" class="edge">
<title>Node2&#45;&gt;Node20</title>
<path fill="none" stroke="midnightblue" d="M590.49,-180.36C602.18,-171.78 618.84,-159.55 632.3,-149.66"/>
<polygon fill="midnightblue" stroke="midnightblue" points="634.61,-152.31 640.6,-143.57 630.47,-146.67 634.61,-152.31"/>
</g>
<!-- Node5 -->
<g id="node5" class="node">
<title>Node5</title>
<g id="a_node5"><a xlink:title=" ">
<polygon fill="none" stroke="#bfbfbf" points="0,-60.5 0,-83.5 66,-83.5 66,-60.5 0,-60.5"/>
<text text-anchor="middle" x="33" y="-68.3" font-family="Helvetica,sans-Serif" font-size="14.00">math.h</text>
</a>
</g>
</g>
<!-- Node4&#45;&gt;Node5 -->
<g id="edge4" class="edge">
<title>Node4&#45;&gt;Node5</title>
<path fill="none" stroke="midnightblue" d="M516.79,-121.61C513.49,-121.02 510.2,-120.47 507,-120 319.64,-92.49 266.7,-115.71 76.41,-84"/>
<polygon fill="midnightblue" stroke="midnightblue" points="76.8,-80.51 66.36,-82.29 75.63,-87.42 76.8,-80.51"/>
</g>
<!-- Node6 -->
<g id="node6" class="node">
<title>Node6</title>
<g id="a_node6"><a xlink:title=" ">
<polygon fill="none" stroke="#bfbfbf" points="84,-60.5 84,-83.5 160,-83.5 160,-60.5 84,-60.5"/>
<text text-anchor="middle" x="122" y="-68.3" font-family="Helvetica,sans-Serif" font-size="14.00">QThread</text>
</a>
</g>
</g>
<!-- Node4&#45;&gt;Node6 -->
<g id="edge5" class="edge">
<title>Node4&#45;&gt;Node6</title>
<path fill="none" stroke="midnightblue" d="M516.78,-121.69C513.48,-121.08 510.19,-120.51 507,-120 361,-96.84 319.71,-108.72 170.15,-84.02"/>
<polygon fill="midnightblue" stroke="midnightblue" points="170.58,-80.55 160.14,-82.34 169.42,-87.45 170.58,-80.55"/>
</g>
<!-- Node7 -->
<g id="node7" class="node">
<title>Node7</title>
<g id="a_node7"><a xlink:title=" ">
<polygon fill="none" stroke="#bfbfbf" points="178.5,-60.5 178.5,-83.5 257.5,-83.5 257.5,-60.5 178.5,-60.5"/>
<text text-anchor="middle" x="218" y="-68.3" font-family="Helvetica,sans-Serif" font-size="14.00">QPixmap</text>
</a>
</g>
</g>
<!-- Node4&#45;&gt;Node7 -->
<g id="edge6" class="edge">
<title>Node4&#45;&gt;Node7</title>
<path fill="none" stroke="midnightblue" d="M516.76,-121.84C513.46,-121.19 510.18,-120.57 507,-120 403.54,-101.35 374.12,-103.94 267.38,-84.16"/>
<polygon fill="midnightblue" stroke="midnightblue" points="267.98,-80.71 257.5,-82.31 266.69,-87.59 267.98,-80.71"/>
</g>
<!-- Node8 -->
<g id="node8" class="node">
<title>Node8</title>
<g id="a_node8"><a xlink:title=" ">
<polygon fill="none" stroke="#bfbfbf" points="275.5,-60.5 275.5,-83.5 346.5,-83.5 346.5,-60.5 275.5,-60.5"/>
<text text-anchor="middle" x="311" y="-68.3" font-family="Helvetica,sans-Serif" font-size="14.00">QImage</text>
</a>
</g>
</g>
<!-- Node4&#45;&gt;Node8 -->
<g id="edge7" class="edge">
<title>Node4&#45;&gt;Node8</title>
<path fill="none" stroke="midnightblue" d="M516.75,-121.51C477.55,-112.64 417.34,-98.9 356.32,-84.29"/>
<polygon fill="midnightblue" stroke="midnightblue" points="357.07,-80.87 346.53,-81.94 355.44,-87.68 357.07,-80.87"/>
</g>
<!-- Node9 -->
<g id="node9" class="node">
<title>Node9</title>
<g id="a_node9"><a xlink:title=" ">
<polygon fill="none" stroke="#bfbfbf" points="364.5,-60.5 364.5,-83.5 461.5,-83.5 461.5,-60.5 364.5,-60.5"/>
<text text-anchor="middle" x="413" y="-68.3" font-family="Helvetica,sans-Serif" font-size="14.00">QByteArray</text>
</a>
</g>
</g>
<!-- Node4&#45;&gt;Node9 -->
<g id="edge8" class="edge">
<title>Node4&#45;&gt;Node9</title>
<path fill="none" stroke="midnightblue" d="M532.56,-120.5C509.24,-111.23 475.05,-97.65 449.2,-87.38"/>
<polygon fill="midnightblue" stroke="midnightblue" points="450.32,-84.06 439.74,-83.62 447.74,-90.57 450.32,-84.06"/>
</g>
<!-- Node10 -->
<g id="node10" class="node">
<title>Node10</title>
<g id="a_node10"><a xlink:title=" ">
<polygon fill="none" stroke="#bfbfbf" points="479.5,-60.5 479.5,-83.5 550.5,-83.5 550.5,-60.5 479.5,-60.5"/>
<text text-anchor="middle" x="515" y="-68.3" font-family="Helvetica,sans-Serif" font-size="14.00">QBuffer</text>
</a>
</g>
</g>
<!-- Node4&#45;&gt;Node10 -->
<g id="edge9" class="edge">
<title>Node4&#45;&gt;Node10</title>
<path fill="none" stroke="midnightblue" d="M550.93,-120.36C544.85,-112.35 536.36,-101.16 529.16,-91.67"/>
<polygon fill="midnightblue" stroke="midnightblue" points="531.85,-89.42 523.02,-83.57 526.27,-93.65 531.85,-89.42"/>
</g>
<!-- Node11 -->
<g id="node11" class="node">
<title>Node11</title>
<g id="a_node11"><a xlink:title=" ">
<polygon fill="none" stroke="#bfbfbf" points="568.5,-60.5 568.5,-83.5 639.5,-83.5 639.5,-60.5 568.5,-60.5"/>
<text text-anchor="middle" x="604" y="-68.3" font-family="Helvetica,sans-Serif" font-size="14.00">QMutex</text>
</a>
</g>
</g>
<!-- Node4&#45;&gt;Node11 -->
<g id="edge10" class="edge">
<title>Node4&#45;&gt;Node11</title>
<path fill="none" stroke="midnightblue" d="M567.25,-120.36C573.47,-112.35 582.15,-101.16 589.51,-91.67"/>
<polygon fill="midnightblue" stroke="midnightblue" points="592.43,-93.62 595.8,-83.57 586.9,-89.33 592.43,-93.62"/>
</g>
<!-- Node12 -->
<g id="node12" class="node">
<title>Node12</title>
<g id="a_node12"><a xlink:title=" ">
<polygon fill="none" stroke="#bfbfbf" points="658,-60.5 658,-83.5 782,-83.5 782,-60.5 658,-60.5"/>
<text text-anchor="middle" x="720" y="-68.3" font-family="Helvetica,sans-Serif" font-size="14.00">QWaitCondition</text>
</a>
</g>
</g>
<!-- Node4&#45;&gt;Node12 -->
<g id="edge11" class="edge">
<title>Node4&#45;&gt;Node12</title>
<path fill="none" stroke="midnightblue" d="M588.16,-120.5C614.18,-111.12 652.48,-97.32 681.1,-87.01"/>
<polygon fill="midnightblue" stroke="midnightblue" points="682.57,-90.21 690.79,-83.52 680.2,-83.62 682.57,-90.21"/>
</g>
<!-- Node13 -->
<g id="node13" class="node">
<title>Node13</title>
<g id="a_node13"><a xlink:title=" ">
<polygon fill="none" stroke="#bfbfbf" points="800,-60.5 800,-83.5 862,-83.5 862,-60.5 800,-60.5"/>
<text text-anchor="middle" x="831" y="-68.3" font-family="Helvetica,sans-Serif" font-size="14.00">QTime</text>
</a>
</g>
</g>
<!-- Node4&#45;&gt;Node13 -->
<g id="edge12" class="edge">
<title>Node4&#45;&gt;Node13</title>
<path fill="none" stroke="midnightblue" d="M601.01,-121.88C604.05,-121.24 607.07,-120.61 610,-120 687.18,-104 709.46,-102.95 789.55,-84.23"/>
<polygon fill="midnightblue" stroke="midnightblue" points="790.68,-87.56 799.61,-81.86 789.08,-80.75 790.68,-87.56"/>
</g>
<!-- Node14 -->
<g id="node14" class="node">
<title>Node14</title>
<g id="a_node14"><a xlink:href="PosixCompat_8h.html" target="_top" xlink:title=" ">
<polygon fill="none" stroke="black" points="880,-60.5 880,-83.5 1000,-83.5 1000,-60.5 880,-60.5"/>
<text text-anchor="middle" x="940" y="-68.3" font-family="Helvetica,sans-Serif" font-size="14.00">PosixCompat.h</text>
</a>
</g>
</g>
<!-- Node4&#45;&gt;Node14 -->
<g id="edge13" class="edge">
<title>Node4&#45;&gt;Node14</title>
<path fill="none" stroke="midnightblue" d="M601.25,-121.63C604.21,-121.05 607.15,-120.5 610,-120 722.16,-100.2 753.48,-101.15 869.79,-84.15"/>
<polygon fill="midnightblue" stroke="midnightblue" points="870.42,-87.6 879.8,-82.67 869.4,-80.67 870.42,-87.6"/>
</g>
<!-- Node17 -->
<g id="node17" class="node">
<title>Node17</title>
<g id="a_node17"><a xlink:href="QsLog_8h.html" target="_top" xlink:title="Qs Log logging support.">
<polygon fill="none" stroke="black" points="1018,-60.5 1018,-83.5 1092,-83.5 1092,-60.5 1018,-60.5"/>
<text text-anchor="middle" x="1055" y="-68.3" font-family="Helvetica,sans-Serif" font-size="14.00">QsLog.h</text>
</a>
</g>
</g>
<!-- Node4&#45;&gt;Node17 -->
<g id="edge16" class="edge">
<title>Node4&#45;&gt;Node17</title>
<path fill="none" stroke="midnightblue" d="M601.23,-121.48C604.19,-120.94 607.13,-120.44 610,-120 782.84,-93.66 831.54,-112.09 1008.06,-83.95"/>
<polygon fill="midnightblue" stroke="midnightblue" points="1008.63,-87.41 1017.94,-82.35 1007.51,-80.5 1008.63,-87.41"/>
</g>
<!-- Node15 -->
<g id="node15" class="node">
<title>Node15</title>
<g id="a_node15"><a xlink:title=" ">
<polygon fill="none" stroke="#bfbfbf" points="813.5,-0.5 813.5,-23.5 890.5,-23.5 890.5,-0.5 813.5,-0.5"/>
<text text-anchor="middle" x="852" y="-8.3" font-family="Helvetica,sans-Serif" font-size="14.00">QtGlobal</text>
</a>
</g>
</g>
<!-- Node14&#45;&gt;Node15 -->
<g id="edge14" class="edge">
<title>Node14&#45;&gt;Node15</title>
<path fill="none" stroke="midnightblue" d="M923.86,-60.36C910.59,-51.61 891.57,-39.08 876.43,-29.1"/>
<polygon fill="midnightblue" stroke="midnightblue" points="878.31,-26.15 868.04,-23.57 874.46,-32 878.31,-26.15"/>
</g>
<!-- Node16 -->
<g id="node16" class="node">
<title>Node16</title>
<g id="a_node16"><a xlink:title=" ">
<polygon fill="none" stroke="#bfbfbf" points="909,-0.5 909,-23.5 983,-23.5 983,-0.5 909,-0.5"/>
<text text-anchor="middle" x="946" y="-8.3" font-family="Helvetica,sans-Serif" font-size="14.00">unistd.h</text>
</a>
</g>
</g>
<!-- Node14&#45;&gt;Node16 -->
<g id="edge15" class="edge">
<title>Node14&#45;&gt;Node16</title>
<path fill="none" stroke="midnightblue" d="M941.1,-60.36C941.87,-52.92 942.92,-42.74 943.86,-33.73"/>
<polygon fill="midnightblue" stroke="midnightblue" points="947.36,-33.88 944.91,-23.57 940.4,-33.16 947.36,-33.88"/>
</g>
<!-- Node18 -->
<g id="node18" class="node">
<title>Node18</title>
<g id="a_node18"><a xlink:title=" ">
<polygon fill="none" stroke="#bfbfbf" points="1012,-0.5 1012,-23.5 1086,-23.5 1086,-0.5 1012,-0.5"/>
<text text-anchor="middle" x="1049" y="-8.3" font-family="Helvetica,sans-Serif" font-size="14.00">QDebug</text>
</a>
</g>
</g>
<!-- Node17&#45;&gt;Node18 -->
<g id="edge17" class="edge">
<title>Node17&#45;&gt;Node18</title>
<path fill="none" stroke="midnightblue" d="M1053.9,-60.36C1053.13,-52.92 1052.08,-42.74 1051.14,-33.73"/>
<polygon fill="midnightblue" stroke="midnightblue" points="1054.6,-33.16 1050.09,-23.57 1047.64,-33.88 1054.6,-33.16"/>
</g>
<!-- Node19 -->
<g id="node19" class="node">
<title>Node19</title>
<g id="a_node19"><a xlink:title=" ">
<polygon fill="none" stroke="#bfbfbf" points="1104,-0.5 1104,-23.5 1174,-23.5 1174,-0.5 1104,-0.5"/>
<text text-anchor="middle" x="1139" y="-8.3" font-family="Helvetica,sans-Serif" font-size="14.00">QString</text>
</a>
</g>
</g>
<!-- Node17&#45;&gt;Node19 -->
<g id="edge18" class="edge">
<title>Node17&#45;&gt;Node19</title>
<path fill="none" stroke="midnightblue" d="M1070.41,-60.36C1082.96,-51.7 1100.89,-39.31 1115.27,-29.38"/>
<polygon fill="midnightblue" stroke="midnightblue" points="1117.45,-32.13 1123.69,-23.57 1113.47,-26.37 1117.45,-32.13"/>
</g>
<!-- Node21&#45;&gt;Node17 -->
<g id="edge26" class="edge">
<title>Node21&#45;&gt;Node17</title>
<path fill="none" stroke="midnightblue" d="M775.29,-180.38C752.71,-166.26 719.9,-140.67 738,-120 776.15,-76.44 933.5,-93.28 1007.61,-83.81"/>
<polygon fill="midnightblue" stroke="midnightblue" points="1008.57,-87.2 1017.91,-82.21 1007.49,-80.29 1008.57,-87.2"/>
</g>
<!-- Node22 -->
<g id="node22" class="node">
<title>Node22</title>
<g id="a_node22"><a xlink:title=" ">
<polygon fill="none" stroke="#bfbfbf" points="747,-120.5 747,-143.5 841,-143.5 841,-120.5 747,-120.5"/>
<text text-anchor="middle" x="794" y="-128.3" font-family="Helvetica,sans-Serif" font-size="14.00">QDateTime</text>
</a>
</g>
</g>
<!-- Node21&#45;&gt;Node22 -->
<g id="edge22" class="edge">
<title>Node21&#45;&gt;Node22</title>
<path fill="none" stroke="midnightblue" d="M794,-180.36C794,-172.92 794,-162.74 794,-153.73"/>
<polygon fill="midnightblue" stroke="midnightblue" points="797.5,-153.57 794,-143.57 790.5,-153.57 797.5,-153.57"/>
</g>
<!-- Node23 -->
<g id="node23" class="node">
<title>Node23</title>
<g id="a_node23"><a xlink:title=" ">
<polygon fill="none" stroke="#bfbfbf" points="859,-120.5 859,-143.5 907,-143.5 907,-120.5 859,-120.5"/>
<text text-anchor="middle" x="883" y="-128.3" font-family="Helvetica,sans-Serif" font-size="14.00">QDir</text>
</a>
</g>
</g>
<!-- Node21&#45;&gt;Node23 -->
<g id="edge23" class="edge">
<title>Node21&#45;&gt;Node23</title>
<path fill="none" stroke="midnightblue" d="M810.32,-180.36C823.75,-171.61 842.98,-159.08 858.29,-149.1"/>
<polygon fill="midnightblue" stroke="midnightblue" points="860.31,-151.96 866.78,-143.57 856.49,-146.1 860.31,-151.96"/>
</g>
<!-- Node24 -->
<g id="node24" class="node">
<title>Node24</title>
<g id="a_node24"><a xlink:title=" ">
<polygon fill="none" stroke="#bfbfbf" points="925.5,-120.5 925.5,-143.5 1020.5,-143.5 1020.5,-120.5 925.5,-120.5"/>
<text text-anchor="middle" x="973" y="-128.3" font-family="Helvetica,sans-Serif" font-size="14.00">QTableView</text>
</a>
</g>
</g>
<!-- Node21&#45;&gt;Node24 -->
<g id="edge24" class="edge">
<title>Node21&#45;&gt;Node24</title>
<path fill="none" stroke="midnightblue" d="M824.77,-181.03C854.03,-171.55 898.28,-157.21 930.82,-146.67"/>
<polygon fill="midnightblue" stroke="midnightblue" points="932.08,-149.94 940.52,-143.53 929.92,-143.28 932.08,-149.94"/>
</g>
<!-- Node25 -->
<g id="node25" class="node">
<title>Node25</title>
<g id="a_node25"><a xlink:title=" ">
<polygon fill="none" stroke="#bfbfbf" points="1038.5,-120.5 1038.5,-143.5 1093.5,-143.5 1093.5,-120.5 1038.5,-120.5"/>
<text text-anchor="middle" x="1066" y="-128.3" font-family="Helvetica,sans-Serif" font-size="14.00">QtSql</text>
</a>
</g>
</g>
<!-- Node21&#45;&gt;Node25 -->
<g id="edge25" class="edge">
<title>Node21&#45;&gt;Node25</title>
<path fill="none" stroke="midnightblue" d="M824.51,-182.32C827.7,-181.5 830.91,-180.71 834,-180 917.22,-160.95 942.16,-164.66 1028.24,-144.25"/>
<polygon fill="midnightblue" stroke="midnightblue" points="1029.28,-147.6 1038.18,-141.85 1027.64,-140.79 1029.28,-147.6"/>
</g>
</g>
</svg>
        <g id="navigator" transform="translate(0 0)" fill="#404254">
                <rect fill="#f2f5e9" fill-opacity="0.5" stroke="#606060" stroke-width=".5" x="0" y="0" width="60" height="60"/>
                <use id="zoomplus" xlink:href="#zoomPlus" x="17" y="9" onmousedown="handleZoom(evt,'in')"/>
                <use id="zoomminus" xlink:href="#zoomMin" x="42" y="9" onmousedown="handleZoom(evt,'out')"/>
                <use id="reset" xlink:href="#resetDef" x="30" y="36" onmousedown="handleReset()"/>
                <g id="arrowUp" xlink:href="#dirArrow" transform="translate(30 24)" onmousedown="handlePan(0,-1)">
                  <use xlink:href="#rim" fill="#404040">
                        <set attributeName="fill" to="#808080" begin="arrowUp.mouseover" end="arrowUp.mouseout"/>
                  </use>
                  <path fill="none" stroke="white" stroke-width="1.5" d="M0,-3.0v7 M-2.5,-0.5L0,-3.0L2.5,-0.5"/>
                </g>
                <g id="arrowRight" xlink:href="#dirArrow" transform="rotate(90) translate(36 -43)" onmousedown="handlePan(1,0)">
                  <use xlink:href="#rim" fill="#404040">
                        <set attributeName="fill" to="#808080" begin="arrowRight.mouseover" end="arrowRight.mouseout"/>
                  </use>
                  <path fill="none" stroke="white" stroke-width="1.5" d="M0,-3.0v7 M-2.5,-0.5L0,-3.0L2.5,-0.5"/>
                </g>
                <g id="arrowDown" xlink:href="#dirArrow" transform="rotate(180) translate(-30 -48)" onmousedown="handlePan(0,1)">
                  <use xlink:href="#rim" fill="#404040">
                        <set attributeName="fill" to="#808080" begin="arrowDown.mouseover" end="arrowDown.mouseout"/>
                  </use>
                  <path fill="none" stroke="white" stroke-width="1.5" d="M0,-3.0v7 M-2.5,-0.5L0,-3.0L2.5,-0.5"/>
                </g>
                <g id="arrowLeft" xlink:href="#dirArrow" transform="rotate(270) translate(-36 17)" onmousedown="handlePan(-1,0)">
                  <use xlink:href="#rim" fill="#404040">
                        <set attributeName="fill" to="#808080" begin="arrowLeft.mouseover" end="arrowLeft.mouseout"/>
                  </use>
                  <path fill="none" stroke="white" stroke-width="1.5" d="M0,-3.0v7 M-2.5,-0.5L0,-3.0L2.5,-0.5"/>
                </g>
        </g>
        <svg viewBox="0 0 15 15" width="100%" height="30px" preserveAspectRatio="xMaxYMin meet">
         <g id="arrow_out" transform="scale(0.3 0.3)">
          <a xlink:href="CameraAlliedVision_8cpp__incl_org.svg" target="_base">
           <rect id="button" ry="5" rx="5" y="6" x="6" height="38" width="38"
                fill="#f2f5e9" fill-opacity="0.5" stroke="#606060" stroke-width="1.0"/>
           <path id="arrow"
             d="M 11.500037,31.436501 C 11.940474,20.09759 22.043105,11.32322 32.158766,21.979434 L 37.068811,17.246167 C 37.068811,17.246167 37.088388,32 37.088388,32 L 22.160133,31.978069 C 22.160133,31.978069 26.997745,27.140456 26.997745,27.140456 C 18.528582,18.264221 13.291696,25.230495 11.500037,31.436501 z"
             style="fill:#404040;"/>
          </a>
         </g>
        </svg>
</svg>
