<?xml version="1.0" encoding="UTF-8" standalone="no"?>
<!DOCTYPE svg PUBLIC "-//W3C//DTD SVG 1.1//EN"
 "http://www.w3.org/Graphics/SVG/1.1/DTD/svg11.dtd">
<!-- Generated by graphviz version 2.50.0 (0)
 -->
<!-- Title: CameraWindow.h Pages: 1 -->
<svg width="1652pt" height="272pt"
 viewBox="0.00 0.00 1651.50 272.00" xmlns="http://www.w3.org/2000/svg" xmlns:xlink="http://www.w3.org/1999/xlink">
<style><![CDATA[
text { fill: #e6e6e6 !important; }
polygon { fill: #2f2f2f !important; stroke: #9aa0a6 !important; }
path, line, polyline { stroke: #4e67d6 !important; }
]]></style>
<style><![CDATA[
text { fill: #e6e6e6 !important; }
polygon { fill: #2f2f2f !important; stroke: #9aa0a6 !important; }
path, line, polyline { stroke: #4e67d6 !important; }
]]></style>
<style><![CDATA[
text { fill: #e6e6e6 !important; }
polygon { fill: #2f2f2f !important; stroke: #9aa0a6 !important; }
path, line, polyline { stroke: #4e67d6 !important; }
]]></style>
<style><![CDATA[
text { fill: #e6e6e6 !important; }
polygon { fill: #2f2f2f !important; stroke: #9aa0a6 !important; }
path, line, polyline { stroke: #4e67d6 !important; }
]]></style>
<style><![CDATA[
text { fill: #e6e6e6 !important; }
polygon { fill: #2f2f2f !important; stroke: #9aa0a6 !important; }
path, line, polyline { stroke: #4e67d6 !important; }
]]></style>
<style><![CDATA[
text { fill: #e6e6e6 !important; }
polygon { fill: #2f2f2f !important; stroke: #9aa0a6 !important; }
path, line, polyline { stroke: #4e67d6 !important; }
]]></style>
<style><![CDATA[
text { fill: #e6e6e6 !important; }
polygon { fill: #2f2f2f !important; stroke: #9aa0a6 !important; }
path, line, polyline { stroke: #4e67d6 !important; }
]]></style>
<g id="graph0" class="graph" transform="scale(1 1) rotate(0) translate(4 268)">
<title>CameraWindow.h</title>
<!-- Node1 -->
<g id="node1" class="node">
<title>Node1</title>
<g id="a_node1"><a xlink:title="Camera backend for Window.">
<polygon fill="#bfbfbf" stroke="black" points="303,-240.5 303,-263.5 441,-263.5 441,-240.5 303,-240.5"/>
<text text-anchor="middle" x="372" y="-248.3" font-family="Helvetica,sans-Serif" font-size="14.00">CameraWindow.h</text>
</a>
</g>
</g>
<!-- Node2 -->
<g id="node2" class="node">
<title>Node2</title>
<g id="a_node2"><a xlink:title=" ">
<polygon fill="none" stroke="#bfbfbf" points="0,-180.5 0,-203.5 116,-203.5 116,-180.5 0,-180.5"/>
<text text-anchor="middle" x="58" y="-188.3" font-family="Helvetica,sans-Serif" font-size="14.00">QMainWindow</text>
</a>
</g>
</g>
<!-- Node1&#45;&gt;Node2 -->
<g id="edge1" class="edge">
<title>Node1&#45;&gt;Node2</title>
<path fill="none" stroke="midnightblue" d="M315.14,-240.5C261.62,-230.61 181.46,-215.8 124.89,-205.36"/>
<polygon fill="midnightblue" stroke="midnightblue" points="125.44,-201.9 114.97,-203.52 124.17,-208.78 125.44,-201.9"/>
</g>
<!-- Node3 -->
<g id="node3" class="node">
<title>Node3</title>
<g id="a_node3"><a xlink:href="Camera_8h.html" target="_top" xlink:title="Camera backend for .">
<polygon fill="none" stroke="black" points="372,-120.5 372,-143.5 456,-143.5 456,-120.5 372,-120.5"/>
<text text-anchor="middle" x="414" y="-128.3" font-family="Helvetica,sans-Serif" font-size="14.00">Camera.h</text>
</a>
</g>
</g>
<!-- Node1&#45;&gt;Node3 -->
<g id="edge2" class="edge">
<title>Node1&#45;&gt;Node3</title>
<path fill="none" stroke="midnightblue" d="M375.88,-240.11C382.91,-220.34 397.89,-178.27 406.83,-153.14"/>
<polygon fill="midnightblue" stroke="midnightblue" points="410.2,-154.12 410.25,-143.52 403.6,-151.77 410.2,-154.12"/>
</g>
<!-- Node16 -->
<g id="node16" class="node">
<title>Node16</title>
<g id="a_node16"><a xlink:href="QsLog_8h.html" target="_top" xlink:title="Qs Log logging support.">
<polygon fill="none" stroke="black" points="119,-60.5 119,-83.5 193,-83.5 193,-60.5 119,-60.5"/>
<text text-anchor="middle" x="156" y="-68.3" font-family="Helvetica,sans-Serif" font-size="14.00">QsLog.h</text>
</a>
</g>
</g>
<!-- Node1&#45;&gt;Node16 -->
<g id="edge39" class="edge">
<title>Node1&#45;&gt;Node16</title>
<path fill="none" stroke="midnightblue" d="M329.73,-240.39C283.77,-226.47 212.06,-197.3 176,-144 165.94,-129.12 160.9,-109.24 158.4,-94.3"/>
<polygon fill="midnightblue" stroke="midnightblue" points="161.81,-93.41 156.94,-84 154.87,-94.39 161.81,-93.41"/>
</g>
<!-- Node19 -->
<g id="node19" class="node">
<title>Node19</title>
<g id="a_node19"><a xlink:href="CameraControlWidget_8h.html" target="_top" xlink:title="Camera backend for Control Widget.">
<polygon fill="none" stroke="black" points="1294,-180.5 1294,-203.5 1476,-203.5 1476,-180.5 1294,-180.5"/>
<text text-anchor="middle" x="1385" y="-188.3" font-family="Helvetica,sans-Serif" font-size="14.00">CameraControlWidget.h</text>
</a>
</g>
</g>
<!-- Node1&#45;&gt;Node19 -->
<g id="edge18" class="edge">
<title>Node1&#45;&gt;Node19</title>
<path fill="none" stroke="midnightblue" d="M441.23,-247.04C616.4,-237.01 1077.89,-210.58 1283.57,-198.81"/>
<polygon fill="midnightblue" stroke="midnightblue" points="1283.99,-202.29 1293.77,-198.22 1283.59,-195.3 1283.99,-202.29"/>
</g>
<!-- Node22 -->
<g id="node22" class="node">
<title>Node22</title>
<g id="a_node22"><a xlink:href="CameraPropWidget_8h.html" target="_top" xlink:title="Camera backend for Prop Widget.">
<polygon fill="none" stroke="black" points="667,-180.5 667,-203.5 831,-203.5 831,-180.5 667,-180.5"/>
<text text-anchor="middle" x="749" y="-188.3" font-family="Helvetica,sans-Serif" font-size="14.00">CameraPropWidget.h</text>
</a>
</g>
</g>
<!-- Node1&#45;&gt;Node22 -->
<g id="edge21" class="edge">
<title>Node1&#45;&gt;Node22</title>
<path fill="none" stroke="midnightblue" d="M440.27,-240.5C505.06,-230.53 602.37,-215.56 670.37,-205.1"/>
<polygon fill="midnightblue" stroke="midnightblue" points="671.25,-208.5 680.6,-203.52 670.18,-201.58 671.25,-208.5"/>
</g>
<!-- Node32 -->
<g id="node32" class="node">
<title>Node32</title>
<g id="a_node32"><a xlink:href="VideoPlayer_8h.html" target="_top" xlink:title="Video Player component.">
<polygon fill="none" stroke="black" points="263,-180.5 263,-203.5 373,-203.5 373,-180.5 263,-180.5"/>
<text text-anchor="middle" x="318" y="-188.3" font-family="Helvetica,sans-Serif" font-size="14.00">VideoPlayer.h</text>
</a>
</g>
</g>
<!-- Node1&#45;&gt;Node32 -->
<g id="edge33" class="edge">
<title>Node1&#45;&gt;Node32</title>
<path fill="none" stroke="midnightblue" d="M362.1,-240.36C354.48,-232.19 343.79,-220.7 334.84,-211.09"/>
<polygon fill="midnightblue" stroke="midnightblue" points="337.22,-208.5 327.84,-203.57 332.09,-213.27 337.22,-208.5"/>
</g>
<!-- Node4 -->
<g id="node4" class="node">
<title>Node4</title>
<g id="a_node4"><a xlink:title=" ">
<polygon fill="none" stroke="#bfbfbf" points="699,-60.5 699,-83.5 765,-83.5 765,-60.5 699,-60.5"/>
<text text-anchor="middle" x="732" y="-68.3" font-family="Helvetica,sans-Serif" font-size="14.00">math.h</text>
</a>
</g>
</g>
<!-- Node3&#45;&gt;Node4 -->
<g id="edge3" class="edge">
<title>Node3&#45;&gt;Node4</title>
<path fill="none" stroke="midnightblue" d="M456.27,-121.7C459.22,-121.11 462.15,-120.53 465,-120 561.42,-101.9 589.18,-104.65 688.74,-84.12"/>
<polygon fill="midnightblue" stroke="midnightblue" points="689.53,-87.53 698.6,-82.06 688.09,-80.68 689.53,-87.53"/>
</g>
<!-- Node5 -->
<g id="node5" class="node">
<title>Node5</title>
<g id="a_node5"><a xlink:title=" ">
<polygon fill="none" stroke="#bfbfbf" points="783,-60.5 783,-83.5 859,-83.5 859,-60.5 783,-60.5"/>
<text text-anchor="middle" x="821" y="-68.3" font-family="Helvetica,sans-Serif" font-size="14.00">QThread</text>
</a>
</g>
</g>
<!-- Node3&#45;&gt;Node5 -->
<g id="edge4" class="edge">
<title>Node3&#45;&gt;Node5</title>
<path fill="none" stroke="midnightblue" d="M456.24,-121.56C459.2,-121 462.14,-120.47 465,-120 598.21,-97.93 636.04,-107.32 772.83,-84.04"/>
<polygon fill="midnightblue" stroke="midnightblue" points="773.6,-87.46 782.86,-82.31 772.4,-80.57 773.6,-87.46"/>
</g>
<!-- Node6 -->
<g id="node6" class="node">
<title>Node6</title>
<g id="a_node6"><a xlink:title=" ">
<polygon fill="none" stroke="#bfbfbf" points="877.5,-60.5 877.5,-83.5 956.5,-83.5 956.5,-60.5 877.5,-60.5"/>
<text text-anchor="middle" x="917" y="-68.3" font-family="Helvetica,sans-Serif" font-size="14.00">QPixmap</text>
</a>
</g>
</g>
<!-- Node3&#45;&gt;Node6 -->
<g id="edge5" class="edge">
<title>Node3&#45;&gt;Node6</title>
<path fill="none" stroke="midnightblue" d="M456.23,-121.47C459.19,-120.93 462.13,-120.44 465,-120 639.57,-93.48 688.57,-111.09 867.24,-83.93"/>
<polygon fill="midnightblue" stroke="midnightblue" points="867.89,-87.37 877.24,-82.39 866.82,-80.46 867.89,-87.37"/>
</g>
<!-- Node7 -->
<g id="node7" class="node">
<title>Node7</title>
<g id="a_node7"><a xlink:title=" ">
<polygon fill="none" stroke="#bfbfbf" points="974.5,-60.5 974.5,-83.5 1045.5,-83.5 1045.5,-60.5 974.5,-60.5"/>
<text text-anchor="middle" x="1010" y="-68.3" font-family="Helvetica,sans-Serif" font-size="14.00">QImage</text>
</a>
</g>
</g>
<!-- Node3&#45;&gt;Node7 -->
<g id="edge6" class="edge">
<title>Node3&#45;&gt;Node7</title>
<path fill="none" stroke="midnightblue" d="M456.22,-121.42C459.18,-120.89 462.13,-120.41 465,-120 682.32,-88.9 743.13,-117.7 964.28,-83.86"/>
<polygon fill="midnightblue" stroke="midnightblue" points="964.91,-87.31 974.25,-82.31 963.83,-80.39 964.91,-87.31"/>
</g>
<!-- Node8 -->
<g id="node8" class="node">
<title>Node8</title>
<g id="a_node8"><a xlink:title=" ">
<polygon fill="none" stroke="#bfbfbf" points="1063.5,-60.5 1063.5,-83.5 1160.5,-83.5 1160.5,-60.5 1063.5,-60.5"/>
<text text-anchor="middle" x="1112" y="-68.3" font-family="Helvetica,sans-Serif" font-size="14.00">QByteArray</text>
</a>
</g>
</g>
<!-- Node3&#45;&gt;Node8 -->
<g id="edge7" class="edge">
<title>Node3&#45;&gt;Node8</title>
<path fill="none" stroke="midnightblue" d="M456.21,-121.38C459.18,-120.86 462.13,-120.4 465,-120 721.52,-84.7 791.97,-115.69 1053.17,-83.95"/>
<polygon fill="midnightblue" stroke="midnightblue" points="1053.84,-87.39 1063.34,-82.69 1052.98,-80.44 1053.84,-87.39"/>
</g>
<!-- Node9 -->
<g id="node9" class="node">
<title>Node9</title>
<g id="a_node9"><a xlink:title=" ">
<polygon fill="none" stroke="#bfbfbf" points="1178.5,-60.5 1178.5,-83.5 1249.5,-83.5 1249.5,-60.5 1178.5,-60.5"/>
<text text-anchor="middle" x="1214" y="-68.3" font-family="Helvetica,sans-Serif" font-size="14.00">QBuffer</text>
</a>
</g>
</g>
<!-- Node3&#45;&gt;Node9 -->
<g id="edge8" class="edge">
<title>Node3&#45;&gt;Node9</title>
<path fill="none" stroke="midnightblue" d="M456.21,-121.35C459.17,-120.84 462.13,-120.38 465,-120 772.25,-79.28 857.19,-128.32 1168.05,-83.86"/>
<polygon fill="midnightblue" stroke="midnightblue" points="1168.87,-87.28 1178.26,-82.38 1167.86,-80.35 1168.87,-87.28"/>
</g>
<!-- Node10 -->
<g id="node10" class="node">
<title>Node10</title>
<g id="a_node10"><a xlink:title=" ">
<polygon fill="none" stroke="#bfbfbf" points="249.5,-60.5 249.5,-83.5 320.5,-83.5 320.5,-60.5 249.5,-60.5"/>
<text text-anchor="middle" x="285" y="-68.3" font-family="Helvetica,sans-Serif" font-size="14.00">QMutex</text>
</a>
</g>
</g>
<!-- Node3&#45;&gt;Node10 -->
<g id="edge9" class="edge">
<title>Node3&#45;&gt;Node10</title>
<path fill="none" stroke="midnightblue" d="M390.64,-120.5C370.31,-111.36 340.62,-98.01 317.89,-87.79"/>
<polygon fill="midnightblue" stroke="midnightblue" points="319.18,-84.53 308.62,-83.62 316.31,-90.91 319.18,-84.53"/>
</g>
<!-- Node11 -->
<g id="node11" class="node">
<title>Node11</title>
<g id="a_node11"><a xlink:title=" ">
<polygon fill="none" stroke="#bfbfbf" points="339,-60.5 339,-83.5 463,-83.5 463,-60.5 339,-60.5"/>
<text text-anchor="middle" x="401" y="-68.3" font-family="Helvetica,sans-Serif" font-size="14.00">QWaitCondition</text>
</a>
</g>
</g>
<!-- Node3&#45;&gt;Node11 -->
<g id="edge10" class="edge">
<title>Node3&#45;&gt;Node11</title>
<path fill="none" stroke="midnightblue" d="M411.62,-120.36C409.93,-112.84 407.62,-102.52 405.58,-93.43"/>
<polygon fill="midnightblue" stroke="midnightblue" points="408.97,-92.56 403.37,-83.57 402.14,-94.09 408.97,-92.56"/>
</g>
<!-- Node12 -->
<g id="node12" class="node">
<title>Node12</title>
<g id="a_node12"><a xlink:title=" ">
<polygon fill="none" stroke="#bfbfbf" points="481,-60.5 481,-83.5 543,-83.5 543,-60.5 481,-60.5"/>
<text text-anchor="middle" x="512" y="-68.3" font-family="Helvetica,sans-Serif" font-size="14.00">QTime</text>
</a>
</g>
</g>
<!-- Node3&#45;&gt;Node12 -->
<g id="edge11" class="edge">
<title>Node3&#45;&gt;Node12</title>
<path fill="none" stroke="midnightblue" d="M431.97,-120.36C446.89,-111.53 468.33,-98.84 485.27,-88.82"/>
<polygon fill="midnightblue" stroke="midnightblue" points="487.32,-91.68 494.14,-83.57 483.75,-85.65 487.32,-91.68"/>
</g>
<!-- Node13 -->
<g id="node13" class="node">
<title>Node13</title>
<g id="a_node13"><a xlink:href="PosixCompat_8h.html" target="_top" xlink:title=" ">
<polygon fill="none" stroke="black" points="561,-60.5 561,-83.5 681,-83.5 681,-60.5 561,-60.5"/>
<text text-anchor="middle" x="621" y="-68.3" font-family="Helvetica,sans-Serif" font-size="14.00">PosixCompat.h</text>
</a>
</g>
</g>
<!-- Node3&#45;&gt;Node13 -->
<g id="edge12" class="edge">
<title>Node3&#45;&gt;Node13</title>
<path fill="none" stroke="midnightblue" d="M451.49,-120.5C485.67,-110.92 536.35,-96.72 573.38,-86.34"/>
<polygon fill="midnightblue" stroke="midnightblue" points="574.76,-89.59 583.44,-83.52 572.87,-82.85 574.76,-89.59"/>
</g>
<!-- Node3&#45;&gt;Node16 -->
<g id="edge15" class="edge">
<title>Node3&#45;&gt;Node16</title>
<path fill="none" stroke="midnightblue" d="M371.97,-121.55C325.72,-111.15 251.53,-94.48 203.28,-83.63"/>
<polygon fill="midnightblue" stroke="midnightblue" points="203.92,-80.19 193.4,-81.41 202.38,-87.01 203.92,-80.19"/>
</g>
<!-- Node14 -->
<g id="node14" class="node">
<title>Node14</title>
<g id="a_node14"><a xlink:title=" ">
<polygon fill="none" stroke="#bfbfbf" points="371.5,-0.5 371.5,-23.5 448.5,-23.5 448.5,-0.5 371.5,-0.5"/>
<text text-anchor="middle" x="410" y="-8.3" font-family="Helvetica,sans-Serif" font-size="14.00">QtGlobal</text>
</a>
</g>
</g>
<!-- Node13&#45;&gt;Node14 -->
<g id="edge13" class="edge">
<title>Node13&#45;&gt;Node14</title>
<path fill="none" stroke="midnightblue" d="M582.79,-60.5C547.8,-50.88 495.85,-36.6 458.05,-26.21"/>
<polygon fill="midnightblue" stroke="midnightblue" points="458.85,-22.8 448.28,-23.52 457,-29.55 458.85,-22.8"/>
</g>
<!-- Node15 -->
<g id="node15" class="node">
<title>Node15</title>
<g id="a_node15"><a xlink:title=" ">
<polygon fill="none" stroke="#bfbfbf" points="584,-0.5 584,-23.5 658,-23.5 658,-0.5 584,-0.5"/>
<text text-anchor="middle" x="621" y="-8.3" font-family="Helvetica,sans-Serif" font-size="14.00">unistd.h</text>
</a>
</g>
</g>
<!-- Node13&#45;&gt;Node15 -->
<g id="edge14" class="edge">
<title>Node13&#45;&gt;Node15</title>
<path fill="none" stroke="midnightblue" d="M621,-60.36C621,-52.92 621,-42.74 621,-33.73"/>
<polygon fill="midnightblue" stroke="midnightblue" points="624.5,-33.57 621,-23.57 617.5,-33.57 624.5,-33.57"/>
</g>
<!-- Node17 -->
<g id="node17" class="node">
<title>Node17</title>
<g id="a_node17"><a xlink:title=" ">
<polygon fill="none" stroke="#bfbfbf" points="74,-0.5 74,-23.5 148,-23.5 148,-0.5 74,-0.5"/>
<text text-anchor="middle" x="111" y="-8.3" font-family="Helvetica,sans-Serif" font-size="14.00">QDebug</text>
</a>
</g>
</g>
<!-- Node16&#45;&gt;Node17 -->
<g id="edge16" class="edge">
<title>Node16&#45;&gt;Node17</title>
<path fill="none" stroke="midnightblue" d="M147.75,-60.36C141.53,-52.35 132.85,-41.16 125.49,-31.67"/>
<polygon fill="midnightblue" stroke="midnightblue" points="128.1,-29.33 119.2,-23.57 122.57,-33.62 128.1,-29.33"/>
</g>
<!-- Node18 -->
<g id="node18" class="node">
<title>Node18</title>
<g id="a_node18"><a xlink:title=" ">
<polygon fill="none" stroke="#bfbfbf" points="166,-0.5 166,-23.5 236,-23.5 236,-0.5 166,-0.5"/>
<text text-anchor="middle" x="201" y="-8.3" font-family="Helvetica,sans-Serif" font-size="14.00">QString</text>
</a>
</g>
</g>
<!-- Node16&#45;&gt;Node18 -->
<g id="edge17" class="edge">
<title>Node16&#45;&gt;Node18</title>
<path fill="none" stroke="midnightblue" d="M164.25,-60.36C170.47,-52.35 179.15,-41.16 186.51,-31.67"/>
<polygon fill="midnightblue" stroke="midnightblue" points="189.43,-33.62 192.8,-23.57 183.9,-29.33 189.43,-33.62"/>
</g>
<!-- Node20 -->
<g id="node20" class="node">
<title>Node20</title>
<g id="a_node20"><a xlink:title=" ">
<polygon fill="none" stroke="#bfbfbf" points="1572.5,-120.5 1572.5,-143.5 1643.5,-143.5 1643.5,-120.5 1572.5,-120.5"/>
<text text-anchor="middle" x="1608" y="-128.3" font-family="Helvetica,sans-Serif" font-size="14.00">QVector</text>
</a>
</g>
</g>
<!-- Node19&#45;&gt;Node20 -->
<g id="edge19" class="edge">
<title>Node19&#45;&gt;Node20</title>
<path fill="none" stroke="midnightblue" d="M1425.38,-180.5C1464.03,-170.45 1522.24,-155.31 1562.5,-144.83"/>
<polygon fill="midnightblue" stroke="midnightblue" points="1563.53,-148.18 1572.33,-142.28 1561.77,-141.41 1563.53,-148.18"/>
</g>
<!-- Node21 -->
<g id="node21" class="node">
<title>Node21</title>
<g id="a_node21"><a xlink:title=" ">
<polygon fill="none" stroke="#bfbfbf" points="1346.5,-120.5 1346.5,-143.5 1423.5,-143.5 1423.5,-120.5 1346.5,-120.5"/>
<text text-anchor="middle" x="1385" y="-128.3" font-family="Helvetica,sans-Serif" font-size="14.00">QWidget</text>
</a>
</g>
</g>
<!-- Node19&#45;&gt;Node21 -->
<g id="edge20" class="edge">
<title>Node19&#45;&gt;Node21</title>
<path fill="none" stroke="midnightblue" d="M1385,-180.36C1385,-172.92 1385,-162.74 1385,-153.73"/>
<polygon fill="midnightblue" stroke="midnightblue" points="1388.5,-153.57 1385,-143.57 1381.5,-153.57 1388.5,-153.57"/>
</g>
<!-- Node22&#45;&gt;Node3 -->
<g id="edge22" class="edge">
<title>Node22&#45;&gt;Node3</title>
<path fill="none" stroke="midnightblue" d="M679.68,-180.49C624.44,-171.89 544.88,-159.02 466.34,-144.19"/>
<polygon fill="midnightblue" stroke="midnightblue" points="466.75,-140.71 456.27,-142.28 465.44,-147.59 466.75,-140.71"/>
</g>
<!-- Node22&#45;&gt;Node16 -->
<g id="edge32" class="edge">
<title>Node22&#45;&gt;Node16</title>
<path fill="none" stroke="midnightblue" d="M666.81,-186C588.07,-180.03 466.3,-167.73 363,-144 346.32,-140.17 250.58,-106.56 195.33,-86.99"/>
<polygon fill="midnightblue" stroke="midnightblue" points="196.43,-83.67 185.84,-83.62 194.09,-90.26 196.43,-83.67"/>
</g>
<!-- Node23 -->
<g id="node23" class="node">
<title>Node23</title>
<g id="a_node23"><a xlink:title=" ">
<polygon fill="none" stroke="#bfbfbf" points="560,-120.5 560,-143.5 628,-143.5 628,-120.5 560,-120.5"/>
<text text-anchor="middle" x="594" y="-128.3" font-family="Helvetica,sans-Serif" font-size="14.00">QSlider</text>
</a>
</g>
</g>
<!-- Node22&#45;&gt;Node23 -->
<g id="edge23" class="edge">
<title>Node22&#45;&gt;Node23</title>
<path fill="none" stroke="midnightblue" d="M720.93,-180.5C695.99,-171.16 659.33,-157.44 631.81,-147.15"/>
<polygon fill="midnightblue" stroke="midnightblue" points="632.71,-143.75 622.12,-143.52 630.26,-150.31 632.71,-143.75"/>
</g>
<!-- Node24 -->
<g id="node24" class="node">
<title>Node24</title>
<g id="a_node24"><a xlink:title=" ">
<polygon fill="none" stroke="#bfbfbf" points="646,-120.5 646,-143.5 750,-143.5 750,-120.5 646,-120.5"/>
<text text-anchor="middle" x="698" y="-128.3" font-family="Helvetica,sans-Serif" font-size="14.00">QGridLayout</text>
</a>
</g>
</g>
<!-- Node22&#45;&gt;Node24 -->
<g id="edge24" class="edge">
<title>Node22&#45;&gt;Node24</title>
<path fill="none" stroke="midnightblue" d="M739.65,-180.36C732.46,-172.19 722.36,-160.7 713.91,-151.09"/>
<polygon fill="midnightblue" stroke="midnightblue" points="716.53,-148.77 707.29,-143.57 711.27,-153.39 716.53,-148.77"/>
</g>
<!-- Node25 -->
<g id="node25" class="node">
<title>Node25</title>
<g id="a_node25"><a xlink:title=" ">
<polygon fill="none" stroke="#bfbfbf" points="768.5,-120.5 768.5,-143.5 833.5,-143.5 833.5,-120.5 768.5,-120.5"/>
<text text-anchor="middle" x="801" y="-128.3" font-family="Helvetica,sans-Serif" font-size="14.00">QLabel</text>
</a>
</g>
</g>
<!-- Node22&#45;&gt;Node25 -->
<g id="edge25" class="edge">
<title>Node22&#45;&gt;Node25</title>
<path fill="none" stroke="midnightblue" d="M758.54,-180.36C765.87,-172.19 776.16,-160.7 784.78,-151.09"/>
<polygon fill="midnightblue" stroke="midnightblue" points="787.45,-153.35 791.52,-143.57 782.24,-148.68 787.45,-153.35"/>
</g>
<!-- Node26 -->
<g id="node26" class="node">
<title>Node26</title>
<g id="a_node26"><a xlink:title=" ">
<polygon fill="none" stroke="#bfbfbf" points="851.5,-120.5 851.5,-143.5 974.5,-143.5 974.5,-120.5 851.5,-120.5"/>
<text text-anchor="middle" x="913" y="-128.3" font-family="Helvetica,sans-Serif" font-size="14.00">QSignalMapper</text>
</a>
</g>
</g>
<!-- Node22&#45;&gt;Node26 -->
<g id="edge26" class="edge">
<title>Node22&#45;&gt;Node26</title>
<path fill="none" stroke="midnightblue" d="M778.7,-180.5C805.32,-171.08 844.56,-157.2 873.76,-146.88"/>
<polygon fill="midnightblue" stroke="midnightblue" points="874.98,-150.16 883.25,-143.52 872.65,-143.56 874.98,-150.16"/>
</g>
<!-- Node27 -->
<g id="node27" class="node">
<title>Node27</title>
<g id="a_node27"><a xlink:title=" ">
<polygon fill="none" stroke="#bfbfbf" points="993,-120.5 993,-143.5 1087,-143.5 1087,-120.5 993,-120.5"/>
<text text-anchor="middle" x="1040" y="-128.3" font-family="Helvetica,sans-Serif" font-size="14.00">QFileDialog</text>
</a>
</g>
</g>
<!-- Node22&#45;&gt;Node27 -->
<g id="edge27" class="edge">
<title>Node22&#45;&gt;Node27</title>
<path fill="none" stroke="midnightblue" d="M801.7,-180.5C852.94,-170.28 930.53,-154.82 983.14,-144.33"/>
<polygon fill="midnightblue" stroke="midnightblue" points="983.86,-147.76 992.98,-142.37 982.49,-140.89 983.86,-147.76"/>
</g>
<!-- Node28 -->
<g id="node28" class="node">
<title>Node28</title>
<g id="a_node28"><a xlink:title=" ">
<polygon fill="none" stroke="#bfbfbf" points="1105,-120.5 1105,-143.5 1213,-143.5 1213,-120.5 1105,-120.5"/>
<text text-anchor="middle" x="1159" y="-128.3" font-family="Helvetica,sans-Serif" font-size="14.00">QPushButton</text>
</a>
</g>
</g>
<!-- Node22&#45;&gt;Node28 -->
<g id="edge28" class="edge">
<title>Node22&#45;&gt;Node28</title>
<path fill="none" stroke="midnightblue" d="M831.16,-180.77C899.21,-172.09 998.71,-158.92 1094.84,-144.14"/>
<polygon fill="midnightblue" stroke="midnightblue" points="1095.38,-147.6 1104.73,-142.61 1094.31,-140.68 1095.38,-147.6"/>
</g>
<!-- Node29 -->
<g id="node29" class="node">
<title>Node29</title>
<g id="a_node29"><a xlink:title=" ">
<polygon fill="none" stroke="#bfbfbf" points="1231.5,-120.5 1231.5,-143.5 1328.5,-143.5 1328.5,-120.5 1231.5,-120.5"/>
<text text-anchor="middle" x="1280" y="-128.3" font-family="Helvetica,sans-Serif" font-size="14.00">QCheckBox</text>
</a>
</g>
</g>
<!-- Node22&#45;&gt;Node29 -->
<g id="edge29" class="edge">
<title>Node22&#45;&gt;Node29</title>
<path fill="none" stroke="midnightblue" d="M831.3,-185.04C923.66,-177.85 1078.15,-164.33 1221.05,-144.03"/>
<polygon fill="midnightblue" stroke="midnightblue" points="1221.92,-147.44 1231.32,-142.56 1220.92,-140.51 1221.92,-147.44"/>
</g>
<!-- Node30 -->
<g id="node30" class="node">
<title>Node30</title>
<g id="a_node30"><a xlink:title=" ">
<polygon fill="none" stroke="#bfbfbf" points="1442,-120.5 1442,-143.5 1554,-143.5 1554,-120.5 1442,-120.5"/>
<text text-anchor="middle" x="1498" y="-128.3" font-family="Helvetica,sans-Serif" font-size="14.00">QLCDNumber</text>
</a>
</g>
</g>
<!-- Node22&#45;&gt;Node30 -->
<g id="edge30" class="edge">
<title>Node22&#45;&gt;Node30</title>
<path fill="none" stroke="midnightblue" d="M831.11,-187.99C957.81,-182.76 1208.8,-170.08 1431.43,-144.09"/>
<polygon fill="midnightblue" stroke="midnightblue" points="1432.16,-147.53 1441.68,-142.88 1431.34,-140.58 1432.16,-147.53"/>
</g>
<!-- Node31 -->
<g id="node31" class="node">
<title>Node31</title>
<g id="a_node31"><a xlink:title=" ">
<polygon fill="none" stroke="#bfbfbf" points="474,-120.5 474,-143.5 542,-143.5 542,-120.5 474,-120.5"/>
<text text-anchor="middle" x="508" y="-128.3" font-family="Helvetica,sans-Serif" font-size="14.00">QTimer</text>
</a>
</g>
</g>
<!-- Node22&#45;&gt;Node31 -->
<g id="edge31" class="edge">
<title>Node22&#45;&gt;Node31</title>
<path fill="none" stroke="midnightblue" d="M703.73,-180.49C665.76,-171.62 609.84,-158.44 552.26,-144.29"/>
<polygon fill="midnightblue" stroke="midnightblue" points="552.8,-140.81 542.25,-141.82 551.13,-147.61 552.8,-140.81"/>
</g>
<!-- Node32&#45;&gt;Node3 -->
<g id="edge37" class="edge">
<title>Node32&#45;&gt;Node3</title>
<path fill="none" stroke="midnightblue" d="M335.61,-180.36C350.22,-171.53 371.22,-158.84 387.81,-148.82"/>
<polygon fill="midnightblue" stroke="midnightblue" points="389.75,-151.74 396.5,-143.57 386.13,-145.75 389.75,-151.74"/>
</g>
<!-- Node32&#45;&gt;Node14 -->
<g id="edge35" class="edge">
<title>Node32&#45;&gt;Node14</title>
<path fill="none" stroke="midnightblue" d="M315.23,-180.49C310.98,-165.81 301.76,-138.85 287,-120 270.78,-99.28 251.65,-107.59 240,-84 235.28,-74.44 233.54,-68.49 240,-60 254.71,-40.67 316.47,-27.25 361.32,-19.84"/>
<polygon fill="midnightblue" stroke="midnightblue" points="362.14,-23.25 371.46,-18.21 361.04,-16.34 362.14,-23.25"/>
</g>
<!-- Node32&#45;&gt;Node16 -->
<g id="edge38" class="edge">
<title>Node32&#45;&gt;Node16</title>
<path fill="none" stroke="midnightblue" d="M273.97,-180.42C250.42,-173.12 222.03,-161.5 201,-144 184.43,-130.22 172.01,-108.71 164.46,-92.98"/>
<polygon fill="midnightblue" stroke="midnightblue" points="167.53,-91.27 160.2,-83.62 161.15,-94.17 167.53,-91.27"/>
</g>
<!-- Node32&#45;&gt;Node21 -->
<g id="edge36" class="edge">
<title>Node32&#45;&gt;Node21</title>
<path fill="none" stroke="midnightblue" d="M373.05,-189.04C565.6,-182.1 1203.89,-158.43 1336.09,-143.75"/>
<polygon fill="midnightblue" stroke="midnightblue" points="1336.84,-147.18 1346.34,-142.49 1335.98,-140.23 1336.84,-147.18"/>
</g>
<!-- Node33 -->
<g id="node33" class="node">
<title>Node33</title>
<g id="a_node33"><a xlink:title=" ">
<polygon fill="none" stroke="#bfbfbf" points="210,-120.5 210,-143.5 278,-143.5 278,-120.5 210,-120.5"/>
<text text-anchor="middle" x="244" y="-128.3" font-family="Helvetica,sans-Serif" font-size="14.00">QMovie</text>
</a>
</g>
</g>
<!-- Node32&#45;&gt;Node33 -->
<g id="edge34" class="edge">
<title>Node32&#45;&gt;Node33</title>
<path fill="none" stroke="midnightblue" d="M304.43,-180.36C293.58,-171.86 278.17,-159.78 265.62,-149.95"/>
<polygon fill="midnightblue" stroke="midnightblue" points="267.52,-146.98 257.49,-143.57 263.2,-152.49 267.52,-146.98"/>
</g>
</g>
</svg>
