<?xml version="1.0" encoding="UTF-8" standalone="no"?>
<!DOCTYPE svg PUBLIC "-//W3C//DTD SVG 1.1//EN"
 "http://www.w3.org/Graphics/SVG/1.1/DTD/svg11.dtd">
<!-- Generated by graphviz version 2.50.0 (0)
 -->
<!-- Title: CameraRaspi.cpp Pages: 1 -->
<svg width="1247pt" height="272pt"
 viewBox="0.00 0.00 1246.50 272.00" xmlns="http://www.w3.org/2000/svg" xmlns:xlink="http://www.w3.org/1999/xlink">
<style><![CDATA[
text { fill: #e6e6e6 !important; }
polygon { fill: #2f2f2f !important; stroke: #9aa0a6 !important; }
path, line, polyline { stroke: #4e67d6 !important; }
]]></style>
<style><![CDATA[
text { fill: #e6e6e6 !important; }
polygon { fill: #2f2f2f !important; stroke: #9aa0a6 !important; }
path, line, polyline { stroke: #4e67d6 !important; }
]]></style>
<style><![CDATA[
text { fill: #e6e6e6 !important; }
polygon { fill: #2f2f2f !important; stroke: #9aa0a6 !important; }
path, line, polyline { stroke: #4e67d6 !important; }
]]></style>
<style><![CDATA[
text { fill: #e6e6e6 !important; }
polygon { fill: #2f2f2f !important; stroke: #9aa0a6 !important; }
path, line, polyline { stroke: #4e67d6 !important; }
]]></style>
<style><![CDATA[
text { fill: #e6e6e6 !important; }
polygon { fill: #2f2f2f !important; stroke: #9aa0a6 !important; }
path, line, polyline { stroke: #4e67d6 !important; }
]]></style>
<style><![CDATA[
text { fill: #e6e6e6 !important; }
polygon { fill: #2f2f2f !important; stroke: #9aa0a6 !important; }
path, line, polyline { stroke: #4e67d6 !important; }
]]></style>
<style><![CDATA[
text { fill: #e6e6e6 !important; }
polygon { fill: #2f2f2f !important; stroke: #9aa0a6 !important; }
path, line, polyline { stroke: #4e67d6 !important; }
]]></style>
<g id="graph0" class="graph" transform="scale(1 1) rotate(0) translate(4 268)">
<title>CameraRaspi.cpp</title>
<!-- Node1 -->
<g id="node1" class="node">
<title>Node1</title>
<g id="a_node1"><a xlink:title="Camera backend for Raspi.">
<polygon fill="#bfbfbf" stroke="black" points="561.5,-240.5 561.5,-263.5 700.5,-263.5 700.5,-240.5 561.5,-240.5"/>
<text text-anchor="middle" x="631" y="-248.3" font-family="Helvetica,sans-Serif" font-size="14.00">CameraRaspi.cpp</text>
</a>
</g>
</g>
<!-- Node2 -->
<g id="node2" class="node">
<title>Node2</title>
<g id="a_node2"><a xlink:href="CameraRaspi_8h.html" target="_top" xlink:title="Camera backend for Raspi.">
<polygon fill="none" stroke="black" points="498,-180.5 498,-203.5 620,-203.5 620,-180.5 498,-180.5"/>
<text text-anchor="middle" x="559" y="-188.3" font-family="Helvetica,sans-Serif" font-size="14.00">CameraRaspi.h</text>
</a>
</g>
</g>
<!-- Node1&#45;&gt;Node2 -->
<g id="edge1" class="edge">
<title>Node1&#45;&gt;Node2</title>
<path fill="none" stroke="midnightblue" d="M617.79,-240.36C607.24,-231.86 592.24,-219.78 580.04,-209.95"/>
<polygon fill="midnightblue" stroke="midnightblue" points="582.11,-207.12 572.12,-203.57 577.71,-212.57 582.11,-207.12"/>
</g>
<!-- Node20 -->
<g id="node20" class="node">
<title>Node20</title>
<g id="a_node20"><a xlink:href="Utils_8h.html" target="_top" xlink:title="Utility helpers.">
<polygon fill="none" stroke="black" points="952.5,-180.5 952.5,-203.5 1013.5,-203.5 1013.5,-180.5 952.5,-180.5"/>
<text text-anchor="middle" x="983" y="-188.3" font-family="Helvetica,sans-Serif" font-size="14.00">Utils.h</text>
</a>
</g>
</g>
<!-- Node1&#45;&gt;Node20 -->
<g id="edge19" class="edge">
<title>Node1&#45;&gt;Node20</title>
<path fill="none" stroke="midnightblue" d="M694.74,-240.5C766.66,-228.65 881.5,-209.72 942.24,-199.72"/>
<polygon fill="midnightblue" stroke="midnightblue" points="942.93,-203.15 952.22,-198.07 941.79,-196.24 942.93,-203.15"/>
</g>
<!-- Node3 -->
<g id="node3" class="node">
<title>Node3</title>
<g id="a_node3"><a xlink:title=" ">
<polygon fill="none" stroke="#bfbfbf" points="405,-120.5 405,-143.5 499,-143.5 499,-120.5 405,-120.5"/>
<text text-anchor="middle" x="452" y="-128.3" font-family="Helvetica,sans-Serif" font-size="14.00">raspicam.h</text>
</a>
</g>
</g>
<!-- Node2&#45;&gt;Node3 -->
<g id="edge2" class="edge">
<title>Node2&#45;&gt;Node3</title>
<path fill="none" stroke="midnightblue" d="M539.37,-180.36C522.86,-171.41 499.03,-158.49 480.42,-148.41"/>
<polygon fill="midnightblue" stroke="midnightblue" points="481.96,-145.26 471.5,-143.57 478.62,-151.41 481.96,-145.26"/>
</g>
<!-- Node4 -->
<g id="node4" class="node">
<title>Node4</title>
<g id="a_node4"><a xlink:href="Camera_8h.html" target="_top" xlink:title="Camera backend for .">
<polygon fill="none" stroke="black" points="517,-120.5 517,-143.5 601,-143.5 601,-120.5 517,-120.5"/>
<text text-anchor="middle" x="559" y="-128.3" font-family="Helvetica,sans-Serif" font-size="14.00">Camera.h</text>
</a>
</g>
</g>
<!-- Node2&#45;&gt;Node4 -->
<g id="edge3" class="edge">
<title>Node2&#45;&gt;Node4</title>
<path fill="none" stroke="midnightblue" d="M559,-180.36C559,-172.92 559,-162.74 559,-153.73"/>
<polygon fill="midnightblue" stroke="midnightblue" points="562.5,-153.57 559,-143.57 555.5,-153.57 562.5,-153.57"/>
</g>
<!-- Node5 -->
<g id="node5" class="node">
<title>Node5</title>
<g id="a_node5"><a xlink:title=" ">
<polygon fill="none" stroke="#bfbfbf" points="0,-60.5 0,-83.5 66,-83.5 66,-60.5 0,-60.5"/>
<text text-anchor="middle" x="33" y="-68.3" font-family="Helvetica,sans-Serif" font-size="14.00">math.h</text>
</a>
</g>
</g>
<!-- Node4&#45;&gt;Node5 -->
<g id="edge4" class="edge">
<title>Node4&#45;&gt;Node5</title>
<path fill="none" stroke="midnightblue" d="M516.78,-121.45C513.81,-120.92 510.87,-120.43 508,-120 320.26,-92.07 267.15,-115.75 76.43,-84"/>
<polygon fill="midnightblue" stroke="midnightblue" points="76.8,-80.51 66.36,-82.29 75.63,-87.41 76.8,-80.51"/>
</g>
<!-- Node6 -->
<g id="node6" class="node">
<title>Node6</title>
<g id="a_node6"><a xlink:title=" ">
<polygon fill="none" stroke="#bfbfbf" points="84,-60.5 84,-83.5 160,-83.5 160,-60.5 84,-60.5"/>
<text text-anchor="middle" x="122" y="-68.3" font-family="Helvetica,sans-Serif" font-size="14.00">QThread</text>
</a>
</g>
</g>
<!-- Node4&#45;&gt;Node6 -->
<g id="edge5" class="edge">
<title>Node4&#45;&gt;Node6</title>
<path fill="none" stroke="midnightblue" d="M516.76,-121.53C513.81,-120.98 510.86,-120.46 508,-120 361.61,-96.51 320.15,-108.76 170.18,-84.03"/>
<polygon fill="midnightblue" stroke="midnightblue" points="170.58,-80.55 160.14,-82.34 169.42,-87.45 170.58,-80.55"/>
</g>
<!-- Node7 -->
<g id="node7" class="node">
<title>Node7</title>
<g id="a_node7"><a xlink:title=" ">
<polygon fill="none" stroke="#bfbfbf" points="178.5,-60.5 178.5,-83.5 257.5,-83.5 257.5,-60.5 178.5,-60.5"/>
<text text-anchor="middle" x="218" y="-68.3" font-family="Helvetica,sans-Serif" font-size="14.00">QPixmap</text>
</a>
</g>
</g>
<!-- Node4&#45;&gt;Node7 -->
<g id="edge6" class="edge">
<title>Node4&#45;&gt;Node7</title>
<path fill="none" stroke="midnightblue" d="M516.74,-121.66C513.79,-121.08 510.85,-120.52 508,-120 404.15,-101.1 374.57,-103.97 267.42,-84.16"/>
<polygon fill="midnightblue" stroke="midnightblue" points="267.97,-80.71 257.5,-82.31 266.69,-87.59 267.97,-80.71"/>
</g>
<!-- Node8 -->
<g id="node8" class="node">
<title>Node8</title>
<g id="a_node8"><a xlink:title=" ">
<polygon fill="none" stroke="#bfbfbf" points="275.5,-60.5 275.5,-83.5 346.5,-83.5 346.5,-60.5 275.5,-60.5"/>
<text text-anchor="middle" x="311" y="-68.3" font-family="Helvetica,sans-Serif" font-size="14.00">QImage</text>
</a>
</g>
</g>
<!-- Node4&#45;&gt;Node8 -->
<g id="edge7" class="edge">
<title>Node4&#45;&gt;Node8</title>
<path fill="none" stroke="midnightblue" d="M516.75,-121.51C477.55,-112.64 417.34,-98.9 356.32,-84.29"/>
<polygon fill="midnightblue" stroke="midnightblue" points="357.07,-80.87 346.53,-81.94 355.44,-87.68 357.07,-80.87"/>
</g>
<!-- Node9 -->
<g id="node9" class="node">
<title>Node9</title>
<g id="a_node9"><a xlink:title=" ">
<polygon fill="none" stroke="#bfbfbf" points="364.5,-60.5 364.5,-83.5 461.5,-83.5 461.5,-60.5 364.5,-60.5"/>
<text text-anchor="middle" x="413" y="-68.3" font-family="Helvetica,sans-Serif" font-size="14.00">QByteArray</text>
</a>
</g>
</g>
<!-- Node4&#45;&gt;Node9 -->
<g id="edge8" class="edge">
<title>Node4&#45;&gt;Node9</title>
<path fill="none" stroke="midnightblue" d="M532.56,-120.5C509.24,-111.23 475.05,-97.65 449.2,-87.38"/>
<polygon fill="midnightblue" stroke="midnightblue" points="450.32,-84.06 439.74,-83.62 447.74,-90.57 450.32,-84.06"/>
</g>
<!-- Node10 -->
<g id="node10" class="node">
<title>Node10</title>
<g id="a_node10"><a xlink:title=" ">
<polygon fill="none" stroke="#bfbfbf" points="479.5,-60.5 479.5,-83.5 550.5,-83.5 550.5,-60.5 479.5,-60.5"/>
<text text-anchor="middle" x="515" y="-68.3" font-family="Helvetica,sans-Serif" font-size="14.00">QBuffer</text>
</a>
</g>
</g>
<!-- Node4&#45;&gt;Node10 -->
<g id="edge9" class="edge">
<title>Node4&#45;&gt;Node10</title>
<path fill="none" stroke="midnightblue" d="M550.93,-120.36C544.85,-112.35 536.36,-101.16 529.16,-91.67"/>
<polygon fill="midnightblue" stroke="midnightblue" points="531.85,-89.42 523.02,-83.57 526.27,-93.65 531.85,-89.42"/>
</g>
<!-- Node11 -->
<g id="node11" class="node">
<title>Node11</title>
<g id="a_node11"><a xlink:title=" ">
<polygon fill="none" stroke="#bfbfbf" points="568.5,-60.5 568.5,-83.5 639.5,-83.5 639.5,-60.5 568.5,-60.5"/>
<text text-anchor="middle" x="604" y="-68.3" font-family="Helvetica,sans-Serif" font-size="14.00">QMutex</text>
</a>
</g>
</g>
<!-- Node4&#45;&gt;Node11 -->
<g id="edge10" class="edge">
<title>Node4&#45;&gt;Node11</title>
<path fill="none" stroke="midnightblue" d="M567.25,-120.36C573.47,-112.35 582.15,-101.16 589.51,-91.67"/>
<polygon fill="midnightblue" stroke="midnightblue" points="592.43,-93.62 595.8,-83.57 586.9,-89.33 592.43,-93.62"/>
</g>
<!-- Node12 -->
<g id="node12" class="node">
<title>Node12</title>
<g id="a_node12"><a xlink:title=" ">
<polygon fill="none" stroke="#bfbfbf" points="658,-60.5 658,-83.5 782,-83.5 782,-60.5 658,-60.5"/>
<text text-anchor="middle" x="720" y="-68.3" font-family="Helvetica,sans-Serif" font-size="14.00">QWaitCondition</text>
</a>
</g>
</g>
<!-- Node4&#45;&gt;Node12 -->
<g id="edge11" class="edge">
<title>Node4&#45;&gt;Node12</title>
<path fill="none" stroke="midnightblue" d="M588.16,-120.5C614.18,-111.12 652.48,-97.32 681.1,-87.01"/>
<polygon fill="midnightblue" stroke="midnightblue" points="682.57,-90.21 690.79,-83.52 680.2,-83.62 682.57,-90.21"/>
</g>
<!-- Node13 -->
<g id="node13" class="node">
<title>Node13</title>
<g id="a_node13"><a xlink:title=" ">
<polygon fill="none" stroke="#bfbfbf" points="800,-60.5 800,-83.5 862,-83.5 862,-60.5 800,-60.5"/>
<text text-anchor="middle" x="831" y="-68.3" font-family="Helvetica,sans-Serif" font-size="14.00">QTime</text>
</a>
</g>
</g>
<!-- Node4&#45;&gt;Node13 -->
<g id="edge12" class="edge">
<title>Node4&#45;&gt;Node13</title>
<path fill="none" stroke="midnightblue" d="M601.1,-123.37C645.64,-115.1 718.16,-101.06 789.55,-84.24"/>
<polygon fill="midnightblue" stroke="midnightblue" points="790.69,-87.57 799.61,-81.85 789.07,-80.76 790.69,-87.57"/>
</g>
<!-- Node14 -->
<g id="node14" class="node">
<title>Node14</title>
<g id="a_node14"><a xlink:href="PosixCompat_8h.html" target="_top" xlink:title=" ">
<polygon fill="none" stroke="black" points="880,-60.5 880,-83.5 1000,-83.5 1000,-60.5 880,-60.5"/>
<text text-anchor="middle" x="940" y="-68.3" font-family="Helvetica,sans-Serif" font-size="14.00">PosixCompat.h</text>
</a>
</g>
</g>
<!-- Node4&#45;&gt;Node14 -->
<g id="edge13" class="edge">
<title>Node4&#45;&gt;Node14</title>
<path fill="none" stroke="midnightblue" d="M601.16,-124.77C659.25,-116.15 767.48,-100.01 869.9,-84.16"/>
<polygon fill="midnightblue" stroke="midnightblue" points="870.45,-87.62 879.79,-82.63 869.38,-80.7 870.45,-87.62"/>
</g>
<!-- Node17 -->
<g id="node17" class="node">
<title>Node17</title>
<g id="a_node17"><a xlink:href="QsLog_8h.html" target="_top" xlink:title="Qs Log logging support.">
<polygon fill="none" stroke="black" points="1018,-60.5 1018,-83.5 1092,-83.5 1092,-60.5 1018,-60.5"/>
<text text-anchor="middle" x="1055" y="-68.3" font-family="Helvetica,sans-Serif" font-size="14.00">QsLog.h</text>
</a>
</g>
</g>
<!-- Node4&#45;&gt;Node17 -->
<g id="edge16" class="edge">
<title>Node4&#45;&gt;Node17</title>
<path fill="none" stroke="midnightblue" d="M601.13,-128.44C679.36,-123.3 852.5,-110.04 1007.73,-84.04"/>
<polygon fill="midnightblue" stroke="midnightblue" points="1008.66,-87.43 1017.93,-82.3 1007.48,-80.53 1008.66,-87.43"/>
</g>
<!-- Node15 -->
<g id="node15" class="node">
<title>Node15</title>
<g id="a_node15"><a xlink:title=" ">
<polygon fill="none" stroke="#bfbfbf" points="813.5,-0.5 813.5,-23.5 890.5,-23.5 890.5,-0.5 813.5,-0.5"/>
<text text-anchor="middle" x="852" y="-8.3" font-family="Helvetica,sans-Serif" font-size="14.00">QtGlobal</text>
</a>
</g>
</g>
<!-- Node14&#45;&gt;Node15 -->
<g id="edge14" class="edge">
<title>Node14&#45;&gt;Node15</title>
<path fill="none" stroke="midnightblue" d="M923.86,-60.36C910.59,-51.61 891.57,-39.08 876.43,-29.1"/>
<polygon fill="midnightblue" stroke="midnightblue" points="878.31,-26.15 868.04,-23.57 874.46,-32 878.31,-26.15"/>
</g>
<!-- Node16 -->
<g id="node16" class="node">
<title>Node16</title>
<g id="a_node16"><a xlink:title=" ">
<polygon fill="none" stroke="#bfbfbf" points="909,-0.5 909,-23.5 983,-23.5 983,-0.5 909,-0.5"/>
<text text-anchor="middle" x="946" y="-8.3" font-family="Helvetica,sans-Serif" font-size="14.00">unistd.h</text>
</a>
</g>
</g>
<!-- Node14&#45;&gt;Node16 -->
<g id="edge15" class="edge">
<title>Node14&#45;&gt;Node16</title>
<path fill="none" stroke="midnightblue" d="M941.1,-60.36C941.87,-52.92 942.92,-42.74 943.86,-33.73"/>
<polygon fill="midnightblue" stroke="midnightblue" points="947.36,-33.88 944.91,-23.57 940.4,-33.16 947.36,-33.88"/>
</g>
<!-- Node18 -->
<g id="node18" class="node">
<title>Node18</title>
<g id="a_node18"><a xlink:title=" ">
<polygon fill="none" stroke="#bfbfbf" points="1012,-0.5 1012,-23.5 1086,-23.5 1086,-0.5 1012,-0.5"/>
<text text-anchor="middle" x="1049" y="-8.3" font-family="Helvetica,sans-Serif" font-size="14.00">QDebug</text>
</a>
</g>
</g>
<!-- Node17&#45;&gt;Node18 -->
<g id="edge17" class="edge">
<title>Node17&#45;&gt;Node18</title>
<path fill="none" stroke="midnightblue" d="M1053.9,-60.36C1053.13,-52.92 1052.08,-42.74 1051.14,-33.73"/>
<polygon fill="midnightblue" stroke="midnightblue" points="1054.6,-33.16 1050.09,-23.57 1047.64,-33.88 1054.6,-33.16"/>
</g>
<!-- Node19 -->
<g id="node19" class="node">
<title>Node19</title>
<g id="a_node19"><a xlink:title=" ">
<polygon fill="none" stroke="#bfbfbf" points="1104,-0.5 1104,-23.5 1174,-23.5 1174,-0.5 1104,-0.5"/>
<text text-anchor="middle" x="1139" y="-8.3" font-family="Helvetica,sans-Serif" font-size="14.00">QString</text>
</a>
</g>
</g>
<!-- Node17&#45;&gt;Node19 -->
<g id="edge18" class="edge">
<title>Node17&#45;&gt;Node19</title>
<path fill="none" stroke="midnightblue" d="M1070.41,-60.36C1082.96,-51.7 1100.89,-39.31 1115.27,-29.38"/>
<polygon fill="midnightblue" stroke="midnightblue" points="1117.45,-32.13 1123.69,-23.57 1113.47,-26.37 1117.45,-32.13"/>
</g>
<!-- Node20&#45;&gt;Node17 -->
<g id="edge24" class="edge">
<title>Node20&#45;&gt;Node17</title>
<path fill="none" stroke="midnightblue" d="M952.19,-182.97C915.11,-171.79 860.45,-149.53 883,-120 886.91,-114.88 958.51,-96.53 1008.09,-84.33"/>
<polygon fill="midnightblue" stroke="midnightblue" points="1009.11,-87.69 1017.99,-81.91 1007.45,-80.89 1009.11,-87.69"/>
</g>
<!-- Node21 -->
<g id="node21" class="node">
<title>Node21</title>
<g id="a_node21"><a xlink:title=" ">
<polygon fill="none" stroke="#bfbfbf" points="892,-120.5 892,-143.5 986,-143.5 986,-120.5 892,-120.5"/>
<text text-anchor="middle" x="939" y="-128.3" font-family="Helvetica,sans-Serif" font-size="14.00">QDateTime</text>
</a>
</g>
</g>
<!-- Node20&#45;&gt;Node21 -->
<g id="edge20" class="edge">
<title>Node20&#45;&gt;Node21</title>
<path fill="none" stroke="midnightblue" d="M974.93,-180.36C968.85,-172.35 960.36,-161.16 953.16,-151.67"/>
<polygon fill="midnightblue" stroke="midnightblue" points="955.85,-149.42 947.02,-143.57 950.27,-153.65 955.85,-149.42"/>
</g>
<!-- Node22 -->
<g id="node22" class="node">
<title>Node22</title>
<g id="a_node22"><a xlink:title=" ">
<polygon fill="none" stroke="#bfbfbf" points="1004,-120.5 1004,-143.5 1052,-143.5 1052,-120.5 1004,-120.5"/>
<text text-anchor="middle" x="1028" y="-128.3" font-family="Helvetica,sans-Serif" font-size="14.00">QDir</text>
</a>
</g>
</g>
<!-- Node20&#45;&gt;Node22 -->
<g id="edge21" class="edge">
<title>Node20&#45;&gt;Node22</title>
<path fill="none" stroke="midnightblue" d="M991.25,-180.36C997.47,-172.35 1006.15,-161.16 1013.51,-151.67"/>
<polygon fill="midnightblue" stroke="midnightblue" points="1016.43,-153.62 1019.8,-143.57 1010.9,-149.33 1016.43,-153.62"/>
</g>
<!-- Node23 -->
<g id="node23" class="node">
<title>Node23</title>
<g id="a_node23"><a xlink:title=" ">
<polygon fill="none" stroke="#bfbfbf" points="1070.5,-120.5 1070.5,-143.5 1165.5,-143.5 1165.5,-120.5 1070.5,-120.5"/>
<text text-anchor="middle" x="1118" y="-128.3" font-family="Helvetica,sans-Serif" font-size="14.00">QTableView</text>
</a>
</g>
</g>
<!-- Node20&#45;&gt;Node23 -->
<g id="edge22" class="edge">
<title>Node20&#45;&gt;Node23</title>
<path fill="none" stroke="midnightblue" d="M1007.45,-180.5C1028.82,-171.32 1060.07,-157.89 1083.9,-147.65"/>
<polygon fill="midnightblue" stroke="midnightblue" points="1085.47,-150.78 1093.28,-143.62 1082.71,-144.35 1085.47,-150.78"/>
</g>
<!-- Node24 -->
<g id="node24" class="node">
<title>Node24</title>
<g id="a_node24"><a xlink:title=" ">
<polygon fill="none" stroke="#bfbfbf" points="1183.5,-120.5 1183.5,-143.5 1238.5,-143.5 1238.5,-120.5 1183.5,-120.5"/>
<text text-anchor="middle" x="1211" y="-128.3" font-family="Helvetica,sans-Serif" font-size="14.00">QtSql</text>
</a>
</g>
</g>
<!-- Node20&#45;&gt;Node24 -->
<g id="edge23" class="edge">
<title>Node20&#45;&gt;Node24</title>
<path fill="none" stroke="midnightblue" d="M1013.73,-184.04C1049.83,-175.75 1111.72,-161.14 1173.27,-144.39"/>
<polygon fill="midnightblue" stroke="midnightblue" points="1174.42,-147.7 1183.14,-141.68 1172.57,-140.95 1174.42,-147.7"/>
</g>
</g>
</svg>
