<?xml version="1.0" encoding="UTF-8" standalone="no"?>
<!DOCTYPE svg PUBLIC "-//W3C//DTD SVG 1.1//EN"
 "http://www.w3.org/Graphics/SVG/1.1/DTD/svg11.dtd">
<!-- Generated by graphviz version 2.50.0 (0)
 -->
<!-- Title: ComediCounter.cpp Pages: 1 -->
<svg width="557pt" height="272pt"
 viewBox="0.00 0.00 557.00 272.00" xmlns="http://www.w3.org/2000/svg" xmlns:xlink="http://www.w3.org/1999/xlink">
<style><![CDATA[
text { fill: #e6e6e6 !important; }
polygon { fill: #2f2f2f !important; stroke: #9aa0a6 !important; }
path, line, polyline { stroke: #4e67d6 !important; }
]]></style>
<style><![CDATA[
text { fill: #e6e6e6 !important; }
polygon { fill: #2f2f2f !important; stroke: #9aa0a6 !important; }
path, line, polyline { stroke: #4e67d6 !important; }
]]></style>
<style><![CDATA[
text { fill: #e6e6e6 !important; }
polygon { fill: #2f2f2f !important; stroke: #9aa0a6 !important; }
path, line, polyline { stroke: #4e67d6 !important; }
]]></style>
<style><![CDATA[
text { fill: #e6e6e6 !important; }
polygon { fill: #2f2f2f !important; stroke: #9aa0a6 !important; }
path, line, polyline { stroke: #4e67d6 !important; }
]]></style>
<style><![CDATA[
text { fill: #e6e6e6 !important; }
polygon { fill: #2f2f2f !important; stroke: #9aa0a6 !important; }
path, line, polyline { stroke: #4e67d6 !important; }
]]></style>
<style><![CDATA[
text { fill: #e6e6e6 !important; }
polygon { fill: #2f2f2f !important; stroke: #9aa0a6 !important; }
path, line, polyline { stroke: #4e67d6 !important; }
]]></style>
<style><![CDATA[
text { fill: #e6e6e6 !important; }
polygon { fill: #2f2f2f !important; stroke: #9aa0a6 !important; }
path, line, polyline { stroke: #4e67d6 !important; }
]]></style>
<g id="graph0" class="graph" transform="scale(1 1) rotate(0) translate(4 268)">
<title>ComediCounter.cpp</title>
<!-- Node1 -->
<g id="node1" class="node">
<title>Node1</title>
<g id="a_node1"><a xlink:title="Comedi Counter source file.">
<polygon fill="#bfbfbf" stroke="black" points="253,-240.5 253,-263.5 406,-263.5 406,-240.5 253,-240.5"/>
<text text-anchor="middle" x="329.5" y="-248.3" font-family="Helvetica,sans-Serif" font-size="14.00">ComediCounter.cpp</text>
</a>
</g>
</g>
<!-- Node2 -->
<g id="node2" class="node">
<title>Node2</title>
<g id="a_node2"><a xlink:href="ComediCounter_8h.html" target="_top" xlink:title="Comedi Counter source file.">
<polygon fill="none" stroke="black" points="164,-180.5 164,-203.5 301,-203.5 301,-180.5 164,-180.5"/>
<text text-anchor="middle" x="232.5" y="-188.3" font-family="Helvetica,sans-Serif" font-size="14.00">ComediCounter.h</text>
</a>
</g>
</g>
<!-- Node1&#45;&gt;Node2 -->
<g id="edge1" class="edge">
<title>Node1&#45;&gt;Node2</title>
<path fill="none" stroke="midnightblue" d="M311.71,-240.36C296.94,-231.53 275.72,-218.84 258.96,-208.82"/>
<polygon fill="midnightblue" stroke="midnightblue" points="260.56,-205.7 250.18,-203.57 256.97,-211.71 260.56,-205.7"/>
</g>
<!-- Node10 -->
<g id="node10" class="node">
<title>Node10</title>
<g id="a_node10"><a xlink:href="Utils_8h.html" target="_top" xlink:title="Utility helpers.">
<polygon fill="none" stroke="black" points="299,-120.5 299,-143.5 360,-143.5 360,-120.5 299,-120.5"/>
<text text-anchor="middle" x="329.5" y="-128.3" font-family="Helvetica,sans-Serif" font-size="14.00">Utils.h</text>
</a>
</g>
</g>
<!-- Node1&#45;&gt;Node10 -->
<g id="edge15" class="edge">
<title>Node1&#45;&gt;Node10</title>
<path fill="none" stroke="midnightblue" d="M329.5,-240.11C329.5,-220.52 329.5,-179.02 329.5,-153.82"/>
<polygon fill="midnightblue" stroke="midnightblue" points="333,-153.52 329.5,-143.52 326,-153.52 333,-153.52"/>
</g>
<!-- Node14 -->
<g id="node14" class="node">
<title>Node14</title>
<g id="a_node14"><a xlink:href="PosixCompat_8h.html" target="_top" xlink:title=" ">
<polygon fill="none" stroke="black" points="357.5,-180.5 357.5,-203.5 477.5,-203.5 477.5,-180.5 357.5,-180.5"/>
<text text-anchor="middle" x="417.5" y="-188.3" font-family="Helvetica,sans-Serif" font-size="14.00">PosixCompat.h</text>
</a>
</g>
</g>
<!-- Node1&#45;&gt;Node14 -->
<g id="edge16" class="edge">
<title>Node1&#45;&gt;Node14</title>
<path fill="none" stroke="midnightblue" d="M345.64,-240.36C358.91,-231.61 377.93,-219.08 393.07,-209.1"/>
<polygon fill="midnightblue" stroke="midnightblue" points="395.04,-212 401.46,-203.57 391.19,-206.15 395.04,-212"/>
</g>
<!-- Node3 -->
<g id="node3" class="node">
<title>Node3</title>
<g id="a_node3"><a xlink:title=" ">
<polygon fill="none" stroke="#bfbfbf" points="184,-120.5 184,-143.5 281,-143.5 281,-120.5 184,-120.5"/>
<text text-anchor="middle" x="232.5" y="-128.3" font-family="Helvetica,sans-Serif" font-size="14.00">comedilib.h</text>
</a>
</g>
</g>
<!-- Node2&#45;&gt;Node3 -->
<g id="edge2" class="edge">
<title>Node2&#45;&gt;Node3</title>
<path fill="none" stroke="midnightblue" d="M232.5,-180.36C232.5,-172.92 232.5,-162.74 232.5,-153.73"/>
<polygon fill="midnightblue" stroke="midnightblue" points="236,-153.57 232.5,-143.57 229,-153.57 236,-153.57"/>
</g>
<!-- Node4 -->
<g id="node4" class="node">
<title>Node4</title>
<g id="a_node4"><a xlink:href="Comedi_8h.html" target="_top" xlink:title="Comedi device interface.">
<polygon fill="none" stroke="black" points="83,-120.5 83,-143.5 166,-143.5 166,-120.5 83,-120.5"/>
<text text-anchor="middle" x="124.5" y="-128.3" font-family="Helvetica,sans-Serif" font-size="14.00">Comedi.h</text>
</a>
</g>
</g>
<!-- Node2&#45;&gt;Node4 -->
<g id="edge3" class="edge">
<title>Node2&#45;&gt;Node4</title>
<path fill="none" stroke="midnightblue" d="M212.94,-180.5C196.3,-171.56 172.17,-158.6 153.32,-148.48"/>
<polygon fill="midnightblue" stroke="midnightblue" points="154.74,-145.27 144.28,-143.62 151.43,-151.44 154.74,-145.27"/>
</g>
<!-- Node2&#45;&gt;Node10 -->
<g id="edge9" class="edge">
<title>Node2&#45;&gt;Node10</title>
<path fill="none" stroke="midnightblue" d="M250.29,-180.36C265.06,-171.53 286.28,-158.84 303.04,-148.82"/>
<polygon fill="midnightblue" stroke="midnightblue" points="305.03,-151.71 311.82,-143.57 301.44,-145.7 305.03,-151.71"/>
</g>
<!-- Node5 -->
<g id="node5" class="node">
<title>Node5</title>
<g id="a_node5"><a xlink:title=" ">
<polygon fill="none" stroke="#bfbfbf" points="107,-60.5 107,-83.5 162,-83.5 162,-60.5 107,-60.5"/>
<text text-anchor="middle" x="134.5" y="-68.3" font-family="Helvetica,sans-Serif" font-size="14.00">QtSql</text>
</a>
</g>
</g>
<!-- Node4&#45;&gt;Node5 -->
<g id="edge4" class="edge">
<title>Node4&#45;&gt;Node5</title>
<path fill="none" stroke="midnightblue" d="M126.33,-120.36C127.63,-112.84 129.41,-102.52 130.98,-93.43"/>
<polygon fill="midnightblue" stroke="midnightblue" points="134.43,-94.02 132.68,-83.57 127.53,-92.83 134.43,-94.02"/>
</g>
<!-- Node6 -->
<g id="node6" class="node">
<title>Node6</title>
<g id="a_node6"><a xlink:title=" ">
<polygon fill="none" stroke="#bfbfbf" points="0,-60.5 0,-83.5 89,-83.5 89,-60.5 0,-60.5"/>
<text text-anchor="middle" x="44.5" y="-68.3" font-family="Helvetica,sans-Serif" font-size="14.00">QtWidgets</text>
</a>
</g>
</g>
<!-- Node4&#45;&gt;Node6 -->
<g id="edge5" class="edge">
<title>Node4&#45;&gt;Node6</title>
<path fill="none" stroke="midnightblue" d="M109.83,-120.36C97.99,-111.78 81.11,-99.55 67.48,-89.66"/>
<polygon fill="midnightblue" stroke="midnightblue" points="69.23,-86.61 59.08,-83.57 65.12,-92.27 69.23,-86.61"/>
</g>
<!-- Node7 -->
<g id="node7" class="node">
<title>Node7</title>
<g id="a_node7"><a xlink:href="QsLog_8h.html" target="_top" xlink:title="Qs Log logging support.">
<polygon fill="none" stroke="black" points="180.5,-60.5 180.5,-83.5 254.5,-83.5 254.5,-60.5 180.5,-60.5"/>
<text text-anchor="middle" x="217.5" y="-68.3" font-family="Helvetica,sans-Serif" font-size="14.00">QsLog.h</text>
</a>
</g>
</g>
<!-- Node4&#45;&gt;Node7 -->
<g id="edge6" class="edge">
<title>Node4&#45;&gt;Node7</title>
<path fill="none" stroke="midnightblue" d="M141.56,-120.36C155.58,-111.61 175.68,-99.08 191.68,-89.1"/>
<polygon fill="midnightblue" stroke="midnightblue" points="193.92,-91.83 200.55,-83.57 190.21,-85.89 193.92,-91.83"/>
</g>
<!-- Node8 -->
<g id="node8" class="node">
<title>Node8</title>
<g id="a_node8"><a xlink:title=" ">
<polygon fill="none" stroke="#bfbfbf" points="135.5,-0.5 135.5,-23.5 209.5,-23.5 209.5,-0.5 135.5,-0.5"/>
<text text-anchor="middle" x="172.5" y="-8.3" font-family="Helvetica,sans-Serif" font-size="14.00">QDebug</text>
</a>
</g>
</g>
<!-- Node7&#45;&gt;Node8 -->
<g id="edge7" class="edge">
<title>Node7&#45;&gt;Node8</title>
<path fill="none" stroke="midnightblue" d="M209.25,-60.36C203.03,-52.35 194.35,-41.16 186.99,-31.67"/>
<polygon fill="midnightblue" stroke="midnightblue" points="189.6,-29.33 180.7,-23.57 184.07,-33.62 189.6,-29.33"/>
</g>
<!-- Node9 -->
<g id="node9" class="node">
<title>Node9</title>
<g id="a_node9"><a xlink:title=" ">
<polygon fill="none" stroke="#bfbfbf" points="227.5,-0.5 227.5,-23.5 297.5,-23.5 297.5,-0.5 227.5,-0.5"/>
<text text-anchor="middle" x="262.5" y="-8.3" font-family="Helvetica,sans-Serif" font-size="14.00">QString</text>
</a>
</g>
</g>
<!-- Node7&#45;&gt;Node9 -->
<g id="edge8" class="edge">
<title>Node7&#45;&gt;Node9</title>
<path fill="none" stroke="midnightblue" d="M225.75,-60.36C231.97,-52.35 240.65,-41.16 248.01,-31.67"/>
<polygon fill="midnightblue" stroke="midnightblue" points="250.93,-33.62 254.3,-23.57 245.4,-29.33 250.93,-33.62"/>
</g>
<!-- Node10&#45;&gt;Node5 -->
<g id="edge13" class="edge">
<title>Node10&#45;&gt;Node5</title>
<path fill="none" stroke="midnightblue" d="M298.6,-121.81C264.24,-111.59 208.75,-95.09 171.95,-84.14"/>
<polygon fill="midnightblue" stroke="midnightblue" points="172.68,-80.71 162.1,-81.21 170.69,-87.42 172.68,-80.71"/>
</g>
<!-- Node10&#45;&gt;Node7 -->
<g id="edge14" class="edge">
<title>Node10&#45;&gt;Node7</title>
<path fill="none" stroke="midnightblue" d="M309.22,-120.5C291.88,-111.52 266.71,-98.48 247.12,-88.34"/>
<polygon fill="midnightblue" stroke="midnightblue" points="248.5,-85.11 238.01,-83.62 245.28,-91.33 248.5,-85.11"/>
</g>
<!-- Node11 -->
<g id="node11" class="node">
<title>Node11</title>
<g id="a_node11"><a xlink:title=" ">
<polygon fill="none" stroke="#bfbfbf" points="272.5,-60.5 272.5,-83.5 366.5,-83.5 366.5,-60.5 272.5,-60.5"/>
<text text-anchor="middle" x="319.5" y="-68.3" font-family="Helvetica,sans-Serif" font-size="14.00">QDateTime</text>
</a>
</g>
</g>
<!-- Node10&#45;&gt;Node11 -->
<g id="edge10" class="edge">
<title>Node10&#45;&gt;Node11</title>
<path fill="none" stroke="midnightblue" d="M327.67,-120.36C326.37,-112.84 324.59,-102.52 323.02,-93.43"/>
<polygon fill="midnightblue" stroke="midnightblue" points="326.47,-92.83 321.32,-83.57 319.57,-94.02 326.47,-92.83"/>
</g>
<!-- Node12 -->
<g id="node12" class="node">
<title>Node12</title>
<g id="a_node12"><a xlink:title=" ">
<polygon fill="none" stroke="#bfbfbf" points="384.5,-60.5 384.5,-83.5 432.5,-83.5 432.5,-60.5 384.5,-60.5"/>
<text text-anchor="middle" x="408.5" y="-68.3" font-family="Helvetica,sans-Serif" font-size="14.00">QDir</text>
</a>
</g>
</g>
<!-- Node10&#45;&gt;Node12 -->
<g id="edge11" class="edge">
<title>Node10&#45;&gt;Node12</title>
<path fill="none" stroke="midnightblue" d="M343.99,-120.36C355.68,-111.78 372.34,-99.55 385.8,-89.66"/>
<polygon fill="midnightblue" stroke="midnightblue" points="388.11,-92.31 394.1,-83.57 383.97,-86.67 388.11,-92.31"/>
</g>
<!-- Node13 -->
<g id="node13" class="node">
<title>Node13</title>
<g id="a_node13"><a xlink:title=" ">
<polygon fill="none" stroke="#bfbfbf" points="451,-60.5 451,-83.5 546,-83.5 546,-60.5 451,-60.5"/>
<text text-anchor="middle" x="498.5" y="-68.3" font-family="Helvetica,sans-Serif" font-size="14.00">QTableView</text>
</a>
</g>
</g>
<!-- Node10&#45;&gt;Node13 -->
<g id="edge12" class="edge">
<title>Node10&#45;&gt;Node13</title>
<path fill="none" stroke="midnightblue" d="M360.1,-120.5C387.54,-111.08 427.98,-97.2 458.06,-86.88"/>
<polygon fill="midnightblue" stroke="midnightblue" points="459.52,-90.08 467.84,-83.52 457.24,-83.46 459.52,-90.08"/>
</g>
<!-- Node15 -->
<g id="node15" class="node">
<title>Node15</title>
<g id="a_node15"><a xlink:title=" ">
<polygon fill="none" stroke="#bfbfbf" points="472,-120.5 472,-143.5 549,-143.5 549,-120.5 472,-120.5"/>
<text text-anchor="middle" x="510.5" y="-128.3" font-family="Helvetica,sans-Serif" font-size="14.00">QtGlobal</text>
</a>
</g>
</g>
<!-- Node14&#45;&gt;Node15 -->
<g id="edge17" class="edge">
<title>Node14&#45;&gt;Node15</title>
<path fill="none" stroke="midnightblue" d="M434.56,-180.36C448.58,-171.61 468.68,-159.08 484.68,-149.1"/>
<polygon fill="midnightblue" stroke="midnightblue" points="486.92,-151.83 493.55,-143.57 483.21,-145.89 486.92,-151.83"/>
</g>
<!-- Node16 -->
<g id="node16" class="node">
<title>Node16</title>
<g id="a_node16"><a xlink:title=" ">
<polygon fill="none" stroke="#bfbfbf" points="379.5,-120.5 379.5,-143.5 453.5,-143.5 453.5,-120.5 379.5,-120.5"/>
<text text-anchor="middle" x="416.5" y="-128.3" font-family="Helvetica,sans-Serif" font-size="14.00">unistd.h</text>
</a>
</g>
</g>
<!-- Node14&#45;&gt;Node16 -->
<g id="edge18" class="edge">
<title>Node14&#45;&gt;Node16</title>
<path fill="none" stroke="midnightblue" d="M417.32,-180.36C417.19,-172.92 417.01,-162.74 416.86,-153.73"/>
<polygon fill="midnightblue" stroke="midnightblue" points="420.35,-153.51 416.68,-143.57 413.36,-153.63 420.35,-153.51"/>
</g>
</g>
</svg>
