<?xml version="1.0" encoding="UTF-8" standalone="no"?>
<!DOCTYPE svg PUBLIC "-//W3C//DTD SVG 1.1//EN"
 "http://www.w3.org/Graphics/SVG/1.1/DTD/svg11.dtd">
<!-- Generated by graphviz version 2.50.0 (0)
 -->
<!-- Title: ComediDac.cpp Pages: 1 -->
<svg width="631pt" height="272pt"
 viewBox="0.00 0.00 631.00 272.00" xmlns="http://www.w3.org/2000/svg" xmlns:xlink="http://www.w3.org/1999/xlink">
<style><![CDATA[
text { fill: #e6e6e6 !important; }
polygon { fill: #2f2f2f !important; stroke: #9aa0a6 !important; }
path, line, polyline { stroke: #4e67d6 !important; }
]]></style>
<style><![CDATA[
text { fill: #e6e6e6 !important; }
polygon { fill: #2f2f2f !important; stroke: #9aa0a6 !important; }
path, line, polyline { stroke: #4e67d6 !important; }
]]></style>
<style><![CDATA[
text { fill: #e6e6e6 !important; }
polygon { fill: #2f2f2f !important; stroke: #9aa0a6 !important; }
path, line, polyline { stroke: #4e67d6 !important; }
]]></style>
<style><![CDATA[
text { fill: #e6e6e6 !important; }
polygon { fill: #2f2f2f !important; stroke: #9aa0a6 !important; }
path, line, polyline { stroke: #4e67d6 !important; }
]]></style>
<style><![CDATA[
text { fill: #e6e6e6 !important; }
polygon { fill: #2f2f2f !important; stroke: #9aa0a6 !important; }
path, line, polyline { stroke: #4e67d6 !important; }
]]></style>
<style><![CDATA[
text { fill: #e6e6e6 !important; }
polygon { fill: #2f2f2f !important; stroke: #9aa0a6 !important; }
path, line, polyline { stroke: #4e67d6 !important; }
]]></style>
<style><![CDATA[
text { fill: #e6e6e6 !important; }
polygon { fill: #2f2f2f !important; stroke: #9aa0a6 !important; }
path, line, polyline { stroke: #4e67d6 !important; }
]]></style>
<g id="graph0" class="graph" transform="scale(1 1) rotate(0) translate(4 268)">
<title>ComediDac.cpp</title>
<!-- Node1 -->
<g id="node1" class="node">
<title>Node1</title>
<g id="a_node1"><a xlink:title="Comedi Dac source file.">
<polygon fill="#bfbfbf" stroke="black" points="299,-240.5 299,-263.5 424,-263.5 424,-240.5 299,-240.5"/>
<text text-anchor="middle" x="361.5" y="-248.3" font-family="Helvetica,sans-Serif" font-size="14.00">ComediDac.cpp</text>
</a>
</g>
</g>
<!-- Node2 -->
<g id="node2" class="node">
<title>Node2</title>
<g id="a_node2"><a xlink:href="ComediDac_8h.html" target="_top" xlink:title="Comedi Dac source file.">
<polygon fill="none" stroke="black" points="179,-180.5 179,-203.5 288,-203.5 288,-180.5 179,-180.5"/>
<text text-anchor="middle" x="233.5" y="-188.3" font-family="Helvetica,sans-Serif" font-size="14.00">ComediDac.h</text>
</a>
</g>
</g>
<!-- Node1&#45;&gt;Node2 -->
<g id="edge1" class="edge">
<title>Node1&#45;&gt;Node2</title>
<path fill="none" stroke="midnightblue" d="M338.32,-240.5C318.15,-231.36 288.69,-218.01 266.14,-207.79"/>
<polygon fill="midnightblue" stroke="midnightblue" points="267.49,-204.56 256.94,-203.62 264.6,-210.94 267.49,-204.56"/>
</g>
<!-- Node10 -->
<g id="node10" class="node">
<title>Node10</title>
<g id="a_node10"><a xlink:href="Utils_8h.html" target="_top" xlink:title="Utility helpers.">
<polygon fill="none" stroke="black" points="332,-120.5 332,-143.5 393,-143.5 393,-120.5 332,-120.5"/>
<text text-anchor="middle" x="362.5" y="-128.3" font-family="Helvetica,sans-Serif" font-size="14.00">Utils.h</text>
</a>
</g>
</g>
<!-- Node1&#45;&gt;Node10 -->
<g id="edge18" class="edge">
<title>Node1&#45;&gt;Node10</title>
<path fill="none" stroke="midnightblue" d="M361.59,-240.11C361.76,-220.52 362.11,-179.02 362.32,-153.82"/>
<polygon fill="midnightblue" stroke="midnightblue" points="365.83,-153.55 362.41,-143.52 358.83,-153.49 365.83,-153.55"/>
</g>
<!-- Node14 -->
<g id="node14" class="node">
<title>Node14</title>
<g id="a_node14"><a xlink:href="PosixCompat_8h.html" target="_top" xlink:title=" ">
<polygon fill="none" stroke="black" points="389.5,-180.5 389.5,-203.5 509.5,-203.5 509.5,-180.5 389.5,-180.5"/>
<text text-anchor="middle" x="449.5" y="-188.3" font-family="Helvetica,sans-Serif" font-size="14.00">PosixCompat.h</text>
</a>
</g>
</g>
<!-- Node1&#45;&gt;Node14 -->
<g id="edge19" class="edge">
<title>Node1&#45;&gt;Node14</title>
<path fill="none" stroke="midnightblue" d="M377.64,-240.36C390.91,-231.61 409.93,-219.08 425.07,-209.1"/>
<polygon fill="midnightblue" stroke="midnightblue" points="427.04,-212 433.46,-203.57 423.19,-206.15 427.04,-212"/>
</g>
<!-- Node3 -->
<g id="node3" class="node">
<title>Node3</title>
<g id="a_node3"><a xlink:title=" ">
<polygon fill="none" stroke="#bfbfbf" points="0,-120.5 0,-143.5 97,-143.5 97,-120.5 0,-120.5"/>
<text text-anchor="middle" x="48.5" y="-128.3" font-family="Helvetica,sans-Serif" font-size="14.00">comedilib.h</text>
</a>
</g>
</g>
<!-- Node2&#45;&gt;Node3 -->
<g id="edge2" class="edge">
<title>Node2&#45;&gt;Node3</title>
<path fill="none" stroke="midnightblue" d="M200,-180.5C169.71,-171 124.93,-156.96 91.91,-146.61"/>
<polygon fill="midnightblue" stroke="midnightblue" points="92.65,-143.17 82.06,-143.52 90.56,-149.85 92.65,-143.17"/>
</g>
<!-- Node4 -->
<g id="node4" class="node">
<title>Node4</title>
<g id="a_node4"><a xlink:href="Comedi_8h.html" target="_top" xlink:title="Comedi device interface.">
<polygon fill="none" stroke="black" points="192,-120.5 192,-143.5 275,-143.5 275,-120.5 192,-120.5"/>
<text text-anchor="middle" x="233.5" y="-128.3" font-family="Helvetica,sans-Serif" font-size="14.00">Comedi.h</text>
</a>
</g>
</g>
<!-- Node2&#45;&gt;Node4 -->
<g id="edge3" class="edge">
<title>Node2&#45;&gt;Node4</title>
<path fill="none" stroke="midnightblue" d="M233.5,-180.36C233.5,-172.92 233.5,-162.74 233.5,-153.73"/>
<polygon fill="midnightblue" stroke="midnightblue" points="237,-153.57 233.5,-143.57 230,-153.57 237,-153.57"/>
</g>
<!-- Node5 -->
<g id="node5" class="node">
<title>Node5</title>
<g id="a_node5"><a xlink:title=" ">
<polygon fill="none" stroke="#bfbfbf" points="276,-60.5 276,-83.5 331,-83.5 331,-60.5 276,-60.5"/>
<text text-anchor="middle" x="303.5" y="-68.3" font-family="Helvetica,sans-Serif" font-size="14.00">QtSql</text>
</a>
</g>
</g>
<!-- Node2&#45;&gt;Node5 -->
<g id="edge9" class="edge">
<title>Node2&#45;&gt;Node5</title>
<path fill="none" stroke="midnightblue" d="M248.73,-180.3C259.89,-171.7 274.6,-158.67 283.5,-144 292.82,-128.65 297.93,-108.81 300.65,-94"/>
<polygon fill="midnightblue" stroke="midnightblue" points="304.15,-94.25 302.29,-83.82 297.24,-93.14 304.15,-94.25"/>
</g>
<!-- Node6 -->
<g id="node6" class="node">
<title>Node6</title>
<g id="a_node6"><a xlink:title=" ">
<polygon fill="none" stroke="#bfbfbf" points="76,-60.5 76,-83.5 165,-83.5 165,-60.5 76,-60.5"/>
<text text-anchor="middle" x="120.5" y="-68.3" font-family="Helvetica,sans-Serif" font-size="14.00">QtWidgets</text>
</a>
</g>
</g>
<!-- Node2&#45;&gt;Node6 -->
<g id="edge10" class="edge">
<title>Node2&#45;&gt;Node6</title>
<path fill="none" stroke="midnightblue" d="M218.71,-180.21C206.75,-171.16 189.78,-157.57 176.5,-144 160.5,-127.65 144.56,-106.9 133.81,-92.06"/>
<polygon fill="midnightblue" stroke="midnightblue" points="136.48,-89.79 127.83,-83.68 130.79,-93.85 136.48,-89.79"/>
</g>
<!-- Node7 -->
<g id="node7" class="node">
<title>Node7</title>
<g id="a_node7"><a xlink:href="QsLog_8h.html" target="_top" xlink:title="Qs Log logging support.">
<polygon fill="none" stroke="black" points="183.5,-60.5 183.5,-83.5 257.5,-83.5 257.5,-60.5 183.5,-60.5"/>
<text text-anchor="middle" x="220.5" y="-68.3" font-family="Helvetica,sans-Serif" font-size="14.00">QsLog.h</text>
</a>
</g>
</g>
<!-- Node2&#45;&gt;Node7 -->
<g id="edge11" class="edge">
<title>Node2&#45;&gt;Node7</title>
<path fill="none" stroke="midnightblue" d="M216,-180.48C204.09,-172.23 189.32,-159.55 182.5,-144 174.31,-125.31 187.81,-104.85 200.93,-90.72"/>
<polygon fill="midnightblue" stroke="midnightblue" points="203.48,-93.12 208.04,-83.56 198.51,-88.19 203.48,-93.12"/>
</g>
<!-- Node2&#45;&gt;Node10 -->
<g id="edge12" class="edge">
<title>Node2&#45;&gt;Node10</title>
<path fill="none" stroke="midnightblue" d="M256.86,-180.5C277.19,-171.36 306.88,-158.01 329.61,-147.79"/>
<polygon fill="midnightblue" stroke="midnightblue" points="331.19,-150.91 338.88,-143.62 328.32,-144.53 331.19,-150.91"/>
</g>
<!-- Node4&#45;&gt;Node5 -->
<g id="edge4" class="edge">
<title>Node4&#45;&gt;Node5</title>
<path fill="none" stroke="midnightblue" d="M246.34,-120.36C256.5,-111.94 270.9,-100.01 282.7,-90.23"/>
<polygon fill="midnightblue" stroke="midnightblue" points="285.28,-92.65 290.74,-83.57 280.81,-87.26 285.28,-92.65"/>
</g>
<!-- Node4&#45;&gt;Node6 -->
<g id="edge5" class="edge">
<title>Node4&#45;&gt;Node6</title>
<path fill="none" stroke="midnightblue" d="M213.04,-120.5C195.47,-111.48 169.92,-98.36 150.11,-88.2"/>
<polygon fill="midnightblue" stroke="midnightblue" points="151.69,-85.07 141.19,-83.62 148.49,-91.3 151.69,-85.07"/>
</g>
<!-- Node4&#45;&gt;Node7 -->
<g id="edge6" class="edge">
<title>Node4&#45;&gt;Node7</title>
<path fill="none" stroke="midnightblue" d="M231.12,-120.36C229.43,-112.84 227.12,-102.52 225.08,-93.43"/>
<polygon fill="midnightblue" stroke="midnightblue" points="228.47,-92.56 222.87,-83.57 221.64,-94.09 228.47,-92.56"/>
</g>
<!-- Node8 -->
<g id="node8" class="node">
<title>Node8</title>
<g id="a_node8"><a xlink:title=" ">
<polygon fill="none" stroke="#bfbfbf" points="138.5,-0.5 138.5,-23.5 212.5,-23.5 212.5,-0.5 138.5,-0.5"/>
<text text-anchor="middle" x="175.5" y="-8.3" font-family="Helvetica,sans-Serif" font-size="14.00">QDebug</text>
</a>
</g>
</g>
<!-- Node7&#45;&gt;Node8 -->
<g id="edge7" class="edge">
<title>Node7&#45;&gt;Node8</title>
<path fill="none" stroke="midnightblue" d="M212.25,-60.36C206.03,-52.35 197.35,-41.16 189.99,-31.67"/>
<polygon fill="midnightblue" stroke="midnightblue" points="192.6,-29.33 183.7,-23.57 187.07,-33.62 192.6,-29.33"/>
</g>
<!-- Node9 -->
<g id="node9" class="node">
<title>Node9</title>
<g id="a_node9"><a xlink:title=" ">
<polygon fill="none" stroke="#bfbfbf" points="230.5,-0.5 230.5,-23.5 300.5,-23.5 300.5,-0.5 230.5,-0.5"/>
<text text-anchor="middle" x="265.5" y="-8.3" font-family="Helvetica,sans-Serif" font-size="14.00">QString</text>
</a>
</g>
</g>
<!-- Node7&#45;&gt;Node9 -->
<g id="edge8" class="edge">
<title>Node7&#45;&gt;Node9</title>
<path fill="none" stroke="midnightblue" d="M228.75,-60.36C234.97,-52.35 243.65,-41.16 251.01,-31.67"/>
<polygon fill="midnightblue" stroke="midnightblue" points="253.93,-33.62 257.3,-23.57 248.4,-29.33 253.93,-33.62"/>
</g>
<!-- Node10&#45;&gt;Node5 -->
<g id="edge16" class="edge">
<title>Node10&#45;&gt;Node5</title>
<path fill="none" stroke="midnightblue" d="M351.68,-120.36C343.28,-112.1 331.45,-100.47 321.61,-90.8"/>
<polygon fill="midnightblue" stroke="midnightblue" points="323.84,-88.09 314.25,-83.57 318.93,-93.08 323.84,-88.09"/>
</g>
<!-- Node10&#45;&gt;Node7 -->
<g id="edge17" class="edge">
<title>Node10&#45;&gt;Node7</title>
<path fill="none" stroke="midnightblue" d="M336.78,-120.5C314.21,-111.27 281.14,-97.77 256.04,-87.52"/>
<polygon fill="midnightblue" stroke="midnightblue" points="257.08,-84.16 246.5,-83.62 254.44,-90.64 257.08,-84.16"/>
</g>
<!-- Node11 -->
<g id="node11" class="node">
<title>Node11</title>
<g id="a_node11"><a xlink:title=" ">
<polygon fill="none" stroke="#bfbfbf" points="349.5,-60.5 349.5,-83.5 443.5,-83.5 443.5,-60.5 349.5,-60.5"/>
<text text-anchor="middle" x="396.5" y="-68.3" font-family="Helvetica,sans-Serif" font-size="14.00">QDateTime</text>
</a>
</g>
</g>
<!-- Node10&#45;&gt;Node11 -->
<g id="edge13" class="edge">
<title>Node10&#45;&gt;Node11</title>
<path fill="none" stroke="midnightblue" d="M368.74,-120.36C373.34,-112.51 379.73,-101.62 385.21,-92.25"/>
<polygon fill="midnightblue" stroke="midnightblue" points="388.27,-93.97 390.3,-83.57 382.23,-90.43 388.27,-93.97"/>
</g>
<!-- Node12 -->
<g id="node12" class="node">
<title>Node12</title>
<g id="a_node12"><a xlink:title=" ">
<polygon fill="none" stroke="#bfbfbf" points="461.5,-60.5 461.5,-83.5 509.5,-83.5 509.5,-60.5 461.5,-60.5"/>
<text text-anchor="middle" x="485.5" y="-68.3" font-family="Helvetica,sans-Serif" font-size="14.00">QDir</text>
</a>
</g>
</g>
<!-- Node10&#45;&gt;Node12 -->
<g id="edge14" class="edge">
<title>Node10&#45;&gt;Node12</title>
<path fill="none" stroke="midnightblue" d="M384.77,-120.5C404.07,-111.4 432.21,-98.13 453.85,-87.93"/>
<polygon fill="midnightblue" stroke="midnightblue" points="455.42,-91.05 462.98,-83.62 452.44,-84.72 455.42,-91.05"/>
</g>
<!-- Node13 -->
<g id="node13" class="node">
<title>Node13</title>
<g id="a_node13"><a xlink:title=" ">
<polygon fill="none" stroke="#bfbfbf" points="528,-60.5 528,-83.5 623,-83.5 623,-60.5 528,-60.5"/>
<text text-anchor="middle" x="575.5" y="-68.3" font-family="Helvetica,sans-Serif" font-size="14.00">QTableView</text>
</a>
</g>
</g>
<!-- Node10&#45;&gt;Node13 -->
<g id="edge15" class="edge">
<title>Node10&#45;&gt;Node13</title>
<path fill="none" stroke="midnightblue" d="M393.15,-122.32C395.97,-121.53 398.79,-120.75 401.5,-120 443.5,-108.4 491.3,-95.52 526.15,-86.17"/>
<polygon fill="midnightblue" stroke="midnightblue" points="527.32,-89.48 536.08,-83.52 525.51,-82.72 527.32,-89.48"/>
</g>
<!-- Node15 -->
<g id="node15" class="node">
<title>Node15</title>
<g id="a_node15"><a xlink:title=" ">
<polygon fill="none" stroke="#bfbfbf" points="411,-120.5 411,-143.5 488,-143.5 488,-120.5 411,-120.5"/>
<text text-anchor="middle" x="449.5" y="-128.3" font-family="Helvetica,sans-Serif" font-size="14.00">QtGlobal</text>
</a>
</g>
</g>
<!-- Node14&#45;&gt;Node15 -->
<g id="edge20" class="edge">
<title>Node14&#45;&gt;Node15</title>
<path fill="none" stroke="midnightblue" d="M449.5,-180.36C449.5,-172.92 449.5,-162.74 449.5,-153.73"/>
<polygon fill="midnightblue" stroke="midnightblue" points="453,-153.57 449.5,-143.57 446,-153.57 453,-153.57"/>
</g>
<!-- Node16 -->
<g id="node16" class="node">
<title>Node16</title>
<g id="a_node16"><a xlink:title=" ">
<polygon fill="none" stroke="#bfbfbf" points="506.5,-120.5 506.5,-143.5 580.5,-143.5 580.5,-120.5 506.5,-120.5"/>
<text text-anchor="middle" x="543.5" y="-128.3" font-family="Helvetica,sans-Serif" font-size="14.00">unistd.h</text>
</a>
</g>
</g>
<!-- Node14&#45;&gt;Node16 -->
<g id="edge21" class="edge">
<title>Node14&#45;&gt;Node16</title>
<path fill="none" stroke="midnightblue" d="M466.74,-180.36C481.05,-171.53 501.61,-158.84 517.86,-148.82"/>
<polygon fill="midnightblue" stroke="midnightblue" points="519.7,-151.8 526.37,-143.57 516.02,-145.84 519.7,-151.8"/>
</g>
</g>
</svg>
