<?xml version="1.0" encoding="UTF-8" standalone="no"?>
<!DOCTYPE svg PUBLIC "-//W3C//DTD SVG 1.1//EN"
 "http://www.w3.org/Graphics/SVG/1.1/DTD/svg11.dtd">
<!-- Generated by graphviz version 2.50.0 (0)
 -->
<!-- Title: Comedi.h Pages: 1 -->
<!--zoomable 332 -->
<svg id="main" version="1.1" xmlns="http://www.w3.org/2000/svg" xmlns:xlink="http://www.w3.org/1999/xlink" xml:space="preserve" onload="init(evt)">
<style><![CDATA[
text { fill: #e6e6e6 !important; }
polygon { fill: #2f2f2f !important; stroke: #9aa0a6 !important; }
path, line, polyline { stroke: #4e67d6 !important; }
]]></style>
<style><![CDATA[
text { fill: #e6e6e6 !important; }
polygon { fill: #2f2f2f !important; stroke: #9aa0a6 !important; }
path, line, polyline { stroke: #4e67d6 !important; }
]]></style>
<style><![CDATA[
text { fill: #e6e6e6 !important; }
polygon { fill: #2f2f2f !important; stroke: #9aa0a6 !important; }
path, line, polyline { stroke: #4e67d6 !important; }
]]></style>
<style><![CDATA[
text { fill: #e6e6e6 !important; }
polygon { fill: #2f2f2f !important; stroke: #9aa0a6 !important; }
path, line, polyline { stroke: #4e67d6 !important; }
]]></style>
<style><![CDATA[
text { fill: #e6e6e6 !important; }
polygon { fill: #2f2f2f !important; stroke: #9aa0a6 !important; }
path, line, polyline { stroke: #4e67d6 !important; }
]]></style>
<style><![CDATA[
text { fill: #e6e6e6 !important; }
polygon { fill: #2f2f2f !important; stroke: #9aa0a6 !important; }
path, line, polyline { stroke: #4e67d6 !important; }
]]></style>
<style><![CDATA[
text { fill: #e6e6e6 !important; }
polygon { fill: #2f2f2f !important; stroke: #9aa0a6 !important; }
path, line, polyline { stroke: #4e67d6 !important; }
]]></style>
<style><![CDATA[
text { fill: #e6e6e6 !important; }
polygon { fill: #2f2f2f !important; stroke: #9aa0a6 !important; }
path, line, polyline { stroke: #4e67d6 !important; }
]]></style>
<style><![CDATA[
text { fill: #e6e6e6 !important; }
polygon { fill: #2f2f2f !important; stroke: #9aa0a6 !important; }
path, line, polyline { stroke: #4e67d6 !important; }
]]></style>
<style><![CDATA[
text { fill: #e6e6e6 !important; }
polygon { fill: #2f2f2f !important; stroke: #9aa0a6 !important; }
path, line, polyline { stroke: #4e67d6 !important; }
]]></style>
<style><![CDATA[
text { fill: #e6e6e6 !important; }
polygon { fill: #2f2f2f !important; stroke: #9aa0a6 !important; }
path, line, polyline { stroke: #4e67d6 !important; }
]]></style>
<style><![CDATA[
text { fill: #e6e6e6 !important; }
polygon { fill: #2f2f2f !important; stroke: #9aa0a6 !important; }
path, line, polyline { stroke: #4e67d6 !important; }
]]></style>
<style><![CDATA[
text { fill: #e6e6e6 !important; }
polygon { fill: #2f2f2f !important; stroke: #9aa0a6 !important; }
path, line, polyline { stroke: #4e67d6 !important; }
]]></style>
<style><![CDATA[
text { fill: #e6e6e6 !important; }
polygon { fill: #2f2f2f !important; stroke: #9aa0a6 !important; }
path, line, polyline { stroke: #4e67d6 !important; }
]]></style>
<style><![CDATA[
text { fill: #e6e6e6 !important; }
polygon { fill: #2f2f2f !important; stroke: #9aa0a6 !important; }
path, line, polyline { stroke: #4e67d6 !important; }
]]></style>
<style><![CDATA[
text { fill: #e6e6e6 !important; }
polygon { fill: #2f2f2f !important; stroke: #9aa0a6 !important; }
path, line, polyline { stroke: #4e67d6 !important; }
]]></style>
<style><![CDATA[
text { fill: #e6e6e6 !important; }
polygon { fill: #2f2f2f !important; stroke: #9aa0a6 !important; }
path, line, polyline { stroke: #4e67d6 !important; }
]]></style>
<style><![CDATA[
text { fill: #e6e6e6 !important; }
polygon { fill: #2f2f2f !important; stroke: #9aa0a6 !important; }
path, line, polyline { stroke: #4e67d6 !important; }
]]></style>
<style><![CDATA[
text { fill: #e6e6e6 !important; }
polygon { fill: #2f2f2f !important; stroke: #9aa0a6 !important; }
path, line, polyline { stroke: #4e67d6 !important; }
]]></style>
<style><![CDATA[
text { fill: #e6e6e6 !important; }
polygon { fill: #2f2f2f !important; stroke: #9aa0a6 !important; }
path, line, polyline { stroke: #4e67d6 !important; }
]]></style>
<style><![CDATA[
text { fill: #e6e6e6 !important; }
polygon { fill: #2f2f2f !important; stroke: #9aa0a6 !important; }
path, line, polyline { stroke: #4e67d6 !important; }
]]></style>
<style><![CDATA[
text { fill: #e6e6e6 !important; }
polygon { fill: #2f2f2f !important; stroke: #9aa0a6 !important; }
path, line, polyline { stroke: #4e67d6 !important; }
]]></style>
<style><![CDATA[
text { fill: #e6e6e6 !important; }
polygon { fill: #2f2f2f !important; stroke: #9aa0a6 !important; }
path, line, polyline { stroke: #4e67d6 !important; }
]]></style>
<style><![CDATA[
text { fill: #e6e6e6 !important; }
polygon { fill: #2f2f2f !important; stroke: #9aa0a6 !important; }
path, line, polyline { stroke: #4e67d6 !important; }
]]></style>
<style><![CDATA[
text { fill: #e6e6e6 !important; }
polygon { fill: #2f2f2f !important; stroke: #9aa0a6 !important; }
path, line, polyline { stroke: #4e67d6 !important; }
]]></style>
<style><![CDATA[
text { fill: #e6e6e6 !important; }
polygon { fill: #2f2f2f !important; stroke: #9aa0a6 !important; }
path, line, polyline { stroke: #4e67d6 !important; }
]]></style>
<style><![CDATA[
text { fill: #e6e6e6 !important; }
polygon { fill: #2f2f2f !important; stroke: #9aa0a6 !important; }
path, line, polyline { stroke: #4e67d6 !important; }
]]></style>
<style type="text/css"><![CDATA[
.edge:hover path { stroke: red; }
.edge:hover polygon { stroke: red; fill: red; }
]]></style>
<script type="text/javascript"><![CDATA[
var edges = document.getElementsByTagName('g');
if (edges && edges.length) {
  for (var i=0;i<edges.length;i++) {
    if (edges[i].id.substr(0,4)=='edge') {
      edges[i].setAttribute('class','edge');
    }
  }
}
]]></script>
        <defs>
                <circle id="rim" cx="0" cy="0" r="7"/>
                <circle id="rim2" cx="0" cy="0" r="3.5"/>
                <g id="zoomPlus">
                        <use xlink:href="#rim" fill="#404040">
                                <set attributeName="fill" to="#808080" begin="zoomplus.mouseover" end="zoomplus.mouseout"/>
                        </use>
                        <path d="M-4,0h8M0,-4v8" fill="none" stroke="white" stroke-width="1.5" pointer-events="none"/>
                </g>
                <g id="zoomMin">
                        <use xlink:href="#rim" fill="#404040">
                                <set attributeName="fill" to="#808080" begin="zoomminus.mouseover" end="zoomminus.mouseout"/>
                        </use>
                        <path d="M-4,0h8" fill="none" stroke="white" stroke-width="1.5" pointer-events="none"/>
                </g>
                <g id="dirArrow">
                        <path fill="none" stroke="white" stroke-width="1.5" d="M0,-3.0v7 M-2.5,-0.5L0,-3.0L2.5,-0.5"/>
                </g>
               <g id="resetDef">
                       <use xlink:href="#rim2" fill="#404040">
                               <set attributeName="fill" to="#808080" begin="reset.mouseover" end="reset.mouseout"/>
                       </use>
               </g>
        </defs>

<script type="text/javascript">
var viewWidth = 1491;
var viewHeight = 332;
var sectionId = 'dynsection-1';
</script>
<script xlink:href="svgpan.js"/>
<svg id="graph" class="graph">
<g id="viewport">
<title>Comedi.h</title>
<!-- Node1 -->
<g id="node1" class="node">
<title>Node1</title>
<g id="a_node1"><a xlink:title="Comedi device interface.">
<polygon fill="#bfbfbf" stroke="black" points="657.5,-300.5 657.5,-323.5 740.5,-323.5 740.5,-300.5 657.5,-300.5"/>
<text text-anchor="middle" x="699" y="-308.3" font-family="Helvetica,sans-Serif" font-size="14.00">Comedi.h</text>
</a>
</g>
</g>
<!-- Node2 -->
<g id="node2" class="node">
<title>Node2</title>
<g id="a_node2"><a xlink:href="AcquisitionThread_8h.html" target="_top" xlink:title="Acquisition worker thread.">
<polygon fill="none" stroke="black" points="189,-240.5 189,-263.5 343,-263.5 343,-240.5 189,-240.5"/>
<text text-anchor="middle" x="266" y="-248.3" font-family="Helvetica,sans-Serif" font-size="14.00">AcquisitionThread.h</text>
</a>
</g>
</g>
<!-- Node1&#45;&gt;Node2 -->
<g id="edge1" class="edge">
<title>Node1&#45;&gt;Node2</title>
<path fill="none" stroke="midnightblue" d="M647.28,-304.07C571.83,-293.97 431.05,-275.11 343.28,-263.35"/>
<polygon fill="midnightblue" stroke="midnightblue" points="647.11,-307.58 657.48,-305.44 648.04,-300.64 647.11,-307.58"/>
</g>
<!-- Node6 -->
<g id="node6" class="node">
<title>Node6</title>
<g id="a_node6"><a xlink:href="OpticsBenchUIMain_8h.html" target="_top" xlink:title="Main application window.">
<polygon fill="none" stroke="black" points="327,-60.5 327,-83.5 493,-83.5 493,-60.5 327,-60.5"/>
<text text-anchor="middle" x="410" y="-68.3" font-family="Helvetica,sans-Serif" font-size="14.00">OpticsBenchUIMain.h</text>
</a>
</g>
</g>
<!-- Node1&#45;&gt;Node6 -->
<g id="edge25" class="edge">
<title>Node1&#45;&gt;Node6</title>
<path fill="none" stroke="midnightblue" d="M646.96,-307.66C579.92,-302.36 468.26,-289.86 437,-264 382.04,-218.53 399.84,-116.5 407.38,-83.51"/>
<polygon fill="midnightblue" stroke="midnightblue" points="647.08,-311.18 657.32,-308.45 647.62,-304.2 647.08,-311.18"/>
</g>
<!-- Node9 -->
<g id="node9" class="node">
<title>Node9</title>
<g id="a_node9"><a xlink:href="ComediCounter_8h.html" target="_top" xlink:title="Comedi Counter source file.">
<polygon fill="none" stroke="black" points="446.5,-240.5 446.5,-263.5 583.5,-263.5 583.5,-240.5 446.5,-240.5"/>
<text text-anchor="middle" x="515" y="-248.3" font-family="Helvetica,sans-Serif" font-size="14.00">ComediCounter.h</text>
</a>
</g>
</g>
<!-- Node1&#45;&gt;Node9 -->
<g id="edge8" class="edge">
<title>Node1&#45;&gt;Node9</title>
<path fill="none" stroke="midnightblue" d="M655.9,-297.41C623.07,-287.06 578.53,-273.03 548.38,-263.52"/>
<polygon fill="midnightblue" stroke="midnightblue" points="655.09,-300.83 665.68,-300.5 657.19,-294.15 655.09,-300.83"/>
</g>
<!-- Node11 -->
<g id="node11" class="node">
<title>Node11</title>
<g id="a_node11"><a xlink:href="ComediCounterControlWidget_8h.html" target="_top" xlink:title="Comedi Counter control widget.">
<polygon fill="none" stroke="black" points="989,-180.5 989,-203.5 1225,-203.5 1225,-180.5 989,-180.5"/>
<text text-anchor="middle" x="1107" y="-188.3" font-family="Helvetica,sans-Serif" font-size="14.00">ComediCounterControlWidget.h</text>
</a>
</g>
</g>
<!-- Node1&#45;&gt;Node11 -->
<g id="edge11" class="edge">
<title>Node1&#45;&gt;Node11</title>
<path fill="none" stroke="midnightblue" d="M750.7,-306.96C806.5,-301.49 897.4,-289.33 972,-264 1017.39,-248.59 1066.08,-219.48 1090.71,-203.74"/>
<polygon fill="midnightblue" stroke="midnightblue" points="750.32,-303.48 740.7,-307.9 750.98,-310.45 750.32,-303.48"/>
</g>
<!-- Node15 -->
<g id="node15" class="node">
<title>Node15</title>
<g id="a_node15"><a xlink:href="ComediCounterPlot_8h.html" target="_top" xlink:title="Comedi Counter Plot source file.">
<polygon fill="none" stroke="black" points="799,-240.5 799,-263.5 963,-263.5 963,-240.5 799,-240.5"/>
<text text-anchor="middle" x="881" y="-248.3" font-family="Helvetica,sans-Serif" font-size="14.00">ComediCounterPlot.h</text>
</a>
</g>
</g>
<!-- Node1&#45;&gt;Node15 -->
<g id="edge16" class="edge">
<title>Node1&#45;&gt;Node15</title>
<path fill="none" stroke="midnightblue" d="M741.64,-297.41C774.11,-287.06 818.16,-273.03 847.98,-263.52"/>
<polygon fill="midnightblue" stroke="midnightblue" points="740.42,-294.13 731.96,-300.5 742.55,-300.79 740.42,-294.13"/>
</g>
<!-- Node17 -->
<g id="node17" class="node">
<title>Node17</title>
<g id="a_node17"><a xlink:href="ComediDac_8h.html" target="_top" xlink:title="Comedi Dac source file.">
<polygon fill="none" stroke="black" points="644.5,-240.5 644.5,-263.5 753.5,-263.5 753.5,-240.5 644.5,-240.5"/>
<text text-anchor="middle" x="699" y="-248.3" font-family="Helvetica,sans-Serif" font-size="14.00">ComediDac.h</text>
</a>
</g>
</g>
<!-- Node1&#45;&gt;Node17 -->
<g id="edge19" class="edge">
<title>Node1&#45;&gt;Node17</title>
<path fill="none" stroke="midnightblue" d="M699,-290.19C699,-281.17 699,-270.99 699,-263.57"/>
<polygon fill="midnightblue" stroke="midnightblue" points="695.5,-290.36 699,-300.36 702.5,-290.36 695.5,-290.36"/>
</g>
<!-- Node19 -->
<g id="node19" class="node">
<title>Node19</title>
<g id="a_node19"><a xlink:href="ComediDacControlWidget_8h.html" target="_top" xlink:title="Comedi Dac control widget.">
<polygon fill="none" stroke="black" points="1251.5,-240.5 1251.5,-263.5 1458.5,-263.5 1458.5,-240.5 1251.5,-240.5"/>
<text text-anchor="middle" x="1355" y="-248.3" font-family="Helvetica,sans-Serif" font-size="14.00">ComediDacControlWidget.h</text>
</a>
</g>
</g>
<!-- Node1&#45;&gt;Node19 -->
<g id="edge22" class="edge">
<title>Node1&#45;&gt;Node19</title>
<path fill="none" stroke="midnightblue" d="M750.5,-306.45C858.22,-296.92 1109.11,-274.74 1251.5,-262.15"/>
<polygon fill="midnightblue" stroke="midnightblue" points="750.19,-302.96 740.53,-307.33 750.8,-309.93 750.19,-302.96"/>
</g>
<!-- Node3 -->
<g id="node3" class="node">
<title>Node3</title>
<g id="a_node3"><a xlink:href="AcquisitionThread_8cpp.html" target="_top" xlink:title="Acquisition worker thread.">
<polygon fill="none" stroke="black" points="0,-180.5 0,-203.5 170,-203.5 170,-180.5 0,-180.5"/>
<text text-anchor="middle" x="85" y="-188.3" font-family="Helvetica,sans-Serif" font-size="14.00">AcquisitionThread.cpp</text>
</a>
</g>
</g>
<!-- Node2&#45;&gt;Node3 -->
<g id="edge2" class="edge">
<title>Node2&#45;&gt;Node3</title>
<path fill="none" stroke="midnightblue" d="M223.6,-237.41C191.31,-227.06 147.49,-213.03 117.84,-203.52"/>
<polygon fill="midnightblue" stroke="midnightblue" points="222.63,-240.78 233.22,-240.5 224.77,-234.11 222.63,-240.78"/>
</g>
<!-- Node4 -->
<g id="node4" class="node">
<title>Node4</title>
<g id="a_node4"><a xlink:href="AcquisitionWidget_8h.html" target="_top" xlink:title="Acquisition widget.">
<polygon fill="none" stroke="black" points="188.5,-180.5 188.5,-203.5 343.5,-203.5 343.5,-180.5 188.5,-180.5"/>
<text text-anchor="middle" x="266" y="-188.3" font-family="Helvetica,sans-Serif" font-size="14.00">AcquisitionWidget.h</text>
</a>
</g>
</g>
<!-- Node2&#45;&gt;Node4 -->
<g id="edge3" class="edge">
<title>Node2&#45;&gt;Node4</title>
<path fill="none" stroke="midnightblue" d="M266,-230.19C266,-221.17 266,-210.99 266,-203.57"/>
<polygon fill="midnightblue" stroke="midnightblue" points="262.5,-230.36 266,-240.36 269.5,-230.36 262.5,-230.36"/>
</g>
<!-- Node5 -->
<g id="node5" class="node">
<title>Node5</title>
<g id="a_node5"><a xlink:href="AcquisitionWidget_8cpp.html" target="_top" xlink:title="Acquisition widget.">
<polygon fill="none" stroke="black" points="134.5,-120.5 134.5,-143.5 305.5,-143.5 305.5,-120.5 134.5,-120.5"/>
<text text-anchor="middle" x="220" y="-128.3" font-family="Helvetica,sans-Serif" font-size="14.00">AcquisitionWidget.cpp</text>
</a>
</g>
</g>
<!-- Node4&#45;&gt;Node5 -->
<g id="edge4" class="edge">
<title>Node4&#45;&gt;Node5</title>
<path fill="none" stroke="midnightblue" d="M251.13,-172.25C243.59,-162.75 234.72,-151.57 228.38,-143.57"/>
<polygon fill="midnightblue" stroke="midnightblue" points="248.61,-174.7 257.56,-180.36 254.09,-170.35 248.61,-174.7"/>
</g>
<!-- Node4&#45;&gt;Node6 -->
<g id="edge5" class="edge">
<title>Node4&#45;&gt;Node6</title>
<path fill="none" stroke="midnightblue" d="M286.85,-173.91C317.07,-149.15 372.15,-104.02 397.1,-83.57"/>
<polygon fill="midnightblue" stroke="midnightblue" points="284.55,-171.27 279.03,-180.32 288.99,-176.69 284.55,-171.27"/>
</g>
<!-- Node7 -->
<g id="node7" class="node">
<title>Node7</title>
<g id="a_node7"><a xlink:href="CameraWindow_8cpp.html" target="_top" xlink:title="Camera backend for Window.">
<polygon fill="none" stroke="black" points="239.5,-0.5 239.5,-23.5 394.5,-23.5 394.5,-0.5 239.5,-0.5"/>
<text text-anchor="middle" x="317" y="-8.3" font-family="Helvetica,sans-Serif" font-size="14.00">CameraWindow.cpp</text>
</a>
</g>
</g>
<!-- Node6&#45;&gt;Node7 -->
<g id="edge6" class="edge">
<title>Node6&#45;&gt;Node7</title>
<path fill="none" stroke="midnightblue" d="M384.06,-54.82C368.04,-44.83 347.95,-32.3 333.95,-23.57"/>
<polygon fill="midnightblue" stroke="midnightblue" points="382.61,-58.04 392.94,-60.36 386.31,-52.1 382.61,-58.04"/>
</g>
<!-- Node8 -->
<g id="node8" class="node">
<title>Node8</title>
<g id="a_node8"><a xlink:href="OpticsBenchUIMain_8cpp.html" target="_top" xlink:title="Main application window.">
<polygon fill="none" stroke="black" points="413,-0.5 413,-23.5 595,-23.5 595,-0.5 413,-0.5"/>
<text text-anchor="middle" x="504" y="-8.3" font-family="Helvetica,sans-Serif" font-size="14.00">OpticsBenchUIMain.cpp</text>
</a>
</g>
</g>
<!-- Node6&#45;&gt;Node8 -->
<g id="edge7" class="edge">
<title>Node6&#45;&gt;Node8</title>
<path fill="none" stroke="midnightblue" d="M435.77,-55.1C452.03,-45.07 472.59,-32.38 486.87,-23.57"/>
<polygon fill="midnightblue" stroke="midnightblue" points="433.91,-52.13 427.24,-60.36 437.59,-58.09 433.91,-52.13"/>
</g>
<!-- Node9&#45;&gt;Node6 -->
<g id="edge10" class="edge">
<title>Node9&#45;&gt;Node6</title>
<path fill="none" stroke="midnightblue" d="M470.51,-236.23C455.04,-228.91 439.05,-218.46 429,-204 402.77,-166.26 405.93,-107.53 408.56,-83.65"/>
<polygon fill="midnightblue" stroke="midnightblue" points="469.46,-239.59 480.02,-240.39 472.26,-233.18 469.46,-239.59"/>
</g>
<!-- Node10 -->
<g id="node10" class="node">
<title>Node10</title>
<g id="a_node10"><a xlink:href="ComediCounter_8cpp.html" target="_top" xlink:title="Comedi Counter source file.">
<polygon fill="none" stroke="black" points="438.5,-180.5 438.5,-203.5 591.5,-203.5 591.5,-180.5 438.5,-180.5"/>
<text text-anchor="middle" x="515" y="-188.3" font-family="Helvetica,sans-Serif" font-size="14.00">ComediCounter.cpp</text>
</a>
</g>
</g>
<!-- Node9&#45;&gt;Node10 -->
<g id="edge9" class="edge">
<title>Node9&#45;&gt;Node10</title>
<path fill="none" stroke="midnightblue" d="M515,-230.19C515,-221.17 515,-210.99 515,-203.57"/>
<polygon fill="midnightblue" stroke="midnightblue" points="511.5,-230.36 515,-240.36 518.5,-230.36 511.5,-230.36"/>
</g>
<!-- Node12 -->
<g id="node12" class="node">
<title>Node12</title>
<g id="a_node12"><a xlink:href="ComediCounterControlWidget_8cpp.html" target="_top" xlink:title="Comedi Counter control widget.">
<polygon fill="none" stroke="black" points="885.5,-120.5 885.5,-143.5 1138.5,-143.5 1138.5,-120.5 885.5,-120.5"/>
<text text-anchor="middle" x="1012" y="-128.3" font-family="Helvetica,sans-Serif" font-size="14.00">ComediCounterControlWidget.cpp</text>
</a>
</g>
</g>
<!-- Node11&#45;&gt;Node12 -->
<g id="edge12" class="edge">
<title>Node11&#45;&gt;Node12</title>
<path fill="none" stroke="midnightblue" d="M1080.96,-175.1C1064.52,-165.07 1043.74,-152.38 1029.31,-143.57"/>
<polygon fill="midnightblue" stroke="midnightblue" points="1079.22,-178.14 1089.58,-180.36 1082.86,-172.16 1079.22,-178.14"/>
</g>
<!-- Node13 -->
<g id="node13" class="node">
<title>Node13</title>
<g id="a_node13"><a xlink:href="ComediWindow_8h.html" target="_top" xlink:title="Comedi window.">
<polygon fill="none" stroke="black" points="1156.5,-120.5 1156.5,-143.5 1293.5,-143.5 1293.5,-120.5 1156.5,-120.5"/>
<text text-anchor="middle" x="1225" y="-128.3" font-family="Helvetica,sans-Serif" font-size="14.00">ComediWindow.h</text>
</a>
</g>
</g>
<!-- Node11&#45;&gt;Node13 -->
<g id="edge13" class="edge">
<title>Node11&#45;&gt;Node13</title>
<path fill="none" stroke="midnightblue" d="M1137.38,-176.07C1158.04,-165.91 1184.89,-152.72 1203.39,-143.62"/>
<polygon fill="midnightblue" stroke="midnightblue" points="1135.8,-172.94 1128.37,-180.5 1138.89,-179.23 1135.8,-172.94"/>
</g>
<!-- Node13&#45;&gt;Node6 -->
<g id="edge15" class="edge">
<title>Node13&#45;&gt;Node6</title>
<path fill="none" stroke="midnightblue" d="M1146.11,-119.87C903.44,-95.2 628.16,-81.79 493.18,-76.17"/>
<polygon fill="midnightblue" stroke="midnightblue" points="1145.88,-123.36 1156.19,-120.9 1146.59,-116.4 1145.88,-123.36"/>
</g>
<!-- Node14 -->
<g id="node14" class="node">
<title>Node14</title>
<g id="a_node14"><a xlink:href="ComediWindow_8cpp.html" target="_top" xlink:title="Comedi window.">
<polygon fill="none" stroke="black" points="1148.5,-60.5 1148.5,-83.5 1301.5,-83.5 1301.5,-60.5 1148.5,-60.5"/>
<text text-anchor="middle" x="1225" y="-68.3" font-family="Helvetica,sans-Serif" font-size="14.00">ComediWindow.cpp</text>
</a>
</g>
</g>
<!-- Node13&#45;&gt;Node14 -->
<g id="edge14" class="edge">
<title>Node13&#45;&gt;Node14</title>
<path fill="none" stroke="midnightblue" d="M1225,-110.19C1225,-101.17 1225,-90.99 1225,-83.57"/>
<polygon fill="midnightblue" stroke="midnightblue" points="1221.5,-110.36 1225,-120.36 1228.5,-110.36 1221.5,-110.36"/>
</g>
<!-- Node15&#45;&gt;Node11 -->
<g id="edge17" class="edge">
<title>Node15&#45;&gt;Node11</title>
<path fill="none" stroke="midnightblue" d="M931.61,-238.01C972.14,-227.61 1028.25,-213.21 1066,-203.52"/>
<polygon fill="midnightblue" stroke="midnightblue" points="930.74,-234.62 921.93,-240.5 932.48,-241.4 930.74,-234.62"/>
</g>
<!-- Node16 -->
<g id="node16" class="node">
<title>Node16</title>
<g id="a_node16"><a xlink:href="ComediCounterPlot_8cpp.html" target="_top" xlink:title="Comedi Counter Plot source file.">
<polygon fill="none" stroke="black" points="791,-180.5 791,-203.5 971,-203.5 971,-180.5 791,-180.5"/>
<text text-anchor="middle" x="881" y="-188.3" font-family="Helvetica,sans-Serif" font-size="14.00">ComediCounterPlot.cpp</text>
</a>
</g>
</g>
<!-- Node15&#45;&gt;Node16 -->
<g id="edge18" class="edge">
<title>Node15&#45;&gt;Node16</title>
<path fill="none" stroke="midnightblue" d="M881,-230.19C881,-221.17 881,-210.99 881,-203.57"/>
<polygon fill="midnightblue" stroke="midnightblue" points="877.5,-230.36 881,-240.36 884.5,-230.36 877.5,-230.36"/>
</g>
<!-- Node17&#45;&gt;Node6 -->
<g id="edge21" class="edge">
<title>Node17&#45;&gt;Node6</title>
<path fill="none" stroke="midnightblue" d="M722.26,-233.77C739.14,-219.13 756.94,-197.73 744,-180 711.38,-135.3 556.73,-100.14 469.76,-83.5"/>
<polygon fill="midnightblue" stroke="midnightblue" points="719.72,-231.33 714.19,-240.37 724.14,-236.75 719.72,-231.33"/>
</g>
<!-- Node18 -->
<g id="node18" class="node">
<title>Node18</title>
<g id="a_node18"><a xlink:href="ComediDac_8cpp.html" target="_top" xlink:title="Comedi Dac source file.">
<polygon fill="none" stroke="black" points="609.5,-180.5 609.5,-203.5 734.5,-203.5 734.5,-180.5 609.5,-180.5"/>
<text text-anchor="middle" x="672" y="-188.3" font-family="Helvetica,sans-Serif" font-size="14.00">ComediDac.cpp</text>
</a>
</g>
</g>
<!-- Node17&#45;&gt;Node18 -->
<g id="edge20" class="edge">
<title>Node17&#45;&gt;Node18</title>
<path fill="none" stroke="midnightblue" d="M689.73,-231.08C685.43,-221.84 680.49,-211.24 676.92,-203.57"/>
<polygon fill="midnightblue" stroke="midnightblue" points="686.65,-232.77 694.05,-240.36 693,-229.82 686.65,-232.77"/>
</g>
<!-- Node19&#45;&gt;Node13 -->
<g id="edge24" class="edge">
<title>Node19&#45;&gt;Node13</title>
<path fill="none" stroke="midnightblue" d="M1416.34,-237.83C1456.81,-226.31 1498.54,-207.15 1476,-180 1453.2,-152.54 1359.81,-141.03 1293.62,-136.27"/>
<polygon fill="midnightblue" stroke="midnightblue" points="1415.4,-234.46 1406.66,-240.45 1417.23,-241.21 1415.4,-234.46"/>
</g>
<!-- Node20 -->
<g id="node20" class="node">
<title>Node20</title>
<g id="a_node20"><a xlink:href="ComediDacControlWidget_8cpp.html" target="_top" xlink:title="Comedi Dac control widget.">
<polygon fill="none" stroke="black" points="1243,-180.5 1243,-203.5 1467,-203.5 1467,-180.5 1243,-180.5"/>
<text text-anchor="middle" x="1355" y="-188.3" font-family="Helvetica,sans-Serif" font-size="14.00">ComediDacControlWidget.cpp</text>
</a>
</g>
</g>
<!-- Node19&#45;&gt;Node20 -->
<g id="edge23" class="edge">
<title>Node19&#45;&gt;Node20</title>
<path fill="none" stroke="midnightblue" d="M1355,-230.19C1355,-221.17 1355,-210.99 1355,-203.57"/>
<polygon fill="midnightblue" stroke="midnightblue" points="1351.5,-230.36 1355,-240.36 1358.5,-230.36 1351.5,-230.36"/>
</g>
</g>
</svg>
        <g id="navigator" transform="translate(0 0)" fill="#404254">
                <rect fill="#f2f5e9" fill-opacity="0.5" stroke="#606060" stroke-width=".5" x="0" y="0" width="60" height="60"/>
                <use id="zoomplus" xlink:href="#zoomPlus" x="17" y="9" onmousedown="handleZoom(evt,'in')"/>
                <use id="zoomminus" xlink:href="#zoomMin" x="42" y="9" onmousedown="handleZoom(evt,'out')"/>
                <use id="reset" xlink:href="#resetDef" x="30" y="36" onmousedown="handleReset()"/>
                <g id="arrowUp" xlink:href="#dirArrow" transform="translate(30 24)" onmousedown="handlePan(0,-1)">
                  <use xlink:href="#rim" fill="#404040">
                        <set attributeName="fill" to="#808080" begin="arrowUp.mouseover" end="arrowUp.mouseout"/>
                  </use>
                  <path fill="none" stroke="white" stroke-width="1.5" d="M0,-3.0v7 M-2.5,-0.5L0,-3.0L2.5,-0.5"/>
                </g>
                <g id="arrowRight" xlink:href="#dirArrow" transform="rotate(90) translate(36 -43)" onmousedown="handlePan(1,0)">
                  <use xlink:href="#rim" fill="#404040">
                        <set attributeName="fill" to="#808080" begin="arrowRight.mouseover" end="arrowRight.mouseout"/>
                  </use>
                  <path fill="none" stroke="white" stroke-width="1.5" d="M0,-3.0v7 M-2.5,-0.5L0,-3.0L2.5,-0.5"/>
                </g>
                <g id="arrowDown" xlink:href="#dirArrow" transform="rotate(180) translate(-30 -48)" onmousedown="handlePan(0,1)">
                  <use xlink:href="#rim" fill="#404040">
                        <set attributeName="fill" to="#808080" begin="arrowDown.mouseover" end="arrowDown.mouseout"/>
                  </use>
                  <path fill="none" stroke="white" stroke-width="1.5" d="M0,-3.0v7 M-2.5,-0.5L0,-3.0L2.5,-0.5"/>
                </g>
                <g id="arrowLeft" xlink:href="#dirArrow" transform="rotate(270) translate(-36 17)" onmousedown="handlePan(-1,0)">
                  <use xlink:href="#rim" fill="#404040">
                        <set attributeName="fill" to="#808080" begin="arrowLeft.mouseover" end="arrowLeft.mouseout"/>
                  </use>
                  <path fill="none" stroke="white" stroke-width="1.5" d="M0,-3.0v7 M-2.5,-0.5L0,-3.0L2.5,-0.5"/>
                </g>
        </g>
        <svg viewBox="0 0 15 15" width="100%" height="30px" preserveAspectRatio="xMaxYMin meet">
         <g id="arrow_out" transform="scale(0.3 0.3)">
          <a xlink:href="Comedi_8h__dep__incl_org.svg" target="_base">
           <rect id="button" ry="5" rx="5" y="6" x="6" height="38" width="38"
                fill="#f2f5e9" fill-opacity="0.5" stroke="#606060" stroke-width="1.0"/>
           <path id="arrow"
             d="M 11.500037,31.436501 C 11.940474,20.09759 22.043105,11.32322 32.158766,21.979434 L 37.068811,17.246167 C 37.068811,17.246167 37.088388,32 37.088388,32 L 22.160133,31.978069 C 22.160133,31.978069 26.997745,27.140456 26.997745,27.140456 C 18.528582,18.264221 13.291696,25.230495 11.500037,31.436501 z"
             style="fill:#404040;"/>
          </a>
         </g>
        </svg>
</svg>
