<?xml version="1.0" encoding="UTF-8" standalone="no"?>
<!DOCTYPE svg PUBLIC "-//W3C//DTD SVG 1.1//EN"
 "http://www.w3.org/Graphics/SVG/1.1/DTD/svg11.dtd">
<!-- Generated by graphviz version 2.50.0 (0)
 -->
<!-- Title: DriverNewFocus_8750_Ol.cpp Pages: 1 -->
<svg width="838pt" height="347pt"
 viewBox="0.00 0.00 837.50 347.00" xmlns="http://www.w3.org/2000/svg" xmlns:xlink="http://www.w3.org/1999/xlink">
<style><![CDATA[
text { fill: #e6e6e6 !important; }
polygon { fill: #2f2f2f !important; stroke: #9aa0a6 !important; }
path, line, polyline { stroke: #4e67d6 !important; }
]]></style>
<style><![CDATA[
text { fill: #e6e6e6 !important; }
polygon { fill: #2f2f2f !important; stroke: #9aa0a6 !important; }
path, line, polyline { stroke: #4e67d6 !important; }
]]></style>
<style><![CDATA[
text { fill: #e6e6e6 !important; }
polygon { fill: #2f2f2f !important; stroke: #9aa0a6 !important; }
path, line, polyline { stroke: #4e67d6 !important; }
]]></style>
<style><![CDATA[
text { fill: #e6e6e6 !important; }
polygon { fill: #2f2f2f !important; stroke: #9aa0a6 !important; }
path, line, polyline { stroke: #4e67d6 !important; }
]]></style>
<style><![CDATA[
text { fill: #e6e6e6 !important; }
polygon { fill: #2f2f2f !important; stroke: #9aa0a6 !important; }
path, line, polyline { stroke: #4e67d6 !important; }
]]></style>
<style><![CDATA[
text { fill: #e6e6e6 !important; }
polygon { fill: #2f2f2f !important; stroke: #9aa0a6 !important; }
path, line, polyline { stroke: #4e67d6 !important; }
]]></style>
<style><![CDATA[
text { fill: #e6e6e6 !important; }
polygon { fill: #2f2f2f !important; stroke: #9aa0a6 !important; }
path, line, polyline { stroke: #4e67d6 !important; }
]]></style>
<g id="graph0" class="graph" transform="scale(1 1) rotate(0) translate(4 343)">
<title>DriverNewFocus_8750_Ol.cpp</title>
<!-- Node1 -->
<g id="node1" class="node">
<title>Node1</title>
<g id="a_node1"><a xlink:title="Driver implementation for New Focus 8750 Ol.">
<polygon fill="#bfbfbf" stroke="black" points="193.5,-300.5 193.5,-338.5 365.5,-338.5 365.5,-300.5 193.5,-300.5"/>
<text text-anchor="start" x="201.5" y="-323.3" font-family="Helvetica,sans-Serif" font-size="14.00">DriverNewFocus_8750</text>
<text text-anchor="middle" x="279.5" y="-308.3" font-family="Helvetica,sans-Serif" font-size="14.00">_Ol.cpp</text>
</a>
</g>
</g>
<!-- Node2 -->
<g id="node2" class="node">
<title>Node2</title>
<g id="a_node2"><a xlink:title=" ">
<polygon fill="none" stroke="#bfbfbf" points="0,-60.5 0,-83.5 77,-83.5 77,-60.5 0,-60.5"/>
<text text-anchor="middle" x="38.5" y="-68.3" font-family="Helvetica,sans-Serif" font-size="14.00">iostream</text>
</a>
</g>
</g>
<!-- Node1&#45;&gt;Node2 -->
<g id="edge1" class="edge">
<title>Node1&#45;&gt;Node2</title>
<path fill="none" stroke="midnightblue" d="M261.78,-300.45C217.17,-255.01 100.64,-136.3 56.13,-90.96"/>
<polygon fill="midnightblue" stroke="midnightblue" points="58.43,-88.3 48.92,-83.62 53.43,-93.21 58.43,-88.3"/>
</g>
<!-- Node3 -->
<g id="node3" class="node">
<title>Node3</title>
<g id="a_node3"><a xlink:title=" ">
<polygon fill="none" stroke="#bfbfbf" points="572.5,-240.5 572.5,-263.5 636.5,-263.5 636.5,-240.5 572.5,-240.5"/>
<text text-anchor="middle" x="604.5" y="-248.3" font-family="Helvetica,sans-Serif" font-size="14.00">stdio.h</text>
</a>
</g>
</g>
<!-- Node1&#45;&gt;Node3 -->
<g id="edge2" class="edge">
<title>Node1&#45;&gt;Node3</title>
<path fill="none" stroke="midnightblue" d="M365.59,-303.66C419.54,-293.96 490.71,-280.46 562.23,-264.18"/>
<polygon fill="midnightblue" stroke="midnightblue" points="563.36,-267.52 572.33,-261.87 561.8,-260.69 563.36,-267.52"/>
</g>
<!-- Node4 -->
<g id="node4" class="node">
<title>Node4</title>
<g id="a_node4"><a xlink:title=" ">
<polygon fill="none" stroke="#bfbfbf" points="156.5,-120.5 156.5,-143.5 228.5,-143.5 228.5,-120.5 156.5,-120.5"/>
<text text-anchor="middle" x="192.5" y="-128.3" font-family="Helvetica,sans-Serif" font-size="14.00">sstream</text>
</a>
</g>
</g>
<!-- Node1&#45;&gt;Node4 -->
<g id="edge3" class="edge">
<title>Node1&#45;&gt;Node4</title>
<path fill="none" stroke="midnightblue" d="M271,-300.38C254.66,-265.53 218.96,-189.41 201.92,-153.08"/>
<polygon fill="midnightblue" stroke="midnightblue" points="204.87,-151.13 197.45,-143.56 198.53,-154.1 204.87,-151.13"/>
</g>
<!-- Node5 -->
<g id="node5" class="node">
<title>Node5</title>
<g id="a_node5"><a xlink:title=" ">
<polygon fill="none" stroke="#bfbfbf" points="246.5,-120.5 246.5,-143.5 312.5,-143.5 312.5,-120.5 246.5,-120.5"/>
<text text-anchor="middle" x="279.5" y="-128.3" font-family="Helvetica,sans-Serif" font-size="14.00">math.h</text>
</a>
</g>
</g>
<!-- Node1&#45;&gt;Node5 -->
<g id="edge4" class="edge">
<title>Node1&#45;&gt;Node5</title>
<path fill="none" stroke="midnightblue" d="M279.5,-300.38C279.5,-265.83 279.5,-190.72 279.5,-154.03"/>
<polygon fill="midnightblue" stroke="midnightblue" points="283,-153.56 279.5,-143.56 276,-153.56 283,-153.56"/>
</g>
<!-- Node6 -->
<g id="node6" class="node">
<title>Node6</title>
<g id="a_node6"><a xlink:href="DriverNewFocus__8750__Ol_8h.html" target="_top" xlink:title="Driver implementation for New Focus 8750 Ol.">
<polygon fill="none" stroke="black" points="347,-240.5 347,-263.5 554,-263.5 554,-240.5 347,-240.5"/>
<text text-anchor="middle" x="450.5" y="-248.3" font-family="Helvetica,sans-Serif" font-size="14.00">DriverNewFocus_8750_Ol.h</text>
</a>
</g>
</g>
<!-- Node1&#45;&gt;Node6 -->
<g id="edge5" class="edge">
<title>Node1&#45;&gt;Node6</title>
<path fill="none" stroke="midnightblue" d="M326.68,-300.43C353.91,-290 387.68,-277.06 413.07,-267.34"/>
<polygon fill="midnightblue" stroke="midnightblue" points="414.61,-270.49 422.7,-263.65 412.11,-263.96 414.61,-270.49"/>
</g>
<!-- Node7 -->
<g id="node7" class="node">
<title>Node7</title>
<g id="a_node7"><a xlink:title=" ">
<polygon fill="none" stroke="#bfbfbf" points="694,-60.5 694,-83.5 751,-83.5 751,-60.5 694,-60.5"/>
<text text-anchor="middle" x="722.5" y="-68.3" font-family="Helvetica,sans-Serif" font-size="14.00">string</text>
</a>
</g>
</g>
<!-- Node6&#45;&gt;Node7 -->
<g id="edge6" class="edge">
<title>Node6&#45;&gt;Node7</title>
<path fill="none" stroke="midnightblue" d="M505.23,-240.46C587.43,-223.4 736.46,-187.23 767.5,-144 780.3,-126.17 762.53,-104.79 745.69,-90.18"/>
<polygon fill="midnightblue" stroke="midnightblue" points="747.6,-87.21 737.64,-83.6 743.17,-92.63 747.6,-87.21"/>
</g>
<!-- Node8 -->
<g id="node8" class="node">
<title>Node8</title>
<g id="a_node8"><a xlink:title=" ">
<polygon fill="none" stroke="#bfbfbf" points="769.5,-60.5 769.5,-83.5 829.5,-83.5 829.5,-60.5 769.5,-60.5"/>
<text text-anchor="middle" x="799.5" y="-68.3" font-family="Helvetica,sans-Serif" font-size="14.00">vector</text>
</a>
</g>
</g>
<!-- Node6&#45;&gt;Node8 -->
<g id="edge7" class="edge">
<title>Node6&#45;&gt;Node8</title>
<path fill="none" stroke="midnightblue" d="M553.77,-240.49C598.26,-233.6 650.14,-222.32 694.5,-204 738.59,-185.79 756.58,-183.38 783.5,-144 793.61,-129.2 797.43,-109.01 798.83,-93.94"/>
<polygon fill="midnightblue" stroke="midnightblue" points="802.34,-93.79 799.48,-83.59 795.36,-93.34 802.34,-93.79"/>
</g>
<!-- Node9 -->
<g id="node9" class="node">
<title>Node9</title>
<g id="a_node9"><a xlink:href="Driver_8h.html" target="_top" xlink:title="Driver implementation for .">
<polygon fill="none" stroke="black" points="415,-180.5 415,-203.5 486,-203.5 486,-180.5 415,-180.5"/>
<text text-anchor="middle" x="450.5" y="-188.3" font-family="Helvetica,sans-Serif" font-size="14.00">Driver.h</text>
</a>
</g>
</g>
<!-- Node6&#45;&gt;Node9 -->
<g id="edge8" class="edge">
<title>Node6&#45;&gt;Node9</title>
<path fill="none" stroke="midnightblue" d="M450.5,-240.36C450.5,-232.92 450.5,-222.74 450.5,-213.73"/>
<polygon fill="midnightblue" stroke="midnightblue" points="454,-213.57 450.5,-203.57 447,-213.57 454,-213.57"/>
</g>
<!-- Node9&#45;&gt;Node2 -->
<g id="edge11" class="edge">
<title>Node9&#45;&gt;Node2</title>
<path fill="none" stroke="midnightblue" d="M425.82,-180.35C406.05,-171.48 377.87,-158.07 354.5,-144 338.96,-134.64 338.27,-126.9 321.5,-120 226.75,-81.01 192.38,-102.42 87.28,-83.98"/>
<polygon fill="midnightblue" stroke="midnightblue" points="87.69,-80.49 77.22,-82.13 86.42,-87.38 87.69,-80.49"/>
</g>
<!-- Node9&#45;&gt;Node4 -->
<g id="edge13" class="edge">
<title>Node9&#45;&gt;Node4</title>
<path fill="none" stroke="midnightblue" d="M414.64,-183.35C374.25,-174.67 306.39,-159.92 238.8,-144.27"/>
<polygon fill="midnightblue" stroke="midnightblue" points="239.37,-140.81 228.83,-141.96 237.78,-147.63 239.37,-140.81"/>
</g>
<!-- Node9&#45;&gt;Node5 -->
<g id="edge12" class="edge">
<title>Node9&#45;&gt;Node5</title>
<path fill="none" stroke="midnightblue" d="M419.53,-180.5C391.66,-171.04 350.5,-157.08 320.02,-146.74"/>
<polygon fill="midnightblue" stroke="midnightblue" points="321.12,-143.42 310.52,-143.52 318.87,-150.05 321.12,-143.42"/>
</g>
<!-- Node9&#45;&gt;Node7 -->
<g id="edge9" class="edge">
<title>Node9&#45;&gt;Node7</title>
<path fill="none" stroke="midnightblue" d="M479.53,-180.39C503.26,-171.44 537.5,-157.9 566.5,-144 586.24,-134.54 589.81,-129.55 609.5,-120 634.31,-107.96 663.01,-96.05 685.28,-87.23"/>
<polygon fill="midnightblue" stroke="midnightblue" points="686.68,-90.44 694.71,-83.53 684.12,-83.93 686.68,-90.44"/>
</g>
<!-- Node9&#45;&gt;Node8 -->
<g id="edge10" class="edge">
<title>Node9&#45;&gt;Node8</title>
<path fill="none" stroke="midnightblue" d="M486.01,-189.94C559.21,-187.09 723.73,-177.09 767.5,-144 783.45,-131.94 791.65,-110.13 795.73,-93.85"/>
<polygon fill="midnightblue" stroke="midnightblue" points="799.24,-94.16 797.95,-83.65 792.4,-92.68 799.24,-94.16"/>
</g>
<!-- Node10 -->
<g id="node10" class="node">
<title>Node10</title>
<g id="a_node10"><a xlink:href="PosixCompat_8h.html" target="_top" xlink:title=" ">
<polygon fill="none" stroke="black" points="95.5,-60.5 95.5,-83.5 215.5,-83.5 215.5,-60.5 95.5,-60.5"/>
<text text-anchor="middle" x="155.5" y="-68.3" font-family="Helvetica,sans-Serif" font-size="14.00">PosixCompat.h</text>
</a>
</g>
</g>
<!-- Node9&#45;&gt;Node10 -->
<g id="edge14" class="edge">
<title>Node9&#45;&gt;Node10</title>
<path fill="none" stroke="midnightblue" d="M437.52,-180.37C415.66,-162.65 372.18,-128.2 354.5,-120 331,-109.1 269.62,-95.35 221.18,-85.55"/>
<polygon fill="midnightblue" stroke="midnightblue" points="221.87,-82.11 211.37,-83.58 220.49,-88.98 221.87,-82.11"/>
</g>
<!-- Node13 -->
<g id="node13" class="node">
<title>Node13</title>
<g id="a_node13"><a xlink:href="ACCom_8h.html" target="_top" xlink:title="AC communication backend for AC Com.">
<polygon fill="none" stroke="black" points="444.5,-120.5 444.5,-143.5 524.5,-143.5 524.5,-120.5 444.5,-120.5"/>
<text text-anchor="middle" x="484.5" y="-128.3" font-family="Helvetica,sans-Serif" font-size="14.00">ACCom.h</text>
</a>
</g>
</g>
<!-- Node9&#45;&gt;Node13 -->
<g id="edge17" class="edge">
<title>Node9&#45;&gt;Node13</title>
<path fill="none" stroke="midnightblue" d="M456.74,-180.36C461.34,-172.51 467.73,-161.62 473.21,-152.25"/>
<polygon fill="midnightblue" stroke="midnightblue" points="476.27,-153.97 478.3,-143.57 470.23,-150.43 476.27,-153.97"/>
</g>
<!-- Node16 -->
<g id="node16" class="node">
<title>Node16</title>
<g id="a_node16"><a xlink:href="QsLog_8h.html" target="_top" xlink:title="Qs Log logging support.">
<polygon fill="none" stroke="black" points="233.5,-60.5 233.5,-83.5 307.5,-83.5 307.5,-60.5 233.5,-60.5"/>
<text text-anchor="middle" x="270.5" y="-68.3" font-family="Helvetica,sans-Serif" font-size="14.00">QsLog.h</text>
</a>
</g>
</g>
<!-- Node9&#45;&gt;Node16 -->
<g id="edge31" class="edge">
<title>Node9&#45;&gt;Node16</title>
<path fill="none" stroke="midnightblue" d="M444.33,-180.39C434.95,-165.08 415.7,-136.8 392.5,-120 370.04,-103.74 341.23,-92.29 317.25,-84.77"/>
<polygon fill="midnightblue" stroke="midnightblue" points="318.23,-81.41 307.64,-81.88 316.21,-88.11 318.23,-81.41"/>
</g>
<!-- Node18 -->
<g id="node18" class="node">
<title>Node18</title>
<g id="a_node18"><a xlink:title=" ">
<polygon fill="none" stroke="#bfbfbf" points="592.5,-0.5 592.5,-23.5 662.5,-23.5 662.5,-0.5 592.5,-0.5"/>
<text text-anchor="middle" x="627.5" y="-8.3" font-family="Helvetica,sans-Serif" font-size="14.00">QString</text>
</a>
</g>
</g>
<!-- Node9&#45;&gt;Node18 -->
<g id="edge32" class="edge">
<title>Node9&#45;&gt;Node18</title>
<path fill="none" stroke="midnightblue" d="M470.66,-180.41C487.71,-171.27 512.61,-157.45 533.5,-144 548.75,-134.18 551.31,-129.9 566.5,-120 593.2,-102.61 612.6,-111.61 628.5,-84 637.21,-68.87 635.98,-48.75 633.14,-33.79"/>
<polygon fill="midnightblue" stroke="midnightblue" points="636.53,-32.94 630.9,-23.96 629.71,-34.49 636.53,-32.94"/>
</g>
<!-- Node20 -->
<g id="node20" class="node">
<title>Node20</title>
<g id="a_node20"><a xlink:href="DriverDefinition_8h.html" target="_top" xlink:title="Driver implementation for Definition.">
<polygon fill="none" stroke="black" points="618.5,-120.5 618.5,-143.5 758.5,-143.5 758.5,-120.5 618.5,-120.5"/>
<text text-anchor="middle" x="688.5" y="-128.3" font-family="Helvetica,sans-Serif" font-size="14.00">DriverDefinition.h</text>
</a>
</g>
</g>
<!-- Node9&#45;&gt;Node20 -->
<g id="edge29" class="edge">
<title>Node9&#45;&gt;Node20</title>
<path fill="none" stroke="midnightblue" d="M486.13,-182.32C525.67,-172.68 589.9,-157.03 635.38,-145.95"/>
<polygon fill="midnightblue" stroke="midnightblue" points="636.47,-149.28 645.36,-143.51 634.81,-142.48 636.47,-149.28"/>
</g>
<!-- Node11 -->
<g id="node11" class="node">
<title>Node11</title>
<g id="a_node11"><a xlink:title=" ">
<polygon fill="none" stroke="#bfbfbf" points="35,-0.5 35,-23.5 112,-23.5 112,-0.5 35,-0.5"/>
<text text-anchor="middle" x="73.5" y="-8.3" font-family="Helvetica,sans-Serif" font-size="14.00">QtGlobal</text>
</a>
</g>
</g>
<!-- Node10&#45;&gt;Node11 -->
<g id="edge15" class="edge">
<title>Node10&#45;&gt;Node11</title>
<path fill="none" stroke="midnightblue" d="M140.46,-60.36C128.21,-51.7 110.7,-39.31 96.66,-29.38"/>
<polygon fill="midnightblue" stroke="midnightblue" points="98.63,-26.49 88.44,-23.57 94.59,-32.2 98.63,-26.49"/>
</g>
<!-- Node12 -->
<g id="node12" class="node">
<title>Node12</title>
<g id="a_node12"><a xlink:title=" ">
<polygon fill="none" stroke="#bfbfbf" points="130.5,-0.5 130.5,-23.5 204.5,-23.5 204.5,-0.5 130.5,-0.5"/>
<text text-anchor="middle" x="167.5" y="-8.3" font-family="Helvetica,sans-Serif" font-size="14.00">unistd.h</text>
</a>
</g>
</g>
<!-- Node10&#45;&gt;Node12 -->
<g id="edge16" class="edge">
<title>Node10&#45;&gt;Node12</title>
<path fill="none" stroke="midnightblue" d="M157.7,-60.36C159.26,-52.84 161.39,-42.52 163.27,-33.43"/>
<polygon fill="midnightblue" stroke="midnightblue" points="166.71,-34.07 165.31,-23.57 159.86,-32.65 166.71,-34.07"/>
</g>
<!-- Node13&#45;&gt;Node2 -->
<g id="edge19" class="edge">
<title>Node13&#45;&gt;Node2</title>
<path fill="none" stroke="midnightblue" d="M444.47,-127.71C374.25,-121.63 224.15,-107.24 87.44,-84.01"/>
<polygon fill="midnightblue" stroke="midnightblue" points="87.65,-80.49 77.2,-82.25 86.46,-87.39 87.65,-80.49"/>
</g>
<!-- Node13&#45;&gt;Node7 -->
<g id="edge18" class="edge">
<title>Node13&#45;&gt;Node7</title>
<path fill="none" stroke="midnightblue" d="M524.6,-121.23C569,-110.41 640.07,-93.09 683.86,-82.42"/>
<polygon fill="midnightblue" stroke="midnightblue" points="684.96,-85.75 693.84,-79.98 683.3,-78.95 684.96,-85.75"/>
</g>
<!-- Node13&#45;&gt;Node8 -->
<g id="edge21" class="edge">
<title>Node13&#45;&gt;Node8</title>
<path fill="none" stroke="midnightblue" d="M524.52,-125.55C576.5,-118.17 670.2,-103.85 759.34,-84.09"/>
<polygon fill="midnightblue" stroke="midnightblue" points="760.36,-87.45 769.35,-81.85 758.82,-80.62 760.36,-87.45"/>
</g>
<!-- Node13&#45;&gt;Node10 -->
<g id="edge23" class="edge">
<title>Node13&#45;&gt;Node10</title>
<path fill="none" stroke="midnightblue" d="M444.49,-123.95C390.08,-114.36 291.93,-97.05 225.27,-85.3"/>
<polygon fill="midnightblue" stroke="midnightblue" points="225.72,-81.82 215.26,-83.54 224.5,-88.72 225.72,-81.82"/>
</g>
<!-- Node14 -->
<g id="node14" class="node">
<title>Node14</title>
<g id="a_node14"><a xlink:title=" ">
<polygon fill="none" stroke="#bfbfbf" points="437.5,-60.5 437.5,-83.5 507.5,-83.5 507.5,-60.5 437.5,-60.5"/>
<text text-anchor="middle" x="472.5" y="-68.3" font-family="Helvetica,sans-Serif" font-size="14.00">fstream</text>
</a>
</g>
</g>
<!-- Node13&#45;&gt;Node14 -->
<g id="edge20" class="edge">
<title>Node13&#45;&gt;Node14</title>
<path fill="none" stroke="midnightblue" d="M482.3,-120.36C480.74,-112.84 478.61,-102.52 476.73,-93.43"/>
<polygon fill="midnightblue" stroke="midnightblue" points="480.14,-92.65 474.69,-83.57 473.29,-94.07 480.14,-92.65"/>
</g>
<!-- Node15 -->
<g id="node15" class="node">
<title>Node15</title>
<g id="a_node15"><a xlink:title=" ">
<polygon fill="none" stroke="#bfbfbf" points="525.5,-60.5 525.5,-83.5 599.5,-83.5 599.5,-60.5 525.5,-60.5"/>
<text text-anchor="middle" x="562.5" y="-68.3" font-family="Helvetica,sans-Serif" font-size="14.00">stdarg.h</text>
</a>
</g>
</g>
<!-- Node13&#45;&gt;Node15 -->
<g id="edge22" class="edge">
<title>Node13&#45;&gt;Node15</title>
<path fill="none" stroke="midnightblue" d="M498.81,-120.36C510.35,-111.78 526.8,-99.55 540.09,-89.66"/>
<polygon fill="midnightblue" stroke="midnightblue" points="542.35,-92.35 548.28,-83.57 538.17,-86.73 542.35,-92.35"/>
</g>
<!-- Node13&#45;&gt;Node16 -->
<g id="edge24" class="edge">
<title>Node13&#45;&gt;Node16</title>
<path fill="none" stroke="midnightblue" d="M445.75,-120.5C409.7,-110.73 355.92,-96.15 317.46,-85.73"/>
<polygon fill="midnightblue" stroke="midnightblue" points="318.1,-82.27 307.53,-83.04 316.27,-89.03 318.1,-82.27"/>
</g>
<!-- Node13&#45;&gt;Node18 -->
<g id="edge27" class="edge">
<title>Node13&#45;&gt;Node18</title>
<path fill="none" stroke="midnightblue" d="M523.46,-120.46C555.25,-111.12 596.77,-96.98 608.5,-84 620.89,-70.29 625.35,-49.36 626.87,-33.78"/>
<polygon fill="midnightblue" stroke="midnightblue" points="630.38,-33.76 627.54,-23.55 623.4,-33.3 630.38,-33.76"/>
</g>
<!-- Node19 -->
<g id="node19" class="node">
<title>Node19</title>
<g id="a_node19"><a xlink:title=" ">
<polygon fill="none" stroke="#bfbfbf" points="325.5,-60.5 325.5,-83.5 419.5,-83.5 419.5,-60.5 325.5,-60.5"/>
<text text-anchor="middle" x="372.5" y="-68.3" font-family="Helvetica,sans-Serif" font-size="14.00">QStringList</text>
</a>
</g>
</g>
<!-- Node13&#45;&gt;Node19 -->
<g id="edge28" class="edge">
<title>Node13&#45;&gt;Node19</title>
<path fill="none" stroke="midnightblue" d="M464.22,-120.5C446.88,-111.52 421.71,-98.48 402.12,-88.34"/>
<polygon fill="midnightblue" stroke="midnightblue" points="403.5,-85.11 393.01,-83.62 400.28,-91.33 403.5,-85.11"/>
</g>
<!-- Node17 -->
<g id="node17" class="node">
<title>Node17</title>
<g id="a_node17"><a xlink:title=" ">
<polygon fill="none" stroke="#bfbfbf" points="233.5,-0.5 233.5,-23.5 307.5,-23.5 307.5,-0.5 233.5,-0.5"/>
<text text-anchor="middle" x="270.5" y="-8.3" font-family="Helvetica,sans-Serif" font-size="14.00">QDebug</text>
</a>
</g>
</g>
<!-- Node16&#45;&gt;Node17 -->
<g id="edge25" class="edge">
<title>Node16&#45;&gt;Node17</title>
<path fill="none" stroke="midnightblue" d="M270.5,-60.36C270.5,-52.92 270.5,-42.74 270.5,-33.73"/>
<polygon fill="midnightblue" stroke="midnightblue" points="274,-33.57 270.5,-23.57 267,-33.57 274,-33.57"/>
</g>
<!-- Node16&#45;&gt;Node18 -->
<g id="edge26" class="edge">
<title>Node16&#45;&gt;Node18</title>
<path fill="none" stroke="midnightblue" d="M307.6,-61.84C310.6,-61.19 313.6,-60.57 316.5,-60 410.49,-41.69 521.64,-26.41 582.34,-18.6"/>
<polygon fill="midnightblue" stroke="midnightblue" points="582.88,-22.06 592.35,-17.32 581.99,-15.12 582.88,-22.06"/>
</g>
<!-- Node20&#45;&gt;Node7 -->
<g id="edge30" class="edge">
<title>Node20&#45;&gt;Node7</title>
<path fill="none" stroke="midnightblue" d="M694.74,-120.36C699.34,-112.51 705.73,-101.62 711.21,-92.25"/>
<polygon fill="midnightblue" stroke="midnightblue" points="714.27,-93.97 716.3,-83.57 708.23,-90.43 714.27,-93.97"/>
</g>
</g>
</svg>
