<?xml version="1.0" encoding="UTF-8" standalone="no"?>
<!DOCTYPE svg PUBLIC "-//W3C//DTD SVG 1.1//EN"
 "http://www.w3.org/Graphics/SVG/1.1/DTD/svg11.dtd">
<!-- Generated by graphviz version 2.50.0 (0)
 -->
<!-- Title: DriverDefinition.h Pages: 1 -->
<!--zoomable 407 -->
<svg id="main" version="1.1" xmlns="http://www.w3.org/2000/svg" xmlns:xlink="http://www.w3.org/1999/xlink" xml:space="preserve" onload="init(evt)">
<style><![CDATA[
text { fill: #e6e6e6 !important; }
polygon { fill: #2f2f2f !important; stroke: #9aa0a6 !important; }
path, line, polyline { stroke: #4e67d6 !important; }
]]></style>
<style><![CDATA[
text { fill: #e6e6e6 !important; }
polygon { fill: #2f2f2f !important; stroke: #9aa0a6 !important; }
path, line, polyline { stroke: #4e67d6 !important; }
]]></style>
<style><![CDATA[
text { fill: #e6e6e6 !important; }
polygon { fill: #2f2f2f !important; stroke: #9aa0a6 !important; }
path, line, polyline { stroke: #4e67d6 !important; }
]]></style>
<style><![CDATA[
text { fill: #e6e6e6 !important; }
polygon { fill: #2f2f2f !important; stroke: #9aa0a6 !important; }
path, line, polyline { stroke: #4e67d6 !important; }
]]></style>
<style><![CDATA[
text { fill: #e6e6e6 !important; }
polygon { fill: #2f2f2f !important; stroke: #9aa0a6 !important; }
path, line, polyline { stroke: #4e67d6 !important; }
]]></style>
<style><![CDATA[
text { fill: #e6e6e6 !important; }
polygon { fill: #2f2f2f !important; stroke: #9aa0a6 !important; }
path, line, polyline { stroke: #4e67d6 !important; }
]]></style>
<style><![CDATA[
text { fill: #e6e6e6 !important; }
polygon { fill: #2f2f2f !important; stroke: #9aa0a6 !important; }
path, line, polyline { stroke: #4e67d6 !important; }
]]></style>
<style><![CDATA[
text { fill: #e6e6e6 !important; }
polygon { fill: #2f2f2f !important; stroke: #9aa0a6 !important; }
path, line, polyline { stroke: #4e67d6 !important; }
]]></style>
<style><![CDATA[
text { fill: #e6e6e6 !important; }
polygon { fill: #2f2f2f !important; stroke: #9aa0a6 !important; }
path, line, polyline { stroke: #4e67d6 !important; }
]]></style>
<style><![CDATA[
text { fill: #e6e6e6 !important; }
polygon { fill: #2f2f2f !important; stroke: #9aa0a6 !important; }
path, line, polyline { stroke: #4e67d6 !important; }
]]></style>
<style><![CDATA[
text { fill: #e6e6e6 !important; }
polygon { fill: #2f2f2f !important; stroke: #9aa0a6 !important; }
path, line, polyline { stroke: #4e67d6 !important; }
]]></style>
<style><![CDATA[
text { fill: #e6e6e6 !important; }
polygon { fill: #2f2f2f !important; stroke: #9aa0a6 !important; }
path, line, polyline { stroke: #4e67d6 !important; }
]]></style>
<style><![CDATA[
text { fill: #e6e6e6 !important; }
polygon { fill: #2f2f2f !important; stroke: #9aa0a6 !important; }
path, line, polyline { stroke: #4e67d6 !important; }
]]></style>
<style><![CDATA[
text { fill: #e6e6e6 !important; }
polygon { fill: #2f2f2f !important; stroke: #9aa0a6 !important; }
path, line, polyline { stroke: #4e67d6 !important; }
]]></style>
<style><![CDATA[
text { fill: #e6e6e6 !important; }
polygon { fill: #2f2f2f !important; stroke: #9aa0a6 !important; }
path, line, polyline { stroke: #4e67d6 !important; }
]]></style>
<style><![CDATA[
text { fill: #e6e6e6 !important; }
polygon { fill: #2f2f2f !important; stroke: #9aa0a6 !important; }
path, line, polyline { stroke: #4e67d6 !important; }
]]></style>
<style><![CDATA[
text { fill: #e6e6e6 !important; }
polygon { fill: #2f2f2f !important; stroke: #9aa0a6 !important; }
path, line, polyline { stroke: #4e67d6 !important; }
]]></style>
<style><![CDATA[
text { fill: #e6e6e6 !important; }
polygon { fill: #2f2f2f !important; stroke: #9aa0a6 !important; }
path, line, polyline { stroke: #4e67d6 !important; }
]]></style>
<style><![CDATA[
text { fill: #e6e6e6 !important; }
polygon { fill: #2f2f2f !important; stroke: #9aa0a6 !important; }
path, line, polyline { stroke: #4e67d6 !important; }
]]></style>
<style><![CDATA[
text { fill: #e6e6e6 !important; }
polygon { fill: #2f2f2f !important; stroke: #9aa0a6 !important; }
path, line, polyline { stroke: #4e67d6 !important; }
]]></style>
<style><![CDATA[
text { fill: #e6e6e6 !important; }
polygon { fill: #2f2f2f !important; stroke: #9aa0a6 !important; }
path, line, polyline { stroke: #4e67d6 !important; }
]]></style>
<style><![CDATA[
text { fill: #e6e6e6 !important; }
polygon { fill: #2f2f2f !important; stroke: #9aa0a6 !important; }
path, line, polyline { stroke: #4e67d6 !important; }
]]></style>
<style><![CDATA[
text { fill: #e6e6e6 !important; }
polygon { fill: #2f2f2f !important; stroke: #9aa0a6 !important; }
path, line, polyline { stroke: #4e67d6 !important; }
]]></style>
<style><![CDATA[
text { fill: #e6e6e6 !important; }
polygon { fill: #2f2f2f !important; stroke: #9aa0a6 !important; }
path, line, polyline { stroke: #4e67d6 !important; }
]]></style>
<style><![CDATA[
text { fill: #e6e6e6 !important; }
polygon { fill: #2f2f2f !important; stroke: #9aa0a6 !important; }
path, line, polyline { stroke: #4e67d6 !important; }
]]></style>
<style><![CDATA[
text { fill: #e6e6e6 !important; }
polygon { fill: #2f2f2f !important; stroke: #9aa0a6 !important; }
path, line, polyline { stroke: #4e67d6 !important; }
]]></style>
<style><![CDATA[
text { fill: #e6e6e6 !important; }
polygon { fill: #2f2f2f !important; stroke: #9aa0a6 !important; }
path, line, polyline { stroke: #4e67d6 !important; }
]]></style>
<style><![CDATA[
text { fill: #e6e6e6 !important; }
polygon { fill: #2f2f2f !important; stroke: #9aa0a6 !important; }
path, line, polyline { stroke: #4e67d6 !important; }
]]></style>
<style><![CDATA[
text { fill: #e6e6e6 !important; }
polygon { fill: #2f2f2f !important; stroke: #9aa0a6 !important; }
path, line, polyline { stroke: #4e67d6 !important; }
]]></style>
<style><![CDATA[
text { fill: #e6e6e6 !important; }
polygon { fill: #2f2f2f !important; stroke: #9aa0a6 !important; }
path, line, polyline { stroke: #4e67d6 !important; }
]]></style>
<style><![CDATA[
text { fill: #e6e6e6 !important; }
polygon { fill: #2f2f2f !important; stroke: #9aa0a6 !important; }
path, line, polyline { stroke: #4e67d6 !important; }
]]></style>
<style><![CDATA[
text { fill: #e6e6e6 !important; }
polygon { fill: #2f2f2f !important; stroke: #9aa0a6 !important; }
path, line, polyline { stroke: #4e67d6 !important; }
]]></style>
<style><![CDATA[
text { fill: #e6e6e6 !important; }
polygon { fill: #2f2f2f !important; stroke: #9aa0a6 !important; }
path, line, polyline { stroke: #4e67d6 !important; }
]]></style>
<style><![CDATA[
text { fill: #e6e6e6 !important; }
polygon { fill: #2f2f2f !important; stroke: #9aa0a6 !important; }
path, line, polyline { stroke: #4e67d6 !important; }
]]></style>
<style><![CDATA[
text { fill: #e6e6e6 !important; }
polygon { fill: #2f2f2f !important; stroke: #9aa0a6 !important; }
path, line, polyline { stroke: #4e67d6 !important; }
]]></style>
<style><![CDATA[
text { fill: #e6e6e6 !important; }
polygon { fill: #2f2f2f !important; stroke: #9aa0a6 !important; }
path, line, polyline { stroke: #4e67d6 !important; }
]]></style>
<style><![CDATA[
text { fill: #e6e6e6 !important; }
polygon { fill: #2f2f2f !important; stroke: #9aa0a6 !important; }
path, line, polyline { stroke: #4e67d6 !important; }
]]></style>
<style><![CDATA[
text { fill: #e6e6e6 !important; }
polygon { fill: #2f2f2f !important; stroke: #9aa0a6 !important; }
path, line, polyline { stroke: #4e67d6 !important; }
]]></style>
<style><![CDATA[
text { fill: #e6e6e6 !important; }
polygon { fill: #2f2f2f !important; stroke: #9aa0a6 !important; }
path, line, polyline { stroke: #4e67d6 !important; }
]]></style>
<style><![CDATA[
text { fill: #e6e6e6 !important; }
polygon { fill: #2f2f2f !important; stroke: #9aa0a6 !important; }
path, line, polyline { stroke: #4e67d6 !important; }
]]></style>
<style><![CDATA[
text { fill: #e6e6e6 !important; }
polygon { fill: #2f2f2f !important; stroke: #9aa0a6 !important; }
path, line, polyline { stroke: #4e67d6 !important; }
]]></style>
<style><![CDATA[
text { fill: #e6e6e6 !important; }
polygon { fill: #2f2f2f !important; stroke: #9aa0a6 !important; }
path, line, polyline { stroke: #4e67d6 !important; }
]]></style>
<style><![CDATA[
text { fill: #e6e6e6 !important; }
polygon { fill: #2f2f2f !important; stroke: #9aa0a6 !important; }
path, line, polyline { stroke: #4e67d6 !important; }
]]></style>
<style><![CDATA[
text { fill: #e6e6e6 !important; }
polygon { fill: #2f2f2f !important; stroke: #9aa0a6 !important; }
path, line, polyline { stroke: #4e67d6 !important; }
]]></style>
<style><![CDATA[
text { fill: #e6e6e6 !important; }
polygon { fill: #2f2f2f !important; stroke: #9aa0a6 !important; }
path, line, polyline { stroke: #4e67d6 !important; }
]]></style>
<style><![CDATA[
text { fill: #e6e6e6 !important; }
polygon { fill: #2f2f2f !important; stroke: #9aa0a6 !important; }
path, line, polyline { stroke: #4e67d6 !important; }
]]></style>
<style><![CDATA[
text { fill: #e6e6e6 !important; }
polygon { fill: #2f2f2f !important; stroke: #9aa0a6 !important; }
path, line, polyline { stroke: #4e67d6 !important; }
]]></style>
<style><![CDATA[
text { fill: #e6e6e6 !important; }
polygon { fill: #2f2f2f !important; stroke: #9aa0a6 !important; }
path, line, polyline { stroke: #4e67d6 !important; }
]]></style>
<style><![CDATA[
text { fill: #e6e6e6 !important; }
polygon { fill: #2f2f2f !important; stroke: #9aa0a6 !important; }
path, line, polyline { stroke: #4e67d6 !important; }
]]></style>
<style><![CDATA[
text { fill: #e6e6e6 !important; }
polygon { fill: #2f2f2f !important; stroke: #9aa0a6 !important; }
path, line, polyline { stroke: #4e67d6 !important; }
]]></style>
<style><![CDATA[
text { fill: #e6e6e6 !important; }
polygon { fill: #2f2f2f !important; stroke: #9aa0a6 !important; }
path, line, polyline { stroke: #4e67d6 !important; }
]]></style>
<style><![CDATA[
text { fill: #e6e6e6 !important; }
polygon { fill: #2f2f2f !important; stroke: #9aa0a6 !important; }
path, line, polyline { stroke: #4e67d6 !important; }
]]></style>
<style><![CDATA[
text { fill: #e6e6e6 !important; }
polygon { fill: #2f2f2f !important; stroke: #9aa0a6 !important; }
path, line, polyline { stroke: #4e67d6 !important; }
]]></style>
<style><![CDATA[
text { fill: #e6e6e6 !important; }
polygon { fill: #2f2f2f !important; stroke: #9aa0a6 !important; }
path, line, polyline { stroke: #4e67d6 !important; }
]]></style>
<style><![CDATA[
text { fill: #e6e6e6 !important; }
polygon { fill: #2f2f2f !important; stroke: #9aa0a6 !important; }
path, line, polyline { stroke: #4e67d6 !important; }
]]></style>
<style><![CDATA[
text { fill: #e6e6e6 !important; }
polygon { fill: #2f2f2f !important; stroke: #9aa0a6 !important; }
path, line, polyline { stroke: #4e67d6 !important; }
]]></style>
<style><![CDATA[
text { fill: #e6e6e6 !important; }
polygon { fill: #2f2f2f !important; stroke: #9aa0a6 !important; }
path, line, polyline { stroke: #4e67d6 !important; }
]]></style>
<style><![CDATA[
text { fill: #e6e6e6 !important; }
polygon { fill: #2f2f2f !important; stroke: #9aa0a6 !important; }
path, line, polyline { stroke: #4e67d6 !important; }
]]></style>
<style type="text/css"><![CDATA[
.edge:hover path { stroke: red; }
.edge:hover polygon { stroke: red; fill: red; }
]]></style>
<script type="text/javascript"><![CDATA[
var edges = document.getElementsByTagName('g');
if (edges && edges.length) {
  for (var i=0;i<edges.length;i++) {
    if (edges[i].id.substr(0,4)=='edge') {
      edges[i].setAttribute('class','edge');
    }
  }
}
]]></script>
        <defs>
                <circle id="rim" cx="0" cy="0" r="7"/>
                <circle id="rim2" cx="0" cy="0" r="3.5"/>
                <g id="zoomPlus">
                        <use xlink:href="#rim" fill="#404040">
                                <set attributeName="fill" to="#808080" begin="zoomplus.mouseover" end="zoomplus.mouseout"/>
                        </use>
                        <path d="M-4,0h8M0,-4v8" fill="none" stroke="white" stroke-width="1.5" pointer-events="none"/>
                </g>
                <g id="zoomMin">
                        <use xlink:href="#rim" fill="#404040">
                                <set attributeName="fill" to="#808080" begin="zoomminus.mouseover" end="zoomminus.mouseout"/>
                        </use>
                        <path d="M-4,0h8" fill="none" stroke="white" stroke-width="1.5" pointer-events="none"/>
                </g>
                <g id="dirArrow">
                        <path fill="none" stroke="white" stroke-width="1.5" d="M0,-3.0v7 M-2.5,-0.5L0,-3.0L2.5,-0.5"/>
                </g>
               <g id="resetDef">
                       <use xlink:href="#rim2" fill="#404040">
                               <set attributeName="fill" to="#808080" begin="reset.mouseover" end="reset.mouseout"/>
                       </use>
               </g>
        </defs>

<script type="text/javascript">
var viewWidth = 2592;
var viewHeight = 407;
var sectionId = 'dynsection-1';
</script>
<script xlink:href="svgpan.js"/>
<svg id="graph" class="graph">
<g id="viewport">
<title>DriverDefinition.h</title>
<!-- Node1 -->
<g id="node1" class="node">
<title>Node1</title>
<g id="a_node1"><a xlink:title="Driver implementation for Definition.">
<polygon fill="#bfbfbf" stroke="black" points="1027,-375.5 1027,-398.5 1167,-398.5 1167,-375.5 1027,-375.5"/>
<text text-anchor="middle" x="1097" y="-383.3" font-family="Helvetica,sans-Serif" font-size="14.00">DriverDefinition.h</text>
</a>
</g>
</g>
<!-- Node2 -->
<g id="node2" class="node">
<title>Node2</title>
<g id="a_node2"><a xlink:href="Driver_8h.html" target="_top" xlink:title="Driver implementation for .">
<polygon fill="none" stroke="black" points="1061.5,-315.5 1061.5,-338.5 1132.5,-338.5 1132.5,-315.5 1061.5,-315.5"/>
<text text-anchor="middle" x="1097" y="-323.3" font-family="Helvetica,sans-Serif" font-size="14.00">Driver.h</text>
</a>
</g>
</g>
<!-- Node1&#45;&gt;Node2 -->
<g id="edge1" class="edge">
<title>Node1&#45;&gt;Node2</title>
<path fill="none" stroke="midnightblue" d="M1097,-365.19C1097,-356.17 1097,-345.99 1097,-338.57"/>
<polygon fill="midnightblue" stroke="midnightblue" points="1093.5,-365.36 1097,-375.36 1100.5,-365.36 1093.5,-365.36"/>
</g>
<!-- Node3 -->
<g id="node3" class="node">
<title>Node3</title>
<g id="a_node3"><a xlink:href="Driver_8cpp.html" target="_top" xlink:title="Driver implementation for .">
<polygon fill="none" stroke="black" points="796,-188 796,-211 884,-211 884,-188 796,-188"/>
<text text-anchor="middle" x="840" y="-195.8" font-family="Helvetica,sans-Serif" font-size="14.00">Driver.cpp</text>
</a>
</g>
</g>
<!-- Node2&#45;&gt;Node3 -->
<g id="edge2" class="edge">
<title>Node2&#45;&gt;Node3</title>
<path fill="none" stroke="midnightblue" d="M1051.11,-323.58C1009.09,-319.47 946.68,-308.46 901,-279 874.17,-261.7 854.26,-228.41 845.28,-211.27"/>
<polygon fill="midnightblue" stroke="midnightblue" points="1051.06,-327.09 1061.33,-324.48 1051.67,-320.11 1051.06,-327.09"/>
</g>
<!-- Node4 -->
<g id="node4" class="node">
<title>Node4</title>
<g id="a_node4"><a xlink:href="DriverMicos__Pollux_8h.html" target="_top" xlink:title="Driver implementation for Micos Pollux.">
<polygon fill="none" stroke="black" points="40,-255.5 40,-278.5 200,-278.5 200,-255.5 40,-255.5"/>
<text text-anchor="middle" x="120" y="-263.3" font-family="Helvetica,sans-Serif" font-size="14.00">DriverMicos_Pollux.h</text>
</a>
</g>
</g>
<!-- Node2&#45;&gt;Node4 -->
<g id="edge3" class="edge">
<title>Node2&#45;&gt;Node4</title>
<path fill="none" stroke="midnightblue" d="M1051.32,-324.71C920.12,-320.77 530.92,-307.38 209,-279 206.05,-278.74 203.05,-278.46 200.03,-278.16"/>
<polygon fill="midnightblue" stroke="midnightblue" points="1051.31,-328.21 1061.41,-325.01 1051.52,-321.22 1051.31,-328.21"/>
</g>
<!-- Node6 -->
<g id="node6" class="node">
<title>Node6</title>
<g id="a_node6"><a xlink:href="DriverNewFocus__8750__Cl_8h.html" target="_top" xlink:title="Driver implementation for New Focus 8750 Cl.">
<polygon fill="none" stroke="black" points="218,-255.5 218,-278.5 424,-278.5 424,-255.5 218,-255.5"/>
<text text-anchor="middle" x="321" y="-263.3" font-family="Helvetica,sans-Serif" font-size="14.00">DriverNewFocus_8750_Cl.h</text>
</a>
</g>
</g>
<!-- Node2&#45;&gt;Node6 -->
<g id="edge6" class="edge">
<title>Node2&#45;&gt;Node6</title>
<path fill="none" stroke="midnightblue" d="M1051.14,-323.19C943.28,-316.47 665.08,-298.61 433,-279 430.08,-278.75 427.12,-278.5 424.13,-278.24"/>
<polygon fill="midnightblue" stroke="midnightblue" points="1051.15,-326.69 1061.34,-323.82 1051.58,-319.71 1051.15,-326.69"/>
</g>
<!-- Node8 -->
<g id="node8" class="node">
<title>Node8</title>
<g id="a_node8"><a xlink:href="DriverNewFocus__8750__Ol_8h.html" target="_top" xlink:title="Driver implementation for New Focus 8750 Ol.">
<polygon fill="none" stroke="black" points="442.5,-255.5 442.5,-278.5 649.5,-278.5 649.5,-255.5 442.5,-255.5"/>
<text text-anchor="middle" x="546" y="-263.3" font-family="Helvetica,sans-Serif" font-size="14.00">DriverNewFocus_8750_Ol.h</text>
</a>
</g>
</g>
<!-- Node2&#45;&gt;Node8 -->
<g id="edge9" class="edge">
<title>Node2&#45;&gt;Node8</title>
<path fill="none" stroke="midnightblue" d="M1051.28,-321.19C962.78,-311.87 766.2,-291.18 646,-278.53"/>
<polygon fill="midnightblue" stroke="midnightblue" points="1050.96,-324.67 1061.27,-322.24 1051.69,-317.71 1050.96,-324.67"/>
</g>
<!-- Node10 -->
<g id="node10" class="node">
<title>Node10</title>
<g id="a_node10"><a xlink:href="DriverNewPort__AGUC2_8h.html" target="_top" xlink:title="This file provides a class implementing a AGUC2 driver for a non specified controller using only the ...">
<polygon fill="none" stroke="black" points="668,-255.5 668,-278.5 854,-278.5 854,-255.5 668,-255.5"/>
<text text-anchor="middle" x="761" y="-263.3" font-family="Helvetica,sans-Serif" font-size="14.00">DriverNewPort_AGUC2.h</text>
</a>
</g>
</g>
<!-- Node2&#45;&gt;Node10 -->
<g id="edge12" class="edge">
<title>Node2&#45;&gt;Node10</title>
<path fill="none" stroke="midnightblue" d="M1051.16,-318.09C991.77,-307.83 888.03,-289.93 822.02,-278.53"/>
<polygon fill="midnightblue" stroke="midnightblue" points="1050.91,-321.6 1061.36,-319.85 1052.1,-314.7 1050.91,-321.6"/>
</g>
<!-- Node12 -->
<g id="node12" class="node">
<title>Node12</title>
<g id="a_node12"><a xlink:href="DriverNewPort__NSC200_8h.html" target="_top" xlink:title="Driver implementation for New Port NSC 200.">
<polygon fill="none" stroke="black" points="910,-255.5 910,-278.5 1104,-278.5 1104,-255.5 910,-255.5"/>
<text text-anchor="middle" x="1007" y="-263.3" font-family="Helvetica,sans-Serif" font-size="14.00">DriverNewPort_NSC200.h</text>
</a>
</g>
</g>
<!-- Node2&#45;&gt;Node12 -->
<g id="edge15" class="edge">
<title>Node2&#45;&gt;Node12</title>
<path fill="none" stroke="midnightblue" d="M1071.9,-309.82C1056.39,-299.83 1036.95,-287.3 1023.4,-278.57"/>
<polygon fill="midnightblue" stroke="midnightblue" points="1070.19,-312.89 1080.49,-315.36 1073.98,-307 1070.19,-312.89"/>
</g>
<!-- Node14 -->
<g id="node14" class="node">
<title>Node14</title>
<g id="a_node14"><a xlink:href="DriverPI__C509_8h.html" target="_top" xlink:title="Driver implementation for PI C 509.">
<polygon fill="none" stroke="black" points="1122.5,-255.5 1122.5,-278.5 1251.5,-278.5 1251.5,-255.5 1122.5,-255.5"/>
<text text-anchor="middle" x="1187" y="-263.3" font-family="Helvetica,sans-Serif" font-size="14.00">DriverPI_C509.h</text>
</a>
</g>
</g>
<!-- Node2&#45;&gt;Node14 -->
<g id="edge18" class="edge">
<title>Node2&#45;&gt;Node14</title>
<path fill="none" stroke="midnightblue" d="M1122.1,-309.82C1137.61,-299.83 1157.05,-287.3 1170.6,-278.57"/>
<polygon fill="midnightblue" stroke="midnightblue" points="1120.02,-307 1113.51,-315.36 1123.81,-312.89 1120.02,-307"/>
</g>
<!-- Node16 -->
<g id="node16" class="node">
<title>Node16</title>
<g id="a_node16"><a xlink:href="DriverPI__C862_8h.html" target="_top" xlink:title="Driver implementation for PI C 862.">
<polygon fill="none" stroke="black" points="1269.5,-255.5 1269.5,-278.5 1398.5,-278.5 1398.5,-255.5 1269.5,-255.5"/>
<text text-anchor="middle" x="1334" y="-263.3" font-family="Helvetica,sans-Serif" font-size="14.00">DriverPI_C862.h</text>
</a>
</g>
</g>
<!-- Node2&#45;&gt;Node16 -->
<g id="edge21" class="edge">
<title>Node2&#45;&gt;Node16</title>
<path fill="none" stroke="midnightblue" d="M1142.6,-314.84C1185.33,-304.38 1248.76,-288.86 1290.72,-278.59"/>
<polygon fill="midnightblue" stroke="midnightblue" points="1141.62,-311.48 1132.74,-317.25 1143.28,-318.28 1141.62,-311.48"/>
</g>
<!-- Node18 -->
<g id="node18" class="node">
<title>Node18</title>
<g id="a_node18"><a xlink:href="DriverPI__E725_8h.html" target="_top" xlink:title="Driver implementation for PI E 725.">
<polygon fill="none" stroke="black" points="1417,-255.5 1417,-278.5 1545,-278.5 1545,-255.5 1417,-255.5"/>
<text text-anchor="middle" x="1481" y="-263.3" font-family="Helvetica,sans-Serif" font-size="14.00">DriverPI_E725.h</text>
</a>
</g>
</g>
<!-- Node2&#45;&gt;Node18 -->
<g id="edge24" class="edge">
<title>Node2&#45;&gt;Node18</title>
<path fill="none" stroke="midnightblue" d="M1142.78,-319.09C1210.88,-308.8 1339.14,-289.43 1416.65,-277.72"/>
<polygon fill="midnightblue" stroke="midnightblue" points="1142.15,-315.64 1132.78,-320.6 1143.19,-322.56 1142.15,-315.64"/>
</g>
<!-- Node20 -->
<g id="node20" class="node">
<title>Node20</title>
<g id="a_node20"><a xlink:href="DriverStanda__uSMC_8h.html" target="_top" xlink:title="This file provides a class implementing a AGUC2 driver for a non specified controller using only the ...">
<polygon fill="none" stroke="black" points="1801,-255.5 1801,-278.5 1969,-278.5 1969,-255.5 1801,-255.5"/>
<text text-anchor="middle" x="1885" y="-263.3" font-family="Helvetica,sans-Serif" font-size="14.00">DriverStanda_uSMC.h</text>
</a>
</g>
</g>
<!-- Node2&#45;&gt;Node20 -->
<g id="edge27" class="edge">
<title>Node2&#45;&gt;Node20</title>
<path fill="none" stroke="midnightblue" d="M1142.77,-322.84C1249.18,-315.46 1521.49,-296.4 1749,-279 1765.77,-277.72 1783.7,-276.3 1800.85,-274.92"/>
<polygon fill="midnightblue" stroke="midnightblue" points="1142.43,-319.35 1132.7,-323.54 1142.92,-326.34 1142.43,-319.35"/>
</g>
<!-- Node22 -->
<g id="node22" class="node">
<title>Node22</title>
<g id="a_node22"><a xlink:href="DriverStanda__uSMC2_8h.html" target="_top" xlink:title="This file provides a class implementing a USMC driver for a non specified controller using only the c...">
<polygon fill="none" stroke="black" points="1563.5,-255.5 1563.5,-278.5 1740.5,-278.5 1740.5,-255.5 1563.5,-255.5"/>
<text text-anchor="middle" x="1652" y="-263.3" font-family="Helvetica,sans-Serif" font-size="14.00">DriverStanda_uSMC2.h</text>
</a>
</g>
</g>
<!-- Node2&#45;&gt;Node22 -->
<g id="edge29" class="edge">
<title>Node2&#45;&gt;Node22</title>
<path fill="none" stroke="midnightblue" d="M1142.58,-321.45C1224.8,-313.22 1403.42,-295.19 1554,-279 1557.06,-278.67 1560.18,-278.33 1563.33,-277.99"/>
<polygon fill="midnightblue" stroke="midnightblue" points="1142.17,-317.98 1132.57,-322.46 1142.86,-324.94 1142.17,-317.98"/>
</g>
<!-- Node24 -->
<g id="node24" class="node">
<title>Node24</title>
<g id="a_node24"><a xlink:href="Motor_8h.html" target="_top" xlink:title="Motor device interface.">
<polygon fill="none" stroke="black" points="2186,-255.5 2186,-278.5 2254,-278.5 2254,-255.5 2186,-255.5"/>
<text text-anchor="middle" x="2220" y="-263.3" font-family="Helvetica,sans-Serif" font-size="14.00">Motor.h</text>
</a>
</g>
</g>
<!-- Node2&#45;&gt;Node24 -->
<g id="edge32" class="edge">
<title>Node2&#45;&gt;Node24</title>
<path fill="none" stroke="midnightblue" d="M1143.03,-323.62C1329.14,-314.01 2023.69,-278.14 2185.95,-269.76"/>
<polygon fill="midnightblue" stroke="midnightblue" points="1142.58,-320.14 1132.78,-324.15 1142.94,-327.13 1142.58,-320.14"/>
</g>
<!-- Node4&#45;&gt;Node3 -->
<g id="edge4" class="edge">
<title>Node4&#45;&gt;Node3</title>
<path fill="none" stroke="midnightblue" d="M210.02,-254.97C466.63,-232.18 537.19,-268.45 786,-219 795.23,-217.16 805.05,-214.14 813.75,-211.07"/>
<polygon fill="midnightblue" stroke="midnightblue" points="209.67,-251.48 200.03,-255.88 210.3,-258.46 209.67,-251.48"/>
</g>
<!-- Node5 -->
<g id="node5" class="node">
<title>Node5</title>
<g id="a_node5"><a xlink:href="DriverMicos__Pollux_8cpp.html" target="_top" xlink:title="Driver implementation for Micos Pollux.">
<polygon fill="none" stroke="black" points="0,-188 0,-211 176,-211 176,-188 0,-188"/>
<text text-anchor="middle" x="88" y="-195.8" font-family="Helvetica,sans-Serif" font-size="14.00">DriverMicos_Pollux.cpp</text>
</a>
</g>
</g>
<!-- Node4&#45;&gt;Node5 -->
<g id="edge5" class="edge">
<title>Node4&#45;&gt;Node5</title>
<path fill="none" stroke="midnightblue" d="M110.33,-246.21C104.71,-234.71 97.86,-220.68 93.23,-211.22"/>
<polygon fill="midnightblue" stroke="midnightblue" points="107.32,-248.03 114.86,-255.48 113.61,-244.95 107.32,-248.03"/>
</g>
<!-- Node6&#45;&gt;Node3 -->
<g id="edge7" class="edge">
<title>Node6&#45;&gt;Node3</title>
<path fill="none" stroke="midnightblue" d="M433.99,-254.9C568.86,-241.6 777.45,-220.87 786,-219 795,-217.03 804.59,-214.05 813.15,-211.05"/>
<polygon fill="midnightblue" stroke="midnightblue" points="433.62,-251.42 424.01,-255.88 434.31,-258.39 433.62,-251.42"/>
</g>
<!-- Node7 -->
<g id="node7" class="node">
<title>Node7</title>
<g id="a_node7"><a xlink:href="DriverNewFocus__8750__Cl_8cpp.html" target="_top" xlink:title="Driver implementation for New Focus 8750 Cl.">
<polygon fill="none" stroke="black" points="194,-180.5 194,-218.5 366,-218.5 366,-180.5 194,-180.5"/>
<text text-anchor="start" x="202" y="-203.3" font-family="Helvetica,sans-Serif" font-size="14.00">DriverNewFocus_8750</text>
<text text-anchor="middle" x="280" y="-188.3" font-family="Helvetica,sans-Serif" font-size="14.00">_Cl.cpp</text>
</a>
</g>
</g>
<!-- Node6&#45;&gt;Node7 -->
<g id="edge8" class="edge">
<title>Node6&#45;&gt;Node7</title>
<path fill="none" stroke="midnightblue" d="M309.06,-246.93C303.49,-238.02 296.88,-227.46 291.37,-218.67"/>
<polygon fill="midnightblue" stroke="midnightblue" points="306.14,-248.86 314.41,-255.48 312.07,-245.14 306.14,-248.86"/>
</g>
<!-- Node8&#45;&gt;Node3 -->
<g id="edge10" class="edge">
<title>Node8&#45;&gt;Node3</title>
<path fill="none" stroke="midnightblue" d="M622.41,-253.78C669.87,-245.52 731.92,-233.49 786,-219 794.42,-216.74 803.44,-213.85 811.64,-211.03"/>
<polygon fill="midnightblue" stroke="midnightblue" points="621.78,-250.34 612.52,-255.49 622.96,-257.24 621.78,-250.34"/>
</g>
<!-- Node9 -->
<g id="node9" class="node">
<title>Node9</title>
<g id="a_node9"><a xlink:href="DriverNewFocus__8750__Ol_8cpp.html" target="_top" xlink:title="Driver implementation for New Focus 8750 Ol.">
<polygon fill="none" stroke="black" points="384,-180.5 384,-218.5 556,-218.5 556,-180.5 384,-180.5"/>
<text text-anchor="start" x="392" y="-203.3" font-family="Helvetica,sans-Serif" font-size="14.00">DriverNewFocus_8750</text>
<text text-anchor="middle" x="470" y="-188.3" font-family="Helvetica,sans-Serif" font-size="14.00">_Ol.cpp</text>
</a>
</g>
</g>
<!-- Node8&#45;&gt;Node9 -->
<g id="edge11" class="edge">
<title>Node8&#45;&gt;Node9</title>
<path fill="none" stroke="midnightblue" d="M526.13,-248.87C515.35,-239.59 502.04,-228.11 491.08,-218.67"/>
<polygon fill="midnightblue" stroke="midnightblue" points="523.93,-251.6 533.79,-255.48 528.5,-246.3 523.93,-251.6"/>
</g>
<!-- Node10&#45;&gt;Node3 -->
<g id="edge13" class="edge">
<title>Node10&#45;&gt;Node3</title>
<path fill="none" stroke="midnightblue" d="M781.58,-248.94C795.97,-237.01 814.74,-221.44 827.08,-211.22"/>
<polygon fill="midnightblue" stroke="midnightblue" points="779.16,-246.4 773.69,-255.48 783.62,-251.79 779.16,-246.4"/>
</g>
<!-- Node11 -->
<g id="node11" class="node">
<title>Node11</title>
<g id="a_node11"><a xlink:href="DriverNewPort__AGUC2_8cpp.html" target="_top" xlink:title="This file provides a AGUC2 class implementing a driver for a non specified controller only the Custom...">
<polygon fill="none" stroke="black" points="574.5,-188 574.5,-211 777.5,-211 777.5,-188 574.5,-188"/>
<text text-anchor="middle" x="676" y="-195.8" font-family="Helvetica,sans-Serif" font-size="14.00">DriverNewPort_AGUC2.cpp</text>
</a>
</g>
</g>
<!-- Node10&#45;&gt;Node11 -->
<g id="edge14" class="edge">
<title>Node10&#45;&gt;Node11</title>
<path fill="none" stroke="midnightblue" d="M739.29,-249.27C723.76,-237.3 703.3,-221.54 689.91,-211.22"/>
<polygon fill="midnightblue" stroke="midnightblue" points="737.29,-252.14 747.34,-255.48 741.56,-246.6 737.29,-252.14"/>
</g>
<!-- Node12&#45;&gt;Node3 -->
<g id="edge16" class="edge">
<title>Node12&#45;&gt;Node3</title>
<path fill="none" stroke="midnightblue" d="M970.54,-251.7C939.34,-239.46 895.16,-222.13 867.04,-211.11"/>
<polygon fill="midnightblue" stroke="midnightblue" points="969.58,-255.08 980.17,-255.48 972.14,-248.57 969.58,-255.08"/>
</g>
<!-- Node13 -->
<g id="node13" class="node">
<title>Node13</title>
<g id="a_node13"><a xlink:href="DriverNewPort__NSC200_8cpp.html" target="_top" xlink:title="Driver implementation for New Port NSC 200.">
<polygon fill="none" stroke="black" points="902,-188 902,-211 1112,-211 1112,-188 902,-188"/>
<text text-anchor="middle" x="1007" y="-195.8" font-family="Helvetica,sans-Serif" font-size="14.00">DriverNewPort_NSC200.cpp</text>
</a>
</g>
</g>
<!-- Node12&#45;&gt;Node13 -->
<g id="edge17" class="edge">
<title>Node12&#45;&gt;Node13</title>
<path fill="none" stroke="midnightblue" d="M1007,-245.15C1007,-233.86 1007,-220.39 1007,-211.22"/>
<polygon fill="midnightblue" stroke="midnightblue" points="1003.5,-245.48 1007,-255.48 1010.5,-245.48 1003.5,-245.48"/>
</g>
<!-- Node14&#45;&gt;Node3 -->
<g id="edge19" class="edge">
<title>Node14&#45;&gt;Node3</title>
<path fill="none" stroke="midnightblue" d="M1112.15,-254.74C1032.13,-242.59 913.88,-224.27 893,-219 884.5,-216.85 875.42,-213.93 867.23,-211.04"/>
<polygon fill="midnightblue" stroke="midnightblue" points="1111.79,-258.22 1122.2,-256.26 1112.84,-251.3 1111.79,-258.22"/>
</g>
<!-- Node15 -->
<g id="node15" class="node">
<title>Node15</title>
<g id="a_node15"><a xlink:href="DriverPI__C509_8cpp.html" target="_top" xlink:title="Driver implementation for PI C 509.">
<polygon fill="none" stroke="black" points="1130,-188 1130,-211 1276,-211 1276,-188 1130,-188"/>
<text text-anchor="middle" x="1203" y="-195.8" font-family="Helvetica,sans-Serif" font-size="14.00">DriverPI_C509.cpp</text>
</a>
</g>
</g>
<!-- Node14&#45;&gt;Node15 -->
<g id="edge20" class="edge">
<title>Node14&#45;&gt;Node15</title>
<path fill="none" stroke="midnightblue" d="M1192.01,-245.51C1194.78,-234.15 1198.12,-220.48 1200.38,-211.22"/>
<polygon fill="midnightblue" stroke="midnightblue" points="1188.54,-244.93 1189.57,-255.48 1195.34,-246.59 1188.54,-244.93"/>
</g>
<!-- Node16&#45;&gt;Node3 -->
<g id="edge22" class="edge">
<title>Node16&#45;&gt;Node3</title>
<path fill="none" stroke="midnightblue" d="M1259.51,-255.01C1095.56,-235.68 1049.93,-253.57 893,-219 884.15,-217.05 874.73,-214.08 866.33,-211.08"/>
<polygon fill="midnightblue" stroke="midnightblue" points="1259.1,-258.49 1269.45,-256.21 1259.94,-251.54 1259.1,-258.49"/>
</g>
<!-- Node17 -->
<g id="node17" class="node">
<title>Node17</title>
<g id="a_node17"><a xlink:href="DriverPI__C862_8cpp.html" target="_top" xlink:title="Driver implementation for PI C 862.">
<polygon fill="none" stroke="black" points="1294,-188 1294,-211 1440,-211 1440,-188 1294,-188"/>
<text text-anchor="middle" x="1367" y="-195.8" font-family="Helvetica,sans-Serif" font-size="14.00">DriverPI_C862.cpp</text>
</a>
</g>
</g>
<!-- Node16&#45;&gt;Node17 -->
<g id="edge23" class="edge">
<title>Node16&#45;&gt;Node17</title>
<path fill="none" stroke="midnightblue" d="M1343.97,-246.21C1349.76,-234.71 1356.84,-220.68 1361.6,-211.22"/>
<polygon fill="midnightblue" stroke="midnightblue" points="1340.68,-244.97 1339.3,-255.48 1346.93,-248.12 1340.68,-244.97"/>
</g>
<!-- Node18&#45;&gt;Node3 -->
<g id="edge25" class="edge">
<title>Node18&#45;&gt;Node3</title>
<path fill="none" stroke="midnightblue" d="M1406.88,-255.09C1177.56,-231.12 1114.13,-264.49 893,-219 883.93,-217.13 874.29,-214.11 865.76,-211.03"/>
<polygon fill="midnightblue" stroke="midnightblue" points="1406.55,-258.57 1416.86,-256.16 1407.29,-251.61 1406.55,-258.57"/>
</g>
<!-- Node19 -->
<g id="node19" class="node">
<title>Node19</title>
<g id="a_node19"><a xlink:href="DriverPI__E725_8cpp.html" target="_top" xlink:title="Driver implementation for PI E 725.">
<polygon fill="none" stroke="black" points="1458.5,-188 1458.5,-211 1603.5,-211 1603.5,-188 1458.5,-188"/>
<text text-anchor="middle" x="1531" y="-195.8" font-family="Helvetica,sans-Serif" font-size="14.00">DriverPI_E725.cpp</text>
</a>
</g>
</g>
<!-- Node18&#45;&gt;Node19 -->
<g id="edge26" class="edge">
<title>Node18&#45;&gt;Node19</title>
<path fill="none" stroke="midnightblue" d="M1495.32,-247.24C1504.23,-235.57 1515.38,-220.96 1522.82,-211.22"/>
<polygon fill="midnightblue" stroke="midnightblue" points="1492.32,-245.4 1489.03,-255.48 1497.88,-249.65 1492.32,-245.4"/>
</g>
<!-- Node21 -->
<g id="node21" class="node">
<title>Node21</title>
<g id="a_node21"><a xlink:href="DriverStanda__uSMC_8cpp.html" target="_top" xlink:title="This file provides a AGUC2 class implementing a driver for a non specified controller only the Custom...">
<polygon fill="none" stroke="black" points="1834.5,-188 1834.5,-211 2019.5,-211 2019.5,-188 1834.5,-188"/>
<text text-anchor="middle" x="1927" y="-195.8" font-family="Helvetica,sans-Serif" font-size="14.00">DriverStanda_uSMC.cpp</text>
</a>
</g>
</g>
<!-- Node20&#45;&gt;Node21 -->
<g id="edge28" class="edge">
<title>Node20&#45;&gt;Node21</title>
<path fill="none" stroke="midnightblue" d="M1897.25,-246.9C1904.7,-235.28 1913.94,-220.87 1920.13,-211.22"/>
<polygon fill="midnightblue" stroke="midnightblue" points="1894.2,-245.17 1891.75,-255.48 1900.09,-248.95 1894.2,-245.17"/>
</g>
<!-- Node22&#45;&gt;Node3 -->
<g id="edge30" class="edge">
<title>Node22&#45;&gt;Node3</title>
<path fill="none" stroke="midnightblue" d="M1553.24,-254.99C1259,-231.59 1178.39,-275.4 893,-219 883.82,-217.19 874.07,-214.13 865.47,-211.02"/>
<polygon fill="midnightblue" stroke="midnightblue" points="1553.1,-258.49 1563.35,-255.82 1553.67,-251.52 1553.1,-258.49"/>
</g>
<!-- Node23 -->
<g id="node23" class="node">
<title>Node23</title>
<g id="a_node23"><a xlink:href="DriverStanda__uSMC2_8cpp.html" target="_top" xlink:title="This file provides a USMC class implementing a driver for a non specified controller only the Custom ...">
<polygon fill="none" stroke="black" points="1622,-188 1622,-211 1816,-211 1816,-188 1622,-188"/>
<text text-anchor="middle" x="1719" y="-195.8" font-family="Helvetica,sans-Serif" font-size="14.00">DriverStanda_uSMC2.cpp</text>
</a>
</g>
</g>
<!-- Node22&#45;&gt;Node23 -->
<g id="edge31" class="edge">
<title>Node22&#45;&gt;Node23</title>
<path fill="none" stroke="midnightblue" d="M1670.14,-248.27C1682.25,-236.43 1697.78,-221.25 1708.04,-211.22"/>
<polygon fill="midnightblue" stroke="midnightblue" points="1667.47,-245.98 1662.76,-255.48 1672.36,-250.99 1667.47,-245.98"/>
</g>
<!-- Node25 -->
<g id="node25" class="node">
<title>Node25</title>
<g id="a_node25"><a xlink:href="AcquisitionThread_8h.html" target="_top" xlink:title="Acquisition worker thread.">
<polygon fill="none" stroke="black" points="2038,-188 2038,-211 2192,-211 2192,-188 2038,-188"/>
<text text-anchor="middle" x="2115" y="-195.8" font-family="Helvetica,sans-Serif" font-size="14.00">AcquisitionThread.h</text>
</a>
</g>
</g>
<!-- Node24&#45;&gt;Node25 -->
<g id="edge33" class="edge">
<title>Node24&#45;&gt;Node25</title>
<path fill="none" stroke="midnightblue" d="M2194.51,-250.1C2175.17,-238.03 2149.1,-221.77 2132.18,-211.22"/>
<polygon fill="midnightblue" stroke="midnightblue" points="2192.79,-253.15 2203.13,-255.48 2196.5,-247.21 2192.79,-253.15"/>
</g>
<!-- Node29 -->
<g id="node29" class="node">
<title>Node29</title>
<g id="a_node29"><a xlink:href="OpticsBenchUIMain_8h.html" target="_top" xlink:title="Main application window.">
<polygon fill="none" stroke="black" points="2178,-60.5 2178,-83.5 2344,-83.5 2344,-60.5 2178,-60.5"/>
<text text-anchor="middle" x="2261" y="-68.3" font-family="Helvetica,sans-Serif" font-size="14.00">OpticsBenchUIMain.h</text>
</a>
</g>
</g>
<!-- Node24&#45;&gt;Node29 -->
<g id="edge46" class="edge">
<title>Node24&#45;&gt;Node29</title>
<path fill="none" stroke="midnightblue" d="M2220.71,-245.07C2222.12,-216.34 2226.37,-163.33 2239,-120 2242.78,-107.03 2249.68,-93.12 2254.75,-83.83"/>
<polygon fill="midnightblue" stroke="midnightblue" points="2217.2,-245 2220.28,-255.14 2224.2,-245.3 2217.2,-245"/>
</g>
<!-- Node32 -->
<g id="node32" class="node">
<title>Node32</title>
<g id="a_node32"><a xlink:href="Motor_8cpp.html" target="_top" xlink:title="Motor device interface.">
<polygon fill="none" stroke="black" points="2248.5,-188 2248.5,-211 2333.5,-211 2333.5,-188 2248.5,-188"/>
<text text-anchor="middle" x="2291" y="-195.8" font-family="Helvetica,sans-Serif" font-size="14.00">Motor.cpp</text>
</a>
</g>
</g>
<!-- Node24&#45;&gt;Node32 -->
<g id="edge40" class="edge">
<title>Node24&#45;&gt;Node32</title>
<path fill="none" stroke="midnightblue" d="M2238.86,-248.6C2251.74,-236.72 2268.41,-221.34 2279.39,-211.22"/>
<polygon fill="midnightblue" stroke="midnightblue" points="2236.38,-246.12 2231.41,-255.48 2241.13,-251.27 2236.38,-246.12"/>
</g>
<!-- Node33 -->
<g id="node33" class="node">
<title>Node33</title>
<g id="a_node33"><a xlink:href="MotorControlWidget_8h.html" target="_top" xlink:title="Motor control widget.">
<polygon fill="none" stroke="black" points="2352,-188 2352,-211 2520,-211 2520,-188 2352,-188"/>
<text text-anchor="middle" x="2436" y="-195.8" font-family="Helvetica,sans-Serif" font-size="14.00">MotorControlWidget.h</text>
</a>
</g>
</g>
<!-- Node24&#45;&gt;Node33 -->
<g id="edge41" class="edge">
<title>Node24&#45;&gt;Node33</title>
<path fill="none" stroke="midnightblue" d="M2263.85,-252.7C2304.39,-240.41 2363.85,-222.38 2401.22,-211.05"/>
<polygon fill="midnightblue" stroke="midnightblue" points="2262.78,-249.37 2254.23,-255.62 2264.81,-256.07 2262.78,-249.37"/>
</g>
<!-- Node26 -->
<g id="node26" class="node">
<title>Node26</title>
<g id="a_node26"><a xlink:href="AcquisitionThread_8cpp.html" target="_top" xlink:title="Acquisition worker thread.">
<polygon fill="none" stroke="black" points="1848,-120.5 1848,-143.5 2018,-143.5 2018,-120.5 1848,-120.5"/>
<text text-anchor="middle" x="1933" y="-128.3" font-family="Helvetica,sans-Serif" font-size="14.00">AcquisitionThread.cpp</text>
</a>
</g>
</g>
<!-- Node25&#45;&gt;Node26 -->
<g id="edge34" class="edge">
<title>Node25&#45;&gt;Node26</title>
<path fill="none" stroke="midnightblue" d="M2076.14,-184.51C2042.1,-172.27 1993.38,-154.73 1962.47,-143.61"/>
<polygon fill="midnightblue" stroke="midnightblue" points="2075.16,-187.88 2085.76,-187.98 2077.53,-181.3 2075.16,-187.88"/>
</g>
<!-- Node27 -->
<g id="node27" class="node">
<title>Node27</title>
<g id="a_node27"><a xlink:href="AcquisitionWidget_8h.html" target="_top" xlink:title="Acquisition widget.">
<polygon fill="none" stroke="black" points="2036.5,-120.5 2036.5,-143.5 2191.5,-143.5 2191.5,-120.5 2036.5,-120.5"/>
<text text-anchor="middle" x="2114" y="-128.3" font-family="Helvetica,sans-Serif" font-size="14.00">AcquisitionWidget.h</text>
</a>
</g>
</g>
<!-- Node25&#45;&gt;Node27 -->
<g id="edge35" class="edge">
<title>Node25&#45;&gt;Node27</title>
<path fill="none" stroke="midnightblue" d="M2114.68,-177.65C2114.51,-166.36 2114.3,-152.89 2114.16,-143.72"/>
<polygon fill="midnightblue" stroke="midnightblue" points="2111.19,-178.03 2114.84,-187.98 2118.19,-177.92 2111.19,-178.03"/>
</g>
<!-- Node28 -->
<g id="node28" class="node">
<title>Node28</title>
<g id="a_node28"><a xlink:href="AcquisitionWidget_8cpp.html" target="_top" xlink:title="Acquisition widget.">
<polygon fill="none" stroke="black" points="1988.5,-60.5 1988.5,-83.5 2159.5,-83.5 2159.5,-60.5 1988.5,-60.5"/>
<text text-anchor="middle" x="2074" y="-68.3" font-family="Helvetica,sans-Serif" font-size="14.00">AcquisitionWidget.cpp</text>
</a>
</g>
</g>
<!-- Node27&#45;&gt;Node28 -->
<g id="edge36" class="edge">
<title>Node27&#45;&gt;Node28</title>
<path fill="none" stroke="midnightblue" d="M2100.87,-111.96C2094.36,-102.52 2086.75,-91.48 2081.29,-83.57"/>
<polygon fill="midnightblue" stroke="midnightblue" points="2098.1,-114.12 2106.66,-120.36 2103.87,-110.14 2098.1,-114.12"/>
</g>
<!-- Node27&#45;&gt;Node29 -->
<g id="edge37" class="edge">
<title>Node27&#45;&gt;Node29</title>
<path fill="none" stroke="midnightblue" d="M2150.11,-116.75C2176.07,-106.51 2210.51,-92.92 2234.08,-83.62"/>
<polygon fill="midnightblue" stroke="midnightblue" points="2148.64,-113.57 2140.62,-120.5 2151.21,-120.08 2148.64,-113.57"/>
</g>
<!-- Node30 -->
<g id="node30" class="node">
<title>Node30</title>
<g id="a_node30"><a xlink:href="CameraWindow_8cpp.html" target="_top" xlink:title="Camera backend for Window.">
<polygon fill="none" stroke="black" points="2090.5,-0.5 2090.5,-23.5 2245.5,-23.5 2245.5,-0.5 2090.5,-0.5"/>
<text text-anchor="middle" x="2168" y="-8.3" font-family="Helvetica,sans-Serif" font-size="14.00">CameraWindow.cpp</text>
</a>
</g>
</g>
<!-- Node29&#45;&gt;Node30 -->
<g id="edge38" class="edge">
<title>Node29&#45;&gt;Node30</title>
<path fill="none" stroke="midnightblue" d="M2235.06,-54.82C2219.04,-44.83 2198.95,-32.3 2184.95,-23.57"/>
<polygon fill="midnightblue" stroke="midnightblue" points="2233.61,-58.04 2243.94,-60.36 2237.31,-52.1 2233.61,-58.04"/>
</g>
<!-- Node31 -->
<g id="node31" class="node">
<title>Node31</title>
<g id="a_node31"><a xlink:href="OpticsBenchUIMain_8cpp.html" target="_top" xlink:title="Main application window.">
<polygon fill="none" stroke="black" points="2264,-0.5 2264,-23.5 2446,-23.5 2446,-0.5 2264,-0.5"/>
<text text-anchor="middle" x="2355" y="-8.3" font-family="Helvetica,sans-Serif" font-size="14.00">OpticsBenchUIMain.cpp</text>
</a>
</g>
</g>
<!-- Node29&#45;&gt;Node31 -->
<g id="edge39" class="edge">
<title>Node29&#45;&gt;Node31</title>
<path fill="none" stroke="midnightblue" d="M2286.77,-55.1C2303.03,-45.07 2323.59,-32.38 2337.87,-23.57"/>
<polygon fill="midnightblue" stroke="midnightblue" points="2284.91,-52.13 2278.24,-60.36 2288.59,-58.09 2284.91,-52.13"/>
</g>
<!-- Node34 -->
<g id="node34" class="node">
<title>Node34</title>
<g id="a_node34"><a xlink:href="MotorControlWidget_8cpp.html" target="_top" xlink:title="Motor control widget.">
<polygon fill="none" stroke="black" points="2248.5,-120.5 2248.5,-143.5 2433.5,-143.5 2433.5,-120.5 2248.5,-120.5"/>
<text text-anchor="middle" x="2341" y="-128.3" font-family="Helvetica,sans-Serif" font-size="14.00">MotorControlWidget.cpp</text>
</a>
</g>
</g>
<!-- Node33&#45;&gt;Node34 -->
<g id="edge42" class="edge">
<title>Node33&#45;&gt;Node34</title>
<path fill="none" stroke="midnightblue" d="M2412.22,-182.1C2394.8,-170.09 2371.65,-154.13 2356.54,-143.72"/>
<polygon fill="midnightblue" stroke="midnightblue" points="2410.52,-185.18 2420.74,-187.98 2414.49,-179.42 2410.52,-185.18"/>
</g>
<!-- Node35 -->
<g id="node35" class="node">
<title>Node35</title>
<g id="a_node35"><a xlink:href="MotorWindow_8h.html" target="_top" xlink:title="Motor window.">
<polygon fill="none" stroke="black" points="2452,-120.5 2452,-143.5 2576,-143.5 2576,-120.5 2452,-120.5"/>
<text text-anchor="middle" x="2514" y="-128.3" font-family="Helvetica,sans-Serif" font-size="14.00">MotorWindow.h</text>
</a>
</g>
</g>
<!-- Node33&#45;&gt;Node35 -->
<g id="edge43" class="edge">
<title>Node33&#45;&gt;Node35</title>
<path fill="none" stroke="midnightblue" d="M2456.32,-181.44C2470.52,-169.51 2489.06,-153.94 2501.24,-143.72"/>
<polygon fill="midnightblue" stroke="midnightblue" points="2453.94,-178.87 2448.53,-187.98 2458.44,-184.23 2453.94,-178.87"/>
</g>
<!-- Node35&#45;&gt;Node29 -->
<g id="edge45" class="edge">
<title>Node35&#45;&gt;Node29</title>
<path fill="none" stroke="midnightblue" d="M2458.2,-118.21C2412.77,-107.79 2349.43,-93.27 2306.9,-83.52"/>
<polygon fill="midnightblue" stroke="midnightblue" points="2457.65,-121.67 2468.18,-120.5 2459.22,-114.85 2457.65,-121.67"/>
</g>
<!-- Node36 -->
<g id="node36" class="node">
<title>Node36</title>
<g id="a_node36"><a xlink:href="MotorWindow_8cpp.html" target="_top" xlink:title="Motor window.">
<polygon fill="none" stroke="black" points="2444,-60.5 2444,-83.5 2584,-83.5 2584,-60.5 2444,-60.5"/>
<text text-anchor="middle" x="2514" y="-68.3" font-family="Helvetica,sans-Serif" font-size="14.00">MotorWindow.cpp</text>
</a>
</g>
</g>
<!-- Node35&#45;&gt;Node36 -->
<g id="edge44" class="edge">
<title>Node35&#45;&gt;Node36</title>
<path fill="none" stroke="midnightblue" d="M2514,-110.19C2514,-101.17 2514,-90.99 2514,-83.57"/>
<polygon fill="midnightblue" stroke="midnightblue" points="2510.5,-110.36 2514,-120.36 2517.5,-110.36 2510.5,-110.36"/>
</g>
</g>
</svg>
        <g id="navigator" transform="translate(0 0)" fill="#404254">
                <rect fill="#f2f5e9" fill-opacity="0.5" stroke="#606060" stroke-width=".5" x="0" y="0" width="60" height="60"/>
                <use id="zoomplus" xlink:href="#zoomPlus" x="17" y="9" onmousedown="handleZoom(evt,'in')"/>
                <use id="zoomminus" xlink:href="#zoomMin" x="42" y="9" onmousedown="handleZoom(evt,'out')"/>
                <use id="reset" xlink:href="#resetDef" x="30" y="36" onmousedown="handleReset()"/>
                <g id="arrowUp" xlink:href="#dirArrow" transform="translate(30 24)" onmousedown="handlePan(0,-1)">
                  <use xlink:href="#rim" fill="#404040">
                        <set attributeName="fill" to="#808080" begin="arrowUp.mouseover" end="arrowUp.mouseout"/>
                  </use>
                  <path fill="none" stroke="white" stroke-width="1.5" d="M0,-3.0v7 M-2.5,-0.5L0,-3.0L2.5,-0.5"/>
                </g>
                <g id="arrowRight" xlink:href="#dirArrow" transform="rotate(90) translate(36 -43)" onmousedown="handlePan(1,0)">
                  <use xlink:href="#rim" fill="#404040">
                        <set attributeName="fill" to="#808080" begin="arrowRight.mouseover" end="arrowRight.mouseout"/>
                  </use>
                  <path fill="none" stroke="white" stroke-width="1.5" d="M0,-3.0v7 M-2.5,-0.5L0,-3.0L2.5,-0.5"/>
                </g>
                <g id="arrowDown" xlink:href="#dirArrow" transform="rotate(180) translate(-30 -48)" onmousedown="handlePan(0,1)">
                  <use xlink:href="#rim" fill="#404040">
                        <set attributeName="fill" to="#808080" begin="arrowDown.mouseover" end="arrowDown.mouseout"/>
                  </use>
                  <path fill="none" stroke="white" stroke-width="1.5" d="M0,-3.0v7 M-2.5,-0.5L0,-3.0L2.5,-0.5"/>
                </g>
                <g id="arrowLeft" xlink:href="#dirArrow" transform="rotate(270) translate(-36 17)" onmousedown="handlePan(-1,0)">
                  <use xlink:href="#rim" fill="#404040">
                        <set attributeName="fill" to="#808080" begin="arrowLeft.mouseover" end="arrowLeft.mouseout"/>
                  </use>
                  <path fill="none" stroke="white" stroke-width="1.5" d="M0,-3.0v7 M-2.5,-0.5L0,-3.0L2.5,-0.5"/>
                </g>
        </g>
        <svg viewBox="0 0 15 15" width="100%" height="30px" preserveAspectRatio="xMaxYMin meet">
         <g id="arrow_out" transform="scale(0.3 0.3)">
          <a xlink:href="DriverDefinition_8h__dep__incl_org.svg" target="_base">
           <rect id="button" ry="5" rx="5" y="6" x="6" height="38" width="38"
                fill="#f2f5e9" fill-opacity="0.5" stroke="#606060" stroke-width="1.0"/>
           <path id="arrow"
             d="M 11.500037,31.436501 C 11.940474,20.09759 22.043105,11.32322 32.158766,21.979434 L 37.068811,17.246167 C 37.068811,17.246167 37.088388,32 37.088388,32 L 22.160133,31.978069 C 22.160133,31.978069 26.997745,27.140456 26.997745,27.140456 C 18.528582,18.264221 13.291696,25.230495 11.500037,31.436501 z"
             style="fill:#404040;"/>
          </a>
         </g>
        </svg>
</svg>
