<?xml version="1.0" encoding="UTF-8" standalone="no"?>
<!DOCTYPE svg PUBLIC "-//W3C//DTD SVG 1.1//EN"
 "http://www.w3.org/Graphics/SVG/1.1/DTD/svg11.dtd">
<!-- Generated by graphviz version 2.50.0 (0)
 -->
<!-- Title: Driver.cpp Pages: 1 -->
<svg width="1983pt" height="332pt"
 viewBox="0.00 0.00 1983.00 332.00" xmlns="http://www.w3.org/2000/svg" xmlns:xlink="http://www.w3.org/1999/xlink">
<style><![CDATA[
text { fill: #e6e6e6 !important; }
polygon { fill: #2f2f2f !important; stroke: #9aa0a6 !important; }
path, line, polyline { stroke: #4e67d6 !important; }
]]></style>
<style><![CDATA[
text { fill: #e6e6e6 !important; }
polygon { fill: #2f2f2f !important; stroke: #9aa0a6 !important; }
path, line, polyline { stroke: #4e67d6 !important; }
]]></style>
<style><![CDATA[
text { fill: #e6e6e6 !important; }
polygon { fill: #2f2f2f !important; stroke: #9aa0a6 !important; }
path, line, polyline { stroke: #4e67d6 !important; }
]]></style>
<style><![CDATA[
text { fill: #e6e6e6 !important; }
polygon { fill: #2f2f2f !important; stroke: #9aa0a6 !important; }
path, line, polyline { stroke: #4e67d6 !important; }
]]></style>
<style><![CDATA[
text { fill: #e6e6e6 !important; }
polygon { fill: #2f2f2f !important; stroke: #9aa0a6 !important; }
path, line, polyline { stroke: #4e67d6 !important; }
]]></style>
<style><![CDATA[
text { fill: #e6e6e6 !important; }
polygon { fill: #2f2f2f !important; stroke: #9aa0a6 !important; }
path, line, polyline { stroke: #4e67d6 !important; }
]]></style>
<style><![CDATA[
text { fill: #e6e6e6 !important; }
polygon { fill: #2f2f2f !important; stroke: #9aa0a6 !important; }
path, line, polyline { stroke: #4e67d6 !important; }
]]></style>
<g id="graph0" class="graph" transform="scale(1 1) rotate(0) translate(4 328)">
<title>Driver.cpp</title>
<!-- Node1 -->
<g id="node1" class="node">
<title>Node1</title>
<g id="a_node1"><a xlink:title="Driver implementation for .">
<polygon fill="#bfbfbf" stroke="black" points="975.5,-300.5 975.5,-323.5 1063.5,-323.5 1063.5,-300.5 975.5,-300.5"/>
<text text-anchor="middle" x="1019.5" y="-308.3" font-family="Helvetica,sans-Serif" font-size="14.00">Driver.cpp</text>
</a>
</g>
</g>
<!-- Node2 -->
<g id="node2" class="node">
<title>Node2</title>
<g id="a_node2"><a xlink:href="Driver_8h.html" target="_top" xlink:title="Driver implementation for .">
<polygon fill="none" stroke="black" points="991,-180.5 991,-203.5 1062,-203.5 1062,-180.5 991,-180.5"/>
<text text-anchor="middle" x="1026.5" y="-188.3" font-family="Helvetica,sans-Serif" font-size="14.00">Driver.h</text>
</a>
</g>
</g>
<!-- Node1&#45;&gt;Node2 -->
<g id="edge1" class="edge">
<title>Node1&#45;&gt;Node2</title>
<path fill="none" stroke="midnightblue" d="M1063.74,-309.31C1128.85,-305.79 1245.59,-295.19 1271.5,-264 1278.32,-255.8 1278.29,-248.22 1271.5,-240 1246.74,-210.04 1136.24,-198.98 1072.42,-195.06"/>
<polygon fill="midnightblue" stroke="midnightblue" points="1072.4,-191.55 1062.22,-194.46 1072,-198.54 1072.4,-191.55"/>
</g>
<!-- Node19 -->
<g id="node19" class="node">
<title>Node19</title>
<g id="a_node19"><a xlink:href="DriverPI__C862_8h.html" target="_top" xlink:title="Driver implementation for PI C 862.">
<polygon fill="none" stroke="black" points="0,-240.5 0,-263.5 129,-263.5 129,-240.5 0,-240.5"/>
<text text-anchor="middle" x="64.5" y="-248.3" font-family="Helvetica,sans-Serif" font-size="14.00">DriverPI_C862.h</text>
</a>
</g>
</g>
<!-- Node1&#45;&gt;Node19 -->
<g id="edge26" class="edge">
<title>Node1&#45;&gt;Node19</title>
<path fill="none" stroke="midnightblue" d="M975.33,-310.15C847.46,-307.37 465.8,-296.82 139.46,-264.12"/>
<polygon fill="midnightblue" stroke="midnightblue" points="139.64,-260.62 129.34,-263.1 138.94,-267.59 139.64,-260.62"/>
</g>
<!-- Node20 -->
<g id="node20" class="node">
<title>Node20</title>
<g id="a_node20"><a xlink:href="DriverNewFocus__8750__Ol_8h.html" target="_top" xlink:title="Driver implementation for New Focus 8750 Ol.">
<polygon fill="none" stroke="black" points="147,-240.5 147,-263.5 354,-263.5 354,-240.5 147,-240.5"/>
<text text-anchor="middle" x="250.5" y="-248.3" font-family="Helvetica,sans-Serif" font-size="14.00">DriverNewFocus_8750_Ol.h</text>
</a>
</g>
</g>
<!-- Node1&#45;&gt;Node20 -->
<g id="edge30" class="edge">
<title>Node1&#45;&gt;Node20</title>
<path fill="none" stroke="midnightblue" d="M975.32,-308.23C871.08,-301.59 601.39,-283.95 364.44,-264.06"/>
<polygon fill="midnightblue" stroke="midnightblue" points="364.51,-260.55 354.25,-263.2 363.92,-267.53 364.51,-260.55"/>
</g>
<!-- Node21 -->
<g id="node21" class="node">
<title>Node21</title>
<g id="a_node21"><a xlink:href="DriverNewFocus__8750__Cl_8h.html" target="_top" xlink:title="Driver implementation for New Focus 8750 Cl.">
<polygon fill="none" stroke="black" points="372.5,-240.5 372.5,-263.5 578.5,-263.5 578.5,-240.5 372.5,-240.5"/>
<text text-anchor="middle" x="475.5" y="-248.3" font-family="Helvetica,sans-Serif" font-size="14.00">DriverNewFocus_8750_Cl.h</text>
</a>
</g>
</g>
<!-- Node1&#45;&gt;Node21 -->
<g id="edge34" class="edge">
<title>Node1&#45;&gt;Node21</title>
<path fill="none" stroke="midnightblue" d="M975.44,-306.3C891.02,-297.3 704.2,-277.38 584.37,-264.61"/>
<polygon fill="midnightblue" stroke="midnightblue" points="584.39,-261.09 574.07,-263.51 583.64,-268.05 584.39,-261.09"/>
</g>
<!-- Node22 -->
<g id="node22" class="node">
<title>Node22</title>
<g id="a_node22"><a xlink:href="DriverPI__C509_8h.html" target="_top" xlink:title="Driver implementation for PI C 509.">
<polygon fill="none" stroke="black" points="597,-240.5 597,-263.5 726,-263.5 726,-240.5 597,-240.5"/>
<text text-anchor="middle" x="661.5" y="-248.3" font-family="Helvetica,sans-Serif" font-size="14.00">DriverPI_C509.h</text>
</a>
</g>
</g>
<!-- Node1&#45;&gt;Node22 -->
<g id="edge38" class="edge">
<title>Node1&#45;&gt;Node22</title>
<path fill="none" stroke="midnightblue" d="M975.24,-303.83C915.57,-294.16 808.46,-276.81 736.2,-265.1"/>
<polygon fill="midnightblue" stroke="midnightblue" points="736.67,-261.63 726.24,-263.49 735.55,-268.54 736.67,-261.63"/>
</g>
<!-- Node23 -->
<g id="node23" class="node">
<title>Node23</title>
<g id="a_node23"><a xlink:href="DriverMicos__Pollux_8h.html" target="_top" xlink:title="Driver implementation for Micos Pollux.">
<polygon fill="none" stroke="black" points="744.5,-240.5 744.5,-263.5 904.5,-263.5 904.5,-240.5 744.5,-240.5"/>
<text text-anchor="middle" x="824.5" y="-248.3" font-family="Helvetica,sans-Serif" font-size="14.00">DriverMicos_Pollux.h</text>
</a>
</g>
</g>
<!-- Node1&#45;&gt;Node23 -->
<g id="edge42" class="edge">
<title>Node1&#45;&gt;Node23</title>
<path fill="none" stroke="midnightblue" d="M984.19,-300.5C952.12,-290.96 904.65,-276.84 869.8,-266.48"/>
<polygon fill="midnightblue" stroke="midnightblue" points="870.46,-263.02 859.88,-263.52 868.47,-269.73 870.46,-263.02"/>
</g>
<!-- Node24 -->
<g id="node24" class="node">
<title>Node24</title>
<g id="a_node24"><a xlink:href="DriverNewPort__NSC200_8h.html" target="_top" xlink:title="Driver implementation for New Port NSC 200.">
<polygon fill="none" stroke="black" points="922.5,-240.5 922.5,-263.5 1116.5,-263.5 1116.5,-240.5 922.5,-240.5"/>
<text text-anchor="middle" x="1019.5" y="-248.3" font-family="Helvetica,sans-Serif" font-size="14.00">DriverNewPort_NSC200.h</text>
</a>
</g>
</g>
<!-- Node1&#45;&gt;Node24 -->
<g id="edge46" class="edge">
<title>Node1&#45;&gt;Node24</title>
<path fill="none" stroke="midnightblue" d="M1019.5,-300.36C1019.5,-292.92 1019.5,-282.74 1019.5,-273.73"/>
<polygon fill="midnightblue" stroke="midnightblue" points="1023,-273.57 1019.5,-263.57 1016,-273.57 1023,-273.57"/>
</g>
<!-- Node25 -->
<g id="node25" class="node">
<title>Node25</title>
<g id="a_node25"><a xlink:href="DriverStanda__uSMC2_8h.html" target="_top" xlink:title="This file provides a class implementing a USMC driver for a non specified controller using only the c...">
<polygon fill="none" stroke="black" points="1523,-240.5 1523,-263.5 1700,-263.5 1700,-240.5 1523,-240.5"/>
<text text-anchor="middle" x="1611.5" y="-248.3" font-family="Helvetica,sans-Serif" font-size="14.00">DriverStanda_uSMC2.h</text>
</a>
</g>
</g>
<!-- Node1&#45;&gt;Node25 -->
<g id="edge50" class="edge">
<title>Node1&#45;&gt;Node25</title>
<path fill="none" stroke="midnightblue" d="M1063.81,-307.04C1148.66,-299.4 1340.21,-281.88 1512.8,-264.06"/>
<polygon fill="midnightblue" stroke="midnightblue" points="1513.25,-267.53 1522.83,-263.02 1512.53,-260.57 1513.25,-267.53"/>
</g>
<!-- Node27 -->
<g id="node27" class="node">
<title>Node27</title>
<g id="a_node27"><a xlink:href="DriverNewPort__AGUC2_8h.html" target="_top" xlink:title="This file provides a class implementing a AGUC2 driver for a non specified controller using only the ...">
<polygon fill="none" stroke="black" points="1318.5,-240.5 1318.5,-263.5 1504.5,-263.5 1504.5,-240.5 1318.5,-240.5"/>
<text text-anchor="middle" x="1411.5" y="-248.3" font-family="Helvetica,sans-Serif" font-size="14.00">DriverNewPort_AGUC2.h</text>
</a>
</g>
</g>
<!-- Node1&#45;&gt;Node27 -->
<g id="edge53" class="edge">
<title>Node1&#45;&gt;Node27</title>
<path fill="none" stroke="midnightblue" d="M1063.71,-304.46C1128.22,-294.91 1249.28,-277 1330.16,-265.03"/>
<polygon fill="midnightblue" stroke="midnightblue" points="1330.93,-268.46 1340.31,-263.53 1329.91,-261.53 1330.93,-268.46"/>
</g>
<!-- Node28 -->
<g id="node28" class="node">
<title>Node28</title>
<g id="a_node28"><a xlink:href="DriverPI__E725_8h.html" target="_top" xlink:title="Driver implementation for PI E 725.">
<polygon fill="none" stroke="black" points="1134.5,-240.5 1134.5,-263.5 1262.5,-263.5 1262.5,-240.5 1134.5,-240.5"/>
<text text-anchor="middle" x="1198.5" y="-248.3" font-family="Helvetica,sans-Serif" font-size="14.00">DriverPI_E725.h</text>
</a>
</g>
</g>
<!-- Node1&#45;&gt;Node28 -->
<g id="edge55" class="edge">
<title>Node1&#45;&gt;Node28</title>
<path fill="none" stroke="midnightblue" d="M1051.92,-300.5C1081.22,-291 1124.55,-276.96 1156.5,-266.61"/>
<polygon fill="midnightblue" stroke="midnightblue" points="1157.59,-269.94 1166.02,-263.52 1155.43,-263.28 1157.59,-269.94"/>
</g>
<!-- Node29 -->
<g id="node29" class="node">
<title>Node29</title>
<g id="a_node29"><a xlink:href="Utils_8h.html" target="_top" xlink:title="Utility helpers.">
<polygon fill="none" stroke="black" points="1718,-240.5 1718,-263.5 1779,-263.5 1779,-240.5 1718,-240.5"/>
<text text-anchor="middle" x="1748.5" y="-248.3" font-family="Helvetica,sans-Serif" font-size="14.00">Utils.h</text>
</a>
</g>
</g>
<!-- Node1&#45;&gt;Node29 -->
<g id="edge57" class="edge">
<title>Node1&#45;&gt;Node29</title>
<path fill="none" stroke="midnightblue" d="M1063.87,-311.14C1172.57,-310.82 1460.71,-305.87 1708.09,-263.95"/>
<polygon fill="midnightblue" stroke="midnightblue" points="1708.72,-267.4 1717.98,-262.25 1707.53,-260.5 1708.72,-267.4"/>
</g>
<!-- Node3 -->
<g id="node3" class="node">
<title>Node3</title>
<g id="a_node3"><a xlink:title=" ">
<polygon fill="none" stroke="#bfbfbf" points="671,-60.5 671,-83.5 728,-83.5 728,-60.5 671,-60.5"/>
<text text-anchor="middle" x="699.5" y="-68.3" font-family="Helvetica,sans-Serif" font-size="14.00">string</text>
</a>
</g>
</g>
<!-- Node2&#45;&gt;Node3 -->
<g id="edge2" class="edge">
<title>Node2&#45;&gt;Node3</title>
<path fill="none" stroke="midnightblue" d="M990.83,-188.65C943.97,-184.49 859.96,-173.3 794.5,-144 764.84,-130.72 735.64,-106.83 717.61,-90.46"/>
<polygon fill="midnightblue" stroke="midnightblue" points="719.86,-87.77 710.15,-83.53 715.1,-92.9 719.86,-87.77"/>
</g>
<!-- Node4 -->
<g id="node4" class="node">
<title>Node4</title>
<g id="a_node4"><a xlink:title=" ">
<polygon fill="none" stroke="#bfbfbf" points="441.5,-60.5 441.5,-83.5 501.5,-83.5 501.5,-60.5 441.5,-60.5"/>
<text text-anchor="middle" x="471.5" y="-68.3" font-family="Helvetica,sans-Serif" font-size="14.00">vector</text>
</a>
</g>
</g>
<!-- Node2&#45;&gt;Node4 -->
<g id="edge3" class="edge">
<title>Node2&#45;&gt;Node4</title>
<path fill="none" stroke="midnightblue" d="M990.73,-185.81C938.1,-177.97 836.79,-162.07 751.5,-144 665.31,-125.74 565.56,-99.1 511.44,-84.19"/>
<polygon fill="midnightblue" stroke="midnightblue" points="512.14,-80.75 501.56,-81.46 510.27,-87.5 512.14,-80.75"/>
</g>
<!-- Node5 -->
<g id="node5" class="node">
<title>Node5</title>
<g id="a_node5"><a xlink:title=" ">
<polygon fill="none" stroke="#bfbfbf" points="902,-60.5 902,-83.5 979,-83.5 979,-60.5 902,-60.5"/>
<text text-anchor="middle" x="940.5" y="-68.3" font-family="Helvetica,sans-Serif" font-size="14.00">iostream</text>
</a>
</g>
</g>
<!-- Node2&#45;&gt;Node5 -->
<g id="edge4" class="edge">
<title>Node2&#45;&gt;Node5</title>
<path fill="none" stroke="midnightblue" d="M1018.08,-180.27C1010.71,-170.8 999.75,-156.59 990.5,-144 977.76,-126.66 963.68,-106.58 953.72,-92.21"/>
<polygon fill="midnightblue" stroke="midnightblue" points="956.39,-89.92 947.82,-83.68 950.63,-93.9 956.39,-89.92"/>
</g>
<!-- Node6 -->
<g id="node6" class="node">
<title>Node6</title>
<g id="a_node6"><a xlink:title=" ">
<polygon fill="none" stroke="#bfbfbf" points="999.5,-120.5 999.5,-143.5 1065.5,-143.5 1065.5,-120.5 999.5,-120.5"/>
<text text-anchor="middle" x="1032.5" y="-128.3" font-family="Helvetica,sans-Serif" font-size="14.00">math.h</text>
</a>
</g>
</g>
<!-- Node2&#45;&gt;Node6 -->
<g id="edge5" class="edge">
<title>Node2&#45;&gt;Node6</title>
<path fill="none" stroke="midnightblue" d="M1027.6,-180.36C1028.37,-172.92 1029.42,-162.74 1030.36,-153.73"/>
<polygon fill="midnightblue" stroke="midnightblue" points="1033.86,-153.88 1031.41,-143.57 1026.9,-153.16 1033.86,-153.88"/>
</g>
<!-- Node7 -->
<g id="node7" class="node">
<title>Node7</title>
<g id="a_node7"><a xlink:title=" ">
<polygon fill="none" stroke="#bfbfbf" points="1083.5,-120.5 1083.5,-143.5 1155.5,-143.5 1155.5,-120.5 1083.5,-120.5"/>
<text text-anchor="middle" x="1119.5" y="-128.3" font-family="Helvetica,sans-Serif" font-size="14.00">sstream</text>
</a>
</g>
</g>
<!-- Node2&#45;&gt;Node7 -->
<g id="edge6" class="edge">
<title>Node2&#45;&gt;Node7</title>
<path fill="none" stroke="midnightblue" d="M1043.56,-180.36C1057.58,-171.61 1077.68,-159.08 1093.68,-149.1"/>
<polygon fill="midnightblue" stroke="midnightblue" points="1095.92,-151.83 1102.55,-143.57 1092.21,-145.89 1095.92,-151.83"/>
</g>
<!-- Node8 -->
<g id="node8" class="node">
<title>Node8</title>
<g id="a_node8"><a xlink:href="PosixCompat_8h.html" target="_top" xlink:title=" ">
<polygon fill="none" stroke="black" points="997.5,-60.5 997.5,-83.5 1117.5,-83.5 1117.5,-60.5 997.5,-60.5"/>
<text text-anchor="middle" x="1057.5" y="-68.3" font-family="Helvetica,sans-Serif" font-size="14.00">PosixCompat.h</text>
</a>
</g>
</g>
<!-- Node2&#45;&gt;Node8 -->
<g id="edge7" class="edge">
<title>Node2&#45;&gt;Node8</title>
<path fill="none" stroke="midnightblue" d="M1062.07,-189.85C1094.71,-186.67 1141.37,-176.31 1164.5,-144 1183.3,-117.74 1146.55,-98.46 1111.11,-86.67"/>
<polygon fill="midnightblue" stroke="midnightblue" points="1111.78,-83.22 1101.19,-83.55 1109.68,-89.89 1111.78,-83.22"/>
</g>
<!-- Node11 -->
<g id="node11" class="node">
<title>Node11</title>
<g id="a_node11"><a xlink:href="ACCom_8h.html" target="_top" xlink:title="AC communication backend for AC Com.">
<polygon fill="none" stroke="black" points="1211.5,-120.5 1211.5,-143.5 1291.5,-143.5 1291.5,-120.5 1211.5,-120.5"/>
<text text-anchor="middle" x="1251.5" y="-128.3" font-family="Helvetica,sans-Serif" font-size="14.00">ACCom.h</text>
</a>
</g>
</g>
<!-- Node2&#45;&gt;Node11 -->
<g id="edge10" class="edge">
<title>Node2&#45;&gt;Node11</title>
<path fill="none" stroke="midnightblue" d="M1062.15,-181.81C1099.78,-172.11 1159.38,-156.75 1201.65,-145.85"/>
<polygon fill="midnightblue" stroke="midnightblue" points="1202.65,-149.21 1211.46,-143.32 1200.9,-142.43 1202.65,-149.21"/>
</g>
<!-- Node14 -->
<g id="node14" class="node">
<title>Node14</title>
<g id="a_node14"><a xlink:href="QsLog_8h.html" target="_top" xlink:title="Qs Log logging support.">
<polygon fill="none" stroke="black" points="1503.5,-60.5 1503.5,-83.5 1577.5,-83.5 1577.5,-60.5 1503.5,-60.5"/>
<text text-anchor="middle" x="1540.5" y="-68.3" font-family="Helvetica,sans-Serif" font-size="14.00">QsLog.h</text>
</a>
</g>
</g>
<!-- Node2&#45;&gt;Node14 -->
<g id="edge24" class="edge">
<title>Node2&#45;&gt;Node14</title>
<path fill="none" stroke="midnightblue" d="M1062.25,-191.1C1157.82,-190.78 1416.94,-185.98 1489.5,-144 1509.41,-132.48 1523.62,-109.72 1531.9,-93.06"/>
<polygon fill="midnightblue" stroke="midnightblue" points="1535.24,-94.18 1536.29,-83.63 1528.9,-91.22 1535.24,-94.18"/>
</g>
<!-- Node16 -->
<g id="node16" class="node">
<title>Node16</title>
<g id="a_node16"><a xlink:title=" ">
<polygon fill="none" stroke="#bfbfbf" points="1427.5,-0.5 1427.5,-23.5 1497.5,-23.5 1497.5,-0.5 1427.5,-0.5"/>
<text text-anchor="middle" x="1462.5" y="-8.3" font-family="Helvetica,sans-Serif" font-size="14.00">QString</text>
</a>
</g>
</g>
<!-- Node2&#45;&gt;Node16 -->
<g id="edge25" class="edge">
<title>Node2&#45;&gt;Node16</title>
<path fill="none" stroke="midnightblue" d="M1062.09,-186.94C1153.28,-175.79 1391.69,-141.6 1442.5,-84 1454.7,-70.17 1459.5,-49.42 1461.37,-33.92"/>
<polygon fill="midnightblue" stroke="midnightblue" points="1464.88,-34.01 1462.28,-23.74 1457.9,-33.39 1464.88,-34.01"/>
</g>
<!-- Node18 -->
<g id="node18" class="node">
<title>Node18</title>
<g id="a_node18"><a xlink:href="DriverDefinition_8h.html" target="_top" xlink:title="Driver implementation for Definition.">
<polygon fill="none" stroke="black" points="803.5,-120.5 803.5,-143.5 943.5,-143.5 943.5,-120.5 803.5,-120.5"/>
<text text-anchor="middle" x="873.5" y="-128.3" font-family="Helvetica,sans-Serif" font-size="14.00">DriverDefinition.h</text>
</a>
</g>
</g>
<!-- Node2&#45;&gt;Node18 -->
<g id="edge22" class="edge">
<title>Node2&#45;&gt;Node18</title>
<path fill="none" stroke="midnightblue" d="M998.79,-180.5C974.17,-171.16 937.98,-157.44 910.82,-147.15"/>
<polygon fill="midnightblue" stroke="midnightblue" points="911.85,-143.8 901.26,-143.52 909.37,-150.34 911.85,-143.8"/>
</g>
<!-- Node9 -->
<g id="node9" class="node">
<title>Node9</title>
<g id="a_node9"><a xlink:title=" ">
<polygon fill="none" stroke="#bfbfbf" points="972,-0.5 972,-23.5 1049,-23.5 1049,-0.5 972,-0.5"/>
<text text-anchor="middle" x="1010.5" y="-8.3" font-family="Helvetica,sans-Serif" font-size="14.00">QtGlobal</text>
</a>
</g>
</g>
<!-- Node8&#45;&gt;Node9 -->
<g id="edge8" class="edge">
<title>Node8&#45;&gt;Node9</title>
<path fill="none" stroke="midnightblue" d="M1048.88,-60.36C1042.32,-52.27 1033.13,-40.93 1025.39,-31.38"/>
<polygon fill="midnightblue" stroke="midnightblue" points="1028.08,-29.14 1019.07,-23.57 1022.64,-33.54 1028.08,-29.14"/>
</g>
<!-- Node10 -->
<g id="node10" class="node">
<title>Node10</title>
<g id="a_node10"><a xlink:title=" ">
<polygon fill="none" stroke="#bfbfbf" points="1067.5,-0.5 1067.5,-23.5 1141.5,-23.5 1141.5,-0.5 1067.5,-0.5"/>
<text text-anchor="middle" x="1104.5" y="-8.3" font-family="Helvetica,sans-Serif" font-size="14.00">unistd.h</text>
</a>
</g>
</g>
<!-- Node8&#45;&gt;Node10 -->
<g id="edge9" class="edge">
<title>Node8&#45;&gt;Node10</title>
<path fill="none" stroke="midnightblue" d="M1066.12,-60.36C1072.68,-52.27 1081.87,-40.93 1089.61,-31.38"/>
<polygon fill="midnightblue" stroke="midnightblue" points="1092.36,-33.54 1095.93,-23.57 1086.92,-29.14 1092.36,-33.54"/>
</g>
<!-- Node11&#45;&gt;Node3 -->
<g id="edge11" class="edge">
<title>Node11&#45;&gt;Node3</title>
<path fill="none" stroke="midnightblue" d="M1211.24,-125.7C1196.54,-123.82 1179.78,-121.74 1164.5,-120 1006.52,-102.03 817.95,-84.03 738.17,-76.58"/>
<polygon fill="midnightblue" stroke="midnightblue" points="738.38,-73.08 728.1,-75.64 737.73,-80.05 738.38,-73.08"/>
</g>
<!-- Node11&#45;&gt;Node4 -->
<g id="edge14" class="edge">
<title>Node11&#45;&gt;Node4</title>
<path fill="none" stroke="midnightblue" d="M1211.27,-125.42C1196.58,-123.51 1179.8,-121.49 1164.5,-120 1036.37,-107.57 639.96,-83.18 511.87,-75.43"/>
<polygon fill="midnightblue" stroke="midnightblue" points="511.91,-71.92 501.71,-74.81 511.48,-78.91 511.91,-71.92"/>
</g>
<!-- Node11&#45;&gt;Node5 -->
<g id="edge12" class="edge">
<title>Node11&#45;&gt;Node5</title>
<path fill="none" stroke="midnightblue" d="M1211.28,-124.44C1161.51,-116.17 1073.93,-101.19 989.04,-84.04"/>
<polygon fill="midnightblue" stroke="midnightblue" points="989.73,-80.61 979.24,-82.05 988.34,-87.47 989.73,-80.61"/>
</g>
<!-- Node11&#45;&gt;Node8 -->
<g id="edge16" class="edge">
<title>Node11&#45;&gt;Node8</title>
<path fill="none" stroke="midnightblue" d="M1216.37,-120.5C1184.47,-110.96 1137.24,-96.84 1102.57,-86.48"/>
<polygon fill="midnightblue" stroke="midnightblue" points="1103.28,-83.03 1092.7,-83.52 1101.28,-89.74 1103.28,-83.03"/>
</g>
<!-- Node12 -->
<g id="node12" class="node">
<title>Node12</title>
<g id="a_node12"><a xlink:title=" ">
<polygon fill="none" stroke="#bfbfbf" points="1247.5,-60.5 1247.5,-83.5 1317.5,-83.5 1317.5,-60.5 1247.5,-60.5"/>
<text text-anchor="middle" x="1282.5" y="-68.3" font-family="Helvetica,sans-Serif" font-size="14.00">fstream</text>
</a>
</g>
</g>
<!-- Node11&#45;&gt;Node12 -->
<g id="edge13" class="edge">
<title>Node11&#45;&gt;Node12</title>
<path fill="none" stroke="midnightblue" d="M1257.19,-120.36C1261.34,-112.59 1267.08,-101.84 1272.05,-92.55"/>
<polygon fill="midnightblue" stroke="midnightblue" points="1275.22,-94.04 1276.85,-83.57 1269.05,-90.74 1275.22,-94.04"/>
</g>
<!-- Node13 -->
<g id="node13" class="node">
<title>Node13</title>
<g id="a_node13"><a xlink:title=" ">
<polygon fill="none" stroke="#bfbfbf" points="1335.5,-60.5 1335.5,-83.5 1409.5,-83.5 1409.5,-60.5 1335.5,-60.5"/>
<text text-anchor="middle" x="1372.5" y="-68.3" font-family="Helvetica,sans-Serif" font-size="14.00">stdarg.h</text>
</a>
</g>
</g>
<!-- Node11&#45;&gt;Node13 -->
<g id="edge15" class="edge">
<title>Node11&#45;&gt;Node13</title>
<path fill="none" stroke="midnightblue" d="M1273.41,-120.5C1292.31,-111.44 1319.83,-98.25 1341.08,-88.06"/>
<polygon fill="midnightblue" stroke="midnightblue" points="1342.84,-91.1 1350.34,-83.62 1339.81,-84.79 1342.84,-91.1"/>
</g>
<!-- Node11&#45;&gt;Node14 -->
<g id="edge17" class="edge">
<title>Node11&#45;&gt;Node14</title>
<path fill="none" stroke="midnightblue" d="M1291.68,-122.94C1344.54,-112.33 1437.27,-93.72 1493.37,-82.46"/>
<polygon fill="midnightblue" stroke="midnightblue" points="1494.29,-85.84 1503.4,-80.45 1492.91,-78.98 1494.29,-85.84"/>
</g>
<!-- Node11&#45;&gt;Node16 -->
<g id="edge20" class="edge">
<title>Node11&#45;&gt;Node16</title>
<path fill="none" stroke="midnightblue" d="M1291.55,-127.93C1327.85,-123.38 1381.2,-112.07 1418.5,-84 1435.7,-71.05 1447.75,-49.24 1454.84,-33.2"/>
<polygon fill="midnightblue" stroke="midnightblue" points="1458.2,-34.23 1458.78,-23.65 1451.73,-31.55 1458.2,-34.23"/>
</g>
<!-- Node17 -->
<g id="node17" class="node">
<title>Node17</title>
<g id="a_node17"><a xlink:title=" ">
<polygon fill="none" stroke="#bfbfbf" points="1135.5,-60.5 1135.5,-83.5 1229.5,-83.5 1229.5,-60.5 1135.5,-60.5"/>
<text text-anchor="middle" x="1182.5" y="-68.3" font-family="Helvetica,sans-Serif" font-size="14.00">QStringList</text>
</a>
</g>
</g>
<!-- Node11&#45;&gt;Node17 -->
<g id="edge21" class="edge">
<title>Node11&#45;&gt;Node17</title>
<path fill="none" stroke="midnightblue" d="M1238.84,-120.36C1228.83,-111.94 1214.63,-100.01 1203,-90.23"/>
<polygon fill="midnightblue" stroke="midnightblue" points="1204.98,-87.33 1195.08,-83.57 1200.48,-92.68 1204.98,-87.33"/>
</g>
<!-- Node15 -->
<g id="node15" class="node">
<title>Node15</title>
<g id="a_node15"><a xlink:title=" ">
<polygon fill="none" stroke="#bfbfbf" points="1515.5,-0.5 1515.5,-23.5 1589.5,-23.5 1589.5,-0.5 1515.5,-0.5"/>
<text text-anchor="middle" x="1552.5" y="-8.3" font-family="Helvetica,sans-Serif" font-size="14.00">QDebug</text>
</a>
</g>
</g>
<!-- Node14&#45;&gt;Node15 -->
<g id="edge18" class="edge">
<title>Node14&#45;&gt;Node15</title>
<path fill="none" stroke="midnightblue" d="M1542.7,-60.36C1544.26,-52.84 1546.39,-42.52 1548.27,-33.43"/>
<polygon fill="midnightblue" stroke="midnightblue" points="1551.71,-34.07 1550.31,-23.57 1544.86,-32.65 1551.71,-34.07"/>
</g>
<!-- Node14&#45;&gt;Node16 -->
<g id="edge19" class="edge">
<title>Node14&#45;&gt;Node16</title>
<path fill="none" stroke="midnightblue" d="M1526.19,-60.36C1514.65,-51.78 1498.2,-39.55 1484.91,-29.66"/>
<polygon fill="midnightblue" stroke="midnightblue" points="1486.83,-26.73 1476.72,-23.57 1482.65,-32.35 1486.83,-26.73"/>
</g>
<!-- Node18&#45;&gt;Node3 -->
<g id="edge23" class="edge">
<title>Node18&#45;&gt;Node3</title>
<path fill="none" stroke="midnightblue" d="M841.99,-120.5C812.74,-110.75 769.13,-96.21 737.86,-85.79"/>
<polygon fill="midnightblue" stroke="midnightblue" points="738.77,-82.4 728.18,-82.56 736.56,-89.04 738.77,-82.4"/>
</g>
<!-- Node19&#45;&gt;Node2 -->
<g id="edge29" class="edge">
<title>Node19&#45;&gt;Node2</title>
<path fill="none" stroke="midnightblue" d="M129.34,-240.9C132.09,-240.57 134.82,-240.27 137.5,-240 459.38,-207.32 849.27,-196.66 980.73,-193.86"/>
<polygon fill="midnightblue" stroke="midnightblue" points="980.91,-197.36 990.83,-193.65 980.76,-190.36 980.91,-197.36"/>
</g>
<!-- Node19&#45;&gt;Node3 -->
<g id="edge27" class="edge">
<title>Node19&#45;&gt;Node3</title>
<path fill="none" stroke="midnightblue" d="M102.32,-240.4C215.06,-208.8 548.02,-115.46 661.28,-83.71"/>
<polygon fill="midnightblue" stroke="midnightblue" points="662.24,-87.08 670.92,-81.01 660.35,-80.34 662.24,-87.08"/>
</g>
<!-- Node19&#45;&gt;Node4 -->
<g id="edge28" class="edge">
<title>Node19&#45;&gt;Node4</title>
<path fill="none" stroke="midnightblue" d="M85.57,-240.33C131.72,-217.14 245.48,-160.92 343.5,-120 372.72,-107.8 406.34,-95.52 431.8,-86.57"/>
<polygon fill="midnightblue" stroke="midnightblue" points="433.19,-89.8 441.47,-83.19 430.88,-83.19 433.19,-89.8"/>
</g>
<!-- Node20&#45;&gt;Node2 -->
<g id="edge33" class="edge">
<title>Node20&#45;&gt;Node2</title>
<path fill="none" stroke="midnightblue" d="M354.25,-240.79C357.37,-240.52 360.46,-240.26 363.5,-240 595.24,-220.51 873.02,-202.58 980.71,-195.83"/>
<polygon fill="midnightblue" stroke="midnightblue" points="981.14,-199.31 990.9,-195.19 980.7,-192.32 981.14,-199.31"/>
</g>
<!-- Node20&#45;&gt;Node3 -->
<g id="edge31" class="edge">
<title>Node20&#45;&gt;Node3</title>
<path fill="none" stroke="midnightblue" d="M312.02,-240.42C351.48,-232.65 403.38,-220.55 447.5,-204 522.7,-175.8 536.18,-156.94 607.5,-120 628.06,-109.35 651.28,-97.49 669.25,-88.35"/>
<polygon fill="midnightblue" stroke="midnightblue" points="671.31,-91.23 678.64,-83.57 668.14,-84.99 671.31,-91.23"/>
</g>
<!-- Node20&#45;&gt;Node4 -->
<g id="edge32" class="edge">
<title>Node20&#45;&gt;Node4</title>
<path fill="none" stroke="midnightblue" d="M258.45,-240.25C276.71,-216.14 323.97,-157 374.5,-120 392.5,-106.82 414.77,-95.72 433.43,-87.63"/>
<polygon fill="midnightblue" stroke="midnightblue" points="434.96,-90.78 442.82,-83.67 432.25,-84.33 434.96,-90.78"/>
</g>
<!-- Node21&#45;&gt;Node2 -->
<g id="edge37" class="edge">
<title>Node21&#45;&gt;Node2</title>
<path fill="none" stroke="midnightblue" d="M575.28,-240.5C695.5,-227.84 892.34,-207.12 980.86,-197.8"/>
<polygon fill="midnightblue" stroke="midnightblue" points="981.27,-201.28 990.85,-196.75 980.54,-194.32 981.27,-201.28"/>
</g>
<!-- Node21&#45;&gt;Node3 -->
<g id="edge35" class="edge">
<title>Node21&#45;&gt;Node3</title>
<path fill="none" stroke="midnightblue" d="M488.84,-240.4C526.27,-210.66 632.5,-126.24 678.18,-89.94"/>
<polygon fill="midnightblue" stroke="midnightblue" points="680.58,-92.51 686.23,-83.55 676.22,-87.03 680.58,-92.51"/>
</g>
<!-- Node21&#45;&gt;Node4 -->
<g id="edge36" class="edge">
<title>Node21&#45;&gt;Node4</title>
<path fill="none" stroke="midnightblue" d="M461.18,-240.47C439.09,-223.22 397.54,-186.57 381.5,-144 377.74,-134.02 375.97,-129.12 381.5,-120 392.47,-101.9 412.95,-90.44 431.6,-83.37"/>
<polygon fill="midnightblue" stroke="midnightblue" points="432.83,-86.65 441.13,-80.06 430.53,-80.04 432.83,-86.65"/>
</g>
<!-- Node22&#45;&gt;Node2 -->
<g id="edge41" class="edge">
<title>Node22&#45;&gt;Node2</title>
<path fill="none" stroke="midnightblue" d="M726.33,-240.7C799.3,-229.1 916.01,-210.56 980.29,-200.34"/>
<polygon fill="midnightblue" stroke="midnightblue" points="981.19,-203.74 990.52,-198.72 980.09,-196.83 981.19,-203.74"/>
</g>
<!-- Node22&#45;&gt;Node3 -->
<g id="edge39" class="edge">
<title>Node22&#45;&gt;Node3</title>
<path fill="none" stroke="midnightblue" d="M663.04,-240.39C666.39,-217.99 674.88,-164.29 685.5,-120 687.6,-111.25 690.35,-101.71 692.86,-93.53"/>
<polygon fill="midnightblue" stroke="midnightblue" points="696.28,-94.33 695.94,-83.74 689.6,-92.23 696.28,-94.33"/>
</g>
<!-- Node22&#45;&gt;Node4 -->
<g id="edge40" class="edge">
<title>Node22&#45;&gt;Node4</title>
<path fill="none" stroke="midnightblue" d="M634.03,-240.41C615.16,-232.28 590.24,-219.79 571.5,-204 532.35,-171.02 499.08,-120.16 482.59,-92.51"/>
<polygon fill="midnightblue" stroke="midnightblue" points="485.55,-90.64 477.48,-83.77 479.51,-94.17 485.55,-90.64"/>
</g>
<!-- Node23&#45;&gt;Node2 -->
<g id="edge45" class="edge">
<title>Node23&#45;&gt;Node2</title>
<path fill="none" stroke="midnightblue" d="M861.08,-240.5C894.75,-230.83 944.82,-216.45 981.04,-206.05"/>
<polygon fill="midnightblue" stroke="midnightblue" points="982.22,-209.35 990.87,-203.23 980.29,-202.63 982.22,-209.35"/>
</g>
<!-- Node23&#45;&gt;Node3 -->
<g id="edge43" class="edge">
<title>Node23&#45;&gt;Node3</title>
<path fill="none" stroke="midnightblue" d="M806.82,-240.34C793.37,-231.67 774.95,-218.52 761.5,-204 740.05,-180.84 737.1,-172.49 723.5,-144 715.73,-127.72 709.34,-108.24 705.11,-93.81"/>
<polygon fill="midnightblue" stroke="midnightblue" points="708.39,-92.57 702.31,-83.9 701.66,-94.47 708.39,-92.57"/>
</g>
<!-- Node23&#45;&gt;Node4 -->
<g id="edge44" class="edge">
<title>Node23&#45;&gt;Node4</title>
<path fill="none" stroke="midnightblue" d="M793.51,-240.37C744.78,-223.12 647.93,-186.63 571.5,-144 542.67,-127.92 512.08,-105.27 492.43,-89.91"/>
<polygon fill="midnightblue" stroke="midnightblue" points="494.49,-87.07 484.47,-83.62 490.15,-92.56 494.49,-87.07"/>
</g>
<!-- Node24&#45;&gt;Node2 -->
<g id="edge49" class="edge">
<title>Node24&#45;&gt;Node2</title>
<path fill="none" stroke="midnightblue" d="M1020.78,-240.36C1021.68,-232.92 1022.91,-222.74 1024,-213.73"/>
<polygon fill="midnightblue" stroke="midnightblue" points="1027.5,-213.92 1025.22,-203.57 1020.55,-213.08 1027.5,-213.92"/>
</g>
<!-- Node24&#45;&gt;Node3 -->
<g id="edge47" class="edge">
<title>Node24&#45;&gt;Node3</title>
<path fill="none" stroke="midnightblue" d="M971.63,-240.49C914.63,-226.15 818.72,-196.09 751.5,-144 733.5,-130.05 718.83,-108.27 709.72,-92.51"/>
<polygon fill="midnightblue" stroke="midnightblue" points="712.69,-90.65 704.78,-83.6 706.56,-94.05 712.69,-90.65"/>
</g>
<!-- Node24&#45;&gt;Node4 -->
<g id="edge48" class="edge">
<title>Node24&#45;&gt;Node4</title>
<path fill="none" stroke="midnightblue" d="M960.03,-240.49C916.53,-232.19 856.3,-219.47 804.5,-204 732.92,-182.63 717.03,-171.31 647.5,-144 598.58,-124.79 542.3,-101.95 506.82,-87.47"/>
<polygon fill="midnightblue" stroke="midnightblue" points="507.97,-84.16 497.38,-83.62 505.32,-90.64 507.97,-84.16"/>
</g>
<!-- Node25&#45;&gt;Node2 -->
<g id="edge51" class="edge">
<title>Node25&#45;&gt;Node2</title>
<path fill="none" stroke="midnightblue" d="M1522.83,-240.98C1519.68,-240.65 1516.57,-240.32 1513.5,-240 1351.34,-223.08 1158.57,-205.11 1072.25,-197.18"/>
<polygon fill="midnightblue" stroke="midnightblue" points="1072.54,-193.69 1062.26,-196.26 1071.9,-200.66 1072.54,-193.69"/>
</g>
<!-- Node26 -->
<g id="node26" class="node">
<title>Node26</title>
<g id="a_node26"><a xlink:title=" ">
<polygon fill="none" stroke="#bfbfbf" points="1509,-180.5 1509,-203.5 1572,-203.5 1572,-180.5 1509,-180.5"/>
<text text-anchor="middle" x="1540.5" y="-188.3" font-family="Helvetica,sans-Serif" font-size="14.00">ximc.h</text>
</a>
</g>
</g>
<!-- Node25&#45;&gt;Node26 -->
<g id="edge52" class="edge">
<title>Node25&#45;&gt;Node26</title>
<path fill="none" stroke="midnightblue" d="M1598.48,-240.36C1588.07,-231.86 1573.28,-219.78 1561.24,-209.95"/>
<polygon fill="midnightblue" stroke="midnightblue" points="1563.4,-207.19 1553.44,-203.57 1558.97,-212.61 1563.4,-207.19"/>
</g>
<!-- Node27&#45;&gt;Node2 -->
<g id="edge54" class="edge">
<title>Node27&#45;&gt;Node2</title>
<path fill="none" stroke="midnightblue" d="M1341.78,-240.5C1263.62,-228.72 1139.11,-209.96 1072.35,-199.91"/>
<polygon fill="midnightblue" stroke="midnightblue" points="1072.55,-196.4 1062.14,-198.37 1071.51,-203.32 1072.55,-196.4"/>
</g>
<!-- Node28&#45;&gt;Node2 -->
<g id="edge56" class="edge">
<title>Node28&#45;&gt;Node2</title>
<path fill="none" stroke="midnightblue" d="M1167.35,-240.5C1139.31,-231.04 1097.92,-217.08 1067.25,-206.74"/>
<polygon fill="midnightblue" stroke="midnightblue" points="1068.3,-203.4 1057.71,-203.52 1066.06,-210.03 1068.3,-203.4"/>
</g>
<!-- Node29&#45;&gt;Node14 -->
<g id="edge62" class="edge">
<title>Node29&#45;&gt;Node14</title>
<path fill="none" stroke="midnightblue" d="M1735.56,-240.22C1724.18,-230.72 1707.2,-216.5 1692.5,-204 1644.92,-163.53 1589.42,-115.49 1560.44,-90.33"/>
<polygon fill="midnightblue" stroke="midnightblue" points="1562.51,-87.5 1552.67,-83.58 1557.92,-92.78 1562.51,-87.5"/>
</g>
<!-- Node30 -->
<g id="node30" class="node">
<title>Node30</title>
<g id="a_node30"><a xlink:title=" ">
<polygon fill="none" stroke="#bfbfbf" points="1701.5,-180.5 1701.5,-203.5 1795.5,-203.5 1795.5,-180.5 1701.5,-180.5"/>
<text text-anchor="middle" x="1748.5" y="-188.3" font-family="Helvetica,sans-Serif" font-size="14.00">QDateTime</text>
</a>
</g>
</g>
<!-- Node29&#45;&gt;Node30 -->
<g id="edge58" class="edge">
<title>Node29&#45;&gt;Node30</title>
<path fill="none" stroke="midnightblue" d="M1748.5,-240.36C1748.5,-232.92 1748.5,-222.74 1748.5,-213.73"/>
<polygon fill="midnightblue" stroke="midnightblue" points="1752,-213.57 1748.5,-203.57 1745,-213.57 1752,-213.57"/>
</g>
<!-- Node31 -->
<g id="node31" class="node">
<title>Node31</title>
<g id="a_node31"><a xlink:title=" ">
<polygon fill="none" stroke="#bfbfbf" points="1813.5,-180.5 1813.5,-203.5 1861.5,-203.5 1861.5,-180.5 1813.5,-180.5"/>
<text text-anchor="middle" x="1837.5" y="-188.3" font-family="Helvetica,sans-Serif" font-size="14.00">QDir</text>
</a>
</g>
</g>
<!-- Node29&#45;&gt;Node31 -->
<g id="edge59" class="edge">
<title>Node29&#45;&gt;Node31</title>
<path fill="none" stroke="midnightblue" d="M1764.82,-240.36C1778.25,-231.61 1797.48,-219.08 1812.79,-209.1"/>
<polygon fill="midnightblue" stroke="midnightblue" points="1814.81,-211.96 1821.28,-203.57 1810.99,-206.1 1814.81,-211.96"/>
</g>
<!-- Node32 -->
<g id="node32" class="node">
<title>Node32</title>
<g id="a_node32"><a xlink:title=" ">
<polygon fill="none" stroke="#bfbfbf" points="1880,-180.5 1880,-203.5 1975,-203.5 1975,-180.5 1880,-180.5"/>
<text text-anchor="middle" x="1927.5" y="-188.3" font-family="Helvetica,sans-Serif" font-size="14.00">QTableView</text>
</a>
</g>
</g>
<!-- Node29&#45;&gt;Node32 -->
<g id="edge60" class="edge">
<title>Node29&#45;&gt;Node32</title>
<path fill="none" stroke="midnightblue" d="M1779.27,-241.03C1808.53,-231.55 1852.78,-217.21 1885.32,-206.67"/>
<polygon fill="midnightblue" stroke="midnightblue" points="1886.58,-209.94 1895.02,-203.53 1884.42,-203.28 1886.58,-209.94"/>
</g>
<!-- Node33 -->
<g id="node33" class="node">
<title>Node33</title>
<g id="a_node33"><a xlink:title=" ">
<polygon fill="none" stroke="#bfbfbf" points="1590,-180.5 1590,-203.5 1645,-203.5 1645,-180.5 1590,-180.5"/>
<text text-anchor="middle" x="1617.5" y="-188.3" font-family="Helvetica,sans-Serif" font-size="14.00">QtSql</text>
</a>
</g>
</g>
<!-- Node29&#45;&gt;Node33 -->
<g id="edge61" class="edge">
<title>Node29&#45;&gt;Node33</title>
<path fill="none" stroke="midnightblue" d="M1724.78,-240.5C1704.13,-231.36 1673.98,-218.01 1650.9,-207.79"/>
<polygon fill="midnightblue" stroke="midnightblue" points="1652.05,-204.47 1641.49,-203.62 1649.22,-210.87 1652.05,-204.47"/>
</g>
</g>
</svg>
