<?xml version="1.0" encoding="UTF-8" standalone="no"?>
<!DOCTYPE svg PUBLIC "-//W3C//DTD SVG 1.1//EN"
 "http://www.w3.org/Graphics/SVG/1.1/DTD/svg11.dtd">
<!-- Generated by graphviz version 2.50.0 (0)
 -->
<!-- Title: DriverNewPort_AGUC2.h Pages: 1 -->
<svg width="958pt" height="272pt"
 viewBox="0.00 0.00 957.50 272.00" xmlns="http://www.w3.org/2000/svg" xmlns:xlink="http://www.w3.org/1999/xlink">
<style><![CDATA[
text { fill: #e6e6e6 !important; }
polygon { fill: #2f2f2f !important; stroke: #9aa0a6 !important; }
path, line, polyline { stroke: #4e67d6 !important; }
]]></style>
<style><![CDATA[
text { fill: #e6e6e6 !important; }
polygon { fill: #2f2f2f !important; stroke: #9aa0a6 !important; }
path, line, polyline { stroke: #4e67d6 !important; }
]]></style>
<style><![CDATA[
text { fill: #e6e6e6 !important; }
polygon { fill: #2f2f2f !important; stroke: #9aa0a6 !important; }
path, line, polyline { stroke: #4e67d6 !important; }
]]></style>
<style><![CDATA[
text { fill: #e6e6e6 !important; }
polygon { fill: #2f2f2f !important; stroke: #9aa0a6 !important; }
path, line, polyline { stroke: #4e67d6 !important; }
]]></style>
<style><![CDATA[
text { fill: #e6e6e6 !important; }
polygon { fill: #2f2f2f !important; stroke: #9aa0a6 !important; }
path, line, polyline { stroke: #4e67d6 !important; }
]]></style>
<style><![CDATA[
text { fill: #e6e6e6 !important; }
polygon { fill: #2f2f2f !important; stroke: #9aa0a6 !important; }
path, line, polyline { stroke: #4e67d6 !important; }
]]></style>
<style><![CDATA[
text { fill: #e6e6e6 !important; }
polygon { fill: #2f2f2f !important; stroke: #9aa0a6 !important; }
path, line, polyline { stroke: #4e67d6 !important; }
]]></style>
<g id="graph0" class="graph" transform="scale(1 1) rotate(0) translate(4 268)">
<title>DriverNewPort_AGUC2.h</title>
<!-- Node1 -->
<g id="node1" class="node">
<title>Node1</title>
<g id="a_node1"><a xlink:title="This file provides a class implementing a AGUC2 driver for a non specified controller using only the ...">
<polygon fill="#bfbfbf" stroke="black" points="292.5,-240.5 292.5,-263.5 478.5,-263.5 478.5,-240.5 292.5,-240.5"/>
<text text-anchor="middle" x="385.5" y="-248.3" font-family="Helvetica,sans-Serif" font-size="14.00">DriverNewPort_AGUC2.h</text>
</a>
</g>
</g>
<!-- Node2 -->
<g id="node2" class="node">
<title>Node2</title>
<g id="a_node2"><a xlink:href="Driver_8h.html" target="_top" xlink:title="Driver implementation for .">
<polygon fill="none" stroke="black" points="350,-180.5 350,-203.5 421,-203.5 421,-180.5 350,-180.5"/>
<text text-anchor="middle" x="385.5" y="-188.3" font-family="Helvetica,sans-Serif" font-size="14.00">Driver.h</text>
</a>
</g>
</g>
<!-- Node1&#45;&gt;Node2 -->
<g id="edge1" class="edge">
<title>Node1&#45;&gt;Node2</title>
<path fill="none" stroke="midnightblue" d="M385.5,-240.36C385.5,-232.92 385.5,-222.74 385.5,-213.73"/>
<polygon fill="midnightblue" stroke="midnightblue" points="389,-213.57 385.5,-203.57 382,-213.57 389,-213.57"/>
</g>
<!-- Node3 -->
<g id="node3" class="node">
<title>Node3</title>
<g id="a_node3"><a xlink:title=" ">
<polygon fill="none" stroke="#bfbfbf" points="0,-60.5 0,-83.5 57,-83.5 57,-60.5 0,-60.5"/>
<text text-anchor="middle" x="28.5" y="-68.3" font-family="Helvetica,sans-Serif" font-size="14.00">string</text>
</a>
</g>
</g>
<!-- Node2&#45;&gt;Node3 -->
<g id="edge2" class="edge">
<title>Node2&#45;&gt;Node3</title>
<path fill="none" stroke="midnightblue" d="M349.95,-189.73C276.61,-186.48 111.66,-175.76 66.5,-144 49.43,-131.99 39.34,-109.84 33.9,-93.46"/>
<polygon fill="midnightblue" stroke="midnightblue" points="37.2,-92.27 30.97,-83.7 30.49,-94.28 37.2,-92.27"/>
</g>
<!-- Node4 -->
<g id="node4" class="node">
<title>Node4</title>
<g id="a_node4"><a xlink:title=" ">
<polygon fill="none" stroke="#bfbfbf" points="75.5,-60.5 75.5,-83.5 135.5,-83.5 135.5,-60.5 75.5,-60.5"/>
<text text-anchor="middle" x="105.5" y="-68.3" font-family="Helvetica,sans-Serif" font-size="14.00">vector</text>
</a>
</g>
</g>
<!-- Node2&#45;&gt;Node4 -->
<g id="edge3" class="edge">
<title>Node2&#45;&gt;Node4</title>
<path fill="none" stroke="midnightblue" d="M356.24,-180.34C332.33,-171.37 297.8,-157.82 268.5,-144 248.35,-134.5 244.68,-129.44 224.5,-120 198.45,-107.81 168.3,-95.92 144.87,-87.15"/>
<polygon fill="midnightblue" stroke="midnightblue" points="145.86,-83.79 135.27,-83.6 143.43,-90.35 145.86,-83.79"/>
</g>
<!-- Node5 -->
<g id="node5" class="node">
<title>Node5</title>
<g id="a_node5"><a xlink:title=" ">
<polygon fill="none" stroke="#bfbfbf" points="154,-60.5 154,-83.5 231,-83.5 231,-60.5 154,-60.5"/>
<text text-anchor="middle" x="192.5" y="-68.3" font-family="Helvetica,sans-Serif" font-size="14.00">iostream</text>
</a>
</g>
</g>
<!-- Node2&#45;&gt;Node5 -->
<g id="edge4" class="edge">
<title>Node2&#45;&gt;Node5</title>
<path fill="none" stroke="midnightblue" d="M368.03,-180.32C333.94,-159.48 258.4,-113.29 218.44,-88.86"/>
<polygon fill="midnightblue" stroke="midnightblue" points="220.15,-85.8 209.79,-83.57 216.5,-91.77 220.15,-85.8"/>
</g>
<!-- Node6 -->
<g id="node6" class="node">
<title>Node6</title>
<g id="a_node6"><a xlink:title=" ">
<polygon fill="none" stroke="#bfbfbf" points="793.5,-120.5 793.5,-143.5 859.5,-143.5 859.5,-120.5 793.5,-120.5"/>
<text text-anchor="middle" x="826.5" y="-128.3" font-family="Helvetica,sans-Serif" font-size="14.00">math.h</text>
</a>
</g>
</g>
<!-- Node2&#45;&gt;Node6 -->
<g id="edge5" class="edge">
<title>Node2&#45;&gt;Node6</title>
<path fill="none" stroke="midnightblue" d="M421.01,-188.1C490.3,-182.14 648.22,-167.12 779.5,-144 780.78,-143.78 782.07,-143.54 783.38,-143.29"/>
<polygon fill="midnightblue" stroke="midnightblue" points="784.38,-146.66 793.47,-141.22 782.97,-139.8 784.38,-146.66"/>
</g>
<!-- Node7 -->
<g id="node7" class="node">
<title>Node7</title>
<g id="a_node7"><a xlink:title=" ">
<polygon fill="none" stroke="#bfbfbf" points="877.5,-120.5 877.5,-143.5 949.5,-143.5 949.5,-120.5 877.5,-120.5"/>
<text text-anchor="middle" x="913.5" y="-128.3" font-family="Helvetica,sans-Serif" font-size="14.00">sstream</text>
</a>
</g>
</g>
<!-- Node2&#45;&gt;Node7 -->
<g id="edge6" class="edge">
<title>Node2&#45;&gt;Node7</title>
<path fill="none" stroke="midnightblue" d="M421.18,-189.27C500,-185.09 694.98,-172.69 867.24,-144.02"/>
<polygon fill="midnightblue" stroke="midnightblue" points="867.96,-147.45 877.24,-142.33 866.8,-140.55 867.96,-147.45"/>
</g>
<!-- Node8 -->
<g id="node8" class="node">
<title>Node8</title>
<g id="a_node8"><a xlink:href="PosixCompat_8h.html" target="_top" xlink:title=" ">
<polygon fill="none" stroke="black" points="249.5,-60.5 249.5,-83.5 369.5,-83.5 369.5,-60.5 249.5,-60.5"/>
<text text-anchor="middle" x="309.5" y="-68.3" font-family="Helvetica,sans-Serif" font-size="14.00">PosixCompat.h</text>
</a>
</g>
</g>
<!-- Node2&#45;&gt;Node8 -->
<g id="edge7" class="edge">
<title>Node2&#45;&gt;Node8</title>
<path fill="none" stroke="midnightblue" d="M378.49,-180.11C365.58,-160.08 337.93,-117.14 321.83,-92.14"/>
<polygon fill="midnightblue" stroke="midnightblue" points="324.64,-90.04 316.28,-83.52 318.75,-93.83 324.64,-90.04"/>
</g>
<!-- Node11 -->
<g id="node11" class="node">
<title>Node11</title>
<g id="a_node11"><a xlink:href="ACCom_8h.html" target="_top" xlink:title="AC communication backend for AC Com.">
<polygon fill="none" stroke="black" points="366.5,-120.5 366.5,-143.5 446.5,-143.5 446.5,-120.5 366.5,-120.5"/>
<text text-anchor="middle" x="406.5" y="-128.3" font-family="Helvetica,sans-Serif" font-size="14.00">ACCom.h</text>
</a>
</g>
</g>
<!-- Node2&#45;&gt;Node11 -->
<g id="edge10" class="edge">
<title>Node2&#45;&gt;Node11</title>
<path fill="none" stroke="midnightblue" d="M389.35,-180.36C392.1,-172.76 395.89,-162.29 399.21,-153.13"/>
<polygon fill="midnightblue" stroke="midnightblue" points="402.56,-154.16 402.67,-143.57 395.98,-151.78 402.56,-154.16"/>
</g>
<!-- Node14 -->
<g id="node14" class="node">
<title>Node14</title>
<g id="a_node14"><a xlink:href="QsLog_8h.html" target="_top" xlink:title="Qs Log logging support.">
<polygon fill="none" stroke="black" points="755.5,-60.5 755.5,-83.5 829.5,-83.5 829.5,-60.5 755.5,-60.5"/>
<text text-anchor="middle" x="792.5" y="-68.3" font-family="Helvetica,sans-Serif" font-size="14.00">QsLog.h</text>
</a>
</g>
</g>
<!-- Node2&#45;&gt;Node14 -->
<g id="edge24" class="edge">
<title>Node2&#45;&gt;Node14</title>
<path fill="none" stroke="midnightblue" d="M421.18,-189.85C500.35,-186.73 687.95,-176.07 741.5,-144 761.23,-132.18 775.47,-109.48 783.81,-92.91"/>
<polygon fill="midnightblue" stroke="midnightblue" points="787.13,-94.08 788.24,-83.55 780.8,-91.09 787.13,-94.08"/>
</g>
<!-- Node16 -->
<g id="node16" class="node">
<title>Node16</title>
<g id="a_node16"><a xlink:title=" ">
<polygon fill="none" stroke="#bfbfbf" points="679.5,-0.5 679.5,-23.5 749.5,-23.5 749.5,-0.5 679.5,-0.5"/>
<text text-anchor="middle" x="714.5" y="-8.3" font-family="Helvetica,sans-Serif" font-size="14.00">QString</text>
</a>
</g>
</g>
<!-- Node2&#45;&gt;Node16 -->
<g id="edge25" class="edge">
<title>Node2&#45;&gt;Node16</title>
<path fill="none" stroke="midnightblue" d="M421.2,-191.03C489.41,-188.96 637.73,-173.77 708.5,-84 719.53,-70.01 720.05,-49.28 718.39,-33.83"/>
<polygon fill="midnightblue" stroke="midnightblue" points="721.82,-33.08 716.92,-23.69 714.89,-34.09 721.82,-33.08"/>
</g>
<!-- Node18 -->
<g id="node18" class="node">
<title>Node18</title>
<g id="a_node18"><a xlink:href="DriverDefinition_8h.html" target="_top" xlink:title="Driver implementation for Definition.">
<polygon fill="none" stroke="black" points="75.5,-120.5 75.5,-143.5 215.5,-143.5 215.5,-120.5 75.5,-120.5"/>
<text text-anchor="middle" x="145.5" y="-128.3" font-family="Helvetica,sans-Serif" font-size="14.00">DriverDefinition.h</text>
</a>
</g>
</g>
<!-- Node2&#45;&gt;Node18 -->
<g id="edge22" class="edge">
<title>Node2&#45;&gt;Node18</title>
<path fill="none" stroke="midnightblue" d="M349.83,-182.38C309.93,-172.74 244.87,-157.01 198.9,-145.9"/>
<polygon fill="midnightblue" stroke="midnightblue" points="199.65,-142.49 189.11,-143.54 198,-149.29 199.65,-142.49"/>
</g>
<!-- Node9 -->
<g id="node9" class="node">
<title>Node9</title>
<g id="a_node9"><a xlink:title=" ">
<polygon fill="none" stroke="#bfbfbf" points="224,-0.5 224,-23.5 301,-23.5 301,-0.5 224,-0.5"/>
<text text-anchor="middle" x="262.5" y="-8.3" font-family="Helvetica,sans-Serif" font-size="14.00">QtGlobal</text>
</a>
</g>
</g>
<!-- Node8&#45;&gt;Node9 -->
<g id="edge8" class="edge">
<title>Node8&#45;&gt;Node9</title>
<path fill="none" stroke="midnightblue" d="M300.88,-60.36C294.32,-52.27 285.13,-40.93 277.39,-31.38"/>
<polygon fill="midnightblue" stroke="midnightblue" points="280.08,-29.14 271.07,-23.57 274.64,-33.54 280.08,-29.14"/>
</g>
<!-- Node10 -->
<g id="node10" class="node">
<title>Node10</title>
<g id="a_node10"><a xlink:title=" ">
<polygon fill="none" stroke="#bfbfbf" points="319.5,-0.5 319.5,-23.5 393.5,-23.5 393.5,-0.5 319.5,-0.5"/>
<text text-anchor="middle" x="356.5" y="-8.3" font-family="Helvetica,sans-Serif" font-size="14.00">unistd.h</text>
</a>
</g>
</g>
<!-- Node8&#45;&gt;Node10 -->
<g id="edge9" class="edge">
<title>Node8&#45;&gt;Node10</title>
<path fill="none" stroke="midnightblue" d="M318.12,-60.36C324.68,-52.27 333.87,-40.93 341.61,-31.38"/>
<polygon fill="midnightblue" stroke="midnightblue" points="344.36,-33.54 347.93,-23.57 338.92,-29.14 344.36,-33.54"/>
</g>
<!-- Node11&#45;&gt;Node3 -->
<g id="edge11" class="edge">
<title>Node11&#45;&gt;Node3</title>
<path fill="none" stroke="midnightblue" d="M366.39,-127.35C304.28,-121.29 180.98,-107.61 66.97,-83.84"/>
<polygon fill="midnightblue" stroke="midnightblue" points="67.53,-80.38 57.02,-81.74 66.08,-87.23 67.53,-80.38"/>
</g>
<!-- Node11&#45;&gt;Node4 -->
<g id="edge14" class="edge">
<title>Node11&#45;&gt;Node4</title>
<path fill="none" stroke="midnightblue" d="M366.31,-125.04C316.64,-117.39 229.38,-103.07 145.59,-84.1"/>
<polygon fill="midnightblue" stroke="midnightblue" points="146.19,-80.64 135.66,-81.82 144.62,-87.46 146.19,-80.64"/>
</g>
<!-- Node11&#45;&gt;Node5 -->
<g id="edge12" class="edge">
<title>Node11&#45;&gt;Node5</title>
<path fill="none" stroke="midnightblue" d="M367.75,-120.5C332.25,-110.88 279.57,-96.6 241.24,-86.21"/>
<polygon fill="midnightblue" stroke="midnightblue" points="241.89,-82.76 231.33,-83.52 240.06,-89.52 241.89,-82.76"/>
</g>
<!-- Node11&#45;&gt;Node8 -->
<g id="edge16" class="edge">
<title>Node11&#45;&gt;Node8</title>
<path fill="none" stroke="midnightblue" d="M388.71,-120.36C373.94,-111.53 352.72,-98.84 335.96,-88.82"/>
<polygon fill="midnightblue" stroke="midnightblue" points="337.56,-85.7 327.18,-83.57 333.97,-91.71 337.56,-85.7"/>
</g>
<!-- Node12 -->
<g id="node12" class="node">
<title>Node12</title>
<g id="a_node12"><a xlink:title=" ">
<polygon fill="none" stroke="#bfbfbf" points="629.5,-60.5 629.5,-83.5 699.5,-83.5 699.5,-60.5 629.5,-60.5"/>
<text text-anchor="middle" x="664.5" y="-68.3" font-family="Helvetica,sans-Serif" font-size="14.00">fstream</text>
</a>
</g>
</g>
<!-- Node11&#45;&gt;Node12 -->
<g id="edge13" class="edge">
<title>Node11&#45;&gt;Node12</title>
<path fill="none" stroke="midnightblue" d="M446.81,-122.51C487.87,-113.78 553.61,-99.58 619.71,-84.14"/>
<polygon fill="midnightblue" stroke="midnightblue" points="620.52,-87.55 629.46,-81.86 618.92,-80.73 620.52,-87.55"/>
</g>
<!-- Node13 -->
<g id="node13" class="node">
<title>Node13</title>
<g id="a_node13"><a xlink:title=" ">
<polygon fill="none" stroke="#bfbfbf" points="537.5,-60.5 537.5,-83.5 611.5,-83.5 611.5,-60.5 537.5,-60.5"/>
<text text-anchor="middle" x="574.5" y="-68.3" font-family="Helvetica,sans-Serif" font-size="14.00">stdarg.h</text>
</a>
</g>
</g>
<!-- Node11&#45;&gt;Node13 -->
<g id="edge15" class="edge">
<title>Node11&#45;&gt;Node13</title>
<path fill="none" stroke="midnightblue" d="M436.92,-120.5C464.19,-111.08 504.39,-97.2 534.3,-86.88"/>
<polygon fill="midnightblue" stroke="midnightblue" points="535.71,-90.09 544.02,-83.52 533.42,-83.48 535.71,-90.09"/>
</g>
<!-- Node11&#45;&gt;Node14 -->
<g id="edge17" class="edge">
<title>Node11&#45;&gt;Node14</title>
<path fill="none" stroke="midnightblue" d="M446.72,-124.96C518.46,-114.18 668.15,-91.68 744.9,-80.15"/>
<polygon fill="midnightblue" stroke="midnightblue" points="745.86,-83.55 755.23,-78.6 744.82,-76.63 745.86,-83.55"/>
</g>
<!-- Node11&#45;&gt;Node16 -->
<g id="edge20" class="edge">
<title>Node11&#45;&gt;Node16</title>
<path fill="none" stroke="midnightblue" d="M426.02,-120.46C443.15,-111.12 468.67,-96.99 490.5,-84 507.67,-73.79 510.14,-67.88 528.5,-60 574.72,-40.16 631.13,-27.38 669.63,-20.22"/>
<polygon fill="midnightblue" stroke="midnightblue" points="670.28,-23.66 679.5,-18.44 669.03,-16.77 670.28,-23.66"/>
</g>
<!-- Node17 -->
<g id="node17" class="node">
<title>Node17</title>
<g id="a_node17"><a xlink:title=" ">
<polygon fill="none" stroke="#bfbfbf" points="387.5,-60.5 387.5,-83.5 481.5,-83.5 481.5,-60.5 387.5,-60.5"/>
<text text-anchor="middle" x="434.5" y="-68.3" font-family="Helvetica,sans-Serif" font-size="14.00">QStringList</text>
</a>
</g>
</g>
<!-- Node11&#45;&gt;Node17 -->
<g id="edge21" class="edge">
<title>Node11&#45;&gt;Node17</title>
<path fill="none" stroke="midnightblue" d="M411.64,-120.36C415.35,-112.68 420.47,-102.07 424.92,-92.84"/>
<polygon fill="midnightblue" stroke="midnightblue" points="428.2,-94.1 429.4,-83.57 421.9,-91.05 428.2,-94.1"/>
</g>
<!-- Node15 -->
<g id="node15" class="node">
<title>Node15</title>
<g id="a_node15"><a xlink:title=" ">
<polygon fill="none" stroke="#bfbfbf" points="767.5,-0.5 767.5,-23.5 841.5,-23.5 841.5,-0.5 767.5,-0.5"/>
<text text-anchor="middle" x="804.5" y="-8.3" font-family="Helvetica,sans-Serif" font-size="14.00">QDebug</text>
</a>
</g>
</g>
<!-- Node14&#45;&gt;Node15 -->
<g id="edge18" class="edge">
<title>Node14&#45;&gt;Node15</title>
<path fill="none" stroke="midnightblue" d="M794.7,-60.36C796.26,-52.84 798.39,-42.52 800.27,-33.43"/>
<polygon fill="midnightblue" stroke="midnightblue" points="803.71,-34.07 802.31,-23.57 796.86,-32.65 803.71,-34.07"/>
</g>
<!-- Node14&#45;&gt;Node16 -->
<g id="edge19" class="edge">
<title>Node14&#45;&gt;Node16</title>
<path fill="none" stroke="midnightblue" d="M778.19,-60.36C766.65,-51.78 750.2,-39.55 736.91,-29.66"/>
<polygon fill="midnightblue" stroke="midnightblue" points="738.83,-26.73 728.72,-23.57 734.65,-32.35 738.83,-26.73"/>
</g>
<!-- Node18&#45;&gt;Node3 -->
<g id="edge23" class="edge">
<title>Node18&#45;&gt;Node3</title>
<path fill="none" stroke="midnightblue" d="M124.31,-120.5C106.04,-111.44 79.43,-98.25 58.89,-88.06"/>
<polygon fill="midnightblue" stroke="midnightblue" points="60.44,-84.93 49.93,-83.62 57.33,-91.2 60.44,-84.93"/>
</g>
</g>
</svg>
