<?xml version="1.0" encoding="UTF-8" standalone="no"?>
<!DOCTYPE svg PUBLIC "-//W3C//DTD SVG 1.1//EN"
 "http://www.w3.org/Graphics/SVG/1.1/DTD/svg11.dtd">
<!-- Generated by graphviz version 2.50.0 (0)
 -->
<!-- Title: DriverStanda_uSMC.cpp Pages: 1 -->
<!--zoomable 332 -->
<svg id="main" version="1.1" xmlns="http://www.w3.org/2000/svg" xmlns:xlink="http://www.w3.org/1999/xlink" xml:space="preserve" onload="init(evt)">
<style><![CDATA[
text { fill: #e6e6e6 !important; }
polygon { fill: #2f2f2f !important; stroke: #9aa0a6 !important; }
path, line, polyline { stroke: #4e67d6 !important; }
]]></style>
<style><![CDATA[
text { fill: #e6e6e6 !important; }
polygon { fill: #2f2f2f !important; stroke: #9aa0a6 !important; }
path, line, polyline { stroke: #4e67d6 !important; }
]]></style>
<style><![CDATA[
text { fill: #e6e6e6 !important; }
polygon { fill: #2f2f2f !important; stroke: #9aa0a6 !important; }
path, line, polyline { stroke: #4e67d6 !important; }
]]></style>
<style><![CDATA[
text { fill: #e6e6e6 !important; }
polygon { fill: #2f2f2f !important; stroke: #9aa0a6 !important; }
path, line, polyline { stroke: #4e67d6 !important; }
]]></style>
<style><![CDATA[
text { fill: #e6e6e6 !important; }
polygon { fill: #2f2f2f !important; stroke: #9aa0a6 !important; }
path, line, polyline { stroke: #4e67d6 !important; }
]]></style>
<style><![CDATA[
text { fill: #e6e6e6 !important; }
polygon { fill: #2f2f2f !important; stroke: #9aa0a6 !important; }
path, line, polyline { stroke: #4e67d6 !important; }
]]></style>
<style><![CDATA[
text { fill: #e6e6e6 !important; }
polygon { fill: #2f2f2f !important; stroke: #9aa0a6 !important; }
path, line, polyline { stroke: #4e67d6 !important; }
]]></style>
<style type="text/css"><![CDATA[
.edge:hover path { stroke: red; }
.edge:hover polygon { stroke: red; fill: red; }
]]></style>
<script type="text/javascript"><![CDATA[
var edges = document.getElementsByTagName('g');
if (edges && edges.length) {
  for (var i=0;i<edges.length;i++) {
    if (edges[i].id.substr(0,4)=='edge') {
      edges[i].setAttribute('class','edge');
    }
  }
}
]]></script>
        <defs>
                <circle id="rim" cx="0" cy="0" r="7"/>
                <circle id="rim2" cx="0" cy="0" r="3.5"/>
                <g id="zoomPlus">
                        <use xlink:href="#rim" fill="#404040">
                                <set attributeName="fill" to="#808080" begin="zoomplus.mouseover" end="zoomplus.mouseout"/>
                        </use>
                        <path d="M-4,0h8M0,-4v8" fill="none" stroke="white" stroke-width="1.5" pointer-events="none"/>
                </g>
                <g id="zoomMin">
                        <use xlink:href="#rim" fill="#404040">
                                <set attributeName="fill" to="#808080" begin="zoomminus.mouseover" end="zoomminus.mouseout"/>
                        </use>
                        <path d="M-4,0h8" fill="none" stroke="white" stroke-width="1.5" pointer-events="none"/>
                </g>
                <g id="dirArrow">
                        <path fill="none" stroke="white" stroke-width="1.5" d="M0,-3.0v7 M-2.5,-0.5L0,-3.0L2.5,-0.5"/>
                </g>
               <g id="resetDef">
                       <use xlink:href="#rim2" fill="#404040">
                               <set attributeName="fill" to="#808080" begin="reset.mouseover" end="reset.mouseout"/>
                       </use>
               </g>
        </defs>

<script type="text/javascript">
var viewWidth = 958;
var viewHeight = 332;
var sectionId = 'dynsection-0';
</script>
<script xlink:href="svgpan.js"/>
<svg id="graph" class="graph">
<g id="viewport">
<title>DriverStanda_uSMC.cpp</title>
<!-- Node1 -->
<g id="node1" class="node">
<title>Node1</title>
<g id="a_node1"><a xlink:title="This file provides a AGUC2 class implementing a driver for a non specified controller only the Custom...">
<polygon fill="#bfbfbf" stroke="black" points="231,-300.5 231,-323.5 416,-323.5 416,-300.5 231,-300.5"/>
<text text-anchor="middle" x="323.5" y="-308.3" font-family="Helvetica,sans-Serif" font-size="14.00">DriverStanda_uSMC.cpp</text>
</a>
</g>
</g>
<!-- Node2 -->
<g id="node2" class="node">
<title>Node2</title>
<g id="a_node2"><a xlink:href="DriverStanda__uSMC_8h.html" target="_top" xlink:title="This file provides a class implementing a AGUC2 driver for a non specified controller using only the ...">
<polygon fill="none" stroke="black" points="239.5,-240.5 239.5,-263.5 407.5,-263.5 407.5,-240.5 239.5,-240.5"/>
<text text-anchor="middle" x="323.5" y="-248.3" font-family="Helvetica,sans-Serif" font-size="14.00">DriverStanda_uSMC.h</text>
</a>
</g>
</g>
<!-- Node1&#45;&gt;Node2 -->
<g id="edge1" class="edge">
<title>Node1&#45;&gt;Node2</title>
<path fill="none" stroke="midnightblue" d="M323.5,-300.36C323.5,-292.92 323.5,-282.74 323.5,-273.73"/>
<polygon fill="midnightblue" stroke="midnightblue" points="327,-273.57 323.5,-263.57 320,-273.57 327,-273.57"/>
</g>
<!-- Node3 -->
<g id="node3" class="node">
<title>Node3</title>
<g id="a_node3"><a xlink:title=" ">
<polygon fill="none" stroke="#bfbfbf" points="233.5,-180.5 233.5,-203.5 317.5,-203.5 317.5,-180.5 233.5,-180.5"/>
<text text-anchor="middle" x="275.5" y="-188.3" font-family="Helvetica,sans-Serif" font-size="14.00">libusmc.h</text>
</a>
</g>
</g>
<!-- Node2&#45;&gt;Node3 -->
<g id="edge2" class="edge">
<title>Node2&#45;&gt;Node3</title>
<path fill="none" stroke="midnightblue" d="M314.7,-240.36C308,-232.27 298.62,-220.93 290.71,-211.38"/>
<polygon fill="midnightblue" stroke="midnightblue" points="293.32,-209.04 284.25,-203.57 287.93,-213.51 293.32,-209.04"/>
</g>
<!-- Node4 -->
<g id="node4" class="node">
<title>Node4</title>
<g id="a_node4"><a xlink:href="Driver_8h.html" target="_top" xlink:title="Driver implementation for .">
<polygon fill="none" stroke="black" points="336,-180.5 336,-203.5 407,-203.5 407,-180.5 336,-180.5"/>
<text text-anchor="middle" x="371.5" y="-188.3" font-family="Helvetica,sans-Serif" font-size="14.00">Driver.h</text>
</a>
</g>
</g>
<!-- Node2&#45;&gt;Node4 -->
<g id="edge3" class="edge">
<title>Node2&#45;&gt;Node4</title>
<path fill="none" stroke="midnightblue" d="M332.3,-240.36C339,-232.27 348.38,-220.93 356.29,-211.38"/>
<polygon fill="midnightblue" stroke="midnightblue" points="359.07,-213.51 362.75,-203.57 353.68,-209.04 359.07,-213.51"/>
</g>
<!-- Node5 -->
<g id="node5" class="node">
<title>Node5</title>
<g id="a_node5"><a xlink:title=" ">
<polygon fill="none" stroke="#bfbfbf" points="0,-60.5 0,-83.5 57,-83.5 57,-60.5 0,-60.5"/>
<text text-anchor="middle" x="28.5" y="-68.3" font-family="Helvetica,sans-Serif" font-size="14.00">string</text>
</a>
</g>
</g>
<!-- Node4&#45;&gt;Node5 -->
<g id="edge4" class="edge">
<title>Node4&#45;&gt;Node5</title>
<path fill="none" stroke="midnightblue" d="M335.71,-181.9C332.6,-181.22 329.5,-180.57 326.5,-180 211.91,-158.12 162.22,-210.68 66.5,-144 49.37,-132.07 39.3,-109.91 33.88,-93.5"/>
<polygon fill="midnightblue" stroke="midnightblue" points="37.17,-92.3 30.96,-83.72 30.46,-94.31 37.17,-92.3"/>
</g>
<!-- Node6 -->
<g id="node6" class="node">
<title>Node6</title>
<g id="a_node6"><a xlink:title=" ">
<polygon fill="none" stroke="#bfbfbf" points="75.5,-60.5 75.5,-83.5 135.5,-83.5 135.5,-60.5 75.5,-60.5"/>
<text text-anchor="middle" x="105.5" y="-68.3" font-family="Helvetica,sans-Serif" font-size="14.00">vector</text>
</a>
</g>
</g>
<!-- Node4&#45;&gt;Node6 -->
<g id="edge5" class="edge">
<title>Node4&#45;&gt;Node6</title>
<path fill="none" stroke="midnightblue" d="M343.62,-180.38C321.26,-171.53 289.3,-158.13 262.5,-144 244.83,-134.68 242.31,-129.04 224.5,-120 198.85,-106.98 168.7,-95.1 145.16,-86.55"/>
<polygon fill="midnightblue" stroke="midnightblue" points="146.11,-83.17 135.52,-83.09 143.75,-89.76 146.11,-83.17"/>
</g>
<!-- Node7 -->
<g id="node7" class="node">
<title>Node7</title>
<g id="a_node7"><a xlink:title=" ">
<polygon fill="none" stroke="#bfbfbf" points="154,-60.5 154,-83.5 231,-83.5 231,-60.5 154,-60.5"/>
<text text-anchor="middle" x="192.5" y="-68.3" font-family="Helvetica,sans-Serif" font-size="14.00">iostream</text>
</a>
</g>
</g>
<!-- Node4&#45;&gt;Node7 -->
<g id="edge6" class="edge">
<title>Node4&#45;&gt;Node7</title>
<path fill="none" stroke="midnightblue" d="M355.3,-180.32C323.88,-159.61 254.5,-113.87 217.27,-89.33"/>
<polygon fill="midnightblue" stroke="midnightblue" points="218.81,-86.15 208.54,-83.57 214.96,-92 218.81,-86.15"/>
</g>
<!-- Node8 -->
<g id="node8" class="node">
<title>Node8</title>
<g id="a_node8"><a xlink:title=" ">
<polygon fill="none" stroke="#bfbfbf" points="793.5,-120.5 793.5,-143.5 859.5,-143.5 859.5,-120.5 793.5,-120.5"/>
<text text-anchor="middle" x="826.5" y="-128.3" font-family="Helvetica,sans-Serif" font-size="14.00">math.h</text>
</a>
</g>
</g>
<!-- Node4&#45;&gt;Node8 -->
<g id="edge7" class="edge">
<title>Node4&#45;&gt;Node8</title>
<path fill="none" stroke="midnightblue" d="M407.17,-188.28C478.34,-182.55 642.87,-167.78 779.5,-144 780.78,-143.78 782.07,-143.54 783.38,-143.3"/>
<polygon fill="midnightblue" stroke="midnightblue" points="784.38,-146.66 793.47,-141.23 782.98,-139.81 784.38,-146.66"/>
</g>
<!-- Node9 -->
<g id="node9" class="node">
<title>Node9</title>
<g id="a_node9"><a xlink:title=" ">
<polygon fill="none" stroke="#bfbfbf" points="877.5,-120.5 877.5,-143.5 949.5,-143.5 949.5,-120.5 877.5,-120.5"/>
<text text-anchor="middle" x="913.5" y="-128.3" font-family="Helvetica,sans-Serif" font-size="14.00">sstream</text>
</a>
</g>
</g>
<!-- Node4&#45;&gt;Node9 -->
<g id="edge8" class="edge">
<title>Node4&#45;&gt;Node9</title>
<path fill="none" stroke="midnightblue" d="M407.29,-189.4C487.82,-185.43 689.48,-173.35 867.19,-144.02"/>
<polygon fill="midnightblue" stroke="midnightblue" points="867.96,-147.44 877.24,-142.34 866.8,-140.54 867.96,-147.44"/>
</g>
<!-- Node10 -->
<g id="node10" class="node">
<title>Node10</title>
<g id="a_node10"><a xlink:href="PosixCompat_8h.html" target="_top" xlink:title=" ">
<polygon fill="none" stroke="black" points="249.5,-60.5 249.5,-83.5 369.5,-83.5 369.5,-60.5 249.5,-60.5"/>
<text text-anchor="middle" x="309.5" y="-68.3" font-family="Helvetica,sans-Serif" font-size="14.00">PosixCompat.h</text>
</a>
</g>
</g>
<!-- Node4&#45;&gt;Node10 -->
<g id="edge9" class="edge">
<title>Node4&#45;&gt;Node10</title>
<path fill="none" stroke="midnightblue" d="M365.78,-180.11C355.3,-160.16 332.89,-117.52 319.73,-92.47"/>
<polygon fill="midnightblue" stroke="midnightblue" points="322.78,-90.75 315.03,-83.52 316.58,-94 322.78,-90.75"/>
</g>
<!-- Node13 -->
<g id="node13" class="node">
<title>Node13</title>
<g id="a_node13"><a xlink:href="ACCom_8h.html" target="_top" xlink:title="AC communication backend for AC Com.">
<polygon fill="none" stroke="black" points="366.5,-120.5 366.5,-143.5 446.5,-143.5 446.5,-120.5 366.5,-120.5"/>
<text text-anchor="middle" x="406.5" y="-128.3" font-family="Helvetica,sans-Serif" font-size="14.00">ACCom.h</text>
</a>
</g>
</g>
<!-- Node4&#45;&gt;Node13 -->
<g id="edge12" class="edge">
<title>Node4&#45;&gt;Node13</title>
<path fill="none" stroke="midnightblue" d="M377.92,-180.36C382.66,-172.51 389.23,-161.62 394.88,-152.25"/>
<polygon fill="midnightblue" stroke="midnightblue" points="397.95,-153.94 400.12,-143.57 391.96,-150.32 397.95,-153.94"/>
</g>
<!-- Node16 -->
<g id="node16" class="node">
<title>Node16</title>
<g id="a_node16"><a xlink:href="QsLog_8h.html" target="_top" xlink:title="Qs Log logging support.">
<polygon fill="none" stroke="black" points="755.5,-60.5 755.5,-83.5 829.5,-83.5 829.5,-60.5 755.5,-60.5"/>
<text text-anchor="middle" x="792.5" y="-68.3" font-family="Helvetica,sans-Serif" font-size="14.00">QsLog.h</text>
</a>
</g>
</g>
<!-- Node4&#45;&gt;Node16 -->
<g id="edge26" class="edge">
<title>Node4&#45;&gt;Node16</title>
<path fill="none" stroke="midnightblue" d="M407.05,-190.06C488.4,-187.33 685.45,-177.38 741.5,-144 761.26,-132.23 775.5,-109.52 783.83,-92.94"/>
<polygon fill="midnightblue" stroke="midnightblue" points="787.15,-94.1 788.25,-83.56 780.82,-91.11 787.15,-94.1"/>
</g>
<!-- Node18 -->
<g id="node18" class="node">
<title>Node18</title>
<g id="a_node18"><a xlink:title=" ">
<polygon fill="none" stroke="#bfbfbf" points="679.5,-0.5 679.5,-23.5 749.5,-23.5 749.5,-0.5 679.5,-0.5"/>
<text text-anchor="middle" x="714.5" y="-8.3" font-family="Helvetica,sans-Serif" font-size="14.00">QString</text>
</a>
</g>
</g>
<!-- Node4&#45;&gt;Node18 -->
<g id="edge27" class="edge">
<title>Node4&#45;&gt;Node18</title>
<path fill="none" stroke="midnightblue" d="M407.06,-191.6C477.37,-190.66 633.81,-177.54 708.5,-84 719.62,-70.08 720.12,-49.34 718.44,-33.87"/>
<polygon fill="midnightblue" stroke="midnightblue" points="721.86,-33.09 716.95,-23.71 714.94,-34.11 721.86,-33.09"/>
</g>
<!-- Node20 -->
<g id="node20" class="node">
<title>Node20</title>
<g id="a_node20"><a xlink:href="DriverDefinition_8h.html" target="_top" xlink:title="Driver implementation for Definition.">
<polygon fill="none" stroke="black" points="75.5,-120.5 75.5,-143.5 215.5,-143.5 215.5,-120.5 75.5,-120.5"/>
<text text-anchor="middle" x="145.5" y="-128.3" font-family="Helvetica,sans-Serif" font-size="14.00">DriverDefinition.h</text>
</a>
</g>
</g>
<!-- Node4&#45;&gt;Node20 -->
<g id="edge24" class="edge">
<title>Node4&#45;&gt;Node20</title>
<path fill="none" stroke="midnightblue" d="M335.94,-181.87C298.42,-172.25 238.96,-156.99 196.47,-146.08"/>
<polygon fill="midnightblue" stroke="midnightblue" points="197.15,-142.64 186.59,-143.55 195.41,-149.42 197.15,-142.64"/>
</g>
<!-- Node11 -->
<g id="node11" class="node">
<title>Node11</title>
<g id="a_node11"><a xlink:title=" ">
<polygon fill="none" stroke="#bfbfbf" points="224,-0.5 224,-23.5 301,-23.5 301,-0.5 224,-0.5"/>
<text text-anchor="middle" x="262.5" y="-8.3" font-family="Helvetica,sans-Serif" font-size="14.00">QtGlobal</text>
</a>
</g>
</g>
<!-- Node10&#45;&gt;Node11 -->
<g id="edge10" class="edge">
<title>Node10&#45;&gt;Node11</title>
<path fill="none" stroke="midnightblue" d="M300.88,-60.36C294.32,-52.27 285.13,-40.93 277.39,-31.38"/>
<polygon fill="midnightblue" stroke="midnightblue" points="280.08,-29.14 271.07,-23.57 274.64,-33.54 280.08,-29.14"/>
</g>
<!-- Node12 -->
<g id="node12" class="node">
<title>Node12</title>
<g id="a_node12"><a xlink:title=" ">
<polygon fill="none" stroke="#bfbfbf" points="319.5,-0.5 319.5,-23.5 393.5,-23.5 393.5,-0.5 319.5,-0.5"/>
<text text-anchor="middle" x="356.5" y="-8.3" font-family="Helvetica,sans-Serif" font-size="14.00">unistd.h</text>
</a>
</g>
</g>
<!-- Node10&#45;&gt;Node12 -->
<g id="edge11" class="edge">
<title>Node10&#45;&gt;Node12</title>
<path fill="none" stroke="midnightblue" d="M318.12,-60.36C324.68,-52.27 333.87,-40.93 341.61,-31.38"/>
<polygon fill="midnightblue" stroke="midnightblue" points="344.36,-33.54 347.93,-23.57 338.92,-29.14 344.36,-33.54"/>
</g>
<!-- Node13&#45;&gt;Node5 -->
<g id="edge13" class="edge">
<title>Node13&#45;&gt;Node5</title>
<path fill="none" stroke="midnightblue" d="M366.39,-127.35C304.28,-121.29 180.98,-107.61 66.97,-83.84"/>
<polygon fill="midnightblue" stroke="midnightblue" points="67.53,-80.38 57.02,-81.74 66.08,-87.23 67.53,-80.38"/>
</g>
<!-- Node13&#45;&gt;Node6 -->
<g id="edge16" class="edge">
<title>Node13&#45;&gt;Node6</title>
<path fill="none" stroke="midnightblue" d="M366.31,-125.04C316.64,-117.39 229.38,-103.07 145.59,-84.1"/>
<polygon fill="midnightblue" stroke="midnightblue" points="146.19,-80.64 135.66,-81.82 144.62,-87.46 146.19,-80.64"/>
</g>
<!-- Node13&#45;&gt;Node7 -->
<g id="edge14" class="edge">
<title>Node13&#45;&gt;Node7</title>
<path fill="none" stroke="midnightblue" d="M367.75,-120.5C332.25,-110.88 279.57,-96.6 241.24,-86.21"/>
<polygon fill="midnightblue" stroke="midnightblue" points="241.89,-82.76 231.33,-83.52 240.06,-89.52 241.89,-82.76"/>
</g>
<!-- Node13&#45;&gt;Node10 -->
<g id="edge18" class="edge">
<title>Node13&#45;&gt;Node10</title>
<path fill="none" stroke="midnightblue" d="M388.71,-120.36C373.94,-111.53 352.72,-98.84 335.96,-88.82"/>
<polygon fill="midnightblue" stroke="midnightblue" points="337.56,-85.7 327.18,-83.57 333.97,-91.71 337.56,-85.7"/>
</g>
<!-- Node14 -->
<g id="node14" class="node">
<title>Node14</title>
<g id="a_node14"><a xlink:title=" ">
<polygon fill="none" stroke="#bfbfbf" points="629.5,-60.5 629.5,-83.5 699.5,-83.5 699.5,-60.5 629.5,-60.5"/>
<text text-anchor="middle" x="664.5" y="-68.3" font-family="Helvetica,sans-Serif" font-size="14.00">fstream</text>
</a>
</g>
</g>
<!-- Node13&#45;&gt;Node14 -->
<g id="edge15" class="edge">
<title>Node13&#45;&gt;Node14</title>
<path fill="none" stroke="midnightblue" d="M446.81,-122.51C487.87,-113.78 553.61,-99.58 619.71,-84.14"/>
<polygon fill="midnightblue" stroke="midnightblue" points="620.52,-87.55 629.46,-81.86 618.92,-80.73 620.52,-87.55"/>
</g>
<!-- Node15 -->
<g id="node15" class="node">
<title>Node15</title>
<g id="a_node15"><a xlink:title=" ">
<polygon fill="none" stroke="#bfbfbf" points="537.5,-60.5 537.5,-83.5 611.5,-83.5 611.5,-60.5 537.5,-60.5"/>
<text text-anchor="middle" x="574.5" y="-68.3" font-family="Helvetica,sans-Serif" font-size="14.00">stdarg.h</text>
</a>
</g>
</g>
<!-- Node13&#45;&gt;Node15 -->
<g id="edge17" class="edge">
<title>Node13&#45;&gt;Node15</title>
<path fill="none" stroke="midnightblue" d="M436.92,-120.5C464.19,-111.08 504.39,-97.2 534.3,-86.88"/>
<polygon fill="midnightblue" stroke="midnightblue" points="535.71,-90.09 544.02,-83.52 533.42,-83.48 535.71,-90.09"/>
</g>
<!-- Node13&#45;&gt;Node16 -->
<g id="edge19" class="edge">
<title>Node13&#45;&gt;Node16</title>
<path fill="none" stroke="midnightblue" d="M446.72,-124.96C518.46,-114.18 668.15,-91.68 744.9,-80.15"/>
<polygon fill="midnightblue" stroke="midnightblue" points="745.86,-83.55 755.23,-78.6 744.82,-76.63 745.86,-83.55"/>
</g>
<!-- Node13&#45;&gt;Node18 -->
<g id="edge22" class="edge">
<title>Node13&#45;&gt;Node18</title>
<path fill="none" stroke="midnightblue" d="M426.02,-120.46C443.15,-111.12 468.67,-96.99 490.5,-84 507.67,-73.79 510.14,-67.88 528.5,-60 574.72,-40.16 631.13,-27.38 669.63,-20.22"/>
<polygon fill="midnightblue" stroke="midnightblue" points="670.28,-23.66 679.5,-18.44 669.03,-16.77 670.28,-23.66"/>
</g>
<!-- Node19 -->
<g id="node19" class="node">
<title>Node19</title>
<g id="a_node19"><a xlink:title=" ">
<polygon fill="none" stroke="#bfbfbf" points="387.5,-60.5 387.5,-83.5 481.5,-83.5 481.5,-60.5 387.5,-60.5"/>
<text text-anchor="middle" x="434.5" y="-68.3" font-family="Helvetica,sans-Serif" font-size="14.00">QStringList</text>
</a>
</g>
</g>
<!-- Node13&#45;&gt;Node19 -->
<g id="edge23" class="edge">
<title>Node13&#45;&gt;Node19</title>
<path fill="none" stroke="midnightblue" d="M411.64,-120.36C415.35,-112.68 420.47,-102.07 424.92,-92.84"/>
<polygon fill="midnightblue" stroke="midnightblue" points="428.2,-94.1 429.4,-83.57 421.9,-91.05 428.2,-94.1"/>
</g>
<!-- Node17 -->
<g id="node17" class="node">
<title>Node17</title>
<g id="a_node17"><a xlink:title=" ">
<polygon fill="none" stroke="#bfbfbf" points="767.5,-0.5 767.5,-23.5 841.5,-23.5 841.5,-0.5 767.5,-0.5"/>
<text text-anchor="middle" x="804.5" y="-8.3" font-family="Helvetica,sans-Serif" font-size="14.00">QDebug</text>
</a>
</g>
</g>
<!-- Node16&#45;&gt;Node17 -->
<g id="edge20" class="edge">
<title>Node16&#45;&gt;Node17</title>
<path fill="none" stroke="midnightblue" d="M794.7,-60.36C796.26,-52.84 798.39,-42.52 800.27,-33.43"/>
<polygon fill="midnightblue" stroke="midnightblue" points="803.71,-34.07 802.31,-23.57 796.86,-32.65 803.71,-34.07"/>
</g>
<!-- Node16&#45;&gt;Node18 -->
<g id="edge21" class="edge">
<title>Node16&#45;&gt;Node18</title>
<path fill="none" stroke="midnightblue" d="M778.19,-60.36C766.65,-51.78 750.2,-39.55 736.91,-29.66"/>
<polygon fill="midnightblue" stroke="midnightblue" points="738.83,-26.73 728.72,-23.57 734.65,-32.35 738.83,-26.73"/>
</g>
<!-- Node20&#45;&gt;Node5 -->
<g id="edge25" class="edge">
<title>Node20&#45;&gt;Node5</title>
<path fill="none" stroke="midnightblue" d="M124.31,-120.5C106.04,-111.44 79.43,-98.25 58.89,-88.06"/>
<polygon fill="midnightblue" stroke="midnightblue" points="60.44,-84.93 49.93,-83.62 57.33,-91.2 60.44,-84.93"/>
</g>
</g>
</svg>
        <g id="navigator" transform="translate(0 0)" fill="#404254">
                <rect fill="#f2f5e9" fill-opacity="0.5" stroke="#606060" stroke-width=".5" x="0" y="0" width="60" height="60"/>
                <use id="zoomplus" xlink:href="#zoomPlus" x="17" y="9" onmousedown="handleZoom(evt,'in')"/>
                <use id="zoomminus" xlink:href="#zoomMin" x="42" y="9" onmousedown="handleZoom(evt,'out')"/>
                <use id="reset" xlink:href="#resetDef" x="30" y="36" onmousedown="handleReset()"/>
                <g id="arrowUp" xlink:href="#dirArrow" transform="translate(30 24)" onmousedown="handlePan(0,-1)">
                  <use xlink:href="#rim" fill="#404040">
                        <set attributeName="fill" to="#808080" begin="arrowUp.mouseover" end="arrowUp.mouseout"/>
                  </use>
                  <path fill="none" stroke="white" stroke-width="1.5" d="M0,-3.0v7 M-2.5,-0.5L0,-3.0L2.5,-0.5"/>
                </g>
                <g id="arrowRight" xlink:href="#dirArrow" transform="rotate(90) translate(36 -43)" onmousedown="handlePan(1,0)">
                  <use xlink:href="#rim" fill="#404040">
                        <set attributeName="fill" to="#808080" begin="arrowRight.mouseover" end="arrowRight.mouseout"/>
                  </use>
                  <path fill="none" stroke="white" stroke-width="1.5" d="M0,-3.0v7 M-2.5,-0.5L0,-3.0L2.5,-0.5"/>
                </g>
                <g id="arrowDown" xlink:href="#dirArrow" transform="rotate(180) translate(-30 -48)" onmousedown="handlePan(0,1)">
                  <use xlink:href="#rim" fill="#404040">
                        <set attributeName="fill" to="#808080" begin="arrowDown.mouseover" end="arrowDown.mouseout"/>
                  </use>
                  <path fill="none" stroke="white" stroke-width="1.5" d="M0,-3.0v7 M-2.5,-0.5L0,-3.0L2.5,-0.5"/>
                </g>
                <g id="arrowLeft" xlink:href="#dirArrow" transform="rotate(270) translate(-36 17)" onmousedown="handlePan(-1,0)">
                  <use xlink:href="#rim" fill="#404040">
                        <set attributeName="fill" to="#808080" begin="arrowLeft.mouseover" end="arrowLeft.mouseout"/>
                  </use>
                  <path fill="none" stroke="white" stroke-width="1.5" d="M0,-3.0v7 M-2.5,-0.5L0,-3.0L2.5,-0.5"/>
                </g>
        </g>
        <svg viewBox="0 0 15 15" width="100%" height="30px" preserveAspectRatio="xMaxYMin meet">
         <g id="arrow_out" transform="scale(0.3 0.3)">
          <a xlink:href="DriverStanda__uSMC_8cpp__incl_org.svg" target="_base">
           <rect id="button" ry="5" rx="5" y="6" x="6" height="38" width="38"
                fill="#f2f5e9" fill-opacity="0.5" stroke="#606060" stroke-width="1.0"/>
           <path id="arrow"
             d="M 11.500037,31.436501 C 11.940474,20.09759 22.043105,11.32322 32.158766,21.979434 L 37.068811,17.246167 C 37.068811,17.246167 37.088388,32 37.088388,32 L 22.160133,31.978069 C 22.160133,31.978069 26.997745,27.140456 26.997745,27.140456 C 18.528582,18.264221 13.291696,25.230495 11.500037,31.436501 z"
             style="fill:#404040;"/>
          </a>
         </g>
        </svg>
</svg>
