<?xml version="1.0" encoding="UTF-8" standalone="no"?>
<!DOCTYPE svg PUBLIC "-//W3C//DTD SVG 1.1//EN"
 "http://www.w3.org/Graphics/SVG/1.1/DTD/svg11.dtd">
<!-- Generated by graphviz version 2.50.0 (0)
 -->
<!-- Title: DriverPI_C509.h Pages: 1 -->
<svg width="948pt" height="272pt"
 viewBox="0.00 0.00 947.81 272.00" xmlns="http://www.w3.org/2000/svg" xmlns:xlink="http://www.w3.org/1999/xlink">
<style><![CDATA[
text { fill: #e6e6e6 !important; }
polygon { fill: #2f2f2f !important; stroke: #9aa0a6 !important; }
path, line, polyline { stroke: #4e67d6 !important; }
]]></style>
<style><![CDATA[
text { fill: #e6e6e6 !important; }
polygon { fill: #2f2f2f !important; stroke: #9aa0a6 !important; }
path, line, polyline { stroke: #4e67d6 !important; }
]]></style>
<style><![CDATA[
text { fill: #e6e6e6 !important; }
polygon { fill: #2f2f2f !important; stroke: #9aa0a6 !important; }
path, line, polyline { stroke: #4e67d6 !important; }
]]></style>
<style><![CDATA[
text { fill: #e6e6e6 !important; }
polygon { fill: #2f2f2f !important; stroke: #9aa0a6 !important; }
path, line, polyline { stroke: #4e67d6 !important; }
]]></style>
<style><![CDATA[
text { fill: #e6e6e6 !important; }
polygon { fill: #2f2f2f !important; stroke: #9aa0a6 !important; }
path, line, polyline { stroke: #4e67d6 !important; }
]]></style>
<style><![CDATA[
text { fill: #e6e6e6 !important; }
polygon { fill: #2f2f2f !important; stroke: #9aa0a6 !important; }
path, line, polyline { stroke: #4e67d6 !important; }
]]></style>
<style><![CDATA[
text { fill: #e6e6e6 !important; }
polygon { fill: #2f2f2f !important; stroke: #9aa0a6 !important; }
path, line, polyline { stroke: #4e67d6 !important; }
]]></style>
<g id="graph0" class="graph" transform="scale(1 1) rotate(0) translate(4 268)">
<title>DriverPI_C509.h</title>
<!-- Node1 -->
<g id="node1" class="node">
<title>Node1</title>
<g id="a_node1"><a xlink:title="Driver implementation for PI C 509.">
<polygon fill="#bfbfbf" stroke="black" points="461.5,-240.5 461.5,-263.5 590.5,-263.5 590.5,-240.5 461.5,-240.5"/>
<text text-anchor="middle" x="526" y="-248.3" font-family="Helvetica,sans-Serif" font-size="14.00">DriverPI_C509.h</text>
</a>
</g>
</g>
<!-- Node2 -->
<g id="node2" class="node">
<title>Node2</title>
<g id="a_node2"><a xlink:title=" ">
<polygon fill="none" stroke="#bfbfbf" points="799.5,-60.5 799.5,-83.5 856.5,-83.5 856.5,-60.5 799.5,-60.5"/>
<text text-anchor="middle" x="828" y="-68.3" font-family="Helvetica,sans-Serif" font-size="14.00">string</text>
</a>
</g>
</g>
<!-- Node1&#45;&gt;Node2 -->
<g id="edge1" class="edge">
<title>Node1&#45;&gt;Node2</title>
<path fill="none" stroke="midnightblue" d="M590.66,-243.58C694.81,-230.14 892.29,-198.06 934,-144 956.42,-114.94 905.41,-93.76 866.64,-82.42"/>
<polygon fill="midnightblue" stroke="midnightblue" points="867.17,-78.94 856.59,-79.62 865.29,-85.68 867.17,-78.94"/>
</g>
<!-- Node3 -->
<g id="node3" class="node">
<title>Node3</title>
<g id="a_node3"><a xlink:title=" ">
<polygon fill="none" stroke="#bfbfbf" points="0,-60.5 0,-83.5 60,-83.5 60,-60.5 0,-60.5"/>
<text text-anchor="middle" x="30" y="-68.3" font-family="Helvetica,sans-Serif" font-size="14.00">vector</text>
</a>
</g>
</g>
<!-- Node1&#45;&gt;Node3 -->
<g id="edge2" class="edge">
<title>Node1&#45;&gt;Node3</title>
<path fill="none" stroke="midnightblue" d="M480.86,-240.46C411.9,-223.71 276.75,-188.33 167,-144 127.23,-127.93 83.61,-104.19 56.52,-88.66"/>
<polygon fill="midnightblue" stroke="midnightblue" points="58.07,-85.51 47.66,-83.53 54.56,-91.57 58.07,-85.51"/>
</g>
<!-- Node4 -->
<g id="node4" class="node">
<title>Node4</title>
<g id="a_node4"><a xlink:href="Driver_8h.html" target="_top" xlink:title="Driver implementation for .">
<polygon fill="none" stroke="black" points="490.5,-180.5 490.5,-203.5 561.5,-203.5 561.5,-180.5 490.5,-180.5"/>
<text text-anchor="middle" x="526" y="-188.3" font-family="Helvetica,sans-Serif" font-size="14.00">Driver.h</text>
</a>
</g>
</g>
<!-- Node1&#45;&gt;Node4 -->
<g id="edge3" class="edge">
<title>Node1&#45;&gt;Node4</title>
<path fill="none" stroke="midnightblue" d="M526,-240.36C526,-232.92 526,-222.74 526,-213.73"/>
<polygon fill="midnightblue" stroke="midnightblue" points="529.5,-213.57 526,-203.57 522.5,-213.57 529.5,-213.57"/>
</g>
<!-- Node4&#45;&gt;Node2 -->
<g id="edge4" class="edge">
<title>Node4&#45;&gt;Node2</title>
<path fill="none" stroke="midnightblue" d="M561.71,-188C605.17,-183.25 679.93,-171.56 738,-144 752.99,-136.89 786.62,-108.93 808.26,-90.29"/>
<polygon fill="midnightblue" stroke="midnightblue" points="810.64,-92.86 815.9,-83.67 806.05,-87.57 810.64,-92.86"/>
</g>
<!-- Node4&#45;&gt;Node3 -->
<g id="edge5" class="edge">
<title>Node4&#45;&gt;Node3</title>
<path fill="none" stroke="midnightblue" d="M490.38,-186.6C437.47,-179.69 335.21,-164.89 250,-144 184.91,-128.04 111.12,-102.69 67.68,-86.99"/>
<polygon fill="midnightblue" stroke="midnightblue" points="68.7,-83.64 58.1,-83.51 66.31,-90.22 68.7,-83.64"/>
</g>
<!-- Node5 -->
<g id="node5" class="node">
<title>Node5</title>
<g id="a_node5"><a xlink:title=" ">
<polygon fill="none" stroke="#bfbfbf" points="78.5,-60.5 78.5,-83.5 155.5,-83.5 155.5,-60.5 78.5,-60.5"/>
<text text-anchor="middle" x="117" y="-68.3" font-family="Helvetica,sans-Serif" font-size="14.00">iostream</text>
</a>
</g>
</g>
<!-- Node4&#45;&gt;Node5 -->
<g id="edge6" class="edge">
<title>Node4&#45;&gt;Node5</title>
<path fill="none" stroke="midnightblue" d="M490.35,-183.42C450.89,-174.81 385.51,-159.88 330,-144 268.42,-126.39 198.13,-102.13 155.69,-87.02"/>
<polygon fill="midnightblue" stroke="midnightblue" points="156.63,-83.64 146.04,-83.57 154.27,-90.23 156.63,-83.64"/>
</g>
<!-- Node6 -->
<g id="node6" class="node">
<title>Node6</title>
<g id="a_node6"><a xlink:title=" ">
<polygon fill="none" stroke="#bfbfbf" points="573,-120.5 573,-143.5 639,-143.5 639,-120.5 573,-120.5"/>
<text text-anchor="middle" x="606" y="-128.3" font-family="Helvetica,sans-Serif" font-size="14.00">math.h</text>
</a>
</g>
</g>
<!-- Node4&#45;&gt;Node6 -->
<g id="edge7" class="edge">
<title>Node4&#45;&gt;Node6</title>
<path fill="none" stroke="midnightblue" d="M540.67,-180.36C552.51,-171.78 569.39,-159.55 583.02,-149.66"/>
<polygon fill="midnightblue" stroke="midnightblue" points="585.38,-152.27 591.42,-143.57 581.27,-146.61 585.38,-152.27"/>
</g>
<!-- Node7 -->
<g id="node7" class="node">
<title>Node7</title>
<g id="a_node7"><a xlink:title=" ">
<polygon fill="none" stroke="#bfbfbf" points="657,-120.5 657,-143.5 729,-143.5 729,-120.5 657,-120.5"/>
<text text-anchor="middle" x="693" y="-128.3" font-family="Helvetica,sans-Serif" font-size="14.00">sstream</text>
</a>
</g>
</g>
<!-- Node4&#45;&gt;Node7 -->
<g id="edge8" class="edge">
<title>Node4&#45;&gt;Node7</title>
<path fill="none" stroke="midnightblue" d="M556.24,-180.5C583.35,-171.08 623.31,-157.2 653.04,-146.88"/>
<polygon fill="midnightblue" stroke="midnightblue" points="654.4,-150.11 662.7,-143.52 652.11,-143.5 654.4,-150.11"/>
</g>
<!-- Node8 -->
<g id="node8" class="node">
<title>Node8</title>
<g id="a_node8"><a xlink:href="PosixCompat_8h.html" target="_top" xlink:title=" ">
<polygon fill="none" stroke="black" points="174,-60.5 174,-83.5 294,-83.5 294,-60.5 174,-60.5"/>
<text text-anchor="middle" x="234" y="-68.3" font-family="Helvetica,sans-Serif" font-size="14.00">PosixCompat.h</text>
</a>
</g>
</g>
<!-- Node4&#45;&gt;Node8 -->
<g id="edge9" class="edge">
<title>Node4&#45;&gt;Node8</title>
<path fill="none" stroke="midnightblue" d="M492.7,-180.47C464.97,-171.46 424.57,-157.8 390,-144 345.67,-126.3 295.65,-102.9 264.47,-87.9"/>
<polygon fill="midnightblue" stroke="midnightblue" points="265.95,-84.73 255.42,-83.53 262.91,-91.03 265.95,-84.73"/>
</g>
<!-- Node11 -->
<g id="node11" class="node">
<title>Node11</title>
<g id="a_node11"><a xlink:href="ACCom_8h.html" target="_top" xlink:title="AC communication backend for AC Com.">
<polygon fill="none" stroke="black" points="399,-120.5 399,-143.5 479,-143.5 479,-120.5 399,-120.5"/>
<text text-anchor="middle" x="439" y="-128.3" font-family="Helvetica,sans-Serif" font-size="14.00">ACCom.h</text>
</a>
</g>
</g>
<!-- Node4&#45;&gt;Node11 -->
<g id="edge12" class="edge">
<title>Node4&#45;&gt;Node11</title>
<path fill="none" stroke="midnightblue" d="M510.04,-180.36C497.04,-171.7 478.47,-159.31 463.57,-149.38"/>
<polygon fill="midnightblue" stroke="midnightblue" points="465.12,-146.21 454.86,-143.57 461.24,-152.03 465.12,-146.21"/>
</g>
<!-- Node14 -->
<g id="node14" class="node">
<title>Node14</title>
<g id="a_node14"><a xlink:href="QsLog_8h.html" target="_top" xlink:title="Qs Log logging support.">
<polygon fill="none" stroke="black" points="642,-60.5 642,-83.5 716,-83.5 716,-60.5 642,-60.5"/>
<text text-anchor="middle" x="679" y="-68.3" font-family="Helvetica,sans-Serif" font-size="14.00">QsLog.h</text>
</a>
</g>
</g>
<!-- Node4&#45;&gt;Node14 -->
<g id="edge26" class="edge">
<title>Node4&#45;&gt;Node14</title>
<path fill="none" stroke="midnightblue" d="M523.37,-180.31C520.33,-165.17 517.32,-137.38 531,-120 537.51,-111.73 591.13,-96.07 631.97,-85.1"/>
<polygon fill="midnightblue" stroke="midnightblue" points="633.02,-88.45 641.78,-82.49 631.22,-81.68 633.02,-88.45"/>
</g>
<!-- Node16 -->
<g id="node16" class="node">
<title>Node16</title>
<g id="a_node16"><a xlink:title=" ">
<polygon fill="none" stroke="#bfbfbf" points="611,-0.5 611,-23.5 681,-23.5 681,-0.5 611,-0.5"/>
<text text-anchor="middle" x="646" y="-8.3" font-family="Helvetica,sans-Serif" font-size="14.00">QString</text>
</a>
</g>
</g>
<!-- Node4&#45;&gt;Node16 -->
<g id="edge27" class="edge">
<title>Node4&#45;&gt;Node16</title>
<path fill="none" stroke="midnightblue" d="M528.61,-180.49C533.08,-164.78 543.74,-135.39 564,-120 622.39,-75.64 679.16,-141.22 725,-84 742.51,-62.15 711.46,-41.24 683.29,-27.85"/>
<polygon fill="midnightblue" stroke="midnightblue" points="684.47,-24.54 673.92,-23.6 681.58,-30.92 684.47,-24.54"/>
</g>
<!-- Node18 -->
<g id="node18" class="node">
<title>Node18</title>
<g id="a_node18"><a xlink:href="DriverDefinition_8h.html" target="_top" xlink:title="Driver implementation for Definition.">
<polygon fill="none" stroke="black" points="785,-120.5 785,-143.5 925,-143.5 925,-120.5 785,-120.5"/>
<text text-anchor="middle" x="855" y="-128.3" font-family="Helvetica,sans-Serif" font-size="14.00">DriverDefinition.h</text>
</a>
</g>
</g>
<!-- Node4&#45;&gt;Node18 -->
<g id="edge24" class="edge">
<title>Node4&#45;&gt;Node18</title>
<path fill="none" stroke="midnightblue" d="M561.52,-184.74C614.89,-175.33 716.8,-157.36 785.34,-145.28"/>
<polygon fill="midnightblue" stroke="midnightblue" points="785.96,-148.72 795.21,-143.54 784.75,-141.83 785.96,-148.72"/>
</g>
<!-- Node9 -->
<g id="node9" class="node">
<title>Node9</title>
<g id="a_node9"><a xlink:title=" ">
<polygon fill="none" stroke="#bfbfbf" points="148.5,-0.5 148.5,-23.5 225.5,-23.5 225.5,-0.5 148.5,-0.5"/>
<text text-anchor="middle" x="187" y="-8.3" font-family="Helvetica,sans-Serif" font-size="14.00">QtGlobal</text>
</a>
</g>
</g>
<!-- Node8&#45;&gt;Node9 -->
<g id="edge10" class="edge">
<title>Node8&#45;&gt;Node9</title>
<path fill="none" stroke="midnightblue" d="M225.38,-60.36C218.82,-52.27 209.63,-40.93 201.89,-31.38"/>
<polygon fill="midnightblue" stroke="midnightblue" points="204.58,-29.14 195.57,-23.57 199.14,-33.54 204.58,-29.14"/>
</g>
<!-- Node10 -->
<g id="node10" class="node">
<title>Node10</title>
<g id="a_node10"><a xlink:title=" ">
<polygon fill="none" stroke="#bfbfbf" points="244,-0.5 244,-23.5 318,-23.5 318,-0.5 244,-0.5"/>
<text text-anchor="middle" x="281" y="-8.3" font-family="Helvetica,sans-Serif" font-size="14.00">unistd.h</text>
</a>
</g>
</g>
<!-- Node8&#45;&gt;Node10 -->
<g id="edge11" class="edge">
<title>Node8&#45;&gt;Node10</title>
<path fill="none" stroke="midnightblue" d="M242.62,-60.36C249.18,-52.27 258.37,-40.93 266.11,-31.38"/>
<polygon fill="midnightblue" stroke="midnightblue" points="268.86,-33.54 272.43,-23.57 263.42,-29.14 268.86,-33.54"/>
</g>
<!-- Node11&#45;&gt;Node2 -->
<g id="edge13" class="edge">
<title>Node11&#45;&gt;Node2</title>
<path fill="none" stroke="midnightblue" d="M479.16,-125.01C554.28,-113.81 715.12,-89.83 789.19,-78.79"/>
<polygon fill="midnightblue" stroke="midnightblue" points="790.1,-82.19 799.47,-77.25 789.06,-75.27 790.1,-82.19"/>
</g>
<!-- Node11&#45;&gt;Node3 -->
<g id="edge16" class="edge">
<title>Node11&#45;&gt;Node3</title>
<path fill="none" stroke="midnightblue" d="M398.99,-127.88C332.57,-122.28 195.3,-108.89 70.26,-84.02"/>
<polygon fill="midnightblue" stroke="midnightblue" points="70.62,-80.52 60.13,-81.97 69.23,-87.39 70.62,-80.52"/>
</g>
<!-- Node11&#45;&gt;Node5 -->
<g id="edge14" class="edge">
<title>Node11&#45;&gt;Node5</title>
<path fill="none" stroke="midnightblue" d="M398.94,-124.84C347.38,-116.76 254.82,-101.72 165.73,-84.07"/>
<polygon fill="midnightblue" stroke="midnightblue" points="166.22,-80.59 155.73,-82.07 164.85,-87.46 166.22,-80.59"/>
</g>
<!-- Node11&#45;&gt;Node8 -->
<g id="edge18" class="edge">
<title>Node11&#45;&gt;Node8</title>
<path fill="none" stroke="midnightblue" d="M401.88,-120.5C368.02,-110.92 317.84,-96.72 281.16,-86.34"/>
<polygon fill="midnightblue" stroke="midnightblue" points="281.77,-82.88 271.19,-83.52 279.86,-89.61 281.77,-82.88"/>
</g>
<!-- Node12 -->
<g id="node12" class="node">
<title>Node12</title>
<g id="a_node12"><a xlink:title=" ">
<polygon fill="none" stroke="#bfbfbf" points="404,-60.5 404,-83.5 474,-83.5 474,-60.5 404,-60.5"/>
<text text-anchor="middle" x="439" y="-68.3" font-family="Helvetica,sans-Serif" font-size="14.00">fstream</text>
</a>
</g>
</g>
<!-- Node11&#45;&gt;Node12 -->
<g id="edge15" class="edge">
<title>Node11&#45;&gt;Node12</title>
<path fill="none" stroke="midnightblue" d="M439,-120.36C439,-112.92 439,-102.74 439,-93.73"/>
<polygon fill="midnightblue" stroke="midnightblue" points="442.5,-93.57 439,-83.57 435.5,-93.57 442.5,-93.57"/>
</g>
<!-- Node13 -->
<g id="node13" class="node">
<title>Node13</title>
<g id="a_node13"><a xlink:title=" ">
<polygon fill="none" stroke="#bfbfbf" points="312,-60.5 312,-83.5 386,-83.5 386,-60.5 312,-60.5"/>
<text text-anchor="middle" x="349" y="-68.3" font-family="Helvetica,sans-Serif" font-size="14.00">stdarg.h</text>
</a>
</g>
</g>
<!-- Node11&#45;&gt;Node13 -->
<g id="edge17" class="edge">
<title>Node11&#45;&gt;Node13</title>
<path fill="none" stroke="midnightblue" d="M422.49,-120.36C408.92,-111.61 389.47,-99.08 373.99,-89.1"/>
<polygon fill="midnightblue" stroke="midnightblue" points="375.7,-86.05 365.4,-83.57 371.91,-91.93 375.7,-86.05"/>
</g>
<!-- Node11&#45;&gt;Node14 -->
<g id="edge19" class="edge">
<title>Node11&#45;&gt;Node14</title>
<path fill="none" stroke="midnightblue" d="M479.17,-121.29C521.26,-111.12 587.34,-95.15 631.87,-84.39"/>
<polygon fill="midnightblue" stroke="midnightblue" points="632.96,-87.73 641.86,-81.98 631.32,-80.92 632.96,-87.73"/>
</g>
<!-- Node11&#45;&gt;Node16 -->
<g id="edge22" class="edge">
<title>Node11&#45;&gt;Node16</title>
<path fill="none" stroke="midnightblue" d="M479.33,-126.18C512.85,-120.56 560.47,-108.66 595,-84 613.51,-70.78 627.83,-48.7 636.52,-32.67"/>
<polygon fill="midnightblue" stroke="midnightblue" points="639.72,-34.09 641.19,-23.6 633.5,-30.89 639.72,-34.09"/>
</g>
<!-- Node17 -->
<g id="node17" class="node">
<title>Node17</title>
<g id="a_node17"><a xlink:title=" ">
<polygon fill="none" stroke="#bfbfbf" points="492,-60.5 492,-83.5 586,-83.5 586,-60.5 492,-60.5"/>
<text text-anchor="middle" x="539" y="-68.3" font-family="Helvetica,sans-Serif" font-size="14.00">QStringList</text>
</a>
</g>
</g>
<!-- Node11&#45;&gt;Node17 -->
<g id="edge23" class="edge">
<title>Node11&#45;&gt;Node17</title>
<path fill="none" stroke="midnightblue" d="M457.34,-120.36C472.57,-111.53 494.44,-98.84 511.72,-88.82"/>
<polygon fill="midnightblue" stroke="midnightblue" points="513.88,-91.62 520.77,-83.57 510.37,-85.56 513.88,-91.62"/>
</g>
<!-- Node15 -->
<g id="node15" class="node">
<title>Node15</title>
<g id="a_node15"><a xlink:title=" ">
<polygon fill="none" stroke="#bfbfbf" points="699,-0.5 699,-23.5 773,-23.5 773,-0.5 699,-0.5"/>
<text text-anchor="middle" x="736" y="-8.3" font-family="Helvetica,sans-Serif" font-size="14.00">QDebug</text>
</a>
</g>
</g>
<!-- Node14&#45;&gt;Node15 -->
<g id="edge20" class="edge">
<title>Node14&#45;&gt;Node15</title>
<path fill="none" stroke="midnightblue" d="M689.45,-60.36C697.57,-52.1 709,-40.47 718.5,-30.8"/>
<polygon fill="midnightblue" stroke="midnightblue" points="721.1,-33.16 725.61,-23.57 716.11,-28.25 721.1,-33.16"/>
</g>
<!-- Node14&#45;&gt;Node16 -->
<g id="edge21" class="edge">
<title>Node14&#45;&gt;Node16</title>
<path fill="none" stroke="midnightblue" d="M672.95,-60.36C668.53,-52.59 662.41,-41.84 657.12,-32.55"/>
<polygon fill="midnightblue" stroke="midnightblue" points="660,-30.53 652.01,-23.57 653.92,-33.99 660,-30.53"/>
</g>
<!-- Node18&#45;&gt;Node2 -->
<g id="edge25" class="edge">
<title>Node18&#45;&gt;Node2</title>
<path fill="none" stroke="midnightblue" d="M850.05,-120.36C846.47,-112.68 841.53,-102.07 837.24,-92.84"/>
<polygon fill="midnightblue" stroke="midnightblue" points="840.31,-91.16 832.92,-83.57 833.97,-94.11 840.31,-91.16"/>
</g>
</g>
</svg>
