<?xml version="1.0" encoding="UTF-8" standalone="no"?>
<!DOCTYPE svg PUBLIC "-//W3C//DTD SVG 1.1//EN"
 "http://www.w3.org/Graphics/SVG/1.1/DTD/svg11.dtd">
<!-- Generated by graphviz version 2.50.0 (0)
 -->
<!-- Title: FileParser.cpp Pages: 1 -->
<svg width="659pt" height="212pt"
 viewBox="0.00 0.00 658.50 212.00" xmlns="http://www.w3.org/2000/svg" xmlns:xlink="http://www.w3.org/1999/xlink">
<style><![CDATA[
text { fill: #e6e6e6 !important; }
polygon { fill: #2f2f2f !important; stroke: #9aa0a6 !important; }
path, line, polyline { stroke: #4e67d6 !important; }
]]></style>
<style><![CDATA[
text { fill: #e6e6e6 !important; }
polygon { fill: #2f2f2f !important; stroke: #9aa0a6 !important; }
path, line, polyline { stroke: #4e67d6 !important; }
]]></style>
<style><![CDATA[
text { fill: #e6e6e6 !important; }
polygon { fill: #2f2f2f !important; stroke: #9aa0a6 !important; }
path, line, polyline { stroke: #4e67d6 !important; }
]]></style>
<style><![CDATA[
text { fill: #e6e6e6 !important; }
polygon { fill: #2f2f2f !important; stroke: #9aa0a6 !important; }
path, line, polyline { stroke: #4e67d6 !important; }
]]></style>
<style><![CDATA[
text { fill: #e6e6e6 !important; }
polygon { fill: #2f2f2f !important; stroke: #9aa0a6 !important; }
path, line, polyline { stroke: #4e67d6 !important; }
]]></style>
<style><![CDATA[
text { fill: #e6e6e6 !important; }
polygon { fill: #2f2f2f !important; stroke: #9aa0a6 !important; }
path, line, polyline { stroke: #4e67d6 !important; }
]]></style>
<style><![CDATA[
text { fill: #e6e6e6 !important; }
polygon { fill: #2f2f2f !important; stroke: #9aa0a6 !important; }
path, line, polyline { stroke: #4e67d6 !important; }
]]></style>
<g id="graph0" class="graph" transform="scale(1 1) rotate(0) translate(4 208)">
<title>FileParser.cpp</title>
<!-- Node1 -->
<g id="node1" class="node">
<title>Node1</title>
<g id="a_node1"><a xlink:title="Acquisition file parser.">
<polygon fill="#bfbfbf" stroke="black" points="244,-180.5 244,-203.5 355,-203.5 355,-180.5 244,-180.5"/>
<text text-anchor="middle" x="299.5" y="-188.3" font-family="Helvetica,sans-Serif" font-size="14.00">FileParser.cpp</text>
</a>
</g>
</g>
<!-- Node2 -->
<g id="node2" class="node">
<title>Node2</title>
<g id="a_node2"><a xlink:href="FileParser_8h.html" target="_top" xlink:title="Acquisition file parser.">
<polygon fill="none" stroke="black" points="252,-120.5 252,-143.5 347,-143.5 347,-120.5 252,-120.5"/>
<text text-anchor="middle" x="299.5" y="-128.3" font-family="Helvetica,sans-Serif" font-size="14.00">FileParser.h</text>
</a>
</g>
</g>
<!-- Node1&#45;&gt;Node2 -->
<g id="edge1" class="edge">
<title>Node1&#45;&gt;Node2</title>
<path fill="none" stroke="midnightblue" d="M299.5,-180.36C299.5,-172.92 299.5,-162.74 299.5,-153.73"/>
<polygon fill="midnightblue" stroke="midnightblue" points="303,-153.57 299.5,-143.57 296,-153.57 303,-153.57"/>
</g>
<!-- Node3 -->
<g id="node3" class="node">
<title>Node3</title>
<g id="a_node3"><a xlink:href="PosixCompat_8h.html" target="_top" xlink:title=" ">
<polygon fill="none" stroke="black" points="25.5,-60.5 25.5,-83.5 145.5,-83.5 145.5,-60.5 25.5,-60.5"/>
<text text-anchor="middle" x="85.5" y="-68.3" font-family="Helvetica,sans-Serif" font-size="14.00">PosixCompat.h</text>
</a>
</g>
</g>
<!-- Node2&#45;&gt;Node3 -->
<g id="edge2" class="edge">
<title>Node2&#45;&gt;Node3</title>
<path fill="none" stroke="midnightblue" d="M260.75,-120.5C225.25,-110.88 172.57,-96.6 134.24,-86.21"/>
<polygon fill="midnightblue" stroke="midnightblue" points="134.89,-82.76 124.33,-83.52 133.06,-89.52 134.89,-82.76"/>
</g>
<!-- Node6 -->
<g id="node6" class="node">
<title>Node6</title>
<g id="a_node6"><a xlink:title=" ">
<polygon fill="none" stroke="#bfbfbf" points="163.5,-60.5 163.5,-83.5 211.5,-83.5 211.5,-60.5 163.5,-60.5"/>
<text text-anchor="middle" x="187.5" y="-68.3" font-family="Helvetica,sans-Serif" font-size="14.00">QDir</text>
</a>
</g>
</g>
<!-- Node2&#45;&gt;Node6 -->
<g id="edge5" class="edge">
<title>Node2&#45;&gt;Node6</title>
<path fill="none" stroke="midnightblue" d="M279.22,-120.5C261.88,-111.52 236.71,-98.48 217.12,-88.34"/>
<polygon fill="midnightblue" stroke="midnightblue" points="218.5,-85.11 208.01,-83.62 215.28,-91.33 218.5,-85.11"/>
</g>
<!-- Node7 -->
<g id="node7" class="node">
<title>Node7</title>
<g id="a_node7"><a xlink:title=" ">
<polygon fill="none" stroke="#bfbfbf" points="229.5,-60.5 229.5,-83.5 279.5,-83.5 279.5,-60.5 229.5,-60.5"/>
<text text-anchor="middle" x="254.5" y="-68.3" font-family="Helvetica,sans-Serif" font-size="14.00">QFile</text>
</a>
</g>
</g>
<!-- Node2&#45;&gt;Node7 -->
<g id="edge6" class="edge">
<title>Node2&#45;&gt;Node7</title>
<path fill="none" stroke="midnightblue" d="M291.25,-120.36C285.03,-112.35 276.35,-101.16 268.99,-91.67"/>
<polygon fill="midnightblue" stroke="midnightblue" points="271.6,-89.33 262.7,-83.57 266.07,-93.62 271.6,-89.33"/>
</g>
<!-- Node8 -->
<g id="node8" class="node">
<title>Node8</title>
<g id="a_node8"><a xlink:title=" ">
<polygon fill="none" stroke="#bfbfbf" points="297.5,-60.5 297.5,-83.5 391.5,-83.5 391.5,-60.5 297.5,-60.5"/>
<text text-anchor="middle" x="344.5" y="-68.3" font-family="Helvetica,sans-Serif" font-size="14.00">QDateTime</text>
</a>
</g>
</g>
<!-- Node2&#45;&gt;Node8 -->
<g id="edge7" class="edge">
<title>Node2&#45;&gt;Node8</title>
<path fill="none" stroke="midnightblue" d="M307.75,-120.36C313.97,-112.35 322.65,-101.16 330.01,-91.67"/>
<polygon fill="midnightblue" stroke="midnightblue" points="332.93,-93.62 336.3,-83.57 327.4,-89.33 332.93,-93.62"/>
</g>
<!-- Node9 -->
<g id="node9" class="node">
<title>Node9</title>
<g id="a_node9"><a xlink:title=" ">
<polygon fill="none" stroke="#bfbfbf" points="410,-60.5 410,-83.5 515,-83.5 515,-60.5 410,-60.5"/>
<text text-anchor="middle" x="462.5" y="-68.3" font-family="Helvetica,sans-Serif" font-size="14.00">QTextStream</text>
</a>
</g>
</g>
<!-- Node2&#45;&gt;Node9 -->
<g id="edge8" class="edge">
<title>Node2&#45;&gt;Node9</title>
<path fill="none" stroke="midnightblue" d="M329.02,-120.5C355.48,-111.08 394.48,-97.2 423.5,-86.88"/>
<polygon fill="midnightblue" stroke="midnightblue" points="424.68,-90.17 432.93,-83.52 422.33,-83.58 424.68,-90.17"/>
</g>
<!-- Node10 -->
<g id="node10" class="node">
<title>Node10</title>
<g id="a_node10"><a xlink:href="QsLog_8h.html" target="_top" xlink:title="Qs Log logging support.">
<polygon fill="none" stroke="black" points="533.5,-60.5 533.5,-83.5 607.5,-83.5 607.5,-60.5 533.5,-60.5"/>
<text text-anchor="middle" x="570.5" y="-68.3" font-family="Helvetica,sans-Serif" font-size="14.00">QsLog.h</text>
</a>
</g>
</g>
<!-- Node2&#45;&gt;Node10 -->
<g id="edge9" class="edge">
<title>Node2&#45;&gt;Node10</title>
<path fill="none" stroke="midnightblue" d="M347.43,-121.4C390.9,-112.61 457,-99 523.55,-84.17"/>
<polygon fill="midnightblue" stroke="midnightblue" points="524.37,-87.58 533.36,-81.98 522.84,-80.74 524.37,-87.58"/>
</g>
<!-- Node4 -->
<g id="node4" class="node">
<title>Node4</title>
<g id="a_node4"><a xlink:title=" ">
<polygon fill="none" stroke="#bfbfbf" points="0,-0.5 0,-23.5 77,-23.5 77,-0.5 0,-0.5"/>
<text text-anchor="middle" x="38.5" y="-8.3" font-family="Helvetica,sans-Serif" font-size="14.00">QtGlobal</text>
</a>
</g>
</g>
<!-- Node3&#45;&gt;Node4 -->
<g id="edge3" class="edge">
<title>Node3&#45;&gt;Node4</title>
<path fill="none" stroke="midnightblue" d="M76.88,-60.36C70.32,-52.27 61.13,-40.93 53.39,-31.38"/>
<polygon fill="midnightblue" stroke="midnightblue" points="56.08,-29.14 47.07,-23.57 50.64,-33.54 56.08,-29.14"/>
</g>
<!-- Node5 -->
<g id="node5" class="node">
<title>Node5</title>
<g id="a_node5"><a xlink:title=" ">
<polygon fill="none" stroke="#bfbfbf" points="95.5,-0.5 95.5,-23.5 169.5,-23.5 169.5,-0.5 95.5,-0.5"/>
<text text-anchor="middle" x="132.5" y="-8.3" font-family="Helvetica,sans-Serif" font-size="14.00">unistd.h</text>
</a>
</g>
</g>
<!-- Node3&#45;&gt;Node5 -->
<g id="edge4" class="edge">
<title>Node3&#45;&gt;Node5</title>
<path fill="none" stroke="midnightblue" d="M94.12,-60.36C100.68,-52.27 109.87,-40.93 117.61,-31.38"/>
<polygon fill="midnightblue" stroke="midnightblue" points="120.36,-33.54 123.93,-23.57 114.92,-29.14 120.36,-33.54"/>
</g>
<!-- Node11 -->
<g id="node11" class="node">
<title>Node11</title>
<g id="a_node11"><a xlink:title=" ">
<polygon fill="none" stroke="#bfbfbf" points="488.5,-0.5 488.5,-23.5 562.5,-23.5 562.5,-0.5 488.5,-0.5"/>
<text text-anchor="middle" x="525.5" y="-8.3" font-family="Helvetica,sans-Serif" font-size="14.00">QDebug</text>
</a>
</g>
</g>
<!-- Node10&#45;&gt;Node11 -->
<g id="edge10" class="edge">
<title>Node10&#45;&gt;Node11</title>
<path fill="none" stroke="midnightblue" d="M562.25,-60.36C556.03,-52.35 547.35,-41.16 539.99,-31.67"/>
<polygon fill="midnightblue" stroke="midnightblue" points="542.6,-29.33 533.7,-23.57 537.07,-33.62 542.6,-29.33"/>
</g>
<!-- Node12 -->
<g id="node12" class="node">
<title>Node12</title>
<g id="a_node12"><a xlink:title=" ">
<polygon fill="none" stroke="#bfbfbf" points="580.5,-0.5 580.5,-23.5 650.5,-23.5 650.5,-0.5 580.5,-0.5"/>
<text text-anchor="middle" x="615.5" y="-8.3" font-family="Helvetica,sans-Serif" font-size="14.00">QString</text>
</a>
</g>
</g>
<!-- Node10&#45;&gt;Node12 -->
<g id="edge11" class="edge">
<title>Node10&#45;&gt;Node12</title>
<path fill="none" stroke="midnightblue" d="M578.75,-60.36C584.97,-52.35 593.65,-41.16 601.01,-31.67"/>
<polygon fill="midnightblue" stroke="midnightblue" points="603.93,-33.62 607.3,-23.57 598.4,-29.33 603.93,-33.62"/>
</g>
</g>
</svg>
