<?xml version="1.0" encoding="UTF-8" standalone="no"?>
<!DOCTYPE svg PUBLIC "-//W3C//DTD SVG 1.1//EN"
 "http://www.w3.org/Graphics/SVG/1.1/DTD/svg11.dtd">
<!-- Generated by graphviz version 2.50.0 (0)
 -->
<!-- Title: Graphical Class Hierarchy Pages: 1 -->
<svg width="495pt" height="368pt"
 viewBox="0.00 0.00 495.00 368.00" xmlns="http://www.w3.org/2000/svg" xmlns:xlink="http://www.w3.org/1999/xlink">
<style><![CDATA[
text { fill: #e6e6e6 !important; }
polygon { fill: #2f2f2f !important; stroke: #9aa0a6 !important; }
path, line, polyline { stroke: #4e67d6 !important; }
]]></style>
<style><![CDATA[
text { fill: #e6e6e6 !important; }
polygon { fill: #2f2f2f !important; stroke: #9aa0a6 !important; }
path, line, polyline { stroke: #4e67d6 !important; }
]]></style>
<style><![CDATA[
text { fill: #e6e6e6 !important; }
polygon { fill: #2f2f2f !important; stroke: #9aa0a6 !important; }
path, line, polyline { stroke: #4e67d6 !important; }
]]></style>
<style><![CDATA[
text { fill: #e6e6e6 !important; }
polygon { fill: #2f2f2f !important; stroke: #9aa0a6 !important; }
path, line, polyline { stroke: #4e67d6 !important; }
]]></style>
<style><![CDATA[
text { fill: #e6e6e6 !important; }
polygon { fill: #2f2f2f !important; stroke: #9aa0a6 !important; }
path, line, polyline { stroke: #4e67d6 !important; }
]]></style>
<style><![CDATA[
text { fill: #e6e6e6 !important; }
polygon { fill: #2f2f2f !important; stroke: #9aa0a6 !important; }
path, line, polyline { stroke: #4e67d6 !important; }
]]></style>
<style><![CDATA[
text { fill: #e6e6e6 !important; }
polygon { fill: #2f2f2f !important; stroke: #9aa0a6 !important; }
path, line, polyline { stroke: #4e67d6 !important; }
]]></style>
<style><![CDATA[
text { fill: #e6e6e6 !important; }
polygon { fill: #2f2f2f !important; stroke: #9aa0a6 !important; }
path, line, polyline { stroke: #4e67d6 !important; }
]]></style>
<style><![CDATA[
text { fill: #e6e6e6 !important; }
polygon { fill: #2f2f2f !important; stroke: #9aa0a6 !important; }
path, line, polyline { stroke: #4e67d6 !important; }
]]></style>
<style><![CDATA[
text { fill: #e6e6e6 !important; }
polygon { fill: #2f2f2f !important; stroke: #9aa0a6 !important; }
path, line, polyline { stroke: #4e67d6 !important; }
]]></style>
<style><![CDATA[
text { fill: #e6e6e6 !important; }
polygon { fill: #2f2f2f !important; stroke: #9aa0a6 !important; }
path, line, polyline { stroke: #4e67d6 !important; }
]]></style>
<style><![CDATA[
text { fill: #e6e6e6 !important; }
polygon { fill: #2f2f2f !important; stroke: #9aa0a6 !important; }
path, line, polyline { stroke: #4e67d6 !important; }
]]></style>
<style><![CDATA[
text { fill: #e6e6e6 !important; }
polygon { fill: #2f2f2f !important; stroke: #9aa0a6 !important; }
path, line, polyline { stroke: #4e67d6 !important; }
]]></style>
<style><![CDATA[
text { fill: #e6e6e6 !important; }
polygon { fill: #2f2f2f !important; stroke: #9aa0a6 !important; }
path, line, polyline { stroke: #4e67d6 !important; }
]]></style>
<style><![CDATA[
text { fill: #e6e6e6 !important; }
polygon { fill: #2f2f2f !important; stroke: #9aa0a6 !important; }
path, line, polyline { stroke: #4e67d6 !important; }
]]></style>
<style><![CDATA[
text { fill: #e6e6e6 !important; }
polygon { fill: #2f2f2f !important; stroke: #9aa0a6 !important; }
path, line, polyline { stroke: #4e67d6 !important; }
]]></style>
<style><![CDATA[
text { fill: #e6e6e6 !important; }
polygon { fill: #2f2f2f !important; stroke: #9aa0a6 !important; }
path, line, polyline { stroke: #4e67d6 !important; }
]]></style>
<style><![CDATA[
text { fill: #e6e6e6 !important; }
polygon { fill: #2f2f2f !important; stroke: #9aa0a6 !important; }
path, line, polyline { stroke: #4e67d6 !important; }
]]></style>
<style><![CDATA[
text { fill: #e6e6e6 !important; }
polygon { fill: #2f2f2f !important; stroke: #9aa0a6 !important; }
path, line, polyline { stroke: #4e67d6 !important; }
]]></style>
<style><![CDATA[
text { fill: #e6e6e6 !important; }
polygon { fill: #2f2f2f !important; stroke: #9aa0a6 !important; }
path, line, polyline { stroke: #4e67d6 !important; }
]]></style>
<style><![CDATA[
text { fill: #e6e6e6 !important; }
polygon { fill: #2f2f2f !important; stroke: #9aa0a6 !important; }
path, line, polyline { stroke: #4e67d6 !important; }
]]></style>
<style><![CDATA[
text { fill: #e6e6e6 !important; }
polygon { fill: #2f2f2f !important; stroke: #9aa0a6 !important; }
path, line, polyline { stroke: #4e67d6 !important; }
]]></style>
<style><![CDATA[
text { fill: #e6e6e6 !important; }
polygon { fill: #2f2f2f !important; stroke: #9aa0a6 !important; }
path, line, polyline { stroke: #4e67d6 !important; }
]]></style>
<style><![CDATA[
text { fill: #e6e6e6 !important; }
polygon { fill: #2f2f2f !important; stroke: #9aa0a6 !important; }
path, line, polyline { stroke: #4e67d6 !important; }
]]></style>
<style><![CDATA[
text { fill: #e6e6e6 !important; }
polygon { fill: #2f2f2f !important; stroke: #9aa0a6 !important; }
path, line, polyline { stroke: #4e67d6 !important; }
]]></style>
<style><![CDATA[
text { fill: #e6e6e6 !important; }
polygon { fill: #2f2f2f !important; stroke: #9aa0a6 !important; }
path, line, polyline { stroke: #4e67d6 !important; }
]]></style>
<style><![CDATA[
text { fill: #e6e6e6 !important; }
polygon { fill: #2f2f2f !important; stroke: #9aa0a6 !important; }
path, line, polyline { stroke: #4e67d6 !important; }
]]></style>
<g id="graph0" class="graph" transform="scale(1 1) rotate(0) translate(4 364)">
<title>Graphical Class Hierarchy</title>
<!-- Node52 -->
<g id="node1" class="node">
<title>Node52</title>
<g id="a_node1"><a xlink:title=" ">
<polygon fill="none" stroke="#bfbfbf" points="0,-210.5 0,-233.5 76,-233.5 76,-210.5 0,-210.5"/>
<text text-anchor="middle" x="38" y="-218.3" font-family="Helvetica,sans-Serif" font-size="14.00">QThread</text>
</a>
</g>
</g>
<!-- Node0 -->
<g id="node2" class="node">
<title>Node0</title>
<g id="a_node2"><a xlink:href="classAcquisitionThread.html" target="_top" xlink:title=" ">
<polygon fill="none" stroke="black" points="112,-252.5 112,-275.5 252,-275.5 252,-252.5 112,-252.5"/>
<text text-anchor="middle" x="182" y="-260.3" font-family="Helvetica,sans-Serif" font-size="14.00">AcquisitionThread</text>
</a>
</g>
</g>
<!-- Node52&#45;&gt;Node0 -->
<g id="edge1" class="edge">
<title>Node52&#45;&gt;Node0</title>
<path fill="none" stroke="midnightblue" d="M86.1,-235.93C104.21,-241.29 124.68,-247.34 141.96,-252.45"/>
<polygon fill="midnightblue" stroke="midnightblue" points="86.89,-232.52 76.31,-233.04 84.91,-239.23 86.89,-232.52"/>
</g>
<!-- Node54 -->
<g id="node3" class="node">
<title>Node54</title>
<g id="a_node3"><a xlink:href="classAnalysisThread.html" target="_top" xlink:title=" ">
<polygon fill="none" stroke="black" points="121,-210.5 121,-233.5 243,-233.5 243,-210.5 121,-210.5"/>
<text text-anchor="middle" x="182" y="-218.3" font-family="Helvetica,sans-Serif" font-size="14.00">AnalysisThread</text>
</a>
</g>
</g>
<!-- Node52&#45;&gt;Node54 -->
<g id="edge2" class="edge">
<title>Node52&#45;&gt;Node54</title>
<path fill="none" stroke="midnightblue" d="M86.56,-222C97.56,-222 109.41,-222 120.88,-222"/>
<polygon fill="midnightblue" stroke="midnightblue" points="86.31,-218.5 76.31,-222 86.31,-225.5 86.31,-218.5"/>
</g>
<!-- Node55 -->
<g id="node4" class="node">
<title>Node55</title>
<g id="a_node4"><a xlink:href="classCamera.html" target="_top" xlink:title=" ">
<polygon fill="none" stroke="black" points="146.5,-168.5 146.5,-191.5 217.5,-191.5 217.5,-168.5 146.5,-168.5"/>
<text text-anchor="middle" x="182" y="-176.3" font-family="Helvetica,sans-Serif" font-size="14.00">Camera</text>
</a>
</g>
</g>
<!-- Node52&#45;&gt;Node55 -->
<g id="edge3" class="edge">
<title>Node52&#45;&gt;Node55</title>
<path fill="none" stroke="midnightblue" d="M86.02,-208.09C105.73,-202.26 128.23,-195.61 146.38,-190.24"/>
<polygon fill="midnightblue" stroke="midnightblue" points="84.91,-204.77 76.31,-210.96 86.89,-211.48 84.91,-204.77"/>
</g>
<!-- Node56 -->
<g id="node5" class="node">
<title>Node56</title>
<g id="a_node5"><a xlink:href="classCameraAlliedVision.html" target="_top" xlink:title=" ">
<polygon fill="none" stroke="black" points="312.5,-336.5 312.5,-359.5 462.5,-359.5 462.5,-336.5 312.5,-336.5"/>
<text text-anchor="middle" x="387.5" y="-344.3" font-family="Helvetica,sans-Serif" font-size="14.00">CameraAlliedVision</text>
</a>
</g>
</g>
<!-- Node55&#45;&gt;Node56 -->
<g id="edge4" class="edge">
<title>Node55&#45;&gt;Node56</title>
<path fill="none" stroke="midnightblue" d="M227.6,-186.53C236.62,-189.65 245.36,-194.25 252,-201 292.83,-242.53 245.44,-287.25 288,-327 294.9,-333.44 303.27,-338.11 312.19,-341.45"/>
<polygon fill="midnightblue" stroke="midnightblue" points="228.37,-183.1 217.79,-183.68 226.42,-189.83 228.37,-183.1"/>
</g>
<!-- Node57 -->
<g id="node6" class="node">
<title>Node57</title>
<g id="a_node6"><a xlink:href="classCameraGiGE.html" target="_top" xlink:title=" ">
<polygon fill="none" stroke="black" points="335.5,-294.5 335.5,-317.5 439.5,-317.5 439.5,-294.5 335.5,-294.5"/>
<text text-anchor="middle" x="387.5" y="-302.3" font-family="Helvetica,sans-Serif" font-size="14.00">CameraGiGE</text>
</a>
</g>
</g>
<!-- Node55&#45;&gt;Node57 -->
<g id="edge5" class="edge">
<title>Node55&#45;&gt;Node57</title>
<path fill="none" stroke="midnightblue" d="M227.25,-187.26C236.21,-190.35 245.01,-194.74 252,-201 282.25,-228.11 256.62,-259.21 288,-285 301.24,-295.88 318.77,-301.51 335.38,-304.31"/>
<polygon fill="midnightblue" stroke="midnightblue" points="228.12,-183.87 217.54,-184.4 226.14,-190.58 228.12,-183.87"/>
</g>
<!-- Node58 -->
<g id="node7" class="node">
<title>Node58</title>
<g id="a_node7"><a xlink:href="classCameraIEEE1394.html" target="_top" xlink:title=" ">
<polygon fill="none" stroke="black" points="318.5,-252.5 318.5,-275.5 456.5,-275.5 456.5,-252.5 318.5,-252.5"/>
<text text-anchor="middle" x="387.5" y="-260.3" font-family="Helvetica,sans-Serif" font-size="14.00">CameraIEEE1394</text>
</a>
</g>
</g>
<!-- Node55&#45;&gt;Node58 -->
<g id="edge6" class="edge">
<title>Node55&#45;&gt;Node58</title>
<path fill="none" stroke="midnightblue" d="M227.29,-189.41C235.89,-192.33 244.54,-196.12 252,-201 272.58,-214.45 266.86,-230.44 288,-243 297.24,-248.49 307.73,-252.56 318.33,-255.57"/>
<polygon fill="midnightblue" stroke="midnightblue" points="228.25,-186.04 217.67,-186.45 226.2,-192.73 228.25,-186.04"/>
</g>
<!-- Node59 -->
<g id="node8" class="node">
<title>Node59</title>
<g id="a_node8"><a xlink:href="classCameraNeo.html" target="_top" xlink:title=" ">
<polygon fill="none" stroke="black" points="338.5,-210.5 338.5,-233.5 436.5,-233.5 436.5,-210.5 338.5,-210.5"/>
<text text-anchor="middle" x="387.5" y="-218.3" font-family="Helvetica,sans-Serif" font-size="14.00">CameraNeo</text>
</a>
</g>
</g>
<!-- Node55&#45;&gt;Node59 -->
<g id="edge7" class="edge">
<title>Node55&#45;&gt;Node59</title>
<path fill="none" stroke="midnightblue" d="M227.72,-189.23C260.49,-195.99 304.91,-205.16 338.44,-212.08"/>
<polygon fill="midnightblue" stroke="midnightblue" points="228.02,-185.72 217.52,-187.12 226.61,-192.57 228.02,-185.72"/>
</g>
<!-- Node60 -->
<g id="node9" class="node">
<title>Node60</title>
<g id="a_node9"><a xlink:href="classCameraRAPTORFALCON.html" target="_top" xlink:title=" ">
<polygon fill="none" stroke="black" points="296.5,-168.5 296.5,-191.5 478.5,-191.5 478.5,-168.5 296.5,-168.5"/>
<text text-anchor="middle" x="387.5" y="-176.3" font-family="Helvetica,sans-Serif" font-size="14.00">CameraRAPTORFALCON</text>
</a>
</g>
</g>
<!-- Node55&#45;&gt;Node60 -->
<g id="edge8" class="edge">
<title>Node55&#45;&gt;Node60</title>
<path fill="none" stroke="midnightblue" d="M227.62,-180C247.77,-180 272.33,-180 296.06,-180"/>
<polygon fill="midnightblue" stroke="midnightblue" points="227.52,-176.5 217.52,-180 227.52,-183.5 227.52,-176.5"/>
</g>
<!-- Node61 -->
<g id="node10" class="node">
<title>Node61</title>
<g id="a_node10"><a xlink:href="classCameraRAPTORNINOX640.html" target="_top" xlink:title=" ">
<polygon fill="none" stroke="black" points="288,-126.5 288,-149.5 487,-149.5 487,-126.5 288,-126.5"/>
<text text-anchor="middle" x="387.5" y="-134.3" font-family="Helvetica,sans-Serif" font-size="14.00">CameraRAPTORNINOX640</text>
</a>
</g>
</g>
<!-- Node55&#45;&gt;Node61 -->
<g id="edge9" class="edge">
<title>Node55&#45;&gt;Node61</title>
<path fill="none" stroke="midnightblue" d="M227.39,-170.84C257.72,-164.58 298.14,-156.24 330.65,-149.53"/>
<polygon fill="midnightblue" stroke="midnightblue" points="226.61,-167.43 217.52,-172.88 228.02,-174.28 226.61,-167.43"/>
</g>
<!-- Node62 -->
<g id="node11" class="node">
<title>Node62</title>
<g id="a_node11"><a xlink:href="classCameraRaspi.html" target="_top" xlink:title=" ">
<polygon fill="none" stroke="black" points="333,-84.5 333,-107.5 442,-107.5 442,-84.5 333,-84.5"/>
<text text-anchor="middle" x="387.5" y="-92.3" font-family="Helvetica,sans-Serif" font-size="14.00">CameraRaspi</text>
</a>
</g>
</g>
<!-- Node55&#45;&gt;Node62 -->
<g id="edge10" class="edge">
<title>Node55&#45;&gt;Node62</title>
<path fill="none" stroke="midnightblue" d="M206.91,-162.5C227.45,-148.26 258.36,-128.67 288,-117 302.15,-111.42 318.06,-107.21 332.9,-104.08"/>
<polygon fill="midnightblue" stroke="midnightblue" points="204.66,-159.81 198.51,-168.43 208.7,-165.53 204.66,-159.81"/>
</g>
<!-- Node63 -->
<g id="node12" class="node">
<title>Node63</title>
<g id="a_node12"><a xlink:href="classCameraUSB.html" target="_top" xlink:title=" ">
<polygon fill="none" stroke="black" points="337.5,-42.5 337.5,-65.5 437.5,-65.5 437.5,-42.5 337.5,-42.5"/>
<text text-anchor="middle" x="387.5" y="-50.3" font-family="Helvetica,sans-Serif" font-size="14.00">CameraUSB</text>
</a>
</g>
</g>
<!-- Node55&#45;&gt;Node63 -->
<g id="edge11" class="edge">
<title>Node55&#45;&gt;Node63</title>
<path fill="none" stroke="midnightblue" d="M196.95,-160.3C215.08,-136.24 249.06,-96.16 288,-75 303.06,-66.82 321.02,-61.82 337.46,-58.78"/>
<polygon fill="midnightblue" stroke="midnightblue" points="194.11,-158.24 191,-168.37 199.75,-162.39 194.11,-158.24"/>
</g>
<!-- Node64 -->
<g id="node13" class="node">
<title>Node64</title>
<g id="a_node13"><a xlink:href="classCameraZyla.html" target="_top" xlink:title=" ">
<polygon fill="none" stroke="black" points="337,-0.5 337,-23.5 438,-23.5 438,-0.5 337,-0.5"/>
<text text-anchor="middle" x="387.5" y="-8.3" font-family="Helvetica,sans-Serif" font-size="14.00">CameraZyla</text>
</a>
</g>
</g>
<!-- Node55&#45;&gt;Node64 -->
<g id="edge12" class="edge">
<title>Node55&#45;&gt;Node64</title>
<path fill="none" stroke="midnightblue" d="M191.99,-158.73C206.91,-126.18 239.96,-64.5 288,-33 302.4,-23.56 320.31,-18.27 336.88,-15.34"/>
<polygon fill="midnightblue" stroke="midnightblue" points="188.65,-157.64 187.79,-168.2 195.05,-160.47 188.65,-157.64"/>
</g>
</g>
</svg>
