<?xml version="1.0" encoding="UTF-8" standalone="no"?>
<!DOCTYPE svg PUBLIC "-//W3C//DTD SVG 1.1//EN"
 "http://www.w3.org/Graphics/SVG/1.1/DTD/svg11.dtd">
<!-- Generated by graphviz version 2.50.0 (0)
 -->
<!-- Title: Graphical Class Hierarchy Pages: 1 -->
<svg width="344pt" height="494pt"
 viewBox="0.00 0.00 344.00 494.00" xmlns="http://www.w3.org/2000/svg" xmlns:xlink="http://www.w3.org/1999/xlink">
<style><![CDATA[
text { fill: #e6e6e6 !important; }
polygon { fill: #2f2f2f !important; stroke: #9aa0a6 !important; }
path, line, polyline { stroke: #4e67d6 !important; }
]]></style>
<style><![CDATA[
text { fill: #e6e6e6 !important; }
polygon { fill: #2f2f2f !important; stroke: #9aa0a6 !important; }
path, line, polyline { stroke: #4e67d6 !important; }
]]></style>
<style><![CDATA[
text { fill: #e6e6e6 !important; }
polygon { fill: #2f2f2f !important; stroke: #9aa0a6 !important; }
path, line, polyline { stroke: #4e67d6 !important; }
]]></style>
<style><![CDATA[
text { fill: #e6e6e6 !important; }
polygon { fill: #2f2f2f !important; stroke: #9aa0a6 !important; }
path, line, polyline { stroke: #4e67d6 !important; }
]]></style>
<style><![CDATA[
text { fill: #e6e6e6 !important; }
polygon { fill: #2f2f2f !important; stroke: #9aa0a6 !important; }
path, line, polyline { stroke: #4e67d6 !important; }
]]></style>
<style><![CDATA[
text { fill: #e6e6e6 !important; }
polygon { fill: #2f2f2f !important; stroke: #9aa0a6 !important; }
path, line, polyline { stroke: #4e67d6 !important; }
]]></style>
<style><![CDATA[
text { fill: #e6e6e6 !important; }
polygon { fill: #2f2f2f !important; stroke: #9aa0a6 !important; }
path, line, polyline { stroke: #4e67d6 !important; }
]]></style>
<style><![CDATA[
text { fill: #e6e6e6 !important; }
polygon { fill: #2f2f2f !important; stroke: #9aa0a6 !important; }
path, line, polyline { stroke: #4e67d6 !important; }
]]></style>
<style><![CDATA[
text { fill: #e6e6e6 !important; }
polygon { fill: #2f2f2f !important; stroke: #9aa0a6 !important; }
path, line, polyline { stroke: #4e67d6 !important; }
]]></style>
<style><![CDATA[
text { fill: #e6e6e6 !important; }
polygon { fill: #2f2f2f !important; stroke: #9aa0a6 !important; }
path, line, polyline { stroke: #4e67d6 !important; }
]]></style>
<style><![CDATA[
text { fill: #e6e6e6 !important; }
polygon { fill: #2f2f2f !important; stroke: #9aa0a6 !important; }
path, line, polyline { stroke: #4e67d6 !important; }
]]></style>
<style><![CDATA[
text { fill: #e6e6e6 !important; }
polygon { fill: #2f2f2f !important; stroke: #9aa0a6 !important; }
path, line, polyline { stroke: #4e67d6 !important; }
]]></style>
<style><![CDATA[
text { fill: #e6e6e6 !important; }
polygon { fill: #2f2f2f !important; stroke: #9aa0a6 !important; }
path, line, polyline { stroke: #4e67d6 !important; }
]]></style>
<style><![CDATA[
text { fill: #e6e6e6 !important; }
polygon { fill: #2f2f2f !important; stroke: #9aa0a6 !important; }
path, line, polyline { stroke: #4e67d6 !important; }
]]></style>
<style><![CDATA[
text { fill: #e6e6e6 !important; }
polygon { fill: #2f2f2f !important; stroke: #9aa0a6 !important; }
path, line, polyline { stroke: #4e67d6 !important; }
]]></style>
<style><![CDATA[
text { fill: #e6e6e6 !important; }
polygon { fill: #2f2f2f !important; stroke: #9aa0a6 !important; }
path, line, polyline { stroke: #4e67d6 !important; }
]]></style>
<style><![CDATA[
text { fill: #e6e6e6 !important; }
polygon { fill: #2f2f2f !important; stroke: #9aa0a6 !important; }
path, line, polyline { stroke: #4e67d6 !important; }
]]></style>
<style><![CDATA[
text { fill: #e6e6e6 !important; }
polygon { fill: #2f2f2f !important; stroke: #9aa0a6 !important; }
path, line, polyline { stroke: #4e67d6 !important; }
]]></style>
<style><![CDATA[
text { fill: #e6e6e6 !important; }
polygon { fill: #2f2f2f !important; stroke: #9aa0a6 !important; }
path, line, polyline { stroke: #4e67d6 !important; }
]]></style>
<style><![CDATA[
text { fill: #e6e6e6 !important; }
polygon { fill: #2f2f2f !important; stroke: #9aa0a6 !important; }
path, line, polyline { stroke: #4e67d6 !important; }
]]></style>
<style><![CDATA[
text { fill: #e6e6e6 !important; }
polygon { fill: #2f2f2f !important; stroke: #9aa0a6 !important; }
path, line, polyline { stroke: #4e67d6 !important; }
]]></style>
<style><![CDATA[
text { fill: #e6e6e6 !important; }
polygon { fill: #2f2f2f !important; stroke: #9aa0a6 !important; }
path, line, polyline { stroke: #4e67d6 !important; }
]]></style>
<style><![CDATA[
text { fill: #e6e6e6 !important; }
polygon { fill: #2f2f2f !important; stroke: #9aa0a6 !important; }
path, line, polyline { stroke: #4e67d6 !important; }
]]></style>
<style><![CDATA[
text { fill: #e6e6e6 !important; }
polygon { fill: #2f2f2f !important; stroke: #9aa0a6 !important; }
path, line, polyline { stroke: #4e67d6 !important; }
]]></style>
<style><![CDATA[
text { fill: #e6e6e6 !important; }
polygon { fill: #2f2f2f !important; stroke: #9aa0a6 !important; }
path, line, polyline { stroke: #4e67d6 !important; }
]]></style>
<style><![CDATA[
text { fill: #e6e6e6 !important; }
polygon { fill: #2f2f2f !important; stroke: #9aa0a6 !important; }
path, line, polyline { stroke: #4e67d6 !important; }
]]></style>
<style><![CDATA[
text { fill: #e6e6e6 !important; }
polygon { fill: #2f2f2f !important; stroke: #9aa0a6 !important; }
path, line, polyline { stroke: #4e67d6 !important; }
]]></style>
<g id="graph0" class="graph" transform="scale(1 1) rotate(0) translate(4 490)">
<title>Graphical Class Hierarchy</title>
<!-- Node65 -->
<g id="node1" class="node">
<title>Node65</title>
<g id="a_node1"><a xlink:title=" ">
<polygon fill="none" stroke="#bfbfbf" points="0,-231.5 0,-254.5 77,-254.5 77,-231.5 0,-231.5"/>
<text text-anchor="middle" x="38.5" y="-239.3" font-family="Helvetica,sans-Serif" font-size="14.00">QWidget</text>
</a>
</g>
</g>
<!-- Node0 -->
<g id="node2" class="node">
<title>Node0</title>
<g id="a_node2"><a xlink:href="classAcquisitionWidget.html" target="_top" xlink:title=" ">
<polygon fill="none" stroke="black" points="154,-462.5 154,-485.5 295,-485.5 295,-462.5 154,-462.5"/>
<text text-anchor="middle" x="224.5" y="-470.3" font-family="Helvetica,sans-Serif" font-size="14.00">AcquisitionWidget</text>
</a>
</g>
</g>
<!-- Node65&#45;&gt;Node0 -->
<g id="edge1" class="edge">
<title>Node65&#45;&gt;Node0</title>
<path fill="none" stroke="midnightblue" d="M40.33,-264.97C43.21,-308.12 56.04,-403.95 113,-453 124.47,-462.88 139.12,-468.7 153.98,-472.01"/>
<polygon fill="midnightblue" stroke="midnightblue" points="43.81,-264.54 39.77,-254.74 36.82,-264.92 43.81,-264.54"/>
</g>
<!-- Node67 -->
<g id="node3" class="node">
<title>Node67</title>
<g id="a_node3"><a xlink:href="classAnalysisWidget.html" target="_top" xlink:title=" ">
<polygon fill="none" stroke="black" points="163,-420.5 163,-443.5 286,-443.5 286,-420.5 163,-420.5"/>
<text text-anchor="middle" x="224.5" y="-428.3" font-family="Helvetica,sans-Serif" font-size="14.00">AnalysisWidget</text>
</a>
</g>
</g>
<!-- Node65&#45;&gt;Node67 -->
<g id="edge2" class="edge">
<title>Node65&#45;&gt;Node67</title>
<path fill="none" stroke="midnightblue" d="M42.44,-264.6C48.58,-300.89 66.3,-373.77 113,-411 127.05,-422.2 145.27,-428.06 162.85,-430.98"/>
<polygon fill="midnightblue" stroke="midnightblue" points="45.88,-263.94 40.88,-254.59 38.96,-265.01 45.88,-263.94"/>
</g>
<!-- Node68 -->
<g id="node4" class="node">
<title>Node68</title>
<g id="a_node4"><a xlink:href="classCameraControlWidget.html" target="_top" xlink:title=" ">
<polygon fill="none" stroke="black" points="140,-378.5 140,-401.5 309,-401.5 309,-378.5 140,-378.5"/>
<text text-anchor="middle" x="224.5" y="-386.3" font-family="Helvetica,sans-Serif" font-size="14.00">CameraControlWidget</text>
</a>
</g>
</g>
<!-- Node65&#45;&gt;Node68 -->
<g id="edge3" class="edge">
<title>Node65&#45;&gt;Node68</title>
<path fill="none" stroke="midnightblue" d="M45.81,-264.46C55.4,-293.11 76.51,-343.21 113,-369 121.05,-374.69 130.23,-378.96 139.77,-382.13"/>
<polygon fill="midnightblue" stroke="midnightblue" points="49.05,-263.1 42.69,-254.63 42.38,-265.22 49.05,-263.1"/>
</g>
<!-- Node69 -->
<g id="node5" class="node">
<title>Node69</title>
<g id="a_node5"><a xlink:href="classCameraPropWidget.html" target="_top" xlink:title=" ">
<polygon fill="none" stroke="black" points="149.5,-336.5 149.5,-359.5 299.5,-359.5 299.5,-336.5 149.5,-336.5"/>
<text text-anchor="middle" x="224.5" y="-344.3" font-family="Helvetica,sans-Serif" font-size="14.00">CameraPropWidget</text>
</a>
</g>
</g>
<!-- Node65&#45;&gt;Node69 -->
<g id="edge4" class="edge">
<title>Node65&#45;&gt;Node69</title>
<path fill="none" stroke="midnightblue" d="M51.47,-263.19C64.19,-282.74 86.14,-311.63 113,-327 124.1,-333.35 136.75,-337.83 149.44,-340.98"/>
<polygon fill="midnightblue" stroke="midnightblue" points="54.42,-261.3 46.15,-254.69 48.49,-265.02 54.42,-261.3"/>
</g>
<!-- Node70 -->
<g id="node6" class="node">
<title>Node70</title>
<g id="a_node6"><a xlink:href="classComediCounterControlWidget.html" target="_top" xlink:title=" ">
<polygon fill="none" stroke="black" points="113,-294.5 113,-317.5 336,-317.5 336,-294.5 113,-294.5"/>
<text text-anchor="middle" x="224.5" y="-302.3" font-family="Helvetica,sans-Serif" font-size="14.00">ComediCounterControlWidget</text>
</a>
</g>
</g>
<!-- Node65&#45;&gt;Node70 -->
<g id="edge5" class="edge">
<title>Node65&#45;&gt;Node70</title>
<path fill="none" stroke="midnightblue" d="M64.38,-259.98C78.16,-268.66 95.92,-278.7 113,-285 123.17,-288.75 134.12,-291.86 145.04,-294.44"/>
<polygon fill="midnightblue" stroke="midnightblue" points="66.24,-257.02 55.94,-254.52 62.44,-262.89 66.24,-257.02"/>
</g>
<!-- Node71 -->
<g id="node7" class="node">
<title>Node71</title>
<g id="a_node7"><a xlink:href="classComediDacControlWidget.html" target="_top" xlink:title=" ">
<polygon fill="none" stroke="black" points="127.5,-252.5 127.5,-275.5 321.5,-275.5 321.5,-252.5 127.5,-252.5"/>
<text text-anchor="middle" x="224.5" y="-260.3" font-family="Helvetica,sans-Serif" font-size="14.00">ComediDacControlWidget</text>
</a>
</g>
</g>
<!-- Node65&#45;&gt;Node71 -->
<g id="edge6" class="edge">
<title>Node65&#45;&gt;Node71</title>
<path fill="none" stroke="midnightblue" d="M87.23,-248.45C99.61,-249.86 113.41,-251.43 127.33,-253.02"/>
<polygon fill="midnightblue" stroke="midnightblue" points="87.51,-244.96 77.18,-247.3 86.72,-251.91 87.51,-244.96"/>
</g>
<!-- Node72 -->
<g id="node8" class="node">
<title>Node72</title>
<g id="a_node8"><a xlink:href="classDacControlWidget.html" target="_top" xlink:title=" ">
<polygon fill="none" stroke="black" points="154,-210.5 154,-233.5 295,-233.5 295,-210.5 154,-210.5"/>
<text text-anchor="middle" x="224.5" y="-218.3" font-family="Helvetica,sans-Serif" font-size="14.00">DacControlWidget</text>
</a>
</g>
</g>
<!-- Node65&#45;&gt;Node72 -->
<g id="edge7" class="edge">
<title>Node65&#45;&gt;Node72</title>
<path fill="none" stroke="midnightblue" d="M87.13,-237.56C107.47,-235.24 131.6,-232.49 153.88,-229.95"/>
<polygon fill="midnightblue" stroke="midnightblue" points="86.72,-234.09 77.18,-238.7 87.51,-241.04 86.72,-234.09"/>
</g>
<!-- Node73 -->
<g id="node9" class="node">
<title>Node73</title>
<g id="a_node9"><a xlink:href="classMotorControlWidget.html" target="_top" xlink:title=" ">
<polygon fill="none" stroke="black" points="147,-168.5 147,-191.5 302,-191.5 302,-168.5 147,-168.5"/>
<text text-anchor="middle" x="224.5" y="-176.3" font-family="Helvetica,sans-Serif" font-size="14.00">MotorControlWidget</text>
</a>
</g>
</g>
<!-- Node65&#45;&gt;Node73 -->
<g id="edge8" class="edge">
<title>Node65&#45;&gt;Node73</title>
<path fill="none" stroke="midnightblue" d="M64.38,-226.02C78.16,-217.34 95.92,-207.3 113,-201 123.72,-197.05 135.31,-193.8 146.81,-191.15"/>
<polygon fill="midnightblue" stroke="midnightblue" points="62.44,-223.11 55.94,-231.48 66.24,-228.98 62.44,-223.11"/>
</g>
<!-- Node74 -->
<g id="node10" class="node">
<title>Node74</title>
<g id="a_node10"><a xlink:href="classRaspiDacControlWidget.html" target="_top" xlink:title=" ">
<polygon fill="none" stroke="black" points="135,-126.5 135,-149.5 314,-149.5 314,-126.5 135,-126.5"/>
<text text-anchor="middle" x="224.5" y="-134.3" font-family="Helvetica,sans-Serif" font-size="14.00">RaspiDacControlWidget</text>
</a>
</g>
</g>
<!-- Node65&#45;&gt;Node74 -->
<g id="edge9" class="edge">
<title>Node65&#45;&gt;Node74</title>
<path fill="none" stroke="midnightblue" d="M51.47,-222.81C64.19,-203.26 86.14,-174.37 113,-159 119.78,-155.12 127.14,-151.94 134.73,-149.33"/>
<polygon fill="midnightblue" stroke="midnightblue" points="48.49,-220.98 46.15,-231.31 54.42,-224.7 48.49,-220.98"/>
</g>
<!-- Node75 -->
<g id="node11" class="node">
<title>Node75</title>
<g id="a_node11"><a xlink:href="classSuperKControlWidget.html" target="_top" xlink:title=" ">
<polygon fill="none" stroke="black" points="142.5,-84.5 142.5,-107.5 306.5,-107.5 306.5,-84.5 142.5,-84.5"/>
<text text-anchor="middle" x="224.5" y="-92.3" font-family="Helvetica,sans-Serif" font-size="14.00">SuperKControlWidget</text>
</a>
</g>
</g>
<!-- Node65&#45;&gt;Node75 -->
<g id="edge10" class="edge">
<title>Node65&#45;&gt;Node75</title>
<path fill="none" stroke="midnightblue" d="M45.81,-221.54C55.4,-192.89 76.51,-142.79 113,-117 121.77,-110.8 131.87,-106.3 142.33,-103.04"/>
<polygon fill="midnightblue" stroke="midnightblue" points="42.38,-220.78 42.69,-231.37 49.05,-222.9 42.38,-220.78"/>
</g>
<!-- Node76 -->
<g id="node12" class="node">
<title>Node76</title>
<g id="a_node12"><a xlink:href="classVideoPlayer.html" target="_top" xlink:title=" ">
<polygon fill="none" stroke="black" points="175.5,-42.5 175.5,-65.5 273.5,-65.5 273.5,-42.5 175.5,-42.5"/>
<text text-anchor="middle" x="224.5" y="-50.3" font-family="Helvetica,sans-Serif" font-size="14.00">VideoPlayer</text>
</a>
</g>
</g>
<!-- Node65&#45;&gt;Node76 -->
<g id="edge11" class="edge">
<title>Node65&#45;&gt;Node76</title>
<path fill="none" stroke="midnightblue" d="M42.44,-221.4C48.58,-185.11 66.3,-112.23 113,-75 130.41,-61.12 154.22,-55.44 175.29,-53.41"/>
<polygon fill="midnightblue" stroke="midnightblue" points="38.96,-220.99 40.88,-231.41 45.88,-222.06 38.96,-220.99"/>
</g>
<!-- Node77 -->
<g id="node13" class="node">
<title>Node77</title>
<g id="a_node13"><a xlink:href="classVideoWidget.html" target="_top" xlink:title=" ">
<polygon fill="none" stroke="black" points="172.5,-0.5 172.5,-23.5 276.5,-23.5 276.5,-0.5 172.5,-0.5"/>
<text text-anchor="middle" x="224.5" y="-8.3" font-family="Helvetica,sans-Serif" font-size="14.00">VideoWidget</text>
</a>
</g>
</g>
<!-- Node65&#45;&gt;Node77 -->
<g id="edge12" class="edge">
<title>Node65&#45;&gt;Node77</title>
<path fill="none" stroke="midnightblue" d="M40.33,-221.03C43.21,-177.88 56.04,-82.05 113,-33 129.2,-19.05 151.76,-13.19 172.27,-11.05"/>
<polygon fill="midnightblue" stroke="midnightblue" points="36.82,-221.08 39.77,-231.26 43.81,-221.46 36.82,-221.08"/>
</g>
</g>
</svg>
