<?xml version="1.0" encoding="UTF-8" standalone="no"?>
<!DOCTYPE svg PUBLIC "-//W3C//DTD SVG 1.1//EN"
 "http://www.w3.org/Graphics/SVG/1.1/DTD/svg11.dtd">
<!-- Generated by graphviz version 2.50.0 (0)
 -->
<!-- Title: MotorWindow.cpp Pages: 1 -->
<!--zoomable 452 -->
<svg id="main" version="1.1" xmlns="http://www.w3.org/2000/svg" xmlns:xlink="http://www.w3.org/1999/xlink" xml:space="preserve" onload="init(evt)">
<style><![CDATA[
text { fill: #e6e6e6 !important; }
polygon { fill: #2f2f2f !important; stroke: #9aa0a6 !important; }
path, line, polyline { stroke: #4e67d6 !important; }
]]></style>
<style><![CDATA[
text { fill: #e6e6e6 !important; }
polygon { fill: #2f2f2f !important; stroke: #9aa0a6 !important; }
path, line, polyline { stroke: #4e67d6 !important; }
]]></style>
<style><![CDATA[
text { fill: #e6e6e6 !important; }
polygon { fill: #2f2f2f !important; stroke: #9aa0a6 !important; }
path, line, polyline { stroke: #4e67d6 !important; }
]]></style>
<style><![CDATA[
text { fill: #e6e6e6 !important; }
polygon { fill: #2f2f2f !important; stroke: #9aa0a6 !important; }
path, line, polyline { stroke: #4e67d6 !important; }
]]></style>
<style><![CDATA[
text { fill: #e6e6e6 !important; }
polygon { fill: #2f2f2f !important; stroke: #9aa0a6 !important; }
path, line, polyline { stroke: #4e67d6 !important; }
]]></style>
<style><![CDATA[
text { fill: #e6e6e6 !important; }
polygon { fill: #2f2f2f !important; stroke: #9aa0a6 !important; }
path, line, polyline { stroke: #4e67d6 !important; }
]]></style>
<style><![CDATA[
text { fill: #e6e6e6 !important; }
polygon { fill: #2f2f2f !important; stroke: #9aa0a6 !important; }
path, line, polyline { stroke: #4e67d6 !important; }
]]></style>
<style type="text/css"><![CDATA[
.edge:hover path { stroke: red; }
.edge:hover polygon { stroke: red; fill: red; }
]]></style>
<script type="text/javascript"><![CDATA[
var edges = document.getElementsByTagName('g');
if (edges && edges.length) {
  for (var i=0;i<edges.length;i++) {
    if (edges[i].id.substr(0,4)=='edge') {
      edges[i].setAttribute('class','edge');
    }
  }
}
]]></script>
        <defs>
                <circle id="rim" cx="0" cy="0" r="7"/>
                <circle id="rim2" cx="0" cy="0" r="3.5"/>
                <g id="zoomPlus">
                        <use xlink:href="#rim" fill="#404040">
                                <set attributeName="fill" to="#808080" begin="zoomplus.mouseover" end="zoomplus.mouseout"/>
                        </use>
                        <path d="M-4,0h8M0,-4v8" fill="none" stroke="white" stroke-width="1.5" pointer-events="none"/>
                </g>
                <g id="zoomMin">
                        <use xlink:href="#rim" fill="#404040">
                                <set attributeName="fill" to="#808080" begin="zoomminus.mouseover" end="zoomminus.mouseout"/>
                        </use>
                        <path d="M-4,0h8" fill="none" stroke="white" stroke-width="1.5" pointer-events="none"/>
                </g>
                <g id="dirArrow">
                        <path fill="none" stroke="white" stroke-width="1.5" d="M0,-3.0v7 M-2.5,-0.5L0,-3.0L2.5,-0.5"/>
                </g>
               <g id="resetDef">
                       <use xlink:href="#rim2" fill="#404040">
                               <set attributeName="fill" to="#808080" begin="reset.mouseover" end="reset.mouseout"/>
                       </use>
               </g>
        </defs>

<script type="text/javascript">
var viewWidth = 1086;
var viewHeight = 452;
var sectionId = 'dynsection-0';
</script>
<script xlink:href="svgpan.js"/>
<svg id="graph" class="graph">
<g id="viewport">
<title>MotorWindow.cpp</title>
<!-- Node1 -->
<g id="node1" class="node">
<title>Node1</title>
<g id="a_node1"><a xlink:title="Motor window.">
<polygon fill="#bfbfbf" stroke="black" points="268.39,-420.5 268.39,-443.5 408.39,-443.5 408.39,-420.5 268.39,-420.5"/>
<text text-anchor="middle" x="338.39" y="-428.3" font-family="Helvetica,sans-Serif" font-size="14.00">MotorWindow.cpp</text>
</a>
</g>
</g>
<!-- Node2 -->
<g id="node2" class="node">
<title>Node2</title>
<g id="a_node2"><a xlink:href="MotorWindow_8h.html" target="_top" xlink:title="Motor window.">
<polygon fill="none" stroke="black" points="378.39,-360.5 378.39,-383.5 502.39,-383.5 502.39,-360.5 378.39,-360.5"/>
<text text-anchor="middle" x="440.39" y="-368.3" font-family="Helvetica,sans-Serif" font-size="14.00">MotorWindow.h</text>
</a>
</g>
</g>
<!-- Node1&#45;&gt;Node2 -->
<g id="edge1" class="edge">
<title>Node1&#45;&gt;Node2</title>
<path fill="none" stroke="midnightblue" d="M357.1,-420.36C372.77,-411.45 395.35,-398.61 413.05,-388.54"/>
<polygon fill="midnightblue" stroke="midnightblue" points="414.83,-391.56 421.8,-383.57 411.37,-385.47 414.83,-391.56"/>
</g>
<!-- Node24 -->
<g id="node24" class="node">
<title>Node24</title>
<g id="a_node24"><a xlink:href="Utils_8h.html" target="_top" xlink:title="Utility helpers.">
<polygon fill="none" stroke="black" points="214.89,-180.5 214.89,-203.5 275.89,-203.5 275.89,-180.5 214.89,-180.5"/>
<text text-anchor="middle" x="245.39" y="-188.3" font-family="Helvetica,sans-Serif" font-size="14.00">Utils.h</text>
</a>
</g>
</g>
<!-- Node1&#45;&gt;Node24 -->
<g id="edge45" class="edge">
<title>Node1&#45;&gt;Node24</title>
<path fill="none" stroke="midnightblue" d="M334.27,-420.47C319.96,-383.84 272.21,-261.64 253.25,-213.11"/>
<polygon fill="midnightblue" stroke="midnightblue" points="256.46,-211.72 249.56,-203.68 249.94,-214.27 256.46,-211.72"/>
</g>
<!-- Node3 -->
<g id="node3" class="node">
<title>Node3</title>
<g id="a_node3"><a xlink:href="MotorControlWidget_8h.html" target="_top" xlink:title="Motor control widget.">
<polygon fill="none" stroke="black" points="356.39,-300.5 356.39,-323.5 524.39,-323.5 524.39,-300.5 356.39,-300.5"/>
<text text-anchor="middle" x="440.39" y="-308.3" font-family="Helvetica,sans-Serif" font-size="14.00">MotorControlWidget.h</text>
</a>
</g>
</g>
<!-- Node2&#45;&gt;Node3 -->
<g id="edge2" class="edge">
<title>Node2&#45;&gt;Node3</title>
<path fill="none" stroke="midnightblue" d="M440.39,-360.36C440.39,-352.92 440.39,-342.74 440.39,-333.73"/>
<polygon fill="midnightblue" stroke="midnightblue" points="443.89,-333.57 440.39,-323.57 436.89,-333.57 443.89,-333.57"/>
</g>
<!-- Node22 -->
<g id="node22" class="node">
<title>Node22</title>
<g id="a_node22"><a xlink:title=" ">
<polygon fill="none" stroke="#bfbfbf" points="310.89,-120.5 310.89,-143.5 365.89,-143.5 365.89,-120.5 310.89,-120.5"/>
<text text-anchor="middle" x="338.39" y="-128.3" font-family="Helvetica,sans-Serif" font-size="14.00">QtSql</text>
</a>
</g>
</g>
<!-- Node2&#45;&gt;Node22 -->
<g id="edge43" class="edge">
<title>Node2&#45;&gt;Node22</title>
<path fill="none" stroke="midnightblue" d="M398.57,-360.37C379.66,-353.3 359,-341.91 347.39,-324 313.03,-270.98 324.78,-191.23 333.07,-153.8"/>
<polygon fill="midnightblue" stroke="midnightblue" points="336.59,-154.15 335.48,-143.62 329.77,-152.54 336.59,-154.15"/>
</g>
<!-- Node23 -->
<g id="node23" class="node">
<title>Node23</title>
<g id="a_node23"><a xlink:title=" ">
<polygon fill="none" stroke="#bfbfbf" points="678.89,-180.5 678.89,-203.5 767.89,-203.5 767.89,-180.5 678.89,-180.5"/>
<text text-anchor="middle" x="723.39" y="-188.3" font-family="Helvetica,sans-Serif" font-size="14.00">QtWidgets</text>
</a>
</g>
</g>
<!-- Node2&#45;&gt;Node23 -->
<g id="edge44" class="edge">
<title>Node2&#45;&gt;Node23</title>
<path fill="none" stroke="midnightblue" d="M463.4,-360.44C482.51,-351.42 510.21,-337.76 533.39,-324 596.59,-286.48 666.78,-235.46 701.49,-209.56"/>
<polygon fill="midnightblue" stroke="midnightblue" points="703.62,-212.34 709.52,-203.54 699.42,-206.73 703.62,-212.34"/>
</g>
<!-- Node28 -->
<g id="node28" class="node">
<title>Node28</title>
<g id="a_node28"><a xlink:title=" ">
<polygon fill="none" stroke="#bfbfbf" points="591.89,-300.5 591.89,-323.5 706.89,-323.5 706.89,-300.5 591.89,-300.5"/>
<text text-anchor="middle" x="649.39" y="-308.3" font-family="Helvetica,sans-Serif" font-size="14.00">QMessageBox</text>
</a>
</g>
</g>
<!-- Node2&#45;&gt;Node28 -->
<g id="edge42" class="edge">
<title>Node2&#45;&gt;Node28</title>
<path fill="none" stroke="midnightblue" d="M478.24,-360.5C512.9,-350.88 564.35,-336.6 601.79,-326.21"/>
<polygon fill="midnightblue" stroke="midnightblue" points="602.77,-329.57 611.47,-323.52 600.9,-322.82 602.77,-329.57"/>
</g>
<!-- Node4 -->
<g id="node4" class="node">
<title>Node4</title>
<g id="a_node4"><a xlink:href="Motor_8h.html" target="_top" xlink:title="Motor device interface.">
<polygon fill="none" stroke="black" points="429.39,-240.5 429.39,-263.5 497.39,-263.5 497.39,-240.5 429.39,-240.5"/>
<text text-anchor="middle" x="463.39" y="-248.3" font-family="Helvetica,sans-Serif" font-size="14.00">Motor.h</text>
</a>
</g>
</g>
<!-- Node3&#45;&gt;Node4 -->
<g id="edge3" class="edge">
<title>Node3&#45;&gt;Node4</title>
<path fill="none" stroke="midnightblue" d="M444.61,-300.36C447.62,-292.76 451.77,-282.29 455.4,-273.13"/>
<polygon fill="midnightblue" stroke="midnightblue" points="458.76,-274.16 459.2,-263.57 452.26,-271.58 458.76,-274.16"/>
</g>
<!-- Node14 -->
<g id="node14" class="node">
<title>Node14</title>
<g id="a_node14"><a xlink:href="QsLog_8h.html" target="_top" xlink:title="Qs Log logging support.">
<polygon fill="none" stroke="black" points="219.39,-60.5 219.39,-83.5 293.39,-83.5 293.39,-60.5 219.39,-60.5"/>
<text text-anchor="middle" x="256.39" y="-68.3" font-family="Helvetica,sans-Serif" font-size="14.00">QsLog.h</text>
</a>
</g>
</g>
<!-- Node3&#45;&gt;Node14 -->
<g id="edge41" class="edge">
<title>Node3&#45;&gt;Node14</title>
<path fill="none" stroke="midnightblue" d="M435.49,-300.29C431.25,-290.84 425.08,-276.63 420.39,-264 396.99,-201.02 420.21,-169.14 374.39,-120 364.03,-108.89 330.65,-96.13 302.02,-86.71"/>
<polygon fill="midnightblue" stroke="midnightblue" points="302.73,-83.26 292.14,-83.52 300.59,-89.92 302.73,-83.26"/>
</g>
<!-- Node3&#45;&gt;Node22 -->
<g id="edge39" class="edge">
<title>Node3&#45;&gt;Node22</title>
<path fill="none" stroke="midnightblue" d="M421.4,-300.34C408.17,-292.01 391.05,-279.31 380.39,-264 356.52,-229.72 345.66,-181.13 341.17,-153.79"/>
<polygon fill="midnightblue" stroke="midnightblue" points="344.62,-153.16 339.67,-143.79 337.7,-154.2 344.62,-153.16"/>
</g>
<!-- Node3&#45;&gt;Node23 -->
<g id="edge40" class="edge">
<title>Node3&#45;&gt;Node23</title>
<path fill="none" stroke="midnightblue" d="M455.27,-300.47C480.31,-282.9 530.01,-248.67 549.39,-240 570.67,-230.48 626.16,-216.11 668.8,-205.77"/>
<polygon fill="midnightblue" stroke="midnightblue" points="669.88,-209.11 678.79,-203.36 668.24,-202.3 669.88,-209.11"/>
</g>
<!-- Node5 -->
<g id="node5" class="node">
<title>Node5</title>
<g id="a_node5"><a xlink:href="ACCom_8h.html" target="_top" xlink:title="AC communication backend for AC Com.">
<polygon fill="none" stroke="black" points="498.39,-120.5 498.39,-143.5 578.39,-143.5 578.39,-120.5 498.39,-120.5"/>
<text text-anchor="middle" x="538.39" y="-128.3" font-family="Helvetica,sans-Serif" font-size="14.00">ACCom.h</text>
</a>
</g>
</g>
<!-- Node4&#45;&gt;Node5 -->
<g id="edge4" class="edge">
<title>Node4&#45;&gt;Node5</title>
<path fill="none" stroke="midnightblue" d="M470.31,-240.11C483.04,-220.08 510.33,-177.14 526.22,-152.14"/>
<polygon fill="midnightblue" stroke="midnightblue" points="529.29,-153.84 531.7,-143.52 523.38,-150.09 529.29,-153.84"/>
</g>
<!-- Node4&#45;&gt;Node14 -->
<g id="edge32" class="edge">
<title>Node4&#45;&gt;Node14</title>
<path fill="none" stroke="midnightblue" d="M462,-240.44C458.2,-215.68 445.3,-153.47 408.39,-120 400.36,-112.72 345.06,-96.71 303.46,-85.4"/>
<polygon fill="midnightblue" stroke="midnightblue" points="304.32,-82.01 293.75,-82.78 302.49,-88.76 304.32,-82.01"/>
</g>
<!-- Node18 -->
<g id="node18" class="node">
<title>Node18</title>
<g id="a_node18"><a xlink:href="Driver_8h.html" target="_top" xlink:title="Driver implementation for .">
<polygon fill="none" stroke="black" points="589.89,-180.5 589.89,-203.5 660.89,-203.5 660.89,-180.5 589.89,-180.5"/>
<text text-anchor="middle" x="625.39" y="-188.3" font-family="Helvetica,sans-Serif" font-size="14.00">Driver.h</text>
</a>
</g>
</g>
<!-- Node4&#45;&gt;Node18 -->
<g id="edge18" class="edge">
<title>Node4&#45;&gt;Node18</title>
<path fill="none" stroke="midnightblue" d="M492.72,-240.5C518.91,-231.12 557.45,-217.32 586.25,-207.01"/>
<polygon fill="midnightblue" stroke="midnightblue" points="587.76,-210.19 595.99,-203.52 585.4,-203.6 587.76,-210.19"/>
</g>
<!-- Node4&#45;&gt;Node22 -->
<g id="edge30" class="edge">
<title>Node4&#45;&gt;Node22</title>
<path fill="none" stroke="midnightblue" d="M451.85,-240.11C430.16,-219.63 383.13,-175.24 356.94,-150.52"/>
<polygon fill="midnightblue" stroke="midnightblue" points="359.21,-147.84 349.53,-143.52 354.4,-152.93 359.21,-147.84"/>
</g>
<!-- Node4&#45;&gt;Node23 -->
<g id="edge31" class="edge">
<title>Node4&#45;&gt;Node23</title>
<path fill="none" stroke="midnightblue" d="M497.47,-243.16C502.14,-242.09 506.88,-241.02 511.39,-240 564.84,-227.95 625.94,-214.43 668.76,-205"/>
<polygon fill="midnightblue" stroke="midnightblue" points="669.69,-208.38 678.7,-202.81 668.18,-201.54 669.69,-208.38"/>
</g>
<!-- Node4&#45;&gt;Node24 -->
<g id="edge33" class="edge">
<title>Node4&#45;&gt;Node24</title>
<path fill="none" stroke="midnightblue" d="M429.32,-241.94C390.49,-231.61 327.07,-214.73 285.78,-203.75"/>
<polygon fill="midnightblue" stroke="midnightblue" points="286.61,-200.35 276.04,-201.16 284.81,-207.11 286.61,-200.35"/>
</g>
<!-- Node6 -->
<g id="node6" class="node">
<title>Node6</title>
<g id="a_node6"><a xlink:title=" ">
<polygon fill="none" stroke="#bfbfbf" points="1011.89,-60.5 1011.89,-83.5 1068.89,-83.5 1068.89,-60.5 1011.89,-60.5"/>
<text text-anchor="middle" x="1040.39" y="-68.3" font-family="Helvetica,sans-Serif" font-size="14.00">string</text>
</a>
</g>
</g>
<!-- Node5&#45;&gt;Node6 -->
<g id="edge5" class="edge">
<title>Node5&#45;&gt;Node6</title>
<path fill="none" stroke="midnightblue" d="M578.74,-127.33C678.18,-118.24 931.48,-94.73 1001.27,-83.73"/>
<polygon fill="midnightblue" stroke="midnightblue" points="1002.22,-87.12 1011.47,-81.95 1001.02,-80.22 1002.22,-87.12"/>
</g>
<!-- Node7 -->
<g id="node7" class="node">
<title>Node7</title>
<g id="a_node7"><a xlink:title=" ">
<polygon fill="none" stroke="#bfbfbf" points="641.89,-60.5 641.89,-83.5 718.89,-83.5 718.89,-60.5 641.89,-60.5"/>
<text text-anchor="middle" x="680.39" y="-68.3" font-family="Helvetica,sans-Serif" font-size="14.00">iostream</text>
</a>
</g>
</g>
<!-- Node5&#45;&gt;Node7 -->
<g id="edge6" class="edge">
<title>Node5&#45;&gt;Node7</title>
<path fill="none" stroke="midnightblue" d="M564.1,-120.5C586.68,-111.27 619.74,-97.77 644.85,-87.52"/>
<polygon fill="midnightblue" stroke="midnightblue" points="646.45,-90.64 654.38,-83.62 643.8,-84.16 646.45,-90.64"/>
</g>
<!-- Node8 -->
<g id="node8" class="node">
<title>Node8</title>
<g id="a_node8"><a xlink:title=" ">
<polygon fill="none" stroke="#bfbfbf" points="423.39,-60.5 423.39,-83.5 493.39,-83.5 493.39,-60.5 423.39,-60.5"/>
<text text-anchor="middle" x="458.39" y="-68.3" font-family="Helvetica,sans-Serif" font-size="14.00">fstream</text>
</a>
</g>
</g>
<!-- Node5&#45;&gt;Node8 -->
<g id="edge7" class="edge">
<title>Node5&#45;&gt;Node8</title>
<path fill="none" stroke="midnightblue" d="M523.71,-120.36C511.87,-111.78 495,-99.55 481.37,-89.66"/>
<polygon fill="midnightblue" stroke="midnightblue" points="483.12,-86.61 472.97,-83.57 479.01,-92.27 483.12,-86.61"/>
</g>
<!-- Node9 -->
<g id="node9" class="node">
<title>Node9</title>
<g id="a_node9"><a xlink:title=" ">
<polygon fill="none" stroke="#bfbfbf" points="737.39,-60.5 737.39,-83.5 797.39,-83.5 797.39,-60.5 737.39,-60.5"/>
<text text-anchor="middle" x="767.39" y="-68.3" font-family="Helvetica,sans-Serif" font-size="14.00">vector</text>
</a>
</g>
</g>
<!-- Node5&#45;&gt;Node9 -->
<g id="edge8" class="edge">
<title>Node5&#45;&gt;Node9</title>
<path fill="none" stroke="midnightblue" d="M578.52,-121.47C614.93,-112.74 670.34,-99.23 727.28,-84.24"/>
<polygon fill="midnightblue" stroke="midnightblue" points="728.41,-87.56 737.18,-81.62 726.62,-80.8 728.41,-87.56"/>
</g>
<!-- Node10 -->
<g id="node10" class="node">
<title>Node10</title>
<g id="a_node10"><a xlink:title=" ">
<polygon fill="none" stroke="#bfbfbf" points="511.39,-60.5 511.39,-83.5 585.39,-83.5 585.39,-60.5 511.39,-60.5"/>
<text text-anchor="middle" x="548.39" y="-68.3" font-family="Helvetica,sans-Serif" font-size="14.00">stdarg.h</text>
</a>
</g>
</g>
<!-- Node5&#45;&gt;Node10 -->
<g id="edge9" class="edge">
<title>Node5&#45;&gt;Node10</title>
<path fill="none" stroke="midnightblue" d="M540.22,-120.36C541.52,-112.84 543.3,-102.52 544.86,-93.43"/>
<polygon fill="midnightblue" stroke="midnightblue" points="548.31,-94.02 546.56,-83.57 541.42,-92.83 548.31,-94.02"/>
</g>
<!-- Node11 -->
<g id="node11" class="node">
<title>Node11</title>
<g id="a_node11"><a xlink:href="PosixCompat_8h.html" target="_top" xlink:title=" ">
<polygon fill="none" stroke="black" points="873.39,-60.5 873.39,-83.5 993.39,-83.5 993.39,-60.5 873.39,-60.5"/>
<text text-anchor="middle" x="933.39" y="-68.3" font-family="Helvetica,sans-Serif" font-size="14.00">PosixCompat.h</text>
</a>
</g>
</g>
<!-- Node5&#45;&gt;Node11 -->
<g id="edge10" class="edge">
<title>Node5&#45;&gt;Node11</title>
<path fill="none" stroke="midnightblue" d="M578.44,-125.12C645.27,-115.31 780.39,-95.47 863.28,-83.29"/>
<polygon fill="midnightblue" stroke="midnightblue" points="863.98,-86.73 873.37,-81.81 862.97,-79.8 863.98,-86.73"/>
</g>
<!-- Node5&#45;&gt;Node14 -->
<g id="edge13" class="edge">
<title>Node5&#45;&gt;Node14</title>
<path fill="none" stroke="midnightblue" d="M498.29,-122.81C493.6,-121.86 488.89,-120.9 484.39,-120 406.7,-104.4 384.65,-101.78 303.69,-84.23"/>
<polygon fill="midnightblue" stroke="midnightblue" points="304.03,-80.72 293.52,-82.01 302.54,-87.56 304.03,-80.72"/>
</g>
<!-- Node16 -->
<g id="node16" class="node">
<title>Node16</title>
<g id="a_node16"><a xlink:title=" ">
<polygon fill="none" stroke="#bfbfbf" points="578.39,-0.5 578.39,-23.5 648.39,-23.5 648.39,-0.5 578.39,-0.5"/>
<text text-anchor="middle" x="613.39" y="-8.3" font-family="Helvetica,sans-Serif" font-size="14.00">QString</text>
</a>
</g>
</g>
<!-- Node5&#45;&gt;Node16 -->
<g id="edge16" class="edge">
<title>Node5&#45;&gt;Node16</title>
<path fill="none" stroke="midnightblue" d="M556.05,-120.38C568.53,-112 584.71,-99.2 594.39,-84 604,-68.9 608.78,-49.04 611.14,-34.16"/>
<polygon fill="midnightblue" stroke="midnightblue" points="614.66,-34.29 612.51,-23.92 607.72,-33.36 614.66,-34.29"/>
</g>
<!-- Node17 -->
<g id="node17" class="node">
<title>Node17</title>
<g id="a_node17"><a xlink:title=" ">
<polygon fill="none" stroke="#bfbfbf" points="311.39,-60.5 311.39,-83.5 405.39,-83.5 405.39,-60.5 311.39,-60.5"/>
<text text-anchor="middle" x="358.39" y="-68.3" font-family="Helvetica,sans-Serif" font-size="14.00">QStringList</text>
</a>
</g>
</g>
<!-- Node5&#45;&gt;Node17 -->
<g id="edge17" class="edge">
<title>Node5&#45;&gt;Node17</title>
<path fill="none" stroke="midnightblue" d="M505.79,-120.5C476.32,-111 432.75,-96.96 400.62,-86.61"/>
<polygon fill="midnightblue" stroke="midnightblue" points="401.64,-83.26 391.04,-83.52 399.49,-89.92 401.64,-83.26"/>
</g>
<!-- Node12 -->
<g id="node12" class="node">
<title>Node12</title>
<g id="a_node12"><a xlink:title=" ">
<polygon fill="none" stroke="#bfbfbf" points="847.89,-0.5 847.89,-23.5 924.89,-23.5 924.89,-0.5 847.89,-0.5"/>
<text text-anchor="middle" x="886.39" y="-8.3" font-family="Helvetica,sans-Serif" font-size="14.00">QtGlobal</text>
</a>
</g>
</g>
<!-- Node11&#45;&gt;Node12 -->
<g id="edge11" class="edge">
<title>Node11&#45;&gt;Node12</title>
<path fill="none" stroke="midnightblue" d="M924.77,-60.36C918.21,-52.27 909.02,-40.93 901.28,-31.38"/>
<polygon fill="midnightblue" stroke="midnightblue" points="903.97,-29.14 894.95,-23.57 898.53,-33.54 903.97,-29.14"/>
</g>
<!-- Node13 -->
<g id="node13" class="node">
<title>Node13</title>
<g id="a_node13"><a xlink:title=" ">
<polygon fill="none" stroke="#bfbfbf" points="943.39,-0.5 943.39,-23.5 1017.39,-23.5 1017.39,-0.5 943.39,-0.5"/>
<text text-anchor="middle" x="980.39" y="-8.3" font-family="Helvetica,sans-Serif" font-size="14.00">unistd.h</text>
</a>
</g>
</g>
<!-- Node11&#45;&gt;Node13 -->
<g id="edge12" class="edge">
<title>Node11&#45;&gt;Node13</title>
<path fill="none" stroke="midnightblue" d="M942.01,-60.36C948.57,-52.27 957.75,-40.93 965.49,-31.38"/>
<polygon fill="midnightblue" stroke="midnightblue" points="968.24,-33.54 971.82,-23.57 962.81,-29.14 968.24,-33.54"/>
</g>
<!-- Node15 -->
<g id="node15" class="node">
<title>Node15</title>
<g id="a_node15"><a xlink:title=" ">
<polygon fill="none" stroke="#bfbfbf" points="219.39,-0.5 219.39,-23.5 293.39,-23.5 293.39,-0.5 219.39,-0.5"/>
<text text-anchor="middle" x="256.39" y="-8.3" font-family="Helvetica,sans-Serif" font-size="14.00">QDebug</text>
</a>
</g>
</g>
<!-- Node14&#45;&gt;Node15 -->
<g id="edge14" class="edge">
<title>Node14&#45;&gt;Node15</title>
<path fill="none" stroke="midnightblue" d="M256.39,-60.36C256.39,-52.92 256.39,-42.74 256.39,-33.73"/>
<polygon fill="midnightblue" stroke="midnightblue" points="259.89,-33.57 256.39,-23.57 252.89,-33.57 259.89,-33.57"/>
</g>
<!-- Node14&#45;&gt;Node16 -->
<g id="edge15" class="edge">
<title>Node14&#45;&gt;Node16</title>
<path fill="none" stroke="midnightblue" d="M293.49,-61.84C296.49,-61.19 299.49,-60.57 302.39,-60 396.38,-41.69 507.52,-26.41 568.23,-18.6"/>
<polygon fill="midnightblue" stroke="midnightblue" points="568.76,-22.06 578.24,-17.32 567.88,-15.12 568.76,-22.06"/>
</g>
<!-- Node18&#45;&gt;Node5 -->
<g id="edge25" class="edge">
<title>Node18&#45;&gt;Node5</title>
<path fill="none" stroke="midnightblue" d="M609.43,-180.36C596.43,-171.7 577.86,-159.31 562.96,-149.38"/>
<polygon fill="midnightblue" stroke="midnightblue" points="564.5,-146.21 554.24,-143.57 560.62,-152.03 564.5,-146.21"/>
</g>
<!-- Node18&#45;&gt;Node6 -->
<g id="edge19" class="edge">
<title>Node18&#45;&gt;Node6</title>
<path fill="none" stroke="midnightblue" d="M661.15,-181.74C664.26,-181.1 667.37,-180.5 670.39,-180 714.52,-172.67 1041.2,-177.02 1071.39,-144 1085.22,-128.87 1071.59,-106.58 1058.3,-91.03"/>
<polygon fill="midnightblue" stroke="midnightblue" points="1060.84,-88.63 1051.52,-83.58 1055.66,-93.34 1060.84,-88.63"/>
</g>
<!-- Node18&#45;&gt;Node7 -->
<g id="edge21" class="edge">
<title>Node18&#45;&gt;Node7</title>
<path fill="none" stroke="midnightblue" d="M623.81,-180.29C622.19,-165.84 621.06,-139.65 630.39,-120 636,-108.18 646,-97.85 655.59,-89.91"/>
<polygon fill="midnightblue" stroke="midnightblue" points="658.02,-92.45 663.79,-83.57 653.74,-86.92 658.02,-92.45"/>
</g>
<!-- Node18&#45;&gt;Node9 -->
<g id="edge20" class="edge">
<title>Node18&#45;&gt;Node9</title>
<path fill="none" stroke="midnightblue" d="M628.59,-180.49C633.69,-165.31 645.01,-137.19 663.39,-120 673.56,-110.49 703.91,-97.26 729.21,-87.25"/>
<polygon fill="midnightblue" stroke="midnightblue" points="730.56,-90.48 738.61,-83.59 728.02,-83.96 730.56,-90.48"/>
</g>
<!-- Node18&#45;&gt;Node11 -->
<g id="edge24" class="edge">
<title>Node18&#45;&gt;Node11</title>
<path fill="none" stroke="midnightblue" d="M661.2,-182.03C664.3,-181.32 667.4,-180.63 670.39,-180 758.74,-161.27 791.63,-188.21 870.39,-144 892.25,-131.73 910.38,-108.96 921.49,-92.52"/>
<polygon fill="midnightblue" stroke="midnightblue" points="924.7,-93.99 927.19,-83.69 918.83,-90.19 924.7,-93.99"/>
</g>
<!-- Node18&#45;&gt;Node14 -->
<g id="edge28" class="edge">
<title>Node18&#45;&gt;Node14</title>
<path fill="none" stroke="midnightblue" d="M589.79,-180.59C561.96,-172 522.56,-158.85 489.39,-144 469.41,-135.06 466.75,-128.03 446.39,-120 439.64,-117.34 357.26,-97.29 303.21,-84.25"/>
<polygon fill="midnightblue" stroke="midnightblue" points="304.01,-80.85 293.47,-81.91 302.37,-87.65 304.01,-80.85"/>
</g>
<!-- Node18&#45;&gt;Node16 -->
<g id="edge29" class="edge">
<title>Node18&#45;&gt;Node16</title>
<path fill="none" stroke="midnightblue" d="M661.23,-182.15C664.32,-181.41 667.41,-180.68 670.39,-180 744.38,-162.98 789.69,-203.08 837.39,-144 858.69,-117.62 820.1,-70.79 806.39,-60 763.81,-26.52 700.84,-16.43 658.52,-13.63"/>
<polygon fill="midnightblue" stroke="midnightblue" points="658.67,-10.13 648.49,-13.08 658.29,-17.12 658.67,-10.13"/>
</g>
<!-- Node19 -->
<g id="node19" class="node">
<title>Node19</title>
<g id="a_node19"><a xlink:title=" ">
<polygon fill="none" stroke="#bfbfbf" points="672.39,-120.5 672.39,-143.5 738.39,-143.5 738.39,-120.5 672.39,-120.5"/>
<text text-anchor="middle" x="705.39" y="-128.3" font-family="Helvetica,sans-Serif" font-size="14.00">math.h</text>
</a>
</g>
</g>
<!-- Node18&#45;&gt;Node19 -->
<g id="edge22" class="edge">
<title>Node18&#45;&gt;Node19</title>
<path fill="none" stroke="midnightblue" d="M640.06,-180.36C651.9,-171.78 668.77,-159.55 682.4,-149.66"/>
<polygon fill="midnightblue" stroke="midnightblue" points="684.76,-152.27 690.81,-143.57 680.66,-146.61 684.76,-152.27"/>
</g>
<!-- Node20 -->
<g id="node20" class="node">
<title>Node20</title>
<g id="a_node20"><a xlink:title=" ">
<polygon fill="none" stroke="#bfbfbf" points="756.39,-120.5 756.39,-143.5 828.39,-143.5 828.39,-120.5 756.39,-120.5"/>
<text text-anchor="middle" x="792.39" y="-128.3" font-family="Helvetica,sans-Serif" font-size="14.00">sstream</text>
</a>
</g>
</g>
<!-- Node18&#45;&gt;Node20 -->
<g id="edge23" class="edge">
<title>Node18&#45;&gt;Node20</title>
<path fill="none" stroke="midnightblue" d="M655.63,-180.5C682.74,-171.08 722.7,-157.2 752.43,-146.88"/>
<polygon fill="midnightblue" stroke="midnightblue" points="753.79,-150.11 762.09,-143.52 751.49,-143.5 753.79,-150.11"/>
</g>
<!-- Node21 -->
<g id="node21" class="node">
<title>Node21</title>
<g id="a_node21"><a xlink:href="DriverDefinition_8h.html" target="_top" xlink:title="Driver implementation for Definition.">
<polygon fill="none" stroke="black" points="922.39,-120.5 922.39,-143.5 1062.39,-143.5 1062.39,-120.5 922.39,-120.5"/>
<text text-anchor="middle" x="992.39" y="-128.3" font-family="Helvetica,sans-Serif" font-size="14.00">DriverDefinition.h</text>
</a>
</g>
</g>
<!-- Node18&#45;&gt;Node21 -->
<g id="edge26" class="edge">
<title>Node18&#45;&gt;Node21</title>
<path fill="none" stroke="midnightblue" d="M661.18,-181.93C664.29,-181.24 667.39,-180.58 670.39,-180 715.32,-171.25 832.42,-154.74 912.3,-143.8"/>
<polygon fill="midnightblue" stroke="midnightblue" points="912.9,-147.26 922.33,-142.43 911.95,-140.32 912.9,-147.26"/>
</g>
<!-- Node21&#45;&gt;Node6 -->
<g id="edge27" class="edge">
<title>Node21&#45;&gt;Node6</title>
<path fill="none" stroke="midnightblue" d="M1001.19,-120.36C1007.89,-112.27 1017.27,-100.93 1025.18,-91.38"/>
<polygon fill="midnightblue" stroke="midnightblue" points="1027.96,-93.51 1031.64,-83.57 1022.57,-89.04 1027.96,-93.51"/>
</g>
<!-- Node24&#45;&gt;Node14 -->
<g id="edge38" class="edge">
<title>Node24&#45;&gt;Node14</title>
<path fill="none" stroke="midnightblue" d="M214.77,-191.68C139.34,-192.37 -45.36,-187.41 10.39,-120 35.06,-90.16 144.45,-79.09 208.75,-75.12"/>
<polygon fill="midnightblue" stroke="midnightblue" points="209.27,-78.6 219.05,-74.52 208.86,-71.61 209.27,-78.6"/>
</g>
<!-- Node24&#45;&gt;Node22 -->
<g id="edge37" class="edge">
<title>Node24&#45;&gt;Node22</title>
<path fill="none" stroke="midnightblue" d="M262.44,-180.36C276.47,-171.61 296.57,-159.08 312.57,-149.1"/>
<polygon fill="midnightblue" stroke="midnightblue" points="314.8,-151.83 321.44,-143.57 311.1,-145.89 314.8,-151.83"/>
</g>
<!-- Node25 -->
<g id="node25" class="node">
<title>Node25</title>
<g id="a_node25"><a xlink:title=" ">
<polygon fill="none" stroke="#bfbfbf" points="19.39,-120.5 19.39,-143.5 113.39,-143.5 113.39,-120.5 19.39,-120.5"/>
<text text-anchor="middle" x="66.39" y="-128.3" font-family="Helvetica,sans-Serif" font-size="14.00">QDateTime</text>
</a>
</g>
</g>
<!-- Node24&#45;&gt;Node25 -->
<g id="edge34" class="edge">
<title>Node24&#45;&gt;Node25</title>
<path fill="none" stroke="midnightblue" d="M214.62,-181.03C185.36,-171.55 141.1,-157.21 108.56,-146.67"/>
<polygon fill="midnightblue" stroke="midnightblue" points="109.46,-143.28 98.87,-143.53 107.31,-149.94 109.46,-143.28"/>
</g>
<!-- Node26 -->
<g id="node26" class="node">
<title>Node26</title>
<g id="a_node26"><a xlink:title=" ">
<polygon fill="none" stroke="#bfbfbf" points="131.39,-120.5 131.39,-143.5 179.39,-143.5 179.39,-120.5 131.39,-120.5"/>
<text text-anchor="middle" x="155.39" y="-128.3" font-family="Helvetica,sans-Serif" font-size="14.00">QDir</text>
</a>
</g>
</g>
<!-- Node24&#45;&gt;Node26 -->
<g id="edge35" class="edge">
<title>Node24&#45;&gt;Node26</title>
<path fill="none" stroke="midnightblue" d="M228.88,-180.36C215.3,-171.61 195.85,-159.08 180.37,-149.1"/>
<polygon fill="midnightblue" stroke="midnightblue" points="182.09,-146.05 171.79,-143.57 178.3,-151.93 182.09,-146.05"/>
</g>
<!-- Node27 -->
<g id="node27" class="node">
<title>Node27</title>
<g id="a_node27"><a xlink:title=" ">
<polygon fill="none" stroke="#bfbfbf" points="197.89,-120.5 197.89,-143.5 292.89,-143.5 292.89,-120.5 197.89,-120.5"/>
<text text-anchor="middle" x="245.39" y="-128.3" font-family="Helvetica,sans-Serif" font-size="14.00">QTableView</text>
</a>
</g>
</g>
<!-- Node24&#45;&gt;Node27 -->
<g id="edge36" class="edge">
<title>Node24&#45;&gt;Node27</title>
<path fill="none" stroke="midnightblue" d="M245.39,-180.36C245.39,-172.92 245.39,-162.74 245.39,-153.73"/>
<polygon fill="midnightblue" stroke="midnightblue" points="248.89,-153.57 245.39,-143.57 241.89,-153.57 248.89,-153.57"/>
</g>
</g>
</svg>
        <g id="navigator" transform="translate(0 0)" fill="#404254">
                <rect fill="#f2f5e9" fill-opacity="0.5" stroke="#606060" stroke-width=".5" x="0" y="0" width="60" height="60"/>
                <use id="zoomplus" xlink:href="#zoomPlus" x="17" y="9" onmousedown="handleZoom(evt,'in')"/>
                <use id="zoomminus" xlink:href="#zoomMin" x="42" y="9" onmousedown="handleZoom(evt,'out')"/>
                <use id="reset" xlink:href="#resetDef" x="30" y="36" onmousedown="handleReset()"/>
                <g id="arrowUp" xlink:href="#dirArrow" transform="translate(30 24)" onmousedown="handlePan(0,-1)">
                  <use xlink:href="#rim" fill="#404040">
                        <set attributeName="fill" to="#808080" begin="arrowUp.mouseover" end="arrowUp.mouseout"/>
                  </use>
                  <path fill="none" stroke="white" stroke-width="1.5" d="M0,-3.0v7 M-2.5,-0.5L0,-3.0L2.5,-0.5"/>
                </g>
                <g id="arrowRight" xlink:href="#dirArrow" transform="rotate(90) translate(36 -43)" onmousedown="handlePan(1,0)">
                  <use xlink:href="#rim" fill="#404040">
                        <set attributeName="fill" to="#808080" begin="arrowRight.mouseover" end="arrowRight.mouseout"/>
                  </use>
                  <path fill="none" stroke="white" stroke-width="1.5" d="M0,-3.0v7 M-2.5,-0.5L0,-3.0L2.5,-0.5"/>
                </g>
                <g id="arrowDown" xlink:href="#dirArrow" transform="rotate(180) translate(-30 -48)" onmousedown="handlePan(0,1)">
                  <use xlink:href="#rim" fill="#404040">
                        <set attributeName="fill" to="#808080" begin="arrowDown.mouseover" end="arrowDown.mouseout"/>
                  </use>
                  <path fill="none" stroke="white" stroke-width="1.5" d="M0,-3.0v7 M-2.5,-0.5L0,-3.0L2.5,-0.5"/>
                </g>
                <g id="arrowLeft" xlink:href="#dirArrow" transform="rotate(270) translate(-36 17)" onmousedown="handlePan(-1,0)">
                  <use xlink:href="#rim" fill="#404040">
                        <set attributeName="fill" to="#808080" begin="arrowLeft.mouseover" end="arrowLeft.mouseout"/>
                  </use>
                  <path fill="none" stroke="white" stroke-width="1.5" d="M0,-3.0v7 M-2.5,-0.5L0,-3.0L2.5,-0.5"/>
                </g>
        </g>
        <svg viewBox="0 0 15 15" width="100%" height="30px" preserveAspectRatio="xMaxYMin meet">
         <g id="arrow_out" transform="scale(0.3 0.3)">
          <a xlink:href="MotorWindow_8cpp__incl_org.svg" target="_base">
           <rect id="button" ry="5" rx="5" y="6" x="6" height="38" width="38"
                fill="#f2f5e9" fill-opacity="0.5" stroke="#606060" stroke-width="1.0"/>
           <path id="arrow"
             d="M 11.500037,31.436501 C 11.940474,20.09759 22.043105,11.32322 32.158766,21.979434 L 37.068811,17.246167 C 37.068811,17.246167 37.088388,32 37.088388,32 L 22.160133,31.978069 C 22.160133,31.978069 26.997745,27.140456 26.997745,27.140456 C 18.528582,18.264221 13.291696,25.230495 11.500037,31.436501 z"
             style="fill:#404040;"/>
          </a>
         </g>
        </svg>
</svg>
