<?xml version="1.0" encoding="UTF-8" standalone="no"?>
<!DOCTYPE svg PUBLIC "-//W3C//DTD SVG 1.1//EN"
 "http://www.w3.org/Graphics/SVG/1.1/DTD/svg11.dtd">
<!-- Generated by graphviz version 2.50.0 (0)
 -->
<!-- Title: MotorWindow.h Pages: 1 -->
<!--zoomable 392 -->
<svg id="main" version="1.1" xmlns="http://www.w3.org/2000/svg" xmlns:xlink="http://www.w3.org/1999/xlink" xml:space="preserve" onload="init(evt)">
<style><![CDATA[
text { fill: #e6e6e6 !important; }
polygon { fill: #2f2f2f !important; stroke: #9aa0a6 !important; }
path, line, polyline { stroke: #4e67d6 !important; }
]]></style>
<style><![CDATA[
text { fill: #e6e6e6 !important; }
polygon { fill: #2f2f2f !important; stroke: #9aa0a6 !important; }
path, line, polyline { stroke: #4e67d6 !important; }
]]></style>
<style><![CDATA[
text { fill: #e6e6e6 !important; }
polygon { fill: #2f2f2f !important; stroke: #9aa0a6 !important; }
path, line, polyline { stroke: #4e67d6 !important; }
]]></style>
<style><![CDATA[
text { fill: #e6e6e6 !important; }
polygon { fill: #2f2f2f !important; stroke: #9aa0a6 !important; }
path, line, polyline { stroke: #4e67d6 !important; }
]]></style>
<style><![CDATA[
text { fill: #e6e6e6 !important; }
polygon { fill: #2f2f2f !important; stroke: #9aa0a6 !important; }
path, line, polyline { stroke: #4e67d6 !important; }
]]></style>
<style><![CDATA[
text { fill: #e6e6e6 !important; }
polygon { fill: #2f2f2f !important; stroke: #9aa0a6 !important; }
path, line, polyline { stroke: #4e67d6 !important; }
]]></style>
<style><![CDATA[
text { fill: #e6e6e6 !important; }
polygon { fill: #2f2f2f !important; stroke: #9aa0a6 !important; }
path, line, polyline { stroke: #4e67d6 !important; }
]]></style>
<style type="text/css"><![CDATA[
.edge:hover path { stroke: red; }
.edge:hover polygon { stroke: red; fill: red; }
]]></style>
<script type="text/javascript"><![CDATA[
var edges = document.getElementsByTagName('g');
if (edges && edges.length) {
  for (var i=0;i<edges.length;i++) {
    if (edges[i].id.substr(0,4)=='edge') {
      edges[i].setAttribute('class','edge');
    }
  }
}
]]></script>
        <defs>
                <circle id="rim" cx="0" cy="0" r="7"/>
                <circle id="rim2" cx="0" cy="0" r="3.5"/>
                <g id="zoomPlus">
                        <use xlink:href="#rim" fill="#404040">
                                <set attributeName="fill" to="#808080" begin="zoomplus.mouseover" end="zoomplus.mouseout"/>
                        </use>
                        <path d="M-4,0h8M0,-4v8" fill="none" stroke="white" stroke-width="1.5" pointer-events="none"/>
                </g>
                <g id="zoomMin">
                        <use xlink:href="#rim" fill="#404040">
                                <set attributeName="fill" to="#808080" begin="zoomminus.mouseover" end="zoomminus.mouseout"/>
                        </use>
                        <path d="M-4,0h8" fill="none" stroke="white" stroke-width="1.5" pointer-events="none"/>
                </g>
                <g id="dirArrow">
                        <path fill="none" stroke="white" stroke-width="1.5" d="M0,-3.0v7 M-2.5,-0.5L0,-3.0L2.5,-0.5"/>
                </g>
               <g id="resetDef">
                       <use xlink:href="#rim2" fill="#404040">
                               <set attributeName="fill" to="#808080" begin="reset.mouseover" end="reset.mouseout"/>
                       </use>
               </g>
        </defs>

<script type="text/javascript">
var viewWidth = 1089;
var viewHeight = 392;
var sectionId = 'dynsection-0';
</script>
<script xlink:href="svgpan.js"/>
<svg id="graph" class="graph">
<g id="viewport">
<title>MotorWindow.h</title>
<!-- Node1 -->
<g id="node1" class="node">
<title>Node1</title>
<g id="a_node1"><a xlink:title="Motor window.">
<polygon fill="#bfbfbf" stroke="black" points="418.38,-360.5 418.38,-383.5 542.38,-383.5 542.38,-360.5 418.38,-360.5"/>
<text text-anchor="middle" x="480.38" y="-368.3" font-family="Helvetica,sans-Serif" font-size="14.00">MotorWindow.h</text>
</a>
</g>
</g>
<!-- Node2 -->
<g id="node2" class="node">
<title>Node2</title>
<g id="a_node2"><a xlink:href="MotorControlWidget_8h.html" target="_top" xlink:title="Motor control widget.">
<polygon fill="none" stroke="black" points="340.38,-300.5 340.38,-323.5 508.38,-323.5 508.38,-300.5 340.38,-300.5"/>
<text text-anchor="middle" x="424.38" y="-308.3" font-family="Helvetica,sans-Serif" font-size="14.00">MotorControlWidget.h</text>
</a>
</g>
</g>
<!-- Node1&#45;&gt;Node2 -->
<g id="edge1" class="edge">
<title>Node1&#45;&gt;Node2</title>
<path fill="none" stroke="midnightblue" d="M470.11,-360.36C462.14,-352.1 450.91,-340.47 441.57,-330.8"/>
<polygon fill="midnightblue" stroke="midnightblue" points="444.05,-328.33 434.59,-323.57 439.02,-333.2 444.05,-328.33"/>
</g>
<!-- Node21 -->
<g id="node21" class="node">
<title>Node21</title>
<g id="a_node21"><a xlink:title=" ">
<polygon fill="none" stroke="#bfbfbf" points="13.88,-120.5 13.88,-143.5 68.88,-143.5 68.88,-120.5 13.88,-120.5"/>
<text text-anchor="middle" x="41.38" y="-128.3" font-family="Helvetica,sans-Serif" font-size="14.00">QtSql</text>
</a>
</g>
</g>
<!-- Node1&#45;&gt;Node21 -->
<g id="edge42" class="edge">
<title>Node1&#45;&gt;Node21</title>
<path fill="none" stroke="midnightblue" d="M432.8,-360.43C354.38,-341 196.44,-293.19 93.38,-204 76.26,-189.18 61.53,-167.72 52.16,-152.27"/>
<polygon fill="midnightblue" stroke="midnightblue" points="55.13,-150.41 47.05,-143.55 49.09,-153.95 55.13,-150.41"/>
</g>
<!-- Node22 -->
<g id="node22" class="node">
<title>Node22</title>
<g id="a_node22"><a xlink:title=" ">
<polygon fill="none" stroke="#bfbfbf" points="673.88,-180.5 673.88,-203.5 762.88,-203.5 762.88,-180.5 673.88,-180.5"/>
<text text-anchor="middle" x="718.38" y="-188.3" font-family="Helvetica,sans-Serif" font-size="14.00">QtWidgets</text>
</a>
</g>
</g>
<!-- Node1&#45;&gt;Node22 -->
<g id="edge43" class="edge">
<title>Node1&#45;&gt;Node22</title>
<path fill="none" stroke="midnightblue" d="M490.7,-360.3C504.86,-345.85 531.42,-319.67 556.38,-300 601.63,-264.33 658.67,-228.59 691.59,-208.78"/>
<polygon fill="midnightblue" stroke="midnightblue" points="693.42,-211.76 700.21,-203.63 689.83,-205.76 693.42,-211.76"/>
</g>
<!-- Node27 -->
<g id="node27" class="node">
<title>Node27</title>
<g id="a_node27"><a xlink:title=" ">
<polygon fill="none" stroke="#bfbfbf" points="564.88,-300.5 564.88,-323.5 679.88,-323.5 679.88,-300.5 564.88,-300.5"/>
<text text-anchor="middle" x="622.38" y="-308.3" font-family="Helvetica,sans-Serif" font-size="14.00">QMessageBox</text>
</a>
</g>
</g>
<!-- Node1&#45;&gt;Node27 -->
<g id="edge41" class="edge">
<title>Node1&#45;&gt;Node27</title>
<path fill="none" stroke="midnightblue" d="M506.1,-360.5C528.67,-351.27 561.74,-337.77 586.84,-327.52"/>
<polygon fill="midnightblue" stroke="midnightblue" points="588.44,-330.64 596.38,-323.62 585.8,-324.16 588.44,-330.64"/>
</g>
<!-- Node3 -->
<g id="node3" class="node">
<title>Node3</title>
<g id="a_node3"><a xlink:href="Motor_8h.html" target="_top" xlink:title="Motor device interface.">
<polygon fill="none" stroke="black" points="393.38,-240.5 393.38,-263.5 461.38,-263.5 461.38,-240.5 393.38,-240.5"/>
<text text-anchor="middle" x="427.38" y="-248.3" font-family="Helvetica,sans-Serif" font-size="14.00">Motor.h</text>
</a>
</g>
</g>
<!-- Node2&#45;&gt;Node3 -->
<g id="edge2" class="edge">
<title>Node2&#45;&gt;Node3</title>
<path fill="none" stroke="midnightblue" d="M424.93,-300.36C425.32,-292.92 425.84,-282.74 426.31,-273.73"/>
<polygon fill="midnightblue" stroke="midnightblue" points="429.81,-273.74 426.83,-263.57 422.82,-273.38 429.81,-273.74"/>
</g>
<!-- Node13 -->
<g id="node13" class="node">
<title>Node13</title>
<g id="a_node13"><a xlink:href="QsLog_8h.html" target="_top" xlink:title="Qs Log logging support.">
<polygon fill="none" stroke="black" points="115.38,-60.5 115.38,-83.5 189.38,-83.5 189.38,-60.5 115.38,-60.5"/>
<text text-anchor="middle" x="152.38" y="-68.3" font-family="Helvetica,sans-Serif" font-size="14.00">QsLog.h</text>
</a>
</g>
</g>
<!-- Node2&#45;&gt;Node13 -->
<g id="edge40" class="edge">
<title>Node2&#45;&gt;Node13</title>
<path fill="none" stroke="midnightblue" d="M340.22,-307.47C237.03,-297.88 68.04,-263.68 4.38,-144 -18.26,-101.42 53.7,-84.11 105.08,-77.27"/>
<polygon fill="midnightblue" stroke="midnightblue" points="105.56,-80.74 115.05,-76.03 104.7,-73.79 105.56,-80.74"/>
</g>
<!-- Node2&#45;&gt;Node21 -->
<g id="edge38" class="edge">
<title>Node2&#45;&gt;Node21</title>
<path fill="none" stroke="midnightblue" d="M384.13,-300.43C326.39,-284.35 217.71,-250.6 133.38,-204 106.22,-188.99 78.48,-166.38 60.67,-150.73"/>
<polygon fill="midnightblue" stroke="midnightblue" points="62.55,-147.72 52.77,-143.67 57.89,-152.94 62.55,-147.72"/>
</g>
<!-- Node2&#45;&gt;Node22 -->
<g id="edge39" class="edge">
<title>Node2&#45;&gt;Node22</title>
<path fill="none" stroke="midnightblue" d="M435.79,-300.38C453.15,-284.8 487.83,-255.89 522.38,-240 535.26,-234.08 610.38,-216.82 663.77,-204.95"/>
<polygon fill="midnightblue" stroke="midnightblue" points="664.8,-208.31 673.8,-202.73 663.28,-201.47 664.8,-208.31"/>
</g>
<!-- Node4 -->
<g id="node4" class="node">
<title>Node4</title>
<g id="a_node4"><a xlink:href="ACCom_8h.html" target="_top" xlink:title="AC communication backend for AC Com.">
<polygon fill="none" stroke="black" points="493.38,-120.5 493.38,-143.5 573.38,-143.5 573.38,-120.5 493.38,-120.5"/>
<text text-anchor="middle" x="533.38" y="-128.3" font-family="Helvetica,sans-Serif" font-size="14.00">ACCom.h</text>
</a>
</g>
</g>
<!-- Node3&#45;&gt;Node4 -->
<g id="edge3" class="edge">
<title>Node3&#45;&gt;Node4</title>
<path fill="none" stroke="midnightblue" d="M437.16,-240.11C455.4,-219.81 494.75,-176 517.07,-151.16"/>
<polygon fill="midnightblue" stroke="midnightblue" points="519.85,-153.3 523.93,-143.52 514.64,-148.62 519.85,-153.3"/>
</g>
<!-- Node3&#45;&gt;Node13 -->
<g id="edge31" class="edge">
<title>Node3&#45;&gt;Node13</title>
<path fill="none" stroke="midnightblue" d="M429.53,-240.41C433.88,-215.59 440.78,-153.24 408.38,-120 377.21,-88.01 259.24,-92.8 199.58,-83.86"/>
<polygon fill="midnightblue" stroke="midnightblue" points="199.95,-80.37 189.49,-82.09 198.74,-87.27 199.95,-80.37"/>
</g>
<!-- Node17 -->
<g id="node17" class="node">
<title>Node17</title>
<g id="a_node17"><a xlink:href="Driver_8h.html" target="_top" xlink:title="Driver implementation for .">
<polygon fill="none" stroke="black" points="584.88,-180.5 584.88,-203.5 655.88,-203.5 655.88,-180.5 584.88,-180.5"/>
<text text-anchor="middle" x="620.38" y="-188.3" font-family="Helvetica,sans-Serif" font-size="14.00">Driver.h</text>
</a>
</g>
</g>
<!-- Node3&#45;&gt;Node17 -->
<g id="edge17" class="edge">
<title>Node3&#45;&gt;Node17</title>
<path fill="none" stroke="midnightblue" d="M461.44,-240.76C493.16,-231.23 540.64,-216.96 575.45,-206.5"/>
<polygon fill="midnightblue" stroke="midnightblue" points="576.79,-209.75 585.36,-203.52 574.77,-203.05 576.79,-209.75"/>
</g>
<!-- Node3&#45;&gt;Node21 -->
<g id="edge29" class="edge">
<title>Node3&#45;&gt;Node21</title>
<path fill="none" stroke="midnightblue" d="M393.17,-246.34C348.04,-239.66 266.48,-225.7 199.38,-204 152.71,-188.9 101.36,-164.22 70.25,-148.29"/>
<polygon fill="midnightblue" stroke="midnightblue" points="71.76,-145.14 61.27,-143.65 68.55,-151.35 71.76,-145.14"/>
</g>
<!-- Node3&#45;&gt;Node22 -->
<g id="edge30" class="edge">
<title>Node3&#45;&gt;Node22</title>
<path fill="none" stroke="midnightblue" d="M461.65,-243.98C468.2,-242.65 475,-241.27 481.38,-240 559.9,-224.32 581.99,-220.74 663.6,-204.34"/>
<polygon fill="midnightblue" stroke="midnightblue" points="664.74,-207.68 673.86,-202.28 663.36,-200.82 664.74,-207.68"/>
</g>
<!-- Node23 -->
<g id="node23" class="node">
<title>Node23</title>
<g id="a_node23"><a xlink:href="Utils_8h.html" target="_top" xlink:title="Utility helpers.">
<polygon fill="none" stroke="black" points="208.88,-180.5 208.88,-203.5 269.88,-203.5 269.88,-180.5 208.88,-180.5"/>
<text text-anchor="middle" x="239.38" y="-188.3" font-family="Helvetica,sans-Serif" font-size="14.00">Utils.h</text>
</a>
</g>
</g>
<!-- Node3&#45;&gt;Node23 -->
<g id="edge32" class="edge">
<title>Node3&#45;&gt;Node23</title>
<path fill="none" stroke="midnightblue" d="M393.34,-240.5C361.36,-230.63 313.5,-215.87 279.65,-205.42"/>
<polygon fill="midnightblue" stroke="midnightblue" points="280.65,-202.07 270.06,-202.46 278.58,-208.76 280.65,-202.07"/>
</g>
<!-- Node5 -->
<g id="node5" class="node">
<title>Node5</title>
<g id="a_node5"><a xlink:title=" ">
<polygon fill="none" stroke="#bfbfbf" points="749.88,-60.5 749.88,-83.5 806.88,-83.5 806.88,-60.5 749.88,-60.5"/>
<text text-anchor="middle" x="778.38" y="-68.3" font-family="Helvetica,sans-Serif" font-size="14.00">string</text>
</a>
</g>
</g>
<!-- Node4&#45;&gt;Node5 -->
<g id="edge4" class="edge">
<title>Node4&#45;&gt;Node5</title>
<path fill="none" stroke="midnightblue" d="M573.56,-121.49C619.63,-110.58 694.6,-92.83 739.93,-82.1"/>
<polygon fill="midnightblue" stroke="midnightblue" points="740.75,-85.5 749.68,-79.79 739.14,-78.69 740.75,-85.5"/>
</g>
<!-- Node6 -->
<g id="node6" class="node">
<title>Node6</title>
<g id="a_node6"><a xlink:title=" ">
<polygon fill="none" stroke="#bfbfbf" points="537.88,-60.5 537.88,-83.5 614.88,-83.5 614.88,-60.5 537.88,-60.5"/>
<text text-anchor="middle" x="576.38" y="-68.3" font-family="Helvetica,sans-Serif" font-size="14.00">iostream</text>
</a>
</g>
</g>
<!-- Node4&#45;&gt;Node6 -->
<g id="edge5" class="edge">
<title>Node4&#45;&gt;Node6</title>
<path fill="none" stroke="midnightblue" d="M541.27,-120.36C547.21,-112.35 555.5,-101.16 562.54,-91.67"/>
<polygon fill="midnightblue" stroke="midnightblue" points="565.4,-93.69 568.54,-83.57 559.78,-89.52 565.4,-93.69"/>
</g>
<!-- Node7 -->
<g id="node7" class="node">
<title>Node7</title>
<g id="a_node7"><a xlink:title=" ">
<polygon fill="none" stroke="#bfbfbf" points="411.38,-60.5 411.38,-83.5 481.38,-83.5 481.38,-60.5 411.38,-60.5"/>
<text text-anchor="middle" x="446.38" y="-68.3" font-family="Helvetica,sans-Serif" font-size="14.00">fstream</text>
</a>
</g>
</g>
<!-- Node4&#45;&gt;Node7 -->
<g id="edge6" class="edge">
<title>Node4&#45;&gt;Node7</title>
<path fill="none" stroke="midnightblue" d="M517.42,-120.36C504.42,-111.7 485.85,-99.31 470.95,-89.38"/>
<polygon fill="midnightblue" stroke="midnightblue" points="472.5,-86.21 462.24,-83.57 468.62,-92.03 472.5,-86.21"/>
</g>
<!-- Node8 -->
<g id="node8" class="node">
<title>Node8</title>
<g id="a_node8"><a xlink:title=" ">
<polygon fill="none" stroke="#bfbfbf" points="633.38,-60.5 633.38,-83.5 693.38,-83.5 693.38,-60.5 633.38,-60.5"/>
<text text-anchor="middle" x="663.38" y="-68.3" font-family="Helvetica,sans-Serif" font-size="14.00">vector</text>
</a>
</g>
</g>
<!-- Node4&#45;&gt;Node8 -->
<g id="edge7" class="edge">
<title>Node4&#45;&gt;Node8</title>
<path fill="none" stroke="midnightblue" d="M556.92,-120.5C577.41,-111.36 607.33,-98.01 630.24,-87.79"/>
<polygon fill="midnightblue" stroke="midnightblue" points="631.87,-90.89 639.58,-83.62 629.02,-84.5 631.87,-90.89"/>
</g>
<!-- Node9 -->
<g id="node9" class="node">
<title>Node9</title>
<g id="a_node9"><a xlink:title=" ">
<polygon fill="none" stroke="#bfbfbf" points="319.38,-60.5 319.38,-83.5 393.38,-83.5 393.38,-60.5 319.38,-60.5"/>
<text text-anchor="middle" x="356.38" y="-68.3" font-family="Helvetica,sans-Serif" font-size="14.00">stdarg.h</text>
</a>
</g>
</g>
<!-- Node4&#45;&gt;Node9 -->
<g id="edge8" class="edge">
<title>Node4&#45;&gt;Node9</title>
<path fill="none" stroke="midnightblue" d="M501.33,-120.5C472.47,-111.04 429.88,-97.08 398.32,-86.74"/>
<polygon fill="midnightblue" stroke="midnightblue" points="399.09,-83.31 388.49,-83.52 396.91,-89.96 399.09,-83.31"/>
</g>
<!-- Node10 -->
<g id="node10" class="node">
<title>Node10</title>
<g id="a_node10"><a xlink:href="PosixCompat_8h.html" target="_top" xlink:title=" ">
<polygon fill="none" stroke="black" points="937.38,-60.5 937.38,-83.5 1057.38,-83.5 1057.38,-60.5 937.38,-60.5"/>
<text text-anchor="middle" x="997.38" y="-68.3" font-family="Helvetica,sans-Serif" font-size="14.00">PosixCompat.h</text>
</a>
</g>
</g>
<!-- Node4&#45;&gt;Node10 -->
<g id="edge9" class="edge">
<title>Node4&#45;&gt;Node10</title>
<path fill="none" stroke="midnightblue" d="M573.75,-125.95C652.75,-116.08 828.66,-94.09 927.15,-81.78"/>
<polygon fill="midnightblue" stroke="midnightblue" points="927.81,-85.22 937.3,-80.51 926.95,-78.28 927.81,-85.22"/>
</g>
<!-- Node4&#45;&gt;Node13 -->
<g id="edge12" class="edge">
<title>Node4&#45;&gt;Node13</title>
<path fill="none" stroke="midnightblue" d="M493.34,-122.5C488.64,-121.61 483.91,-120.75 479.38,-120 358.32,-99.94 323.96,-106.32 199.39,-84.03"/>
<polygon fill="midnightblue" stroke="midnightblue" points="199.93,-80.57 189.47,-82.23 198.68,-87.46 199.93,-80.57"/>
</g>
<!-- Node15 -->
<g id="node15" class="node">
<title>Node15</title>
<g id="a_node15"><a xlink:title=" ">
<polygon fill="none" stroke="#bfbfbf" points="474.38,-0.5 474.38,-23.5 544.38,-23.5 544.38,-0.5 474.38,-0.5"/>
<text text-anchor="middle" x="509.38" y="-8.3" font-family="Helvetica,sans-Serif" font-size="14.00">QString</text>
</a>
</g>
</g>
<!-- Node4&#45;&gt;Node15 -->
<g id="edge15" class="edge">
<title>Node4&#45;&gt;Node15</title>
<path fill="none" stroke="midnightblue" d="M531.17,-120.11C527.16,-100.43 518.67,-58.65 513.55,-33.48"/>
<polygon fill="midnightblue" stroke="midnightblue" points="516.94,-32.63 511.52,-23.52 510.09,-34.02 516.94,-32.63"/>
</g>
<!-- Node16 -->
<g id="node16" class="node">
<title>Node16</title>
<g id="a_node16"><a xlink:title=" ">
<polygon fill="none" stroke="#bfbfbf" points="207.38,-60.5 207.38,-83.5 301.38,-83.5 301.38,-60.5 207.38,-60.5"/>
<text text-anchor="middle" x="254.38" y="-68.3" font-family="Helvetica,sans-Serif" font-size="14.00">QStringList</text>
</a>
</g>
</g>
<!-- Node4&#45;&gt;Node16 -->
<g id="edge16" class="edge">
<title>Node4&#45;&gt;Node16</title>
<path fill="none" stroke="midnightblue" d="M493.11,-122.63C445.48,-112.73 365.84,-96.17 311.76,-84.93"/>
<polygon fill="midnightblue" stroke="midnightblue" points="312.14,-81.43 301.64,-82.82 310.72,-88.29 312.14,-81.43"/>
</g>
<!-- Node11 -->
<g id="node11" class="node">
<title>Node11</title>
<g id="a_node11"><a xlink:title=" ">
<polygon fill="none" stroke="#bfbfbf" points="911.88,-0.5 911.88,-23.5 988.88,-23.5 988.88,-0.5 911.88,-0.5"/>
<text text-anchor="middle" x="950.38" y="-8.3" font-family="Helvetica,sans-Serif" font-size="14.00">QtGlobal</text>
</a>
</g>
</g>
<!-- Node10&#45;&gt;Node11 -->
<g id="edge10" class="edge">
<title>Node10&#45;&gt;Node11</title>
<path fill="none" stroke="midnightblue" d="M988.76,-60.36C982.2,-52.27 973.02,-40.93 965.28,-31.38"/>
<polygon fill="midnightblue" stroke="midnightblue" points="967.96,-29.14 958.95,-23.57 962.52,-33.54 967.96,-29.14"/>
</g>
<!-- Node12 -->
<g id="node12" class="node">
<title>Node12</title>
<g id="a_node12"><a xlink:title=" ">
<polygon fill="none" stroke="#bfbfbf" points="1007.38,-0.5 1007.38,-23.5 1081.38,-23.5 1081.38,-0.5 1007.38,-0.5"/>
<text text-anchor="middle" x="1044.38" y="-8.3" font-family="Helvetica,sans-Serif" font-size="14.00">unistd.h</text>
</a>
</g>
</g>
<!-- Node10&#45;&gt;Node12 -->
<g id="edge11" class="edge">
<title>Node10&#45;&gt;Node12</title>
<path fill="none" stroke="midnightblue" d="M1006,-60.36C1012.56,-52.27 1021.75,-40.93 1029.49,-31.38"/>
<polygon fill="midnightblue" stroke="midnightblue" points="1032.24,-33.54 1035.82,-23.57 1026.8,-29.14 1032.24,-33.54"/>
</g>
<!-- Node14 -->
<g id="node14" class="node">
<title>Node14</title>
<g id="a_node14"><a xlink:title=" ">
<polygon fill="none" stroke="#bfbfbf" points="115.38,-0.5 115.38,-23.5 189.38,-23.5 189.38,-0.5 115.38,-0.5"/>
<text text-anchor="middle" x="152.38" y="-8.3" font-family="Helvetica,sans-Serif" font-size="14.00">QDebug</text>
</a>
</g>
</g>
<!-- Node13&#45;&gt;Node14 -->
<g id="edge13" class="edge">
<title>Node13&#45;&gt;Node14</title>
<path fill="none" stroke="midnightblue" d="M152.38,-60.36C152.38,-52.92 152.38,-42.74 152.38,-33.73"/>
<polygon fill="midnightblue" stroke="midnightblue" points="155.88,-33.57 152.38,-23.57 148.88,-33.57 155.88,-33.57"/>
</g>
<!-- Node13&#45;&gt;Node15 -->
<g id="edge14" class="edge">
<title>Node13&#45;&gt;Node15</title>
<path fill="none" stroke="midnightblue" d="M189.48,-61.84C192.48,-61.19 195.48,-60.57 198.38,-60 292.37,-41.69 403.52,-26.41 464.22,-18.6"/>
<polygon fill="midnightblue" stroke="midnightblue" points="464.76,-22.06 474.24,-17.32 463.87,-15.12 464.76,-22.06"/>
</g>
<!-- Node17&#45;&gt;Node4 -->
<g id="edge24" class="edge">
<title>Node17&#45;&gt;Node4</title>
<path fill="none" stroke="midnightblue" d="M604.42,-180.36C591.42,-171.7 572.85,-159.31 557.95,-149.38"/>
<polygon fill="midnightblue" stroke="midnightblue" points="559.5,-146.21 549.24,-143.57 555.62,-152.03 559.5,-146.21"/>
</g>
<!-- Node17&#45;&gt;Node5 -->
<g id="edge18" class="edge">
<title>Node17&#45;&gt;Node5</title>
<path fill="none" stroke="midnightblue" d="M637.34,-180.44C651.93,-171.21 673.41,-157.23 691.38,-144 715.13,-126.52 741.18,-104.91 758.53,-90.15"/>
<polygon fill="midnightblue" stroke="midnightblue" points="760.98,-92.67 766.3,-83.51 756.42,-87.35 760.98,-92.67"/>
</g>
<!-- Node17&#45;&gt;Node6 -->
<g id="edge20" class="edge">
<title>Node17&#45;&gt;Node6</title>
<path fill="none" stroke="midnightblue" d="M616.32,-180.11C608.95,-160.34 593.26,-118.27 583.89,-93.14"/>
<polygon fill="midnightblue" stroke="midnightblue" points="587.08,-91.67 580.31,-83.52 580.52,-94.12 587.08,-91.67"/>
</g>
<!-- Node17&#45;&gt;Node8 -->
<g id="edge19" class="edge">
<title>Node17&#45;&gt;Node8</title>
<path fill="none" stroke="midnightblue" d="M624.35,-180.11C631.55,-160.34 646.88,-118.27 656.04,-93.14"/>
<polygon fill="midnightblue" stroke="midnightblue" points="659.41,-94.12 659.55,-83.52 652.83,-91.72 659.41,-94.12"/>
</g>
<!-- Node17&#45;&gt;Node10 -->
<g id="edge23" class="edge">
<title>Node17&#45;&gt;Node10</title>
<path fill="none" stroke="midnightblue" d="M656.14,-181.74C659.26,-181.1 662.37,-180.5 665.38,-180 709.51,-172.67 1036.2,-177.02 1066.38,-144 1084.33,-124.37 1055.36,-102.53 1029.64,-88.32"/>
<polygon fill="midnightblue" stroke="midnightblue" points="1031.24,-85.21 1020.77,-83.63 1027.97,-91.4 1031.24,-85.21"/>
</g>
<!-- Node17&#45;&gt;Node13 -->
<g id="edge27" class="edge">
<title>Node17&#45;&gt;Node13</title>
<path fill="none" stroke="midnightblue" d="M584.78,-180.59C556.95,-172 517.56,-158.85 484.38,-144 464.41,-135.06 462.1,-127.05 441.38,-120 341.05,-85.85 307.54,-103.6 199.47,-84.04"/>
<polygon fill="midnightblue" stroke="midnightblue" points="199.95,-80.57 189.48,-82.17 198.66,-87.45 199.95,-80.57"/>
</g>
<!-- Node17&#45;&gt;Node15 -->
<g id="edge28" class="edge">
<title>Node17&#45;&gt;Node15</title>
<path fill="none" stroke="midnightblue" d="M632.6,-180.34C651.85,-162.62 688.48,-125 702.38,-84 705.81,-73.9 708.97,-68.39 702.38,-60 684.34,-37.04 605.72,-23.89 554.56,-17.62"/>
<polygon fill="midnightblue" stroke="midnightblue" points="554.75,-14.12 544.41,-16.42 553.93,-21.07 554.75,-14.12"/>
</g>
<!-- Node18 -->
<g id="node18" class="node">
<title>Node18</title>
<g id="a_node18"><a xlink:title=" ">
<polygon fill="none" stroke="#bfbfbf" points="901.38,-120.5 901.38,-143.5 967.38,-143.5 967.38,-120.5 901.38,-120.5"/>
<text text-anchor="middle" x="934.38" y="-128.3" font-family="Helvetica,sans-Serif" font-size="14.00">math.h</text>
</a>
</g>
</g>
<!-- Node17&#45;&gt;Node18 -->
<g id="edge21" class="edge">
<title>Node17&#45;&gt;Node18</title>
<path fill="none" stroke="midnightblue" d="M656.18,-181.97C659.29,-181.27 662.39,-180.6 665.38,-180 762.4,-160.48 790.65,-164.67 891.04,-144.13"/>
<polygon fill="midnightblue" stroke="midnightblue" points="891.9,-147.53 900.98,-142.07 890.48,-140.67 891.9,-147.53"/>
</g>
<!-- Node19 -->
<g id="node19" class="node">
<title>Node19</title>
<g id="a_node19"><a xlink:title=" ">
<polygon fill="none" stroke="#bfbfbf" points="985.38,-120.5 985.38,-143.5 1057.38,-143.5 1057.38,-120.5 985.38,-120.5"/>
<text text-anchor="middle" x="1021.38" y="-128.3" font-family="Helvetica,sans-Serif" font-size="14.00">sstream</text>
</a>
</g>
</g>
<!-- Node17&#45;&gt;Node19 -->
<g id="edge22" class="edge">
<title>Node17&#45;&gt;Node19</title>
<path fill="none" stroke="midnightblue" d="M656.16,-181.83C659.27,-181.16 662.37,-180.54 665.38,-180 799.13,-156.01 837.63,-167.97 975.05,-144.06"/>
<polygon fill="midnightblue" stroke="midnightblue" points="975.88,-147.47 985.11,-142.28 974.66,-140.58 975.88,-147.47"/>
</g>
<!-- Node20 -->
<g id="node20" class="node">
<title>Node20</title>
<g id="a_node20"><a xlink:href="DriverDefinition_8h.html" target="_top" xlink:title="Driver implementation for Definition.">
<polygon fill="none" stroke="black" points="743.38,-120.5 743.38,-143.5 883.38,-143.5 883.38,-120.5 743.38,-120.5"/>
<text text-anchor="middle" x="813.38" y="-128.3" font-family="Helvetica,sans-Serif" font-size="14.00">DriverDefinition.h</text>
</a>
</g>
</g>
<!-- Node17&#45;&gt;Node20 -->
<g id="edge25" class="edge">
<title>Node17&#45;&gt;Node20</title>
<path fill="none" stroke="midnightblue" d="M655.33,-180.5C687.07,-170.96 734.05,-156.84 768.54,-146.48"/>
<polygon fill="midnightblue" stroke="midnightblue" points="769.8,-149.75 778.37,-143.52 767.78,-143.05 769.8,-149.75"/>
</g>
<!-- Node20&#45;&gt;Node5 -->
<g id="edge26" class="edge">
<title>Node20&#45;&gt;Node5</title>
<path fill="none" stroke="midnightblue" d="M806.96,-120.36C802.23,-112.51 795.65,-101.62 790,-92.25"/>
<polygon fill="midnightblue" stroke="midnightblue" points="792.92,-90.32 784.76,-83.57 786.93,-93.94 792.92,-90.32"/>
</g>
<!-- Node23&#45;&gt;Node13 -->
<g id="edge37" class="edge">
<title>Node23&#45;&gt;Node13</title>
<path fill="none" stroke="midnightblue" d="M247.12,-180.04C256.48,-165.3 269.55,-138.78 257.38,-120 250.04,-108.67 221.16,-96.19 195.54,-86.95"/>
<polygon fill="midnightblue" stroke="midnightblue" points="196.53,-83.58 185.93,-83.57 194.2,-90.19 196.53,-83.58"/>
</g>
<!-- Node23&#45;&gt;Node21 -->
<g id="edge36" class="edge">
<title>Node23&#45;&gt;Node21</title>
<path fill="none" stroke="midnightblue" d="M208.8,-182.12C178.37,-173.28 130.07,-159.21 79.13,-144.21"/>
<polygon fill="midnightblue" stroke="midnightblue" points="79.84,-140.77 69.26,-141.3 77.86,-147.49 79.84,-140.77"/>
</g>
<!-- Node24 -->
<g id="node24" class="node">
<title>Node24</title>
<g id="a_node24"><a xlink:title=" ">
<polygon fill="none" stroke="#bfbfbf" points="305.38,-120.5 305.38,-143.5 399.38,-143.5 399.38,-120.5 305.38,-120.5"/>
<text text-anchor="middle" x="352.38" y="-128.3" font-family="Helvetica,sans-Serif" font-size="14.00">QDateTime</text>
</a>
</g>
</g>
<!-- Node23&#45;&gt;Node24 -->
<g id="edge33" class="edge">
<title>Node23&#45;&gt;Node24</title>
<path fill="none" stroke="midnightblue" d="M259.84,-180.5C277.41,-171.48 302.96,-158.36 322.77,-148.2"/>
<polygon fill="midnightblue" stroke="midnightblue" points="324.39,-151.3 331.69,-143.62 321.19,-145.07 324.39,-151.3"/>
</g>
<!-- Node25 -->
<g id="node25" class="node">
<title>Node25</title>
<g id="a_node25"><a xlink:title=" ">
<polygon fill="none" stroke="#bfbfbf" points="87.38,-120.5 87.38,-143.5 135.38,-143.5 135.38,-120.5 87.38,-120.5"/>
<text text-anchor="middle" x="111.38" y="-128.3" font-family="Helvetica,sans-Serif" font-size="14.00">QDir</text>
</a>
</g>
</g>
<!-- Node23&#45;&gt;Node25 -->
<g id="edge34" class="edge">
<title>Node23&#45;&gt;Node25</title>
<path fill="none" stroke="midnightblue" d="M216.2,-180.5C196.03,-171.36 166.57,-158.01 144.02,-147.79"/>
<polygon fill="midnightblue" stroke="midnightblue" points="145.37,-144.56 134.82,-143.62 142.49,-150.94 145.37,-144.56"/>
</g>
<!-- Node26 -->
<g id="node26" class="node">
<title>Node26</title>
<g id="a_node26"><a xlink:title=" ">
<polygon fill="none" stroke="#bfbfbf" points="153.88,-120.5 153.88,-143.5 248.88,-143.5 248.88,-120.5 153.88,-120.5"/>
<text text-anchor="middle" x="201.38" y="-128.3" font-family="Helvetica,sans-Serif" font-size="14.00">QTableView</text>
</a>
</g>
</g>
<!-- Node23&#45;&gt;Node26 -->
<g id="edge35" class="edge">
<title>Node23&#45;&gt;Node26</title>
<path fill="none" stroke="midnightblue" d="M232.41,-180.36C227.22,-172.43 219.98,-161.39 213.8,-151.96"/>
<polygon fill="midnightblue" stroke="midnightblue" points="216.72,-150.02 208.31,-143.57 210.86,-153.85 216.72,-150.02"/>
</g>
</g>
</svg>
        <g id="navigator" transform="translate(0 0)" fill="#404254">
                <rect fill="#f2f5e9" fill-opacity="0.5" stroke="#606060" stroke-width=".5" x="0" y="0" width="60" height="60"/>
                <use id="zoomplus" xlink:href="#zoomPlus" x="17" y="9" onmousedown="handleZoom(evt,'in')"/>
                <use id="zoomminus" xlink:href="#zoomMin" x="42" y="9" onmousedown="handleZoom(evt,'out')"/>
                <use id="reset" xlink:href="#resetDef" x="30" y="36" onmousedown="handleReset()"/>
                <g id="arrowUp" xlink:href="#dirArrow" transform="translate(30 24)" onmousedown="handlePan(0,-1)">
                  <use xlink:href="#rim" fill="#404040">
                        <set attributeName="fill" to="#808080" begin="arrowUp.mouseover" end="arrowUp.mouseout"/>
                  </use>
                  <path fill="none" stroke="white" stroke-width="1.5" d="M0,-3.0v7 M-2.5,-0.5L0,-3.0L2.5,-0.5"/>
                </g>
                <g id="arrowRight" xlink:href="#dirArrow" transform="rotate(90) translate(36 -43)" onmousedown="handlePan(1,0)">
                  <use xlink:href="#rim" fill="#404040">
                        <set attributeName="fill" to="#808080" begin="arrowRight.mouseover" end="arrowRight.mouseout"/>
                  </use>
                  <path fill="none" stroke="white" stroke-width="1.5" d="M0,-3.0v7 M-2.5,-0.5L0,-3.0L2.5,-0.5"/>
                </g>
                <g id="arrowDown" xlink:href="#dirArrow" transform="rotate(180) translate(-30 -48)" onmousedown="handlePan(0,1)">
                  <use xlink:href="#rim" fill="#404040">
                        <set attributeName="fill" to="#808080" begin="arrowDown.mouseover" end="arrowDown.mouseout"/>
                  </use>
                  <path fill="none" stroke="white" stroke-width="1.5" d="M0,-3.0v7 M-2.5,-0.5L0,-3.0L2.5,-0.5"/>
                </g>
                <g id="arrowLeft" xlink:href="#dirArrow" transform="rotate(270) translate(-36 17)" onmousedown="handlePan(-1,0)">
                  <use xlink:href="#rim" fill="#404040">
                        <set attributeName="fill" to="#808080" begin="arrowLeft.mouseover" end="arrowLeft.mouseout"/>
                  </use>
                  <path fill="none" stroke="white" stroke-width="1.5" d="M0,-3.0v7 M-2.5,-0.5L0,-3.0L2.5,-0.5"/>
                </g>
        </g>
        <svg viewBox="0 0 15 15" width="100%" height="30px" preserveAspectRatio="xMaxYMin meet">
         <g id="arrow_out" transform="scale(0.3 0.3)">
          <a xlink:href="MotorWindow_8h__incl_org.svg" target="_base">
           <rect id="button" ry="5" rx="5" y="6" x="6" height="38" width="38"
                fill="#f2f5e9" fill-opacity="0.5" stroke="#606060" stroke-width="1.0"/>
           <path id="arrow"
             d="M 11.500037,31.436501 C 11.940474,20.09759 22.043105,11.32322 32.158766,21.979434 L 37.068811,17.246167 C 37.068811,17.246167 37.088388,32 37.088388,32 L 22.160133,31.978069 C 22.160133,31.978069 26.997745,27.140456 26.997745,27.140456 C 18.528582,18.264221 13.291696,25.230495 11.500037,31.436501 z"
             style="fill:#404040;"/>
          </a>
         </g>
        </svg>
</svg>
