<?xml version="1.0" encoding="UTF-8" standalone="no"?>
<!DOCTYPE svg PUBLIC "-//W3C//DTD SVG 1.1//EN"
 "http://www.w3.org/Graphics/SVG/1.1/DTD/svg11.dtd">
<!-- Generated by graphviz version 2.50.0 (0)
 -->
<!-- Title: Motor.cpp Pages: 1 -->
<!--zoomable 332 -->
<svg id="main" version="1.1" xmlns="http://www.w3.org/2000/svg" xmlns:xlink="http://www.w3.org/1999/xlink" xml:space="preserve" onload="init(evt)">
<style><![CDATA[
text { fill: #e6e6e6 !important; }
polygon { fill: #2f2f2f !important; stroke: #9aa0a6 !important; }
path, line, polyline { stroke: #4e67d6 !important; }
]]></style>
<style><![CDATA[
text { fill: #e6e6e6 !important; }
polygon { fill: #2f2f2f !important; stroke: #9aa0a6 !important; }
path, line, polyline { stroke: #4e67d6 !important; }
]]></style>
<style><![CDATA[
text { fill: #e6e6e6 !important; }
polygon { fill: #2f2f2f !important; stroke: #9aa0a6 !important; }
path, line, polyline { stroke: #4e67d6 !important; }
]]></style>
<style><![CDATA[
text { fill: #e6e6e6 !important; }
polygon { fill: #2f2f2f !important; stroke: #9aa0a6 !important; }
path, line, polyline { stroke: #4e67d6 !important; }
]]></style>
<style><![CDATA[
text { fill: #e6e6e6 !important; }
polygon { fill: #2f2f2f !important; stroke: #9aa0a6 !important; }
path, line, polyline { stroke: #4e67d6 !important; }
]]></style>
<style><![CDATA[
text { fill: #e6e6e6 !important; }
polygon { fill: #2f2f2f !important; stroke: #9aa0a6 !important; }
path, line, polyline { stroke: #4e67d6 !important; }
]]></style>
<style><![CDATA[
text { fill: #e6e6e6 !important; }
polygon { fill: #2f2f2f !important; stroke: #9aa0a6 !important; }
path, line, polyline { stroke: #4e67d6 !important; }
]]></style>
<style type="text/css"><![CDATA[
.edge:hover path { stroke: red; }
.edge:hover polygon { stroke: red; fill: red; }
]]></style>
<script type="text/javascript"><![CDATA[
var edges = document.getElementsByTagName('g');
if (edges && edges.length) {
  for (var i=0;i<edges.length;i++) {
    if (edges[i].id.substr(0,4)=='edge') {
      edges[i].setAttribute('class','edge');
    }
  }
}
]]></script>
        <defs>
                <circle id="rim" cx="0" cy="0" r="7"/>
                <circle id="rim2" cx="0" cy="0" r="3.5"/>
                <g id="zoomPlus">
                        <use xlink:href="#rim" fill="#404040">
                                <set attributeName="fill" to="#808080" begin="zoomplus.mouseover" end="zoomplus.mouseout"/>
                        </use>
                        <path d="M-4,0h8M0,-4v8" fill="none" stroke="white" stroke-width="1.5" pointer-events="none"/>
                </g>
                <g id="zoomMin">
                        <use xlink:href="#rim" fill="#404040">
                                <set attributeName="fill" to="#808080" begin="zoomminus.mouseover" end="zoomminus.mouseout"/>
                        </use>
                        <path d="M-4,0h8" fill="none" stroke="white" stroke-width="1.5" pointer-events="none"/>
                </g>
                <g id="dirArrow">
                        <path fill="none" stroke="white" stroke-width="1.5" d="M0,-3.0v7 M-2.5,-0.5L0,-3.0L2.5,-0.5"/>
                </g>
               <g id="resetDef">
                       <use xlink:href="#rim2" fill="#404040">
                               <set attributeName="fill" to="#808080" begin="reset.mouseover" end="reset.mouseout"/>
                       </use>
               </g>
        </defs>

<script type="text/javascript">
var viewWidth = 1245;
var viewHeight = 332;
var sectionId = 'dynsection-0';
</script>
<script xlink:href="svgpan.js"/>
<svg id="graph" class="graph">
<g id="viewport">
<title>Motor.cpp</title>
<!-- Node1 -->
<g id="node1" class="node">
<title>Node1</title>
<g id="a_node1"><a xlink:title="Motor device interface.">
<polygon fill="#bfbfbf" stroke="black" points="812,-300.5 812,-323.5 897,-323.5 897,-300.5 812,-300.5"/>
<text text-anchor="middle" x="854.5" y="-308.3" font-family="Helvetica,sans-Serif" font-size="14.00">Motor.cpp</text>
</a>
</g>
</g>
<!-- Node2 -->
<g id="node2" class="node">
<title>Node2</title>
<g id="a_node2"><a xlink:href="Motor_8h.html" target="_top" xlink:title="Motor device interface.">
<polygon fill="none" stroke="black" points="789.5,-240.5 789.5,-263.5 857.5,-263.5 857.5,-240.5 789.5,-240.5"/>
<text text-anchor="middle" x="823.5" y="-248.3" font-family="Helvetica,sans-Serif" font-size="14.00">Motor.h</text>
</a>
</g>
</g>
<!-- Node1&#45;&gt;Node2 -->
<g id="edge1" class="edge">
<title>Node1&#45;&gt;Node2</title>
<path fill="none" stroke="midnightblue" d="M848.81,-300.36C844.66,-292.59 838.92,-281.84 833.95,-272.55"/>
<polygon fill="midnightblue" stroke="midnightblue" points="836.95,-270.74 829.15,-263.57 830.78,-274.04 836.95,-270.74"/>
</g>
<!-- Node22 -->
<g id="node22" class="node">
<title>Node22</title>
<g id="a_node22"><a xlink:href="Utils_8h.html" target="_top" xlink:title="Utility helpers.">
<polygon fill="none" stroke="black" points="905,-180.5 905,-203.5 966,-203.5 966,-180.5 905,-180.5"/>
<text text-anchor="middle" x="935.5" y="-188.3" font-family="Helvetica,sans-Serif" font-size="14.00">Utils.h</text>
</a>
</g>
</g>
<!-- Node1&#45;&gt;Node22 -->
<g id="edge37" class="edge">
<title>Node1&#45;&gt;Node22</title>
<path fill="none" stroke="midnightblue" d="M861.98,-300.11C875.79,-279.99 905.46,-236.76 922.59,-211.81"/>
<polygon fill="midnightblue" stroke="midnightblue" points="925.5,-213.75 928.28,-203.52 919.73,-209.79 925.5,-213.75"/>
</g>
<!-- Node3 -->
<g id="node3" class="node">
<title>Node3</title>
<g id="a_node3"><a xlink:href="ACCom_8h.html" target="_top" xlink:title="AC communication backend for AC Com.">
<polygon fill="none" stroke="black" points="647.5,-120.5 647.5,-143.5 727.5,-143.5 727.5,-120.5 647.5,-120.5"/>
<text text-anchor="middle" x="687.5" y="-128.3" font-family="Helvetica,sans-Serif" font-size="14.00">ACCom.h</text>
</a>
</g>
</g>
<!-- Node2&#45;&gt;Node3 -->
<g id="edge2" class="edge">
<title>Node2&#45;&gt;Node3</title>
<path fill="none" stroke="midnightblue" d="M789.3,-247.78C760.24,-243.12 719.8,-231.76 697.5,-204 686.27,-190.02 684.51,-169.3 685.12,-153.84"/>
<polygon fill="midnightblue" stroke="midnightblue" points="688.62,-153.93 685.88,-143.69 681.64,-153.4 688.62,-153.93"/>
</g>
<!-- Node12 -->
<g id="node12" class="node">
<title>Node12</title>
<g id="a_node12"><a xlink:href="QsLog_8h.html" target="_top" xlink:title="Qs Log logging support.">
<polygon fill="none" stroke="black" points="845.5,-60.5 845.5,-83.5 919.5,-83.5 919.5,-60.5 845.5,-60.5"/>
<text text-anchor="middle" x="882.5" y="-68.3" font-family="Helvetica,sans-Serif" font-size="14.00">QsLog.h</text>
</a>
</g>
</g>
<!-- Node2&#45;&gt;Node12 -->
<g id="edge30" class="edge">
<title>Node2&#45;&gt;Node12</title>
<path fill="none" stroke="midnightblue" d="M823.24,-240.27C823.08,-217.19 824.84,-161.56 843.5,-120 848.26,-109.41 856.08,-99.28 863.47,-91.15"/>
<polygon fill="midnightblue" stroke="midnightblue" points="866.18,-93.39 870.6,-83.75 861.14,-88.53 866.18,-93.39"/>
</g>
<!-- Node16 -->
<g id="node16" class="node">
<title>Node16</title>
<g id="a_node16"><a xlink:href="Driver_8h.html" target="_top" xlink:title="Driver implementation for .">
<polygon fill="none" stroke="black" points="410,-180.5 410,-203.5 481,-203.5 481,-180.5 410,-180.5"/>
<text text-anchor="middle" x="445.5" y="-188.3" font-family="Helvetica,sans-Serif" font-size="14.00">Driver.h</text>
</a>
</g>
</g>
<!-- Node2&#45;&gt;Node16 -->
<g id="edge16" class="edge">
<title>Node2&#45;&gt;Node16</title>
<path fill="none" stroke="midnightblue" d="M789.29,-245.75C721.08,-235.28 568.11,-211.81 491.32,-200.03"/>
<polygon fill="midnightblue" stroke="midnightblue" points="491.42,-196.51 481.01,-198.45 490.36,-203.42 491.42,-196.51"/>
</g>
<!-- Node20 -->
<g id="node20" class="node">
<title>Node20</title>
<g id="a_node20"><a xlink:title=" ">
<polygon fill="none" stroke="#bfbfbf" points="852,-120.5 852,-143.5 907,-143.5 907,-120.5 852,-120.5"/>
<text text-anchor="middle" x="879.5" y="-128.3" font-family="Helvetica,sans-Serif" font-size="14.00">QtSql</text>
</a>
</g>
</g>
<!-- Node2&#45;&gt;Node20 -->
<g id="edge28" class="edge">
<title>Node2&#45;&gt;Node20</title>
<path fill="none" stroke="midnightblue" d="M828.67,-240.11C838.09,-220.25 858.19,-177.9 870.1,-152.81"/>
<polygon fill="midnightblue" stroke="midnightblue" points="873.38,-154.06 874.51,-143.52 867.06,-151.06 873.38,-154.06"/>
</g>
<!-- Node21 -->
<g id="node21" class="node">
<title>Node21</title>
<g id="a_node21"><a xlink:title=" ">
<polygon fill="none" stroke="#bfbfbf" points="706,-180.5 706,-203.5 795,-203.5 795,-180.5 706,-180.5"/>
<text text-anchor="middle" x="750.5" y="-188.3" font-family="Helvetica,sans-Serif" font-size="14.00">QtWidgets</text>
</a>
</g>
</g>
<!-- Node2&#45;&gt;Node21 -->
<g id="edge29" class="edge">
<title>Node2&#45;&gt;Node21</title>
<path fill="none" stroke="midnightblue" d="M810.11,-240.36C799.41,-231.86 784.2,-219.78 771.83,-209.95"/>
<polygon fill="midnightblue" stroke="midnightblue" points="773.81,-207.05 763.8,-203.57 769.46,-212.53 773.81,-207.05"/>
</g>
<!-- Node2&#45;&gt;Node22 -->
<g id="edge31" class="edge">
<title>Node2&#45;&gt;Node22</title>
<path fill="none" stroke="midnightblue" d="M843.78,-240.5C861.12,-231.52 886.29,-218.48 905.88,-208.34"/>
<polygon fill="midnightblue" stroke="midnightblue" points="907.72,-211.33 914.99,-203.62 904.5,-205.11 907.72,-211.33"/>
</g>
<!-- Node4 -->
<g id="node4" class="node">
<title>Node4</title>
<g id="a_node4"><a xlink:title=" ">
<polygon fill="none" stroke="#bfbfbf" points="267,-60.5 267,-83.5 324,-83.5 324,-60.5 267,-60.5"/>
<text text-anchor="middle" x="295.5" y="-68.3" font-family="Helvetica,sans-Serif" font-size="14.00">string</text>
</a>
</g>
</g>
<!-- Node3&#45;&gt;Node4 -->
<g id="edge3" class="edge">
<title>Node3&#45;&gt;Node4</title>
<path fill="none" stroke="midnightblue" d="M647.46,-121.66C644.43,-121.06 641.42,-120.5 638.5,-120 507.11,-97.56 469.06,-110.43 333.91,-83.79"/>
<polygon fill="midnightblue" stroke="midnightblue" points="334.5,-80.33 324.01,-81.8 333.12,-87.2 334.5,-80.33"/>
</g>
<!-- Node5 -->
<g id="node5" class="node">
<title>Node5</title>
<g id="a_node5"><a xlink:title=" ">
<polygon fill="none" stroke="#bfbfbf" points="342,-60.5 342,-83.5 419,-83.5 419,-60.5 342,-60.5"/>
<text text-anchor="middle" x="380.5" y="-68.3" font-family="Helvetica,sans-Serif" font-size="14.00">iostream</text>
</a>
</g>
</g>
<!-- Node3&#45;&gt;Node5 -->
<g id="edge4" class="edge">
<title>Node3&#45;&gt;Node5</title>
<path fill="none" stroke="midnightblue" d="M647.42,-121.83C644.41,-121.19 641.41,-120.58 638.5,-120 548.69,-102.23 523.04,-102.54 429.15,-84.04"/>
<polygon fill="midnightblue" stroke="midnightblue" points="429.72,-80.59 419.23,-82.07 428.36,-87.45 429.72,-80.59"/>
</g>
<!-- Node6 -->
<g id="node6" class="node">
<title>Node6</title>
<g id="a_node6"><a xlink:title=" ">
<polygon fill="none" stroke="#bfbfbf" points="627.5,-60.5 627.5,-83.5 697.5,-83.5 697.5,-60.5 627.5,-60.5"/>
<text text-anchor="middle" x="662.5" y="-68.3" font-family="Helvetica,sans-Serif" font-size="14.00">fstream</text>
</a>
</g>
</g>
<!-- Node3&#45;&gt;Node6 -->
<g id="edge5" class="edge">
<title>Node3&#45;&gt;Node6</title>
<path fill="none" stroke="midnightblue" d="M682.91,-120.36C679.6,-112.68 675.03,-102.07 671.05,-92.84"/>
<polygon fill="midnightblue" stroke="midnightblue" points="674.23,-91.37 667.06,-83.57 667.8,-94.14 674.23,-91.37"/>
</g>
<!-- Node7 -->
<g id="node7" class="node">
<title>Node7</title>
<g id="a_node7"><a xlink:title=" ">
<polygon fill="none" stroke="#bfbfbf" points="437.5,-60.5 437.5,-83.5 497.5,-83.5 497.5,-60.5 437.5,-60.5"/>
<text text-anchor="middle" x="467.5" y="-68.3" font-family="Helvetica,sans-Serif" font-size="14.00">vector</text>
</a>
</g>
</g>
<!-- Node3&#45;&gt;Node7 -->
<g id="edge6" class="edge">
<title>Node3&#45;&gt;Node7</title>
<path fill="none" stroke="midnightblue" d="M647.18,-120.79C612.54,-111.95 561.01,-98.68 507.39,-84.21"/>
<polygon fill="midnightblue" stroke="midnightblue" points="508.28,-80.82 497.72,-81.59 506.45,-87.58 508.28,-80.82"/>
</g>
<!-- Node8 -->
<g id="node8" class="node">
<title>Node8</title>
<g id="a_node8"><a xlink:title=" ">
<polygon fill="none" stroke="#bfbfbf" points="715.5,-60.5 715.5,-83.5 789.5,-83.5 789.5,-60.5 715.5,-60.5"/>
<text text-anchor="middle" x="752.5" y="-68.3" font-family="Helvetica,sans-Serif" font-size="14.00">stdarg.h</text>
</a>
</g>
</g>
<!-- Node3&#45;&gt;Node8 -->
<g id="edge7" class="edge">
<title>Node3&#45;&gt;Node8</title>
<path fill="none" stroke="midnightblue" d="M699.42,-120.36C708.86,-111.94 722.23,-100.01 733.19,-90.23"/>
<polygon fill="midnightblue" stroke="midnightblue" points="735.52,-92.84 740.65,-83.57 730.86,-87.62 735.52,-92.84"/>
</g>
<!-- Node9 -->
<g id="node9" class="node">
<title>Node9</title>
<g id="a_node9"><a xlink:href="PosixCompat_8h.html" target="_top" xlink:title=" ">
<polygon fill="none" stroke="black" points="25.5,-60.5 25.5,-83.5 145.5,-83.5 145.5,-60.5 25.5,-60.5"/>
<text text-anchor="middle" x="85.5" y="-68.3" font-family="Helvetica,sans-Serif" font-size="14.00">PosixCompat.h</text>
</a>
</g>
</g>
<!-- Node3&#45;&gt;Node9 -->
<g id="edge8" class="edge">
<title>Node3&#45;&gt;Node9</title>
<path fill="none" stroke="midnightblue" d="M647.47,-121.55C644.45,-120.98 641.43,-120.45 638.5,-120 547.29,-105.95 282.94,-86.61 155.64,-77.76"/>
<polygon fill="midnightblue" stroke="midnightblue" points="155.82,-74.27 145.6,-77.07 155.33,-81.25 155.82,-74.27"/>
</g>
<!-- Node3&#45;&gt;Node12 -->
<g id="edge11" class="edge">
<title>Node3&#45;&gt;Node12</title>
<path fill="none" stroke="midnightblue" d="M722.81,-120.5C754.88,-110.96 802.35,-96.84 837.2,-86.48"/>
<polygon fill="midnightblue" stroke="midnightblue" points="838.53,-89.73 847.12,-83.52 836.54,-83.02 838.53,-89.73"/>
</g>
<!-- Node14 -->
<g id="node14" class="node">
<title>Node14</title>
<g id="a_node14"><a xlink:title=" ">
<polygon fill="none" stroke="#bfbfbf" points="769.5,-0.5 769.5,-23.5 839.5,-23.5 839.5,-0.5 769.5,-0.5"/>
<text text-anchor="middle" x="804.5" y="-8.3" font-family="Helvetica,sans-Serif" font-size="14.00">QString</text>
</a>
</g>
</g>
<!-- Node3&#45;&gt;Node14 -->
<g id="edge14" class="edge">
<title>Node3&#45;&gt;Node14</title>
<path fill="none" stroke="midnightblue" d="M727.61,-124.69C752.18,-118.6 781.98,-106.79 798.5,-84 808.96,-69.57 809.55,-48.9 808.06,-33.58"/>
<polygon fill="midnightblue" stroke="midnightblue" points="811.51,-32.99 806.73,-23.54 804.58,-33.91 811.51,-32.99"/>
</g>
<!-- Node15 -->
<g id="node15" class="node">
<title>Node15</title>
<g id="a_node15"><a xlink:title=" ">
<polygon fill="none" stroke="#bfbfbf" points="515.5,-60.5 515.5,-83.5 609.5,-83.5 609.5,-60.5 515.5,-60.5"/>
<text text-anchor="middle" x="562.5" y="-68.3" font-family="Helvetica,sans-Serif" font-size="14.00">QStringList</text>
</a>
</g>
</g>
<!-- Node3&#45;&gt;Node15 -->
<g id="edge15" class="edge">
<title>Node3&#45;&gt;Node15</title>
<path fill="none" stroke="midnightblue" d="M664.86,-120.5C645.25,-111.4 616.65,-98.13 594.67,-87.93"/>
<polygon fill="midnightblue" stroke="midnightblue" points="595.93,-84.66 585.39,-83.62 592.99,-91.01 595.93,-84.66"/>
</g>
<!-- Node10 -->
<g id="node10" class="node">
<title>Node10</title>
<g id="a_node10"><a xlink:title=" ">
<polygon fill="none" stroke="#bfbfbf" points="0,-0.5 0,-23.5 77,-23.5 77,-0.5 0,-0.5"/>
<text text-anchor="middle" x="38.5" y="-8.3" font-family="Helvetica,sans-Serif" font-size="14.00">QtGlobal</text>
</a>
</g>
</g>
<!-- Node9&#45;&gt;Node10 -->
<g id="edge9" class="edge">
<title>Node9&#45;&gt;Node10</title>
<path fill="none" stroke="midnightblue" d="M76.88,-60.36C70.32,-52.27 61.13,-40.93 53.39,-31.38"/>
<polygon fill="midnightblue" stroke="midnightblue" points="56.08,-29.14 47.07,-23.57 50.64,-33.54 56.08,-29.14"/>
</g>
<!-- Node11 -->
<g id="node11" class="node">
<title>Node11</title>
<g id="a_node11"><a xlink:title=" ">
<polygon fill="none" stroke="#bfbfbf" points="95.5,-0.5 95.5,-23.5 169.5,-23.5 169.5,-0.5 95.5,-0.5"/>
<text text-anchor="middle" x="132.5" y="-8.3" font-family="Helvetica,sans-Serif" font-size="14.00">unistd.h</text>
</a>
</g>
</g>
<!-- Node9&#45;&gt;Node11 -->
<g id="edge10" class="edge">
<title>Node9&#45;&gt;Node11</title>
<path fill="none" stroke="midnightblue" d="M94.12,-60.36C100.68,-52.27 109.87,-40.93 117.61,-31.38"/>
<polygon fill="midnightblue" stroke="midnightblue" points="120.36,-33.54 123.93,-23.57 114.92,-29.14 120.36,-33.54"/>
</g>
<!-- Node13 -->
<g id="node13" class="node">
<title>Node13</title>
<g id="a_node13"><a xlink:title=" ">
<polygon fill="none" stroke="#bfbfbf" points="857.5,-0.5 857.5,-23.5 931.5,-23.5 931.5,-0.5 857.5,-0.5"/>
<text text-anchor="middle" x="894.5" y="-8.3" font-family="Helvetica,sans-Serif" font-size="14.00">QDebug</text>
</a>
</g>
</g>
<!-- Node12&#45;&gt;Node13 -->
<g id="edge12" class="edge">
<title>Node12&#45;&gt;Node13</title>
<path fill="none" stroke="midnightblue" d="M884.7,-60.36C886.26,-52.84 888.39,-42.52 890.27,-33.43"/>
<polygon fill="midnightblue" stroke="midnightblue" points="893.71,-34.07 892.31,-23.57 886.86,-32.65 893.71,-34.07"/>
</g>
<!-- Node12&#45;&gt;Node14 -->
<g id="edge13" class="edge">
<title>Node12&#45;&gt;Node14</title>
<path fill="none" stroke="midnightblue" d="M868.19,-60.36C856.65,-51.78 840.2,-39.55 826.91,-29.66"/>
<polygon fill="midnightblue" stroke="midnightblue" points="828.83,-26.73 818.72,-23.57 824.65,-32.35 828.83,-26.73"/>
</g>
<!-- Node16&#45;&gt;Node3 -->
<g id="edge23" class="edge">
<title>Node16&#45;&gt;Node3</title>
<path fill="none" stroke="midnightblue" d="M481.21,-182.44C522.49,-172.55 590.71,-156.2 637.31,-145.03"/>
<polygon fill="midnightblue" stroke="midnightblue" points="638.29,-148.39 647.2,-142.66 636.66,-141.59 638.29,-148.39"/>
</g>
<!-- Node16&#45;&gt;Node4 -->
<g id="edge17" class="edge">
<title>Node16&#45;&gt;Node4</title>
<path fill="none" stroke="midnightblue" d="M431.92,-180.32C405.82,-159.78 348.44,-114.65 317.05,-89.96"/>
<polygon fill="midnightblue" stroke="midnightblue" points="318.96,-87 308.94,-83.57 314.63,-92.5 318.96,-87"/>
</g>
<!-- Node16&#45;&gt;Node5 -->
<g id="edge19" class="edge">
<title>Node16&#45;&gt;Node5</title>
<path fill="none" stroke="midnightblue" d="M439.5,-180.11C428.51,-160.16 405.02,-117.52 391.23,-92.47"/>
<polygon fill="midnightblue" stroke="midnightblue" points="394.19,-90.59 386.3,-83.52 388.06,-93.97 394.19,-90.59"/>
</g>
<!-- Node16&#45;&gt;Node7 -->
<g id="edge18" class="edge">
<title>Node16&#45;&gt;Node7</title>
<path fill="none" stroke="midnightblue" d="M447.53,-180.11C451.2,-160.43 458.99,-118.65 463.68,-93.48"/>
<polygon fill="midnightblue" stroke="midnightblue" points="467.15,-94 465.54,-83.52 460.26,-92.71 467.15,-94"/>
</g>
<!-- Node16&#45;&gt;Node9 -->
<g id="edge22" class="edge">
<title>Node16&#45;&gt;Node9</title>
<path fill="none" stroke="midnightblue" d="M409.55,-191.76C353.22,-191.54 242.08,-185.31 159.5,-144 134.82,-131.66 112.9,-108.24 99.45,-91.67"/>
<polygon fill="midnightblue" stroke="midnightblue" points="102.14,-89.44 93.21,-83.73 96.63,-93.76 102.14,-89.44"/>
</g>
<!-- Node16&#45;&gt;Node12 -->
<g id="edge26" class="edge">
<title>Node16&#45;&gt;Node12</title>
<path fill="none" stroke="midnightblue" d="M481.21,-188.6C536.88,-184.13 647.21,-172.25 736.5,-144 780.2,-130.18 827.29,-105.27 855.84,-88.93"/>
<polygon fill="midnightblue" stroke="midnightblue" points="857.88,-91.79 864.77,-83.75 854.37,-85.74 857.88,-91.79"/>
</g>
<!-- Node16&#45;&gt;Node14 -->
<g id="edge27" class="edge">
<title>Node16&#45;&gt;Node14</title>
<path fill="none" stroke="midnightblue" d="M409.63,-189.77C346.52,-186.77 219.7,-176.72 192.5,-144 185.68,-135.8 188.18,-129.75 192.5,-120 208.54,-83.75 222.17,-75.87 258.5,-60 348.01,-20.9 645.21,-14.29 759.33,-13.2"/>
<polygon fill="midnightblue" stroke="midnightblue" points="759.5,-16.7 769.47,-13.11 759.44,-9.7 759.5,-16.7"/>
</g>
<!-- Node17 -->
<g id="node17" class="node">
<title>Node17</title>
<g id="a_node17"><a xlink:title=" ">
<polygon fill="none" stroke="#bfbfbf" points="473.5,-120.5 473.5,-143.5 539.5,-143.5 539.5,-120.5 473.5,-120.5"/>
<text text-anchor="middle" x="506.5" y="-128.3" font-family="Helvetica,sans-Serif" font-size="14.00">math.h</text>
</a>
</g>
</g>
<!-- Node16&#45;&gt;Node17 -->
<g id="edge20" class="edge">
<title>Node16&#45;&gt;Node17</title>
<path fill="none" stroke="midnightblue" d="M456.69,-180.36C465.46,-172.02 477.85,-160.24 488.08,-150.52"/>
<polygon fill="midnightblue" stroke="midnightblue" points="490.55,-153 495.38,-143.57 485.72,-147.92 490.55,-153"/>
</g>
<!-- Node18 -->
<g id="node18" class="node">
<title>Node18</title>
<g id="a_node18"><a xlink:title=" ">
<polygon fill="none" stroke="#bfbfbf" points="557.5,-120.5 557.5,-143.5 629.5,-143.5 629.5,-120.5 557.5,-120.5"/>
<text text-anchor="middle" x="593.5" y="-128.3" font-family="Helvetica,sans-Serif" font-size="14.00">sstream</text>
</a>
</g>
</g>
<!-- Node16&#45;&gt;Node18 -->
<g id="edge21" class="edge">
<title>Node16&#45;&gt;Node18</title>
<path fill="none" stroke="midnightblue" d="M472.3,-180.5C495.94,-171.23 530.6,-157.65 556.81,-147.38"/>
<polygon fill="midnightblue" stroke="midnightblue" points="558.36,-150.53 566.4,-143.62 555.81,-144.01 558.36,-150.53"/>
</g>
<!-- Node19 -->
<g id="node19" class="node">
<title>Node19</title>
<g id="a_node19"><a xlink:href="DriverDefinition_8h.html" target="_top" xlink:title="Driver implementation for Definition.">
<polygon fill="none" stroke="black" points="201.5,-120.5 201.5,-143.5 341.5,-143.5 341.5,-120.5 201.5,-120.5"/>
<text text-anchor="middle" x="271.5" y="-128.3" font-family="Helvetica,sans-Serif" font-size="14.00">DriverDefinition.h</text>
</a>
</g>
</g>
<!-- Node16&#45;&gt;Node19 -->
<g id="edge24" class="edge">
<title>Node16&#45;&gt;Node19</title>
<path fill="none" stroke="midnightblue" d="M413.99,-180.5C385.62,-171.04 343.75,-157.08 312.73,-146.74"/>
<polygon fill="midnightblue" stroke="midnightblue" points="313.66,-143.37 303.07,-143.52 311.45,-150.01 313.66,-143.37"/>
</g>
<!-- Node19&#45;&gt;Node4 -->
<g id="edge25" class="edge">
<title>Node19&#45;&gt;Node4</title>
<path fill="none" stroke="midnightblue" d="M275.9,-120.36C279.08,-112.68 283.47,-102.07 287.29,-92.84"/>
<polygon fill="midnightblue" stroke="midnightblue" points="290.54,-94.15 291.13,-83.57 284.07,-91.47 290.54,-94.15"/>
</g>
<!-- Node22&#45;&gt;Node12 -->
<g id="edge36" class="edge">
<title>Node22&#45;&gt;Node12</title>
<path fill="none" stroke="midnightblue" d="M933.92,-180.47C931.51,-166.23 926.14,-140.28 916.5,-120 911.75,-110.01 904.82,-99.94 898.45,-91.7"/>
<polygon fill="midnightblue" stroke="midnightblue" points="901.13,-89.45 892.13,-83.85 895.67,-93.83 901.13,-89.45"/>
</g>
<!-- Node22&#45;&gt;Node20 -->
<g id="edge35" class="edge">
<title>Node22&#45;&gt;Node20</title>
<path fill="none" stroke="midnightblue" d="M925.23,-180.36C917.26,-172.1 906.03,-160.47 896.69,-150.8"/>
<polygon fill="midnightblue" stroke="midnightblue" points="899.17,-148.33 889.71,-143.57 894.13,-153.2 899.17,-148.33"/>
</g>
<!-- Node23 -->
<g id="node23" class="node">
<title>Node23</title>
<g id="a_node23"><a xlink:title=" ">
<polygon fill="none" stroke="#bfbfbf" points="963.5,-120.5 963.5,-143.5 1057.5,-143.5 1057.5,-120.5 963.5,-120.5"/>
<text text-anchor="middle" x="1010.5" y="-128.3" font-family="Helvetica,sans-Serif" font-size="14.00">QDateTime</text>
</a>
</g>
</g>
<!-- Node22&#45;&gt;Node23 -->
<g id="edge32" class="edge">
<title>Node22&#45;&gt;Node23</title>
<path fill="none" stroke="midnightblue" d="M949.26,-180.36C960.25,-171.86 975.87,-159.78 988.59,-149.95"/>
<polygon fill="midnightblue" stroke="midnightblue" points="991.06,-152.46 996.83,-143.57 986.78,-146.92 991.06,-152.46"/>
</g>
<!-- Node24 -->
<g id="node24" class="node">
<title>Node24</title>
<g id="a_node24"><a xlink:title=" ">
<polygon fill="none" stroke="#bfbfbf" points="1075.5,-120.5 1075.5,-143.5 1123.5,-143.5 1123.5,-120.5 1075.5,-120.5"/>
<text text-anchor="middle" x="1099.5" y="-128.3" font-family="Helvetica,sans-Serif" font-size="14.00">QDir</text>
</a>
</g>
</g>
<!-- Node22&#45;&gt;Node24 -->
<g id="edge33" class="edge">
<title>Node22&#45;&gt;Node24</title>
<path fill="none" stroke="midnightblue" d="M965.2,-180.5C993.56,-170.47 1036.25,-155.37 1065.86,-144.9"/>
<polygon fill="midnightblue" stroke="midnightblue" points="1067.09,-148.17 1075.35,-141.54 1064.76,-141.57 1067.09,-148.17"/>
</g>
<!-- Node25 -->
<g id="node25" class="node">
<title>Node25</title>
<g id="a_node25"><a xlink:title=" ">
<polygon fill="none" stroke="#bfbfbf" points="1142,-120.5 1142,-143.5 1237,-143.5 1237,-120.5 1142,-120.5"/>
<text text-anchor="middle" x="1189.5" y="-128.3" font-family="Helvetica,sans-Serif" font-size="14.00">QTableView</text>
</a>
</g>
</g>
<!-- Node22&#45;&gt;Node25 -->
<g id="edge34" class="edge">
<title>Node22&#45;&gt;Node25</title>
<path fill="none" stroke="midnightblue" d="M966.14,-184C1007.45,-174.57 1081.78,-157.6 1133.28,-145.84"/>
<polygon fill="midnightblue" stroke="midnightblue" points="1134.29,-149.2 1143.26,-143.56 1132.73,-142.37 1134.29,-149.2"/>
</g>
</g>
</svg>
        <g id="navigator" transform="translate(0 0)" fill="#404254">
                <rect fill="#f2f5e9" fill-opacity="0.5" stroke="#606060" stroke-width=".5" x="0" y="0" width="60" height="60"/>
                <use id="zoomplus" xlink:href="#zoomPlus" x="17" y="9" onmousedown="handleZoom(evt,'in')"/>
                <use id="zoomminus" xlink:href="#zoomMin" x="42" y="9" onmousedown="handleZoom(evt,'out')"/>
                <use id="reset" xlink:href="#resetDef" x="30" y="36" onmousedown="handleReset()"/>
                <g id="arrowUp" xlink:href="#dirArrow" transform="translate(30 24)" onmousedown="handlePan(0,-1)">
                  <use xlink:href="#rim" fill="#404040">
                        <set attributeName="fill" to="#808080" begin="arrowUp.mouseover" end="arrowUp.mouseout"/>
                  </use>
                  <path fill="none" stroke="white" stroke-width="1.5" d="M0,-3.0v7 M-2.5,-0.5L0,-3.0L2.5,-0.5"/>
                </g>
                <g id="arrowRight" xlink:href="#dirArrow" transform="rotate(90) translate(36 -43)" onmousedown="handlePan(1,0)">
                  <use xlink:href="#rim" fill="#404040">
                        <set attributeName="fill" to="#808080" begin="arrowRight.mouseover" end="arrowRight.mouseout"/>
                  </use>
                  <path fill="none" stroke="white" stroke-width="1.5" d="M0,-3.0v7 M-2.5,-0.5L0,-3.0L2.5,-0.5"/>
                </g>
                <g id="arrowDown" xlink:href="#dirArrow" transform="rotate(180) translate(-30 -48)" onmousedown="handlePan(0,1)">
                  <use xlink:href="#rim" fill="#404040">
                        <set attributeName="fill" to="#808080" begin="arrowDown.mouseover" end="arrowDown.mouseout"/>
                  </use>
                  <path fill="none" stroke="white" stroke-width="1.5" d="M0,-3.0v7 M-2.5,-0.5L0,-3.0L2.5,-0.5"/>
                </g>
                <g id="arrowLeft" xlink:href="#dirArrow" transform="rotate(270) translate(-36 17)" onmousedown="handlePan(-1,0)">
                  <use xlink:href="#rim" fill="#404040">
                        <set attributeName="fill" to="#808080" begin="arrowLeft.mouseover" end="arrowLeft.mouseout"/>
                  </use>
                  <path fill="none" stroke="white" stroke-width="1.5" d="M0,-3.0v7 M-2.5,-0.5L0,-3.0L2.5,-0.5"/>
                </g>
        </g>
        <svg viewBox="0 0 15 15" width="100%" height="30px" preserveAspectRatio="xMaxYMin meet">
         <g id="arrow_out" transform="scale(0.3 0.3)">
          <a xlink:href="Motor_8cpp__incl_org.svg" target="_base">
           <rect id="button" ry="5" rx="5" y="6" x="6" height="38" width="38"
                fill="#f2f5e9" fill-opacity="0.5" stroke="#606060" stroke-width="1.0"/>
           <path id="arrow"
             d="M 11.500037,31.436501 C 11.940474,20.09759 22.043105,11.32322 32.158766,21.979434 L 37.068811,17.246167 C 37.068811,17.246167 37.088388,32 37.088388,32 L 22.160133,31.978069 C 22.160133,31.978069 26.997745,27.140456 26.997745,27.140456 C 18.528582,18.264221 13.291696,25.230495 11.500037,31.436501 z"
             style="fill:#404040;"/>
          </a>
         </g>
        </svg>
</svg>
