<?xml version="1.0" encoding="UTF-8" standalone="no"?>
<!DOCTYPE svg PUBLIC "-//W3C//DTD SVG 1.1//EN"
 "http://www.w3.org/Graphics/SVG/1.1/DTD/svg11.dtd">
<!-- Generated by graphviz version 2.50.0 (0)
 -->
<!-- Title: MotorControlWidget.cpp Pages: 1 -->
<!--zoomable 392 -->
<svg id="main" version="1.1" xmlns="http://www.w3.org/2000/svg" xmlns:xlink="http://www.w3.org/1999/xlink" xml:space="preserve" onload="init(evt)">
<style><![CDATA[
text { fill: #e6e6e6 !important; }
polygon { fill: #2f2f2f !important; stroke: #9aa0a6 !important; }
path, line, polyline { stroke: #4e67d6 !important; }
]]></style>
<style><![CDATA[
text { fill: #e6e6e6 !important; }
polygon { fill: #2f2f2f !important; stroke: #9aa0a6 !important; }
path, line, polyline { stroke: #4e67d6 !important; }
]]></style>
<style><![CDATA[
text { fill: #e6e6e6 !important; }
polygon { fill: #2f2f2f !important; stroke: #9aa0a6 !important; }
path, line, polyline { stroke: #4e67d6 !important; }
]]></style>
<style><![CDATA[
text { fill: #e6e6e6 !important; }
polygon { fill: #2f2f2f !important; stroke: #9aa0a6 !important; }
path, line, polyline { stroke: #4e67d6 !important; }
]]></style>
<style><![CDATA[
text { fill: #e6e6e6 !important; }
polygon { fill: #2f2f2f !important; stroke: #9aa0a6 !important; }
path, line, polyline { stroke: #4e67d6 !important; }
]]></style>
<style><![CDATA[
text { fill: #e6e6e6 !important; }
polygon { fill: #2f2f2f !important; stroke: #9aa0a6 !important; }
path, line, polyline { stroke: #4e67d6 !important; }
]]></style>
<style><![CDATA[
text { fill: #e6e6e6 !important; }
polygon { fill: #2f2f2f !important; stroke: #9aa0a6 !important; }
path, line, polyline { stroke: #4e67d6 !important; }
]]></style>
<style type="text/css"><![CDATA[
.edge:hover path { stroke: red; }
.edge:hover polygon { stroke: red; fill: red; }
]]></style>
<script type="text/javascript"><![CDATA[
var edges = document.getElementsByTagName('g');
if (edges && edges.length) {
  for (var i=0;i<edges.length;i++) {
    if (edges[i].id.substr(0,4)=='edge') {
      edges[i].setAttribute('class','edge');
    }
  }
}
]]></script>
        <defs>
                <circle id="rim" cx="0" cy="0" r="7"/>
                <circle id="rim2" cx="0" cy="0" r="3.5"/>
                <g id="zoomPlus">
                        <use xlink:href="#rim" fill="#404040">
                                <set attributeName="fill" to="#808080" begin="zoomplus.mouseover" end="zoomplus.mouseout"/>
                        </use>
                        <path d="M-4,0h8M0,-4v8" fill="none" stroke="white" stroke-width="1.5" pointer-events="none"/>
                </g>
                <g id="zoomMin">
                        <use xlink:href="#rim" fill="#404040">
                                <set attributeName="fill" to="#808080" begin="zoomminus.mouseover" end="zoomminus.mouseout"/>
                        </use>
                        <path d="M-4,0h8" fill="none" stroke="white" stroke-width="1.5" pointer-events="none"/>
                </g>
                <g id="dirArrow">
                        <path fill="none" stroke="white" stroke-width="1.5" d="M0,-3.0v7 M-2.5,-0.5L0,-3.0L2.5,-0.5"/>
                </g>
               <g id="resetDef">
                       <use xlink:href="#rim2" fill="#404040">
                               <set attributeName="fill" to="#808080" begin="reset.mouseover" end="reset.mouseout"/>
                       </use>
               </g>
        </defs>

<script type="text/javascript">
var viewWidth = 1049;
var viewHeight = 392;
var sectionId = 'dynsection-0';
</script>
<script xlink:href="svgpan.js"/>
<svg id="graph" class="graph">
<g id="viewport">
<title>MotorControlWidget.cpp</title>
<!-- Node1 -->
<g id="node1" class="node">
<title>Node1</title>
<g id="a_node1"><a xlink:title="Motor control widget.">
<polygon fill="#bfbfbf" stroke="black" points="265.67,-360.5 265.67,-383.5 450.67,-383.5 450.67,-360.5 265.67,-360.5"/>
<text text-anchor="middle" x="358.17" y="-368.3" font-family="Helvetica,sans-Serif" font-size="14.00">MotorControlWidget.cpp</text>
</a>
</g>
</g>
<!-- Node2 -->
<g id="node2" class="node">
<title>Node2</title>
<g id="a_node2"><a xlink:href="MotorControlWidget_8h.html" target="_top" xlink:title="Motor control widget.">
<polygon fill="none" stroke="black" points="274.17,-300.5 274.17,-323.5 442.17,-323.5 442.17,-300.5 274.17,-300.5"/>
<text text-anchor="middle" x="358.17" y="-308.3" font-family="Helvetica,sans-Serif" font-size="14.00">MotorControlWidget.h</text>
</a>
</g>
</g>
<!-- Node1&#45;&gt;Node2 -->
<g id="edge1" class="edge">
<title>Node1&#45;&gt;Node2</title>
<path fill="none" stroke="midnightblue" d="M358.17,-360.36C358.17,-352.92 358.17,-342.74 358.17,-333.73"/>
<polygon fill="midnightblue" stroke="midnightblue" points="361.67,-333.57 358.17,-323.57 354.67,-333.57 361.67,-333.57"/>
</g>
<!-- Node3 -->
<g id="node3" class="node">
<title>Node3</title>
<g id="a_node3"><a xlink:href="Motor_8h.html" target="_top" xlink:title="Motor device interface.">
<polygon fill="none" stroke="black" points="362.17,-240.5 362.17,-263.5 430.17,-263.5 430.17,-240.5 362.17,-240.5"/>
<text text-anchor="middle" x="396.17" y="-248.3" font-family="Helvetica,sans-Serif" font-size="14.00">Motor.h</text>
</a>
</g>
</g>
<!-- Node2&#45;&gt;Node3 -->
<g id="edge2" class="edge">
<title>Node2&#45;&gt;Node3</title>
<path fill="none" stroke="midnightblue" d="M365.14,-300.36C370.34,-292.43 377.57,-281.39 383.75,-271.96"/>
<polygon fill="midnightblue" stroke="midnightblue" points="386.7,-273.85 389.25,-263.57 380.84,-270.02 386.7,-273.85"/>
</g>
<!-- Node13 -->
<g id="node13" class="node">
<title>Node13</title>
<g id="a_node13"><a xlink:href="QsLog_8h.html" target="_top" xlink:title="Qs Log logging support.">
<polygon fill="none" stroke="black" points="50.17,-60.5 50.17,-83.5 124.17,-83.5 124.17,-60.5 50.17,-60.5"/>
<text text-anchor="middle" x="87.17" y="-68.3" font-family="Helvetica,sans-Serif" font-size="14.00">QsLog.h</text>
</a>
</g>
</g>
<!-- Node2&#45;&gt;Node13 -->
<g id="edge40" class="edge">
<title>Node2&#45;&gt;Node13</title>
<path fill="none" stroke="midnightblue" d="M287.59,-300.45C203.44,-283.68 66.39,-242.14 4.17,-144 -10.88,-120.26 19.34,-100.2 47.44,-87.53"/>
<polygon fill="midnightblue" stroke="midnightblue" points="49,-90.67 56.82,-83.52 46.25,-84.23 49,-90.67"/>
</g>
<!-- Node21 -->
<g id="node21" class="node">
<title>Node21</title>
<g id="a_node21"><a xlink:title=" ">
<polygon fill="none" stroke="#bfbfbf" points="312.67,-120.5 312.67,-143.5 367.67,-143.5 367.67,-120.5 312.67,-120.5"/>
<text text-anchor="middle" x="340.17" y="-128.3" font-family="Helvetica,sans-Serif" font-size="14.00">QtSql</text>
</a>
</g>
</g>
<!-- Node2&#45;&gt;Node21 -->
<g id="edge38" class="edge">
<title>Node2&#45;&gt;Node21</title>
<path fill="none" stroke="midnightblue" d="M357,-300.18C355.97,-290.65 354.45,-276.41 353.17,-264 349.16,-224.99 344.69,-179.41 342.17,-153.6"/>
<polygon fill="midnightblue" stroke="midnightblue" points="345.65,-153.14 341.19,-143.53 338.68,-153.82 345.65,-153.14"/>
</g>
<!-- Node22 -->
<g id="node22" class="node">
<title>Node22</title>
<g id="a_node22"><a xlink:title=" ">
<polygon fill="none" stroke="#bfbfbf" points="661.67,-180.5 661.67,-203.5 750.67,-203.5 750.67,-180.5 661.67,-180.5"/>
<text text-anchor="middle" x="706.17" y="-188.3" font-family="Helvetica,sans-Serif" font-size="14.00">QtWidgets</text>
</a>
</g>
</g>
<!-- Node2&#45;&gt;Node22 -->
<g id="edge39" class="edge">
<title>Node2&#45;&gt;Node22</title>
<path fill="none" stroke="midnightblue" d="M389.36,-300.42C452.33,-279.07 594.63,-230.82 665.08,-206.94"/>
<polygon fill="midnightblue" stroke="midnightblue" points="666.58,-210.12 674.93,-203.59 664.34,-203.49 666.58,-210.12"/>
</g>
<!-- Node4 -->
<g id="node4" class="node">
<title>Node4</title>
<g id="a_node4"><a xlink:href="ACCom_8h.html" target="_top" xlink:title="AC communication backend for AC Com.">
<polygon fill="none" stroke="black" points="462.17,-120.5 462.17,-143.5 542.17,-143.5 542.17,-120.5 462.17,-120.5"/>
<text text-anchor="middle" x="502.17" y="-128.3" font-family="Helvetica,sans-Serif" font-size="14.00">ACCom.h</text>
</a>
</g>
</g>
<!-- Node3&#45;&gt;Node4 -->
<g id="edge3" class="edge">
<title>Node3&#45;&gt;Node4</title>
<path fill="none" stroke="midnightblue" d="M405.96,-240.11C424.19,-219.81 463.54,-176 485.86,-151.16"/>
<polygon fill="midnightblue" stroke="midnightblue" points="488.64,-153.3 492.72,-143.52 483.43,-148.62 488.64,-153.3"/>
</g>
<!-- Node3&#45;&gt;Node13 -->
<g id="edge31" class="edge">
<title>Node3&#45;&gt;Node13</title>
<path fill="none" stroke="midnightblue" d="M398.28,-240.35C402.52,-215.4 409.11,-152.79 376.17,-120 339.45,-83.44 201.79,-93.18 134.45,-83.84"/>
<polygon fill="midnightblue" stroke="midnightblue" points="134.71,-80.33 124.27,-82.17 133.57,-87.24 134.71,-80.33"/>
</g>
<!-- Node17 -->
<g id="node17" class="node">
<title>Node17</title>
<g id="a_node17"><a xlink:href="Driver_8h.html" target="_top" xlink:title="Driver implementation for .">
<polygon fill="none" stroke="black" points="572.67,-180.5 572.67,-203.5 643.67,-203.5 643.67,-180.5 572.67,-180.5"/>
<text text-anchor="middle" x="608.17" y="-188.3" font-family="Helvetica,sans-Serif" font-size="14.00">Driver.h</text>
</a>
</g>
</g>
<!-- Node3&#45;&gt;Node17 -->
<g id="edge17" class="edge">
<title>Node3&#45;&gt;Node17</title>
<path fill="none" stroke="midnightblue" d="M430.24,-241.68C466.17,-231.85 522.98,-216.31 562.72,-205.44"/>
<polygon fill="midnightblue" stroke="midnightblue" points="563.7,-208.79 572.43,-202.78 561.86,-202.04 563.7,-208.79"/>
</g>
<!-- Node3&#45;&gt;Node21 -->
<g id="edge29" class="edge">
<title>Node3&#45;&gt;Node21</title>
<path fill="none" stroke="midnightblue" d="M391.01,-240.11C381.58,-220.25 361.48,-177.9 349.57,-152.81"/>
<polygon fill="midnightblue" stroke="midnightblue" points="352.62,-151.06 345.17,-143.52 346.29,-154.06 352.62,-151.06"/>
</g>
<!-- Node3&#45;&gt;Node22 -->
<g id="edge30" class="edge">
<title>Node3&#45;&gt;Node22</title>
<path fill="none" stroke="midnightblue" d="M430.58,-244.9C477.94,-236.46 566.13,-220.57 651.54,-204.1"/>
<polygon fill="midnightblue" stroke="midnightblue" points="652.24,-207.53 661.4,-202.19 650.92,-200.65 652.24,-207.53"/>
</g>
<!-- Node23 -->
<g id="node23" class="node">
<title>Node23</title>
<g id="a_node23"><a xlink:href="Utils_8h.html" target="_top" xlink:title="Utility helpers.">
<polygon fill="none" stroke="black" points="171.67,-180.5 171.67,-203.5 232.67,-203.5 232.67,-180.5 171.67,-180.5"/>
<text text-anchor="middle" x="202.17" y="-188.3" font-family="Helvetica,sans-Serif" font-size="14.00">Utils.h</text>
</a>
</g>
</g>
<!-- Node3&#45;&gt;Node23 -->
<g id="edge32" class="edge">
<title>Node3&#45;&gt;Node23</title>
<path fill="none" stroke="midnightblue" d="M361.94,-240.76C328.67,-230.82 278.15,-215.71 242.85,-205.16"/>
<polygon fill="midnightblue" stroke="midnightblue" points="243.46,-201.69 232.87,-202.18 241.45,-208.4 243.46,-201.69"/>
</g>
<!-- Node5 -->
<g id="node5" class="node">
<title>Node5</title>
<g id="a_node5"><a xlink:title=" ">
<polygon fill="none" stroke="#bfbfbf" points="684.67,-60.5 684.67,-83.5 741.67,-83.5 741.67,-60.5 684.67,-60.5"/>
<text text-anchor="middle" x="713.17" y="-68.3" font-family="Helvetica,sans-Serif" font-size="14.00">string</text>
</a>
</g>
</g>
<!-- Node4&#45;&gt;Node5 -->
<g id="edge4" class="edge">
<title>Node4&#45;&gt;Node5</title>
<path fill="none" stroke="midnightblue" d="M540.38,-120.5C578.43,-110.04 636.52,-94.07 674.67,-83.58"/>
<polygon fill="midnightblue" stroke="midnightblue" points="675.67,-86.94 684.39,-80.91 673.82,-80.19 675.67,-86.94"/>
</g>
<!-- Node6 -->
<g id="node6" class="node">
<title>Node6</title>
<g id="a_node6"><a xlink:title=" ">
<polygon fill="none" stroke="#bfbfbf" points="472.67,-60.5 472.67,-83.5 549.67,-83.5 549.67,-60.5 472.67,-60.5"/>
<text text-anchor="middle" x="511.17" y="-68.3" font-family="Helvetica,sans-Serif" font-size="14.00">iostream</text>
</a>
</g>
</g>
<!-- Node4&#45;&gt;Node6 -->
<g id="edge5" class="edge">
<title>Node4&#45;&gt;Node6</title>
<path fill="none" stroke="midnightblue" d="M503.83,-120.36C504.98,-112.92 506.56,-102.74 507.96,-93.73"/>
<polygon fill="midnightblue" stroke="midnightblue" points="511.46,-93.99 509.53,-83.57 504.54,-92.92 511.46,-93.99"/>
</g>
<!-- Node7 -->
<g id="node7" class="node">
<title>Node7</title>
<g id="a_node7"><a xlink:title=" ">
<polygon fill="none" stroke="#bfbfbf" points="346.17,-60.5 346.17,-83.5 416.17,-83.5 416.17,-60.5 346.17,-60.5"/>
<text text-anchor="middle" x="381.17" y="-68.3" font-family="Helvetica,sans-Serif" font-size="14.00">fstream</text>
</a>
</g>
</g>
<!-- Node4&#45;&gt;Node7 -->
<g id="edge6" class="edge">
<title>Node4&#45;&gt;Node7</title>
<path fill="none" stroke="midnightblue" d="M480.26,-120.5C461.36,-111.44 433.84,-98.25 412.6,-88.06"/>
<polygon fill="midnightblue" stroke="midnightblue" points="413.86,-84.79 403.33,-83.62 410.84,-91.1 413.86,-84.79"/>
</g>
<!-- Node8 -->
<g id="node8" class="node">
<title>Node8</title>
<g id="a_node8"><a xlink:title=" ">
<polygon fill="none" stroke="#bfbfbf" points="568.17,-60.5 568.17,-83.5 628.17,-83.5 628.17,-60.5 568.17,-60.5"/>
<text text-anchor="middle" x="598.17" y="-68.3" font-family="Helvetica,sans-Serif" font-size="14.00">vector</text>
</a>
</g>
</g>
<!-- Node4&#45;&gt;Node8 -->
<g id="edge7" class="edge">
<title>Node4&#45;&gt;Node8</title>
<path fill="none" stroke="midnightblue" d="M519.78,-120.36C534.4,-111.53 555.4,-98.84 571.99,-88.82"/>
<polygon fill="midnightblue" stroke="midnightblue" points="573.93,-91.74 580.68,-83.57 570.31,-85.75 573.93,-91.74"/>
</g>
<!-- Node9 -->
<g id="node9" class="node">
<title>Node9</title>
<g id="a_node9"><a xlink:title=" ">
<polygon fill="none" stroke="#bfbfbf" points="254.17,-60.5 254.17,-83.5 328.17,-83.5 328.17,-60.5 254.17,-60.5"/>
<text text-anchor="middle" x="291.17" y="-68.3" font-family="Helvetica,sans-Serif" font-size="14.00">stdarg.h</text>
</a>
</g>
</g>
<!-- Node4&#45;&gt;Node9 -->
<g id="edge8" class="edge">
<title>Node4&#45;&gt;Node9</title>
<path fill="none" stroke="midnightblue" d="M463.96,-120.5C428.64,-110.79 376.05,-96.33 338.17,-85.92"/>
<polygon fill="midnightblue" stroke="midnightblue" points="338.96,-82.51 328.39,-83.23 337.11,-89.26 338.96,-82.51"/>
</g>
<!-- Node10 -->
<g id="node10" class="node">
<title>Node10</title>
<g id="a_node10"><a xlink:href="PosixCompat_8h.html" target="_top" xlink:title=" ">
<polygon fill="none" stroke="black" points="881.17,-60.5 881.17,-83.5 1001.17,-83.5 1001.17,-60.5 881.17,-60.5"/>
<text text-anchor="middle" x="941.17" y="-68.3" font-family="Helvetica,sans-Serif" font-size="14.00">PosixCompat.h</text>
</a>
</g>
</g>
<!-- Node4&#45;&gt;Node10 -->
<g id="edge9" class="edge">
<title>Node4&#45;&gt;Node10</title>
<path fill="none" stroke="midnightblue" d="M542.3,-125.7C616.86,-115.85 777.66,-94.6 870.72,-82.31"/>
<polygon fill="midnightblue" stroke="midnightblue" points="871.44,-85.74 880.89,-80.96 870.52,-78.8 871.44,-85.74"/>
</g>
<!-- Node4&#45;&gt;Node13 -->
<g id="edge12" class="edge">
<title>Node4&#45;&gt;Node13</title>
<path fill="none" stroke="midnightblue" d="M462.14,-122.44C457.44,-121.56 452.71,-120.72 448.17,-120 312.27,-98.43 273.74,-107.96 134.46,-84.05"/>
<polygon fill="midnightblue" stroke="midnightblue" points="134.7,-80.54 124.25,-82.27 133.5,-87.44 134.7,-80.54"/>
</g>
<!-- Node15 -->
<g id="node15" class="node">
<title>Node15</title>
<g id="a_node15"><a xlink:title=" ">
<polygon fill="none" stroke="#bfbfbf" points="409.17,-0.5 409.17,-23.5 479.17,-23.5 479.17,-0.5 409.17,-0.5"/>
<text text-anchor="middle" x="444.17" y="-8.3" font-family="Helvetica,sans-Serif" font-size="14.00">QString</text>
</a>
</g>
</g>
<!-- Node4&#45;&gt;Node15 -->
<g id="edge15" class="edge">
<title>Node4&#45;&gt;Node15</title>
<path fill="none" stroke="midnightblue" d="M491.05,-120.41C482.29,-111.47 470.38,-97.94 463.17,-84 454.96,-68.1 450.04,-48.31 447.27,-33.67"/>
<polygon fill="midnightblue" stroke="midnightblue" points="450.69,-32.89 445.56,-23.62 443.79,-34.07 450.69,-32.89"/>
</g>
<!-- Node16 -->
<g id="node16" class="node">
<title>Node16</title>
<g id="a_node16"><a xlink:title=" ">
<polygon fill="none" stroke="#bfbfbf" points="142.17,-60.5 142.17,-83.5 236.17,-83.5 236.17,-60.5 142.17,-60.5"/>
<text text-anchor="middle" x="189.17" y="-68.3" font-family="Helvetica,sans-Serif" font-size="14.00">QStringList</text>
</a>
</g>
</g>
<!-- Node4&#45;&gt;Node16 -->
<g id="edge16" class="edge">
<title>Node4&#45;&gt;Node16</title>
<path fill="none" stroke="midnightblue" d="M462.09,-122.72C457.4,-121.78 452.69,-120.86 448.17,-120 361.24,-103.44 336.89,-100.99 246.11,-84.15"/>
<polygon fill="midnightblue" stroke="midnightblue" points="246.69,-80.7 236.22,-82.31 245.41,-87.58 246.69,-80.7"/>
</g>
<!-- Node11 -->
<g id="node11" class="node">
<title>Node11</title>
<g id="a_node11"><a xlink:title=" ">
<polygon fill="none" stroke="#bfbfbf" points="855.67,-0.5 855.67,-23.5 932.67,-23.5 932.67,-0.5 855.67,-0.5"/>
<text text-anchor="middle" x="894.17" y="-8.3" font-family="Helvetica,sans-Serif" font-size="14.00">QtGlobal</text>
</a>
</g>
</g>
<!-- Node10&#45;&gt;Node11 -->
<g id="edge10" class="edge">
<title>Node10&#45;&gt;Node11</title>
<path fill="none" stroke="midnightblue" d="M932.55,-60.36C925.99,-52.27 916.81,-40.93 909.07,-31.38"/>
<polygon fill="midnightblue" stroke="midnightblue" points="911.76,-29.14 902.74,-23.57 906.32,-33.54 911.76,-29.14"/>
</g>
<!-- Node12 -->
<g id="node12" class="node">
<title>Node12</title>
<g id="a_node12"><a xlink:title=" ">
<polygon fill="none" stroke="#bfbfbf" points="951.17,-0.5 951.17,-23.5 1025.17,-23.5 1025.17,-0.5 951.17,-0.5"/>
<text text-anchor="middle" x="988.17" y="-8.3" font-family="Helvetica,sans-Serif" font-size="14.00">unistd.h</text>
</a>
</g>
</g>
<!-- Node10&#45;&gt;Node12 -->
<g id="edge11" class="edge">
<title>Node10&#45;&gt;Node12</title>
<path fill="none" stroke="midnightblue" d="M949.79,-60.36C956.35,-52.27 965.54,-40.93 973.28,-31.38"/>
<polygon fill="midnightblue" stroke="midnightblue" points="976.03,-33.54 979.61,-23.57 970.59,-29.14 976.03,-33.54"/>
</g>
<!-- Node14 -->
<g id="node14" class="node">
<title>Node14</title>
<g id="a_node14"><a xlink:title=" ">
<polygon fill="none" stroke="#bfbfbf" points="50.17,-0.5 50.17,-23.5 124.17,-23.5 124.17,-0.5 50.17,-0.5"/>
<text text-anchor="middle" x="87.17" y="-8.3" font-family="Helvetica,sans-Serif" font-size="14.00">QDebug</text>
</a>
</g>
</g>
<!-- Node13&#45;&gt;Node14 -->
<g id="edge13" class="edge">
<title>Node13&#45;&gt;Node14</title>
<path fill="none" stroke="midnightblue" d="M87.17,-60.36C87.17,-52.92 87.17,-42.74 87.17,-33.73"/>
<polygon fill="midnightblue" stroke="midnightblue" points="90.67,-33.57 87.17,-23.57 83.67,-33.57 90.67,-33.57"/>
</g>
<!-- Node13&#45;&gt;Node15 -->
<g id="edge14" class="edge">
<title>Node13&#45;&gt;Node15</title>
<path fill="none" stroke="midnightblue" d="M124.27,-61.84C127.28,-61.19 130.27,-60.57 133.17,-60 227.16,-41.69 338.31,-26.41 399.01,-18.6"/>
<polygon fill="midnightblue" stroke="midnightblue" points="399.55,-22.06 409.03,-17.32 398.66,-15.12 399.55,-22.06"/>
</g>
<!-- Node17&#45;&gt;Node4 -->
<g id="edge24" class="edge">
<title>Node17&#45;&gt;Node4</title>
<path fill="none" stroke="midnightblue" d="M588.73,-180.36C572.37,-171.41 548.76,-158.49 530.33,-148.41"/>
<polygon fill="midnightblue" stroke="midnightblue" points="531.95,-145.3 521.49,-143.57 528.59,-151.44 531.95,-145.3"/>
</g>
<!-- Node17&#45;&gt;Node5 -->
<g id="edge18" class="edge">
<title>Node17&#45;&gt;Node5</title>
<path fill="none" stroke="midnightblue" d="M621.22,-180.44C632.15,-171.31 647.89,-157.5 660.17,-144 675.27,-127.42 690.35,-106.71 700.55,-91.94"/>
<polygon fill="midnightblue" stroke="midnightblue" points="703.49,-93.84 706.22,-83.6 697.7,-89.9 703.49,-93.84"/>
</g>
<!-- Node17&#45;&gt;Node6 -->
<g id="edge20" class="edge">
<title>Node17&#45;&gt;Node6</title>
<path fill="none" stroke="midnightblue" d="M599.77,-180.34C588.73,-166.38 568.7,-141.2 551.17,-120 543.31,-110.49 534.43,-100.02 527.03,-91.38"/>
<polygon fill="midnightblue" stroke="midnightblue" points="529.65,-89.06 520.48,-83.75 524.34,-93.62 529.65,-89.06"/>
</g>
<!-- Node17&#45;&gt;Node8 -->
<g id="edge19" class="edge">
<title>Node17&#45;&gt;Node8</title>
<path fill="none" stroke="midnightblue" d="M607.25,-180.11C605.59,-160.52 602.07,-119.02 599.94,-93.82"/>
<polygon fill="midnightblue" stroke="midnightblue" points="603.4,-93.19 599.07,-83.52 596.42,-93.78 603.4,-93.19"/>
</g>
<!-- Node17&#45;&gt;Node10 -->
<g id="edge23" class="edge">
<title>Node17&#45;&gt;Node10</title>
<path fill="none" stroke="midnightblue" d="M644.1,-181.55C646.82,-180.98 649.54,-180.45 652.17,-180 694.31,-172.8 1006.4,-175.61 1035.17,-144 1056.16,-120.94 1018.82,-100.17 985.17,-87.14"/>
<polygon fill="midnightblue" stroke="midnightblue" points="985.97,-83.7 975.38,-83.51 983.54,-90.26 985.97,-83.7"/>
</g>
<!-- Node17&#45;&gt;Node13 -->
<g id="edge27" class="edge">
<title>Node17&#45;&gt;Node13</title>
<path fill="none" stroke="midnightblue" d="M572.63,-182.55C540.71,-174.41 492.9,-160.88 453.17,-144 433.03,-135.44 430.96,-126.87 410.17,-120 295.41,-82.07 257.28,-105.17 134.43,-84.04"/>
<polygon fill="midnightblue" stroke="midnightblue" points="134.72,-80.54 124.26,-82.22 133.49,-87.43 134.72,-80.54"/>
</g>
<!-- Node17&#45;&gt;Node15 -->
<g id="edge28" class="edge">
<title>Node17&#45;&gt;Node15</title>
<path fill="none" stroke="midnightblue" d="M615.86,-180.2C632.07,-155.98 665.96,-96.63 637.17,-60 619.14,-37.04 540.52,-23.89 489.35,-17.62"/>
<polygon fill="midnightblue" stroke="midnightblue" points="489.54,-14.12 479.2,-16.42 488.72,-21.07 489.54,-14.12"/>
</g>
<!-- Node18 -->
<g id="node18" class="node">
<title>Node18</title>
<g id="a_node18"><a xlink:title=" ">
<polygon fill="none" stroke="#bfbfbf" points="870.17,-120.5 870.17,-143.5 936.17,-143.5 936.17,-120.5 870.17,-120.5"/>
<text text-anchor="middle" x="903.17" y="-128.3" font-family="Helvetica,sans-Serif" font-size="14.00">math.h</text>
</a>
</g>
</g>
<!-- Node17&#45;&gt;Node18 -->
<g id="edge21" class="edge">
<title>Node17&#45;&gt;Node18</title>
<path fill="none" stroke="midnightblue" d="M644.14,-181.78C646.85,-181.15 649.55,-180.55 652.17,-180 741.34,-161.2 767.34,-163.76 859.98,-144.13"/>
<polygon fill="midnightblue" stroke="midnightblue" points="860.72,-147.55 869.77,-142.03 859.25,-140.7 860.72,-147.55"/>
</g>
<!-- Node19 -->
<g id="node19" class="node">
<title>Node19</title>
<g id="a_node19"><a xlink:title=" ">
<polygon fill="none" stroke="#bfbfbf" points="954.17,-120.5 954.17,-143.5 1026.17,-143.5 1026.17,-120.5 954.17,-120.5"/>
<text text-anchor="middle" x="990.17" y="-128.3" font-family="Helvetica,sans-Serif" font-size="14.00">sstream</text>
</a>
</g>
</g>
<!-- Node17&#45;&gt;Node19 -->
<g id="edge22" class="edge">
<title>Node17&#45;&gt;Node19</title>
<path fill="none" stroke="midnightblue" d="M644.11,-181.63C646.83,-181.04 649.54,-180.49 652.17,-180 778.02,-156.63 814.35,-167.07 943.99,-144.05"/>
<polygon fill="midnightblue" stroke="midnightblue" points="944.69,-147.48 953.9,-142.25 943.44,-140.59 944.69,-147.48"/>
</g>
<!-- Node20 -->
<g id="node20" class="node">
<title>Node20</title>
<g id="a_node20"><a xlink:href="DriverDefinition_8h.html" target="_top" xlink:title="Driver implementation for Definition.">
<polygon fill="none" stroke="black" points="712.17,-120.5 712.17,-143.5 852.17,-143.5 852.17,-120.5 712.17,-120.5"/>
<text text-anchor="middle" x="782.17" y="-128.3" font-family="Helvetica,sans-Serif" font-size="14.00">DriverDefinition.h</text>
</a>
</g>
</g>
<!-- Node17&#45;&gt;Node20 -->
<g id="edge25" class="edge">
<title>Node17&#45;&gt;Node20</title>
<path fill="none" stroke="midnightblue" d="M639.68,-180.5C668.05,-171.04 709.93,-157.08 740.95,-146.74"/>
<polygon fill="midnightblue" stroke="midnightblue" points="742.23,-150.01 750.61,-143.52 740.01,-143.37 742.23,-150.01"/>
</g>
<!-- Node20&#45;&gt;Node5 -->
<g id="edge26" class="edge">
<title>Node20&#45;&gt;Node5</title>
<path fill="none" stroke="midnightblue" d="M769.52,-120.36C759.5,-111.94 745.31,-100.01 733.67,-90.23"/>
<polygon fill="midnightblue" stroke="midnightblue" points="735.66,-87.33 725.75,-83.57 731.15,-92.68 735.66,-87.33"/>
</g>
<!-- Node23&#45;&gt;Node13 -->
<g id="edge37" class="edge">
<title>Node23&#45;&gt;Node13</title>
<path fill="none" stroke="midnightblue" d="M171.3,-187.92C122.64,-182.35 31.6,-168.82 12.17,-144 -4.63,-122.53 24.99,-101.51 51.82,-87.99"/>
<polygon fill="midnightblue" stroke="midnightblue" points="53.61,-91.01 61.11,-83.53 50.58,-84.7 53.61,-91.01"/>
</g>
<!-- Node23&#45;&gt;Node21 -->
<g id="edge36" class="edge">
<title>Node23&#45;&gt;Node21</title>
<path fill="none" stroke="midnightblue" d="M227.17,-180.5C249.11,-171.27 281.24,-157.77 305.64,-147.52"/>
<polygon fill="midnightblue" stroke="midnightblue" points="307.04,-150.72 314.9,-143.62 304.33,-144.27 307.04,-150.72"/>
</g>
<!-- Node24 -->
<g id="node24" class="node">
<title>Node24</title>
<g id="a_node24"><a xlink:title=" ">
<polygon fill="none" stroke="#bfbfbf" points="21.17,-120.5 21.17,-143.5 115.17,-143.5 115.17,-120.5 21.17,-120.5"/>
<text text-anchor="middle" x="68.17" y="-128.3" font-family="Helvetica,sans-Serif" font-size="14.00">QDateTime</text>
</a>
</g>
</g>
<!-- Node23&#45;&gt;Node24 -->
<g id="edge33" class="edge">
<title>Node23&#45;&gt;Node24</title>
<path fill="none" stroke="midnightblue" d="M177.91,-180.5C156.7,-171.32 125.68,-157.89 102.02,-147.65"/>
<polygon fill="midnightblue" stroke="midnightblue" points="103.28,-144.38 92.71,-143.62 100.5,-150.81 103.28,-144.38"/>
</g>
<!-- Node25 -->
<g id="node25" class="node">
<title>Node25</title>
<g id="a_node25"><a xlink:title=" ">
<polygon fill="none" stroke="#bfbfbf" points="133.17,-120.5 133.17,-143.5 181.17,-143.5 181.17,-120.5 133.17,-120.5"/>
<text text-anchor="middle" x="157.17" y="-128.3" font-family="Helvetica,sans-Serif" font-size="14.00">QDir</text>
</a>
</g>
</g>
<!-- Node23&#45;&gt;Node25 -->
<g id="edge34" class="edge">
<title>Node23&#45;&gt;Node25</title>
<path fill="none" stroke="midnightblue" d="M193.92,-180.36C187.7,-172.35 179.02,-161.16 171.66,-151.67"/>
<polygon fill="midnightblue" stroke="midnightblue" points="174.27,-149.33 165.38,-143.57 168.74,-153.62 174.27,-149.33"/>
</g>
<!-- Node26 -->
<g id="node26" class="node">
<title>Node26</title>
<g id="a_node26"><a xlink:title=" ">
<polygon fill="none" stroke="#bfbfbf" points="199.67,-120.5 199.67,-143.5 294.67,-143.5 294.67,-120.5 199.67,-120.5"/>
<text text-anchor="middle" x="247.17" y="-128.3" font-family="Helvetica,sans-Serif" font-size="14.00">QTableView</text>
</a>
</g>
</g>
<!-- Node23&#45;&gt;Node26 -->
<g id="edge35" class="edge">
<title>Node23&#45;&gt;Node26</title>
<path fill="none" stroke="midnightblue" d="M210.43,-180.36C216.64,-172.35 225.33,-161.16 232.69,-151.67"/>
<polygon fill="midnightblue" stroke="midnightblue" points="235.61,-153.62 238.97,-143.57 230.08,-149.33 235.61,-153.62"/>
</g>
</g>
</svg>
        <g id="navigator" transform="translate(0 0)" fill="#404254">
                <rect fill="#f2f5e9" fill-opacity="0.5" stroke="#606060" stroke-width=".5" x="0" y="0" width="60" height="60"/>
                <use id="zoomplus" xlink:href="#zoomPlus" x="17" y="9" onmousedown="handleZoom(evt,'in')"/>
                <use id="zoomminus" xlink:href="#zoomMin" x="42" y="9" onmousedown="handleZoom(evt,'out')"/>
                <use id="reset" xlink:href="#resetDef" x="30" y="36" onmousedown="handleReset()"/>
                <g id="arrowUp" xlink:href="#dirArrow" transform="translate(30 24)" onmousedown="handlePan(0,-1)">
                  <use xlink:href="#rim" fill="#404040">
                        <set attributeName="fill" to="#808080" begin="arrowUp.mouseover" end="arrowUp.mouseout"/>
                  </use>
                  <path fill="none" stroke="white" stroke-width="1.5" d="M0,-3.0v7 M-2.5,-0.5L0,-3.0L2.5,-0.5"/>
                </g>
                <g id="arrowRight" xlink:href="#dirArrow" transform="rotate(90) translate(36 -43)" onmousedown="handlePan(1,0)">
                  <use xlink:href="#rim" fill="#404040">
                        <set attributeName="fill" to="#808080" begin="arrowRight.mouseover" end="arrowRight.mouseout"/>
                  </use>
                  <path fill="none" stroke="white" stroke-width="1.5" d="M0,-3.0v7 M-2.5,-0.5L0,-3.0L2.5,-0.5"/>
                </g>
                <g id="arrowDown" xlink:href="#dirArrow" transform="rotate(180) translate(-30 -48)" onmousedown="handlePan(0,1)">
                  <use xlink:href="#rim" fill="#404040">
                        <set attributeName="fill" to="#808080" begin="arrowDown.mouseover" end="arrowDown.mouseout"/>
                  </use>
                  <path fill="none" stroke="white" stroke-width="1.5" d="M0,-3.0v7 M-2.5,-0.5L0,-3.0L2.5,-0.5"/>
                </g>
                <g id="arrowLeft" xlink:href="#dirArrow" transform="rotate(270) translate(-36 17)" onmousedown="handlePan(-1,0)">
                  <use xlink:href="#rim" fill="#404040">
                        <set attributeName="fill" to="#808080" begin="arrowLeft.mouseover" end="arrowLeft.mouseout"/>
                  </use>
                  <path fill="none" stroke="white" stroke-width="1.5" d="M0,-3.0v7 M-2.5,-0.5L0,-3.0L2.5,-0.5"/>
                </g>
        </g>
        <svg viewBox="0 0 15 15" width="100%" height="30px" preserveAspectRatio="xMaxYMin meet">
         <g id="arrow_out" transform="scale(0.3 0.3)">
          <a xlink:href="MotorControlWidget_8cpp__incl_org.svg" target="_base">
           <rect id="button" ry="5" rx="5" y="6" x="6" height="38" width="38"
                fill="#f2f5e9" fill-opacity="0.5" stroke="#606060" stroke-width="1.0"/>
           <path id="arrow"
             d="M 11.500037,31.436501 C 11.940474,20.09759 22.043105,11.32322 32.158766,21.979434 L 37.068811,17.246167 C 37.068811,17.246167 37.088388,32 37.088388,32 L 22.160133,31.978069 C 22.160133,31.978069 26.997745,27.140456 26.997745,27.140456 C 18.528582,18.264221 13.291696,25.230495 11.500037,31.436501 z"
             style="fill:#404040;"/>
          </a>
         </g>
        </svg>
</svg>
