<?xml version="1.0" encoding="UTF-8" standalone="no"?>
<!DOCTYPE svg PUBLIC "-//W3C//DTD SVG 1.1//EN"
 "http://www.w3.org/Graphics/SVG/1.1/DTD/svg11.dtd">
<!-- Generated by graphviz version 2.50.0 (0)
 -->
<!-- Title: Motor.h Pages: 1 -->
<!--zoomable 272 -->
<svg id="main" version="1.1" xmlns="http://www.w3.org/2000/svg" xmlns:xlink="http://www.w3.org/1999/xlink" xml:space="preserve" onload="init(evt)">
<style><![CDATA[
text { fill: #e6e6e6 !important; }
polygon { fill: #2f2f2f !important; stroke: #9aa0a6 !important; }
path, line, polyline { stroke: #4e67d6 !important; }
]]></style>
<style><![CDATA[
text { fill: #e6e6e6 !important; }
polygon { fill: #2f2f2f !important; stroke: #9aa0a6 !important; }
path, line, polyline { stroke: #4e67d6 !important; }
]]></style>
<style><![CDATA[
text { fill: #e6e6e6 !important; }
polygon { fill: #2f2f2f !important; stroke: #9aa0a6 !important; }
path, line, polyline { stroke: #4e67d6 !important; }
]]></style>
<style><![CDATA[
text { fill: #e6e6e6 !important; }
polygon { fill: #2f2f2f !important; stroke: #9aa0a6 !important; }
path, line, polyline { stroke: #4e67d6 !important; }
]]></style>
<style><![CDATA[
text { fill: #e6e6e6 !important; }
polygon { fill: #2f2f2f !important; stroke: #9aa0a6 !important; }
path, line, polyline { stroke: #4e67d6 !important; }
]]></style>
<style><![CDATA[
text { fill: #e6e6e6 !important; }
polygon { fill: #2f2f2f !important; stroke: #9aa0a6 !important; }
path, line, polyline { stroke: #4e67d6 !important; }
]]></style>
<style><![CDATA[
text { fill: #e6e6e6 !important; }
polygon { fill: #2f2f2f !important; stroke: #9aa0a6 !important; }
path, line, polyline { stroke: #4e67d6 !important; }
]]></style>
<style type="text/css"><![CDATA[
.edge:hover path { stroke: red; }
.edge:hover polygon { stroke: red; fill: red; }
]]></style>
<script type="text/javascript"><![CDATA[
var edges = document.getElementsByTagName('g');
if (edges && edges.length) {
  for (var i=0;i<edges.length;i++) {
    if (edges[i].id.substr(0,4)=='edge') {
      edges[i].setAttribute('class','edge');
    }
  }
}
]]></script>
        <defs>
                <circle id="rim" cx="0" cy="0" r="7"/>
                <circle id="rim2" cx="0" cy="0" r="3.5"/>
                <g id="zoomPlus">
                        <use xlink:href="#rim" fill="#404040">
                                <set attributeName="fill" to="#808080" begin="zoomplus.mouseover" end="zoomplus.mouseout"/>
                        </use>
                        <path d="M-4,0h8M0,-4v8" fill="none" stroke="white" stroke-width="1.5" pointer-events="none"/>
                </g>
                <g id="zoomMin">
                        <use xlink:href="#rim" fill="#404040">
                                <set attributeName="fill" to="#808080" begin="zoomminus.mouseover" end="zoomminus.mouseout"/>
                        </use>
                        <path d="M-4,0h8" fill="none" stroke="white" stroke-width="1.5" pointer-events="none"/>
                </g>
                <g id="dirArrow">
                        <path fill="none" stroke="white" stroke-width="1.5" d="M0,-3.0v7 M-2.5,-0.5L0,-3.0L2.5,-0.5"/>
                </g>
               <g id="resetDef">
                       <use xlink:href="#rim2" fill="#404040">
                               <set attributeName="fill" to="#808080" begin="reset.mouseover" end="reset.mouseout"/>
                       </use>
               </g>
        </defs>

<script type="text/javascript">
var viewWidth = 1167;
var viewHeight = 272;
var sectionId = 'dynsection-0';
</script>
<script xlink:href="svgpan.js"/>
<svg id="graph" class="graph">
<g id="viewport">
<title>Motor.h</title>
<!-- Node1 -->
<g id="node1" class="node">
<title>Node1</title>
<g id="a_node1"><a xlink:title="Motor device interface.">
<polygon fill="#bfbfbf" stroke="black" points="737,-240.5 737,-263.5 805,-263.5 805,-240.5 737,-240.5"/>
<text text-anchor="middle" x="771" y="-248.3" font-family="Helvetica,sans-Serif" font-size="14.00">Motor.h</text>
</a>
</g>
</g>
<!-- Node2 -->
<g id="node2" class="node">
<title>Node2</title>
<g id="a_node2"><a xlink:href="ACCom_8h.html" target="_top" xlink:title="AC communication backend for AC Com.">
<polygon fill="none" stroke="black" points="522,-120.5 522,-143.5 602,-143.5 602,-120.5 522,-120.5"/>
<text text-anchor="middle" x="562" y="-128.3" font-family="Helvetica,sans-Serif" font-size="14.00">ACCom.h</text>
</a>
</g>
</g>
<!-- Node1&#45;&gt;Node2 -->
<g id="edge1" class="edge">
<title>Node1&#45;&gt;Node2</title>
<path fill="none" stroke="midnightblue" d="M752.08,-240.32C715.01,-219.39 632.67,-172.9 589.55,-148.55"/>
<polygon fill="midnightblue" stroke="midnightblue" points="591.15,-145.44 580.72,-143.57 587.71,-151.53 591.15,-145.44"/>
</g>
<!-- Node11 -->
<g id="node11" class="node">
<title>Node11</title>
<g id="a_node11"><a xlink:href="QsLog_8h.html" target="_top" xlink:title="Qs Log logging support.">
<polygon fill="none" stroke="black" points="846,-60.5 846,-83.5 920,-83.5 920,-60.5 846,-60.5"/>
<text text-anchor="middle" x="883" y="-68.3" font-family="Helvetica,sans-Serif" font-size="14.00">QsLog.h</text>
</a>
</g>
</g>
<!-- Node1&#45;&gt;Node11 -->
<g id="edge29" class="edge">
<title>Node1&#45;&gt;Node11</title>
<path fill="none" stroke="midnightblue" d="M766.6,-240.35C757.48,-216.44 739.44,-157.69 765,-120 773.53,-107.42 807.12,-94.75 836.29,-85.74"/>
<polygon fill="midnightblue" stroke="midnightblue" points="837.4,-89.06 845.97,-82.83 835.38,-82.36 837.4,-89.06"/>
</g>
<!-- Node15 -->
<g id="node15" class="node">
<title>Node15</title>
<g id="a_node15"><a xlink:href="Driver_8h.html" target="_top" xlink:title="Driver implementation for .">
<polygon fill="none" stroke="black" points="336.5,-180.5 336.5,-203.5 407.5,-203.5 407.5,-180.5 336.5,-180.5"/>
<text text-anchor="middle" x="372" y="-188.3" font-family="Helvetica,sans-Serif" font-size="14.00">Driver.h</text>
</a>
</g>
</g>
<!-- Node1&#45;&gt;Node15 -->
<g id="edge15" class="edge">
<title>Node1&#45;&gt;Node15</title>
<path fill="none" stroke="midnightblue" d="M736.98,-246.05C665.38,-235.65 499.06,-211.47 418.03,-199.69"/>
<polygon fill="midnightblue" stroke="midnightblue" points="418.04,-196.16 407.64,-198.18 417.04,-203.08 418.04,-196.16"/>
</g>
<!-- Node19 -->
<g id="node19" class="node">
<title>Node19</title>
<g id="a_node19"><a xlink:title=" ">
<polygon fill="none" stroke="#bfbfbf" points="773.5,-120.5 773.5,-143.5 828.5,-143.5 828.5,-120.5 773.5,-120.5"/>
<text text-anchor="middle" x="801" y="-128.3" font-family="Helvetica,sans-Serif" font-size="14.00">QtSql</text>
</a>
</g>
</g>
<!-- Node1&#45;&gt;Node19 -->
<g id="edge27" class="edge">
<title>Node1&#45;&gt;Node19</title>
<path fill="none" stroke="midnightblue" d="M773.77,-240.11C778.77,-220.43 789.39,-178.65 795.79,-153.48"/>
<polygon fill="midnightblue" stroke="midnightblue" points="799.25,-154.08 798.32,-143.52 792.47,-152.35 799.25,-154.08"/>
</g>
<!-- Node20 -->
<g id="node20" class="node">
<title>Node20</title>
<g id="a_node20"><a xlink:title=" ">
<polygon fill="none" stroke="#bfbfbf" points="905.5,-180.5 905.5,-203.5 994.5,-203.5 994.5,-180.5 905.5,-180.5"/>
<text text-anchor="middle" x="950" y="-188.3" font-family="Helvetica,sans-Serif" font-size="14.00">QtWidgets</text>
</a>
</g>
</g>
<!-- Node1&#45;&gt;Node20 -->
<g id="edge28" class="edge">
<title>Node1&#45;&gt;Node20</title>
<path fill="none" stroke="midnightblue" d="M803.42,-240.5C832.72,-231 876.05,-216.96 908,-206.61"/>
<polygon fill="midnightblue" stroke="midnightblue" points="909.09,-209.94 917.52,-203.52 906.93,-203.28 909.09,-209.94"/>
</g>
<!-- Node21 -->
<g id="node21" class="node">
<title>Node21</title>
<g id="a_node21"><a xlink:href="Utils_8h.html" target="_top" xlink:title="Utility helpers.">
<polygon fill="none" stroke="black" points="826.5,-180.5 826.5,-203.5 887.5,-203.5 887.5,-180.5 826.5,-180.5"/>
<text text-anchor="middle" x="857" y="-188.3" font-family="Helvetica,sans-Serif" font-size="14.00">Utils.h</text>
</a>
</g>
</g>
<!-- Node1&#45;&gt;Node21 -->
<g id="edge30" class="edge">
<title>Node1&#45;&gt;Node21</title>
<path fill="none" stroke="midnightblue" d="M786.77,-240.36C799.62,-231.7 817.98,-219.31 832.71,-209.38"/>
<polygon fill="midnightblue" stroke="midnightblue" points="834.99,-212.06 841.33,-203.57 831.08,-206.26 834.99,-212.06"/>
</g>
<!-- Node3 -->
<g id="node3" class="node">
<title>Node3</title>
<g id="a_node3"><a xlink:title=" ">
<polygon fill="none" stroke="#bfbfbf" points="128.5,-60.5 128.5,-83.5 185.5,-83.5 185.5,-60.5 128.5,-60.5"/>
<text text-anchor="middle" x="157" y="-68.3" font-family="Helvetica,sans-Serif" font-size="14.00">string</text>
</a>
</g>
</g>
<!-- Node2&#45;&gt;Node3 -->
<g id="edge2" class="edge">
<title>Node2&#45;&gt;Node3</title>
<path fill="none" stroke="midnightblue" d="M521.96,-121.64C518.93,-121.05 515.92,-120.49 513,-120 375.89,-96.92 336.25,-111.2 195.38,-83.77"/>
<polygon fill="midnightblue" stroke="midnightblue" points="196,-80.32 185.51,-81.81 194.63,-87.19 196,-80.32"/>
</g>
<!-- Node4 -->
<g id="node4" class="node">
<title>Node4</title>
<g id="a_node4"><a xlink:title=" ">
<polygon fill="none" stroke="#bfbfbf" points="420.5,-60.5 420.5,-83.5 497.5,-83.5 497.5,-60.5 420.5,-60.5"/>
<text text-anchor="middle" x="459" y="-68.3" font-family="Helvetica,sans-Serif" font-size="14.00">iostream</text>
</a>
</g>
</g>
<!-- Node2&#45;&gt;Node4 -->
<g id="edge3" class="edge">
<title>Node2&#45;&gt;Node4</title>
<path fill="none" stroke="midnightblue" d="M543.11,-120.36C527.28,-111.45 504.48,-98.61 486.61,-88.54"/>
<polygon fill="midnightblue" stroke="midnightblue" points="488.2,-85.43 477.77,-83.57 484.77,-91.53 488.2,-85.43"/>
</g>
<!-- Node5 -->
<g id="node5" class="node">
<title>Node5</title>
<g id="a_node5"><a xlink:title=" ">
<polygon fill="none" stroke="#bfbfbf" points="554,-60.5 554,-83.5 624,-83.5 624,-60.5 554,-60.5"/>
<text text-anchor="middle" x="589" y="-68.3" font-family="Helvetica,sans-Serif" font-size="14.00">fstream</text>
</a>
</g>
</g>
<!-- Node2&#45;&gt;Node5 -->
<g id="edge4" class="edge">
<title>Node2&#45;&gt;Node5</title>
<path fill="none" stroke="midnightblue" d="M566.95,-120.36C570.53,-112.68 575.47,-102.07 579.76,-92.84"/>
<polygon fill="midnightblue" stroke="midnightblue" points="583.03,-94.11 584.08,-83.57 576.69,-91.16 583.03,-94.11"/>
</g>
<!-- Node6 -->
<g id="node6" class="node">
<title>Node6</title>
<g id="a_node6"><a xlink:title=" ">
<polygon fill="none" stroke="#bfbfbf" points="342,-60.5 342,-83.5 402,-83.5 402,-60.5 342,-60.5"/>
<text text-anchor="middle" x="372" y="-68.3" font-family="Helvetica,sans-Serif" font-size="14.00">vector</text>
</a>
</g>
</g>
<!-- Node2&#45;&gt;Node6 -->
<g id="edge5" class="edge">
<title>Node2&#45;&gt;Node6</title>
<path fill="none" stroke="midnightblue" d="M527.59,-120.5C494.99,-110.54 446.04,-95.6 411.77,-85.14"/>
<polygon fill="midnightblue" stroke="midnightblue" points="412.67,-81.76 402.08,-82.18 410.63,-88.45 412.67,-81.76"/>
</g>
<!-- Node7 -->
<g id="node7" class="node">
<title>Node7</title>
<g id="a_node7"><a xlink:title=" ">
<polygon fill="none" stroke="#bfbfbf" points="642,-60.5 642,-83.5 716,-83.5 716,-60.5 642,-60.5"/>
<text text-anchor="middle" x="679" y="-68.3" font-family="Helvetica,sans-Serif" font-size="14.00">stdarg.h</text>
</a>
</g>
</g>
<!-- Node2&#45;&gt;Node7 -->
<g id="edge6" class="edge">
<title>Node2&#45;&gt;Node7</title>
<path fill="none" stroke="midnightblue" d="M583.19,-120.5C601.46,-111.44 628.07,-98.25 648.61,-88.06"/>
<polygon fill="midnightblue" stroke="midnightblue" points="650.17,-91.2 657.57,-83.62 647.06,-84.93 650.17,-91.2"/>
</g>
<!-- Node8 -->
<g id="node8" class="node">
<title>Node8</title>
<g id="a_node8"><a xlink:href="PosixCompat_8h.html" target="_top" xlink:title=" ">
<polygon fill="none" stroke="black" points="204,-60.5 204,-83.5 324,-83.5 324,-60.5 204,-60.5"/>
<text text-anchor="middle" x="264" y="-68.3" font-family="Helvetica,sans-Serif" font-size="14.00">PosixCompat.h</text>
</a>
</g>
</g>
<!-- Node2&#45;&gt;Node8 -->
<g id="edge7" class="edge">
<title>Node2&#45;&gt;Node8</title>
<path fill="none" stroke="midnightblue" d="M521.91,-121.88C518.9,-121.23 515.9,-120.6 513,-120 452.34,-107.47 383.08,-94.51 333.04,-85.37"/>
<polygon fill="midnightblue" stroke="midnightblue" points="333.44,-81.89 322.97,-83.54 332.19,-88.78 333.44,-81.89"/>
</g>
<!-- Node2&#45;&gt;Node11 -->
<g id="edge10" class="edge">
<title>Node2&#45;&gt;Node11</title>
<path fill="none" stroke="midnightblue" d="M602.23,-124.97C654,-117.02 746.94,-102.13 835.9,-84.13"/>
<polygon fill="midnightblue" stroke="midnightblue" points="836.79,-87.52 845.89,-82.09 835.39,-80.66 836.79,-87.52"/>
</g>
<!-- Node13 -->
<g id="node13" class="node">
<title>Node13</title>
<g id="a_node13"><a xlink:title=" ">
<polygon fill="none" stroke="#bfbfbf" points="491,-0.5 491,-23.5 561,-23.5 561,-0.5 491,-0.5"/>
<text text-anchor="middle" x="526" y="-8.3" font-family="Helvetica,sans-Serif" font-size="14.00">QString</text>
</a>
</g>
</g>
<!-- Node2&#45;&gt;Node13 -->
<g id="edge13" class="edge">
<title>Node2&#45;&gt;Node13</title>
<path fill="none" stroke="midnightblue" d="M557.82,-120.26C554.2,-110.79 548.95,-96.58 545,-84 539.7,-67.12 534.57,-47.7 530.98,-33.44"/>
<polygon fill="midnightblue" stroke="midnightblue" points="534.36,-32.53 528.55,-23.67 527.56,-34.22 534.36,-32.53"/>
</g>
<!-- Node14 -->
<g id="node14" class="node">
<title>Node14</title>
<g id="a_node14"><a xlink:title=" ">
<polygon fill="none" stroke="#bfbfbf" points="734,-60.5 734,-83.5 828,-83.5 828,-60.5 734,-60.5"/>
<text text-anchor="middle" x="781" y="-68.3" font-family="Helvetica,sans-Serif" font-size="14.00">QStringList</text>
</a>
</g>
</g>
<!-- Node2&#45;&gt;Node14 -->
<g id="edge14" class="edge">
<title>Node2&#45;&gt;Node14</title>
<path fill="none" stroke="midnightblue" d="M601.66,-120.5C638.06,-110.86 692.13,-96.54 731.38,-86.14"/>
<polygon fill="midnightblue" stroke="midnightblue" points="732.5,-89.47 741.27,-83.52 730.7,-82.7 732.5,-89.47"/>
</g>
<!-- Node9 -->
<g id="node9" class="node">
<title>Node9</title>
<g id="a_node9"><a xlink:title=" ">
<polygon fill="none" stroke="#bfbfbf" points="178.5,-0.5 178.5,-23.5 255.5,-23.5 255.5,-0.5 178.5,-0.5"/>
<text text-anchor="middle" x="217" y="-8.3" font-family="Helvetica,sans-Serif" font-size="14.00">QtGlobal</text>
</a>
</g>
</g>
<!-- Node8&#45;&gt;Node9 -->
<g id="edge8" class="edge">
<title>Node8&#45;&gt;Node9</title>
<path fill="none" stroke="midnightblue" d="M255.38,-60.36C248.82,-52.27 239.63,-40.93 231.89,-31.38"/>
<polygon fill="midnightblue" stroke="midnightblue" points="234.58,-29.14 225.57,-23.57 229.14,-33.54 234.58,-29.14"/>
</g>
<!-- Node10 -->
<g id="node10" class="node">
<title>Node10</title>
<g id="a_node10"><a xlink:title=" ">
<polygon fill="none" stroke="#bfbfbf" points="274,-0.5 274,-23.5 348,-23.5 348,-0.5 274,-0.5"/>
<text text-anchor="middle" x="311" y="-8.3" font-family="Helvetica,sans-Serif" font-size="14.00">unistd.h</text>
</a>
</g>
</g>
<!-- Node8&#45;&gt;Node10 -->
<g id="edge9" class="edge">
<title>Node8&#45;&gt;Node10</title>
<path fill="none" stroke="midnightblue" d="M272.62,-60.36C279.18,-52.27 288.37,-40.93 296.11,-31.38"/>
<polygon fill="midnightblue" stroke="midnightblue" points="298.86,-33.54 302.43,-23.57 293.42,-29.14 298.86,-33.54"/>
</g>
<!-- Node12 -->
<g id="node12" class="node">
<title>Node12</title>
<g id="a_node12"><a xlink:title=" ">
<polygon fill="none" stroke="#bfbfbf" points="846,-0.5 846,-23.5 920,-23.5 920,-0.5 846,-0.5"/>
<text text-anchor="middle" x="883" y="-8.3" font-family="Helvetica,sans-Serif" font-size="14.00">QDebug</text>
</a>
</g>
</g>
<!-- Node11&#45;&gt;Node12 -->
<g id="edge11" class="edge">
<title>Node11&#45;&gt;Node12</title>
<path fill="none" stroke="midnightblue" d="M883,-60.36C883,-52.92 883,-42.74 883,-33.73"/>
<polygon fill="midnightblue" stroke="midnightblue" points="886.5,-33.57 883,-23.57 879.5,-33.57 886.5,-33.57"/>
</g>
<!-- Node11&#45;&gt;Node13 -->
<g id="edge12" class="edge">
<title>Node11&#45;&gt;Node13</title>
<path fill="none" stroke="midnightblue" d="M845.9,-61.84C842.9,-61.19 839.9,-60.57 837,-60 743.01,-41.69 631.86,-26.41 571.16,-18.6"/>
<polygon fill="midnightblue" stroke="midnightblue" points="571.51,-15.12 561.15,-17.32 570.62,-22.06 571.51,-15.12"/>
</g>
<!-- Node15&#45;&gt;Node2 -->
<g id="edge22" class="edge">
<title>Node15&#45;&gt;Node2</title>
<path fill="none" stroke="midnightblue" d="M406.41,-180.5C437.65,-170.96 483.9,-156.84 517.86,-146.48"/>
<polygon fill="midnightblue" stroke="midnightblue" points="518.99,-149.79 527.53,-143.52 516.94,-143.1 518.99,-149.79"/>
</g>
<!-- Node15&#45;&gt;Node3 -->
<g id="edge16" class="edge">
<title>Node15&#45;&gt;Node3</title>
<path fill="none" stroke="midnightblue" d="M336.23,-188.47C281.02,-183.75 179.1,-171.46 157,-144 145.76,-130.04 147.29,-109.02 150.71,-93.48"/>
<polygon fill="midnightblue" stroke="midnightblue" points="154.11,-94.3 153.24,-83.74 147.34,-92.54 154.11,-94.3"/>
</g>
<!-- Node15&#45;&gt;Node4 -->
<g id="edge18" class="edge">
<title>Node15&#45;&gt;Node4</title>
<path fill="none" stroke="midnightblue" d="M380.03,-180.11C394.86,-159.99 426.73,-116.76 445.13,-91.81"/>
<polygon fill="midnightblue" stroke="midnightblue" points="448.12,-93.65 451.24,-83.52 442.49,-89.5 448.12,-93.65"/>
</g>
<!-- Node15&#45;&gt;Node6 -->
<g id="edge17" class="edge">
<title>Node15&#45;&gt;Node6</title>
<path fill="none" stroke="midnightblue" d="M372,-180.11C372,-160.52 372,-119.02 372,-93.82"/>
<polygon fill="midnightblue" stroke="midnightblue" points="375.5,-93.52 372,-83.52 368.5,-93.52 375.5,-93.52"/>
</g>
<!-- Node15&#45;&gt;Node8 -->
<g id="edge21" class="edge">
<title>Node15&#45;&gt;Node8</title>
<path fill="none" stroke="midnightblue" d="M364.34,-180.49C353.81,-166.27 333.99,-140.33 315,-120 305.37,-109.69 293.87,-98.97 284.23,-90.38"/>
<polygon fill="midnightblue" stroke="midnightblue" points="286.47,-87.69 276.65,-83.71 281.85,-92.94 286.47,-87.69"/>
</g>
<!-- Node15&#45;&gt;Node11 -->
<g id="edge25" class="edge">
<title>Node15&#45;&gt;Node11</title>
<path fill="none" stroke="midnightblue" d="M407.78,-184.67C454.64,-176.22 539.27,-160.4 611,-144 690.5,-125.82 782.1,-101.13 836.14,-86.16"/>
<polygon fill="midnightblue" stroke="midnightblue" points="837.08,-89.54 845.78,-83.49 835.21,-82.79 837.08,-89.54"/>
</g>
<!-- Node15&#45;&gt;Node13 -->
<g id="edge26" class="edge">
<title>Node15&#45;&gt;Node13</title>
<path fill="none" stroke="midnightblue" d="M336.42,-187.63C280.14,-181.65 173.95,-167.56 145,-144 114.69,-119.33 93,-89.18 119,-60 130.94,-46.6 377.01,-25.12 480.63,-16.62"/>
<polygon fill="midnightblue" stroke="midnightblue" points="481.1,-20.1 490.79,-15.8 480.53,-13.12 481.1,-20.1"/>
</g>
<!-- Node16 -->
<g id="node16" class="node">
<title>Node16</title>
<g id="a_node16"><a xlink:title=" ">
<polygon fill="none" stroke="#bfbfbf" points="438,-120.5 438,-143.5 504,-143.5 504,-120.5 438,-120.5"/>
<text text-anchor="middle" x="471" y="-128.3" font-family="Helvetica,sans-Serif" font-size="14.00">math.h</text>
</a>
</g>
</g>
<!-- Node15&#45;&gt;Node16 -->
<g id="edge19" class="edge">
<title>Node15&#45;&gt;Node16</title>
<path fill="none" stroke="midnightblue" d="M390.16,-180.36C405.23,-171.53 426.89,-158.84 443.99,-148.82"/>
<polygon fill="midnightblue" stroke="midnightblue" points="446.1,-151.65 452.96,-143.57 442.56,-145.61 446.1,-151.65"/>
</g>
<!-- Node17 -->
<g id="node17" class="node">
<title>Node17</title>
<g id="a_node17"><a xlink:title=" ">
<polygon fill="none" stroke="#bfbfbf" points="0,-120.5 0,-143.5 72,-143.5 72,-120.5 0,-120.5"/>
<text text-anchor="middle" x="36" y="-128.3" font-family="Helvetica,sans-Serif" font-size="14.00">sstream</text>
</a>
</g>
</g>
<!-- Node15&#45;&gt;Node17 -->
<g id="edge20" class="edge">
<title>Node15&#45;&gt;Node17</title>
<path fill="none" stroke="midnightblue" d="M336.22,-185.75C281.96,-177.65 175.69,-161.22 86,-144 84.72,-143.75 83.43,-143.5 82.12,-143.24"/>
<polygon fill="midnightblue" stroke="midnightblue" points="82.5,-139.75 72,-141.16 81.09,-146.6 82.5,-139.75"/>
</g>
<!-- Node18 -->
<g id="node18" class="node">
<title>Node18</title>
<g id="a_node18"><a xlink:href="DriverDefinition_8h.html" target="_top" xlink:title="Driver implementation for Definition.">
<polygon fill="none" stroke="black" points="166,-120.5 166,-143.5 306,-143.5 306,-120.5 166,-120.5"/>
<text text-anchor="middle" x="236" y="-128.3" font-family="Helvetica,sans-Serif" font-size="14.00">DriverDefinition.h</text>
</a>
</g>
</g>
<!-- Node15&#45;&gt;Node18 -->
<g id="edge23" class="edge">
<title>Node15&#45;&gt;Node18</title>
<path fill="none" stroke="midnightblue" d="M347.37,-180.5C325.84,-171.32 294.36,-157.89 270.36,-147.65"/>
<polygon fill="midnightblue" stroke="midnightblue" points="271.48,-144.32 260.9,-143.62 268.73,-150.76 271.48,-144.32"/>
</g>
<!-- Node18&#45;&gt;Node3 -->
<g id="edge24" class="edge">
<title>Node18&#45;&gt;Node3</title>
<path fill="none" stroke="midnightblue" d="M221.51,-120.36C209.82,-111.78 193.16,-99.55 179.7,-89.66"/>
<polygon fill="midnightblue" stroke="midnightblue" points="181.53,-86.67 171.4,-83.57 177.39,-92.31 181.53,-86.67"/>
</g>
<!-- Node21&#45;&gt;Node11 -->
<g id="edge35" class="edge">
<title>Node21&#45;&gt;Node11</title>
<path fill="none" stroke="midnightblue" d="M859.4,-180.11C863.74,-160.43 872.94,-118.65 878.49,-93.48"/>
<polygon fill="midnightblue" stroke="midnightblue" points="881.95,-94.04 880.68,-83.52 875.11,-92.54 881.95,-94.04"/>
</g>
<!-- Node21&#45;&gt;Node19 -->
<g id="edge34" class="edge">
<title>Node21&#45;&gt;Node19</title>
<path fill="none" stroke="midnightblue" d="M846.73,-180.36C838.76,-172.1 827.53,-160.47 818.19,-150.8"/>
<polygon fill="midnightblue" stroke="midnightblue" points="820.67,-148.33 811.21,-143.57 815.63,-153.2 820.67,-148.33"/>
</g>
<!-- Node22 -->
<g id="node22" class="node">
<title>Node22</title>
<g id="a_node22"><a xlink:title=" ">
<polygon fill="none" stroke="#bfbfbf" points="885,-120.5 885,-143.5 979,-143.5 979,-120.5 885,-120.5"/>
<text text-anchor="middle" x="932" y="-128.3" font-family="Helvetica,sans-Serif" font-size="14.00">QDateTime</text>
</a>
</g>
</g>
<!-- Node21&#45;&gt;Node22 -->
<g id="edge31" class="edge">
<title>Node21&#45;&gt;Node22</title>
<path fill="none" stroke="midnightblue" d="M870.76,-180.36C881.75,-171.86 897.37,-159.78 910.09,-149.95"/>
<polygon fill="midnightblue" stroke="midnightblue" points="912.56,-152.46 918.33,-143.57 908.28,-146.92 912.56,-152.46"/>
</g>
<!-- Node23 -->
<g id="node23" class="node">
<title>Node23</title>
<g id="a_node23"><a xlink:title=" ">
<polygon fill="none" stroke="#bfbfbf" points="997,-120.5 997,-143.5 1045,-143.5 1045,-120.5 997,-120.5"/>
<text text-anchor="middle" x="1021" y="-128.3" font-family="Helvetica,sans-Serif" font-size="14.00">QDir</text>
</a>
</g>
</g>
<!-- Node21&#45;&gt;Node23 -->
<g id="edge32" class="edge">
<title>Node21&#45;&gt;Node23</title>
<path fill="none" stroke="midnightblue" d="M886.7,-180.5C915.06,-170.47 957.75,-155.37 987.36,-144.9"/>
<polygon fill="midnightblue" stroke="midnightblue" points="988.59,-148.17 996.85,-141.54 986.26,-141.57 988.59,-148.17"/>
</g>
<!-- Node24 -->
<g id="node24" class="node">
<title>Node24</title>
<g id="a_node24"><a xlink:title=" ">
<polygon fill="none" stroke="#bfbfbf" points="1063.5,-120.5 1063.5,-143.5 1158.5,-143.5 1158.5,-120.5 1063.5,-120.5"/>
<text text-anchor="middle" x="1111" y="-128.3" font-family="Helvetica,sans-Serif" font-size="14.00">QTableView</text>
</a>
</g>
</g>
<!-- Node21&#45;&gt;Node24 -->
<g id="edge33" class="edge">
<title>Node21&#45;&gt;Node24</title>
<path fill="none" stroke="midnightblue" d="M887.53,-182.43C890.72,-181.58 893.92,-180.76 897,-180 949.65,-166.99 1010.03,-153.89 1053.2,-144.84"/>
<polygon fill="midnightblue" stroke="midnightblue" points="1054.16,-148.22 1063.24,-142.74 1052.73,-141.36 1054.16,-148.22"/>
</g>
</g>
</svg>
        <g id="navigator" transform="translate(0 0)" fill="#404254">
                <rect fill="#f2f5e9" fill-opacity="0.5" stroke="#606060" stroke-width=".5" x="0" y="0" width="60" height="60"/>
                <use id="zoomplus" xlink:href="#zoomPlus" x="17" y="9" onmousedown="handleZoom(evt,'in')"/>
                <use id="zoomminus" xlink:href="#zoomMin" x="42" y="9" onmousedown="handleZoom(evt,'out')"/>
                <use id="reset" xlink:href="#resetDef" x="30" y="36" onmousedown="handleReset()"/>
                <g id="arrowUp" xlink:href="#dirArrow" transform="translate(30 24)" onmousedown="handlePan(0,-1)">
                  <use xlink:href="#rim" fill="#404040">
                        <set attributeName="fill" to="#808080" begin="arrowUp.mouseover" end="arrowUp.mouseout"/>
                  </use>
                  <path fill="none" stroke="white" stroke-width="1.5" d="M0,-3.0v7 M-2.5,-0.5L0,-3.0L2.5,-0.5"/>
                </g>
                <g id="arrowRight" xlink:href="#dirArrow" transform="rotate(90) translate(36 -43)" onmousedown="handlePan(1,0)">
                  <use xlink:href="#rim" fill="#404040">
                        <set attributeName="fill" to="#808080" begin="arrowRight.mouseover" end="arrowRight.mouseout"/>
                  </use>
                  <path fill="none" stroke="white" stroke-width="1.5" d="M0,-3.0v7 M-2.5,-0.5L0,-3.0L2.5,-0.5"/>
                </g>
                <g id="arrowDown" xlink:href="#dirArrow" transform="rotate(180) translate(-30 -48)" onmousedown="handlePan(0,1)">
                  <use xlink:href="#rim" fill="#404040">
                        <set attributeName="fill" to="#808080" begin="arrowDown.mouseover" end="arrowDown.mouseout"/>
                  </use>
                  <path fill="none" stroke="white" stroke-width="1.5" d="M0,-3.0v7 M-2.5,-0.5L0,-3.0L2.5,-0.5"/>
                </g>
                <g id="arrowLeft" xlink:href="#dirArrow" transform="rotate(270) translate(-36 17)" onmousedown="handlePan(-1,0)">
                  <use xlink:href="#rim" fill="#404040">
                        <set attributeName="fill" to="#808080" begin="arrowLeft.mouseover" end="arrowLeft.mouseout"/>
                  </use>
                  <path fill="none" stroke="white" stroke-width="1.5" d="M0,-3.0v7 M-2.5,-0.5L0,-3.0L2.5,-0.5"/>
                </g>
        </g>
        <svg viewBox="0 0 15 15" width="100%" height="30px" preserveAspectRatio="xMaxYMin meet">
         <g id="arrow_out" transform="scale(0.3 0.3)">
          <a xlink:href="Motor_8h__incl_org.svg" target="_base">
           <rect id="button" ry="5" rx="5" y="6" x="6" height="38" width="38"
                fill="#f2f5e9" fill-opacity="0.5" stroke="#606060" stroke-width="1.0"/>
           <path id="arrow"
             d="M 11.500037,31.436501 C 11.940474,20.09759 22.043105,11.32322 32.158766,21.979434 L 37.068811,17.246167 C 37.068811,17.246167 37.088388,32 37.088388,32 L 22.160133,31.978069 C 22.160133,31.978069 26.997745,27.140456 26.997745,27.140456 C 18.528582,18.264221 13.291696,25.230495 11.500037,31.436501 z"
             style="fill:#404040;"/>
          </a>
         </g>
        </svg>
</svg>
