<?xml version="1.0" encoding="UTF-8" standalone="no"?>
<!DOCTYPE svg PUBLIC "-//W3C//DTD SVG 1.1//EN"
 "http://www.w3.org/Graphics/SVG/1.1/DTD/svg11.dtd">
<!-- Generated by graphviz version 2.50.0 (0)
 -->
<!-- Title: RaspiDac.cpp Pages: 1 -->
<svg width="562pt" height="272pt"
 viewBox="0.00 0.00 562.00 272.00" xmlns="http://www.w3.org/2000/svg" xmlns:xlink="http://www.w3.org/1999/xlink">
<style><![CDATA[
text { fill: #e6e6e6 !important; }
polygon { fill: #2f2f2f !important; stroke: #9aa0a6 !important; }
path, line, polyline { stroke: #4e67d6 !important; }
]]></style>
<style><![CDATA[
text { fill: #e6e6e6 !important; }
polygon { fill: #2f2f2f !important; stroke: #9aa0a6 !important; }
path, line, polyline { stroke: #4e67d6 !important; }
]]></style>
<style><![CDATA[
text { fill: #e6e6e6 !important; }
polygon { fill: #2f2f2f !important; stroke: #9aa0a6 !important; }
path, line, polyline { stroke: #4e67d6 !important; }
]]></style>
<style><![CDATA[
text { fill: #e6e6e6 !important; }
polygon { fill: #2f2f2f !important; stroke: #9aa0a6 !important; }
path, line, polyline { stroke: #4e67d6 !important; }
]]></style>
<style><![CDATA[
text { fill: #e6e6e6 !important; }
polygon { fill: #2f2f2f !important; stroke: #9aa0a6 !important; }
path, line, polyline { stroke: #4e67d6 !important; }
]]></style>
<style><![CDATA[
text { fill: #e6e6e6 !important; }
polygon { fill: #2f2f2f !important; stroke: #9aa0a6 !important; }
path, line, polyline { stroke: #4e67d6 !important; }
]]></style>
<style><![CDATA[
text { fill: #e6e6e6 !important; }
polygon { fill: #2f2f2f !important; stroke: #9aa0a6 !important; }
path, line, polyline { stroke: #4e67d6 !important; }
]]></style>
<g id="graph0" class="graph" transform="scale(1 1) rotate(0) translate(4 268)">
<title>RaspiDac.cpp</title>
<!-- Node1 -->
<g id="node1" class="node">
<title>Node1</title>
<g id="a_node1"><a xlink:title="Raspi Dac source file.">
<polygon fill="#bfbfbf" stroke="black" points="278,-240.5 278,-263.5 389,-263.5 389,-240.5 278,-240.5"/>
<text text-anchor="middle" x="333.5" y="-248.3" font-family="Helvetica,sans-Serif" font-size="14.00">RaspiDac.cpp</text>
</a>
</g>
</g>
<!-- Node2 -->
<g id="node2" class="node">
<title>Node2</title>
<g id="a_node2"><a xlink:href="RaspiDac_8h.html" target="_top" xlink:title="Raspi Dac source file.">
<polygon fill="none" stroke="black" points="135,-180.5 135,-203.5 230,-203.5 230,-180.5 135,-180.5"/>
<text text-anchor="middle" x="182.5" y="-188.3" font-family="Helvetica,sans-Serif" font-size="14.00">RaspiDac.h</text>
</a>
</g>
</g>
<!-- Node1&#45;&gt;Node2 -->
<g id="edge1" class="edge">
<title>Node1&#45;&gt;Node2</title>
<path fill="none" stroke="midnightblue" d="M306.16,-240.5C281.86,-231.16 246.14,-217.44 219.33,-207.15"/>
<polygon fill="midnightblue" stroke="midnightblue" points="220.49,-203.84 209.9,-203.52 217.98,-210.38 220.49,-203.84"/>
</g>
<!-- Node9 -->
<g id="node9" class="node">
<title>Node9</title>
<g id="a_node9"><a xlink:href="Utils_8h.html" target="_top" xlink:title="Utility helpers.">
<polygon fill="none" stroke="black" points="304,-120.5 304,-143.5 365,-143.5 365,-120.5 304,-120.5"/>
<text text-anchor="middle" x="334.5" y="-128.3" font-family="Helvetica,sans-Serif" font-size="14.00">Utils.h</text>
</a>
</g>
</g>
<!-- Node1&#45;&gt;Node9 -->
<g id="edge14" class="edge">
<title>Node1&#45;&gt;Node9</title>
<path fill="none" stroke="midnightblue" d="M333.59,-240.11C333.76,-220.52 334.11,-179.02 334.32,-153.82"/>
<polygon fill="midnightblue" stroke="midnightblue" points="337.83,-153.55 334.41,-143.52 330.83,-153.49 337.83,-153.55"/>
</g>
<!-- Node13 -->
<g id="node13" class="node">
<title>Node13</title>
<g id="a_node13"><a xlink:href="PosixCompat_8h.html" target="_top" xlink:title=" ">
<polygon fill="none" stroke="black" points="361.5,-180.5 361.5,-203.5 481.5,-203.5 481.5,-180.5 361.5,-180.5"/>
<text text-anchor="middle" x="421.5" y="-188.3" font-family="Helvetica,sans-Serif" font-size="14.00">PosixCompat.h</text>
</a>
</g>
</g>
<!-- Node1&#45;&gt;Node13 -->
<g id="edge15" class="edge">
<title>Node1&#45;&gt;Node13</title>
<path fill="none" stroke="midnightblue" d="M349.64,-240.36C362.91,-231.61 381.93,-219.08 397.07,-209.1"/>
<polygon fill="midnightblue" stroke="midnightblue" points="399.04,-212 405.46,-203.57 395.19,-206.15 399.04,-212"/>
</g>
<!-- Node3 -->
<g id="node3" class="node">
<title>Node3</title>
<g id="a_node3"><a xlink:title=" ">
<polygon fill="none" stroke="#bfbfbf" points="189.5,-120.5 189.5,-143.5 285.5,-143.5 285.5,-120.5 189.5,-120.5"/>
<text text-anchor="middle" x="237.5" y="-128.3" font-family="Helvetica,sans-Serif" font-size="14.00">bcm2835.h</text>
</a>
</g>
</g>
<!-- Node2&#45;&gt;Node3 -->
<g id="edge2" class="edge">
<title>Node2&#45;&gt;Node3</title>
<path fill="none" stroke="midnightblue" d="M192.59,-180.36C200.34,-172.19 211.23,-160.7 220.35,-151.09"/>
<polygon fill="midnightblue" stroke="midnightblue" points="223.13,-153.24 227.48,-143.57 218.06,-148.42 223.13,-153.24"/>
</g>
<!-- Node4 -->
<g id="node4" class="node">
<title>Node4</title>
<g id="a_node4"><a xlink:title=" ">
<polygon fill="none" stroke="#bfbfbf" points="0,-60.5 0,-83.5 55,-83.5 55,-60.5 0,-60.5"/>
<text text-anchor="middle" x="27.5" y="-68.3" font-family="Helvetica,sans-Serif" font-size="14.00">QtSql</text>
</a>
</g>
</g>
<!-- Node2&#45;&gt;Node4 -->
<g id="edge3" class="edge">
<title>Node2&#45;&gt;Node4</title>
<path fill="none" stroke="midnightblue" d="M136.24,-180.5C112.89,-173.33 85.39,-161.82 65.5,-144 50.27,-130.35 40.04,-109.13 34.07,-93.44"/>
<polygon fill="midnightblue" stroke="midnightblue" points="37.23,-91.88 30.6,-83.62 30.63,-94.21 37.23,-91.88"/>
</g>
<!-- Node5 -->
<g id="node5" class="node">
<title>Node5</title>
<g id="a_node5"><a xlink:title=" ">
<polygon fill="none" stroke="#bfbfbf" points="82,-120.5 82,-143.5 171,-143.5 171,-120.5 82,-120.5"/>
<text text-anchor="middle" x="126.5" y="-128.3" font-family="Helvetica,sans-Serif" font-size="14.00">QtWidgets</text>
</a>
</g>
</g>
<!-- Node2&#45;&gt;Node5 -->
<g id="edge4" class="edge">
<title>Node2&#45;&gt;Node5</title>
<path fill="none" stroke="midnightblue" d="M172.23,-180.36C164.26,-172.1 153.03,-160.47 143.69,-150.8"/>
<polygon fill="midnightblue" stroke="midnightblue" points="146.17,-148.33 136.71,-143.57 141.13,-153.2 146.17,-148.33"/>
</g>
<!-- Node6 -->
<g id="node6" class="node">
<title>Node6</title>
<g id="a_node6"><a xlink:href="QsLog_8h.html" target="_top" xlink:title="Qs Log logging support.">
<polygon fill="none" stroke="black" points="95.5,-60.5 95.5,-83.5 169.5,-83.5 169.5,-60.5 95.5,-60.5"/>
<text text-anchor="middle" x="132.5" y="-68.3" font-family="Helvetica,sans-Serif" font-size="14.00">QsLog.h</text>
</a>
</g>
</g>
<!-- Node2&#45;&gt;Node6 -->
<g id="edge5" class="edge">
<title>Node2&#45;&gt;Node6</title>
<path fill="none" stroke="midnightblue" d="M134.83,-183.15C111.89,-176.71 86.4,-165.06 72.5,-144 59.14,-123.76 82.14,-102.81 103.42,-88.97"/>
<polygon fill="midnightblue" stroke="midnightblue" points="105.34,-91.89 112.02,-83.67 101.67,-85.93 105.34,-91.89"/>
</g>
<!-- Node2&#45;&gt;Node9 -->
<g id="edge8" class="edge">
<title>Node2&#45;&gt;Node9</title>
<path fill="none" stroke="midnightblue" d="M210.03,-180.5C234.48,-171.16 270.44,-157.44 297.42,-147.15"/>
<polygon fill="midnightblue" stroke="midnightblue" points="298.83,-150.36 306.92,-143.52 296.33,-143.82 298.83,-150.36"/>
</g>
<!-- Node7 -->
<g id="node7" class="node">
<title>Node7</title>
<g id="a_node7"><a xlink:title=" ">
<polygon fill="none" stroke="#bfbfbf" points="50.5,-0.5 50.5,-23.5 124.5,-23.5 124.5,-0.5 50.5,-0.5"/>
<text text-anchor="middle" x="87.5" y="-8.3" font-family="Helvetica,sans-Serif" font-size="14.00">QDebug</text>
</a>
</g>
</g>
<!-- Node6&#45;&gt;Node7 -->
<g id="edge6" class="edge">
<title>Node6&#45;&gt;Node7</title>
<path fill="none" stroke="midnightblue" d="M124.25,-60.36C118.03,-52.35 109.35,-41.16 101.99,-31.67"/>
<polygon fill="midnightblue" stroke="midnightblue" points="104.6,-29.33 95.7,-23.57 99.07,-33.62 104.6,-29.33"/>
</g>
<!-- Node8 -->
<g id="node8" class="node">
<title>Node8</title>
<g id="a_node8"><a xlink:title=" ">
<polygon fill="none" stroke="#bfbfbf" points="142.5,-0.5 142.5,-23.5 212.5,-23.5 212.5,-0.5 142.5,-0.5"/>
<text text-anchor="middle" x="177.5" y="-8.3" font-family="Helvetica,sans-Serif" font-size="14.00">QString</text>
</a>
</g>
</g>
<!-- Node6&#45;&gt;Node8 -->
<g id="edge7" class="edge">
<title>Node6&#45;&gt;Node8</title>
<path fill="none" stroke="midnightblue" d="M140.75,-60.36C146.97,-52.35 155.65,-41.16 163.01,-31.67"/>
<polygon fill="midnightblue" stroke="midnightblue" points="165.93,-33.62 169.3,-23.57 160.4,-29.33 165.93,-33.62"/>
</g>
<!-- Node9&#45;&gt;Node4 -->
<g id="edge12" class="edge">
<title>Node9&#45;&gt;Node4</title>
<path fill="none" stroke="midnightblue" d="M303.57,-122.17C300.51,-121.4 297.45,-120.66 294.5,-120 202.94,-99.54 178.84,-100.6 86.5,-84 79.61,-82.76 72.27,-81.42 65.2,-80.1"/>
<polygon fill="midnightblue" stroke="midnightblue" points="65.57,-76.61 55.1,-78.22 64.29,-83.49 65.57,-76.61"/>
</g>
<!-- Node9&#45;&gt;Node6 -->
<g id="edge13" class="edge">
<title>Node9&#45;&gt;Node6</title>
<path fill="none" stroke="midnightblue" d="M303.82,-122.19C270.69,-112.68 217.52,-97.41 179.2,-86.41"/>
<polygon fill="midnightblue" stroke="midnightblue" points="179.88,-82.96 169.3,-83.57 177.95,-89.69 179.88,-82.96"/>
</g>
<!-- Node10 -->
<g id="node10" class="node">
<title>Node10</title>
<g id="a_node10"><a xlink:title=" ">
<polygon fill="none" stroke="#bfbfbf" points="198.5,-60.5 198.5,-83.5 292.5,-83.5 292.5,-60.5 198.5,-60.5"/>
<text text-anchor="middle" x="245.5" y="-68.3" font-family="Helvetica,sans-Serif" font-size="14.00">QDateTime</text>
</a>
</g>
</g>
<!-- Node9&#45;&gt;Node10 -->
<g id="edge9" class="edge">
<title>Node9&#45;&gt;Node10</title>
<path fill="none" stroke="midnightblue" d="M318.18,-120.36C304.75,-111.61 285.52,-99.08 270.21,-89.1"/>
<polygon fill="midnightblue" stroke="midnightblue" points="272.01,-86.1 261.72,-83.57 268.19,-91.96 272.01,-86.1"/>
</g>
<!-- Node11 -->
<g id="node11" class="node">
<title>Node11</title>
<g id="a_node11"><a xlink:title=" ">
<polygon fill="none" stroke="#bfbfbf" points="310.5,-60.5 310.5,-83.5 358.5,-83.5 358.5,-60.5 310.5,-60.5"/>
<text text-anchor="middle" x="334.5" y="-68.3" font-family="Helvetica,sans-Serif" font-size="14.00">QDir</text>
</a>
</g>
</g>
<!-- Node9&#45;&gt;Node11 -->
<g id="edge10" class="edge">
<title>Node9&#45;&gt;Node11</title>
<path fill="none" stroke="midnightblue" d="M334.5,-120.36C334.5,-112.92 334.5,-102.74 334.5,-93.73"/>
<polygon fill="midnightblue" stroke="midnightblue" points="338,-93.57 334.5,-83.57 331,-93.57 338,-93.57"/>
</g>
<!-- Node12 -->
<g id="node12" class="node">
<title>Node12</title>
<g id="a_node12"><a xlink:title=" ">
<polygon fill="none" stroke="#bfbfbf" points="377,-60.5 377,-83.5 472,-83.5 472,-60.5 377,-60.5"/>
<text text-anchor="middle" x="424.5" y="-68.3" font-family="Helvetica,sans-Serif" font-size="14.00">QTableView</text>
</a>
</g>
</g>
<!-- Node9&#45;&gt;Node12 -->
<g id="edge11" class="edge">
<title>Node9&#45;&gt;Node12</title>
<path fill="none" stroke="midnightblue" d="M351.01,-120.36C364.58,-111.61 384.03,-99.08 399.51,-89.1"/>
<polygon fill="midnightblue" stroke="midnightblue" points="401.59,-91.93 408.1,-83.57 397.8,-86.05 401.59,-91.93"/>
</g>
<!-- Node14 -->
<g id="node14" class="node">
<title>Node14</title>
<g id="a_node14"><a xlink:title=" ">
<polygon fill="none" stroke="#bfbfbf" points="477,-120.5 477,-143.5 554,-143.5 554,-120.5 477,-120.5"/>
<text text-anchor="middle" x="515.5" y="-128.3" font-family="Helvetica,sans-Serif" font-size="14.00">QtGlobal</text>
</a>
</g>
</g>
<!-- Node13&#45;&gt;Node14 -->
<g id="edge16" class="edge">
<title>Node13&#45;&gt;Node14</title>
<path fill="none" stroke="midnightblue" d="M438.74,-180.36C453.05,-171.53 473.61,-158.84 489.86,-148.82"/>
<polygon fill="midnightblue" stroke="midnightblue" points="491.7,-151.8 498.37,-143.57 488.02,-145.84 491.7,-151.8"/>
</g>
<!-- Node15 -->
<g id="node15" class="node">
<title>Node15</title>
<g id="a_node15"><a xlink:title=" ">
<polygon fill="none" stroke="#bfbfbf" points="384.5,-120.5 384.5,-143.5 458.5,-143.5 458.5,-120.5 384.5,-120.5"/>
<text text-anchor="middle" x="421.5" y="-128.3" font-family="Helvetica,sans-Serif" font-size="14.00">unistd.h</text>
</a>
</g>
</g>
<!-- Node13&#45;&gt;Node15 -->
<g id="edge17" class="edge">
<title>Node13&#45;&gt;Node15</title>
<path fill="none" stroke="midnightblue" d="M421.5,-180.36C421.5,-172.92 421.5,-162.74 421.5,-153.73"/>
<polygon fill="midnightblue" stroke="midnightblue" points="425,-153.57 421.5,-143.57 418,-153.57 425,-153.57"/>
</g>
</g>
</svg>
