<?xml version="1.0" encoding="UTF-8" standalone="no"?>
<!DOCTYPE svg PUBLIC "-//W3C//DTD SVG 1.1//EN"
 "http://www.w3.org/Graphics/SVG/1.1/DTD/svg11.dtd">
<!-- Generated by graphviz version 2.50.0 (0)
 -->
<!-- Title: SuperKWindow.h Pages: 1 -->
<svg width="1075pt" height="392pt"
 viewBox="0.00 0.00 1074.50 392.00" xmlns="http://www.w3.org/2000/svg" xmlns:xlink="http://www.w3.org/1999/xlink">
<style><![CDATA[
text { fill: #e6e6e6 !important; }
polygon { fill: #2f2f2f !important; stroke: #9aa0a6 !important; }
path, line, polyline { stroke: #4e67d6 !important; }
]]></style>
<style><![CDATA[
text { fill: #e6e6e6 !important; }
polygon { fill: #2f2f2f !important; stroke: #9aa0a6 !important; }
path, line, polyline { stroke: #4e67d6 !important; }
]]></style>
<style><![CDATA[
text { fill: #e6e6e6 !important; }
polygon { fill: #2f2f2f !important; stroke: #9aa0a6 !important; }
path, line, polyline { stroke: #4e67d6 !important; }
]]></style>
<style><![CDATA[
text { fill: #e6e6e6 !important; }
polygon { fill: #2f2f2f !important; stroke: #9aa0a6 !important; }
path, line, polyline { stroke: #4e67d6 !important; }
]]></style>
<style><![CDATA[
text { fill: #e6e6e6 !important; }
polygon { fill: #2f2f2f !important; stroke: #9aa0a6 !important; }
path, line, polyline { stroke: #4e67d6 !important; }
]]></style>
<style><![CDATA[
text { fill: #e6e6e6 !important; }
polygon { fill: #2f2f2f !important; stroke: #9aa0a6 !important; }
path, line, polyline { stroke: #4e67d6 !important; }
]]></style>
<style><![CDATA[
text { fill: #e6e6e6 !important; }
polygon { fill: #2f2f2f !important; stroke: #9aa0a6 !important; }
path, line, polyline { stroke: #4e67d6 !important; }
]]></style>
<g id="graph0" class="graph" transform="scale(1 1) rotate(0) translate(4 388)">
<title>SuperKWindow.h</title>
<!-- Node1 -->
<g id="node1" class="node">
<title>Node1</title>
<g id="a_node1"><a xlink:title="Super K window.">
<polygon fill="#bfbfbf" stroke="black" points="797,-360.5 797,-383.5 931,-383.5 931,-360.5 797,-360.5"/>
<text text-anchor="middle" x="864" y="-368.3" font-family="Helvetica,sans-Serif" font-size="14.00">SuperKWindow.h</text>
</a>
</g>
</g>
<!-- Node2 -->
<g id="node2" class="node">
<title>Node2</title>
<g id="a_node2"><a xlink:href="SuperKControlWidget_8h.html" target="_top" xlink:title="Super K control widget.">
<polygon fill="none" stroke="black" points="717,-300.5 717,-323.5 895,-323.5 895,-300.5 717,-300.5"/>
<text text-anchor="middle" x="806" y="-308.3" font-family="Helvetica,sans-Serif" font-size="14.00">SuperKControlWidget.h</text>
</a>
</g>
</g>
<!-- Node1&#45;&gt;Node2 -->
<g id="edge1" class="edge">
<title>Node1&#45;&gt;Node2</title>
<path fill="none" stroke="midnightblue" d="M853.36,-360.36C845.1,-352.1 833.47,-340.47 823.8,-330.8"/>
<polygon fill="midnightblue" stroke="midnightblue" points="826.12,-328.17 816.57,-323.57 821.17,-333.12 826.12,-328.17"/>
</g>
<!-- Node18 -->
<g id="node18" class="node">
<title>Node18</title>
<g id="a_node18"><a xlink:title=" ">
<polygon fill="none" stroke="#bfbfbf" points="806.5,-120.5 806.5,-143.5 861.5,-143.5 861.5,-120.5 806.5,-120.5"/>
<text text-anchor="middle" x="834" y="-128.3" font-family="Helvetica,sans-Serif" font-size="14.00">QtSql</text>
</a>
</g>
</g>
<!-- Node1&#45;&gt;Node18 -->
<g id="edge31" class="edge">
<title>Node1&#45;&gt;Node18</title>
<path fill="none" stroke="midnightblue" d="M877.21,-360.2C886.68,-351.54 898.67,-338.48 904,-324 907.68,-313.99 906.1,-310.46 904,-300 892.7,-243.82 862.01,-182.98 845.26,-152.6"/>
<polygon fill="midnightblue" stroke="midnightblue" points="848.3,-150.86 840.36,-143.85 842.19,-154.28 848.3,-150.86"/>
</g>
<!-- Node19 -->
<g id="node19" class="node">
<title>Node19</title>
<g id="a_node19"><a xlink:title=" ">
<polygon fill="none" stroke="#bfbfbf" points="696.5,-180.5 696.5,-203.5 785.5,-203.5 785.5,-180.5 696.5,-180.5"/>
<text text-anchor="middle" x="741" y="-188.3" font-family="Helvetica,sans-Serif" font-size="14.00">QtWidgets</text>
</a>
</g>
</g>
<!-- Node1&#45;&gt;Node19 -->
<g id="edge32" class="edge">
<title>Node1&#45;&gt;Node19</title>
<path fill="none" stroke="midnightblue" d="M796.64,-368.49C764.38,-363.47 728.41,-351.47 708,-324 682.86,-290.17 709.27,-239.29 727.25,-211.96"/>
<polygon fill="midnightblue" stroke="midnightblue" points="730.18,-213.89 732.94,-203.66 724.4,-209.93 730.18,-213.89"/>
</g>
<!-- Node24 -->
<g id="node24" class="node">
<title>Node24</title>
<g id="a_node24"><a xlink:title=" ">
<polygon fill="none" stroke="#bfbfbf" points="951.5,-300.5 951.5,-323.5 1066.5,-323.5 1066.5,-300.5 951.5,-300.5"/>
<text text-anchor="middle" x="1009" y="-308.3" font-family="Helvetica,sans-Serif" font-size="14.00">QMessageBox</text>
</a>
</g>
</g>
<!-- Node1&#45;&gt;Node24 -->
<g id="edge30" class="edge">
<title>Node1&#45;&gt;Node24</title>
<path fill="none" stroke="midnightblue" d="M890.26,-360.5C913.42,-351.23 947.38,-337.65 973.05,-327.38"/>
<polygon fill="midnightblue" stroke="midnightblue" points="974.46,-330.58 982.45,-323.62 971.86,-324.09 974.46,-330.58"/>
</g>
<!-- Node3 -->
<g id="node3" class="node">
<title>Node3</title>
<g id="a_node3"><a xlink:href="SuperK_8h.html" target="_top" xlink:title="Super K device interface.">
<polygon fill="none" stroke="black" points="577,-240.5 577,-263.5 657,-263.5 657,-240.5 577,-240.5"/>
<text text-anchor="middle" x="617" y="-248.3" font-family="Helvetica,sans-Serif" font-size="14.00">SuperK.h</text>
</a>
</g>
</g>
<!-- Node2&#45;&gt;Node3 -->
<g id="edge2" class="edge">
<title>Node2&#45;&gt;Node3</title>
<path fill="none" stroke="midnightblue" d="M771.77,-300.5C740.69,-290.96 694.69,-276.84 660.91,-266.48"/>
<polygon fill="midnightblue" stroke="midnightblue" points="661.88,-263.11 651.29,-263.52 659.82,-269.8 661.88,-263.11"/>
</g>
<!-- Node14 -->
<g id="node14" class="node">
<title>Node14</title>
<g id="a_node14"><a xlink:href="QsLog_8h.html" target="_top" xlink:title="Qs Log logging support.">
<polygon fill="none" stroke="black" points="717,-60.5 717,-83.5 791,-83.5 791,-60.5 717,-60.5"/>
<text text-anchor="middle" x="754" y="-68.3" font-family="Helvetica,sans-Serif" font-size="14.00">QsLog.h</text>
</a>
</g>
</g>
<!-- Node2&#45;&gt;Node14 -->
<g id="edge29" class="edge">
<title>Node2&#45;&gt;Node14</title>
<path fill="none" stroke="midnightblue" d="M815.91,-300.18C842.73,-269.58 912,-180.65 871,-120 855.36,-96.87 826.26,-85.12 800.99,-79.15"/>
<polygon fill="midnightblue" stroke="midnightblue" points="801.68,-75.72 791.17,-77.07 800.23,-82.57 801.68,-75.72"/>
</g>
<!-- Node2&#45;&gt;Node18 -->
<g id="edge27" class="edge">
<title>Node2&#45;&gt;Node18</title>
<path fill="none" stroke="midnightblue" d="M807.67,-300.4C812.19,-271.65 824.75,-191.83 830.74,-153.74"/>
<polygon fill="midnightblue" stroke="midnightblue" points="834.21,-154.19 832.31,-143.77 827.29,-153.11 834.21,-154.19"/>
</g>
<!-- Node2&#45;&gt;Node19 -->
<g id="edge28" class="edge">
<title>Node2&#45;&gt;Node19</title>
<path fill="none" stroke="midnightblue" d="M800,-300.11C789.01,-280.16 765.52,-237.52 751.73,-212.47"/>
<polygon fill="midnightblue" stroke="midnightblue" points="754.69,-210.59 746.8,-203.52 748.56,-213.97 754.69,-210.59"/>
</g>
<!-- Node4 -->
<g id="node4" class="node">
<title>Node4</title>
<g id="a_node4"><a xlink:href="DriverSuperK_8h.html" target="_top" xlink:title="Driver implementation for Super K.">
<polygon fill="none" stroke="black" points="296.5,-180.5 296.5,-203.5 419.5,-203.5 419.5,-180.5 296.5,-180.5"/>
<text text-anchor="middle" x="358" y="-188.3" font-family="Helvetica,sans-Serif" font-size="14.00">DriverSuperK.h</text>
</a>
</g>
</g>
<!-- Node3&#45;&gt;Node4 -->
<g id="edge3" class="edge">
<title>Node3&#45;&gt;Node4</title>
<path fill="none" stroke="midnightblue" d="M576.82,-242C533.48,-232.3 464.13,-216.77 415.13,-205.79"/>
<polygon fill="midnightblue" stroke="midnightblue" points="415.84,-202.37 405.31,-203.6 414.31,-209.2 415.84,-202.37"/>
</g>
<!-- Node3&#45;&gt;Node14 -->
<g id="edge20" class="edge">
<title>Node3&#45;&gt;Node14</title>
<path fill="none" stroke="midnightblue" d="M586.73,-240.45C531.37,-219.59 423.33,-170.68 467,-120 500.55,-81.06 639.65,-92.9 706.78,-83.81"/>
<polygon fill="midnightblue" stroke="midnightblue" points="707.6,-87.22 716.9,-82.16 706.47,-80.31 707.6,-87.22"/>
</g>
<!-- Node3&#45;&gt;Node18 -->
<g id="edge18" class="edge">
<title>Node3&#45;&gt;Node18</title>
<path fill="none" stroke="midnightblue" d="M624.98,-240.27C637,-224.81 661.22,-196.36 688,-180 721.79,-159.36 765.58,-146.84 796.36,-139.97"/>
<polygon fill="midnightblue" stroke="midnightblue" points="797.21,-143.37 806.26,-137.85 795.75,-136.52 797.21,-143.37"/>
</g>
<!-- Node3&#45;&gt;Node19 -->
<g id="edge19" class="edge">
<title>Node3&#45;&gt;Node19</title>
<path fill="none" stroke="midnightblue" d="M639.46,-240.5C658.91,-231.4 687.28,-218.13 709.09,-207.93"/>
<polygon fill="midnightblue" stroke="midnightblue" points="710.72,-211.03 718.29,-203.62 707.75,-204.69 710.72,-211.03"/>
</g>
<!-- Node20 -->
<g id="node20" class="node">
<title>Node20</title>
<g id="a_node20"><a xlink:href="Utils_8h.html" target="_top" xlink:title="Utility helpers.">
<polygon fill="none" stroke="black" points="578.5,-180.5 578.5,-203.5 639.5,-203.5 639.5,-180.5 578.5,-180.5"/>
<text text-anchor="middle" x="609" y="-188.3" font-family="Helvetica,sans-Serif" font-size="14.00">Utils.h</text>
</a>
</g>
</g>
<!-- Node3&#45;&gt;Node20 -->
<g id="edge21" class="edge">
<title>Node3&#45;&gt;Node20</title>
<path fill="none" stroke="midnightblue" d="M615.53,-240.36C614.51,-232.92 613.1,-222.74 611.86,-213.73"/>
<polygon fill="midnightblue" stroke="midnightblue" points="615.29,-213 610.46,-203.57 608.36,-213.96 615.29,-213"/>
</g>
<!-- Node5 -->
<g id="node5" class="node">
<title>Node5</title>
<g id="a_node5"><a xlink:href="ACCom_8h.html" target="_top" xlink:title="AC communication backend for AC Com.">
<polygon fill="none" stroke="black" points="329,-120.5 329,-143.5 409,-143.5 409,-120.5 329,-120.5"/>
<text text-anchor="middle" x="369" y="-128.3" font-family="Helvetica,sans-Serif" font-size="14.00">ACCom.h</text>
</a>
</g>
</g>
<!-- Node4&#45;&gt;Node5 -->
<g id="edge4" class="edge">
<title>Node4&#45;&gt;Node5</title>
<path fill="none" stroke="midnightblue" d="M360.02,-180.36C361.44,-172.84 363.4,-162.52 365.13,-153.43"/>
<polygon fill="midnightblue" stroke="midnightblue" points="368.57,-154.05 367,-143.57 361.69,-152.74 368.57,-154.05"/>
</g>
<!-- Node6 -->
<g id="node6" class="node">
<title>Node6</title>
<g id="a_node6"><a xlink:title=" ">
<polygon fill="none" stroke="#bfbfbf" points="458.5,-60.5 458.5,-83.5 515.5,-83.5 515.5,-60.5 458.5,-60.5"/>
<text text-anchor="middle" x="487" y="-68.3" font-family="Helvetica,sans-Serif" font-size="14.00">string</text>
</a>
</g>
</g>
<!-- Node5&#45;&gt;Node6 -->
<g id="edge5" class="edge">
<title>Node5&#45;&gt;Node6</title>
<path fill="none" stroke="midnightblue" d="M390.37,-120.5C408.8,-111.44 435.64,-98.25 456.36,-88.06"/>
<polygon fill="midnightblue" stroke="midnightblue" points="457.96,-91.17 465.39,-83.62 454.87,-84.89 457.96,-91.17"/>
</g>
<!-- Node7 -->
<g id="node7" class="node">
<title>Node7</title>
<g id="a_node7"><a xlink:title=" ">
<polygon fill="none" stroke="#bfbfbf" points="533.5,-60.5 533.5,-83.5 610.5,-83.5 610.5,-60.5 533.5,-60.5"/>
<text text-anchor="middle" x="572" y="-68.3" font-family="Helvetica,sans-Serif" font-size="14.00">iostream</text>
</a>
</g>
</g>
<!-- Node5&#45;&gt;Node7 -->
<g id="edge6" class="edge">
<title>Node5&#45;&gt;Node7</title>
<path fill="none" stroke="midnightblue" d="M405.76,-120.5C439.29,-110.92 488.98,-96.72 525.3,-86.34"/>
<polygon fill="midnightblue" stroke="midnightblue" points="526.52,-89.64 535.17,-83.52 524.59,-82.91 526.52,-89.64"/>
</g>
<!-- Node8 -->
<g id="node8" class="node">
<title>Node8</title>
<g id="a_node8"><a xlink:title=" ">
<polygon fill="none" stroke="#bfbfbf" points="629,-60.5 629,-83.5 699,-83.5 699,-60.5 629,-60.5"/>
<text text-anchor="middle" x="664" y="-68.3" font-family="Helvetica,sans-Serif" font-size="14.00">fstream</text>
</a>
</g>
</g>
<!-- Node5&#45;&gt;Node8 -->
<g id="edge7" class="edge">
<title>Node5&#45;&gt;Node8</title>
<path fill="none" stroke="midnightblue" d="M409.4,-124.1C456.91,-115.82 538.37,-101.17 618.41,-84.04"/>
<polygon fill="midnightblue" stroke="midnightblue" points="619.63,-87.36 628.67,-81.83 618.16,-80.51 619.63,-87.36"/>
</g>
<!-- Node9 -->
<g id="node9" class="node">
<title>Node9</title>
<g id="a_node9"><a xlink:title=" ">
<polygon fill="none" stroke="#bfbfbf" points="0,-60.5 0,-83.5 60,-83.5 60,-60.5 0,-60.5"/>
<text text-anchor="middle" x="30" y="-68.3" font-family="Helvetica,sans-Serif" font-size="14.00">vector</text>
</a>
</g>
</g>
<!-- Node5&#45;&gt;Node9 -->
<g id="edge8" class="edge">
<title>Node5&#45;&gt;Node9</title>
<path fill="none" stroke="midnightblue" d="M328.93,-126.27C272.99,-119.33 168.22,-105.1 69.94,-84.02"/>
<polygon fill="midnightblue" stroke="midnightblue" points="70.66,-80.59 60.14,-81.89 69.17,-87.43 70.66,-80.59"/>
</g>
<!-- Node10 -->
<g id="node10" class="node">
<title>Node10</title>
<g id="a_node10"><a xlink:title=" ">
<polygon fill="none" stroke="#bfbfbf" points="78,-60.5 78,-83.5 152,-83.5 152,-60.5 78,-60.5"/>
<text text-anchor="middle" x="115" y="-68.3" font-family="Helvetica,sans-Serif" font-size="14.00">stdarg.h</text>
</a>
</g>
</g>
<!-- Node5&#45;&gt;Node10 -->
<g id="edge9" class="edge">
<title>Node5&#45;&gt;Node10</title>
<path fill="none" stroke="midnightblue" d="M328.7,-122.05C288.82,-113.16 225.77,-99.01 161.98,-84.21"/>
<polygon fill="midnightblue" stroke="midnightblue" points="162.68,-80.78 152.15,-81.93 161.1,-87.6 162.68,-80.78"/>
</g>
<!-- Node11 -->
<g id="node11" class="node">
<title>Node11</title>
<g id="a_node11"><a xlink:href="PosixCompat_8h.html" target="_top" xlink:title=" ">
<polygon fill="none" stroke="black" points="170,-60.5 170,-83.5 290,-83.5 290,-60.5 170,-60.5"/>
<text text-anchor="middle" x="230" y="-68.3" font-family="Helvetica,sans-Serif" font-size="14.00">PosixCompat.h</text>
</a>
</g>
</g>
<!-- Node5&#45;&gt;Node11 -->
<g id="edge10" class="edge">
<title>Node5&#45;&gt;Node11</title>
<path fill="none" stroke="midnightblue" d="M343.83,-120.5C321.73,-111.27 289.36,-97.77 264.79,-87.52"/>
<polygon fill="midnightblue" stroke="midnightblue" points="266.03,-84.24 255.45,-83.62 263.34,-90.7 266.03,-84.24"/>
</g>
<!-- Node5&#45;&gt;Node14 -->
<g id="edge13" class="edge">
<title>Node5&#45;&gt;Node14</title>
<path fill="none" stroke="midnightblue" d="M409.18,-123.96C417.39,-122.59 425.96,-121.21 434,-120 552.26,-102.23 585.48,-106.09 706.86,-84.07"/>
<polygon fill="midnightblue" stroke="midnightblue" points="707.71,-87.47 716.91,-82.22 706.45,-80.58 707.71,-87.47"/>
</g>
<!-- Node16 -->
<g id="node16" class="node">
<title>Node16</title>
<g id="a_node16"><a xlink:title=" ">
<polygon fill="none" stroke="#bfbfbf" points="457,-0.5 457,-23.5 527,-23.5 527,-0.5 457,-0.5"/>
<text text-anchor="middle" x="492" y="-8.3" font-family="Helvetica,sans-Serif" font-size="14.00">QString</text>
</a>
</g>
</g>
<!-- Node5&#45;&gt;Node16 -->
<g id="edge16" class="edge">
<title>Node5&#45;&gt;Node16</title>
<path fill="none" stroke="midnightblue" d="M357.42,-120.13C343.26,-105.5 322.82,-79.11 337,-60 362.01,-26.29 410.55,-15.91 446.68,-13.12"/>
<polygon fill="midnightblue" stroke="midnightblue" points="447.21,-16.59 456.98,-12.5 446.79,-9.6 447.21,-16.59"/>
</g>
<!-- Node17 -->
<g id="node17" class="node">
<title>Node17</title>
<g id="a_node17"><a xlink:title=" ">
<polygon fill="none" stroke="#bfbfbf" points="346,-60.5 346,-83.5 440,-83.5 440,-60.5 346,-60.5"/>
<text text-anchor="middle" x="393" y="-68.3" font-family="Helvetica,sans-Serif" font-size="14.00">QStringList</text>
</a>
</g>
</g>
<!-- Node5&#45;&gt;Node17 -->
<g id="edge17" class="edge">
<title>Node5&#45;&gt;Node17</title>
<path fill="none" stroke="midnightblue" d="M373.4,-120.36C376.58,-112.68 380.97,-102.07 384.79,-92.84"/>
<polygon fill="midnightblue" stroke="midnightblue" points="388.04,-94.15 388.63,-83.57 381.57,-91.47 388.04,-94.15"/>
</g>
<!-- Node12 -->
<g id="node12" class="node">
<title>Node12</title>
<g id="a_node12"><a xlink:title=" ">
<polygon fill="none" stroke="#bfbfbf" points="144.5,-0.5 144.5,-23.5 221.5,-23.5 221.5,-0.5 144.5,-0.5"/>
<text text-anchor="middle" x="183" y="-8.3" font-family="Helvetica,sans-Serif" font-size="14.00">QtGlobal</text>
</a>
</g>
</g>
<!-- Node11&#45;&gt;Node12 -->
<g id="edge11" class="edge">
<title>Node11&#45;&gt;Node12</title>
<path fill="none" stroke="midnightblue" d="M221.38,-60.36C214.82,-52.27 205.63,-40.93 197.89,-31.38"/>
<polygon fill="midnightblue" stroke="midnightblue" points="200.58,-29.14 191.57,-23.57 195.14,-33.54 200.58,-29.14"/>
</g>
<!-- Node13 -->
<g id="node13" class="node">
<title>Node13</title>
<g id="a_node13"><a xlink:title=" ">
<polygon fill="none" stroke="#bfbfbf" points="240,-0.5 240,-23.5 314,-23.5 314,-0.5 240,-0.5"/>
<text text-anchor="middle" x="277" y="-8.3" font-family="Helvetica,sans-Serif" font-size="14.00">unistd.h</text>
</a>
</g>
</g>
<!-- Node11&#45;&gt;Node13 -->
<g id="edge12" class="edge">
<title>Node11&#45;&gt;Node13</title>
<path fill="none" stroke="midnightblue" d="M238.62,-60.36C245.18,-52.27 254.37,-40.93 262.11,-31.38"/>
<polygon fill="midnightblue" stroke="midnightblue" points="264.86,-33.54 268.43,-23.57 259.42,-29.14 264.86,-33.54"/>
</g>
<!-- Node15 -->
<g id="node15" class="node">
<title>Node15</title>
<g id="a_node15"><a xlink:title=" ">
<polygon fill="none" stroke="#bfbfbf" points="717,-0.5 717,-23.5 791,-23.5 791,-0.5 717,-0.5"/>
<text text-anchor="middle" x="754" y="-8.3" font-family="Helvetica,sans-Serif" font-size="14.00">QDebug</text>
</a>
</g>
</g>
<!-- Node14&#45;&gt;Node15 -->
<g id="edge14" class="edge">
<title>Node14&#45;&gt;Node15</title>
<path fill="none" stroke="midnightblue" d="M754,-60.36C754,-52.92 754,-42.74 754,-33.73"/>
<polygon fill="midnightblue" stroke="midnightblue" points="757.5,-33.57 754,-23.57 750.5,-33.57 757.5,-33.57"/>
</g>
<!-- Node14&#45;&gt;Node16 -->
<g id="edge15" class="edge">
<title>Node14&#45;&gt;Node16</title>
<path fill="none" stroke="midnightblue" d="M716.86,-62.05C713.86,-61.35 710.88,-60.66 708,-60 649.12,-46.55 581,-31.88 537.25,-22.56"/>
<polygon fill="midnightblue" stroke="midnightblue" points="537.73,-19.09 527.22,-20.43 536.27,-25.93 537.73,-19.09"/>
</g>
<!-- Node20&#45;&gt;Node14 -->
<g id="edge26" class="edge">
<title>Node20&#45;&gt;Node14</title>
<path fill="none" stroke="midnightblue" d="M639.59,-183.47C681.31,-172.9 751.77,-153.84 759,-144 769.64,-129.52 766.58,-108.57 761.95,-93.19"/>
<polygon fill="midnightblue" stroke="midnightblue" points="765.2,-91.89 758.64,-83.57 758.58,-94.16 765.2,-91.89"/>
</g>
<!-- Node20&#45;&gt;Node18 -->
<g id="edge25" class="edge">
<title>Node20&#45;&gt;Node18</title>
<path fill="none" stroke="midnightblue" d="M639.77,-183.14C676.15,-173.85 738.5,-157.88 792,-144 793.46,-143.62 794.95,-143.24 796.45,-142.84"/>
<polygon fill="midnightblue" stroke="midnightblue" points="797.65,-146.15 806.44,-140.24 795.88,-139.37 797.65,-146.15"/>
</g>
<!-- Node21 -->
<g id="node21" class="node">
<title>Node21</title>
<g id="a_node21"><a xlink:title=" ">
<polygon fill="none" stroke="#bfbfbf" points="656,-120.5 656,-143.5 750,-143.5 750,-120.5 656,-120.5"/>
<text text-anchor="middle" x="703" y="-128.3" font-family="Helvetica,sans-Serif" font-size="14.00">QDateTime</text>
</a>
</g>
</g>
<!-- Node20&#45;&gt;Node21 -->
<g id="edge22" class="edge">
<title>Node20&#45;&gt;Node21</title>
<path fill="none" stroke="midnightblue" d="M626.24,-180.36C640.55,-171.53 661.11,-158.84 677.36,-148.82"/>
<polygon fill="midnightblue" stroke="midnightblue" points="679.2,-151.8 685.87,-143.57 675.52,-145.84 679.2,-151.8"/>
</g>
<!-- Node22 -->
<g id="node22" class="node">
<title>Node22</title>
<g id="a_node22"><a xlink:title=" ">
<polygon fill="none" stroke="#bfbfbf" points="476,-120.5 476,-143.5 524,-143.5 524,-120.5 476,-120.5"/>
<text text-anchor="middle" x="500" y="-128.3" font-family="Helvetica,sans-Serif" font-size="14.00">QDir</text>
</a>
</g>
</g>
<!-- Node20&#45;&gt;Node22 -->
<g id="edge23" class="edge">
<title>Node20&#45;&gt;Node22</title>
<path fill="none" stroke="midnightblue" d="M589.26,-180.5C572.39,-171.52 547.89,-158.48 528.83,-148.34"/>
<polygon fill="midnightblue" stroke="midnightblue" points="530.43,-145.23 519.96,-143.62 527.14,-151.41 530.43,-145.23"/>
</g>
<!-- Node23 -->
<g id="node23" class="node">
<title>Node23</title>
<g id="a_node23"><a xlink:title=" ">
<polygon fill="none" stroke="#bfbfbf" points="542.5,-120.5 542.5,-143.5 637.5,-143.5 637.5,-120.5 542.5,-120.5"/>
<text text-anchor="middle" x="590" y="-128.3" font-family="Helvetica,sans-Serif" font-size="14.00">QTableView</text>
</a>
</g>
</g>
<!-- Node20&#45;&gt;Node23 -->
<g id="edge24" class="edge">
<title>Node20&#45;&gt;Node23</title>
<path fill="none" stroke="midnightblue" d="M605.52,-180.36C603.02,-172.76 599.6,-162.29 596.6,-153.13"/>
<polygon fill="midnightblue" stroke="midnightblue" points="599.9,-151.98 593.46,-143.57 593.25,-154.16 599.9,-151.98"/>
</g>
</g>
</svg>
