<?xml version="1.0" encoding="UTF-8" standalone="no"?>
<!DOCTYPE svg PUBLIC "-//W3C//DTD SVG 1.1//EN"
 "http://www.w3.org/Graphics/SVG/1.1/DTD/svg11.dtd">
<!-- Generated by graphviz version 2.50.0 (0)
 -->
<!-- Title: SuperK.h Pages: 1 -->
<svg width="1063pt" height="272pt"
 viewBox="0.00 0.00 1063.00 272.00" xmlns="http://www.w3.org/2000/svg" xmlns:xlink="http://www.w3.org/1999/xlink">
<style><![CDATA[
text { fill: #e6e6e6 !important; }
polygon { fill: #2f2f2f !important; stroke: #9aa0a6 !important; }
path, line, polyline { stroke: #4e67d6 !important; }
]]></style>
<style><![CDATA[
text { fill: #e6e6e6 !important; }
polygon { fill: #2f2f2f !important; stroke: #9aa0a6 !important; }
path, line, polyline { stroke: #4e67d6 !important; }
]]></style>
<style><![CDATA[
text { fill: #e6e6e6 !important; }
polygon { fill: #2f2f2f !important; stroke: #9aa0a6 !important; }
path, line, polyline { stroke: #4e67d6 !important; }
]]></style>
<style><![CDATA[
text { fill: #e6e6e6 !important; }
polygon { fill: #2f2f2f !important; stroke: #9aa0a6 !important; }
path, line, polyline { stroke: #4e67d6 !important; }
]]></style>
<style><![CDATA[
text { fill: #e6e6e6 !important; }
polygon { fill: #2f2f2f !important; stroke: #9aa0a6 !important; }
path, line, polyline { stroke: #4e67d6 !important; }
]]></style>
<style><![CDATA[
text { fill: #e6e6e6 !important; }
polygon { fill: #2f2f2f !important; stroke: #9aa0a6 !important; }
path, line, polyline { stroke: #4e67d6 !important; }
]]></style>
<style><![CDATA[
text { fill: #e6e6e6 !important; }
polygon { fill: #2f2f2f !important; stroke: #9aa0a6 !important; }
path, line, polyline { stroke: #4e67d6 !important; }
]]></style>
<g id="graph0" class="graph" transform="scale(1 1) rotate(0) translate(4 268)">
<title>SuperK.h</title>
<!-- Node1 -->
<g id="node1" class="node">
<title>Node1</title>
<g id="a_node1"><a xlink:title="Super K device interface.">
<polygon fill="#bfbfbf" stroke="black" points="627.5,-240.5 627.5,-263.5 707.5,-263.5 707.5,-240.5 627.5,-240.5"/>
<text text-anchor="middle" x="667.5" y="-248.3" font-family="Helvetica,sans-Serif" font-size="14.00">SuperK.h</text>
</a>
</g>
</g>
<!-- Node2 -->
<g id="node2" class="node">
<title>Node2</title>
<g id="a_node2"><a xlink:href="DriverSuperK_8h.html" target="_top" xlink:title="Driver implementation for Super K.">
<polygon fill="none" stroke="black" points="389,-180.5 389,-203.5 512,-203.5 512,-180.5 389,-180.5"/>
<text text-anchor="middle" x="450.5" y="-188.3" font-family="Helvetica,sans-Serif" font-size="14.00">DriverSuperK.h</text>
</a>
</g>
</g>
<!-- Node1&#45;&gt;Node2 -->
<g id="edge1" class="edge">
<title>Node1&#45;&gt;Node2</title>
<path fill="none" stroke="midnightblue" d="M628.2,-240.5C592.21,-230.88 538.79,-216.6 499.92,-206.21"/>
<polygon fill="midnightblue" stroke="midnightblue" points="500.44,-202.72 489.87,-203.52 498.63,-209.49 500.44,-202.72"/>
</g>
<!-- Node12 -->
<g id="node12" class="node">
<title>Node12</title>
<g id="a_node12"><a xlink:href="QsLog_8h.html" target="_top" xlink:title="Qs Log logging support.">
<polygon fill="none" stroke="black" points="716.5,-60.5 716.5,-83.5 790.5,-83.5 790.5,-60.5 716.5,-60.5"/>
<text text-anchor="middle" x="753.5" y="-68.3" font-family="Helvetica,sans-Serif" font-size="14.00">QsLog.h</text>
</a>
</g>
</g>
<!-- Node1&#45;&gt;Node12 -->
<g id="edge18" class="edge">
<title>Node1&#45;&gt;Node12</title>
<path fill="none" stroke="midnightblue" d="M662.67,-240.49C652.61,-216.88 632.26,-158.68 656.5,-120 663.22,-109.27 689.95,-96.75 713.65,-87.33"/>
<polygon fill="midnightblue" stroke="midnightblue" points="715.16,-90.5 723.22,-83.62 712.63,-83.97 715.16,-90.5"/>
</g>
<!-- Node16 -->
<g id="node16" class="node">
<title>Node16</title>
<g id="a_node16"><a xlink:title=" ">
<polygon fill="none" stroke="#bfbfbf" points="666,-120.5 666,-143.5 721,-143.5 721,-120.5 666,-120.5"/>
<text text-anchor="middle" x="693.5" y="-128.3" font-family="Helvetica,sans-Serif" font-size="14.00">QtSql</text>
</a>
</g>
</g>
<!-- Node1&#45;&gt;Node16 -->
<g id="edge16" class="edge">
<title>Node1&#45;&gt;Node16</title>
<path fill="none" stroke="midnightblue" d="M669.9,-240.11C674.24,-220.43 683.44,-178.65 688.99,-153.48"/>
<polygon fill="midnightblue" stroke="midnightblue" points="692.45,-154.04 691.18,-143.52 685.61,-152.54 692.45,-154.04"/>
</g>
<!-- Node17 -->
<g id="node17" class="node">
<title>Node17</title>
<g id="a_node17"><a xlink:title=" ">
<polygon fill="none" stroke="#bfbfbf" points="696,-180.5 696,-203.5 785,-203.5 785,-180.5 696,-180.5"/>
<text text-anchor="middle" x="740.5" y="-188.3" font-family="Helvetica,sans-Serif" font-size="14.00">QtWidgets</text>
</a>
</g>
</g>
<!-- Node1&#45;&gt;Node17 -->
<g id="edge17" class="edge">
<title>Node1&#45;&gt;Node17</title>
<path fill="none" stroke="midnightblue" d="M680.89,-240.36C691.59,-231.86 706.8,-219.78 719.17,-209.95"/>
<polygon fill="midnightblue" stroke="midnightblue" points="721.54,-212.53 727.2,-203.57 717.19,-207.05 721.54,-212.53"/>
</g>
<!-- Node18 -->
<g id="node18" class="node">
<title>Node18</title>
<g id="a_node18"><a xlink:href="Utils_8h.html" target="_top" xlink:title="Utility helpers.">
<polygon fill="none" stroke="black" points="803,-180.5 803,-203.5 864,-203.5 864,-180.5 803,-180.5"/>
<text text-anchor="middle" x="833.5" y="-188.3" font-family="Helvetica,sans-Serif" font-size="14.00">Utils.h</text>
</a>
</g>
</g>
<!-- Node1&#45;&gt;Node18 -->
<g id="edge19" class="edge">
<title>Node1&#45;&gt;Node18</title>
<path fill="none" stroke="midnightblue" d="M697.56,-240.5C724.51,-231.08 764.23,-217.2 793.78,-206.88"/>
<polygon fill="midnightblue" stroke="midnightblue" points="795.1,-210.13 803.38,-203.52 792.79,-203.52 795.1,-210.13"/>
</g>
<!-- Node3 -->
<g id="node3" class="node">
<title>Node3</title>
<g id="a_node3"><a xlink:href="ACCom_8h.html" target="_top" xlink:title="AC communication backend for AC Com.">
<polygon fill="none" stroke="black" points="377.5,-120.5 377.5,-143.5 457.5,-143.5 457.5,-120.5 377.5,-120.5"/>
<text text-anchor="middle" x="417.5" y="-128.3" font-family="Helvetica,sans-Serif" font-size="14.00">ACCom.h</text>
</a>
</g>
</g>
<!-- Node2&#45;&gt;Node3 -->
<g id="edge2" class="edge">
<title>Node2&#45;&gt;Node3</title>
<path fill="none" stroke="midnightblue" d="M444.45,-180.36C440.03,-172.59 433.91,-161.84 428.62,-152.55"/>
<polygon fill="midnightblue" stroke="midnightblue" points="431.5,-150.53 423.51,-143.57 425.42,-153.99 431.5,-150.53"/>
</g>
<!-- Node4 -->
<g id="node4" class="node">
<title>Node4</title>
<g id="a_node4"><a xlink:title=" ">
<polygon fill="none" stroke="#bfbfbf" points="0,-60.5 0,-83.5 57,-83.5 57,-60.5 0,-60.5"/>
<text text-anchor="middle" x="28.5" y="-68.3" font-family="Helvetica,sans-Serif" font-size="14.00">string</text>
</a>
</g>
</g>
<!-- Node3&#45;&gt;Node4 -->
<g id="edge3" class="edge">
<title>Node3&#45;&gt;Node4</title>
<path fill="none" stroke="midnightblue" d="M377.3,-127.69C313.35,-121.98 184.48,-108.66 66.95,-84.07"/>
<polygon fill="midnightblue" stroke="midnightblue" points="67.58,-80.63 57.07,-81.97 66.12,-87.48 67.58,-80.63"/>
</g>
<!-- Node5 -->
<g id="node5" class="node">
<title>Node5</title>
<g id="a_node5"><a xlink:title=" ">
<polygon fill="none" stroke="#bfbfbf" points="75,-60.5 75,-83.5 152,-83.5 152,-60.5 75,-60.5"/>
<text text-anchor="middle" x="113.5" y="-68.3" font-family="Helvetica,sans-Serif" font-size="14.00">iostream</text>
</a>
</g>
</g>
<!-- Node3&#45;&gt;Node5 -->
<g id="edge4" class="edge">
<title>Node3&#45;&gt;Node5</title>
<path fill="none" stroke="midnightblue" d="M377.49,-124.21C328.99,-115.86 244.54,-100.93 162.26,-84.09"/>
<polygon fill="midnightblue" stroke="midnightblue" points="162.74,-80.62 152.24,-82.03 161.33,-87.47 162.74,-80.62"/>
</g>
<!-- Node6 -->
<g id="node6" class="node">
<title>Node6</title>
<g id="a_node6"><a xlink:title=" ">
<polygon fill="none" stroke="#bfbfbf" points="170.5,-60.5 170.5,-83.5 240.5,-83.5 240.5,-60.5 170.5,-60.5"/>
<text text-anchor="middle" x="205.5" y="-68.3" font-family="Helvetica,sans-Serif" font-size="14.00">fstream</text>
</a>
</g>
</g>
<!-- Node3&#45;&gt;Node6 -->
<g id="edge5" class="edge">
<title>Node3&#45;&gt;Node6</title>
<path fill="none" stroke="midnightblue" d="M379.11,-120.5C342.96,-110.61 288.82,-95.79 250.62,-85.34"/>
<polygon fill="midnightblue" stroke="midnightblue" points="251.36,-81.92 240.79,-82.65 249.51,-88.67 251.36,-81.92"/>
</g>
<!-- Node7 -->
<g id="node7" class="node">
<title>Node7</title>
<g id="a_node7"><a xlink:title=" ">
<polygon fill="none" stroke="#bfbfbf" points="258.5,-60.5 258.5,-83.5 318.5,-83.5 318.5,-60.5 258.5,-60.5"/>
<text text-anchor="middle" x="288.5" y="-68.3" font-family="Helvetica,sans-Serif" font-size="14.00">vector</text>
</a>
</g>
</g>
<!-- Node3&#45;&gt;Node7 -->
<g id="edge6" class="edge">
<title>Node3&#45;&gt;Node7</title>
<path fill="none" stroke="midnightblue" d="M394.14,-120.5C373.81,-111.36 344.12,-98.01 321.39,-87.79"/>
<polygon fill="midnightblue" stroke="midnightblue" points="322.68,-84.53 312.12,-83.62 319.81,-90.91 322.68,-84.53"/>
</g>
<!-- Node8 -->
<g id="node8" class="node">
<title>Node8</title>
<g id="a_node8"><a xlink:title=" ">
<polygon fill="none" stroke="#bfbfbf" points="336.5,-60.5 336.5,-83.5 410.5,-83.5 410.5,-60.5 336.5,-60.5"/>
<text text-anchor="middle" x="373.5" y="-68.3" font-family="Helvetica,sans-Serif" font-size="14.00">stdarg.h</text>
</a>
</g>
</g>
<!-- Node3&#45;&gt;Node8 -->
<g id="edge7" class="edge">
<title>Node3&#45;&gt;Node8</title>
<path fill="none" stroke="midnightblue" d="M409.43,-120.36C403.35,-112.35 394.86,-101.16 387.66,-91.67"/>
<polygon fill="midnightblue" stroke="midnightblue" points="390.35,-89.42 381.52,-83.57 384.77,-93.65 390.35,-89.42"/>
</g>
<!-- Node9 -->
<g id="node9" class="node">
<title>Node9</title>
<g id="a_node9"><a xlink:href="PosixCompat_8h.html" target="_top" xlink:title=" ">
<polygon fill="none" stroke="black" points="428.5,-60.5 428.5,-83.5 548.5,-83.5 548.5,-60.5 428.5,-60.5"/>
<text text-anchor="middle" x="488.5" y="-68.3" font-family="Helvetica,sans-Serif" font-size="14.00">PosixCompat.h</text>
</a>
</g>
</g>
<!-- Node3&#45;&gt;Node9 -->
<g id="edge8" class="edge">
<title>Node3&#45;&gt;Node9</title>
<path fill="none" stroke="midnightblue" d="M430.52,-120.36C440.93,-111.86 455.72,-99.78 467.76,-89.95"/>
<polygon fill="midnightblue" stroke="midnightblue" points="470.03,-92.61 475.56,-83.57 465.6,-87.19 470.03,-92.61"/>
</g>
<!-- Node3&#45;&gt;Node12 -->
<g id="edge11" class="edge">
<title>Node3&#45;&gt;Node12</title>
<path fill="none" stroke="midnightblue" d="M457.54,-125.47C511.73,-117.77 611.6,-102.85 706.36,-84.12"/>
<polygon fill="midnightblue" stroke="midnightblue" points="707.27,-87.51 716.39,-82.12 705.9,-80.65 707.27,-87.51"/>
</g>
<!-- Node14 -->
<g id="node14" class="node">
<title>Node14</title>
<g id="a_node14"><a xlink:title=" ">
<polygon fill="none" stroke="#bfbfbf" points="586.5,-0.5 586.5,-23.5 656.5,-23.5 656.5,-0.5 586.5,-0.5"/>
<text text-anchor="middle" x="621.5" y="-8.3" font-family="Helvetica,sans-Serif" font-size="14.00">QString</text>
</a>
</g>
</g>
<!-- Node3&#45;&gt;Node14 -->
<g id="edge14" class="edge">
<title>Node3&#45;&gt;Node14</title>
<path fill="none" stroke="midnightblue" d="M457.64,-123.29C487.03,-116.33 526.95,-104.04 557.5,-84 578.38,-70.3 596.82,-48.18 608.48,-32.27"/>
<polygon fill="midnightblue" stroke="midnightblue" points="611.61,-33.91 614.53,-23.73 605.9,-29.86 611.61,-33.91"/>
</g>
<!-- Node15 -->
<g id="node15" class="node">
<title>Node15</title>
<g id="a_node15"><a xlink:title=" ">
<polygon fill="none" stroke="#bfbfbf" points="604.5,-60.5 604.5,-83.5 698.5,-83.5 698.5,-60.5 604.5,-60.5"/>
<text text-anchor="middle" x="651.5" y="-68.3" font-family="Helvetica,sans-Serif" font-size="14.00">QStringList</text>
</a>
</g>
</g>
<!-- Node3&#45;&gt;Node15 -->
<g id="edge15" class="edge">
<title>Node3&#45;&gt;Node15</title>
<path fill="none" stroke="midnightblue" d="M457.73,-121.03C496.8,-111.34 556.33,-96.59 599.09,-85.99"/>
<polygon fill="midnightblue" stroke="midnightblue" points="600.17,-89.33 609.03,-83.53 598.49,-82.53 600.17,-89.33"/>
</g>
<!-- Node10 -->
<g id="node10" class="node">
<title>Node10</title>
<g id="a_node10"><a xlink:title=" ">
<polygon fill="none" stroke="#bfbfbf" points="377,-0.5 377,-23.5 454,-23.5 454,-0.5 377,-0.5"/>
<text text-anchor="middle" x="415.5" y="-8.3" font-family="Helvetica,sans-Serif" font-size="14.00">QtGlobal</text>
</a>
</g>
</g>
<!-- Node9&#45;&gt;Node10 -->
<g id="edge9" class="edge">
<title>Node9&#45;&gt;Node10</title>
<path fill="none" stroke="midnightblue" d="M475.11,-60.36C464.41,-51.86 449.2,-39.78 436.83,-29.95"/>
<polygon fill="midnightblue" stroke="midnightblue" points="438.81,-27.05 428.8,-23.57 434.46,-32.53 438.81,-27.05"/>
</g>
<!-- Node11 -->
<g id="node11" class="node">
<title>Node11</title>
<g id="a_node11"><a xlink:title=" ">
<polygon fill="none" stroke="#bfbfbf" points="472.5,-0.5 472.5,-23.5 546.5,-23.5 546.5,-0.5 472.5,-0.5"/>
<text text-anchor="middle" x="509.5" y="-8.3" font-family="Helvetica,sans-Serif" font-size="14.00">unistd.h</text>
</a>
</g>
</g>
<!-- Node9&#45;&gt;Node11 -->
<g id="edge10" class="edge">
<title>Node9&#45;&gt;Node11</title>
<path fill="none" stroke="midnightblue" d="M492.35,-60.36C495.1,-52.76 498.89,-42.29 502.21,-33.13"/>
<polygon fill="midnightblue" stroke="midnightblue" points="505.56,-34.16 505.67,-23.57 498.98,-31.78 505.56,-34.16"/>
</g>
<!-- Node13 -->
<g id="node13" class="node">
<title>Node13</title>
<g id="a_node13"><a xlink:title=" ">
<polygon fill="none" stroke="#bfbfbf" points="716.5,-0.5 716.5,-23.5 790.5,-23.5 790.5,-0.5 716.5,-0.5"/>
<text text-anchor="middle" x="753.5" y="-8.3" font-family="Helvetica,sans-Serif" font-size="14.00">QDebug</text>
</a>
</g>
</g>
<!-- Node12&#45;&gt;Node13 -->
<g id="edge12" class="edge">
<title>Node12&#45;&gt;Node13</title>
<path fill="none" stroke="midnightblue" d="M753.5,-60.36C753.5,-52.92 753.5,-42.74 753.5,-33.73"/>
<polygon fill="midnightblue" stroke="midnightblue" points="757,-33.57 753.5,-23.57 750,-33.57 757,-33.57"/>
</g>
<!-- Node12&#45;&gt;Node14 -->
<g id="edge13" class="edge">
<title>Node12&#45;&gt;Node14</title>
<path fill="none" stroke="midnightblue" d="M729.6,-60.5C708.7,-51.32 678.14,-37.89 654.84,-27.65"/>
<polygon fill="midnightblue" stroke="midnightblue" points="656.24,-24.44 645.67,-23.62 653.42,-30.85 656.24,-24.44"/>
</g>
<!-- Node18&#45;&gt;Node12 -->
<g id="edge24" class="edge">
<title>Node18&#45;&gt;Node12</title>
<path fill="none" stroke="midnightblue" d="M813.67,-180.39C800.15,-172.17 782.88,-159.57 772.5,-144 762.57,-129.11 757.82,-109.22 755.55,-94.29"/>
<polygon fill="midnightblue" stroke="midnightblue" points="758.98,-93.48 754.26,-83.99 752.03,-94.35 758.98,-93.48"/>
</g>
<!-- Node18&#45;&gt;Node16 -->
<g id="edge23" class="edge">
<title>Node18&#45;&gt;Node16</title>
<path fill="none" stroke="midnightblue" d="M808.15,-180.5C785.89,-171.27 753.29,-157.77 728.54,-147.52"/>
<polygon fill="midnightblue" stroke="midnightblue" points="729.72,-144.22 719.14,-143.62 727.04,-150.68 729.72,-144.22"/>
</g>
<!-- Node19 -->
<g id="node19" class="node">
<title>Node19</title>
<g id="a_node19"><a xlink:title=" ">
<polygon fill="none" stroke="#bfbfbf" points="781.5,-120.5 781.5,-143.5 875.5,-143.5 875.5,-120.5 781.5,-120.5"/>
<text text-anchor="middle" x="828.5" y="-128.3" font-family="Helvetica,sans-Serif" font-size="14.00">QDateTime</text>
</a>
</g>
</g>
<!-- Node18&#45;&gt;Node19 -->
<g id="edge20" class="edge">
<title>Node18&#45;&gt;Node19</title>
<path fill="none" stroke="midnightblue" d="M832.58,-180.36C831.94,-172.92 831.06,-162.74 830.29,-153.73"/>
<polygon fill="midnightblue" stroke="midnightblue" points="833.76,-153.23 829.41,-143.57 826.78,-153.83 833.76,-153.23"/>
</g>
<!-- Node20 -->
<g id="node20" class="node">
<title>Node20</title>
<g id="a_node20"><a xlink:title=" ">
<polygon fill="none" stroke="#bfbfbf" points="893.5,-120.5 893.5,-143.5 941.5,-143.5 941.5,-120.5 893.5,-120.5"/>
<text text-anchor="middle" x="917.5" y="-128.3" font-family="Helvetica,sans-Serif" font-size="14.00">QDir</text>
</a>
</g>
</g>
<!-- Node18&#45;&gt;Node20 -->
<g id="edge21" class="edge">
<title>Node18&#45;&gt;Node20</title>
<path fill="none" stroke="midnightblue" d="M848.91,-180.36C861.46,-171.7 879.39,-159.31 893.77,-149.38"/>
<polygon fill="midnightblue" stroke="midnightblue" points="895.95,-152.13 902.19,-143.57 891.97,-146.37 895.95,-152.13"/>
</g>
<!-- Node21 -->
<g id="node21" class="node">
<title>Node21</title>
<g id="a_node21"><a xlink:title=" ">
<polygon fill="none" stroke="#bfbfbf" points="960,-120.5 960,-143.5 1055,-143.5 1055,-120.5 960,-120.5"/>
<text text-anchor="middle" x="1007.5" y="-128.3" font-family="Helvetica,sans-Serif" font-size="14.00">QTableView</text>
</a>
</g>
</g>
<!-- Node18&#45;&gt;Node21 -->
<g id="edge22" class="edge">
<title>Node18&#45;&gt;Node21</title>
<path fill="none" stroke="midnightblue" d="M864.21,-180.76C892.55,-171.32 934.87,-157.21 966.18,-146.77"/>
<polygon fill="midnightblue" stroke="midnightblue" points="967.55,-150.01 975.93,-143.52 965.33,-143.37 967.55,-150.01"/>
</g>
</g>
</svg>
