<?xml version="1.0" encoding="UTF-8" standalone="no"?>
<!DOCTYPE svg PUBLIC "-//W3C//DTD SVG 1.1//EN"
 "http://www.w3.org/Graphics/SVG/1.1/DTD/svg11.dtd">
<!-- Generated by graphviz version 2.50.0 (0)
 -->
<!-- Title: SuperKWindow.cpp Pages: 1 -->
<svg width="1070pt" height="452pt"
 viewBox="0.00 0.00 1069.50 452.00" xmlns="http://www.w3.org/2000/svg" xmlns:xlink="http://www.w3.org/1999/xlink">
<style><![CDATA[
text { fill: #e6e6e6 !important; }
polygon { fill: #2f2f2f !important; stroke: #9aa0a6 !important; }
path, line, polyline { stroke: #4e67d6 !important; }
]]></style>
<style><![CDATA[
text { fill: #e6e6e6 !important; }
polygon { fill: #2f2f2f !important; stroke: #9aa0a6 !important; }
path, line, polyline { stroke: #4e67d6 !important; }
]]></style>
<style><![CDATA[
text { fill: #e6e6e6 !important; }
polygon { fill: #2f2f2f !important; stroke: #9aa0a6 !important; }
path, line, polyline { stroke: #4e67d6 !important; }
]]></style>
<style><![CDATA[
text { fill: #e6e6e6 !important; }
polygon { fill: #2f2f2f !important; stroke: #9aa0a6 !important; }
path, line, polyline { stroke: #4e67d6 !important; }
]]></style>
<style><![CDATA[
text { fill: #e6e6e6 !important; }
polygon { fill: #2f2f2f !important; stroke: #9aa0a6 !important; }
path, line, polyline { stroke: #4e67d6 !important; }
]]></style>
<style><![CDATA[
text { fill: #e6e6e6 !important; }
polygon { fill: #2f2f2f !important; stroke: #9aa0a6 !important; }
path, line, polyline { stroke: #4e67d6 !important; }
]]></style>
<style><![CDATA[
text { fill: #e6e6e6 !important; }
polygon { fill: #2f2f2f !important; stroke: #9aa0a6 !important; }
path, line, polyline { stroke: #4e67d6 !important; }
]]></style>
<g id="graph0" class="graph" transform="scale(1 1) rotate(0) translate(4 448)">
<title>SuperKWindow.cpp</title>
<!-- Node1 -->
<g id="node1" class="node">
<title>Node1</title>
<g id="a_node1"><a xlink:title="Super K window.">
<polygon fill="#bfbfbf" stroke="black" points="478.5,-420.5 478.5,-443.5 629.5,-443.5 629.5,-420.5 478.5,-420.5"/>
<text text-anchor="middle" x="554" y="-428.3" font-family="Helvetica,sans-Serif" font-size="14.00">SuperKWindow.cpp</text>
</a>
</g>
</g>
<!-- Node2 -->
<g id="node2" class="node">
<title>Node2</title>
<g id="a_node2"><a xlink:href="SuperKWindow_8h.html" target="_top" xlink:title="Super K window.">
<polygon fill="none" stroke="black" points="272,-360.5 272,-383.5 406,-383.5 406,-360.5 272,-360.5"/>
<text text-anchor="middle" x="339" y="-368.3" font-family="Helvetica,sans-Serif" font-size="14.00">SuperKWindow.h</text>
</a>
</g>
</g>
<!-- Node1&#45;&gt;Node2 -->
<g id="edge1" class="edge">
<title>Node1&#45;&gt;Node2</title>
<path fill="none" stroke="midnightblue" d="M515.07,-420.5C479.41,-410.88 426.48,-396.6 387.96,-386.21"/>
<polygon fill="midnightblue" stroke="midnightblue" points="388.57,-382.75 378.01,-383.52 386.75,-389.51 388.57,-382.75"/>
</g>
<!-- Node21 -->
<g id="node21" class="node">
<title>Node21</title>
<g id="a_node21"><a xlink:href="Utils_8h.html" target="_top" xlink:title="Utility helpers.">
<polygon fill="none" stroke="black" points="750.5,-180.5 750.5,-203.5 811.5,-203.5 811.5,-180.5 750.5,-180.5"/>
<text text-anchor="middle" x="781" y="-188.3" font-family="Helvetica,sans-Serif" font-size="14.00">Utils.h</text>
</a>
</g>
</g>
<!-- Node1&#45;&gt;Node21 -->
<g id="edge34" class="edge">
<title>Node1&#45;&gt;Node21</title>
<path fill="none" stroke="midnightblue" d="M567.93,-420.34C600.04,-395.36 680.69,-330.11 736,-264 749.52,-247.84 762.1,-227.32 770.51,-212.51"/>
<polygon fill="midnightblue" stroke="midnightblue" points="773.6,-214.14 775.39,-203.7 767.48,-210.74 773.6,-214.14"/>
</g>
<!-- Node3 -->
<g id="node3" class="node">
<title>Node3</title>
<g id="a_node3"><a xlink:href="SuperKControlWidget_8h.html" target="_top" xlink:title="Super K control widget.">
<polygon fill="none" stroke="black" points="367,-300.5 367,-323.5 545,-323.5 545,-300.5 367,-300.5"/>
<text text-anchor="middle" x="456" y="-308.3" font-family="Helvetica,sans-Serif" font-size="14.00">SuperKControlWidget.h</text>
</a>
</g>
</g>
<!-- Node2&#45;&gt;Node3 -->
<g id="edge2" class="edge">
<title>Node2&#45;&gt;Node3</title>
<path fill="none" stroke="midnightblue" d="M360.19,-360.5C378.46,-351.44 405.07,-338.25 425.61,-328.06"/>
<polygon fill="midnightblue" stroke="midnightblue" points="427.17,-331.2 434.57,-323.62 424.06,-324.93 427.17,-331.2"/>
</g>
<!-- Node19 -->
<g id="node19" class="node">
<title>Node19</title>
<g id="a_node19"><a xlink:title=" ">
<polygon fill="none" stroke="#bfbfbf" points="354.5,-120.5 354.5,-143.5 409.5,-143.5 409.5,-120.5 354.5,-120.5"/>
<text text-anchor="middle" x="382" y="-128.3" font-family="Helvetica,sans-Serif" font-size="14.00">QtSql</text>
</a>
</g>
</g>
<!-- Node2&#45;&gt;Node19 -->
<g id="edge32" class="edge">
<title>Node2&#45;&gt;Node19</title>
<path fill="none" stroke="midnightblue" d="M339.72,-360.37C340.73,-346.46 342.83,-321.32 346,-300 354.01,-246.2 357.93,-233.03 370,-180 371.97,-171.32 374.36,-161.8 376.49,-153.61"/>
<polygon fill="midnightblue" stroke="midnightblue" points="379.91,-154.35 379.07,-143.79 373.14,-152.57 379.91,-154.35"/>
</g>
<!-- Node20 -->
<g id="node20" class="node">
<title>Node20</title>
<g id="a_node20"><a xlink:title=" ">
<polygon fill="none" stroke="#bfbfbf" points="386.5,-180.5 386.5,-203.5 475.5,-203.5 475.5,-180.5 386.5,-180.5"/>
<text text-anchor="middle" x="431" y="-188.3" font-family="Helvetica,sans-Serif" font-size="14.00">QtWidgets</text>
</a>
</g>
</g>
<!-- Node2&#45;&gt;Node20 -->
<g id="edge33" class="edge">
<title>Node2&#45;&gt;Node20</title>
<path fill="none" stroke="midnightblue" d="M340.75,-360.02C343.29,-345.73 348.74,-320.18 358,-300 373.42,-266.38 399.17,-231.78 415.6,-211.35"/>
<polygon fill="midnightblue" stroke="midnightblue" points="418.4,-213.46 422.02,-203.5 412.98,-209.03 418.4,-213.46"/>
</g>
<!-- Node25 -->
<g id="node25" class="node">
<title>Node25</title>
<g id="a_node25"><a xlink:title=" ">
<polygon fill="none" stroke="#bfbfbf" points="157.5,-300.5 157.5,-323.5 272.5,-323.5 272.5,-300.5 157.5,-300.5"/>
<text text-anchor="middle" x="215" y="-308.3" font-family="Helvetica,sans-Serif" font-size="14.00">QMessageBox</text>
</a>
</g>
</g>
<!-- Node2&#45;&gt;Node25 -->
<g id="edge31" class="edge">
<title>Node2&#45;&gt;Node25</title>
<path fill="none" stroke="midnightblue" d="M316.54,-360.5C297.09,-351.4 268.72,-338.13 246.91,-327.93"/>
<polygon fill="midnightblue" stroke="midnightblue" points="248.25,-324.69 237.71,-323.62 245.28,-331.03 248.25,-324.69"/>
</g>
<!-- Node4 -->
<g id="node4" class="node">
<title>Node4</title>
<g id="a_node4"><a xlink:href="SuperK_8h.html" target="_top" xlink:title="Super K device interface.">
<polygon fill="none" stroke="black" points="474,-240.5 474,-263.5 554,-263.5 554,-240.5 474,-240.5"/>
<text text-anchor="middle" x="514" y="-248.3" font-family="Helvetica,sans-Serif" font-size="14.00">SuperK.h</text>
</a>
</g>
</g>
<!-- Node3&#45;&gt;Node4 -->
<g id="edge3" class="edge">
<title>Node3&#45;&gt;Node4</title>
<path fill="none" stroke="midnightblue" d="M466.64,-300.36C474.9,-292.1 486.53,-280.47 496.2,-270.8"/>
<polygon fill="midnightblue" stroke="midnightblue" points="498.83,-273.12 503.43,-263.57 493.88,-268.17 498.83,-273.12"/>
</g>
<!-- Node15 -->
<g id="node15" class="node">
<title>Node15</title>
<g id="a_node15"><a xlink:href="QsLog_8h.html" target="_top" xlink:title="Qs Log logging support.">
<polygon fill="none" stroke="black" points="717,-60.5 717,-83.5 791,-83.5 791,-60.5 717,-60.5"/>
<text text-anchor="middle" x="754" y="-68.3" font-family="Helvetica,sans-Serif" font-size="14.00">QsLog.h</text>
</a>
</g>
</g>
<!-- Node3&#45;&gt;Node15 -->
<g id="edge30" class="edge">
<title>Node3&#45;&gt;Node15</title>
<path fill="none" stroke="midnightblue" d="M500.08,-300.39C551.02,-286.13 634.65,-256.34 688,-204 720.26,-172.35 739.51,-121.64 748.28,-93.5"/>
<polygon fill="midnightblue" stroke="midnightblue" points="751.74,-94.16 751.23,-83.58 745.03,-92.17 751.74,-94.16"/>
</g>
<!-- Node3&#45;&gt;Node19 -->
<g id="edge28" class="edge">
<title>Node3&#45;&gt;Node19</title>
<path fill="none" stroke="midnightblue" d="M444.66,-300.49C426.42,-282.72 391.25,-244.65 378,-204 372.7,-187.72 374.31,-168.25 376.91,-153.82"/>
<polygon fill="midnightblue" stroke="midnightblue" points="380.36,-154.41 378.98,-143.9 373.51,-152.97 380.36,-154.41"/>
</g>
<!-- Node3&#45;&gt;Node20 -->
<g id="edge29" class="edge">
<title>Node3&#45;&gt;Node20</title>
<path fill="none" stroke="midnightblue" d="M453.69,-300.11C449.52,-280.43 440.67,-238.65 435.34,-213.48"/>
<polygon fill="midnightblue" stroke="midnightblue" points="438.73,-212.58 433.23,-203.52 431.88,-214.03 438.73,-212.58"/>
</g>
<!-- Node5 -->
<g id="node5" class="node">
<title>Node5</title>
<g id="a_node5"><a xlink:href="DriverSuperK_8h.html" target="_top" xlink:title="Driver implementation for Super K.">
<polygon fill="none" stroke="black" points="532.5,-180.5 532.5,-203.5 655.5,-203.5 655.5,-180.5 532.5,-180.5"/>
<text text-anchor="middle" x="594" y="-188.3" font-family="Helvetica,sans-Serif" font-size="14.00">DriverSuperK.h</text>
</a>
</g>
</g>
<!-- Node4&#45;&gt;Node5 -->
<g id="edge4" class="edge">
<title>Node4&#45;&gt;Node5</title>
<path fill="none" stroke="midnightblue" d="M528.67,-240.36C540.51,-231.78 557.39,-219.55 571.02,-209.66"/>
<polygon fill="midnightblue" stroke="midnightblue" points="573.38,-212.27 579.42,-203.57 569.27,-206.61 573.38,-212.27"/>
</g>
<!-- Node4&#45;&gt;Node15 -->
<g id="edge21" class="edge">
<title>Node4&#45;&gt;Node15</title>
<path fill="none" stroke="midnightblue" d="M554.02,-247.14C587.07,-242.1 633.49,-230.52 665,-204 697.09,-176.99 683.5,-154.04 708,-120 715.56,-109.5 725.44,-99.09 734.1,-90.74"/>
<polygon fill="midnightblue" stroke="midnightblue" points="736.7,-93.1 741.62,-83.71 731.92,-87.99 736.7,-93.1"/>
</g>
<!-- Node4&#45;&gt;Node19 -->
<g id="edge19" class="edge">
<title>Node4&#45;&gt;Node19</title>
<path fill="none" stroke="midnightblue" d="M512.19,-240.26C509.11,-225.05 501.51,-197.19 485,-180 467.37,-161.64 441.22,-149.83 419.68,-142.64"/>
<polygon fill="midnightblue" stroke="midnightblue" points="420.44,-139.21 409.85,-139.56 418.35,-145.89 420.44,-139.21"/>
</g>
<!-- Node4&#45;&gt;Node20 -->
<g id="edge20" class="edge">
<title>Node4&#45;&gt;Node20</title>
<path fill="none" stroke="midnightblue" d="M498.78,-240.36C486.37,-231.7 468.65,-219.31 454.44,-209.38"/>
<polygon fill="midnightblue" stroke="midnightblue" points="456.33,-206.43 446.13,-203.57 452.32,-212.17 456.33,-206.43"/>
</g>
<!-- Node4&#45;&gt;Node21 -->
<g id="edge22" class="edge">
<title>Node4&#45;&gt;Node21</title>
<path fill="none" stroke="midnightblue" d="M554.26,-242.25C604.55,-231.33 690.11,-212.74 740.51,-201.8"/>
<polygon fill="midnightblue" stroke="midnightblue" points="741.37,-205.19 750.4,-199.65 739.88,-198.35 741.37,-205.19"/>
</g>
<!-- Node6 -->
<g id="node6" class="node">
<title>Node6</title>
<g id="a_node6"><a xlink:href="ACCom_8h.html" target="_top" xlink:title="AC communication backend for AC Com.">
<polygon fill="none" stroke="black" points="440,-120.5 440,-143.5 520,-143.5 520,-120.5 440,-120.5"/>
<text text-anchor="middle" x="480" y="-128.3" font-family="Helvetica,sans-Serif" font-size="14.00">ACCom.h</text>
</a>
</g>
</g>
<!-- Node5&#45;&gt;Node6 -->
<g id="edge5" class="edge">
<title>Node5&#45;&gt;Node6</title>
<path fill="none" stroke="midnightblue" d="M573.36,-180.5C555.63,-171.48 529.86,-158.36 509.88,-148.2"/>
<polygon fill="midnightblue" stroke="midnightblue" points="511.38,-145.04 500.88,-143.62 508.2,-151.28 511.38,-145.04"/>
</g>
<!-- Node7 -->
<g id="node7" class="node">
<title>Node7</title>
<g id="a_node7"><a xlink:title=" ">
<polygon fill="none" stroke="#bfbfbf" points="458.5,-60.5 458.5,-83.5 515.5,-83.5 515.5,-60.5 458.5,-60.5"/>
<text text-anchor="middle" x="487" y="-68.3" font-family="Helvetica,sans-Serif" font-size="14.00">string</text>
</a>
</g>
</g>
<!-- Node6&#45;&gt;Node7 -->
<g id="edge6" class="edge">
<title>Node6&#45;&gt;Node7</title>
<path fill="none" stroke="midnightblue" d="M481.28,-120.36C482.18,-112.92 483.41,-102.74 484.5,-93.73"/>
<polygon fill="midnightblue" stroke="midnightblue" points="488,-93.92 485.72,-83.57 481.05,-93.08 488,-93.92"/>
</g>
<!-- Node8 -->
<g id="node8" class="node">
<title>Node8</title>
<g id="a_node8"><a xlink:title=" ">
<polygon fill="none" stroke="#bfbfbf" points="533.5,-60.5 533.5,-83.5 610.5,-83.5 610.5,-60.5 533.5,-60.5"/>
<text text-anchor="middle" x="572" y="-68.3" font-family="Helvetica,sans-Serif" font-size="14.00">iostream</text>
</a>
</g>
</g>
<!-- Node6&#45;&gt;Node8 -->
<g id="edge7" class="edge">
<title>Node6&#45;&gt;Node8</title>
<path fill="none" stroke="midnightblue" d="M496.87,-120.36C510.75,-111.61 530.63,-99.08 546.46,-89.1"/>
<polygon fill="midnightblue" stroke="midnightblue" points="548.64,-91.86 555.23,-83.57 544.91,-85.94 548.64,-91.86"/>
</g>
<!-- Node9 -->
<g id="node9" class="node">
<title>Node9</title>
<g id="a_node9"><a xlink:title=" ">
<polygon fill="none" stroke="#bfbfbf" points="629,-60.5 629,-83.5 699,-83.5 699,-60.5 629,-60.5"/>
<text text-anchor="middle" x="664" y="-68.3" font-family="Helvetica,sans-Serif" font-size="14.00">fstream</text>
</a>
</g>
</g>
<!-- Node6&#45;&gt;Node9 -->
<g id="edge8" class="edge">
<title>Node6&#45;&gt;Node9</title>
<path fill="none" stroke="midnightblue" d="M513.32,-120.5C543.45,-111 587.98,-96.96 620.83,-86.61"/>
<polygon fill="midnightblue" stroke="midnightblue" points="622.13,-89.87 630.62,-83.52 620.03,-83.19 622.13,-89.87"/>
</g>
<!-- Node10 -->
<g id="node10" class="node">
<title>Node10</title>
<g id="a_node10"><a xlink:title=" ">
<polygon fill="none" stroke="#bfbfbf" points="0,-60.5 0,-83.5 60,-83.5 60,-60.5 0,-60.5"/>
<text text-anchor="middle" x="30" y="-68.3" font-family="Helvetica,sans-Serif" font-size="14.00">vector</text>
</a>
</g>
</g>
<!-- Node6&#45;&gt;Node10 -->
<g id="edge9" class="edge">
<title>Node6&#45;&gt;Node10</title>
<path fill="none" stroke="midnightblue" d="M439.71,-123.29C432.82,-122.1 425.71,-120.95 419,-120 267.34,-98.56 224.35,-112.73 69.96,-83.91"/>
<polygon fill="midnightblue" stroke="midnightblue" points="70.59,-80.47 60.11,-82.05 69.28,-87.35 70.59,-80.47"/>
</g>
<!-- Node11 -->
<g id="node11" class="node">
<title>Node11</title>
<g id="a_node11"><a xlink:title=" ">
<polygon fill="none" stroke="#bfbfbf" points="78,-60.5 78,-83.5 152,-83.5 152,-60.5 78,-60.5"/>
<text text-anchor="middle" x="115" y="-68.3" font-family="Helvetica,sans-Serif" font-size="14.00">stdarg.h</text>
</a>
</g>
</g>
<!-- Node6&#45;&gt;Node11 -->
<g id="edge10" class="edge">
<title>Node6&#45;&gt;Node11</title>
<path fill="none" stroke="midnightblue" d="M439.68,-123.5C432.79,-122.28 425.69,-121.07 419,-120 307.8,-102.22 276.46,-105.3 161.95,-84.04"/>
<polygon fill="midnightblue" stroke="midnightblue" points="162.57,-80.6 152.09,-82.19 161.27,-87.48 162.57,-80.6"/>
</g>
<!-- Node12 -->
<g id="node12" class="node">
<title>Node12</title>
<g id="a_node12"><a xlink:href="PosixCompat_8h.html" target="_top" xlink:title=" ">
<polygon fill="none" stroke="black" points="170,-60.5 170,-83.5 290,-83.5 290,-60.5 170,-60.5"/>
<text text-anchor="middle" x="230" y="-68.3" font-family="Helvetica,sans-Serif" font-size="14.00">PosixCompat.h</text>
</a>
</g>
</g>
<!-- Node6&#45;&gt;Node12 -->
<g id="edge11" class="edge">
<title>Node6&#45;&gt;Node12</title>
<path fill="none" stroke="midnightblue" d="M439.83,-121.68C398.04,-111.99 332.3,-96.73 285.54,-85.89"/>
<polygon fill="midnightblue" stroke="midnightblue" points="286.11,-82.42 275.57,-83.57 284.52,-89.24 286.11,-82.42"/>
</g>
<!-- Node6&#45;&gt;Node15 -->
<g id="edge14" class="edge">
<title>Node6&#45;&gt;Node15</title>
<path fill="none" stroke="midnightblue" d="M520.03,-123.14C563.58,-114.51 635.49,-100 706.81,-84.22"/>
<polygon fill="midnightblue" stroke="midnightblue" points="707.86,-87.57 716.87,-81.99 706.35,-80.74 707.86,-87.57"/>
</g>
<!-- Node17 -->
<g id="node17" class="node">
<title>Node17</title>
<g id="a_node17"><a xlink:title=" ">
<polygon fill="none" stroke="#bfbfbf" points="457,-0.5 457,-23.5 527,-23.5 527,-0.5 457,-0.5"/>
<text text-anchor="middle" x="492" y="-8.3" font-family="Helvetica,sans-Serif" font-size="14.00">QString</text>
</a>
</g>
</g>
<!-- Node6&#45;&gt;Node17 -->
<g id="edge17" class="edge">
<title>Node6&#45;&gt;Node17</title>
<path fill="none" stroke="midnightblue" d="M439.93,-123.27C402.05,-115.06 349.26,-100.93 337,-84 330.74,-75.36 330.65,-68.57 337,-60 362.01,-26.29 410.55,-15.91 446.68,-13.12"/>
<polygon fill="midnightblue" stroke="midnightblue" points="447.21,-16.59 456.98,-12.5 446.79,-9.6 447.21,-16.59"/>
</g>
<!-- Node18 -->
<g id="node18" class="node">
<title>Node18</title>
<g id="a_node18"><a xlink:title=" ">
<polygon fill="none" stroke="#bfbfbf" points="346,-60.5 346,-83.5 440,-83.5 440,-60.5 346,-60.5"/>
<text text-anchor="middle" x="393" y="-68.3" font-family="Helvetica,sans-Serif" font-size="14.00">QStringList</text>
</a>
</g>
</g>
<!-- Node6&#45;&gt;Node18 -->
<g id="edge18" class="edge">
<title>Node6&#45;&gt;Node18</title>
<path fill="none" stroke="midnightblue" d="M464.04,-120.36C451.04,-111.7 432.47,-99.31 417.57,-89.38"/>
<polygon fill="midnightblue" stroke="midnightblue" points="419.12,-86.21 408.86,-83.57 415.24,-92.03 419.12,-86.21"/>
</g>
<!-- Node13 -->
<g id="node13" class="node">
<title>Node13</title>
<g id="a_node13"><a xlink:title=" ">
<polygon fill="none" stroke="#bfbfbf" points="144.5,-0.5 144.5,-23.5 221.5,-23.5 221.5,-0.5 144.5,-0.5"/>
<text text-anchor="middle" x="183" y="-8.3" font-family="Helvetica,sans-Serif" font-size="14.00">QtGlobal</text>
</a>
</g>
</g>
<!-- Node12&#45;&gt;Node13 -->
<g id="edge12" class="edge">
<title>Node12&#45;&gt;Node13</title>
<path fill="none" stroke="midnightblue" d="M221.38,-60.36C214.82,-52.27 205.63,-40.93 197.89,-31.38"/>
<polygon fill="midnightblue" stroke="midnightblue" points="200.58,-29.14 191.57,-23.57 195.14,-33.54 200.58,-29.14"/>
</g>
<!-- Node14 -->
<g id="node14" class="node">
<title>Node14</title>
<g id="a_node14"><a xlink:title=" ">
<polygon fill="none" stroke="#bfbfbf" points="240,-0.5 240,-23.5 314,-23.5 314,-0.5 240,-0.5"/>
<text text-anchor="middle" x="277" y="-8.3" font-family="Helvetica,sans-Serif" font-size="14.00">unistd.h</text>
</a>
</g>
</g>
<!-- Node12&#45;&gt;Node14 -->
<g id="edge13" class="edge">
<title>Node12&#45;&gt;Node14</title>
<path fill="none" stroke="midnightblue" d="M238.62,-60.36C245.18,-52.27 254.37,-40.93 262.11,-31.38"/>
<polygon fill="midnightblue" stroke="midnightblue" points="264.86,-33.54 268.43,-23.57 259.42,-29.14 264.86,-33.54"/>
</g>
<!-- Node16 -->
<g id="node16" class="node">
<title>Node16</title>
<g id="a_node16"><a xlink:title=" ">
<polygon fill="none" stroke="#bfbfbf" points="717,-0.5 717,-23.5 791,-23.5 791,-0.5 717,-0.5"/>
<text text-anchor="middle" x="754" y="-8.3" font-family="Helvetica,sans-Serif" font-size="14.00">QDebug</text>
</a>
</g>
</g>
<!-- Node15&#45;&gt;Node16 -->
<g id="edge15" class="edge">
<title>Node15&#45;&gt;Node16</title>
<path fill="none" stroke="midnightblue" d="M754,-60.36C754,-52.92 754,-42.74 754,-33.73"/>
<polygon fill="midnightblue" stroke="midnightblue" points="757.5,-33.57 754,-23.57 750.5,-33.57 757.5,-33.57"/>
</g>
<!-- Node15&#45;&gt;Node17 -->
<g id="edge16" class="edge">
<title>Node15&#45;&gt;Node17</title>
<path fill="none" stroke="midnightblue" d="M716.86,-62.05C713.86,-61.35 710.88,-60.66 708,-60 649.12,-46.55 581,-31.88 537.25,-22.56"/>
<polygon fill="midnightblue" stroke="midnightblue" points="537.73,-19.09 527.22,-20.43 536.27,-25.93 537.73,-19.09"/>
</g>
<!-- Node21&#45;&gt;Node15 -->
<g id="edge27" class="edge">
<title>Node21&#45;&gt;Node15</title>
<path fill="none" stroke="midnightblue" d="M778.51,-180.11C774,-160.43 764.44,-118.65 758.69,-93.48"/>
<polygon fill="midnightblue" stroke="midnightblue" points="762.05,-92.49 756.41,-83.52 755.23,-94.05 762.05,-92.49"/>
</g>
<!-- Node21&#45;&gt;Node19 -->
<g id="edge26" class="edge">
<title>Node21&#45;&gt;Node19</title>
<path fill="none" stroke="midnightblue" d="M750.43,-187.8C689.43,-181.23 548.38,-165.02 431,-144 427.31,-143.34 423.47,-142.59 419.64,-141.8"/>
<polygon fill="midnightblue" stroke="midnightblue" points="420.15,-138.33 409.64,-139.65 418.68,-145.17 420.15,-138.33"/>
</g>
<!-- Node22 -->
<g id="node22" class="node">
<title>Node22</title>
<g id="a_node22"><a xlink:title=" ">
<polygon fill="none" stroke="#bfbfbf" points="788,-120.5 788,-143.5 882,-143.5 882,-120.5 788,-120.5"/>
<text text-anchor="middle" x="835" y="-128.3" font-family="Helvetica,sans-Serif" font-size="14.00">QDateTime</text>
</a>
</g>
</g>
<!-- Node21&#45;&gt;Node22 -->
<g id="edge23" class="edge">
<title>Node21&#45;&gt;Node22</title>
<path fill="none" stroke="midnightblue" d="M790.9,-180.36C798.52,-172.19 809.21,-160.7 818.16,-151.09"/>
<polygon fill="midnightblue" stroke="midnightblue" points="820.91,-153.27 825.16,-143.57 815.78,-148.5 820.91,-153.27"/>
</g>
<!-- Node23 -->
<g id="node23" class="node">
<title>Node23</title>
<g id="a_node23"><a xlink:title=" ">
<polygon fill="none" stroke="#bfbfbf" points="900,-120.5 900,-143.5 948,-143.5 948,-120.5 900,-120.5"/>
<text text-anchor="middle" x="924" y="-128.3" font-family="Helvetica,sans-Serif" font-size="14.00">QDir</text>
</a>
</g>
</g>
<!-- Node21&#45;&gt;Node23 -->
<g id="edge24" class="edge">
<title>Node21&#45;&gt;Node23</title>
<path fill="none" stroke="midnightblue" d="M806.9,-180.5C830.3,-171 864.91,-156.97 890.43,-146.62"/>
<polygon fill="midnightblue" stroke="midnightblue" points="891.78,-149.85 899.73,-142.85 889.14,-143.36 891.78,-149.85"/>
</g>
<!-- Node24 -->
<g id="node24" class="node">
<title>Node24</title>
<g id="a_node24"><a xlink:title=" ">
<polygon fill="none" stroke="#bfbfbf" points="966.5,-120.5 966.5,-143.5 1061.5,-143.5 1061.5,-120.5 966.5,-120.5"/>
<text text-anchor="middle" x="1014" y="-128.3" font-family="Helvetica,sans-Serif" font-size="14.00">QTableView</text>
</a>
</g>
</g>
<!-- Node21&#45;&gt;Node24 -->
<g id="edge25" class="edge">
<title>Node21&#45;&gt;Node24</title>
<path fill="none" stroke="midnightblue" d="M811.94,-183.3C850.11,-173.8 915.6,-157.49 961.66,-146.03"/>
<polygon fill="midnightblue" stroke="midnightblue" points="962.6,-149.4 971.46,-143.59 960.91,-142.61 962.6,-149.4"/>
</g>
</g>
</svg>
