<?xml version="1.0" encoding="UTF-8" standalone="no"?>
<!DOCTYPE svg PUBLIC "-//W3C//DTD SVG 1.1//EN"
 "http://www.w3.org/Graphics/SVG/1.1/DTD/svg11.dtd">
<!-- Generated by graphviz version 2.50.0 (0)
 -->
<!-- Title: SuperKControlWidget.cpp Pages: 1 -->
<svg width="851pt" height="392pt"
 viewBox="0.00 0.00 850.67 392.00" xmlns="http://www.w3.org/2000/svg" xmlns:xlink="http://www.w3.org/1999/xlink">
<style><![CDATA[
text { fill: #e6e6e6 !important; }
polygon { fill: #2f2f2f !important; stroke: #9aa0a6 !important; }
path, line, polyline { stroke: #4e67d6 !important; }
]]></style>
<style><![CDATA[
text { fill: #e6e6e6 !important; }
polygon { fill: #2f2f2f !important; stroke: #9aa0a6 !important; }
path, line, polyline { stroke: #4e67d6 !important; }
]]></style>
<style><![CDATA[
text { fill: #e6e6e6 !important; }
polygon { fill: #2f2f2f !important; stroke: #9aa0a6 !important; }
path, line, polyline { stroke: #4e67d6 !important; }
]]></style>
<style><![CDATA[
text { fill: #e6e6e6 !important; }
polygon { fill: #2f2f2f !important; stroke: #9aa0a6 !important; }
path, line, polyline { stroke: #4e67d6 !important; }
]]></style>
<style><![CDATA[
text { fill: #e6e6e6 !important; }
polygon { fill: #2f2f2f !important; stroke: #9aa0a6 !important; }
path, line, polyline { stroke: #4e67d6 !important; }
]]></style>
<style><![CDATA[
text { fill: #e6e6e6 !important; }
polygon { fill: #2f2f2f !important; stroke: #9aa0a6 !important; }
path, line, polyline { stroke: #4e67d6 !important; }
]]></style>
<style><![CDATA[
text { fill: #e6e6e6 !important; }
polygon { fill: #2f2f2f !important; stroke: #9aa0a6 !important; }
path, line, polyline { stroke: #4e67d6 !important; }
]]></style>
<g id="graph0" class="graph" transform="scale(1 1) rotate(0) translate(4 388)">
<title>SuperKControlWidget.cpp</title>
<!-- Node1 -->
<g id="node1" class="node">
<title>Node1</title>
<g id="a_node1"><a xlink:title="Super K control widget.">
<polygon fill="#bfbfbf" stroke="black" points="257.17,-360.5 257.17,-383.5 451.17,-383.5 451.17,-360.5 257.17,-360.5"/>
<text text-anchor="middle" x="354.17" y="-368.3" font-family="Helvetica,sans-Serif" font-size="14.00">SuperKControlWidget.cpp</text>
</a>
</g>
</g>
<!-- Node2 -->
<g id="node2" class="node">
<title>Node2</title>
<g id="a_node2"><a xlink:href="SuperKControlWidget_8h.html" target="_top" xlink:title="Super K control widget.">
<polygon fill="none" stroke="black" points="265.17,-300.5 265.17,-323.5 443.17,-323.5 443.17,-300.5 265.17,-300.5"/>
<text text-anchor="middle" x="354.17" y="-308.3" font-family="Helvetica,sans-Serif" font-size="14.00">SuperKControlWidget.h</text>
</a>
</g>
</g>
<!-- Node1&#45;&gt;Node2 -->
<g id="edge1" class="edge">
<title>Node1&#45;&gt;Node2</title>
<path fill="none" stroke="midnightblue" d="M354.17,-360.36C354.17,-352.92 354.17,-342.74 354.17,-333.73"/>
<polygon fill="midnightblue" stroke="midnightblue" points="357.67,-333.57 354.17,-323.57 350.67,-333.57 357.67,-333.57"/>
</g>
<!-- Node3 -->
<g id="node3" class="node">
<title>Node3</title>
<g id="a_node3"><a xlink:href="SuperK_8h.html" target="_top" xlink:title="Super K device interface.">
<polygon fill="none" stroke="black" points="352.17,-240.5 352.17,-263.5 432.17,-263.5 432.17,-240.5 352.17,-240.5"/>
<text text-anchor="middle" x="392.17" y="-248.3" font-family="Helvetica,sans-Serif" font-size="14.00">SuperK.h</text>
</a>
</g>
</g>
<!-- Node2&#45;&gt;Node3 -->
<g id="edge2" class="edge">
<title>Node2&#45;&gt;Node3</title>
<path fill="none" stroke="midnightblue" d="M361.14,-300.36C366.33,-292.43 373.57,-281.39 379.75,-271.96"/>
<polygon fill="midnightblue" stroke="midnightblue" points="382.69,-273.85 385.24,-263.57 376.83,-270.02 382.69,-273.85"/>
</g>
<!-- Node14 -->
<g id="node14" class="node">
<title>Node14</title>
<g id="a_node14"><a xlink:href="QsLog_8h.html" target="_top" xlink:title="Qs Log logging support.">
<polygon fill="none" stroke="black" points="51.17,-60.5 51.17,-83.5 125.17,-83.5 125.17,-60.5 51.17,-60.5"/>
<text text-anchor="middle" x="88.17" y="-68.3" font-family="Helvetica,sans-Serif" font-size="14.00">QsLog.h</text>
</a>
</g>
</g>
<!-- Node2&#45;&gt;Node14 -->
<g id="edge29" class="edge">
<title>Node2&#45;&gt;Node14</title>
<path fill="none" stroke="midnightblue" d="M285.81,-300.49C202.71,-283.66 65.95,-241.94 4.17,-144 -10.89,-120.13 19.44,-100.16 47.76,-87.54"/>
<polygon fill="midnightblue" stroke="midnightblue" points="49.37,-90.66 57.22,-83.55 46.65,-84.21 49.37,-90.66"/>
</g>
<!-- Node18 -->
<g id="node18" class="node">
<title>Node18</title>
<g id="a_node18"><a xlink:title=" ">
<polygon fill="none" stroke="#bfbfbf" points="312.67,-120.5 312.67,-143.5 367.67,-143.5 367.67,-120.5 312.67,-120.5"/>
<text text-anchor="middle" x="340.17" y="-128.3" font-family="Helvetica,sans-Serif" font-size="14.00">QtSql</text>
</a>
</g>
</g>
<!-- Node2&#45;&gt;Node18 -->
<g id="edge27" class="edge">
<title>Node2&#45;&gt;Node18</title>
<path fill="none" stroke="midnightblue" d="M350.99,-300.29C348.35,-290.84 344.77,-276.64 343.17,-264 338.25,-225.27 338.58,-179.6 339.33,-153.7"/>
<polygon fill="midnightblue" stroke="midnightblue" points="342.83,-153.7 339.67,-143.58 335.83,-153.46 342.83,-153.7"/>
</g>
<!-- Node19 -->
<g id="node19" class="node">
<title>Node19</title>
<g id="a_node19"><a xlink:title=" ">
<polygon fill="none" stroke="#bfbfbf" points="565.67,-180.5 565.67,-203.5 654.67,-203.5 654.67,-180.5 565.67,-180.5"/>
<text text-anchor="middle" x="610.17" y="-188.3" font-family="Helvetica,sans-Serif" font-size="14.00">QtWidgets</text>
</a>
</g>
</g>
<!-- Node2&#45;&gt;Node19 -->
<g id="edge28" class="edge">
<title>Node2&#45;&gt;Node19</title>
<path fill="none" stroke="midnightblue" d="M377.34,-300.32C423.22,-279.17 525.72,-231.92 578.07,-207.8"/>
<polygon fill="midnightblue" stroke="midnightblue" points="579.62,-210.94 587.24,-203.57 576.69,-204.58 579.62,-210.94"/>
</g>
<!-- Node4 -->
<g id="node4" class="node">
<title>Node4</title>
<g id="a_node4"><a xlink:href="DriverSuperK_8h.html" target="_top" xlink:title="Driver implementation for Super K.">
<polygon fill="none" stroke="black" points="424.67,-180.5 424.67,-203.5 547.67,-203.5 547.67,-180.5 424.67,-180.5"/>
<text text-anchor="middle" x="486.17" y="-188.3" font-family="Helvetica,sans-Serif" font-size="14.00">DriverSuperK.h</text>
</a>
</g>
</g>
<!-- Node3&#45;&gt;Node4 -->
<g id="edge3" class="edge">
<title>Node3&#45;&gt;Node4</title>
<path fill="none" stroke="midnightblue" d="M409.41,-240.36C423.72,-231.53 444.28,-218.84 460.53,-208.82"/>
<polygon fill="midnightblue" stroke="midnightblue" points="462.36,-211.8 469.04,-203.57 458.69,-205.84 462.36,-211.8"/>
</g>
<!-- Node3&#45;&gt;Node14 -->
<g id="edge20" class="edge">
<title>Node3&#45;&gt;Node14</title>
<path fill="none" stroke="midnightblue" d="M394.64,-240.4C399.76,-215.55 408.46,-153.15 376.17,-120 340.16,-83.03 202.56,-93.12 135.41,-83.83"/>
<polygon fill="midnightblue" stroke="midnightblue" points="135.7,-80.33 125.27,-82.16 134.57,-87.24 135.7,-80.33"/>
</g>
<!-- Node3&#45;&gt;Node18 -->
<g id="edge18" class="edge">
<title>Node3&#45;&gt;Node18</title>
<path fill="none" stroke="midnightblue" d="M387.37,-240.11C378.62,-220.25 359.95,-177.9 348.9,-152.81"/>
<polygon fill="midnightblue" stroke="midnightblue" points="352.04,-151.26 344.81,-143.52 345.64,-154.09 352.04,-151.26"/>
</g>
<!-- Node3&#45;&gt;Node19 -->
<g id="edge19" class="edge">
<title>Node3&#45;&gt;Node19</title>
<path fill="none" stroke="midnightblue" d="M431.65,-240.5C467.8,-230.88 521.47,-216.6 560.52,-206.21"/>
<polygon fill="midnightblue" stroke="midnightblue" points="561.85,-209.48 570.62,-203.52 560.05,-202.71 561.85,-209.48"/>
</g>
<!-- Node20 -->
<g id="node20" class="node">
<title>Node20</title>
<g id="a_node20"><a xlink:href="Utils_8h.html" target="_top" xlink:title="Utility helpers.">
<polygon fill="none" stroke="black" points="171.67,-180.5 171.67,-203.5 232.67,-203.5 232.67,-180.5 171.67,-180.5"/>
<text text-anchor="middle" x="202.17" y="-188.3" font-family="Helvetica,sans-Serif" font-size="14.00">Utils.h</text>
</a>
</g>
</g>
<!-- Node3&#45;&gt;Node20 -->
<g id="edge21" class="edge">
<title>Node3&#45;&gt;Node20</title>
<path fill="none" stroke="midnightblue" d="M357.76,-240.5C325.35,-230.6 276.79,-215.78 242.56,-205.33"/>
<polygon fill="midnightblue" stroke="midnightblue" points="243.45,-201.94 232.87,-202.37 241.41,-208.64 243.45,-201.94"/>
</g>
<!-- Node5 -->
<g id="node5" class="node">
<title>Node5</title>
<g id="a_node5"><a xlink:href="ACCom_8h.html" target="_top" xlink:title="AC communication backend for AC Com.">
<polygon fill="none" stroke="black" points="435.17,-120.5 435.17,-143.5 515.17,-143.5 515.17,-120.5 435.17,-120.5"/>
<text text-anchor="middle" x="475.17" y="-128.3" font-family="Helvetica,sans-Serif" font-size="14.00">ACCom.h</text>
</a>
</g>
</g>
<!-- Node4&#45;&gt;Node5 -->
<g id="edge4" class="edge">
<title>Node4&#45;&gt;Node5</title>
<path fill="none" stroke="midnightblue" d="M484.15,-180.36C482.72,-172.84 480.77,-162.52 479.04,-153.43"/>
<polygon fill="midnightblue" stroke="midnightblue" points="482.48,-152.74 477.17,-143.57 475.6,-154.05 482.48,-152.74"/>
</g>
<!-- Node6 -->
<g id="node6" class="node">
<title>Node6</title>
<g id="a_node6"><a xlink:title=" ">
<polygon fill="none" stroke="#bfbfbf" points="785.67,-60.5 785.67,-83.5 842.67,-83.5 842.67,-60.5 785.67,-60.5"/>
<text text-anchor="middle" x="814.17" y="-68.3" font-family="Helvetica,sans-Serif" font-size="14.00">string</text>
</a>
</g>
</g>
<!-- Node5&#45;&gt;Node6 -->
<g id="edge5" class="edge">
<title>Node5&#45;&gt;Node6</title>
<path fill="none" stroke="midnightblue" d="M515.4,-126.37C571.54,-119.54 676.69,-105.45 775.76,-83.86"/>
<polygon fill="midnightblue" stroke="midnightblue" points="776.63,-87.26 785.63,-81.68 775.11,-80.42 776.63,-87.26"/>
</g>
<!-- Node7 -->
<g id="node7" class="node">
<title>Node7</title>
<g id="a_node7"><a xlink:title=" ">
<polygon fill="none" stroke="#bfbfbf" points="143.67,-60.5 143.67,-83.5 220.67,-83.5 220.67,-60.5 143.67,-60.5"/>
<text text-anchor="middle" x="182.17" y="-68.3" font-family="Helvetica,sans-Serif" font-size="14.00">iostream</text>
</a>
</g>
</g>
<!-- Node5&#45;&gt;Node7 -->
<g id="edge6" class="edge">
<title>Node5&#45;&gt;Node7</title>
<path fill="none" stroke="midnightblue" d="M434.76,-123.71C388.12,-115.18 308.85,-100.39 230.91,-84.1"/>
<polygon fill="midnightblue" stroke="midnightblue" points="231.42,-80.63 220.91,-82 229.98,-87.49 231.42,-80.63"/>
</g>
<!-- Node8 -->
<g id="node8" class="node">
<title>Node8</title>
<g id="a_node8"><a xlink:title=" ">
<polygon fill="none" stroke="#bfbfbf" points="239.17,-60.5 239.17,-83.5 309.17,-83.5 309.17,-60.5 239.17,-60.5"/>
<text text-anchor="middle" x="274.17" y="-68.3" font-family="Helvetica,sans-Serif" font-size="14.00">fstream</text>
</a>
</g>
</g>
<!-- Node5&#45;&gt;Node8 -->
<g id="edge7" class="edge">
<title>Node5&#45;&gt;Node8</title>
<path fill="none" stroke="midnightblue" d="M438.77,-120.5C405.16,-110.8 355.14,-96.36 319.07,-85.96"/>
<polygon fill="midnightblue" stroke="midnightblue" points="319.87,-82.54 309.29,-83.13 317.92,-89.27 319.87,-82.54"/>
</g>
<!-- Node9 -->
<g id="node9" class="node">
<title>Node9</title>
<g id="a_node9"><a xlink:title=" ">
<polygon fill="none" stroke="#bfbfbf" points="327.17,-60.5 327.17,-83.5 387.17,-83.5 387.17,-60.5 327.17,-60.5"/>
<text text-anchor="middle" x="357.17" y="-68.3" font-family="Helvetica,sans-Serif" font-size="14.00">vector</text>
</a>
</g>
</g>
<!-- Node5&#45;&gt;Node9 -->
<g id="edge8" class="edge">
<title>Node5&#45;&gt;Node9</title>
<path fill="none" stroke="midnightblue" d="M453.8,-120.5C435.37,-111.44 408.53,-98.25 387.81,-88.06"/>
<polygon fill="midnightblue" stroke="midnightblue" points="389.3,-84.89 378.78,-83.62 386.21,-91.17 389.3,-84.89"/>
</g>
<!-- Node10 -->
<g id="node10" class="node">
<title>Node10</title>
<g id="a_node10"><a xlink:title=" ">
<polygon fill="none" stroke="#bfbfbf" points="405.17,-60.5 405.17,-83.5 479.17,-83.5 479.17,-60.5 405.17,-60.5"/>
<text text-anchor="middle" x="442.17" y="-68.3" font-family="Helvetica,sans-Serif" font-size="14.00">stdarg.h</text>
</a>
</g>
</g>
<!-- Node5&#45;&gt;Node10 -->
<g id="edge9" class="edge">
<title>Node5&#45;&gt;Node10</title>
<path fill="none" stroke="midnightblue" d="M469.12,-120.36C464.7,-112.59 458.58,-101.84 453.29,-92.55"/>
<polygon fill="midnightblue" stroke="midnightblue" points="456.17,-90.53 448.18,-83.57 450.09,-93.99 456.17,-90.53"/>
</g>
<!-- Node11 -->
<g id="node11" class="node">
<title>Node11</title>
<g id="a_node11"><a xlink:href="PosixCompat_8h.html" target="_top" xlink:title=" ">
<polygon fill="none" stroke="black" points="535.17,-60.5 535.17,-83.5 655.17,-83.5 655.17,-60.5 535.17,-60.5"/>
<text text-anchor="middle" x="595.17" y="-68.3" font-family="Helvetica,sans-Serif" font-size="14.00">PosixCompat.h</text>
</a>
</g>
</g>
<!-- Node5&#45;&gt;Node11 -->
<g id="edge10" class="edge">
<title>Node5&#45;&gt;Node11</title>
<path fill="none" stroke="midnightblue" d="M496.9,-120.5C515.64,-111.44 542.93,-98.25 564,-88.06"/>
<polygon fill="midnightblue" stroke="midnightblue" points="565.71,-91.12 573.19,-83.62 562.67,-84.82 565.71,-91.12"/>
</g>
<!-- Node5&#45;&gt;Node14 -->
<g id="edge13" class="edge">
<title>Node5&#45;&gt;Node14</title>
<path fill="none" stroke="midnightblue" d="M434.98,-123.95C426.78,-122.59 418.2,-121.2 410.17,-120 291.05,-102.16 257.58,-106.18 135.38,-84.08"/>
<polygon fill="midnightblue" stroke="midnightblue" points="135.72,-80.58 125.25,-82.22 134.46,-87.47 135.72,-80.58"/>
</g>
<!-- Node16 -->
<g id="node16" class="node">
<title>Node16</title>
<g id="a_node16"><a xlink:title=" ">
<polygon fill="none" stroke="#bfbfbf" points="306.17,-0.5 306.17,-23.5 376.17,-23.5 376.17,-0.5 306.17,-0.5"/>
<text text-anchor="middle" x="341.17" y="-8.3" font-family="Helvetica,sans-Serif" font-size="14.00">QString</text>
</a>
</g>
</g>
<!-- Node5&#45;&gt;Node16 -->
<g id="edge16" class="edge">
<title>Node5&#45;&gt;Node16</title>
<path fill="none" stroke="midnightblue" d="M481.72,-120.26C489.9,-105.3 501.32,-78.01 488.17,-60 465.12,-28.43 420.59,-17.58 386.56,-14.08"/>
<polygon fill="midnightblue" stroke="midnightblue" points="386.62,-10.58 376.37,-13.22 386.03,-17.55 386.62,-10.58"/>
</g>
<!-- Node17 -->
<g id="node17" class="node">
<title>Node17</title>
<g id="a_node17"><a xlink:title=" ">
<polygon fill="none" stroke="#bfbfbf" points="673.17,-60.5 673.17,-83.5 767.17,-83.5 767.17,-60.5 673.17,-60.5"/>
<text text-anchor="middle" x="720.17" y="-68.3" font-family="Helvetica,sans-Serif" font-size="14.00">QStringList</text>
</a>
</g>
</g>
<!-- Node5&#45;&gt;Node17 -->
<g id="edge17" class="edge">
<title>Node5&#45;&gt;Node17</title>
<path fill="none" stroke="midnightblue" d="M515.35,-121.49C556.24,-111.81 619.91,-96.73 665.4,-85.97"/>
<polygon fill="midnightblue" stroke="midnightblue" points="666.47,-89.31 675.39,-83.6 664.86,-82.5 666.47,-89.31"/>
</g>
<!-- Node12 -->
<g id="node12" class="node">
<title>Node12</title>
<g id="a_node12"><a xlink:title=" ">
<polygon fill="none" stroke="#bfbfbf" points="509.67,-0.5 509.67,-23.5 586.67,-23.5 586.67,-0.5 509.67,-0.5"/>
<text text-anchor="middle" x="548.17" y="-8.3" font-family="Helvetica,sans-Serif" font-size="14.00">QtGlobal</text>
</a>
</g>
</g>
<!-- Node11&#45;&gt;Node12 -->
<g id="edge11" class="edge">
<title>Node11&#45;&gt;Node12</title>
<path fill="none" stroke="midnightblue" d="M586.55,-60.36C579.99,-52.27 570.8,-40.93 563.06,-31.38"/>
<polygon fill="midnightblue" stroke="midnightblue" points="565.75,-29.14 556.73,-23.57 560.31,-33.54 565.75,-29.14"/>
</g>
<!-- Node13 -->
<g id="node13" class="node">
<title>Node13</title>
<g id="a_node13"><a xlink:title=" ">
<polygon fill="none" stroke="#bfbfbf" points="605.17,-0.5 605.17,-23.5 679.17,-23.5 679.17,-0.5 605.17,-0.5"/>
<text text-anchor="middle" x="642.17" y="-8.3" font-family="Helvetica,sans-Serif" font-size="14.00">unistd.h</text>
</a>
</g>
</g>
<!-- Node11&#45;&gt;Node13 -->
<g id="edge12" class="edge">
<title>Node11&#45;&gt;Node13</title>
<path fill="none" stroke="midnightblue" d="M603.79,-60.36C610.35,-52.27 619.53,-40.93 627.27,-31.38"/>
<polygon fill="midnightblue" stroke="midnightblue" points="630.03,-33.54 633.6,-23.57 624.59,-29.14 630.03,-33.54"/>
</g>
<!-- Node15 -->
<g id="node15" class="node">
<title>Node15</title>
<g id="a_node15"><a xlink:title=" ">
<polygon fill="none" stroke="#bfbfbf" points="51.17,-0.5 51.17,-23.5 125.17,-23.5 125.17,-0.5 51.17,-0.5"/>
<text text-anchor="middle" x="88.17" y="-8.3" font-family="Helvetica,sans-Serif" font-size="14.00">QDebug</text>
</a>
</g>
</g>
<!-- Node14&#45;&gt;Node15 -->
<g id="edge14" class="edge">
<title>Node14&#45;&gt;Node15</title>
<path fill="none" stroke="midnightblue" d="M88.17,-60.36C88.17,-52.92 88.17,-42.74 88.17,-33.73"/>
<polygon fill="midnightblue" stroke="midnightblue" points="91.67,-33.57 88.17,-23.57 84.67,-33.57 91.67,-33.57"/>
</g>
<!-- Node14&#45;&gt;Node16 -->
<g id="edge15" class="edge">
<title>Node14&#45;&gt;Node16</title>
<path fill="none" stroke="midnightblue" d="M125.32,-62.08C128.31,-61.37 131.29,-60.67 134.17,-60 189.87,-47.02 254.12,-32.5 296.07,-23.08"/>
<polygon fill="midnightblue" stroke="midnightblue" points="296.99,-26.46 305.98,-20.86 295.46,-19.63 296.99,-26.46"/>
</g>
<!-- Node20&#45;&gt;Node14 -->
<g id="edge26" class="edge">
<title>Node20&#45;&gt;Node14</title>
<path fill="none" stroke="midnightblue" d="M171.3,-187.92C122.63,-182.35 31.59,-168.82 12.17,-144 -4.71,-122.44 25.07,-101.51 52.15,-88.03"/>
<polygon fill="midnightblue" stroke="midnightblue" points="54,-91.03 61.54,-83.59 51,-84.7 54,-91.03"/>
</g>
<!-- Node20&#45;&gt;Node18 -->
<g id="edge25" class="edge">
<title>Node20&#45;&gt;Node18</title>
<path fill="none" stroke="midnightblue" d="M227.16,-180.5C249.1,-171.27 281.23,-157.77 305.63,-147.52"/>
<polygon fill="midnightblue" stroke="midnightblue" points="307.03,-150.72 314.9,-143.62 304.32,-144.27 307.03,-150.72"/>
</g>
<!-- Node21 -->
<g id="node21" class="node">
<title>Node21</title>
<g id="a_node21"><a xlink:title=" ">
<polygon fill="none" stroke="#bfbfbf" points="21.17,-120.5 21.17,-143.5 115.17,-143.5 115.17,-120.5 21.17,-120.5"/>
<text text-anchor="middle" x="68.17" y="-128.3" font-family="Helvetica,sans-Serif" font-size="14.00">QDateTime</text>
</a>
</g>
</g>
<!-- Node20&#45;&gt;Node21 -->
<g id="edge22" class="edge">
<title>Node20&#45;&gt;Node21</title>
<path fill="none" stroke="midnightblue" d="M177.9,-180.5C156.69,-171.32 125.67,-157.89 102.02,-147.65"/>
<polygon fill="midnightblue" stroke="midnightblue" points="103.27,-144.38 92.71,-143.62 100.49,-150.81 103.27,-144.38"/>
</g>
<!-- Node22 -->
<g id="node22" class="node">
<title>Node22</title>
<g id="a_node22"><a xlink:title=" ">
<polygon fill="none" stroke="#bfbfbf" points="133.17,-120.5 133.17,-143.5 181.17,-143.5 181.17,-120.5 133.17,-120.5"/>
<text text-anchor="middle" x="157.17" y="-128.3" font-family="Helvetica,sans-Serif" font-size="14.00">QDir</text>
</a>
</g>
</g>
<!-- Node20&#45;&gt;Node22 -->
<g id="edge23" class="edge">
<title>Node20&#45;&gt;Node22</title>
<path fill="none" stroke="midnightblue" d="M193.91,-180.36C187.7,-172.35 179.02,-161.16 171.65,-151.67"/>
<polygon fill="midnightblue" stroke="midnightblue" points="174.26,-149.33 165.37,-143.57 168.73,-153.62 174.26,-149.33"/>
</g>
<!-- Node23 -->
<g id="node23" class="node">
<title>Node23</title>
<g id="a_node23"><a xlink:title=" ">
<polygon fill="none" stroke="#bfbfbf" points="199.67,-120.5 199.67,-143.5 294.67,-143.5 294.67,-120.5 199.67,-120.5"/>
<text text-anchor="middle" x="247.17" y="-128.3" font-family="Helvetica,sans-Serif" font-size="14.00">QTableView</text>
</a>
</g>
</g>
<!-- Node20&#45;&gt;Node23 -->
<g id="edge24" class="edge">
<title>Node20&#45;&gt;Node23</title>
<path fill="none" stroke="midnightblue" d="M210.42,-180.36C216.64,-172.35 225.32,-161.16 232.68,-151.67"/>
<polygon fill="midnightblue" stroke="midnightblue" points="235.6,-153.62 238.97,-143.57 230.07,-149.33 235.6,-153.62"/>
</g>
</g>
</svg>
