<?xml version="1.0" encoding="UTF-8" standalone="no"?>
<!DOCTYPE svg PUBLIC "-//W3C//DTD SVG 1.1//EN"
 "http://www.w3.org/Graphics/SVG/1.1/DTD/svg11.dtd">
<!-- Generated by graphviz version 2.50.0 (0)
 -->
<!-- Title: Utils.cpp Pages: 1 -->
<svg width="779pt" height="212pt"
 viewBox="0.00 0.00 779.00 212.00" xmlns="http://www.w3.org/2000/svg" xmlns:xlink="http://www.w3.org/1999/xlink">
<style><![CDATA[
text { fill: #e6e6e6 !important; }
polygon { fill: #2f2f2f !important; stroke: #9aa0a6 !important; }
path, line, polyline { stroke: #4e67d6 !important; }
]]></style>
<style><![CDATA[
text { fill: #e6e6e6 !important; }
polygon { fill: #2f2f2f !important; stroke: #9aa0a6 !important; }
path, line, polyline { stroke: #4e67d6 !important; }
]]></style>
<style><![CDATA[
text { fill: #e6e6e6 !important; }
polygon { fill: #2f2f2f !important; stroke: #9aa0a6 !important; }
path, line, polyline { stroke: #4e67d6 !important; }
]]></style>
<style><![CDATA[
text { fill: #e6e6e6 !important; }
polygon { fill: #2f2f2f !important; stroke: #9aa0a6 !important; }
path, line, polyline { stroke: #4e67d6 !important; }
]]></style>
<style><![CDATA[
text { fill: #e6e6e6 !important; }
polygon { fill: #2f2f2f !important; stroke: #9aa0a6 !important; }
path, line, polyline { stroke: #4e67d6 !important; }
]]></style>
<style><![CDATA[
text { fill: #e6e6e6 !important; }
polygon { fill: #2f2f2f !important; stroke: #9aa0a6 !important; }
path, line, polyline { stroke: #4e67d6 !important; }
]]></style>
<style><![CDATA[
text { fill: #e6e6e6 !important; }
polygon { fill: #2f2f2f !important; stroke: #9aa0a6 !important; }
path, line, polyline { stroke: #4e67d6 !important; }
]]></style>
<g id="graph0" class="graph" transform="scale(1 1) rotate(0) translate(4 208)">
<title>Utils.cpp</title>
<!-- Node1 -->
<g id="node1" class="node">
<title>Node1</title>
<g id="a_node1"><a xlink:title="Utility helpers.">
<polygon fill="#bfbfbf" stroke="black" points="398.5,-180.5 398.5,-203.5 475.5,-203.5 475.5,-180.5 398.5,-180.5"/>
<text text-anchor="middle" x="437" y="-188.3" font-family="Helvetica,sans-Serif" font-size="14.00">Utils.cpp</text>
</a>
</g>
</g>
<!-- Node2 -->
<g id="node2" class="node">
<title>Node2</title>
<g id="a_node2"><a xlink:href="Utils_8h.html" target="_top" xlink:title="Utility helpers.">
<polygon fill="none" stroke="black" points="195.5,-120.5 195.5,-143.5 256.5,-143.5 256.5,-120.5 195.5,-120.5"/>
<text text-anchor="middle" x="226" y="-128.3" font-family="Helvetica,sans-Serif" font-size="14.00">Utils.h</text>
</a>
</g>
</g>
<!-- Node1&#45;&gt;Node2 -->
<g id="edge1" class="edge">
<title>Node1&#45;&gt;Node2</title>
<path fill="none" stroke="midnightblue" d="M398.79,-180.5C361.4,-170.22 304.65,-154.62 266.49,-144.13"/>
<polygon fill="midnightblue" stroke="midnightblue" points="267.31,-140.72 256.73,-141.45 265.45,-147.47 267.31,-140.72"/>
</g>
<!-- Node10 -->
<g id="node10" class="node">
<title>Node10</title>
<g id="a_node10"><a xlink:title=" ">
<polygon fill="none" stroke="#bfbfbf" points="275,-120.5 275,-143.5 339,-143.5 339,-120.5 275,-120.5"/>
<text text-anchor="middle" x="307" y="-128.3" font-family="Helvetica,sans-Serif" font-size="14.00">chrono</text>
</a>
</g>
</g>
<!-- Node1&#45;&gt;Node10 -->
<g id="edge9" class="edge">
<title>Node1&#45;&gt;Node10</title>
<path fill="none" stroke="midnightblue" d="M413.46,-180.5C392.97,-171.36 363.05,-158.01 340.15,-147.79"/>
<polygon fill="midnightblue" stroke="midnightblue" points="341.36,-144.5 330.81,-143.62 338.51,-150.89 341.36,-144.5"/>
</g>
<!-- Node11 -->
<g id="node11" class="node">
<title>Node11</title>
<g id="a_node11"><a xlink:title=" ">
<polygon fill="none" stroke="#bfbfbf" points="357.5,-120.5 357.5,-143.5 516.5,-143.5 516.5,-120.5 357.5,-120.5"/>
<text text-anchor="middle" x="437" y="-128.3" font-family="Helvetica,sans-Serif" font-size="14.00">QAbstractItemModel</text>
</a>
</g>
</g>
<!-- Node1&#45;&gt;Node11 -->
<g id="edge10" class="edge">
<title>Node1&#45;&gt;Node11</title>
<path fill="none" stroke="midnightblue" d="M437,-180.36C437,-172.92 437,-162.74 437,-153.73"/>
<polygon fill="midnightblue" stroke="midnightblue" points="440.5,-153.57 437,-143.57 433.5,-153.57 440.5,-153.57"/>
</g>
<!-- Node12 -->
<g id="node12" class="node">
<title>Node12</title>
<g id="a_node12"><a xlink:title=" ">
<polygon fill="none" stroke="#bfbfbf" points="535,-120.5 535,-143.5 643,-143.5 643,-120.5 535,-120.5"/>
<text text-anchor="middle" x="589" y="-128.3" font-family="Helvetica,sans-Serif" font-size="14.00">QFontMetrics</text>
</a>
</g>
</g>
<!-- Node1&#45;&gt;Node12 -->
<g id="edge11" class="edge">
<title>Node1&#45;&gt;Node12</title>
<path fill="none" stroke="midnightblue" d="M464.53,-180.5C488.98,-171.16 524.94,-157.44 551.92,-147.15"/>
<polygon fill="midnightblue" stroke="midnightblue" points="553.33,-150.36 561.42,-143.52 550.83,-143.82 553.33,-150.36"/>
</g>
<!-- Node13 -->
<g id="node13" class="node">
<title>Node13</title>
<g id="a_node13"><a xlink:title=" ">
<polygon fill="none" stroke="#bfbfbf" points="661,-120.5 661,-143.5 771,-143.5 771,-120.5 661,-120.5"/>
<text text-anchor="middle" x="716" y="-128.3" font-family="Helvetica,sans-Serif" font-size="14.00">QHeaderView</text>
</a>
</g>
</g>
<!-- Node1&#45;&gt;Node13 -->
<g id="edge12" class="edge">
<title>Node1&#45;&gt;Node13</title>
<path fill="none" stroke="midnightblue" d="M475.5,-183C521.94,-173.34 600.57,-157 655.22,-145.63"/>
<polygon fill="midnightblue" stroke="midnightblue" points="656.06,-149.04 665.14,-143.57 654.63,-142.18 656.06,-149.04"/>
</g>
<!-- Node3 -->
<g id="node3" class="node">
<title>Node3</title>
<g id="a_node3"><a xlink:title=" ">
<polygon fill="none" stroke="#bfbfbf" points="0,-60.5 0,-83.5 94,-83.5 94,-60.5 0,-60.5"/>
<text text-anchor="middle" x="47" y="-68.3" font-family="Helvetica,sans-Serif" font-size="14.00">QDateTime</text>
</a>
</g>
</g>
<!-- Node2&#45;&gt;Node3 -->
<g id="edge2" class="edge">
<title>Node2&#45;&gt;Node3</title>
<path fill="none" stroke="midnightblue" d="M195.23,-121.03C165.97,-111.55 121.72,-97.21 89.18,-86.67"/>
<polygon fill="midnightblue" stroke="midnightblue" points="90.08,-83.28 79.48,-83.53 87.92,-89.94 90.08,-83.28"/>
</g>
<!-- Node4 -->
<g id="node4" class="node">
<title>Node4</title>
<g id="a_node4"><a xlink:title=" ">
<polygon fill="none" stroke="#bfbfbf" points="112,-60.5 112,-83.5 160,-83.5 160,-60.5 112,-60.5"/>
<text text-anchor="middle" x="136" y="-68.3" font-family="Helvetica,sans-Serif" font-size="14.00">QDir</text>
</a>
</g>
</g>
<!-- Node2&#45;&gt;Node4 -->
<g id="edge3" class="edge">
<title>Node2&#45;&gt;Node4</title>
<path fill="none" stroke="midnightblue" d="M209.49,-120.36C195.92,-111.61 176.47,-99.08 160.99,-89.1"/>
<polygon fill="midnightblue" stroke="midnightblue" points="162.7,-86.05 152.4,-83.57 158.91,-91.93 162.7,-86.05"/>
</g>
<!-- Node5 -->
<g id="node5" class="node">
<title>Node5</title>
<g id="a_node5"><a xlink:title=" ">
<polygon fill="none" stroke="#bfbfbf" points="178.5,-60.5 178.5,-83.5 273.5,-83.5 273.5,-60.5 178.5,-60.5"/>
<text text-anchor="middle" x="226" y="-68.3" font-family="Helvetica,sans-Serif" font-size="14.00">QTableView</text>
</a>
</g>
</g>
<!-- Node2&#45;&gt;Node5 -->
<g id="edge4" class="edge">
<title>Node2&#45;&gt;Node5</title>
<path fill="none" stroke="midnightblue" d="M226,-120.36C226,-112.92 226,-102.74 226,-93.73"/>
<polygon fill="midnightblue" stroke="midnightblue" points="229.5,-93.57 226,-83.57 222.5,-93.57 229.5,-93.57"/>
</g>
<!-- Node6 -->
<g id="node6" class="node">
<title>Node6</title>
<g id="a_node6"><a xlink:title=" ">
<polygon fill="none" stroke="#bfbfbf" points="291.5,-60.5 291.5,-83.5 346.5,-83.5 346.5,-60.5 291.5,-60.5"/>
<text text-anchor="middle" x="319" y="-68.3" font-family="Helvetica,sans-Serif" font-size="14.00">QtSql</text>
</a>
</g>
</g>
<!-- Node2&#45;&gt;Node6 -->
<g id="edge5" class="edge">
<title>Node2&#45;&gt;Node6</title>
<path fill="none" stroke="midnightblue" d="M243.06,-120.36C257.08,-111.61 277.18,-99.08 293.18,-89.1"/>
<polygon fill="midnightblue" stroke="midnightblue" points="295.42,-91.83 302.05,-83.57 291.71,-85.89 295.42,-91.83"/>
</g>
<!-- Node7 -->
<g id="node7" class="node">
<title>Node7</title>
<g id="a_node7"><a xlink:href="QsLog_8h.html" target="_top" xlink:title="Qs Log logging support.">
<polygon fill="none" stroke="black" points="365,-60.5 365,-83.5 439,-83.5 439,-60.5 365,-60.5"/>
<text text-anchor="middle" x="402" y="-68.3" font-family="Helvetica,sans-Serif" font-size="14.00">QsLog.h</text>
</a>
</g>
</g>
<!-- Node2&#45;&gt;Node7 -->
<g id="edge6" class="edge">
<title>Node2&#45;&gt;Node7</title>
<path fill="none" stroke="midnightblue" d="M256.66,-120.9C285.27,-111.47 328.22,-97.31 360.01,-86.84"/>
<polygon fill="midnightblue" stroke="midnightblue" points="361.51,-90.03 369.91,-83.57 359.32,-83.38 361.51,-90.03"/>
</g>
<!-- Node8 -->
<g id="node8" class="node">
<title>Node8</title>
<g id="a_node8"><a xlink:title=" ">
<polygon fill="none" stroke="#bfbfbf" points="320,-0.5 320,-23.5 394,-23.5 394,-0.5 320,-0.5"/>
<text text-anchor="middle" x="357" y="-8.3" font-family="Helvetica,sans-Serif" font-size="14.00">QDebug</text>
</a>
</g>
</g>
<!-- Node7&#45;&gt;Node8 -->
<g id="edge7" class="edge">
<title>Node7&#45;&gt;Node8</title>
<path fill="none" stroke="midnightblue" d="M393.75,-60.36C387.53,-52.35 378.85,-41.16 371.49,-31.67"/>
<polygon fill="midnightblue" stroke="midnightblue" points="374.1,-29.33 365.2,-23.57 368.57,-33.62 374.1,-29.33"/>
</g>
<!-- Node9 -->
<g id="node9" class="node">
<title>Node9</title>
<g id="a_node9"><a xlink:title=" ">
<polygon fill="none" stroke="#bfbfbf" points="412,-0.5 412,-23.5 482,-23.5 482,-0.5 412,-0.5"/>
<text text-anchor="middle" x="447" y="-8.3" font-family="Helvetica,sans-Serif" font-size="14.00">QString</text>
</a>
</g>
</g>
<!-- Node7&#45;&gt;Node9 -->
<g id="edge8" class="edge">
<title>Node7&#45;&gt;Node9</title>
<path fill="none" stroke="midnightblue" d="M410.25,-60.36C416.47,-52.35 425.15,-41.16 432.51,-31.67"/>
<polygon fill="midnightblue" stroke="midnightblue" points="435.43,-33.62 438.8,-23.57 429.9,-29.33 435.43,-33.62"/>
</g>
</g>
</svg>
