<?xml version="1.0" encoding="UTF-8" standalone="no"?>
<!DOCTYPE svg PUBLIC "-//W3C//DTD SVG 1.1//EN"
 "http://www.w3.org/Graphics/SVG/1.1/DTD/svg11.dtd">
<!-- Generated by graphviz version 2.50.0 (0)
 -->
<!-- Title: VideoPlayer.cpp Pages: 1 -->
<!--zoomable 272 -->
<svg id="main" version="1.1" xmlns="http://www.w3.org/2000/svg" xmlns:xlink="http://www.w3.org/1999/xlink" xml:space="preserve" onload="init(evt)">
<style><![CDATA[
text { fill: #e6e6e6 !important; }
polygon { fill: #2f2f2f !important; stroke: #9aa0a6 !important; }
path, line, polyline { stroke: #4e67d6 !important; }
]]></style>
<style><![CDATA[
text { fill: #e6e6e6 !important; }
polygon { fill: #2f2f2f !important; stroke: #9aa0a6 !important; }
path, line, polyline { stroke: #4e67d6 !important; }
]]></style>
<style><![CDATA[
text { fill: #e6e6e6 !important; }
polygon { fill: #2f2f2f !important; stroke: #9aa0a6 !important; }
path, line, polyline { stroke: #4e67d6 !important; }
]]></style>
<style><![CDATA[
text { fill: #e6e6e6 !important; }
polygon { fill: #2f2f2f !important; stroke: #9aa0a6 !important; }
path, line, polyline { stroke: #4e67d6 !important; }
]]></style>
<style><![CDATA[
text { fill: #e6e6e6 !important; }
polygon { fill: #2f2f2f !important; stroke: #9aa0a6 !important; }
path, line, polyline { stroke: #4e67d6 !important; }
]]></style>
<style><![CDATA[
text { fill: #e6e6e6 !important; }
polygon { fill: #2f2f2f !important; stroke: #9aa0a6 !important; }
path, line, polyline { stroke: #4e67d6 !important; }
]]></style>
<style><![CDATA[
text { fill: #e6e6e6 !important; }
polygon { fill: #2f2f2f !important; stroke: #9aa0a6 !important; }
path, line, polyline { stroke: #4e67d6 !important; }
]]></style>
<style type="text/css"><![CDATA[
.edge:hover path { stroke: red; }
.edge:hover polygon { stroke: red; fill: red; }
]]></style>
<script type="text/javascript"><![CDATA[
var edges = document.getElementsByTagName('g');
if (edges && edges.length) {
  for (var i=0;i<edges.length;i++) {
    if (edges[i].id.substr(0,4)=='edge') {
      edges[i].setAttribute('class','edge');
    }
  }
}
]]></script>
        <defs>
                <circle id="rim" cx="0" cy="0" r="7"/>
                <circle id="rim2" cx="0" cy="0" r="3.5"/>
                <g id="zoomPlus">
                        <use xlink:href="#rim" fill="#404040">
                                <set attributeName="fill" to="#808080" begin="zoomplus.mouseover" end="zoomplus.mouseout"/>
                        </use>
                        <path d="M-4,0h8M0,-4v8" fill="none" stroke="white" stroke-width="1.5" pointer-events="none"/>
                </g>
                <g id="zoomMin">
                        <use xlink:href="#rim" fill="#404040">
                                <set attributeName="fill" to="#808080" begin="zoomminus.mouseover" end="zoomminus.mouseout"/>
                        </use>
                        <path d="M-4,0h8" fill="none" stroke="white" stroke-width="1.5" pointer-events="none"/>
                </g>
                <g id="dirArrow">
                        <path fill="none" stroke="white" stroke-width="1.5" d="M0,-3.0v7 M-2.5,-0.5L0,-3.0L2.5,-0.5"/>
                </g>
               <g id="resetDef">
                       <use xlink:href="#rim2" fill="#404040">
                               <set attributeName="fill" to="#808080" begin="reset.mouseover" end="reset.mouseout"/>
                       </use>
               </g>
        </defs>

<script type="text/javascript">
var viewWidth = 1405;
var viewHeight = 272;
var sectionId = 'dynsection-0';
</script>
<script xlink:href="svgpan.js"/>
<svg id="graph" class="graph">
<g id="viewport">
<title>VideoPlayer.cpp</title>
<!-- Node1 -->
<g id="node1" class="node">
<title>Node1</title>
<g id="a_node1"><a xlink:title="Video Player component.">
<polygon fill="#bfbfbf" stroke="black" points="1168,-240.5 1168,-263.5 1294,-263.5 1294,-240.5 1168,-240.5"/>
<text text-anchor="middle" x="1231" y="-248.3" font-family="Helvetica,sans-Serif" font-size="14.00">VideoPlayer.cpp</text>
</a>
</g>
</g>
<!-- Node2 -->
<g id="node2" class="node">
<title>Node2</title>
<g id="a_node2"><a xlink:href="VideoPlayer_8h.html" target="_top" xlink:title="Video Player component.">
<polygon fill="none" stroke="black" points="1011,-180.5 1011,-203.5 1121,-203.5 1121,-180.5 1011,-180.5"/>
<text text-anchor="middle" x="1066" y="-188.3" font-family="Helvetica,sans-Serif" font-size="14.00">VideoPlayer.h</text>
</a>
</g>
</g>
<!-- Node1&#45;&gt;Node2 -->
<g id="edge1" class="edge">
<title>Node1&#45;&gt;Node2</title>
<path fill="none" stroke="midnightblue" d="M1201.12,-240.5C1174.34,-231.08 1134.86,-217.2 1105.48,-206.88"/>
<polygon fill="midnightblue" stroke="midnightblue" points="1106.53,-203.54 1095.94,-203.52 1104.21,-210.14 1106.53,-203.54"/>
</g>
<!-- Node21 -->
<g id="node21" class="node">
<title>Node21</title>
<g id="a_node21"><a xlink:href="VideoWidget_8h.html" target="_top" xlink:title="Video widget.">
<polygon fill="none" stroke="black" points="1172.5,-180.5 1172.5,-203.5 1289.5,-203.5 1289.5,-180.5 1172.5,-180.5"/>
<text text-anchor="middle" x="1231" y="-188.3" font-family="Helvetica,sans-Serif" font-size="14.00">VideoWidget.h</text>
</a>
</g>
</g>
<!-- Node1&#45;&gt;Node21 -->
<g id="edge22" class="edge">
<title>Node1&#45;&gt;Node21</title>
<path fill="none" stroke="midnightblue" d="M1231,-240.36C1231,-232.92 1231,-222.74 1231,-213.73"/>
<polygon fill="midnightblue" stroke="midnightblue" points="1234.5,-213.57 1231,-203.57 1227.5,-213.57 1234.5,-213.57"/>
</g>
<!-- Node23 -->
<g id="node23" class="node">
<title>Node23</title>
<g id="a_node23"><a xlink:title=" ">
<polygon fill="none" stroke="#bfbfbf" points="1307.5,-180.5 1307.5,-203.5 1396.5,-203.5 1396.5,-180.5 1307.5,-180.5"/>
<text text-anchor="middle" x="1352" y="-188.3" font-family="Helvetica,sans-Serif" font-size="14.00">QtWidgets</text>
</a>
</g>
</g>
<!-- Node1&#45;&gt;Node23 -->
<g id="edge27" class="edge">
<title>Node1&#45;&gt;Node23</title>
<path fill="none" stroke="midnightblue" d="M1252.91,-240.5C1271.81,-231.44 1299.33,-218.25 1320.58,-208.06"/>
<polygon fill="midnightblue" stroke="midnightblue" points="1322.34,-211.1 1329.84,-203.62 1319.31,-204.79 1322.34,-211.1"/>
</g>
<!-- Node3 -->
<g id="node3" class="node">
<title>Node3</title>
<g id="a_node3"><a xlink:title=" ">
<polygon fill="none" stroke="#bfbfbf" points="1001,-120.5 1001,-143.5 1069,-143.5 1069,-120.5 1001,-120.5"/>
<text text-anchor="middle" x="1035" y="-128.3" font-family="Helvetica,sans-Serif" font-size="14.00">QMovie</text>
</a>
</g>
</g>
<!-- Node2&#45;&gt;Node3 -->
<g id="edge2" class="edge">
<title>Node2&#45;&gt;Node3</title>
<path fill="none" stroke="midnightblue" d="M1060.31,-180.36C1056.16,-172.59 1050.42,-161.84 1045.45,-152.55"/>
<polygon fill="midnightblue" stroke="midnightblue" points="1048.45,-150.74 1040.65,-143.57 1042.28,-154.04 1048.45,-150.74"/>
</g>
<!-- Node4 -->
<g id="node4" class="node">
<title>Node4</title>
<g id="a_node4"><a xlink:title=" ">
<polygon fill="none" stroke="#bfbfbf" points="1069.5,-0.5 1069.5,-23.5 1146.5,-23.5 1146.5,-0.5 1069.5,-0.5"/>
<text text-anchor="middle" x="1108" y="-8.3" font-family="Helvetica,sans-Serif" font-size="14.00">QtGlobal</text>
</a>
</g>
</g>
<!-- Node2&#45;&gt;Node4 -->
<g id="edge3" class="edge">
<title>Node2&#45;&gt;Node4</title>
<path fill="none" stroke="midnightblue" d="M1068.84,-180.19C1071.32,-170.68 1074.99,-156.44 1078,-144 1087.42,-105.09 1097.69,-59.48 1103.44,-33.64"/>
<polygon fill="midnightblue" stroke="midnightblue" points="1106.93,-34.07 1105.68,-23.55 1100.1,-32.55 1106.93,-34.07"/>
</g>
<!-- Node5 -->
<g id="node5" class="node">
<title>Node5</title>
<g id="a_node5"><a xlink:title=" ">
<polygon fill="none" stroke="#bfbfbf" points="1125.5,-120.5 1125.5,-143.5 1202.5,-143.5 1202.5,-120.5 1125.5,-120.5"/>
<text text-anchor="middle" x="1164" y="-128.3" font-family="Helvetica,sans-Serif" font-size="14.00">QWidget</text>
</a>
</g>
</g>
<!-- Node2&#45;&gt;Node5 -->
<g id="edge4" class="edge">
<title>Node2&#45;&gt;Node5</title>
<path fill="none" stroke="midnightblue" d="M1083.97,-180.36C1098.89,-171.53 1120.33,-158.84 1137.27,-148.82"/>
<polygon fill="midnightblue" stroke="midnightblue" points="1139.32,-151.68 1146.14,-143.57 1135.75,-145.65 1139.32,-151.68"/>
</g>
<!-- Node6 -->
<g id="node6" class="node">
<title>Node6</title>
<g id="a_node6"><a xlink:href="Camera_8h.html" target="_top" xlink:title="Camera backend for .">
<polygon fill="none" stroke="black" points="657,-120.5 657,-143.5 741,-143.5 741,-120.5 657,-120.5"/>
<text text-anchor="middle" x="699" y="-128.3" font-family="Helvetica,sans-Serif" font-size="14.00">Camera.h</text>
</a>
</g>
</g>
<!-- Node2&#45;&gt;Node6 -->
<g id="edge5" class="edge">
<title>Node2&#45;&gt;Node6</title>
<path fill="none" stroke="midnightblue" d="M1010.66,-182.25C940.38,-171.15 820,-152.12 751.23,-141.25"/>
<polygon fill="midnightblue" stroke="midnightblue" points="751.49,-137.75 741.06,-139.65 750.39,-144.67 751.49,-137.75"/>
</g>
<!-- Node18 -->
<g id="node18" class="node">
<title>Node18</title>
<g id="a_node18"><a xlink:href="QsLog_8h.html" target="_top" xlink:title="Qs Log logging support.">
<polygon fill="none" stroke="black" points="76,-60.5 76,-83.5 150,-83.5 150,-60.5 76,-60.5"/>
<text text-anchor="middle" x="113" y="-68.3" font-family="Helvetica,sans-Serif" font-size="14.00">QsLog.h</text>
</a>
</g>
</g>
<!-- Node2&#45;&gt;Node18 -->
<g id="edge21" class="edge">
<title>Node2&#45;&gt;Node18</title>
<path fill="none" stroke="midnightblue" d="M1010.96,-186.86C870.47,-175.79 487.24,-142.45 160.23,-84.07"/>
<polygon fill="midnightblue" stroke="midnightblue" points="160.54,-80.57 150.08,-82.25 159.31,-87.46 160.54,-80.57"/>
</g>
<!-- Node7 -->
<g id="node7" class="node">
<title>Node7</title>
<g id="a_node7"><a xlink:title=" ">
<polygon fill="none" stroke="#bfbfbf" points="707,-60.5 707,-83.5 773,-83.5 773,-60.5 707,-60.5"/>
<text text-anchor="middle" x="740" y="-68.3" font-family="Helvetica,sans-Serif" font-size="14.00">math.h</text>
</a>
</g>
</g>
<!-- Node6&#45;&gt;Node7 -->
<g id="edge6" class="edge">
<title>Node6&#45;&gt;Node7</title>
<path fill="none" stroke="midnightblue" d="M706.52,-120.36C712.13,-112.43 719.93,-101.39 726.6,-91.96"/>
<polygon fill="midnightblue" stroke="midnightblue" points="729.61,-93.76 732.53,-83.57 723.9,-89.72 729.61,-93.76"/>
</g>
<!-- Node8 -->
<g id="node8" class="node">
<title>Node8</title>
<g id="a_node8"><a xlink:title=" ">
<polygon fill="none" stroke="#bfbfbf" points="791,-60.5 791,-83.5 867,-83.5 867,-60.5 791,-60.5"/>
<text text-anchor="middle" x="829" y="-68.3" font-family="Helvetica,sans-Serif" font-size="14.00">QThread</text>
</a>
</g>
</g>
<!-- Node6&#45;&gt;Node8 -->
<g id="edge7" class="edge">
<title>Node6&#45;&gt;Node8</title>
<path fill="none" stroke="midnightblue" d="M722.54,-120.5C743.03,-111.36 772.95,-98.01 795.85,-87.79"/>
<polygon fill="midnightblue" stroke="midnightblue" points="797.49,-90.89 805.19,-83.62 794.64,-84.5 797.49,-90.89"/>
</g>
<!-- Node9 -->
<g id="node9" class="node">
<title>Node9</title>
<g id="a_node9"><a xlink:title=" ">
<polygon fill="none" stroke="#bfbfbf" points="885.5,-60.5 885.5,-83.5 964.5,-83.5 964.5,-60.5 885.5,-60.5"/>
<text text-anchor="middle" x="925" y="-68.3" font-family="Helvetica,sans-Serif" font-size="14.00">QPixmap</text>
</a>
</g>
</g>
<!-- Node6&#45;&gt;Node9 -->
<g id="edge8" class="edge">
<title>Node6&#45;&gt;Node9</title>
<path fill="none" stroke="midnightblue" d="M739.93,-120.5C778,-110.73 834.81,-96.15 875.44,-85.72"/>
<polygon fill="midnightblue" stroke="midnightblue" points="876.32,-89.11 885.14,-83.23 874.58,-82.33 876.32,-89.11"/>
</g>
<!-- Node10 -->
<g id="node10" class="node">
<title>Node10</title>
<g id="a_node10"><a xlink:title=" ">
<polygon fill="none" stroke="#bfbfbf" points="1158.5,-60.5 1158.5,-83.5 1229.5,-83.5 1229.5,-60.5 1158.5,-60.5"/>
<text text-anchor="middle" x="1194" y="-68.3" font-family="Helvetica,sans-Serif" font-size="14.00">QImage</text>
</a>
</g>
</g>
<!-- Node6&#45;&gt;Node10 -->
<g id="edge9" class="edge">
<title>Node6&#45;&gt;Node10</title>
<path fill="none" stroke="midnightblue" d="M741.2,-126.05C833.48,-115.24 1052.58,-89.57 1148.12,-78.38"/>
<polygon fill="midnightblue" stroke="midnightblue" points="1148.81,-81.82 1158.34,-77.18 1148,-74.87 1148.81,-81.82"/>
</g>
<!-- Node11 -->
<g id="node11" class="node">
<title>Node11</title>
<g id="a_node11"><a xlink:title=" ">
<polygon fill="none" stroke="#bfbfbf" points="982.5,-60.5 982.5,-83.5 1079.5,-83.5 1079.5,-60.5 982.5,-60.5"/>
<text text-anchor="middle" x="1031" y="-68.3" font-family="Helvetica,sans-Serif" font-size="14.00">QByteArray</text>
</a>
</g>
</g>
<!-- Node6&#45;&gt;Node11 -->
<g id="edge10" class="edge">
<title>Node6&#45;&gt;Node11</title>
<path fill="none" stroke="midnightblue" d="M741.45,-124.03C793.51,-115.43 884.71,-100.14 972.11,-84.32"/>
<polygon fill="midnightblue" stroke="midnightblue" points="972.98,-87.72 982.2,-82.49 971.73,-80.83 972.98,-87.72"/>
</g>
<!-- Node12 -->
<g id="node12" class="node">
<title>Node12</title>
<g id="a_node12"><a xlink:title=" ">
<polygon fill="none" stroke="#bfbfbf" points="306.5,-60.5 306.5,-83.5 377.5,-83.5 377.5,-60.5 306.5,-60.5"/>
<text text-anchor="middle" x="342" y="-68.3" font-family="Helvetica,sans-Serif" font-size="14.00">QBuffer</text>
</a>
</g>
</g>
<!-- Node6&#45;&gt;Node12 -->
<g id="edge11" class="edge">
<title>Node6&#45;&gt;Node12</title>
<path fill="none" stroke="midnightblue" d="M656.76,-125.96C598.36,-118.72 489.49,-104.18 388.06,-84.29"/>
<polygon fill="midnightblue" stroke="midnightblue" points="388.44,-80.8 377.95,-82.29 387.08,-87.67 388.44,-80.8"/>
</g>
<!-- Node13 -->
<g id="node13" class="node">
<title>Node13</title>
<g id="a_node13"><a xlink:title=" ">
<polygon fill="none" stroke="#bfbfbf" points="395.5,-60.5 395.5,-83.5 466.5,-83.5 466.5,-60.5 395.5,-60.5"/>
<text text-anchor="middle" x="431" y="-68.3" font-family="Helvetica,sans-Serif" font-size="14.00">QMutex</text>
</a>
</g>
</g>
<!-- Node6&#45;&gt;Node13 -->
<g id="edge12" class="edge">
<title>Node6&#45;&gt;Node13</title>
<path fill="none" stroke="midnightblue" d="M656.99,-122.56C614.2,-113.88 545.69,-99.72 476.97,-84.17"/>
<polygon fill="midnightblue" stroke="midnightblue" points="477.36,-80.67 466.84,-81.87 475.81,-87.5 477.36,-80.67"/>
</g>
<!-- Node14 -->
<g id="node14" class="node">
<title>Node14</title>
<g id="a_node14"><a xlink:title=" ">
<polygon fill="none" stroke="#bfbfbf" points="485,-60.5 485,-83.5 609,-83.5 609,-60.5 485,-60.5"/>
<text text-anchor="middle" x="547" y="-68.3" font-family="Helvetica,sans-Serif" font-size="14.00">QWaitCondition</text>
</a>
</g>
</g>
<!-- Node6&#45;&gt;Node14 -->
<g id="edge13" class="edge">
<title>Node6&#45;&gt;Node14</title>
<path fill="none" stroke="midnightblue" d="M671.47,-120.5C647.02,-111.16 611.06,-97.44 584.08,-87.15"/>
<polygon fill="midnightblue" stroke="midnightblue" points="585.17,-83.82 574.58,-83.52 582.67,-90.36 585.17,-83.82"/>
</g>
<!-- Node15 -->
<g id="node15" class="node">
<title>Node15</title>
<g id="a_node15"><a xlink:title=" ">
<polygon fill="none" stroke="#bfbfbf" points="627,-60.5 627,-83.5 689,-83.5 689,-60.5 627,-60.5"/>
<text text-anchor="middle" x="658" y="-68.3" font-family="Helvetica,sans-Serif" font-size="14.00">QTime</text>
</a>
</g>
</g>
<!-- Node6&#45;&gt;Node15 -->
<g id="edge14" class="edge">
<title>Node6&#45;&gt;Node15</title>
<path fill="none" stroke="midnightblue" d="M691.48,-120.36C685.87,-112.43 678.07,-101.39 671.4,-91.96"/>
<polygon fill="midnightblue" stroke="midnightblue" points="674.1,-89.72 665.47,-83.57 668.39,-93.76 674.1,-89.72"/>
</g>
<!-- Node16 -->
<g id="node16" class="node">
<title>Node16</title>
<g id="a_node16"><a xlink:href="PosixCompat_8h.html" target="_top" xlink:title=" ">
<polygon fill="none" stroke="black" points="168,-60.5 168,-83.5 288,-83.5 288,-60.5 168,-60.5"/>
<text text-anchor="middle" x="228" y="-68.3" font-family="Helvetica,sans-Serif" font-size="14.00">PosixCompat.h</text>
</a>
</g>
</g>
<!-- Node6&#45;&gt;Node16 -->
<g id="edge15" class="edge">
<title>Node6&#45;&gt;Node16</title>
<path fill="none" stroke="midnightblue" d="M656.97,-126.67C585.52,-119.18 435.59,-102.92 298.46,-84.16"/>
<polygon fill="midnightblue" stroke="midnightblue" points="298.57,-80.64 288.19,-82.75 297.62,-87.58 298.57,-80.64"/>
</g>
<!-- Node6&#45;&gt;Node18 -->
<g id="edge18" class="edge">
<title>Node6&#45;&gt;Node18</title>
<path fill="none" stroke="midnightblue" d="M656.73,-129.45C566.93,-125.7 350.49,-114.23 159.97,-83.96"/>
<polygon fill="midnightblue" stroke="midnightblue" points="160.49,-80.49 150.06,-82.36 159.38,-87.41 160.49,-80.49"/>
</g>
<!-- Node16&#45;&gt;Node4 -->
<g id="edge16" class="edge">
<title>Node16&#45;&gt;Node4</title>
<path fill="none" stroke="midnightblue" d="M288.16,-61.05C291.15,-60.67 294.11,-60.31 297,-60 585.1,-28.77 933.18,-17.39 1059.36,-14.12"/>
<polygon fill="midnightblue" stroke="midnightblue" points="1059.56,-17.62 1069.47,-13.86 1059.39,-10.62 1059.56,-17.62"/>
</g>
<!-- Node17 -->
<g id="node17" class="node">
<title>Node17</title>
<g id="a_node17"><a xlink:title=" ">
<polygon fill="none" stroke="#bfbfbf" points="191,-0.5 191,-23.5 265,-23.5 265,-0.5 191,-0.5"/>
<text text-anchor="middle" x="228" y="-8.3" font-family="Helvetica,sans-Serif" font-size="14.00">unistd.h</text>
</a>
</g>
</g>
<!-- Node16&#45;&gt;Node17 -->
<g id="edge17" class="edge">
<title>Node16&#45;&gt;Node17</title>
<path fill="none" stroke="midnightblue" d="M228,-60.36C228,-52.92 228,-42.74 228,-33.73"/>
<polygon fill="midnightblue" stroke="midnightblue" points="231.5,-33.57 228,-23.57 224.5,-33.57 231.5,-33.57"/>
</g>
<!-- Node19 -->
<g id="node19" class="node">
<title>Node19</title>
<g id="a_node19"><a xlink:title=" ">
<polygon fill="none" stroke="#bfbfbf" points="88,-0.5 88,-23.5 162,-23.5 162,-0.5 88,-0.5"/>
<text text-anchor="middle" x="125" y="-8.3" font-family="Helvetica,sans-Serif" font-size="14.00">QDebug</text>
</a>
</g>
</g>
<!-- Node18&#45;&gt;Node19 -->
<g id="edge19" class="edge">
<title>Node18&#45;&gt;Node19</title>
<path fill="none" stroke="midnightblue" d="M115.2,-60.36C116.76,-52.84 118.89,-42.52 120.77,-33.43"/>
<polygon fill="midnightblue" stroke="midnightblue" points="124.21,-34.07 122.81,-23.57 117.36,-32.65 124.21,-34.07"/>
</g>
<!-- Node20 -->
<g id="node20" class="node">
<title>Node20</title>
<g id="a_node20"><a xlink:title=" ">
<polygon fill="none" stroke="#bfbfbf" points="0,-0.5 0,-23.5 70,-23.5 70,-0.5 0,-0.5"/>
<text text-anchor="middle" x="35" y="-8.3" font-family="Helvetica,sans-Serif" font-size="14.00">QString</text>
</a>
</g>
</g>
<!-- Node18&#45;&gt;Node20 -->
<g id="edge20" class="edge">
<title>Node18&#45;&gt;Node20</title>
<path fill="none" stroke="midnightblue" d="M98.69,-60.36C87.15,-51.78 70.7,-39.55 57.41,-29.66"/>
<polygon fill="midnightblue" stroke="midnightblue" points="59.33,-26.73 49.22,-23.57 55.15,-32.35 59.33,-26.73"/>
</g>
<!-- Node21&#45;&gt;Node4 -->
<g id="edge23" class="edge">
<title>Node21&#45;&gt;Node4</title>
<path fill="none" stroke="midnightblue" d="M1235.75,-180.29C1245.59,-156.26 1265.22,-97.27 1239,-60 1220.47,-33.66 1185.72,-22.01 1156.67,-16.89"/>
<polygon fill="midnightblue" stroke="midnightblue" points="1157.09,-13.41 1146.67,-15.34 1156.01,-20.33 1157.09,-13.41"/>
</g>
<!-- Node21&#45;&gt;Node5 -->
<g id="edge24" class="edge">
<title>Node21&#45;&gt;Node5</title>
<path fill="none" stroke="midnightblue" d="M1218.71,-180.36C1208.98,-171.94 1195.2,-160.01 1183.9,-150.23"/>
<polygon fill="midnightblue" stroke="midnightblue" points="1186.06,-147.47 1176.21,-143.57 1181.48,-152.76 1186.06,-147.47"/>
</g>
<!-- Node21&#45;&gt;Node10 -->
<g id="edge25" class="edge">
<title>Node21&#45;&gt;Node10</title>
<path fill="none" stroke="midnightblue" d="M1228.51,-180.31C1225.17,-166.33 1218.85,-141.12 1212,-120 1209.12,-111.12 1205.51,-101.46 1202.28,-93.22"/>
<polygon fill="midnightblue" stroke="midnightblue" points="1205.43,-91.7 1198.47,-83.71 1198.94,-94.3 1205.43,-91.7"/>
</g>
<!-- Node22 -->
<g id="node22" class="node">
<title>Node22</title>
<g id="a_node22"><a xlink:title=" ">
<polygon fill="none" stroke="#bfbfbf" points="1297,-120.5 1297,-143.5 1355,-143.5 1355,-120.5 1297,-120.5"/>
<text text-anchor="middle" x="1326" y="-128.3" font-family="Helvetica,sans-Serif" font-size="14.00">QRect</text>
</a>
</g>
</g>
<!-- Node21&#45;&gt;Node22 -->
<g id="edge26" class="edge">
<title>Node21&#45;&gt;Node22</title>
<path fill="none" stroke="midnightblue" d="M1248.42,-180.36C1262.89,-171.53 1283.67,-158.84 1300.08,-148.82"/>
<polygon fill="midnightblue" stroke="midnightblue" points="1301.97,-151.77 1308.69,-143.57 1298.33,-145.79 1301.97,-151.77"/>
</g>
</g>
</svg>
        <g id="navigator" transform="translate(0 0)" fill="#404254">
                <rect fill="#f2f5e9" fill-opacity="0.5" stroke="#606060" stroke-width=".5" x="0" y="0" width="60" height="60"/>
                <use id="zoomplus" xlink:href="#zoomPlus" x="17" y="9" onmousedown="handleZoom(evt,'in')"/>
                <use id="zoomminus" xlink:href="#zoomMin" x="42" y="9" onmousedown="handleZoom(evt,'out')"/>
                <use id="reset" xlink:href="#resetDef" x="30" y="36" onmousedown="handleReset()"/>
                <g id="arrowUp" xlink:href="#dirArrow" transform="translate(30 24)" onmousedown="handlePan(0,-1)">
                  <use xlink:href="#rim" fill="#404040">
                        <set attributeName="fill" to="#808080" begin="arrowUp.mouseover" end="arrowUp.mouseout"/>
                  </use>
                  <path fill="none" stroke="white" stroke-width="1.5" d="M0,-3.0v7 M-2.5,-0.5L0,-3.0L2.5,-0.5"/>
                </g>
                <g id="arrowRight" xlink:href="#dirArrow" transform="rotate(90) translate(36 -43)" onmousedown="handlePan(1,0)">
                  <use xlink:href="#rim" fill="#404040">
                        <set attributeName="fill" to="#808080" begin="arrowRight.mouseover" end="arrowRight.mouseout"/>
                  </use>
                  <path fill="none" stroke="white" stroke-width="1.5" d="M0,-3.0v7 M-2.5,-0.5L0,-3.0L2.5,-0.5"/>
                </g>
                <g id="arrowDown" xlink:href="#dirArrow" transform="rotate(180) translate(-30 -48)" onmousedown="handlePan(0,1)">
                  <use xlink:href="#rim" fill="#404040">
                        <set attributeName="fill" to="#808080" begin="arrowDown.mouseover" end="arrowDown.mouseout"/>
                  </use>
                  <path fill="none" stroke="white" stroke-width="1.5" d="M0,-3.0v7 M-2.5,-0.5L0,-3.0L2.5,-0.5"/>
                </g>
                <g id="arrowLeft" xlink:href="#dirArrow" transform="rotate(270) translate(-36 17)" onmousedown="handlePan(-1,0)">
                  <use xlink:href="#rim" fill="#404040">
                        <set attributeName="fill" to="#808080" begin="arrowLeft.mouseover" end="arrowLeft.mouseout"/>
                  </use>
                  <path fill="none" stroke="white" stroke-width="1.5" d="M0,-3.0v7 M-2.5,-0.5L0,-3.0L2.5,-0.5"/>
                </g>
        </g>
        <svg viewBox="0 0 15 15" width="100%" height="30px" preserveAspectRatio="xMaxYMin meet">
         <g id="arrow_out" transform="scale(0.3 0.3)">
          <a xlink:href="VideoPlayer_8cpp__incl_org.svg" target="_base">
           <rect id="button" ry="5" rx="5" y="6" x="6" height="38" width="38"
                fill="#f2f5e9" fill-opacity="0.5" stroke="#606060" stroke-width="1.0"/>
           <path id="arrow"
             d="M 11.500037,31.436501 C 11.940474,20.09759 22.043105,11.32322 32.158766,21.979434 L 37.068811,17.246167 C 37.068811,17.246167 37.088388,32 37.088388,32 L 22.160133,31.978069 C 22.160133,31.978069 26.997745,27.140456 26.997745,27.140456 C 18.528582,18.264221 13.291696,25.230495 11.500037,31.436501 z"
             style="fill:#404040;"/>
          </a>
         </g>
        </svg>
</svg>
