<?xml version="1.0" encoding="UTF-8" standalone="no"?>
<!DOCTYPE svg PUBLIC "-//W3C//DTD SVG 1.1//EN"
 "http://www.w3.org/Graphics/SVG/1.1/DTD/svg11.dtd">
<!-- Generated by graphviz version 2.50.0 (0)
 -->
<!-- Title: VideoPlayer.cpp Pages: 1 -->
<!--zoomable 272 -->
<svg id="main" version="1.1" xmlns="http://www.w3.org/2000/svg" xmlns:xlink="http://www.w3.org/1999/xlink" xml:space="preserve" onload="init(evt)">
<style><![CDATA[
text { fill: #e6e6e6 !important; }
polygon { fill: #2f2f2f !important; stroke: #9aa0a6 !important; }
path, line, polyline { stroke: #4e67d6 !important; }
]]></style>
<style><![CDATA[
text { fill: #e6e6e6 !important; }
polygon { fill: #2f2f2f !important; stroke: #9aa0a6 !important; }
path, line, polyline { stroke: #4e67d6 !important; }
]]></style>
<style><![CDATA[
text { fill: #e6e6e6 !important; }
polygon { fill: #2f2f2f !important; stroke: #9aa0a6 !important; }
path, line, polyline { stroke: #4e67d6 !important; }
]]></style>
<style><![CDATA[
text { fill: #e6e6e6 !important; }
polygon { fill: #2f2f2f !important; stroke: #9aa0a6 !important; }
path, line, polyline { stroke: #4e67d6 !important; }
]]></style>
<style><![CDATA[
text { fill: #e6e6e6 !important; }
polygon { fill: #2f2f2f !important; stroke: #9aa0a6 !important; }
path, line, polyline { stroke: #4e67d6 !important; }
]]></style>
<style type="text/css"><![CDATA[
.edge:hover path { stroke: red; }
.edge:hover polygon { stroke: red; fill: red; }
]]></style>
<script type="text/javascript"><![CDATA[
var edges = document.getElementsByTagName('g');
if (edges && edges.length) {
  for (var i=0;i<edges.length;i++) {
    if (edges[i].id.substr(0,4)=='edge') {
      edges[i].setAttribute('class','edge');
    }
  }
}
]]></script>
        <defs>
                <circle id="rim" cx="0" cy="0" r="7"/>
                <circle id="rim2" cx="0" cy="0" r="3.5"/>
                <g id="zoomPlus">
                        <use xlink:href="#rim" fill="#404040">
                                <set attributeName="fill" to="#808080" begin="zoomplus.mouseover" end="zoomplus.mouseout"/>
                        </use>
                        <path d="M-4,0h8M0,-4v8" fill="none" stroke="white" stroke-width="1.5" pointer-events="none"/>
                </g>
                <g id="zoomMin">
                        <use xlink:href="#rim" fill="#404040">
                                <set attributeName="fill" to="#808080" begin="zoomminus.mouseover" end="zoomminus.mouseout"/>
                        </use>
                        <path d="M-4,0h8" fill="none" stroke="white" stroke-width="1.5" pointer-events="none"/>
                </g>
                <g id="dirArrow">
                        <path fill="none" stroke="white" stroke-width="1.5" d="M0,-3.0v7 M-2.5,-0.5L0,-3.0L2.5,-0.5"/>
                </g>
               <g id="resetDef">
                       <use xlink:href="#rim2" fill="#404040">
                               <set attributeName="fill" to="#808080" begin="reset.mouseover" end="reset.mouseout"/>
                       </use>
               </g>
        </defs>

<script type="text/javascript">
var viewWidth = 1493;
var viewHeight = 272;
var sectionId = 'dynsection-0';
</script>
<script xlink:href="svgpan.js"/>
<svg id="graph" class="graph">
<g id="viewport">
<title>VideoPlayer.cpp</title>
<!-- Node1 -->
<g id="node1" class="node">
<title>Node1</title>
<g id="a_node1"><a xlink:title="Video Player component.">
<polygon fill="#bfbfbf" stroke="black" points="1172,-240.5 1172,-263.5 1298,-263.5 1298,-240.5 1172,-240.5"/>
<text text-anchor="middle" x="1235" y="-248.3" font-family="Helvetica,sans-Serif" font-size="14.00">VideoPlayer.cpp</text>
</a>
</g>
</g>
<!-- Node2 -->
<g id="node2" class="node">
<title>Node2</title>
<g id="a_node2"><a xlink:href="VideoPlayer_8h.html" target="_top" xlink:title="Video Player component.">
<polygon fill="none" stroke="black" points="843,-180.5 843,-203.5 953,-203.5 953,-180.5 843,-180.5"/>
<text text-anchor="middle" x="898" y="-188.3" font-family="Helvetica,sans-Serif" font-size="14.00">VideoPlayer.h</text>
</a>
</g>
</g>
<!-- Node1&#45;&gt;Node2 -->
<g id="edge1" class="edge">
<title>Node1&#45;&gt;Node2</title>
<path fill="none" stroke="midnightblue" d="M1173.97,-240.5C1114.41,-230.25 1024.1,-214.7 963.16,-204.21"/>
<polygon fill="midnightblue" stroke="midnightblue" points="963.72,-200.76 953.27,-202.51 962.53,-207.66 963.72,-200.76"/>
</g>
<!-- Node21 -->
<g id="node21" class="node">
<title>Node21</title>
<g id="a_node21"><a xlink:href="VideoWidget_8h.html" target="_top" xlink:title="Video widget.">
<polygon fill="none" stroke="black" points="1176.5,-180.5 1176.5,-203.5 1293.5,-203.5 1293.5,-180.5 1176.5,-180.5"/>
<text text-anchor="middle" x="1235" y="-188.3" font-family="Helvetica,sans-Serif" font-size="14.00">VideoWidget.h</text>
</a>
</g>
</g>
<!-- Node1&#45;&gt;Node21 -->
<g id="edge22" class="edge">
<title>Node1&#45;&gt;Node21</title>
<path fill="none" stroke="midnightblue" d="M1235,-240.36C1235,-232.92 1235,-222.74 1235,-213.73"/>
<polygon fill="midnightblue" stroke="midnightblue" points="1238.5,-213.57 1235,-203.57 1231.5,-213.57 1238.5,-213.57"/>
</g>
<!-- Node25 -->
<g id="node25" class="node">
<title>Node25</title>
<g id="a_node25"><a xlink:title=" ">
<polygon fill="none" stroke="#bfbfbf" points="1311.5,-180.5 1311.5,-203.5 1400.5,-203.5 1400.5,-180.5 1311.5,-180.5"/>
<text text-anchor="middle" x="1356" y="-188.3" font-family="Helvetica,sans-Serif" font-size="14.00">QtWidgets</text>
</a>
</g>
</g>
<!-- Node1&#45;&gt;Node25 -->
<g id="edge29" class="edge">
<title>Node1&#45;&gt;Node25</title>
<path fill="none" stroke="midnightblue" d="M1256.91,-240.5C1275.81,-231.44 1303.33,-218.25 1324.58,-208.06"/>
<polygon fill="midnightblue" stroke="midnightblue" points="1326.34,-211.1 1333.84,-203.62 1323.31,-204.79 1326.34,-211.1"/>
</g>
<!-- Node3 -->
<g id="node3" class="node">
<title>Node3</title>
<g id="a_node3"><a xlink:title=" ">
<polygon fill="none" stroke="#bfbfbf" points="566,-120.5 566,-143.5 634,-143.5 634,-120.5 566,-120.5"/>
<text text-anchor="middle" x="600" y="-128.3" font-family="Helvetica,sans-Serif" font-size="14.00">QMovie</text>
</a>
</g>
</g>
<!-- Node2&#45;&gt;Node3 -->
<g id="edge2" class="edge">
<title>Node2&#45;&gt;Node3</title>
<path fill="none" stroke="midnightblue" d="M842.76,-181.26C792.02,-172.16 714.8,-157.93 648,-144 646.73,-143.73 645.44,-143.46 644.14,-143.18"/>
<polygon fill="midnightblue" stroke="midnightblue" points="644.57,-139.7 634.05,-140.98 643.07,-146.53 644.57,-139.7"/>
</g>
<!-- Node4 -->
<g id="node4" class="node">
<title>Node4</title>
<g id="a_node4"><a xlink:title=" ">
<polygon fill="none" stroke="#bfbfbf" points="1158.5,-0.5 1158.5,-23.5 1235.5,-23.5 1235.5,-0.5 1158.5,-0.5"/>
<text text-anchor="middle" x="1197" y="-8.3" font-family="Helvetica,sans-Serif" font-size="14.00">QtGlobal</text>
</a>
</g>
</g>
<!-- Node2&#45;&gt;Node4 -->
<g id="edge3" class="edge">
<title>Node2&#45;&gt;Node4</title>
<path fill="none" stroke="midnightblue" d="M925.26,-180.5C961.33,-166.61 1026.91,-141.39 1083,-120 1125.19,-103.91 1147.72,-117.49 1178,-84 1190.39,-70.29 1194.85,-49.36 1196.37,-33.78"/>
<polygon fill="midnightblue" stroke="midnightblue" points="1199.88,-33.76 1197.04,-23.55 1192.9,-33.3 1199.88,-33.76"/>
</g>
<!-- Node5 -->
<g id="node5" class="node">
<title>Node5</title>
<g id="a_node5"><a xlink:title=" ">
<polygon fill="none" stroke="#bfbfbf" points="1091.5,-120.5 1091.5,-143.5 1168.5,-143.5 1168.5,-120.5 1091.5,-120.5"/>
<text text-anchor="middle" x="1130" y="-128.3" font-family="Helvetica,sans-Serif" font-size="14.00">QWidget</text>
</a>
</g>
</g>
<!-- Node2&#45;&gt;Node5 -->
<g id="edge4" class="edge">
<title>Node2&#45;&gt;Node5</title>
<path fill="none" stroke="midnightblue" d="M940.01,-180.5C979.82,-170.54 1039.58,-155.6 1081.42,-145.14"/>
<polygon fill="midnightblue" stroke="midnightblue" points="1082.53,-148.48 1091.38,-142.65 1080.83,-141.68 1082.53,-148.48"/>
</g>
<!-- Node6 -->
<g id="node6" class="node">
<title>Node6</title>
<g id="a_node6"><a xlink:href="Camera_8h.html" target="_top" xlink:title="Camera backend for .">
<polygon fill="none" stroke="black" points="690,-120.5 690,-143.5 774,-143.5 774,-120.5 690,-120.5"/>
<text text-anchor="middle" x="732" y="-128.3" font-family="Helvetica,sans-Serif" font-size="14.00">Camera.h</text>
</a>
</g>
</g>
<!-- Node2&#45;&gt;Node6 -->
<g id="edge5" class="edge">
<title>Node2&#45;&gt;Node6</title>
<path fill="none" stroke="midnightblue" d="M867.94,-180.5C840.99,-171.08 801.27,-157.2 771.72,-146.88"/>
<polygon fill="midnightblue" stroke="midnightblue" points="772.71,-143.52 762.12,-143.52 770.4,-150.13 772.71,-143.52"/>
</g>
<!-- Node18 -->
<g id="node18" class="node">
<title>Node18</title>
<g id="a_node18"><a xlink:href="QsLog_8h.html" target="_top" xlink:title="Qs Log logging support.">
<polygon fill="none" stroke="black" points="76,-60.5 76,-83.5 150,-83.5 150,-60.5 76,-60.5"/>
<text text-anchor="middle" x="113" y="-68.3" font-family="Helvetica,sans-Serif" font-size="14.00">QsLog.h</text>
</a>
</g>
</g>
<!-- Node2&#45;&gt;Node18 -->
<g id="edge21" class="edge">
<title>Node2&#45;&gt;Node18</title>
<path fill="none" stroke="midnightblue" d="M842.92,-184.5C798.08,-177.93 733.8,-165.6 681,-144 662.51,-136.44 661.97,-126.26 643,-120 441.26,-53.42 374.17,-115.26 160.03,-83.91"/>
<polygon fill="midnightblue" stroke="midnightblue" points="160.47,-80.44 150.06,-82.4 159.42,-87.36 160.47,-80.44"/>
</g>
<!-- Node7 -->
<g id="node7" class="node">
<title>Node7</title>
<g id="a_node7"><a xlink:title=" ">
<polygon fill="none" stroke="#bfbfbf" points="306,-60.5 306,-83.5 372,-83.5 372,-60.5 306,-60.5"/>
<text text-anchor="middle" x="339" y="-68.3" font-family="Helvetica,sans-Serif" font-size="14.00">math.h</text>
</a>
</g>
</g>
<!-- Node6&#45;&gt;Node7 -->
<g id="edge6" class="edge">
<title>Node6&#45;&gt;Node7</title>
<path fill="none" stroke="midnightblue" d="M689.86,-122.38C685.19,-121.53 680.5,-120.72 676,-120 548.74,-99.76 512.49,-108.34 382.33,-84.06"/>
<polygon fill="midnightblue" stroke="midnightblue" points="382.85,-80.6 372.38,-82.18 381.55,-87.48 382.85,-80.6"/>
</g>
<!-- Node8 -->
<g id="node8" class="node">
<title>Node8</title>
<g id="a_node8"><a xlink:title=" ">
<polygon fill="none" stroke="#bfbfbf" points="390,-60.5 390,-83.5 466,-83.5 466,-60.5 390,-60.5"/>
<text text-anchor="middle" x="428" y="-68.3" font-family="Helvetica,sans-Serif" font-size="14.00">QThread</text>
</a>
</g>
</g>
<!-- Node6&#45;&gt;Node8 -->
<g id="edge7" class="edge">
<title>Node6&#45;&gt;Node8</title>
<path fill="none" stroke="midnightblue" d="M689.82,-122.64C685.16,-121.74 680.48,-120.84 676,-120 590.27,-103.87 566.12,-102.19 476.03,-83.93"/>
<polygon fill="midnightblue" stroke="midnightblue" points="476.71,-80.5 466.22,-81.93 475.32,-87.36 476.71,-80.5"/>
</g>
<!-- Node9 -->
<g id="node9" class="node">
<title>Node9</title>
<g id="a_node9"><a xlink:title=" ">
<polygon fill="none" stroke="#bfbfbf" points="484.5,-60.5 484.5,-83.5 563.5,-83.5 563.5,-60.5 484.5,-60.5"/>
<text text-anchor="middle" x="524" y="-68.3" font-family="Helvetica,sans-Serif" font-size="14.00">QPixmap</text>
</a>
</g>
</g>
<!-- Node6&#45;&gt;Node9 -->
<g id="edge8" class="edge">
<title>Node6&#45;&gt;Node9</title>
<path fill="none" stroke="midnightblue" d="M694.33,-120.5C659.98,-110.92 609.06,-96.72 571.85,-86.34"/>
<polygon fill="midnightblue" stroke="midnightblue" points="572.31,-82.84 561.74,-83.52 570.43,-89.58 572.31,-82.84"/>
</g>
<!-- Node10 -->
<g id="node10" class="node">
<title>Node10</title>
<g id="a_node10"><a xlink:title=" ">
<polygon fill="none" stroke="#bfbfbf" points="1097.5,-60.5 1097.5,-83.5 1168.5,-83.5 1168.5,-60.5 1097.5,-60.5"/>
<text text-anchor="middle" x="1133" y="-68.3" font-family="Helvetica,sans-Serif" font-size="14.00">QImage</text>
</a>
</g>
</g>
<!-- Node6&#45;&gt;Node10 -->
<g id="edge9" class="edge">
<title>Node6&#45;&gt;Node10</title>
<path fill="none" stroke="midnightblue" d="M774.16,-126.93C839.21,-120.33 968.11,-105.94 1087.2,-83.99"/>
<polygon fill="midnightblue" stroke="midnightblue" points="1088.03,-87.39 1097.21,-82.12 1086.74,-80.51 1088.03,-87.39"/>
</g>
<!-- Node11 -->
<g id="node11" class="node">
<title>Node11</title>
<g id="a_node11"><a xlink:title=" ">
<polygon fill="none" stroke="#bfbfbf" points="581.5,-60.5 581.5,-83.5 678.5,-83.5 678.5,-60.5 581.5,-60.5"/>
<text text-anchor="middle" x="630" y="-68.3" font-family="Helvetica,sans-Serif" font-size="14.00">QByteArray</text>
</a>
</g>
</g>
<!-- Node6&#45;&gt;Node11 -->
<g id="edge10" class="edge">
<title>Node6&#45;&gt;Node11</title>
<path fill="none" stroke="midnightblue" d="M713.29,-120.36C697.62,-111.45 675.04,-98.61 657.34,-88.54"/>
<polygon fill="midnightblue" stroke="midnightblue" points="659.01,-85.47 648.59,-83.57 655.55,-91.56 659.01,-85.47"/>
</g>
<!-- Node12 -->
<g id="node12" class="node">
<title>Node12</title>
<g id="a_node12"><a xlink:title=" ">
<polygon fill="none" stroke="#bfbfbf" points="696.5,-60.5 696.5,-83.5 767.5,-83.5 767.5,-60.5 696.5,-60.5"/>
<text text-anchor="middle" x="732" y="-68.3" font-family="Helvetica,sans-Serif" font-size="14.00">QBuffer</text>
</a>
</g>
</g>
<!-- Node6&#45;&gt;Node12 -->
<g id="edge11" class="edge">
<title>Node6&#45;&gt;Node12</title>
<path fill="none" stroke="midnightblue" d="M732,-120.36C732,-112.92 732,-102.74 732,-93.73"/>
<polygon fill="midnightblue" stroke="midnightblue" points="735.5,-93.57 732,-83.57 728.5,-93.57 735.5,-93.57"/>
</g>
<!-- Node13 -->
<g id="node13" class="node">
<title>Node13</title>
<g id="a_node13"><a xlink:title=" ">
<polygon fill="none" stroke="#bfbfbf" points="785.5,-60.5 785.5,-83.5 856.5,-83.5 856.5,-60.5 785.5,-60.5"/>
<text text-anchor="middle" x="821" y="-68.3" font-family="Helvetica,sans-Serif" font-size="14.00">QMutex</text>
</a>
</g>
</g>
<!-- Node6&#45;&gt;Node13 -->
<g id="edge12" class="edge">
<title>Node6&#45;&gt;Node13</title>
<path fill="none" stroke="midnightblue" d="M748.32,-120.36C761.75,-111.61 780.98,-99.08 796.29,-89.1"/>
<polygon fill="midnightblue" stroke="midnightblue" points="798.31,-91.96 804.78,-83.57 794.49,-86.1 798.31,-91.96"/>
</g>
<!-- Node14 -->
<g id="node14" class="node">
<title>Node14</title>
<g id="a_node14"><a xlink:title=" ">
<polygon fill="none" stroke="#bfbfbf" points="875,-60.5 875,-83.5 999,-83.5 999,-60.5 875,-60.5"/>
<text text-anchor="middle" x="937" y="-68.3" font-family="Helvetica,sans-Serif" font-size="14.00">QWaitCondition</text>
</a>
</g>
</g>
<!-- Node6&#45;&gt;Node14 -->
<g id="edge13" class="edge">
<title>Node6&#45;&gt;Node14</title>
<path fill="none" stroke="midnightblue" d="M769.12,-120.5C802.98,-110.92 853.16,-96.72 889.84,-86.34"/>
<polygon fill="midnightblue" stroke="midnightblue" points="891.14,-89.61 899.81,-83.52 889.23,-82.88 891.14,-89.61"/>
</g>
<!-- Node15 -->
<g id="node15" class="node">
<title>Node15</title>
<g id="a_node15"><a xlink:title=" ">
<polygon fill="none" stroke="#bfbfbf" points="1017,-60.5 1017,-83.5 1079,-83.5 1079,-60.5 1017,-60.5"/>
<text text-anchor="middle" x="1048" y="-68.3" font-family="Helvetica,sans-Serif" font-size="14.00">QTime</text>
</a>
</g>
</g>
<!-- Node6&#45;&gt;Node15 -->
<g id="edge14" class="edge">
<title>Node6&#45;&gt;Node15</title>
<path fill="none" stroke="midnightblue" d="M774.34,-125.13C826.76,-117.57 918.94,-103.31 1006.77,-84.12"/>
<polygon fill="midnightblue" stroke="midnightblue" points="1007.62,-87.52 1016.63,-81.94 1006.11,-80.68 1007.62,-87.52"/>
</g>
<!-- Node16 -->
<g id="node16" class="node">
<title>Node16</title>
<g id="a_node16"><a xlink:href="PosixCompat_8h.html" target="_top" xlink:title=" ">
<polygon fill="none" stroke="black" points="168,-60.5 168,-83.5 288,-83.5 288,-60.5 168,-60.5"/>
<text text-anchor="middle" x="228" y="-68.3" font-family="Helvetica,sans-Serif" font-size="14.00">PosixCompat.h</text>
</a>
</g>
</g>
<!-- Node6&#45;&gt;Node16 -->
<g id="edge15" class="edge">
<title>Node6&#45;&gt;Node16</title>
<path fill="none" stroke="midnightblue" d="M689.88,-122.26C685.21,-121.43 680.51,-120.66 676,-120 511.75,-96.13 466.56,-104.97 298.13,-84.08"/>
<polygon fill="midnightblue" stroke="midnightblue" points="298.54,-80.6 288.18,-82.82 297.66,-87.54 298.54,-80.6"/>
</g>
<!-- Node6&#45;&gt;Node18 -->
<g id="edge18" class="edge">
<title>Node6&#45;&gt;Node18</title>
<path fill="none" stroke="midnightblue" d="M689.9,-122.15C685.22,-121.34 680.52,-120.6 676,-120 450.9,-90.17 388.43,-118.09 160,-83.93"/>
<polygon fill="midnightblue" stroke="midnightblue" points="160.47,-80.46 150.05,-82.42 159.41,-87.38 160.47,-80.46"/>
</g>
<!-- Node16&#45;&gt;Node4 -->
<g id="edge16" class="edge">
<title>Node16&#45;&gt;Node4</title>
<path fill="none" stroke="midnightblue" d="M288.16,-61.02C291.15,-60.65 294.1,-60.31 297,-60 620.77,-25.84 1012.81,-16.16 1148.23,-13.73"/>
<polygon fill="midnightblue" stroke="midnightblue" points="1148.35,-17.23 1158.29,-13.56 1148.23,-10.23 1148.35,-17.23"/>
</g>
<!-- Node17 -->
<g id="node17" class="node">
<title>Node17</title>
<g id="a_node17"><a xlink:title=" ">
<polygon fill="none" stroke="#bfbfbf" points="191,-0.5 191,-23.5 265,-23.5 265,-0.5 191,-0.5"/>
<text text-anchor="middle" x="228" y="-8.3" font-family="Helvetica,sans-Serif" font-size="14.00">unistd.h</text>
</a>
</g>
</g>
<!-- Node16&#45;&gt;Node17 -->
<g id="edge17" class="edge">
<title>Node16&#45;&gt;Node17</title>
<path fill="none" stroke="midnightblue" d="M228,-60.36C228,-52.92 228,-42.74 228,-33.73"/>
<polygon fill="midnightblue" stroke="midnightblue" points="231.5,-33.57 228,-23.57 224.5,-33.57 231.5,-33.57"/>
</g>
<!-- Node19 -->
<g id="node19" class="node">
<title>Node19</title>
<g id="a_node19"><a xlink:title=" ">
<polygon fill="none" stroke="#bfbfbf" points="88,-0.5 88,-23.5 162,-23.5 162,-0.5 88,-0.5"/>
<text text-anchor="middle" x="125" y="-8.3" font-family="Helvetica,sans-Serif" font-size="14.00">QDebug</text>
</a>
</g>
</g>
<!-- Node18&#45;&gt;Node19 -->
<g id="edge19" class="edge">
<title>Node18&#45;&gt;Node19</title>
<path fill="none" stroke="midnightblue" d="M115.2,-60.36C116.76,-52.84 118.89,-42.52 120.77,-33.43"/>
<polygon fill="midnightblue" stroke="midnightblue" points="124.21,-34.07 122.81,-23.57 117.36,-32.65 124.21,-34.07"/>
</g>
<!-- Node20 -->
<g id="node20" class="node">
<title>Node20</title>
<g id="a_node20"><a xlink:title=" ">
<polygon fill="none" stroke="#bfbfbf" points="0,-0.5 0,-23.5 70,-23.5 70,-0.5 0,-0.5"/>
<text text-anchor="middle" x="35" y="-8.3" font-family="Helvetica,sans-Serif" font-size="14.00">QString</text>
</a>
</g>
</g>
<!-- Node18&#45;&gt;Node20 -->
<g id="edge20" class="edge">
<title>Node18&#45;&gt;Node20</title>
<path fill="none" stroke="midnightblue" d="M98.69,-60.36C87.15,-51.78 70.7,-39.55 57.41,-29.66"/>
<polygon fill="midnightblue" stroke="midnightblue" points="59.33,-26.73 49.22,-23.57 55.15,-32.35 59.33,-26.73"/>
</g>
<!-- Node21&#45;&gt;Node4 -->
<g id="edge23" class="edge">
<title>Node21&#45;&gt;Node4</title>
<path fill="none" stroke="midnightblue" d="M1233.46,-180.39C1230.11,-157.99 1221.62,-104.29 1211,-60 1208.9,-51.25 1206.15,-41.71 1203.64,-33.53"/>
<polygon fill="midnightblue" stroke="midnightblue" points="1206.9,-32.23 1200.56,-23.74 1200.22,-34.33 1206.9,-32.23"/>
</g>
<!-- Node21&#45;&gt;Node5 -->
<g id="edge24" class="edge">
<title>Node21&#45;&gt;Node5</title>
<path fill="none" stroke="midnightblue" d="M1215.74,-180.36C1199.53,-171.41 1176.15,-158.49 1157.89,-148.41"/>
<polygon fill="midnightblue" stroke="midnightblue" points="1159.58,-145.34 1149.14,-143.57 1156.2,-151.47 1159.58,-145.34"/>
</g>
<!-- Node21&#45;&gt;Node10 -->
<g id="edge27" class="edge">
<title>Node21&#45;&gt;Node10</title>
<path fill="none" stroke="midnightblue" d="M1226.78,-180.18C1215.95,-166.05 1196.14,-140.68 1178,-120 1169.33,-110.12 1159.24,-99.51 1150.82,-90.87"/>
<polygon fill="midnightblue" stroke="midnightblue" points="1153.15,-88.25 1143.64,-83.58 1148.16,-93.16 1153.15,-88.25"/>
</g>
<!-- Node22 -->
<g id="node22" class="node">
<title>Node22</title>
<g id="a_node22"><a xlink:title=" ">
<polygon fill="none" stroke="#bfbfbf" points="1263,-120.5 1263,-143.5 1325,-143.5 1325,-120.5 1263,-120.5"/>
<text text-anchor="middle" x="1294" y="-128.3" font-family="Helvetica,sans-Serif" font-size="14.00">QPoint</text>
</a>
</g>
</g>
<!-- Node21&#45;&gt;Node22 -->
<g id="edge25" class="edge">
<title>Node21&#45;&gt;Node22</title>
<path fill="none" stroke="midnightblue" d="M1245.82,-180.36C1254.22,-172.1 1266.05,-160.47 1275.89,-150.8"/>
<polygon fill="midnightblue" stroke="midnightblue" points="1278.57,-153.08 1283.25,-143.57 1273.66,-148.09 1278.57,-153.08"/>
</g>
<!-- Node23 -->
<g id="node23" class="node">
<title>Node23</title>
<g id="a_node23"><a xlink:title=" ">
<polygon fill="none" stroke="#bfbfbf" points="1343,-120.5 1343,-143.5 1409,-143.5 1409,-120.5 1343,-120.5"/>
<text text-anchor="middle" x="1376" y="-128.3" font-family="Helvetica,sans-Serif" font-size="14.00">QRectF</text>
</a>
</g>
</g>
<!-- Node21&#45;&gt;Node23 -->
<g id="edge26" class="edge">
<title>Node21&#45;&gt;Node23</title>
<path fill="none" stroke="midnightblue" d="M1260.53,-180.5C1282.95,-171.27 1315.78,-157.77 1340.71,-147.52"/>
<polygon fill="midnightblue" stroke="midnightblue" points="1342.26,-150.66 1350.18,-143.62 1339.6,-144.19 1342.26,-150.66"/>
</g>
<!-- Node24 -->
<g id="node24" class="node">
<title>Node24</title>
<g id="a_node24"><a xlink:title=" ">
<polygon fill="none" stroke="#bfbfbf" points="1427,-120.5 1427,-143.5 1485,-143.5 1485,-120.5 1427,-120.5"/>
<text text-anchor="middle" x="1456" y="-128.3" font-family="Helvetica,sans-Serif" font-size="14.00">QRect</text>
</a>
</g>
</g>
<!-- Node21&#45;&gt;Node24 -->
<g id="edge28" class="edge">
<title>Node21&#45;&gt;Node24</title>
<path fill="none" stroke="midnightblue" d="M1277.62,-180.44C1312.67,-171.67 1363.86,-158.67 1417.33,-144.13"/>
<polygon fill="midnightblue" stroke="midnightblue" points="1418.25,-147.51 1426.98,-141.5 1416.41,-140.76 1418.25,-147.51"/>
</g>
</g>
</svg>
        <g id="navigator" transform="translate(0 0)" fill="#404254">
                <rect fill="#f2f5e9" fill-opacity="0.5" stroke="#606060" stroke-width=".5" x="0" y="0" width="60" height="60"/>
                <use id="zoomplus" xlink:href="#zoomPlus" x="17" y="9" onmousedown="handleZoom(evt,'in')"/>
                <use id="zoomminus" xlink:href="#zoomMin" x="42" y="9" onmousedown="handleZoom(evt,'out')"/>
                <use id="reset" xlink:href="#resetDef" x="30" y="36" onmousedown="handleReset()"/>
                <g id="arrowUp" xlink:href="#dirArrow" transform="translate(30 24)" onmousedown="handlePan(0,-1)">
                  <use xlink:href="#rim" fill="#404040">
                        <set attributeName="fill" to="#808080" begin="arrowUp.mouseover" end="arrowUp.mouseout"/>
                  </use>
                  <path fill="none" stroke="white" stroke-width="1.5" d="M0,-3.0v7 M-2.5,-0.5L0,-3.0L2.5,-0.5"/>
                </g>
                <g id="arrowRight" xlink:href="#dirArrow" transform="rotate(90) translate(36 -43)" onmousedown="handlePan(1,0)">
                  <use xlink:href="#rim" fill="#404040">
                        <set attributeName="fill" to="#808080" begin="arrowRight.mouseover" end="arrowRight.mouseout"/>
                  </use>
                  <path fill="none" stroke="white" stroke-width="1.5" d="M0,-3.0v7 M-2.5,-0.5L0,-3.0L2.5,-0.5"/>
                </g>
                <g id="arrowDown" xlink:href="#dirArrow" transform="rotate(180) translate(-30 -48)" onmousedown="handlePan(0,1)">
                  <use xlink:href="#rim" fill="#404040">
                        <set attributeName="fill" to="#808080" begin="arrowDown.mouseover" end="arrowDown.mouseout"/>
                  </use>
                  <path fill="none" stroke="white" stroke-width="1.5" d="M0,-3.0v7 M-2.5,-0.5L0,-3.0L2.5,-0.5"/>
                </g>
                <g id="arrowLeft" xlink:href="#dirArrow" transform="rotate(270) translate(-36 17)" onmousedown="handlePan(-1,0)">
                  <use xlink:href="#rim" fill="#404040">
                        <set attributeName="fill" to="#808080" begin="arrowLeft.mouseover" end="arrowLeft.mouseout"/>
                  </use>
                  <path fill="none" stroke="white" stroke-width="1.5" d="M0,-3.0v7 M-2.5,-0.5L0,-3.0L2.5,-0.5"/>
                </g>
        </g>
        <svg viewBox="0 0 15 15" width="100%" height="30px" preserveAspectRatio="xMaxYMin meet">
         <g id="arrow_out" transform="scale(0.3 0.3)">
          <a xlink:href="VideoPlayer_8cpp__incl_org.svg" target="_base">
           <rect id="button" ry="5" rx="5" y="6" x="6" height="38" width="38"
                fill="#f2f5e9" fill-opacity="0.5" stroke="#606060" stroke-width="1.0"/>
           <path id="arrow"
             d="M 11.500037,31.436501 C 11.940474,20.09759 22.043105,11.32322 32.158766,21.979434 L 37.068811,17.246167 C 37.068811,17.246167 37.088388,32 37.088388,32 L 22.160133,31.978069 C 22.160133,31.978069 26.997745,27.140456 26.997745,27.140456 C 18.528582,18.264221 13.291696,25.230495 11.500037,31.436501 z"
             style="fill:#404040;"/>
          </a>
         </g>
        </svg>
</svg>
