<?xml version="1.0" encoding="UTF-8" standalone="no"?>
<!DOCTYPE svg PUBLIC "-//W3C//DTD SVG 1.1//EN"
 "http://www.w3.org/Graphics/SVG/1.1/DTD/svg11.dtd">
<!-- Generated by graphviz version 2.50.0 (0)
 -->
<!-- Title: VideoWidget.h Pages: 1 -->
<svg width="511pt" height="92pt"
 viewBox="0.00 0.00 510.50 92.00" xmlns="http://www.w3.org/2000/svg" xmlns:xlink="http://www.w3.org/1999/xlink">
<style><![CDATA[
text { fill: #e6e6e6 !important; }
polygon { fill: #2f2f2f !important; stroke: #9aa0a6 !important; }
path, line, polyline { stroke: #4e67d6 !important; }
]]></style>
<style><![CDATA[
text { fill: #e6e6e6 !important; }
polygon { fill: #2f2f2f !important; stroke: #9aa0a6 !important; }
path, line, polyline { stroke: #4e67d6 !important; }
]]></style>
<style><![CDATA[
text { fill: #e6e6e6 !important; }
polygon { fill: #2f2f2f !important; stroke: #9aa0a6 !important; }
path, line, polyline { stroke: #4e67d6 !important; }
]]></style>
<style><![CDATA[
text { fill: #e6e6e6 !important; }
polygon { fill: #2f2f2f !important; stroke: #9aa0a6 !important; }
path, line, polyline { stroke: #4e67d6 !important; }
]]></style>
<style><![CDATA[
text { fill: #e6e6e6 !important; }
polygon { fill: #2f2f2f !important; stroke: #9aa0a6 !important; }
path, line, polyline { stroke: #4e67d6 !important; }
]]></style>
<g id="graph0" class="graph" transform="scale(1 1) rotate(0) translate(4 88)">
<title>VideoWidget.h</title>
<!-- Node1 -->
<g id="node1" class="node">
<title>Node1</title>
<g id="a_node1"><a xlink:title="Video widget.">
<polygon fill="#bfbfbf" stroke="black" points="204,-60.5 204,-83.5 321,-83.5 321,-60.5 204,-60.5"/>
<text text-anchor="middle" x="262.5" y="-68.3" font-family="Helvetica,sans-Serif" font-size="14.00">VideoWidget.h</text>
</a>
</g>
</g>
<!-- Node2 -->
<g id="node2" class="node">
<title>Node2</title>
<g id="a_node2"><a xlink:title=" ">
<polygon fill="none" stroke="#bfbfbf" points="0,-0.5 0,-23.5 77,-23.5 77,-0.5 0,-0.5"/>
<text text-anchor="middle" x="38.5" y="-8.3" font-family="Helvetica,sans-Serif" font-size="14.00">QtGlobal</text>
</a>
</g>
</g>
<!-- Node1&#45;&gt;Node2 -->
<g id="edge1" class="edge">
<title>Node1&#45;&gt;Node2</title>
<path fill="none" stroke="midnightblue" d="M221.94,-60.5C184.05,-50.69 127.44,-36.03 87.14,-25.59"/>
<polygon fill="midnightblue" stroke="midnightblue" points="87.82,-22.16 77.26,-23.04 86.07,-28.93 87.82,-22.16"/>
</g>
<!-- Node3 -->
<g id="node3" class="node">
<title>Node3</title>
<g id="a_node3"><a xlink:title=" ">
<polygon fill="none" stroke="#bfbfbf" points="95,-0.5 95,-23.5 172,-23.5 172,-0.5 95,-0.5"/>
<text text-anchor="middle" x="133.5" y="-8.3" font-family="Helvetica,sans-Serif" font-size="14.00">QWidget</text>
</a>
</g>
</g>
<!-- Node1&#45;&gt;Node3 -->
<g id="edge2" class="edge">
<title>Node1&#45;&gt;Node3</title>
<path fill="none" stroke="midnightblue" d="M239.14,-60.5C218.81,-51.36 189.12,-38.01 166.39,-27.79"/>
<polygon fill="midnightblue" stroke="midnightblue" points="167.68,-24.53 157.12,-23.62 164.81,-30.91 167.68,-24.53"/>
</g>
<!-- Node4 -->
<g id="node4" class="node">
<title>Node4</title>
<g id="a_node4"><a xlink:title=" ">
<polygon fill="none" stroke="#bfbfbf" points="190.5,-0.5 190.5,-23.5 252.5,-23.5 252.5,-0.5 190.5,-0.5"/>
<text text-anchor="middle" x="221.5" y="-8.3" font-family="Helvetica,sans-Serif" font-size="14.00">QPoint</text>
</a>
</g>
</g>
<!-- Node1&#45;&gt;Node4 -->
<g id="edge3" class="edge">
<title>Node1&#45;&gt;Node4</title>
<path fill="none" stroke="midnightblue" d="M254.98,-60.36C249.37,-52.43 241.57,-41.39 234.9,-31.96"/>
<polygon fill="midnightblue" stroke="midnightblue" points="237.6,-29.72 228.97,-23.57 231.89,-33.76 237.6,-29.72"/>
</g>
<!-- Node5 -->
<g id="node5" class="node">
<title>Node5</title>
<g id="a_node5"><a xlink:title=" ">
<polygon fill="none" stroke="#bfbfbf" points="270.5,-0.5 270.5,-23.5 336.5,-23.5 336.5,-0.5 270.5,-0.5"/>
<text text-anchor="middle" x="303.5" y="-8.3" font-family="Helvetica,sans-Serif" font-size="14.00">QRectF</text>
</a>
</g>
</g>
<!-- Node1&#45;&gt;Node5 -->
<g id="edge4" class="edge">
<title>Node1&#45;&gt;Node5</title>
<path fill="none" stroke="midnightblue" d="M270.02,-60.36C275.63,-52.43 283.43,-41.39 290.1,-31.96"/>
<polygon fill="midnightblue" stroke="midnightblue" points="293.11,-33.76 296.03,-23.57 287.4,-29.72 293.11,-33.76"/>
</g>
<!-- Node6 -->
<g id="node6" class="node">
<title>Node6</title>
<g id="a_node6"><a xlink:title=" ">
<polygon fill="none" stroke="#bfbfbf" points="355,-0.5 355,-23.5 426,-23.5 426,-0.5 355,-0.5"/>
<text text-anchor="middle" x="390.5" y="-8.3" font-family="Helvetica,sans-Serif" font-size="14.00">QImage</text>
</a>
</g>
</g>
<!-- Node1&#45;&gt;Node6 -->
<g id="edge5" class="edge">
<title>Node1&#45;&gt;Node6</title>
<path fill="none" stroke="midnightblue" d="M285.68,-60.5C305.85,-51.36 335.31,-38.01 357.86,-27.79"/>
<polygon fill="midnightblue" stroke="midnightblue" points="359.4,-30.94 367.06,-23.62 356.51,-24.56 359.4,-30.94"/>
</g>
<!-- Node7 -->
<g id="node7" class="node">
<title>Node7</title>
<g id="a_node7"><a xlink:title=" ">
<polygon fill="none" stroke="#bfbfbf" points="444.5,-0.5 444.5,-23.5 502.5,-23.5 502.5,-0.5 444.5,-0.5"/>
<text text-anchor="middle" x="473.5" y="-8.3" font-family="Helvetica,sans-Serif" font-size="14.00">QRect</text>
</a>
</g>
</g>
<!-- Node1&#45;&gt;Node7 -->
<g id="edge6" class="edge">
<title>Node1&#45;&gt;Node7</title>
<path fill="none" stroke="midnightblue" d="M302.06,-60.45C335.03,-51.62 383.49,-38.53 434.56,-24.23"/>
<polygon fill="midnightblue" stroke="midnightblue" points="435.78,-27.53 444.47,-21.46 433.89,-20.79 435.78,-27.53"/>
</g>
</g>
</svg>
