<?xml version="1.0" encoding="UTF-8" standalone="no"?>
<!DOCTYPE svg PUBLIC "-//W3C//DTD SVG 1.1//EN"
 "http://www.w3.org/Graphics/SVG/1.1/DTD/svg11.dtd">
<!-- Generated by graphviz version 2.50.0 (0)
 -->
<!-- Title: VideoPlayer.h Pages: 1 -->
<!--zoomable 212 -->
<svg id="main" version="1.1" xmlns="http://www.w3.org/2000/svg" xmlns:xlink="http://www.w3.org/1999/xlink" xml:space="preserve" onload="init(evt)">
<style><![CDATA[
text { fill: #e6e6e6 !important; }
polygon { fill: #2f2f2f !important; stroke: #9aa0a6 !important; }
path, line, polyline { stroke: #4e67d6 !important; }
]]></style>
<style><![CDATA[
text { fill: #e6e6e6 !important; }
polygon { fill: #2f2f2f !important; stroke: #9aa0a6 !important; }
path, line, polyline { stroke: #4e67d6 !important; }
]]></style>
<style><![CDATA[
text { fill: #e6e6e6 !important; }
polygon { fill: #2f2f2f !important; stroke: #9aa0a6 !important; }
path, line, polyline { stroke: #4e67d6 !important; }
]]></style>
<style><![CDATA[
text { fill: #e6e6e6 !important; }
polygon { fill: #2f2f2f !important; stroke: #9aa0a6 !important; }
path, line, polyline { stroke: #4e67d6 !important; }
]]></style>
<style><![CDATA[
text { fill: #e6e6e6 !important; }
polygon { fill: #2f2f2f !important; stroke: #9aa0a6 !important; }
path, line, polyline { stroke: #4e67d6 !important; }
]]></style>
<style><![CDATA[
text { fill: #e6e6e6 !important; }
polygon { fill: #2f2f2f !important; stroke: #9aa0a6 !important; }
path, line, polyline { stroke: #4e67d6 !important; }
]]></style>
<style><![CDATA[
text { fill: #e6e6e6 !important; }
polygon { fill: #2f2f2f !important; stroke: #9aa0a6 !important; }
path, line, polyline { stroke: #4e67d6 !important; }
]]></style>
<style type="text/css"><![CDATA[
.edge:hover path { stroke: red; }
.edge:hover polygon { stroke: red; fill: red; }
]]></style>
<script type="text/javascript"><![CDATA[
var edges = document.getElementsByTagName('g');
if (edges && edges.length) {
  for (var i=0;i<edges.length;i++) {
    if (edges[i].id.substr(0,4)=='edge') {
      edges[i].setAttribute('class','edge');
    }
  }
}
]]></script>
        <defs>
                <circle id="rim" cx="0" cy="0" r="7"/>
                <circle id="rim2" cx="0" cy="0" r="3.5"/>
                <g id="zoomPlus">
                        <use xlink:href="#rim" fill="#404040">
                                <set attributeName="fill" to="#808080" begin="zoomplus.mouseover" end="zoomplus.mouseout"/>
                        </use>
                        <path d="M-4,0h8M0,-4v8" fill="none" stroke="white" stroke-width="1.5" pointer-events="none"/>
                </g>
                <g id="zoomMin">
                        <use xlink:href="#rim" fill="#404040">
                                <set attributeName="fill" to="#808080" begin="zoomminus.mouseover" end="zoomminus.mouseout"/>
                        </use>
                        <path d="M-4,0h8" fill="none" stroke="white" stroke-width="1.5" pointer-events="none"/>
                </g>
                <g id="dirArrow">
                        <path fill="none" stroke="white" stroke-width="1.5" d="M0,-3.0v7 M-2.5,-0.5L0,-3.0L2.5,-0.5"/>
                </g>
               <g id="resetDef">
                       <use xlink:href="#rim2" fill="#404040">
                               <set attributeName="fill" to="#808080" begin="reset.mouseover" end="reset.mouseout"/>
                       </use>
               </g>
        </defs>

<script type="text/javascript">
var viewWidth = 1300;
var viewHeight = 212;
var sectionId = 'dynsection-0';
</script>
<script xlink:href="svgpan.js"/>
<svg id="graph" class="graph">
<g id="viewport">
<title>VideoPlayer.h</title>
<!-- Node1 -->
<g id="node1" class="node">
<title>Node1</title>
<g id="a_node1"><a xlink:title="Video Player component.">
<polygon fill="#bfbfbf" stroke="black" points="245,-180.5 245,-203.5 355,-203.5 355,-180.5 245,-180.5"/>
<text text-anchor="middle" x="300" y="-188.3" font-family="Helvetica,sans-Serif" font-size="14.00">VideoPlayer.h</text>
</a>
</g>
</g>
<!-- Node2 -->
<g id="node2" class="node">
<title>Node2</title>
<g id="a_node2"><a xlink:title=" ">
<polygon fill="none" stroke="#bfbfbf" points="0,-120.5 0,-143.5 68,-143.5 68,-120.5 0,-120.5"/>
<text text-anchor="middle" x="34" y="-128.3" font-family="Helvetica,sans-Serif" font-size="14.00">QMovie</text>
</a>
</g>
</g>
<!-- Node1&#45;&gt;Node2 -->
<g id="edge1" class="edge">
<title>Node1&#45;&gt;Node2</title>
<path fill="none" stroke="midnightblue" d="M250.18,-180.45C205.96,-171.04 139.64,-156.82 82,-144 80.73,-143.72 79.45,-143.43 78.15,-143.14"/>
<polygon fill="midnightblue" stroke="midnightblue" points="78.6,-139.65 68.08,-140.87 77.06,-146.48 78.6,-139.65"/>
</g>
<!-- Node3 -->
<g id="node3" class="node">
<title>Node3</title>
<g id="a_node3"><a xlink:title=" ">
<polygon fill="none" stroke="#bfbfbf" points="494.5,-0.5 494.5,-23.5 571.5,-23.5 571.5,-0.5 494.5,-0.5"/>
<text text-anchor="middle" x="533" y="-8.3" font-family="Helvetica,sans-Serif" font-size="14.00">QtGlobal</text>
</a>
</g>
</g>
<!-- Node1&#45;&gt;Node3 -->
<g id="edge2" class="edge">
<title>Node1&#45;&gt;Node3</title>
<path fill="none" stroke="midnightblue" d="M259.51,-180.48C191.21,-160.91 65.17,-115.75 115,-60 139.26,-32.86 379.23,-19.49 484.23,-14.9"/>
<polygon fill="midnightblue" stroke="midnightblue" points="484.42,-18.39 494.26,-14.47 484.12,-11.4 484.42,-18.39"/>
</g>
<!-- Node4 -->
<g id="node4" class="node">
<title>Node4</title>
<g id="a_node4"><a xlink:title=" ">
<polygon fill="none" stroke="#bfbfbf" points="261.5,-120.5 261.5,-143.5 338.5,-143.5 338.5,-120.5 261.5,-120.5"/>
<text text-anchor="middle" x="300" y="-128.3" font-family="Helvetica,sans-Serif" font-size="14.00">QWidget</text>
</a>
</g>
</g>
<!-- Node1&#45;&gt;Node4 -->
<g id="edge3" class="edge">
<title>Node1&#45;&gt;Node4</title>
<path fill="none" stroke="midnightblue" d="M300,-180.36C300,-172.92 300,-162.74 300,-153.73"/>
<polygon fill="midnightblue" stroke="midnightblue" points="303.5,-153.57 300,-143.57 296.5,-153.57 303.5,-153.57"/>
</g>
<!-- Node5 -->
<g id="node5" class="node">
<title>Node5</title>
<g id="a_node5"><a xlink:href="Camera_8h.html" target="_top" xlink:title="Camera backend for .">
<polygon fill="none" stroke="black" points="546,-120.5 546,-143.5 630,-143.5 630,-120.5 546,-120.5"/>
<text text-anchor="middle" x="588" y="-128.3" font-family="Helvetica,sans-Serif" font-size="14.00">Camera.h</text>
</a>
</g>
</g>
<!-- Node1&#45;&gt;Node5 -->
<g id="edge4" class="edge">
<title>Node1&#45;&gt;Node5</title>
<path fill="none" stroke="midnightblue" d="M352.15,-180.5C404.13,-170.03 483.49,-154.05 535.56,-143.56"/>
<polygon fill="midnightblue" stroke="midnightblue" points="536.49,-146.94 545.6,-141.54 535.1,-140.08 536.49,-146.94"/>
</g>
<!-- Node17 -->
<g id="node17" class="node">
<title>Node17</title>
<g id="a_node17"><a xlink:href="QsLog_8h.html" target="_top" xlink:title="Qs Log logging support.">
<polygon fill="none" stroke="black" points="1142,-60.5 1142,-83.5 1216,-83.5 1216,-60.5 1142,-60.5"/>
<text text-anchor="middle" x="1179" y="-68.3" font-family="Helvetica,sans-Serif" font-size="14.00">QsLog.h</text>
</a>
</g>
</g>
<!-- Node1&#45;&gt;Node17 -->
<g id="edge20" class="edge">
<title>Node1&#45;&gt;Node17</title>
<path fill="none" stroke="midnightblue" d="M355.39,-185.95C488.02,-173.43 834.33,-138.09 1131.8,-84.08"/>
<polygon fill="midnightblue" stroke="midnightblue" points="1132.71,-87.47 1141.92,-82.23 1131.45,-80.58 1132.71,-87.47"/>
</g>
<!-- Node6 -->
<g id="node6" class="node">
<title>Node6</title>
<g id="a_node6"><a xlink:title=" ">
<polygon fill="none" stroke="#bfbfbf" points="124,-60.5 124,-83.5 190,-83.5 190,-60.5 124,-60.5"/>
<text text-anchor="middle" x="157" y="-68.3" font-family="Helvetica,sans-Serif" font-size="14.00">math.h</text>
</a>
</g>
</g>
<!-- Node5&#45;&gt;Node6 -->
<g id="edge5" class="edge">
<title>Node5&#45;&gt;Node6</title>
<path fill="none" stroke="midnightblue" d="M545.98,-127.81C476.15,-122.09 331.71,-108.54 200.6,-84.11"/>
<polygon fill="midnightblue" stroke="midnightblue" points="200.85,-80.6 190.38,-82.18 199.55,-87.48 200.85,-80.6"/>
</g>
<!-- Node7 -->
<g id="node7" class="node">
<title>Node7</title>
<g id="a_node7"><a xlink:title=" ">
<polygon fill="none" stroke="#bfbfbf" points="208,-60.5 208,-83.5 284,-83.5 284,-60.5 208,-60.5"/>
<text text-anchor="middle" x="246" y="-68.3" font-family="Helvetica,sans-Serif" font-size="14.00">QThread</text>
</a>
</g>
</g>
<!-- Node5&#45;&gt;Node7 -->
<g id="edge6" class="edge">
<title>Node5&#45;&gt;Node7</title>
<path fill="none" stroke="midnightblue" d="M545.82,-125.25C490.32,-117.48 389.54,-102.62 293.99,-84.1"/>
<polygon fill="midnightblue" stroke="midnightblue" points="294.66,-80.66 284.17,-82.18 293.31,-87.53 294.66,-80.66"/>
</g>
<!-- Node8 -->
<g id="node8" class="node">
<title>Node8</title>
<g id="a_node8"><a xlink:title=" ">
<polygon fill="none" stroke="#bfbfbf" points="302.5,-60.5 302.5,-83.5 381.5,-83.5 381.5,-60.5 302.5,-60.5"/>
<text text-anchor="middle" x="342" y="-68.3" font-family="Helvetica,sans-Serif" font-size="14.00">QPixmap</text>
</a>
</g>
</g>
<!-- Node5&#45;&gt;Node8 -->
<g id="edge7" class="edge">
<title>Node5&#45;&gt;Node8</title>
<path fill="none" stroke="midnightblue" d="M545.99,-121.1C503.25,-111.02 437.03,-95.4 391.7,-84.72"/>
<polygon fill="midnightblue" stroke="midnightblue" points="392.34,-81.27 381.8,-82.38 390.73,-88.09 392.34,-81.27"/>
</g>
<!-- Node9 -->
<g id="node9" class="node">
<title>Node9</title>
<g id="a_node9"><a xlink:title=" ">
<polygon fill="none" stroke="#bfbfbf" points="399.5,-60.5 399.5,-83.5 470.5,-83.5 470.5,-60.5 399.5,-60.5"/>
<text text-anchor="middle" x="435" y="-68.3" font-family="Helvetica,sans-Serif" font-size="14.00">QImage</text>
</a>
</g>
</g>
<!-- Node5&#45;&gt;Node9 -->
<g id="edge8" class="edge">
<title>Node5&#45;&gt;Node9</title>
<path fill="none" stroke="midnightblue" d="M560.29,-120.5C535.67,-111.16 499.48,-97.44 472.32,-87.15"/>
<polygon fill="midnightblue" stroke="midnightblue" points="473.35,-83.8 462.76,-83.52 470.87,-90.34 473.35,-83.8"/>
</g>
<!-- Node10 -->
<g id="node10" class="node">
<title>Node10</title>
<g id="a_node10"><a xlink:title=" ">
<polygon fill="none" stroke="#bfbfbf" points="488.5,-60.5 488.5,-83.5 585.5,-83.5 585.5,-60.5 488.5,-60.5"/>
<text text-anchor="middle" x="537" y="-68.3" font-family="Helvetica,sans-Serif" font-size="14.00">QByteArray</text>
</a>
</g>
</g>
<!-- Node5&#45;&gt;Node10 -->
<g id="edge9" class="edge">
<title>Node5&#45;&gt;Node10</title>
<path fill="none" stroke="midnightblue" d="M578.65,-120.36C571.46,-112.19 561.36,-100.7 552.91,-91.09"/>
<polygon fill="midnightblue" stroke="midnightblue" points="555.53,-88.77 546.29,-83.57 550.27,-93.39 555.53,-88.77"/>
</g>
<!-- Node11 -->
<g id="node11" class="node">
<title>Node11</title>
<g id="a_node11"><a xlink:title=" ">
<polygon fill="none" stroke="#bfbfbf" points="603.5,-60.5 603.5,-83.5 674.5,-83.5 674.5,-60.5 603.5,-60.5"/>
<text text-anchor="middle" x="639" y="-68.3" font-family="Helvetica,sans-Serif" font-size="14.00">QBuffer</text>
</a>
</g>
</g>
<!-- Node5&#45;&gt;Node11 -->
<g id="edge10" class="edge">
<title>Node5&#45;&gt;Node11</title>
<path fill="none" stroke="midnightblue" d="M597.35,-120.36C604.54,-112.19 614.64,-100.7 623.09,-91.09"/>
<polygon fill="midnightblue" stroke="midnightblue" points="625.73,-93.39 629.71,-83.57 620.47,-88.77 625.73,-93.39"/>
</g>
<!-- Node12 -->
<g id="node12" class="node">
<title>Node12</title>
<g id="a_node12"><a xlink:title=" ">
<polygon fill="none" stroke="#bfbfbf" points="692.5,-60.5 692.5,-83.5 763.5,-83.5 763.5,-60.5 692.5,-60.5"/>
<text text-anchor="middle" x="728" y="-68.3" font-family="Helvetica,sans-Serif" font-size="14.00">QMutex</text>
</a>
</g>
</g>
<!-- Node5&#45;&gt;Node12 -->
<g id="edge11" class="edge">
<title>Node5&#45;&gt;Node12</title>
<path fill="none" stroke="midnightblue" d="M613.35,-120.5C635.61,-111.27 668.21,-97.77 692.96,-87.52"/>
<polygon fill="midnightblue" stroke="midnightblue" points="694.46,-90.68 702.36,-83.62 691.78,-84.22 694.46,-90.68"/>
</g>
<!-- Node13 -->
<g id="node13" class="node">
<title>Node13</title>
<g id="a_node13"><a xlink:title=" ">
<polygon fill="none" stroke="#bfbfbf" points="782,-60.5 782,-83.5 906,-83.5 906,-60.5 782,-60.5"/>
<text text-anchor="middle" x="844" y="-68.3" font-family="Helvetica,sans-Serif" font-size="14.00">QWaitCondition</text>
</a>
</g>
</g>
<!-- Node5&#45;&gt;Node13 -->
<g id="edge12" class="edge">
<title>Node5&#45;&gt;Node13</title>
<path fill="none" stroke="midnightblue" d="M630.27,-121.42C673.23,-111.69 740.03,-96.56 787.5,-85.8"/>
<polygon fill="midnightblue" stroke="midnightblue" points="788.35,-89.2 797.32,-83.57 786.8,-82.37 788.35,-89.2"/>
</g>
<!-- Node14 -->
<g id="node14" class="node">
<title>Node14</title>
<g id="a_node14"><a xlink:title=" ">
<polygon fill="none" stroke="#bfbfbf" points="924,-60.5 924,-83.5 986,-83.5 986,-60.5 924,-60.5"/>
<text text-anchor="middle" x="955" y="-68.3" font-family="Helvetica,sans-Serif" font-size="14.00">QTime</text>
</a>
</g>
</g>
<!-- Node5&#45;&gt;Node14 -->
<g id="edge13" class="edge">
<title>Node5&#45;&gt;Node14</title>
<path fill="none" stroke="midnightblue" d="M630.11,-126.66C690.77,-120.04 806.38,-106.01 913.63,-84.1"/>
<polygon fill="midnightblue" stroke="midnightblue" points="914.57,-87.48 923.65,-82.02 913.15,-80.62 914.57,-87.48"/>
</g>
<!-- Node15 -->
<g id="node15" class="node">
<title>Node15</title>
<g id="a_node15"><a xlink:href="PosixCompat_8h.html" target="_top" xlink:title=" ">
<polygon fill="none" stroke="black" points="1004,-60.5 1004,-83.5 1124,-83.5 1124,-60.5 1004,-60.5"/>
<text text-anchor="middle" x="1064" y="-68.3" font-family="Helvetica,sans-Serif" font-size="14.00">PosixCompat.h</text>
</a>
</g>
</g>
<!-- Node5&#45;&gt;Node15 -->
<g id="edge14" class="edge">
<title>Node5&#45;&gt;Node15</title>
<path fill="none" stroke="midnightblue" d="M630.26,-126.73C702.55,-119.28 854.81,-103.03 993.83,-84.12"/>
<polygon fill="midnightblue" stroke="midnightblue" points="994.38,-87.58 1003.81,-82.75 993.43,-80.64 994.38,-87.58"/>
</g>
<!-- Node5&#45;&gt;Node17 -->
<g id="edge17" class="edge">
<title>Node5&#45;&gt;Node17</title>
<path fill="none" stroke="midnightblue" d="M630.32,-129.49C720.73,-125.82 939.49,-114.46 1131.93,-83.97"/>
<polygon fill="midnightblue" stroke="midnightblue" points="1132.62,-87.4 1141.94,-82.36 1131.51,-80.49 1132.62,-87.4"/>
</g>
<!-- Node15&#45;&gt;Node3 -->
<g id="edge15" class="edge">
<title>Node15&#45;&gt;Node3</title>
<path fill="none" stroke="midnightblue" d="M1003.82,-61.2C1000.84,-60.78 997.89,-60.38 995,-60 844.77,-40.4 666.16,-24.25 581.78,-17.05"/>
<polygon fill="midnightblue" stroke="midnightblue" points="581.98,-13.55 571.72,-16.19 581.39,-20.53 581.98,-13.55"/>
</g>
<!-- Node16 -->
<g id="node16" class="node">
<title>Node16</title>
<g id="a_node16"><a xlink:title=" ">
<polygon fill="none" stroke="#bfbfbf" points="1027,-0.5 1027,-23.5 1101,-23.5 1101,-0.5 1027,-0.5"/>
<text text-anchor="middle" x="1064" y="-8.3" font-family="Helvetica,sans-Serif" font-size="14.00">unistd.h</text>
</a>
</g>
</g>
<!-- Node15&#45;&gt;Node16 -->
<g id="edge16" class="edge">
<title>Node15&#45;&gt;Node16</title>
<path fill="none" stroke="midnightblue" d="M1064,-60.36C1064,-52.92 1064,-42.74 1064,-33.73"/>
<polygon fill="midnightblue" stroke="midnightblue" points="1067.5,-33.57 1064,-23.57 1060.5,-33.57 1067.5,-33.57"/>
</g>
<!-- Node18 -->
<g id="node18" class="node">
<title>Node18</title>
<g id="a_node18"><a xlink:title=" ">
<polygon fill="none" stroke="#bfbfbf" points="1130,-0.5 1130,-23.5 1204,-23.5 1204,-0.5 1130,-0.5"/>
<text text-anchor="middle" x="1167" y="-8.3" font-family="Helvetica,sans-Serif" font-size="14.00">QDebug</text>
</a>
</g>
</g>
<!-- Node17&#45;&gt;Node18 -->
<g id="edge18" class="edge">
<title>Node17&#45;&gt;Node18</title>
<path fill="none" stroke="midnightblue" d="M1176.8,-60.36C1175.24,-52.84 1173.11,-42.52 1171.23,-33.43"/>
<polygon fill="midnightblue" stroke="midnightblue" points="1174.64,-32.65 1169.19,-23.57 1167.79,-34.07 1174.64,-32.65"/>
</g>
<!-- Node19 -->
<g id="node19" class="node">
<title>Node19</title>
<g id="a_node19"><a xlink:title=" ">
<polygon fill="none" stroke="#bfbfbf" points="1222,-0.5 1222,-23.5 1292,-23.5 1292,-0.5 1222,-0.5"/>
<text text-anchor="middle" x="1257" y="-8.3" font-family="Helvetica,sans-Serif" font-size="14.00">QString</text>
</a>
</g>
</g>
<!-- Node17&#45;&gt;Node19 -->
<g id="edge19" class="edge">
<title>Node17&#45;&gt;Node19</title>
<path fill="none" stroke="midnightblue" d="M1193.31,-60.36C1204.85,-51.78 1221.3,-39.55 1234.59,-29.66"/>
<polygon fill="midnightblue" stroke="midnightblue" points="1236.85,-32.35 1242.78,-23.57 1232.67,-26.73 1236.85,-32.35"/>
</g>
</g>
</svg>
        <g id="navigator" transform="translate(0 0)" fill="#404254">
                <rect fill="#f2f5e9" fill-opacity="0.5" stroke="#606060" stroke-width=".5" x="0" y="0" width="60" height="60"/>
                <use id="zoomplus" xlink:href="#zoomPlus" x="17" y="9" onmousedown="handleZoom(evt,'in')"/>
                <use id="zoomminus" xlink:href="#zoomMin" x="42" y="9" onmousedown="handleZoom(evt,'out')"/>
                <use id="reset" xlink:href="#resetDef" x="30" y="36" onmousedown="handleReset()"/>
                <g id="arrowUp" xlink:href="#dirArrow" transform="translate(30 24)" onmousedown="handlePan(0,-1)">
                  <use xlink:href="#rim" fill="#404040">
                        <set attributeName="fill" to="#808080" begin="arrowUp.mouseover" end="arrowUp.mouseout"/>
                  </use>
                  <path fill="none" stroke="white" stroke-width="1.5" d="M0,-3.0v7 M-2.5,-0.5L0,-3.0L2.5,-0.5"/>
                </g>
                <g id="arrowRight" xlink:href="#dirArrow" transform="rotate(90) translate(36 -43)" onmousedown="handlePan(1,0)">
                  <use xlink:href="#rim" fill="#404040">
                        <set attributeName="fill" to="#808080" begin="arrowRight.mouseover" end="arrowRight.mouseout"/>
                  </use>
                  <path fill="none" stroke="white" stroke-width="1.5" d="M0,-3.0v7 M-2.5,-0.5L0,-3.0L2.5,-0.5"/>
                </g>
                <g id="arrowDown" xlink:href="#dirArrow" transform="rotate(180) translate(-30 -48)" onmousedown="handlePan(0,1)">
                  <use xlink:href="#rim" fill="#404040">
                        <set attributeName="fill" to="#808080" begin="arrowDown.mouseover" end="arrowDown.mouseout"/>
                  </use>
                  <path fill="none" stroke="white" stroke-width="1.5" d="M0,-3.0v7 M-2.5,-0.5L0,-3.0L2.5,-0.5"/>
                </g>
                <g id="arrowLeft" xlink:href="#dirArrow" transform="rotate(270) translate(-36 17)" onmousedown="handlePan(-1,0)">
                  <use xlink:href="#rim" fill="#404040">
                        <set attributeName="fill" to="#808080" begin="arrowLeft.mouseover" end="arrowLeft.mouseout"/>
                  </use>
                  <path fill="none" stroke="white" stroke-width="1.5" d="M0,-3.0v7 M-2.5,-0.5L0,-3.0L2.5,-0.5"/>
                </g>
        </g>
        <svg viewBox="0 0 15 15" width="100%" height="30px" preserveAspectRatio="xMaxYMin meet">
         <g id="arrow_out" transform="scale(0.3 0.3)">
          <a xlink:href="VideoPlayer_8h__incl_org.svg" target="_base">
           <rect id="button" ry="5" rx="5" y="6" x="6" height="38" width="38"
                fill="#f2f5e9" fill-opacity="0.5" stroke="#606060" stroke-width="1.0"/>
           <path id="arrow"
             d="M 11.500037,31.436501 C 11.940474,20.09759 22.043105,11.32322 32.158766,21.979434 L 37.068811,17.246167 C 37.068811,17.246167 37.088388,32 37.088388,32 L 22.160133,31.978069 C 22.160133,31.978069 26.997745,27.140456 26.997745,27.140456 C 18.528582,18.264221 13.291696,25.230495 11.500037,31.436501 z"
             style="fill:#404040;"/>
          </a>
         </g>
        </svg>
</svg>
